<?xml version="1.0" encoding="utf-8" standalone="no"?>
<!DOCTYPE svg PUBLIC "-//W3C//DTD SVG 1.1//EN"
  "http://www.w3.org/Graphics/SVG/1.1/DTD/svg11.dtd">
<!-- Created with matplotlib (https://matplotlib.org/) -->
<svg height="576pt" version="1.1" viewBox="0 0 2603.52 576" width="2603.52pt" xmlns="http://www.w3.org/2000/svg" xmlns:xlink="http://www.w3.org/1999/xlink">
 <metadata>
  <rdf:RDF xmlns:cc="http://creativecommons.org/ns#" xmlns:dc="http://purl.org/dc/elements/1.1/" xmlns:rdf="http://www.w3.org/1999/02/22-rdf-syntax-ns#">
   <cc:Work>
    <dc:type rdf:resource="http://purl.org/dc/dcmitype/StillImage"/>
    <dc:date>2022-12-01T10:17:29.068926</dc:date>
    <dc:format>image/svg+xml</dc:format>
    <dc:creator>
     <cc:Agent>
      <dc:title>Matplotlib v3.3.4, https://matplotlib.org/</dc:title>
     </cc:Agent>
    </dc:creator>
   </cc:Work>
  </rdf:RDF>
 </metadata>
 <defs>
  <style type="text/css">*{stroke-linecap:butt;stroke-linejoin:round;}</style>
 </defs>
 <g id="figure_1">
  <g id="patch_1">
   <path d="M 0 576 
L 2603.52 576 
L 2603.52 0 
L 0 0 
z
" style="fill:#ffffff;"/>
  </g>
  <g id="axes_1">
   <g id="patch_2">
    <path d="M 325.44 504 
L 2343.168 504 
L 2343.168 69.12 
L 325.44 69.12 
z
" style="fill:#ffffff;"/>
   </g>
   <g id="matplotlib.axis_1">
    <g id="xtick_1">
     <g id="line2d_1">
      <defs>
       <path d="M 0 0 
L 0 -3.5 
" id="m56990787c3" style="stroke:#262626;stroke-width:0.8;"/>
      </defs>
      <g>
       <use style="fill:#262626;stroke:#262626;stroke-width:0.8;" x="325.44" xlink:href="#m56990787c3" y="509"/>
      </g>
     </g>
     <g id="text_1">
      <text style="fill:#262626;font-family:Arial;font-size:30px;font-stretch:normal;font-style:normal;font-weight:normal;text-anchor:middle;" transform="rotate(-0, 325.44, 533.973438)" x="325.44" y="533.973438">0</text>
     </g>
    </g>
    <g id="xtick_2">
     <g id="line2d_2">
      <g>
       <use style="fill:#262626;stroke:#262626;stroke-width:0.8;" x="769.594661" xlink:href="#m56990787c3" y="509"/>
      </g>
     </g>
     <g id="text_2">
      <text style="fill:#262626;font-family:Arial;font-size:30px;font-stretch:normal;font-style:normal;font-weight:normal;text-anchor:middle;" transform="rotate(-0, 769.594661, 533.973438)" x="769.594661" y="533.973438">100</text>
     </g>
    </g>
    <g id="xtick_3">
     <g id="line2d_3">
      <g>
       <use style="fill:#262626;stroke:#262626;stroke-width:0.8;" x="1213.749321" xlink:href="#m56990787c3" y="509"/>
      </g>
     </g>
     <g id="text_3">
      <text style="fill:#262626;font-family:Arial;font-size:30px;font-stretch:normal;font-style:normal;font-weight:normal;text-anchor:middle;" transform="rotate(-0, 1213.749321, 533.973438)" x="1213.749321" y="533.973438">200</text>
     </g>
    </g>
    <g id="xtick_4">
     <g id="line2d_4">
      <g>
       <use style="fill:#262626;stroke:#262626;stroke-width:0.8;" x="1657.903982" xlink:href="#m56990787c3" y="509"/>
      </g>
     </g>
     <g id="text_4">
      <text style="fill:#262626;font-family:Arial;font-size:30px;font-stretch:normal;font-style:normal;font-weight:normal;text-anchor:middle;" transform="rotate(-0, 1657.903982, 533.973438)" x="1657.903982" y="533.973438">300</text>
     </g>
    </g>
    <g id="xtick_5">
     <g id="line2d_5">
      <g>
       <use style="fill:#262626;stroke:#262626;stroke-width:0.8;" x="2102.058642" xlink:href="#m56990787c3" y="509"/>
      </g>
     </g>
     <g id="text_5">
      <text style="fill:#262626;font-family:Arial;font-size:30px;font-stretch:normal;font-style:normal;font-weight:normal;text-anchor:middle;" transform="rotate(-0, 2102.058642, 533.973438)" x="2102.058642" y="533.973438">400</text>
     </g>
    </g>
    <g id="text_6">
     <text style="fill:#262626;font-family:Arial;font-size:30px;font-stretch:normal;font-style:normal;font-weight:normal;text-anchor:middle;" transform="rotate(-0, 1334.304, 565.775)" x="1334.304" y="565.775">Distance (um)</text>
    </g>
   </g>
   <g id="matplotlib.axis_2">
    <g id="ytick_1">
     <g id="line2d_6">
      <defs>
       <path d="M 0 0 
L 3.5 0 
" id="m43741def14" style="stroke:#262626;stroke-width:0.8;"/>
      </defs>
      <g>
       <use style="fill:#262626;stroke:#262626;stroke-width:0.8;" x="320.44" xlink:href="#m43741def14" y="504"/>
      </g>
     </g>
     <g id="text_7">
      <text style="fill:#262626;font-family:Arial;font-size:30px;font-stretch:normal;font-style:normal;font-weight:normal;text-anchor:end;" transform="rotate(-0, 316.94, 514.736719)" x="316.94" y="514.736719">0</text>
     </g>
    </g>
    <g id="ytick_2">
     <g id="line2d_7">
      <g>
       <use style="fill:#262626;stroke:#262626;stroke-width:0.8;" x="320.44" xlink:href="#m43741def14" y="417.024"/>
      </g>
     </g>
     <g id="text_8">
      <text style="fill:#262626;font-family:Arial;font-size:30px;font-stretch:normal;font-style:normal;font-weight:normal;text-anchor:end;" transform="rotate(-0, 316.94, 427.760719)" x="316.94" y="427.760719">20</text>
     </g>
    </g>
    <g id="ytick_3">
     <g id="line2d_8">
      <g>
       <use style="fill:#262626;stroke:#262626;stroke-width:0.8;" x="320.44" xlink:href="#m43741def14" y="330.048"/>
      </g>
     </g>
     <g id="text_9">
      <text style="fill:#262626;font-family:Arial;font-size:30px;font-stretch:normal;font-style:normal;font-weight:normal;text-anchor:end;" transform="rotate(-0, 316.94, 340.784719)" x="316.94" y="340.784719">40</text>
     </g>
    </g>
    <g id="ytick_4">
     <g id="line2d_9">
      <g>
       <use style="fill:#262626;stroke:#262626;stroke-width:0.8;" x="320.44" xlink:href="#m43741def14" y="243.072"/>
      </g>
     </g>
     <g id="text_10">
      <text style="fill:#262626;font-family:Arial;font-size:30px;font-stretch:normal;font-style:normal;font-weight:normal;text-anchor:end;" transform="rotate(-0, 316.94, 253.808719)" x="316.94" y="253.808719">60</text>
     </g>
    </g>
    <g id="ytick_5">
     <g id="line2d_10">
      <g>
       <use style="fill:#262626;stroke:#262626;stroke-width:0.8;" x="320.44" xlink:href="#m43741def14" y="156.096"/>
      </g>
     </g>
     <g id="text_11">
      <text style="fill:#262626;font-family:Arial;font-size:30px;font-stretch:normal;font-style:normal;font-weight:normal;text-anchor:end;" transform="rotate(-0, 316.94, 166.832719)" x="316.94" y="166.832719">80</text>
     </g>
    </g>
    <g id="ytick_6">
     <g id="line2d_11">
      <g>
       <use style="fill:#262626;stroke:#262626;stroke-width:0.8;" x="320.44" xlink:href="#m43741def14" y="69.12"/>
      </g>
     </g>
     <g id="text_12">
      <text style="fill:#262626;font-family:Arial;font-size:30px;font-stretch:normal;font-style:normal;font-weight:normal;text-anchor:end;" transform="rotate(-0, 316.94, 79.856719)" x="316.94" y="79.856719">100</text>
     </g>
    </g>
    <g id="text_13">
     <text style="fill:#262626;font-family:Arial;font-size:30px;font-stretch:normal;font-style:normal;font-weight:normal;text-anchor:middle;" transform="rotate(-90, 256.5775, 286.56)" x="256.5775" y="286.56">Intensity (AU)</text>
    </g>
   </g>
   <g id="line2d_12">
    <path clip-path="url(#p57da8e428d)" d="M 325.44 467.813026 
L 325.998154 471.615248 
L 326.556309 474.280729 
L 327.114463 475.429581 
L 327.672617 475.52444 
L 328.230772 475.490849 
L 328.788926 476.211245 
L 329.34708 478.101704 
L 331.021544 486.951592 
L 331.579698 488.7004 
L 332.137852 489.369773 
L 332.696007 489.29568 
L 333.812315 488.596704 
L 334.37047 488.875083 
L 334.928624 490.090874 
L 336.044933 494.258395 
L 336.603087 495.463424 
L 337.161241 494.616132 
L 337.719396 490.731058 
L 338.27755 483.141396 
L 338.835705 471.840116 
L 340.510168 430.158365 
L 341.068322 421.777017 
L 341.626476 419.812414 
L 342.184631 424.762517 
L 342.742785 435.290337 
L 343.859094 459.281308 
L 344.417248 464.513618 
L 344.975402 462.304001 
L 345.533557 454.294048 
L 346.091711 444.546552 
L 346.649866 437.528635 
L 347.20802 436.287813 
L 347.766174 441.47279 
L 349.440637 469.51137 
L 349.998792 471.5945 
L 350.556946 467.88543 
L 352.231409 446.25364 
L 352.789563 444.134022 
L 353.347718 445.43143 
L 353.905872 448.00824 
L 354.464027 448.892805 
L 355.022181 445.829047 
L 355.580335 438.58913 
L 356.696644 419.917756 
L 357.254798 413.57355 
L 357.812953 411.205198 
L 358.371107 413.098053 
L 358.929261 419.075486 
L 359.487416 428.596974 
L 361.161879 462.498821 
L 361.720033 469.173099 
L 362.278188 472.657235 
L 362.836342 474.237288 
L 363.952651 476.052543 
L 364.510805 475.712762 
L 365.068959 472.584837 
L 365.627114 465.547674 
L 367.301577 432.741085 
L 367.859731 426.020012 
L 368.417885 423.796655 
L 368.97604 425.786531 
L 369.534194 431.383465 
L 370.092349 439.966884 
L 372.324966 481.688217 
L 372.88312 487.514802 
L 373.441275 490.441557 
L 373.999429 490.722824 
L 374.557583 488.803429 
L 375.673892 482.177536 
L 376.232046 480.076746 
L 376.790201 479.960051 
L 377.348355 481.698123 
L 379.580973 492.607591 
L 380.697281 496.294502 
L 381.81359 499.124114 
L 382.371744 500.204196 
L 382.929899 500.948396 
L 383.488053 501.004329 
L 384.046207 499.515842 
L 384.604362 495.146179 
L 385.162516 486.469794 
L 385.720671 472.590813 
L 386.836979 432.17222 
L 387.953288 393.073266 
L 388.511442 380.764617 
L 389.069597 374.180784 
L 389.627751 372.508142 
L 390.185905 374.809795 
L 390.74406 380.821998 
L 391.302214 390.98695 
L 391.860368 405.61302 
L 394.092986 478.721342 
L 394.65114 489.859714 
L 395.209295 496.571226 
L 395.767449 499.931597 
L 396.325603 501.254548 
L 396.883758 501.392919 
L 397.441912 500.313454 
L 398.000066 497.095089 
L 398.558221 490.34803 
L 399.116375 478.978785 
L 400.232684 443.970611 
L 401.348993 406.456585 
L 401.907147 391.69408 
L 402.465301 380.612809 
L 403.023456 373.644185 
L 403.58161 371.518003 
L 404.139764 375.172612 
L 404.697919 385.347184 
L 405.256073 401.991386 
L 407.48869 487.854096 
L 408.046845 499.75282 
L 408.604999 505.048637 
L 409.163154 503.812292 
L 409.721308 496.312528 
L 410.279462 483.03282 
L 411.395771 444.834931 
L 412.51208 408.078464 
L 413.070234 395.518681 
L 413.628388 387.742654 
L 414.186543 384.64584 
L 414.744697 386.07717 
L 415.302851 392.13209 
L 415.861006 402.969975 
L 416.41916 418.250705 
L 418.093623 472.471532 
L 418.651778 485.320782 
L 419.209932 493.770898 
L 419.768086 498.560146 
L 420.326241 500.82119 
L 420.884395 501.614122 
L 421.442549 501.746323 
L 422.558858 501.781374 
L 423.675167 502.031869 
L 425.907784 501.956395 
L 426.465939 501.690821 
L 427.024093 501.028855 
L 427.582247 499.843709 
L 428.140402 497.787919 
L 428.698556 494.117365 
L 429.25671 487.842975 
L 429.814865 478.191562 
L 430.931173 450.313757 
L 431.489328 436.0563 
L 432.047482 425.305207 
L 432.605637 419.925177 
L 433.163791 419.874632 
L 434.2801 425.569199 
L 434.838254 424.202824 
L 435.396408 417.422797 
L 437.070871 385.285395 
L 437.629026 380.443124 
L 438.18718 381.151862 
L 438.745334 387.56244 
L 439.303489 399.353191 
L 440.419798 434.485261 
L 441.536106 470.827596 
L 442.094261 484.234966 
L 442.652415 493.270885 
L 443.210569 498.335714 
L 443.768724 500.546808 
L 444.326878 501.19991 
L 445.443187 501.265981 
L 446.559495 501.434767 
L 447.675804 502.021076 
L 448.233959 502.126977 
L 448.792113 501.91427 
L 450.466576 500.663744 
L 451.02473 500.505177 
L 451.582885 500.512208 
L 452.141039 500.735357 
L 452.699193 501.24778 
L 454.373656 503.447246 
L 454.931811 503.838884 
L 455.489965 503.985629 
L 456.606274 503.79546 
L 457.722583 503.558781 
L 458.280737 503.674288 
L 458.838891 504.026484 
L 459.397046 504.624745 
L 460.513354 506.03011 
L 461.071509 505.804628 
L 461.629663 503.529457 
L 462.187817 497.691418 
L 462.745972 486.930369 
L 463.304126 470.832751 
L 465.536744 389.345656 
L 466.094898 375.978481 
L 466.653052 367.422115 
L 467.211207 363.468147 
L 467.769361 363.702144 
L 468.327515 367.834609 
L 468.88567 375.905258 
L 469.443824 387.82656 
L 470.560133 415.923618 
L 471.118287 424.878987 
L 471.676441 426.693615 
L 472.234596 422.180928 
L 472.79275 415.127556 
L 473.350905 410.430847 
L 473.909059 411.876845 
L 474.467213 420.69673 
L 476.141676 466.872581 
L 476.699831 475.520746 
L 477.257985 476.359017 
L 477.816139 470.095489 
L 478.932448 448.539261 
L 479.490602 441.156054 
L 480.048757 440.003906 
L 480.606911 445.239829 
L 481.72322 462.824078 
L 482.281374 466.435599 
L 482.839529 462.221796 
L 483.397683 449.701447 
L 484.513992 409.188016 
L 485.6303 370.559868 
L 486.746609 344.512595 
L 487.304763 335.229105 
L 487.862918 328.2821 
L 488.421072 324.082931 
L 488.979227 323.116624 
L 489.537381 325.780516 
L 490.095535 332.651127 
L 490.65369 344.637911 
L 491.211844 362.524925 
L 492.328153 413.361841 
L 493.444461 464.444042 
L 494.002616 482.05719 
L 494.56077 493.287277 
L 495.118924 499.4 
L 495.677079 502.18346 
L 496.235233 503.107996 
L 496.793388 503.097898 
L 499.026005 501.585955 
L 499.584159 500.848772 
L 500.700468 498.174572 
L 501.258622 496.883218 
L 501.816777 496.165925 
L 502.374931 496.223727 
L 502.933085 497.046413 
L 504.607549 501.39403 
L 505.165703 502.185848 
L 505.723857 501.861943 
L 506.282012 500.016934 
L 506.840166 496.510194 
L 507.956475 485.547188 
L 508.514629 479.769147 
L 509.072783 475.694024 
L 509.630938 474.622523 
L 510.189092 476.963283 
L 510.747246 482.044448 
L 511.863555 494.178352 
L 512.42171 497.514414 
L 512.979864 496.57635 
L 513.538018 489.69067 
L 514.096173 475.711336 
L 514.654327 454.677732 
L 516.32879 375.10104 
L 516.886944 355.450317 
L 517.445099 343.146797 
L 518.003253 338.206832 
L 518.561407 339.870337 
L 519.119562 347.474638 
L 519.677716 360.712984 
L 520.235871 379.08413 
L 522.468488 467.629214 
L 523.026642 482.905673 
L 523.584797 493.333383 
L 524.142951 499.520696 
L 524.701105 502.453571 
L 525.25926 502.806818 
L 525.817414 500.512875 
L 526.375568 494.77904 
L 526.933723 484.539766 
L 527.491877 469.07667 
L 528.608186 424.269288 
L 529.724495 374.080499 
L 530.282649 353.339063 
L 530.840803 338.212686 
L 531.398958 329.972981 
L 531.957112 329.206381 
L 532.515266 335.786153 
L 533.073421 349.059863 
L 534.189729 389.908021 
L 534.747884 411.574831 
L 535.306038 428.208761 
L 535.864193 435.846057 
L 536.422347 433.166267 
L 536.980501 422.286344 
L 538.09681 394.188324 
L 538.654964 385.736213 
L 539.213119 384.696396 
L 539.771273 391.908911 
L 540.329427 406.625301 
L 542.00389 466.105715 
L 542.562045 478.276761 
L 543.120199 482.107004 
L 543.678354 477.020085 
L 544.236508 463.780396 
L 545.352817 421.891202 
L 546.469125 380.377116 
L 547.02728 366.844941 
L 547.585434 360.552832 
L 548.143588 362.120846 
L 548.701743 371.050494 
L 549.818051 403.203609 
L 550.376206 420.029206 
L 550.93436 432.441471 
L 551.492515 437.979222 
L 552.050669 436.640451 
L 553.166978 424.577107 
L 553.725132 421.138535 
L 554.283286 423.019337 
L 554.841441 431.061933 
L 555.399595 444.305633 
L 556.515904 475.67427 
L 557.074058 488.047851 
L 557.632212 496.106296 
L 558.190367 499.979689 
L 558.748521 500.651484 
L 559.306676 499.36135 
L 560.422984 495.183552 
L 560.981139 493.650145 
L 561.539293 492.78826 
L 562.097447 492.533258 
L 563.213756 492.825794 
L 563.77191 492.650998 
L 564.330065 492.046173 
L 566.004528 489.635545 
L 566.562682 489.298435 
L 567.120837 489.349132 
L 568.237145 489.996469 
L 568.7953 489.522031 
L 569.353454 487.133351 
L 569.911608 481.380162 
L 570.469763 470.948569 
L 571.027917 455.325964 
L 572.144226 412.86665 
L 573.260534 371.858925 
L 573.818689 358.052123 
L 574.376843 350.841131 
L 574.934998 351.000112 
L 575.493152 358.565409 
L 576.051306 372.725012 
L 577.167615 414.013445 
L 578.283924 457.643187 
L 578.842078 474.692651 
L 579.400232 486.785696 
L 579.958387 494.025838 
L 580.516541 497.375303 
L 581.074695 498.153591 
L 581.63285 497.688441 
L 582.191004 497.030061 
L 583.307313 496.101197 
L 583.865467 494.310011 
L 584.423622 489.569794 
L 584.981776 480.218764 
L 585.53993 465.464475 
L 586.656239 424.120372 
L 587.772548 383.818991 
L 588.330702 369.409525 
L 588.888856 359.355621 
L 589.447011 352.733505 
L 590.005165 348.592554 
L 590.56332 346.950239 
L 591.121474 349.164989 
L 591.679628 357.243316 
L 592.237783 372.469777 
L 593.354091 419.885932 
L 594.4704 467.462547 
L 595.028554 483.895579 
L 595.586709 494.499991 
L 596.144863 500.19644 
L 596.703017 502.397017 
L 597.261172 502.419006 
L 597.819326 501.064015 
L 598.37748 498.382981 
L 598.935635 493.642133 
L 599.493789 485.547771 
L 600.051944 472.783401 
L 600.610098 454.848102 
L 602.284561 390.395243 
L 602.842715 377.120956 
L 603.40087 371.887236 
L 603.959024 374.461164 
L 604.517178 383.257073 
L 606.191641 420.552096 
L 606.749796 428.73872 
L 607.30795 433.700988 
L 607.866105 436.084073 
L 608.424259 436.01776 
L 608.982413 432.799198 
L 609.540568 425.630361 
L 610.098722 414.637986 
L 611.773185 375.601219 
L 612.331339 366.981999 
L 612.889494 362.265003 
L 613.447648 361.569157 
L 614.005802 365.027603 
L 614.563957 372.962277 
L 615.122111 385.57012 
L 616.23842 422.332106 
L 617.354729 462.233674 
L 617.912883 477.625555 
L 618.471037 488.189571 
L 619.029192 494.08648 
L 619.587346 496.467471 
L 620.1455 496.83194 
L 620.703655 496.368494 
L 621.819963 495.263867 
L 622.378118 495.042214 
L 622.936272 495.099498 
L 624.610735 495.92733 
L 625.16889 495.204253 
L 625.727044 492.826187 
L 626.285198 487.897281 
L 626.843353 479.504557 
L 627.401507 466.975469 
L 627.959661 450.238546 
L 629.07597 407.364551 
L 630.192279 362.583855 
L 630.750433 344.715719 
L 631.308588 332.606695 
L 631.866742 327.728678 
L 632.424896 330.911069 
L 632.983051 342.253475 
L 633.541205 360.941604 
L 635.773822 459.443474 
L 636.331977 475.810154 
L 636.890131 486.441463 
L 637.448285 492.290944 
L 638.00644 494.7657 
L 638.564594 495.176157 
L 639.122749 494.571504 
L 639.680903 493.760212 
L 640.239057 493.248928 
L 640.797212 493.186316 
L 641.355366 493.491181 
L 642.471675 494.441791 
L 643.029829 494.628408 
L 643.587983 494.522356 
L 644.146138 494.163233 
L 644.704292 493.500821 
L 646.378755 490.671611 
L 646.93691 490.316765 
L 647.495064 490.586046 
L 648.053218 491.397405 
L 649.169527 493.35613 
L 649.727681 493.88502 
L 650.285836 493.950271 
L 651.960299 493.002397 
L 652.518453 493.118355 
L 653.076607 493.608875 
L 654.192916 494.938152 
L 654.751071 495.19185 
L 655.309225 494.587267 
L 655.867379 492.371179 
L 656.425534 487.371329 
L 656.983688 478.047231 
L 657.541842 463.200195 
L 658.658151 420.164591 
L 659.77446 379.147945 
L 660.332614 365.114245 
L 660.890768 354.893111 
L 662.007077 339.44175 
L 663.123386 326.758473 
L 663.68154 323.30922 
L 664.239695 323.06253 
L 664.797849 326.409532 
L 665.356003 333.61827 
L 665.914158 345.22783 
L 666.472312 361.846821 
L 667.588621 408.297715 
L 668.704929 456.050505 
L 669.263084 473.291787 
L 669.821238 484.786306 
L 670.379393 491.412027 
L 670.937547 494.737734 
L 671.495701 496.224198 
L 672.053856 496.714884 
L 672.61201 496.483005 
L 673.170164 495.666111 
L 674.286473 493.490891 
L 675.402782 491.981545 
L 675.960936 491.44839 
L 676.51909 491.172915 
L 677.077245 491.402087 
L 677.635399 492.271873 
L 678.751708 495.085094 
L 679.309862 496.049731 
L 679.868017 496.148421 
L 680.426171 495.432595 
L 681.54248 493.446389 
L 682.100634 492.941869 
L 682.658788 492.83763 
L 683.775097 493.186441 
L 684.333251 493.392578 
L 684.891406 493.772066 
L 685.44956 494.581344 
L 687.124023 498.360121 
L 687.682178 497.927212 
L 688.240332 494.90993 
L 688.798486 488.003063 
L 689.356641 475.988603 
L 689.914795 458.209828 
L 691.031104 409.453511 
L 692.147412 364.406808 
L 692.705567 351.42703 
L 693.263721 346.446005 
L 693.821876 349.038513 
L 694.38003 358.002639 
L 695.496339 387.289046 
L 696.054493 402.42063 
L 696.612647 414.351258 
L 697.170802 421.844279 
L 698.845265 434.446182 
L 699.403419 443.542999 
L 701.636037 490.849094 
L 702.194191 496.696357 
L 702.752345 499.25186 
L 703.3105 498.833213 
L 703.868654 495.422869 
L 704.426808 488.579234 
L 704.984963 477.769752 
L 705.543117 462.85372 
L 707.775734 387.213285 
L 708.333889 374.875218 
L 708.892043 368.892902 
L 709.450198 370.22722 
L 710.008352 379.045556 
L 710.566506 394.617268 
L 712.799124 477.224003 
L 713.357278 489.980842 
L 713.915432 497.053222 
L 714.473587 498.312047 
L 715.031741 493.692327 
L 715.589895 483.247056 
L 716.14805 467.4594 
L 718.380667 390.467257 
L 718.938822 381.564033 
L 719.496976 380.610502 
L 720.05513 387.22354 
L 721.729593 424.066455 
L 722.287748 428.66208 
L 722.845902 425.496366 
L 723.404056 416.336017 
L 724.520365 396.033115 
L 725.07852 392.026244 
L 725.636674 394.300887 
L 726.194828 402.595967 
L 727.311137 430.997203 
L 728.427446 458.604393 
L 728.9856 466.845402 
L 729.543754 471.308915 
L 730.660063 476.094306 
L 731.218217 479.446391 
L 732.334526 487.249087 
L 732.89268 488.816848 
L 733.450835 486.684463 
L 734.008989 479.726158 
L 734.567144 467.775115 
L 735.683452 434.103956 
L 736.799761 399.720327 
L 737.91607 371.97245 
L 738.474224 361.050211 
L 739.032378 352.320382 
L 739.590533 346.021 
L 740.148687 342.528747 
L 740.706841 342.363348 
L 741.264996 346.019784 
L 741.82315 353.894583 
L 742.381305 366.241084 
L 743.497613 402.529138 
L 745.172076 461.591325 
L 745.730231 475.867519 
L 746.288385 486.074249 
L 746.846539 492.455537 
L 747.404694 495.831955 
L 747.962848 497.20713 
L 748.521002 497.377627 
L 749.079157 496.771567 
L 749.637311 495.597917 
L 750.75362 492.737588 
L 751.311774 491.766961 
L 751.869929 491.286459 
L 752.428083 491.178919 
L 752.986237 491.32345 
L 754.102546 491.842412 
L 755.777009 491.910998 
L 756.893318 492.428025 
L 757.451472 492.478717 
L 758.009627 492.184806 
L 759.125935 491.282773 
L 759.68409 491.322316 
L 760.242244 491.844249 
L 761.358553 493.303518 
L 761.916707 493.645655 
L 762.474861 493.587762 
L 763.033016 493.107318 
L 763.59117 492.197912 
L 764.707479 489.880106 
L 765.823788 488.255139 
L 766.940096 486.994105 
L 767.498251 486.843197 
L 768.056405 487.287312 
L 768.614559 488.226848 
L 770.847177 493.211155 
L 771.405331 493.856528 
L 771.963485 494.005981 
L 772.52164 493.772827 
L 773.079794 493.301453 
L 773.637949 492.631002 
L 775.312412 490.248474 
L 775.870566 490.075333 
L 776.42872 490.433754 
L 776.986875 491.283994 
L 777.545029 492.53144 
L 779.219492 497.296033 
L 779.777646 498.105006 
L 780.335801 498.053479 
L 780.893955 497.352179 
L 782.568418 494.310995 
L 783.126573 493.766992 
L 785.35919 492.607371 
L 787.033653 492.344187 
L 787.591807 491.402601 
L 788.149962 488.677625 
L 788.708116 482.815732 
L 789.266271 472.807907 
L 789.824425 458.608686 
L 792.615197 373.791932 
L 793.173351 365.34878 
L 793.731505 362.837512 
L 794.28966 366.712961 
L 794.847814 376.929862 
L 795.405968 392.900293 
L 797.638586 472.601508 
L 798.19674 484.612713 
L 798.754895 492.018583 
L 799.313049 495.782001 
L 799.871203 497.034804 
L 800.429358 496.914126 
L 800.987512 496.500627 
L 801.545666 496.55157 
L 802.103821 497.237063 
L 803.220129 499.079721 
L 803.778284 499.477861 
L 804.336438 499.361318 
L 804.894593 498.832294 
L 806.569056 496.597916 
L 807.12721 496.332813 
L 807.685364 496.3348 
L 808.243519 496.182174 
L 808.801673 495.399154 
L 809.359827 493.639379 
L 809.917982 490.512154 
L 810.476136 485.335316 
L 811.03429 477.248693 
L 811.592445 465.638471 
L 812.708754 432.971757 
L 813.825062 396.91332 
L 814.383217 381.833645 
L 814.941371 370.664768 
L 815.499525 364.665661 
L 816.05768 364.905565 
L 816.615834 372.070628 
L 817.173988 385.944278 
L 819.406606 461.940431 
L 819.96476 473.740584 
L 820.522915 480.938354 
L 821.081069 483.400247 
L 821.639223 480.575737 
L 822.197378 471.887494 
L 822.755532 457.380153 
L 823.871841 416.540562 
L 824.988149 378.082355 
L 825.546304 366.334397 
L 826.104458 361.599002 
L 826.662612 364.564822 
L 827.220767 375.387155 
L 827.778921 393.405971 
L 830.011539 484.016941 
L 830.569693 496.787822 
L 831.127847 503.959152 
L 831.686002 506.92811 
L 832.244156 507.362005 
L 832.80231 506.635279 
L 833.918619 504.795005 
L 834.476773 504.265944 
L 835.034928 504.018251 
L 837.267545 503.707636 
L 837.8257 503.282378 
L 838.942008 501.811564 
L 839.500163 501.078675 
L 840.058317 500.671904 
L 840.616471 500.682949 
L 842.849089 501.876555 
L 843.407243 501.779818 
L 843.965398 501.431064 
L 844.523552 500.82046 
L 845.081706 499.919146 
L 846.198015 497.492575 
L 848.430632 491.858292 
L 848.988787 491.484997 
L 849.546941 492.213649 
L 850.105095 493.840379 
L 851.221404 497.656997 
L 851.779559 498.802951 
L 852.337713 499.024553 
L 852.895867 498.44664 
L 854.57033 495.757619 
L 855.686639 494.864245 
L 856.802948 494.022733 
L 857.919256 493.023651 
L 858.477411 492.803504 
L 859.035565 492.843603 
L 860.151874 493.264387 
L 860.710028 493.100935 
L 861.268183 492.029946 
L 861.826337 489.605393 
L 862.384491 485.808902 
L 863.5008 475.221412 
L 864.058954 468.22706 
L 865.175263 449.501509 
L 866.291572 430.805036 
L 866.849726 426.109351 
L 867.40788 426.585822 
L 867.966035 432.558579 
L 868.524189 443.062709 
L 870.198652 480.202815 
L 870.756807 487.096147 
L 871.314961 488.740458 
L 871.873115 484.513881 
L 872.43127 474.456099 
L 872.989424 459.497021 
L 875.222041 389.659607 
L 875.780196 377.630261 
L 876.33835 368.443631 
L 876.896505 361.604149 
L 877.454659 356.676544 
L 878.012813 353.440771 
L 878.570968 352.009131 
L 879.129122 352.885418 
L 879.687276 356.9005 
L 880.245431 364.948621 
L 880.803585 377.520468 
L 881.919894 414.406286 
L 883.594357 477.140633 
L 884.152511 491.772416 
L 884.710666 501.046809 
L 885.26882 505.668827 
L 885.826974 507.123736 
L 886.385129 506.881767 
L 887.501437 505.130114 
L 888.059592 504.498816 
L 888.617746 504.158877 
L 889.734055 504.014743 
L 890.292209 503.955127 
L 890.850363 503.723969 
L 891.408518 503.209592 
L 891.966672 502.373974 
L 893.082981 500.249198 
L 893.641135 499.454877 
L 894.19929 499.165037 
L 894.757444 499.481354 
L 895.315598 500.279681 
L 896.431907 502.225025 
L 896.990061 503.014165 
L 897.548216 503.589996 
L 898.10637 503.938327 
L 898.664524 504.098759 
L 899.780833 504.117355 
L 902.571605 503.993368 
L 911.502075 503.915923 
L 913.176538 503.755912 
L 920.990699 504.052739 
L 921.548853 503.929144 
L 922.107007 503.67553 
L 923.223316 502.756058 
L 924.339625 501.794538 
L 924.897779 501.590171 
L 925.455934 501.703757 
L 926.014088 502.016713 
L 926.572242 502.107157 
L 927.130397 501.423039 
L 927.688551 499.564268 
L 928.80486 492.930759 
L 929.363014 489.809989 
L 929.921168 488.315288 
L 930.479323 489.076177 
L 931.037477 491.861634 
L 932.153786 499.377653 
L 932.71194 502.132967 
L 933.270095 503.772611 
L 933.828249 504.50784 
L 934.386403 504.669767 
L 935.502712 504.348798 
L 936.619021 504.070113 
L 937.735329 504.09122 
L 939.409793 504.271449 
L 939.967947 504.082596 
L 940.526101 503.551128 
L 941.084256 502.545571 
L 942.200564 499.25328 
L 943.316873 495.986651 
L 944.433182 493.786832 
L 945.54949 491.896386 
L 946.107645 491.228262 
L 946.665799 491.166227 
L 947.223954 492.02578 
L 947.782108 493.794267 
L 948.898417 498.206885 
L 949.456571 499.893843 
L 950.014725 501.07764 
L 951.131034 502.652053 
L 952.247343 503.671736 
L 952.805497 503.939706 
L 953.921806 504.101182 
L 961.177812 503.976419 
L 961.735967 504.16683 
L 962.294121 504.519183 
L 963.968584 505.938637 
L 964.526739 505.481156 
L 965.084893 503.404817 
L 965.643047 498.730335 
L 966.201202 490.579769 
L 966.759356 478.489902 
L 967.875665 444.096751 
L 969.550128 388.526713 
L 970.108282 374.593506 
L 970.666437 363.700874 
L 971.224591 355.788695 
L 971.782745 350.879051 
L 972.3409 349.099835 
L 972.899054 350.554966 
L 973.457208 355.254065 
L 974.015363 363.137803 
L 974.573517 374.043745 
L 975.689826 403.413362 
L 977.922443 470.673733 
L 978.480598 483.460043 
L 979.038752 493.034439 
L 979.596906 499.318884 
L 980.155061 502.882987 
L 980.713215 504.630383 
L 981.271369 505.321329 
L 981.829524 505.325237 
L 982.387678 504.648576 
L 982.945832 503.06787 
L 983.503987 500.306947 
L 984.062141 496.276571 
L 985.736604 481.676777 
L 986.294759 478.845768 
L 986.852913 478.088743 
L 987.411067 479.499805 
L 987.969222 482.847705 
L 990.201839 501.255699 
L 990.759993 503.478562 
L 991.318148 504.415108 
L 991.876302 504.375523 
L 992.434456 503.682864 
L 993.550765 501.432612 
L 994.667074 499.175483 
L 995.225228 498.332484 
L 995.783383 497.879622 
L 996.341537 497.968109 
L 996.899691 498.676186 
L 997.457846 499.956644 
L 999.132309 504.809801 
L 999.690463 505.453913 
L 1000.248617 504.605154 
L 1000.806772 501.401201 
L 1001.364926 494.970929 
L 1001.92308 484.678252 
L 1002.481235 470.388886 
L 1004.713852 398.028383 
L 1005.272007 385.864317 
L 1005.830161 378.524522 
L 1006.388315 375.981448 
L 1006.94647 377.871063 
L 1007.504624 383.722438 
L 1008.062778 393.038139 
L 1009.179087 419.655234 
L 1010.85355 465.723668 
L 1011.969859 489.241645 
L 1012.528013 496.930138 
L 1013.086168 501.818512 
L 1013.644322 504.382035 
L 1014.202476 505.331829 
L 1014.760631 505.364549 
L 1016.993248 504.051572 
L 1018.109557 503.924053 
L 1027.598181 504.182261 
L 1028.71449 504.396801 
L 1029.272644 504.365149 
L 1029.830798 504.049797 
L 1030.388953 503.238078 
L 1030.947107 501.673591 
L 1031.505261 499.061797 
L 1032.063416 495.050074 
L 1032.62157 489.230238 
L 1033.179724 481.240602 
L 1034.296033 459.094885 
L 1035.412342 436.98521 
L 1035.970496 430.901808 
L 1036.528651 429.889678 
L 1037.086805 433.892736 
L 1037.644959 441.786563 
L 1038.761268 461.046249 
L 1039.319422 467.75284 
L 1039.877577 470.006559 
L 1040.435731 466.935301 
L 1040.993885 458.726128 
L 1043.226503 412.663042 
L 1043.784657 409.987828 
L 1044.342812 413.299199 
L 1044.900966 421.841632 
L 1046.575429 458.503294 
L 1047.133583 466.055656 
L 1047.691738 468.059743 
L 1048.249892 464.438867 
L 1049.924355 440.620173 
L 1050.48251 437.510254 
L 1051.040664 439.433054 
L 1051.598818 446.054391 
L 1052.715127 468.113293 
L 1053.831436 490.191889 
L 1054.38959 497.209208 
L 1054.947744 500.455321 
L 1055.505899 499.94734 
L 1056.064053 495.925458 
L 1056.622207 488.467184 
L 1057.180362 477.563644 
L 1058.296671 447.342718 
L 1059.412979 415.301235 
L 1059.971134 403.15429 
L 1060.529288 395.2635 
L 1061.087442 392.016261 
L 1061.645597 393.385515 
L 1062.203751 399.126064 
L 1062.761905 408.785972 
L 1063.878214 436.643217 
L 1064.994523 466.165495 
L 1065.552677 477.470288 
L 1066.110832 485.473265 
L 1066.668986 490.43809 
L 1067.22714 493.037095 
L 1067.785295 494.020616 
L 1068.343449 494.093078 
L 1069.459758 493.649931 
L 1070.017912 493.655462 
L 1072.250529 494.241613 
L 1072.808684 494.247994 
L 1073.366838 494.077648 
L 1073.924993 493.601557 
L 1075.041301 492.155707 
L 1075.599456 491.886689 
L 1076.15761 492.270035 
L 1076.715764 493.289606 
L 1077.273919 494.839651 
L 1078.948382 500.440799 
L 1079.506536 501.645684 
L 1080.06469 502.364387 
L 1081.180999 503.122334 
L 1082.297308 503.736505 
L 1083.413617 503.999636 
L 1084.529925 503.865044 
L 1086.204388 503.261748 
L 1086.762543 502.921523 
L 1087.320697 502.321119 
L 1087.878851 501.239362 
L 1088.437006 499.390892 
L 1088.99516 496.403646 
L 1089.553315 491.798395 
L 1090.111469 485.029819 
L 1090.669623 475.652839 
L 1091.785932 449.477331 
L 1092.902241 420.46521 
L 1093.460395 408.809908 
L 1094.018549 400.679584 
L 1094.576704 396.670486 
L 1095.134858 396.955864 
L 1095.693012 401.371924 
L 1096.251167 409.506363 
L 1096.809321 420.762736 
L 1099.041939 474.522675 
L 1099.600093 482.98223 
L 1100.158247 488.207062 
L 1100.716402 490.826088 
L 1101.274556 491.666847 
L 1101.83271 491.430157 
L 1102.390865 490.577609 
L 1103.507173 488.285999 
L 1104.065328 487.644055 
L 1104.623482 487.798533 
L 1105.739791 489.616853 
L 1106.297945 489.905253 
L 1106.8561 488.541861 
L 1107.414254 484.611331 
L 1107.972408 477.396593 
L 1108.530563 466.560282 
L 1109.646871 436.027579 
L 1110.76318 403.174385 
L 1111.321334 389.542795 
L 1111.879489 378.779483 
L 1112.437643 371.089638 
L 1112.995798 366.417493 
L 1113.553952 364.581369 
L 1114.112106 365.453221 
L 1114.670261 369.015288 
L 1115.228415 375.263912 
L 1115.786569 384.156656 
L 1116.344724 395.616989 
L 1117.461032 425.197459 
L 1119.135495 475.248678 
L 1119.69365 488.415503 
L 1120.251804 497.780999 
L 1120.809959 503.298433 
L 1121.368113 505.77419 
L 1121.926267 506.328723 
L 1122.484422 505.938356 
L 1123.60073 504.602948 
L 1124.717039 503.733585 
L 1125.833348 503.280428 
L 1126.391502 503.214877 
L 1127.507811 503.462667 
L 1128.62412 503.840822 
L 1129.740428 504.012824 
L 1134.205663 504.06108 
L 1135.321972 504.058681 
L 1136.43828 503.798573 
L 1137.554589 503.081565 
L 1138.670898 502.368012 
L 1139.229052 502.350632 
L 1140.345361 503.083648 
L 1140.903515 503.116639 
L 1141.46167 501.987849 
L 1142.019824 498.795467 
L 1142.577978 492.725575 
L 1143.136133 483.350794 
L 1144.252441 456.258012 
L 1145.36875 427.813108 
L 1145.926905 418.119149 
L 1146.485059 413.456386 
L 1147.043213 414.390771 
L 1147.601368 420.871772 
L 1148.159522 432.20709 
L 1149.833985 476.594218 
L 1150.392139 487.729502 
L 1150.950294 495.403551 
L 1151.508448 500.112157 
L 1152.066602 502.729766 
L 1152.624757 504.023839 
L 1153.182911 504.51951 
L 1153.741066 504.578038 
L 1155.973683 504.160581 
L 1157.648146 504.186804 
L 1158.2063 503.954351 
L 1158.764455 503.39539 
L 1159.322609 502.413543 
L 1161.555227 497.147355 
L 1162.113381 496.495847 
L 1162.671535 495.583625 
L 1163.22969 493.401254 
L 1163.787844 488.766594 
L 1164.345998 480.687079 
L 1164.904153 468.795037 
L 1167.13677 411.071598 
L 1167.694924 405.091152 
L 1168.253079 404.826456 
L 1168.811233 409.856385 
L 1169.369388 419.33401 
L 1170.485696 446.612395 
L 1171.602005 473.864929 
L 1172.160159 483.969785 
L 1172.718314 491.194441 
L 1173.276468 495.927679 
L 1173.834622 498.840382 
L 1174.392777 500.620963 
L 1174.950931 501.794979 
L 1175.509085 502.660145 
L 1176.06724 503.316055 
L 1176.625394 503.764389 
L 1177.183549 504.014071 
L 1178.299857 504.111722 
L 1181.090629 503.893524 
L 1181.648783 504.013327 
L 1182.206938 504.298866 
L 1182.765092 504.792088 
L 1183.881401 506.129834 
L 1184.439555 506.347655 
L 1184.99771 505.339086 
L 1185.555864 502.019934 
L 1186.114018 495.218217 
L 1186.672173 484.061179 
L 1187.230327 468.446504 
L 1188.90479 411.197458 
L 1189.462944 397.301705 
L 1190.021099 389.051886 
L 1190.579253 386.676926 
L 1191.137407 389.885157 
L 1191.695562 398.330694 
L 1192.253716 411.511435 
L 1195.044488 492.944864 
L 1195.602642 500.58402 
L 1196.160797 504.601452 
L 1196.718951 506.069727 
L 1197.277105 506.075969 
L 1199.509723 503.675517 
L 1200.067877 503.53915 
L 1201.74234 503.662213 
L 1202.858649 503.798946 
L 1203.974958 504.113187 
L 1204.533112 504.051434 
L 1205.091266 503.184414 
L 1205.649421 500.580126 
L 1206.207575 495.090227 
L 1206.765729 485.604262 
L 1207.323884 471.504936 
L 1209.556501 398.308205 
L 1210.114656 388.720502 
L 1210.67281 385.883642 
L 1211.230964 389.975111 
L 1211.789119 400.48457 
L 1212.347273 416.150641 
L 1214.021736 473.001275 
L 1214.57989 487.687713 
L 1215.138045 497.85631 
L 1215.696199 503.673718 
L 1216.254354 506.145648 
L 1216.812508 506.536393 
L 1217.370662 505.915358 
L 1218.486971 504.171826 
L 1219.045125 503.633093 
L 1220.719588 502.853955 
L 1221.277743 502.185451 
L 1222.394051 500.299543 
L 1222.952206 499.743724 
L 1223.51036 499.802697 
L 1224.068515 500.432858 
L 1224.626669 501.345185 
L 1225.184823 501.989187 
L 1225.742978 501.536247 
L 1226.301132 498.928219 
L 1226.859286 492.892694 
L 1227.417441 482.125337 
L 1227.975595 465.934649 
L 1230.208212 380.482146 
L 1230.766367 366.463786 
L 1231.324521 357.751924 
L 1231.882676 353.875486 
L 1232.44083 353.820725 
L 1232.998984 356.39832 
L 1234.115293 365.541828 
L 1235.231602 376.013953 
L 1235.789756 382.297254 
L 1236.34791 391.209587 
L 1236.906065 404.200979 
L 1238.022373 441.445237 
L 1239.138682 479.070102 
L 1239.696837 491.988325 
L 1240.254991 499.960705 
L 1240.813145 503.833336 
L 1241.3713 504.971994 
L 1241.929454 504.733001 
L 1242.487608 504.16224 
L 1243.045763 503.785225 
L 1244.720226 503.361523 
L 1245.27838 502.980991 
L 1246.394689 502.007937 
L 1246.952843 501.821452 
L 1247.510998 501.925215 
L 1249.185461 502.697935 
L 1250.859924 503.667138 
L 1251.976232 504.224777 
L 1252.534387 504.685296 
L 1254.20885 506.632037 
L 1254.767004 506.230987 
L 1255.325159 503.829663 
L 1255.883313 498.137777 
L 1256.441467 488.147797 
L 1257.557776 457.034965 
L 1258.11593 440.584579 
L 1258.674085 428.000772 
L 1259.232239 421.943765 
L 1259.790393 423.522902 
L 1260.348548 432.160569 
L 1262.023011 473.238308 
L 1262.581165 481.508539 
L 1263.13932 485.540373 
L 1264.255628 488.994745 
L 1264.813783 491.766846 
L 1265.930091 498.991552 
L 1266.488246 501.543442 
L 1267.0464 502.105475 
L 1267.604554 499.535429 
L 1268.162709 492.5593 
L 1268.720863 480.375655 
L 1269.837172 443.607332 
L 1270.95348 406.221174 
L 1271.511635 393.629777 
L 1272.069789 387.44986 
L 1272.627944 388.330618 
L 1273.186098 395.892846 
L 1273.744252 409.078836 
L 1274.860561 446.016739 
L 1275.97687 481.990809 
L 1276.535024 494.319892 
L 1277.093178 501.947864 
L 1277.651333 505.630418 
L 1278.209487 506.676631 
L 1278.767641 506.340507 
L 1279.88395 504.766033 
L 1280.442105 504.320251 
L 1281.000259 504.285062 
L 1281.558413 504.664293 
L 1282.674722 506.187676 
L 1283.232876 506.616096 
L 1283.791031 505.77428 
L 1284.349185 502.291284 
L 1284.907339 494.540161 
L 1285.465494 481.393255 
L 1287.698111 411.371979 
L 1288.256266 407.858293 
L 1288.81442 413.832769 
L 1289.372574 427.657659 
L 1291.047037 482.54845 
L 1291.605192 494.468309 
L 1292.163346 500.397401 
L 1292.7215 500.064832 
L 1293.279655 493.673234 
L 1293.837809 482.148555 
L 1294.954118 452.81597 
L 1295.512272 441.231134 
L 1296.070427 435.395483 
L 1296.628581 436.738143 
L 1297.186735 445.067084 
L 1299.419353 497.174693 
L 1299.977507 502.703533 
L 1300.535661 504.75631 
L 1301.093816 504.629722 
L 1302.210124 502.49086 
L 1303.326433 500.769981 
L 1303.884588 498.414352 
L 1304.442742 492.764319 
L 1305.000896 481.985003 
L 1305.559051 465.086095 
L 1306.675359 416.998808 
L 1307.791668 369.381406 
L 1308.349822 352.362163 
L 1308.907977 340.847198 
L 1309.466131 334.076761 
L 1310.024285 331.002885 
L 1310.58244 330.938102 
L 1311.140594 333.607401 
L 1311.698749 338.991744 
L 1312.256903 347.321265 
L 1312.815057 358.910978 
L 1313.373212 373.805515 
L 1314.48952 412.223801 
L 1316.163983 476.202993 
L 1316.722138 491.1983 
L 1317.280292 500.74328 
L 1317.838446 505.504355 
L 1318.396601 506.883797 
L 1318.954755 506.245642 
L 1319.51291 504.568697 
L 1320.629218 500.510805 
L 1321.187373 499.083301 
L 1321.745527 498.522387 
L 1322.303681 498.860607 
L 1322.861836 499.861115 
L 1323.978144 502.392672 
L 1324.536299 503.328564 
L 1325.094453 503.895911 
L 1325.652607 504.154009 
L 1326.768916 504.15301 
L 1328.443379 503.91428 
L 1330.675997 503.976675 
L 1334.024923 504.003705 
L 1337.373849 503.876793 
L 1337.932003 504.060916 
L 1338.490158 504.466947 
L 1339.048312 505.145212 
L 1340.164621 506.873282 
L 1340.722775 507.014585 
L 1341.280929 505.386463 
L 1341.839084 500.536158 
L 1342.397238 490.99306 
L 1342.955393 475.876131 
L 1344.071701 431.854007 
L 1345.18801 387.195981 
L 1345.746164 371.129364 
L 1346.304319 360.0319 
L 1346.862473 353.235062 
L 1347.420627 349.950747 
L 1347.978782 349.622167 
L 1348.536936 352.033552 
L 1349.09509 357.411141 
L 1349.653245 366.368988 
L 1350.211399 379.480891 
L 1351.327708 417.418828 
L 1352.444017 461.168069 
L 1353.002171 479.402685 
L 1353.560325 492.86515 
L 1354.11848 501.208391 
L 1354.676634 504.8123 
L 1355.234788 504.078236 
L 1355.792943 499.178726 
L 1356.351097 490.394844 
L 1358.02556 455.414875 
L 1358.583715 449.437353 
L 1359.141869 449.752744 
L 1359.700023 456.153016 
L 1361.932641 496.425879 
L 1362.490795 500.905384 
L 1363.048949 503.001032 
L 1363.607104 503.660869 
L 1365.839721 503.732369 
L 1366.397876 503.489836 
L 1366.95603 502.792471 
L 1367.514184 501.574796 
L 1368.630493 498.412193 
L 1369.188647 497.20675 
L 1369.746802 496.530425 
L 1370.304956 496.337136 
L 1370.86311 496.537917 
L 1371.979419 497.673784 
L 1372.537573 498.199782 
L 1373.095728 498.396154 
L 1373.653882 498.202611 
L 1374.770191 497.397059 
L 1375.328345 497.289332 
L 1375.8865 497.531024 
L 1377.560963 499.001455 
L 1379.79358 500.07649 
L 1380.351734 500.241681 
L 1380.909889 500.195901 
L 1382.584352 499.56746 
L 1383.142506 499.751293 
L 1383.700661 500.243959 
L 1384.816969 501.516563 
L 1385.375124 501.814178 
L 1385.933278 501.794163 
L 1387.607741 501.322175 
L 1388.165895 501.2365 
L 1388.72405 500.734586 
L 1389.282204 498.795913 
L 1389.840359 493.911633 
L 1390.398513 484.505025 
L 1390.956667 469.586566 
L 1392.072976 426.28999 
L 1393.189285 384.037737 
L 1393.747439 370.404322 
L 1394.305593 363.34329 
L 1394.863748 363.271437 
L 1395.421902 370.509831 
L 1395.980056 384.859644 
L 1397.096365 428.355623 
L 1398.212674 472.06332 
L 1398.770828 487.534422 
L 1399.328983 497.72159 
L 1399.887137 503.357325 
L 1400.445291 505.687724 
L 1401.003446 505.999836 
L 1401.5616 505.368531 
L 1402.677909 503.904568 
L 1403.236063 503.375964 
L 1403.794217 502.449106 
L 1404.352372 500.257933 
L 1404.910526 495.731083 
L 1405.46868 487.809802 
L 1406.026835 475.856113 
L 1408.259452 416.004174 
L 1408.817607 411.925595 
L 1409.375761 415.947376 
L 1409.933915 427.51415 
L 1412.166533 492.599971 
L 1412.724687 500.726771 
L 1413.282841 504.969205 
L 1413.840996 506.551043 
L 1414.39915 506.596985 
L 1414.957305 505.852675 
L 1415.515459 504.629914 
L 1416.073613 502.769174 
L 1416.631768 499.519544 
L 1417.189922 493.501539 
L 1417.748076 483.051581 
L 1418.306231 467.051262 
L 1419.422539 421.262475 
L 1420.538848 372.781593 
L 1421.097002 352.847517 
L 1421.655157 337.185584 
L 1422.213311 326.262203 
L 1422.771466 320.258073 
L 1423.32962 319.198619 
L 1423.887774 323.103767 
L 1424.445929 332.06822 
L 1425.004083 346.254506 
L 1425.562237 365.599966 
L 1428.353009 481.876449 
L 1428.911163 494.537339 
L 1429.469318 502.205911 
L 1430.027472 505.930882 
L 1430.585627 506.846235 
L 1431.143781 505.739897 
L 1431.701935 502.921265 
L 1432.26009 498.364762 
L 1432.818244 491.894864 
L 1433.376398 483.335872 
L 1435.609016 441.249629 
L 1436.16717 437.407899 
L 1436.725324 439.439279 
L 1437.283479 447.102545 
L 1439.516096 493.027509 
L 1440.074251 499.115512 
L 1440.632405 502.334294 
L 1441.190559 503.34804 
L 1441.748714 502.884795 
L 1442.865022 500.359154 
L 1443.423177 499.493161 
L 1443.981331 499.282712 
L 1444.539485 499.676353 
L 1446.213949 502.072705 
L 1446.772103 502.319309 
L 1447.330257 502.040673 
L 1447.888412 501.287169 
L 1449.00472 499.297902 
L 1449.562875 498.848147 
L 1450.121029 499.045148 
L 1451.795492 501.079899 
L 1452.353646 501.215018 
L 1452.911801 500.800295 
L 1454.02811 498.957344 
L 1455.144418 497.137107 
L 1456.260727 495.825051 
L 1456.818881 495.2196 
L 1457.377036 494.211226 
L 1457.93519 492.258911 
L 1458.493344 488.87761 
L 1459.051499 483.839967 
L 1460.725962 463.952285 
L 1461.284116 460.306954 
L 1461.842271 460.580627 
L 1462.400425 464.927307 
L 1463.516734 481.022027 
L 1464.074888 489.219363 
L 1464.633042 495.550726 
L 1465.191197 499.427972 
L 1465.749351 501.071086 
L 1466.307505 501.188029 
L 1467.981968 499.397765 
L 1468.540123 499.440801 
L 1469.656432 500.344523 
L 1470.214586 500.517108 
L 1470.77274 500.104665 
L 1471.330895 499.062181 
L 1473.005358 494.877413 
L 1473.563512 494.431063 
L 1474.121666 494.772464 
L 1474.679821 495.688963 
L 1476.912438 500.396278 
L 1477.470593 500.601442 
L 1478.028747 499.130804 
L 1478.586901 494.657472 
L 1479.145056 485.698772 
L 1479.70321 471.221692 
L 1480.819519 427.870154 
L 1481.935827 380.375449 
L 1482.493982 360.741082 
L 1483.052136 345.194314 
L 1483.61029 333.646347 
L 1484.168445 325.453685 
L 1484.726599 319.768491 
L 1485.284754 315.876427 
L 1485.842908 313.52943 
L 1486.401062 313.146059 
L 1486.959217 315.633661 
L 1487.517371 321.965972 
L 1488.075525 332.920768 
L 1488.63368 348.965058 
L 1489.749988 395.082474 
L 1491.424451 470.998274 
L 1491.982606 487.821243 
L 1492.54076 498.46937 
L 1493.098915 503.882644 
L 1493.657069 505.641698 
L 1494.215223 505.301687 
L 1495.889686 501.55476 
L 1496.447841 500.755606 
L 1497.005995 500.329782 
L 1498.680458 499.954303 
L 1499.238612 499.865951 
L 1500.354921 499.92249 
L 1500.913076 499.477843 
L 1501.47123 497.879348 
L 1502.029384 494.350451 
L 1502.587539 488.338792 
L 1503.703847 469.796743 
L 1504.820156 451.223126 
L 1505.37831 446.728344 
L 1505.936465 447.434288 
L 1506.494619 453.382754 
L 1507.610928 474.847744 
L 1508.169082 485.864457 
L 1508.727237 494.610329 
L 1509.285391 500.372587 
L 1509.843545 503.308701 
L 1510.4017 504.123713 
L 1510.959854 503.735921 
L 1512.076163 502.360409 
L 1512.634317 502.095636 
L 1513.192471 502.1204 
L 1514.30878 502.534563 
L 1515.983243 503.237213 
L 1517.099552 503.366696 
L 1518.215861 503.247225 
L 1518.774015 502.978227 
L 1520.448478 501.792247 
L 1521.006632 501.640024 
L 1521.564787 501.747958 
L 1522.122941 502.040384 
L 1522.681095 502.152755 
L 1523.23925 501.405767 
L 1523.797404 498.826917 
L 1524.355559 493.28142 
L 1524.913713 483.832384 
L 1525.471867 470.242836 
L 1527.14633 419.226677 
L 1527.704485 407.544879 
L 1528.262639 402.265572 
L 1528.820793 404.208277 
L 1529.378948 413.191648 
L 1530.495256 445.261641 
L 1531.053411 461.87753 
L 1531.611565 474.162619 
L 1532.16972 479.782372 
L 1532.727874 478.054878 
L 1533.286028 470.045952 
L 1534.402337 446.415686 
L 1534.960491 437.774173 
L 1535.518646 434.942753 
L 1536.0768 438.754779 
L 1536.634954 448.141674 
L 1538.309417 484.433932 
L 1538.867572 492.505086 
L 1539.425726 497.662131 
L 1539.98388 500.495468 
L 1540.542035 501.849864 
L 1541.100189 502.511609 
L 1541.658344 502.908234 
L 1542.216498 502.860466 
L 1542.774652 501.476645 
L 1543.332807 497.382256 
L 1543.890961 489.269606 
L 1544.449115 476.370138 
L 1545.00727 458.702455 
L 1547.798041 354.674794 
L 1548.356196 342.392862 
L 1548.91435 334.492153 
L 1549.472505 331.072056 
L 1550.030659 332.204735 
L 1550.588813 337.810501 
L 1551.146968 347.64275 
L 1551.705122 361.429768 
L 1552.821431 399.392665 
L 1554.495894 463.550086 
L 1555.054048 479.61567 
L 1555.612202 491.236792 
L 1556.170357 498.614171 
L 1556.728511 502.591792 
L 1557.286666 504.268515 
L 1557.84482 504.612449 
L 1558.402974 504.275101 
L 1559.519283 503.033469 
L 1560.077437 502.587581 
L 1561.193746 502.222048 
L 1563.984518 501.791464 
L 1564.542672 501.554375 
L 1565.100827 501.072085 
L 1565.658981 500.051143 
L 1566.217135 497.88671 
L 1566.77529 493.593613 
L 1567.333444 485.986897 
L 1567.891598 474.093886 
L 1568.449753 457.674793 
L 1570.124216 397.263122 
L 1570.68237 383.745778 
L 1571.240524 378.621061 
L 1571.798679 383.091517 
L 1572.356833 396.523636 
L 1573.473142 439.476794 
L 1574.589451 479.757095 
L 1575.147605 492.758969 
L 1575.705759 500.668098 
L 1576.263914 504.597366 
L 1576.822068 505.966224 
L 1577.380222 505.981331 
L 1579.054685 504.391213 
L 1579.61284 504.102071 
L 1580.729149 503.861395 
L 1581.845457 503.586841 
L 1582.403612 503.244956 
L 1582.961766 502.639084 
L 1583.51992 501.560099 
L 1584.078075 499.542773 
L 1584.636229 495.79463 
L 1585.194383 489.272819 
L 1585.752538 478.889204 
L 1586.310692 463.840691 
L 1587.427001 420.40252 
L 1588.54331 370.842424 
L 1589.101464 350.725298 
L 1589.659618 337.001017 
L 1590.217773 330.87969 
L 1590.775927 332.580695 
L 1591.334081 341.745038 
L 1591.892236 357.590641 
L 1593.008544 403.054303 
L 1594.124853 450.969158 
L 1594.683007 469.91501 
L 1595.241162 483.862063 
L 1595.799316 492.872816 
L 1596.357471 497.706476 
L 1596.915625 499.481573 
L 1597.473779 499.412133 
L 1598.590088 497.743017 
L 1599.148242 497.353835 
L 1599.706397 497.460273 
L 1600.822705 498.151084 
L 1601.38086 498.235109 
L 1601.939014 497.977843 
L 1602.497168 497.373155 
L 1604.171632 495.046304 
L 1604.729786 494.637159 
L 1605.28794 494.589377 
L 1605.846095 494.935006 
L 1606.404249 495.686114 
L 1607.520558 498.153106 
L 1608.636866 500.73029 
L 1609.195021 501.567065 
L 1609.753175 501.518084 
L 1610.311329 499.810924 
L 1610.869484 495.569073 
L 1611.427638 488.006468 
L 1611.985793 476.614874 
L 1612.543947 461.377315 
L 1615.334719 370.5524 
L 1615.892873 358.264749 
L 1616.451027 348.94374 
L 1617.009182 342.488416 
L 1617.567336 338.625503 
L 1618.12549 337.023774 
L 1618.683645 337.497059 
L 1619.241799 340.192328 
L 1619.799954 345.69116 
L 1620.358108 354.838027 
L 1620.916262 368.224302 
L 1622.032571 406.164141 
L 1623.707034 467.211316 
L 1624.265188 481.767321 
L 1624.823343 492.008122 
L 1625.381497 498.089738 
L 1625.939651 500.67554 
L 1626.497806 500.861649 
L 1627.614115 499.03798 
L 1628.172269 498.687127 
L 1628.730423 499.014144 
L 1629.288578 499.862559 
L 1630.404886 501.833434 
L 1630.963041 502.194644 
L 1631.521195 501.824754 
L 1632.079349 500.797049 
L 1634.311967 495.275389 
L 1634.870121 494.741859 
L 1635.428276 494.802862 
L 1636.544584 495.490672 
L 1637.102739 495.55719 
L 1638.219047 495.218804 
L 1638.777202 494.924859 
L 1639.335356 494.397873 
L 1641.009819 491.750512 
L 1641.567973 491.519162 
L 1642.126128 491.924719 
L 1643.800591 494.580938 
L 1644.358745 494.984777 
L 1644.9169 495.031875 
L 1646.033208 494.846562 
L 1646.591363 495.112588 
L 1647.149517 495.737055 
L 1648.82398 498.411996 
L 1650.498443 501.125322 
L 1651.056598 501.119631 
L 1651.614752 499.393085 
L 1652.172906 495.002209 
L 1652.731061 487.105229 
L 1653.289215 475.195333 
L 1655.521832 413.290466 
L 1656.079987 408.158629 
L 1656.638141 411.312828 
L 1657.196295 422.017391 
L 1659.428913 485.623904 
L 1659.987067 495.042297 
L 1660.545222 500.781709 
L 1661.103376 503.720341 
L 1661.66153 504.883181 
L 1662.219685 505.072068 
L 1662.777839 504.758543 
L 1663.894148 503.433775 
L 1665.010456 501.876134 
L 1665.568611 501.429365 
L 1666.126765 501.411297 
L 1667.243074 501.95765 
L 1667.801228 501.629817 
L 1668.359383 500.191128 
L 1668.917537 497.061456 
L 1669.475691 491.642964 
L 1670.033846 483.550715 
L 1671.150154 460.658635 
L 1672.266463 438.759932 
L 1672.824617 433.15033 
L 1673.382772 432.423778 
L 1673.940926 436.25747 
L 1674.49908 443.841139 
L 1675.615389 466.274474 
L 1676.731698 489.050046 
L 1677.289852 496.991819 
L 1677.848007 501.911211 
L 1678.406161 504.205024 
L 1678.964315 504.649996 
L 1679.52247 504.055177 
L 1680.638778 501.904305 
L 1681.196933 500.639131 
L 1681.755087 498.906763 
L 1682.313241 496.338693 
L 1683.987705 486.165442 
L 1684.545859 484.684286 
L 1685.104013 485.328655 
L 1685.662168 487.926683 
L 1686.778476 495.195282 
L 1687.336631 497.819663 
L 1687.894785 499.228188 
L 1688.452939 499.674578 
L 1689.011094 499.56677 
L 1689.569248 499.187088 
L 1690.127402 498.562223 
L 1690.685557 497.460001 
L 1691.243711 495.499873 
L 1691.801866 492.335785 
L 1692.36002 487.881948 
L 1693.476329 477.246248 
L 1694.034483 473.343952 
L 1694.592637 472.061177 
L 1695.150792 473.95565 
L 1695.708946 478.581715 
L 1696.825255 490.486783 
L 1697.383409 494.616351 
L 1697.941563 496.042885 
L 1698.499718 494.167992 
L 1699.057872 488.554958 
L 1699.616027 479.069645 
L 1700.732335 451.935585 
L 1701.29049 438.120982 
L 1701.848644 427.061586 
L 1702.406798 420.297598 
L 1702.964953 418.562219 
L 1703.523107 421.847196 
L 1704.081261 429.491956 
L 1705.19757 452.657532 
L 1706.313879 475.613361 
L 1706.872033 484.070133 
L 1707.430188 490.258299 
L 1707.988342 494.624059 
L 1708.546496 497.702772 
L 1709.104651 499.859025 
L 1709.662805 501.24697 
L 1710.220959 501.935828 
L 1710.779114 502.072104 
L 1711.895422 501.870072 
L 1713.569885 502.061254 
L 1714.686194 501.660307 
L 1715.802503 501.194763 
L 1716.360657 501.002604 
L 1716.918812 500.621067 
L 1717.476966 499.607277 
L 1718.03512 497.285646 
L 1718.593275 492.913375 
L 1719.151429 485.899887 
L 1719.709583 475.983593 
L 1720.825892 449.185602 
L 1721.942201 423.593256 
L 1722.500355 416.77555 
L 1723.05851 416.022749 
L 1723.616664 421.490592 
L 1724.174818 432.220428 
L 1726.407436 487.839493 
L 1726.96559 494.745906 
L 1727.523744 496.287615 
L 1728.081899 492.223733 
L 1728.640053 482.900327 
L 1729.756362 453.327494 
L 1730.872671 422.715418 
L 1731.430825 412.331632 
L 1731.988979 407.177319 
L 1732.547134 407.711437 
L 1733.105288 413.555027 
L 1733.663442 423.647257 
L 1735.89606 475.536388 
L 1736.454214 484.77426 
L 1737.012368 491.191901 
L 1737.570523 494.958894 
L 1738.128677 496.629626 
L 1738.686832 496.942016 
L 1739.244986 496.588926 
L 1740.361295 495.330211 
L 1740.919449 494.019142 
L 1741.477603 491.078888 
L 1742.035758 485.293994 
L 1742.593912 475.74832 
L 1743.152066 462.220562 
L 1745.384684 396.681639 
L 1745.942838 388.91987 
L 1746.500993 387.600189 
L 1747.059147 392.581151 
L 1747.617301 403.044807 
L 1748.73361 434.341533 
L 1749.849919 465.981705 
L 1750.408073 477.584783 
L 1750.966227 485.535178 
L 1751.524382 490.298831 
L 1752.082536 492.916372 
L 1752.64069 494.49468 
L 1753.198845 495.622593 
L 1753.756999 496.077707 
L 1754.315154 494.929277 
L 1754.873308 490.874794 
L 1755.431462 482.744152 
L 1755.989617 470.044204 
L 1757.105925 433.666711 
L 1758.780388 375.384607 
L 1759.338543 360.876757 
L 1759.896697 350.378056 
L 1760.454851 344.213615 
L 1761.013006 342.386373 
L 1761.57116 344.846336 
L 1762.129315 351.678894 
L 1762.687469 363.021456 
L 1763.245623 378.773607 
L 1764.361932 420.145732 
L 1765.478241 462.778269 
L 1766.036395 479.726202 
L 1766.594549 492.379363 
L 1767.152704 500.713532 
L 1767.710858 505.263954 
L 1768.269012 506.807832 
L 1768.827167 506.023884 
L 1769.385321 503.274108 
L 1769.943476 498.634013 
L 1770.50163 492.161371 
L 1772.176093 468.207223 
L 1772.734247 462.569955 
L 1773.292402 460.053624 
L 1773.850556 461.215754 
L 1774.40871 465.718425 
L 1776.641328 491.375869 
L 1777.199482 494.895029 
L 1777.757637 496.991868 
L 1778.315791 497.921793 
L 1778.873945 497.991903 
L 1779.4321 497.67952 
L 1779.990254 497.526955 
L 1780.548408 497.849206 
L 1782.222871 499.891369 
L 1782.781026 499.627374 
L 1783.33918 498.147371 
L 1783.897334 494.969601 
L 1784.455489 489.655551 
L 1785.013643 481.893807 
L 1785.571798 471.610694 
L 1786.688106 444.849285 
L 1787.804415 415.76698 
L 1788.362569 403.608569 
L 1788.920724 394.958954 
L 1789.478878 391.111758 
L 1790.037032 392.90459 
L 1790.595187 400.432943 
L 1791.153341 412.923386 
L 1793.385959 476.818535 
L 1793.944113 488.123122 
L 1794.502267 496.203551 
L 1795.060422 501.326993 
L 1795.618576 504.075777 
L 1796.17673 505.193759 
L 1796.734885 505.425557 
L 1797.851193 505.395672 
L 1798.967502 505.92686 
L 1799.525656 505.855631 
L 1800.083811 504.67348 
L 1800.641965 501.409506 
L 1801.20012 495.114792 
L 1801.758274 485.257754 
L 1802.874583 456.897319 
L 1803.990891 428.779088 
L 1804.549046 420.327915 
L 1805.1072 417.763101 
L 1805.665354 421.545145 
L 1806.223509 430.88518 
L 1807.897972 467.47112 
L 1808.456126 472.894089 
L 1809.01428 471.86685 
L 1809.572435 464.291105 
L 1810.130589 451.216391 
L 1812.363207 387.744662 
L 1812.921361 380.236028 
L 1813.479515 378.676733 
L 1814.03767 383.142648 
L 1814.595824 393.102583 
L 1815.712133 424.048759 
L 1816.828441 456.567001 
L 1817.386596 469.132075 
L 1817.94475 477.900805 
L 1818.502905 482.400753 
L 1819.061059 482.422153 
L 1819.619213 477.848737 
L 1820.177368 468.639547 
L 1820.735522 455.079745 
L 1823.526294 372.767296 
L 1824.084448 365.822465 
L 1824.642602 364.33265 
L 1825.200757 368.235259 
L 1825.758911 377.235712 
L 1826.317066 390.691116 
L 1827.433374 426.091978 
L 1828.549683 462.044767 
L 1829.107837 476.46336 
L 1829.665992 487.340888 
L 1830.224146 494.550976 
L 1830.7823 498.492439 
L 1831.340455 499.869634 
L 1831.898609 499.506714 
L 1833.573072 495.847103 
L 1834.131227 495.460403 
L 1834.689381 495.610991 
L 1836.921998 497.346892 
L 1838.038307 497.816093 
L 1839.154616 498.834927 
L 1840.270924 499.896053 
L 1841.945388 501.210379 
L 1842.503542 501.444499 
L 1843.061696 501.356308 
L 1843.619851 500.74861 
L 1844.178005 499.223595 
L 1844.736159 496.109661 
L 1845.294314 490.632567 
L 1845.852468 482.218144 
L 1846.410622 470.660465 
L 1847.526931 439.410553 
L 1848.64324 404.824524 
L 1849.201394 390.811908 
L 1849.759549 381.383387 
L 1850.317703 377.768757 
L 1850.875857 380.69551 
L 1851.434012 390.273609 
L 1851.992166 405.657297 
L 1854.224783 479.016511 
L 1854.782938 490.073358 
L 1855.341092 497.233145 
L 1855.899246 501.2921 
L 1856.457401 503.263496 
L 1857.015555 504.102605 
L 1858.690018 505.120021 
L 1859.248173 505.490665 
L 1859.806327 505.64559 
L 1860.364481 505.089447 
L 1860.922636 503.097001 
L 1861.48079 498.832956 
L 1862.038944 491.554065 
L 1862.597099 480.840297 
L 1863.713407 449.99153 
L 1865.387871 397.713203 
L 1865.946025 384.719568 
L 1866.504179 375.685548 
L 1867.062334 371.384962 
L 1867.620488 372.530316 
L 1868.178642 379.471814 
L 1868.736797 391.818511 
L 1869.853105 427.280199 
L 1870.969414 464.35843 
L 1871.527568 479.155814 
L 1872.085723 490.205599 
L 1872.643877 497.457652 
L 1873.202032 501.445395 
L 1873.760186 503.030277 
L 1874.31834 503.09914 
L 1874.876495 502.377292 
L 1875.992803 500.567951 
L 1876.550958 500.036391 
L 1877.109112 499.814583 
L 1878.225421 499.613393 
L 1878.783575 499.276357 
L 1879.899884 498.325826 
L 1880.458038 498.150544 
L 1881.016193 498.374918 
L 1882.690656 499.980777 
L 1883.24881 500.078499 
L 1884.365119 499.853841 
L 1884.923273 499.94685 
L 1885.481427 500.324782 
L 1886.039582 500.981463 
L 1887.714045 503.378446 
L 1888.272199 503.830792 
L 1888.830354 504.062905 
L 1889.946662 504.136553 
L 1897.760823 503.65688 
L 1898.877132 503.953315 
L 1901.109749 504.821277 
L 1901.667904 504.514344 
L 1902.226058 503.332514 
L 1902.784212 500.649316 
L 1903.342367 495.846047 
L 1903.900521 488.550442 
L 1905.01683 467.306512 
L 1906.691293 431.76892 
L 1907.249447 423.402995 
L 1907.807602 418.534649 
L 1908.365756 417.675123 
L 1908.92391 420.844576 
L 1909.482065 427.721707 
L 1910.040219 437.688392 
L 1912.272837 484.896212 
L 1912.830991 492.627489 
L 1913.389145 497.788722 
L 1913.9473 500.726427 
L 1914.505454 501.967847 
L 1915.063608 502.034564 
L 1915.621763 501.295339 
L 1916.179917 499.938861 
L 1916.738071 498.051519 
L 1918.412534 491.321981 
L 1918.970689 490.34501 
L 1919.528843 490.591404 
L 1920.086998 491.809318 
L 1922.319615 498.398922 
L 1923.435924 500.521018 
L 1924.552232 502.16303 
L 1925.110387 502.702644 
L 1925.668541 502.916147 
L 1926.226695 502.64656 
L 1926.78485 501.568981 
L 1927.343004 499.11727 
L 1927.901159 494.593203 
L 1928.459313 487.428193 
L 1929.017467 477.473647 
L 1930.133776 451.159001 
L 1931.250085 423.240848 
L 1931.808239 412.260917 
L 1932.366393 405.243331 
L 1932.924548 403.229132 
L 1933.482702 406.634335 
L 1934.040856 415.14375 
L 1935.157165 442.703314 
L 1936.273474 472.39087 
L 1936.831628 483.931933 
L 1937.389783 492.184796 
L 1937.947937 497.308873 
L 1938.506091 500.086448 
L 1939.064246 501.498816 
L 1939.6224 502.296391 
L 1940.738709 503.257987 
L 1943.52948 504.980712 
L 1944.087635 505.427031 
L 1944.645789 505.618116 
L 1945.203944 505.068927 
L 1945.762098 503.074326 
L 1946.320252 498.861068 
L 1946.878407 491.88444 
L 1947.436561 482.101205 
L 1950.227333 423.524622 
L 1950.785487 418.561527 
L 1951.343641 417.88842 
L 1951.901796 421.548065 
L 1952.45995 429.059311 
L 1953.576259 451.905129 
L 1954.692568 477.56111 
L 1955.250722 488.359494 
L 1955.808876 496.51611 
L 1956.367031 501.775997 
L 1956.925185 504.517898 
L 1957.483339 505.490952 
L 1958.041494 505.478961 
L 1959.157802 504.70315 
L 1959.715957 504.507213 
L 1960.274111 504.54875 
L 1961.39042 504.978206 
L 1961.948574 504.880271 
L 1962.506729 504.015206 
L 1963.064883 501.828519 
L 1963.623037 497.757126 
L 1964.181192 491.305057 
L 1964.739346 482.138444 
L 1965.855655 456.135196 
L 1966.971963 426.138249 
L 1967.530118 413.860286 
L 1968.088272 405.976238 
L 1968.646427 403.957776 
L 1969.204581 408.329999 
L 1969.762735 418.403021 
L 1970.879044 448.250013 
L 1971.995353 477.323511 
L 1972.553507 488.247522 
L 1973.111661 496.159305 
L 1973.669816 501.216347 
L 1974.22797 503.953688 
L 1974.786124 505.071594 
L 1975.344279 505.233366 
L 1976.460588 504.564095 
L 1977.018742 504.238453 
L 1977.576896 504.044957 
L 1978.135051 503.998235 
L 1978.693205 504.092041 
L 1979.809514 504.600932 
L 1980.367668 504.864241 
L 1980.925822 504.88816 
L 1981.483977 504.331561 
L 1982.042131 502.747868 
L 1982.600285 499.694554 
L 1983.15844 494.889075 
L 1984.274749 480.514127 
L 1985.391057 464.263509 
L 1985.949212 457.757943 
L 1986.507366 453.553099 
L 1987.06552 452.342801 
L 1987.623675 454.319193 
L 1988.181829 459.068283 
L 1990.414446 485.444902 
L 1990.972601 488.400667 
L 1991.530755 488.86632 
L 1992.08891 487.331425 
L 1993.205218 482.369274 
L 1993.763373 480.966314 
L 1994.321527 480.925836 
L 1995.437836 483.013513 
L 1995.99599 483.205809 
L 1996.554144 481.769599 
L 1997.112299 478.487998 
L 1998.786762 463.418489 
L 1999.344916 460.486713 
L 1999.903071 460.337898 
L 2000.461225 463.315761 
L 2001.019379 469.150275 
L 2003.251997 499.215356 
L 2003.810151 503.226911 
L 2004.368305 505.398177 
L 2004.92646 506.141405 
L 2005.484614 505.748189 
L 2006.042768 504.232666 
L 2006.600923 501.369755 
L 2007.159077 496.806419 
L 2007.717232 490.136732 
L 2008.275386 481.011708 
L 2009.391695 455.797813 
L 2010.508003 427.597827 
L 2011.066158 416.342171 
L 2011.624312 409.138681 
L 2012.182466 406.984793 
L 2012.740621 410.097273 
L 2013.298775 417.913493 
L 2014.415084 442.842958 
L 2015.531393 470.479591 
L 2016.089547 481.921958 
L 2016.647701 490.684882 
L 2017.205856 496.539055 
L 2017.76401 499.482335 
L 2018.322164 499.568527 
L 2018.880319 496.869556 
L 2019.438473 491.509796 
L 2019.996627 483.765574 
L 2022.229245 444.073047 
L 2022.787399 437.825668 
L 2023.345554 435.675161 
L 2023.903708 438.12784 
L 2024.461862 444.70961 
L 2025.578171 464.865793 
L 2026.69448 484.559628 
L 2027.252634 491.727207 
L 2027.810788 496.764566 
L 2028.368943 500.047167 
L 2028.927097 502.074858 
L 2029.485251 503.185997 
L 2030.043406 503.608501 
L 2030.60156 503.576847 
L 2031.159715 503.280548 
L 2031.717869 502.783285 
L 2032.276023 502.051713 
L 2033.392332 499.882208 
L 2034.508641 497.826004 
L 2035.066795 497.201632 
L 2035.624949 496.852073 
L 2036.183104 496.814145 
L 2036.741258 497.191071 
L 2037.299412 497.983598 
L 2039.53203 501.920157 
L 2040.090184 502.613324 
L 2040.648339 503.040493 
L 2041.206493 503.062265 
L 2041.764647 502.447649 
L 2042.322802 501.00218 
L 2042.880956 498.689212 
L 2043.43911 495.529541 
L 2043.997265 491.404749 
L 2044.555419 486.015822 
L 2045.113573 479.029609 
L 2046.229882 460.074643 
L 2047.346191 438.71877 
L 2047.904345 430.47158 
L 2048.4625 425.740641 
L 2049.020654 425.269365 
L 2049.578808 429.064162 
L 2050.136963 436.455723 
L 2052.927734 483.728067 
L 2053.485889 489.447903 
L 2054.044043 493.563853 
L 2054.602198 496.207354 
L 2055.160352 497.590881 
L 2055.718506 498.010022 
L 2056.276661 497.787833 
L 2059.067432 495.020611 
L 2059.625587 494.905112 
L 2060.183741 495.163997 
L 2061.30005 496.420972 
L 2062.416359 497.670981 
L 2063.532667 498.600135 
L 2064.090822 498.857285 
L 2064.648976 498.972841 
L 2065.20713 498.934179 
L 2065.765285 498.69956 
L 2066.323439 498.242666 
L 2066.881593 497.487066 
L 2067.439748 496.172482 
L 2067.997902 493.853412 
L 2068.556056 490.083629 
L 2069.114211 484.672627 
L 2070.23052 469.878672 
L 2071.346828 453.711508 
L 2071.904983 447.296229 
L 2072.463137 443.426936 
L 2073.021291 443.013006 
L 2073.579446 446.398413 
L 2074.1376 453.159847 
L 2075.253909 472.423552 
L 2076.370217 491.079342 
L 2076.928372 497.801576 
L 2077.486526 502.329298 
L 2078.04468 504.829315 
L 2078.602835 505.634565 
L 2079.160989 505.025462 
L 2079.719144 503.118863 
L 2080.277298 499.952968 
L 2081.393607 490.799276 
L 2082.509915 481.830035 
L 2083.06807 479.09538 
L 2083.626224 478.124336 
L 2084.184378 479.088 
L 2084.742533 481.873539 
L 2085.858841 490.877413 
L 2086.97515 499.469878 
L 2087.533305 502.221513 
L 2088.091459 503.827803 
L 2088.649613 504.537444 
L 2089.207768 504.685618 
L 2090.324076 504.360218 
L 2091.440385 504.057677 
L 2093.114848 503.955428 
L 2095.90562 504.007358 
L 2097.021929 504.241425 
L 2098.138237 504.640992 
L 2098.696392 504.705024 
L 2099.254546 504.400189 
L 2099.8127 503.39861 
L 2100.370855 501.338798 
L 2100.929009 497.926038 
L 2101.487163 493.028002 
L 2102.603472 479.552959 
L 2103.719781 464.959851 
L 2104.277935 458.911408 
L 2104.83609 454.551274 
L 2105.394244 452.443803 
L 2105.952398 452.913962 
L 2106.510553 455.942036 
L 2107.068707 461.164051 
L 2108.185016 475.587403 
L 2109.301324 490.415352 
L 2109.859479 496.202779 
L 2110.417633 500.123872 
L 2110.975788 501.892903 
L 2111.533942 501.614949 
L 2112.092096 499.752427 
L 2113.208405 493.562639 
L 2114.324714 487.184458 
L 2114.882868 485.110533 
L 2115.441022 484.289346 
L 2115.999177 484.773221 
L 2116.557331 486.342024 
L 2117.67364 491.276965 
L 2118.789949 496.173787 
L 2119.348103 497.842438 
L 2119.906257 498.90092 
L 2121.022566 500.080137 
L 2122.697029 501.597754 
L 2125.487801 503.2333 
L 2126.045955 503.440862 
L 2126.60411 503.366138 
L 2127.162264 502.893527 
L 2127.720418 501.931641 
L 2128.278573 500.378785 
L 2128.836727 498.087046 
L 2129.394881 494.885176 
L 2129.953036 490.651364 
L 2131.069344 479.396664 
L 2132.185653 467.342188 
L 2132.743807 462.4626 
L 2133.301962 458.875283 
L 2133.860116 456.873534 
L 2134.418271 456.739623 
L 2134.976425 458.667301 
L 2135.534579 462.635544 
L 2136.650888 474.934637 
L 2137.767197 488.337296 
L 2138.325351 494.018077 
L 2138.883505 498.561839 
L 2139.44166 501.743825 
L 2139.999814 503.518751 
L 2140.557968 504.071744 
L 2141.116123 503.725285 
L 2141.674277 502.804114 
L 2142.790586 500.077896 
L 2144.465049 495.472387 
L 2145.023203 494.345518 
L 2145.581358 493.678963 
L 2146.139512 493.713047 
L 2146.697666 494.575752 
L 2147.813975 497.957999 
L 2148.372129 499.708628 
L 2148.930284 501.064949 
L 2149.488438 501.940794 
L 2150.604747 502.855158 
L 2152.27921 504.039283 
L 2152.837364 504.308978 
L 2153.395519 504.429373 
L 2153.953673 504.289745 
L 2154.511827 503.64957 
L 2155.069982 502.14329 
L 2155.628136 499.433581 
L 2156.18629 495.408039 
L 2157.302599 484.472531 
L 2158.418908 474.033666 
L 2158.977062 470.874473 
L 2159.535217 469.657722 
L 2160.093371 470.47418 
L 2160.651525 473.252981 
L 2161.20968 477.757342 
L 2163.442297 499.840727 
L 2164.000451 502.791162 
L 2164.558606 504.334038 
L 2165.11676 504.878526 
L 2165.674915 504.86293 
L 2167.349378 504.147568 
L 2168.465686 504.012222 
L 2170.698304 504.166423 
L 2171.256458 503.993415 
L 2171.814612 503.534246 
L 2172.372767 502.663789 
L 2172.930921 501.346492 
L 2175.721693 493.437822 
L 2176.279847 492.529547 
L 2176.838002 492.004608 
L 2177.396156 491.755812 
L 2177.95431 491.708143 
L 2179.070619 491.86052 
L 2180.186928 491.647895 
L 2180.745082 491.545763 
L 2181.303237 491.647565 
L 2181.861391 492.047617 
L 2184.652163 495.328965 
L 2185.210317 496.428702 
L 2187.442934 502.183963 
L 2188.001089 502.883327 
L 2189.117398 503.564085 
L 2190.233706 503.908915 
L 2194.698941 504.526902 
L 2195.257095 504.244007 
L 2195.81525 503.400062 
L 2196.373404 501.746441 
L 2196.931559 499.188355 
L 2198.047867 492.14304 
L 2199.164176 484.622141 
L 2199.72233 481.623202 
L 2200.280485 479.722068 
L 2200.838639 479.291345 
L 2201.396793 480.521668 
L 2201.954948 483.335357 
L 2203.071256 491.887363 
L 2204.187565 499.831325 
L 2204.74572 502.365436 
L 2205.303874 503.844598 
L 2205.862028 504.497718 
L 2206.420183 504.63336 
L 2207.536491 504.328313 
L 2208.6528 504.035168 
L 2209.769109 503.935101 
L 2210.885417 503.976437 
L 2212.001726 504.189959 
L 2213.676189 504.629671 
L 2214.234344 504.405416 
L 2214.792498 503.598209 
L 2215.350652 501.906849 
L 2215.908807 499.141779 
L 2217.025115 490.823614 
L 2218.141424 481.64885 
L 2218.699578 478.04318 
L 2219.257733 475.658914 
L 2219.815887 474.856207 
L 2220.374041 475.87437 
L 2220.932196 478.676991 
L 2221.49035 482.914129 
L 2223.164813 497.872159 
L 2223.722968 501.320753 
L 2224.281122 503.448637 
L 2224.839276 504.488433 
L 2225.397431 504.840611 
L 2227.630048 504.909285 
L 2228.188202 504.716561 
L 2228.746357 503.960681 
L 2229.304511 502.21555 
L 2229.862666 499.13167 
L 2230.42082 494.660594 
L 2232.095283 478.752164 
L 2232.653437 475.215856 
L 2233.211592 473.337509 
L 2233.769746 473.234144 
L 2234.3279 474.875799 
L 2234.886055 478.089976 
L 2236.002363 487.75162 
L 2237.118672 497.606952 
L 2237.676827 501.084232 
L 2238.234981 503.285589 
L 2238.793135 504.387076 
L 2239.35129 504.73733 
L 2239.909444 504.682969 
L 2241.583907 504.103336 
L 2242.700216 503.968529 
L 2247.723605 504.001485 
L 2258.328538 504.075567 
L 2259.444846 504.458315 
L 2260.561155 504.849685 
L 2261.11931 504.637877 
L 2261.677464 503.70784 
L 2262.235618 501.645818 
L 2262.793773 498.156326 
L 2263.910081 487.436227 
L 2265.02639 476.053428 
L 2265.584544 472.018118 
L 2266.142699 469.745604 
L 2266.700853 469.309863 
L 2267.259007 470.516 
L 2267.817162 473.08388 
L 2268.933471 480.9808 
L 2270.607934 494.307254 
L 2271.166088 498.135873 
L 2271.724242 501.151131 
L 2272.282397 503.142419 
L 2272.840551 504.192978 
L 2273.398705 504.574016 
L 2273.95686 504.576407 
L 2276.189477 504.019282 
L 2277.86394 503.972803 
L 2284.561793 504.177771 
L 2285.678101 504.433994 
L 2286.236256 504.44507 
L 2286.79441 504.180922 
L 2287.352564 503.422727 
L 2287.910719 501.963323 
L 2288.468873 499.718398 
L 2289.585182 493.484706 
L 2290.70149 487.590834 
L 2291.259645 486.097915 
L 2291.817799 485.969247 
L 2292.375954 487.1298 
L 2292.934108 489.369788 
L 2295.166725 501.554529 
L 2295.72488 503.266654 
L 2296.283034 504.171295 
L 2296.841188 504.498513 
L 2297.399343 504.499076 
L 2299.63196 504.016233 
L 2301.864578 503.984021 
L 2309.678739 504.182684 
L 2310.795047 504.39329 
L 2311.353202 504.357622 
L 2311.911356 504.037455 
L 2312.46951 503.237377 
L 2313.027665 501.79769 
L 2314.143973 497.311409 
L 2315.260282 492.930599 
L 2315.818437 491.505294 
L 2316.376591 490.998345 
L 2316.934745 491.706228 
L 2317.4929 493.564925 
L 2319.167363 500.98195 
L 2319.725517 502.660232 
L 2320.283671 503.705209 
L 2320.841826 504.216112 
L 2321.39998 504.368696 
L 2322.516289 504.227496 
L 2324.190752 504.002608 
L 2327.539678 503.997165 
L 2332.563067 504.10768 
L 2333.679376 504.085024 
L 2334.23753 503.932732 
L 2334.795685 503.607741 
L 2335.353839 503.076828 
L 2336.470148 501.542968 
L 2337.028302 500.550532 
L 2337.586456 499.254082 
L 2340.377228 491.242755 
L 2341.493537 489.726628 
L 2342.051691 489.030787 
L 2342.609846 488.123751 
L 2343.168 487.001649 
L 2343.168 487.001649 
" style="fill:none;stroke:#bfbf00;stroke-linecap:round;stroke-width:1.5;"/>
   </g>
   <g id="line2d_13">
    <path clip-path="url(#p57da8e428d)" d="M 325.44 472.084234 
L 327.672617 472.084234 
L 328.230772 471.726496 
L 349.998792 471.726496 
L 350.556946 468.199159 
L 351.673255 453.520645 
L 352.789563 452.71559 
L 358.371107 452.71559 
L 359.487416 453.520645 
L 360.603724 464.982904 
L 361.161879 466.271531 
L 365.068959 466.271531 
L 365.627114 467.773507 
L 366.185268 467.909659 
L 366.743422 468.190926 
L 368.417885 473.762604 
L 369.534194 476.592216 
L 370.092349 477.672298 
L 382.371744 477.672298 
L 382.929899 478.416498 
L 384.046207 478.472431 
L 394.65114 478.472431 
L 395.767449 478.861021 
L 406.930536 478.861021 
L 408.046845 479.214425 
L 409.163154 479.249476 
L 410.279462 479.499971 
L 440.977952 479.595079 
L 442.094261 480.915348 
L 442.652415 481.306986 
L 445.443187 481.413584 
L 446.559495 481.494586 
L 447.11765 482.092847 
L 447.675804 482.863948 
L 473.909059 482.863948 
L 474.467213 480.997559 
L 475.025368 475.15952 
L 476.141676 453.827119 
L 476.699831 452.988848 
L 477.257985 448.300853 
L 477.816139 447.563591 
L 480.048757 447.563591 
L 480.606911 452.988848 
L 481.165066 453.827119 
L 481.72322 459.525292 
L 482.281374 470.755379 
L 482.839529 476.868102 
L 483.397683 479.651562 
L 483.955837 480.184771 
L 510.189092 480.184771 
L 510.747246 479.775868 
L 511.863555 479.775868 
L 512.42171 479.65395 
L 519.119562 479.65395 
L 519.677716 479.330045 
L 520.235871 477.980977 
L 538.654964 477.980977 
L 539.213119 472.247142 
L 539.771273 462.007868 
L 540.329427 459.575106 
L 540.887582 455.744863 
L 541.445736 454.488187 
L 543.120199 454.488187 
L 543.678354 455.744863 
L 544.236508 459.575106 
L 544.794662 465.515952 
L 545.352817 473.574398 
L 545.910971 476.829452 
L 572.144226 476.829452 
L 572.70238 475.621692 
L 573.260534 475.156543 
L 573.818689 474.843405 
L 582.191004 474.843405 
L 582.749159 475.156543 
L 583.307313 475.621692 
L 583.865467 477.664542 
L 584.423622 478.532117 
L 610.656876 478.532117 
L 611.215031 475.851083 
L 611.773185 474.300042 
L 612.331339 473.935573 
L 613.447648 473.836596 
L 633.541205 473.836596 
L 634.099359 473.395432 
L 635.215668 473.212397 
L 635.773822 472.864775 
L 637.448285 472.864775 
L 638.00644 472.672355 
L 638.564594 472.644259 
L 639.122749 472.233802 
L 639.680903 472.09651 
L 640.239057 472.09651 
L 641.91352 472.406254 
L 652.518453 472.406254 
L 653.076607 472.09651 
L 657.541842 472.205836 
L 658.658151 472.659952 
L 659.216305 473.6923 
L 672.61201 473.6923 
L 673.728319 474.182986 
L 674.286473 474.835172 
L 688.798486 474.835172 
L 689.914795 475.828223 
L 716.706204 475.780149 
L 717.264359 474.521324 
L 718.380667 471.160429 
L 727.869291 471.160429 
L 728.427446 466.28495 
L 728.9856 464.717189 
L 729.543754 464.152565 
L 732.89268 464.152565 
L 733.450835 464.717189 
L 734.008989 466.28495 
L 735.125298 473.300057 
L 735.683452 474.239669 
L 761.916707 474.239669 
L 762.474861 473.066019 
L 763.033016 471.590486 
L 764.707479 471.32463 
L 765.823788 471.554771 
L 766.940096 474.764135 
L 768.056405 474.820281 
L 788.708116 474.820281 
L 789.266271 475.521581 
L 790.382579 475.700439 
L 790.940734 476.547823 
L 817.173988 476.547823 
L 817.732143 476.82942 
L 818.290297 476.82942 
L 818.848451 481.427254 
L 819.406606 484.103381 
L 845.639861 484.103381 
L 846.756169 482.263107 
L 847.314324 481.734045 
L 847.872478 481.486353 
L 850.105095 481.175738 
L 850.66325 480.750479 
L 851.779559 479.344657 
L 854.012176 479.191118 
L 856.244793 479.191118 
L 856.802948 478.899166 
L 857.361102 478.288562 
L 858.477411 476.492654 
L 859.035565 476.271053 
L 859.59372 476.241513 
L 860.151874 475.914742 
L 865.733417 475.914742 
L 867.40788 473.225721 
L 868.524189 472.332347 
L 869.640498 471.490835 
L 870.198652 470.948327 
L 870.756807 470.732489 
L 871.873115 470.732489 
L 872.43127 478.514911 
L 872.989424 483.136929 
L 873.547578 483.479968 
L 899.780833 483.479968 
L 900.338988 482.598216 
L 900.897142 481.966918 
L 901.455296 481.626978 
L 905.920531 481.566861 
L 920.990699 481.557546 
L 921.548853 481.975942 
L 947.782108 481.975942 
L 948.340262 481.8169 
L 949.456571 481.8169 
L 950.014725 481.987285 
L 951.131034 482.949258 
L 977.364289 482.949258 
L 977.922443 482.793339 
L 978.480598 482.789431 
L 979.038752 482.116678 
L 985.17845 482.116678 
L 985.736604 482.277902 
L 986.294759 482.789431 
L 995.225228 482.789431 
L 995.783383 482.277902 
L 996.341537 482.116678 
L 998.016 482.073256 
L 1000.248617 482.073256 
L 1000.806772 482.277902 
L 1001.364926 482.799931 
L 1013.644322 482.799931 
L 1014.202476 482.477971 
L 1028.156335 482.477971 
L 1028.71449 482.059067 
L 1029.272644 481.864903 
L 1032.62157 481.770894 
L 1042.110194 481.770894 
L 1042.668349 481.517899 
L 1043.226503 480.70618 
L 1043.784657 479.141693 
L 1044.342812 477.923423 
L 1044.900966 477.415442 
L 1045.45912 476.529899 
L 1046.017275 474.67731 
L 1064.436368 474.67731 
L 1065.552677 477.415442 
L 1066.110832 477.908901 
L 1066.668986 477.923423 
L 1067.22714 479.113786 
L 1067.785295 479.832489 
L 1068.901603 480.590436 
L 1070.017912 481.204606 
L 1070.576066 481.391436 
L 1097.367476 481.333146 
L 1099.041939 480.729849 
L 1099.600093 480.389625 
L 1100.158247 479.789221 
L 1100.716402 478.707464 
L 1101.274556 476.858994 
L 1101.83271 473.871747 
L 1102.390865 469.266496 
L 1103.507173 468.898259 
L 1104.065328 468.29419 
L 1106.297945 468.29419 
L 1106.8561 468.898259 
L 1107.414254 469.134949 
L 1108.530563 480.766534 
L 1109.088717 483.242292 
L 1135.321972 483.242292 
L 1136.996435 481.568284 
L 1139.787207 481.529182 
L 1140.345361 481.543177 
L 1140.903515 481.918907 
L 1167.13677 481.918907 
L 1168.253079 481.694074 
L 1169.927542 481.766968 
L 1170.485696 482.26019 
L 1171.043851 482.932019 
L 1182.765092 482.932019 
L 1183.323246 483.537829 
L 1193.370025 483.544071 
L 1198.393414 483.537829 
L 1198.951568 482.912255 
L 1202.300495 482.912255 
L 1202.858649 483.537829 
L 1211.230964 483.544071 
L 1211.789119 483.38346 
L 1230.208212 483.38346 
L 1230.766367 482.461941 
L 1231.324521 482.440095 
L 1231.882676 482.201103 
L 1232.44083 481.639928 
L 1238.022373 481.630342 
L 1238.580528 481.692879 
L 1239.138682 482.153398 
L 1239.696837 482.201103 
L 1240.254991 482.440095 
L 1240.813145 482.811824 
L 1241.3713 483.57413 
L 1264.255628 483.57413 
L 1265.371937 483.808609 
L 1268.720863 483.699089 
L 1269.279017 483.655778 
L 1269.837172 483.808609 
L 1292.163346 483.808609 
L 1292.7215 483.655778 
L 1293.279655 483.242381 
L 1296.628581 483.242381 
L 1297.186735 482.224412 
L 1297.74489 482.097824 
L 1298.303044 481.041539 
L 1303.884588 481.041539 
L 1304.442742 482.097824 
L 1305.000896 482.224412 
L 1305.559051 482.972457 
L 1325.652607 482.972457 
L 1326.210762 483.507783 
L 1326.768916 483.713744 
L 1327.327071 484.341384 
L 1332.35046 484.341384 
L 1332.908614 483.713744 
L 1333.466768 483.507783 
L 1353.560325 483.507783 
L 1355.234788 481.546338 
L 1355.792943 481.200471 
L 1378.677271 481.131881 
L 1379.235426 480.957938 
L 1379.79358 480.260573 
L 1380.351734 479.28228 
L 1380.909889 479.262264 
L 1381.468043 479.082159 
L 1385.933278 479.082159 
L 1386.491432 479.262264 
L 1387.049587 479.28228 
L 1387.607741 480.825427 
L 1388.165895 482.836633 
L 1399.887137 482.836633 
L 1401.003446 483.467938 
L 1414.957305 483.467938 
L 1415.515459 483.320777 
L 1416.631768 483.398984 
L 1417.189922 484.019145 
L 1427.794855 484.019145 
L 1428.353009 483.398984 
L 1430.027472 483.207999 
L 1443.981331 483.207999 
L 1444.539485 480.816142 
L 1445.09764 480.389367 
L 1445.655794 480.352897 
L 1446.213949 479.802396 
L 1455.144418 479.787411 
L 1455.702573 479.540807 
L 1457.93519 479.508775 
L 1460.167807 479.508775 
L 1460.725962 478.75527 
L 1462.958579 478.548 
L 1466.307505 478.539188 
L 1467.423814 478.069544 
L 1479.145056 478.069544 
L 1479.70321 478.539188 
L 1480.261364 478.656131 
L 1480.819519 481.350746 
L 1481.377673 481.541323 
L 1508.169082 481.541323 
L 1509.285391 480.834798 
L 1530.495256 480.798153 
L 1531.053411 480.715327 
L 1531.611565 480.446329 
L 1532.727874 480.328568 
L 1533.286028 480.037836 
L 1534.402337 479.979711 
L 1543.332807 480.059894 
L 1543.890961 480.328568 
L 1544.449115 480.376336 
L 1545.00727 481.736617 
L 1562.868209 481.743203 
L 1563.426363 482.065468 
L 1563.984518 482.080551 
L 1564.542672 482.924823 
L 1590.775927 482.924823 
L 1591.892236 481.859315 
L 1592.45039 481.570173 
L 1593.566699 481.329497 
L 1594.683007 481.054943 
L 1595.241162 480.713057 
L 1595.799316 480.107186 
L 1596.357471 479.035167 
L 1597.473779 478.986186 
L 1598.031934 478.198392 
L 1612.543947 478.198392 
L 1613.102101 478.32975 
L 1616.451027 478.400297 
L 1617.009182 478.986186 
L 1617.567336 479.035167 
L 1618.12549 479.292856 
L 1644.358745 479.292856 
L 1644.9169 478.593424 
L 1645.475054 478.587733 
L 1646.033208 478.26515 
L 1646.591363 477.791152 
L 1647.707671 478.587733 
L 1648.265826 478.593424 
L 1648.82398 481.188442 
L 1649.382134 482.226644 
L 1676.173544 482.118098 
L 1676.731698 481.673126 
L 1681.755087 481.523279 
L 1692.36002 481.523279 
L 1693.476329 479.372407 
L 1694.034483 478.107233 
L 1694.592637 477.14268 
L 1695.708946 477.034872 
L 1696.825255 477.327127 
L 1697.383409 478.715072 
L 1697.941563 479.40393 
L 1699.616027 479.416866 
L 1700.732335 479.519988 
L 1725.291127 479.416866 
L 1726.96559 479.382395 
L 1729.756362 478.089169 
L 1730.314516 477.075379 
L 1730.872671 474.753748 
L 1731.988979 474.097728 
L 1733.663442 474.057028 
L 1752.082536 474.057028 
L 1752.64069 473.545809 
L 1753.756999 473.496337 
L 1754.315154 473.545809 
L 1755.431462 482.732056 
L 1781.664717 482.732056 
L 1782.222871 481.543879 
L 1783.33918 481.543879 
L 1783.897334 482.661861 
L 1784.455489 482.837037 
L 1785.571798 482.893659 
L 1786.129952 483.096864 
L 1812.363207 483.096864 
L 1812.921361 482.141582 
L 1813.479515 478.877608 
L 1814.03767 472.582894 
L 1814.595824 462.725856 
L 1815.153978 459.890255 
L 1816.828441 459.890255 
L 1817.386596 464.80899 
L 1817.94475 472.019077 
L 1818.502905 475.960541 
L 1825.200757 475.960541 
L 1825.758911 476.303029 
L 1826.317066 476.878193 
L 1826.87522 476.974816 
L 1827.433374 477.337736 
L 1827.991529 477.364155 
L 1829.665992 478.678481 
L 1842.503542 478.760202 
L 1843.619851 478.912601 
L 1844.178005 480.731598 
L 1844.736159 481.570707 
L 1846.410622 482.588123 
L 1873.202032 482.557549 
L 1873.760186 480.567242 
L 1874.876495 480.567242 
L 1875.434649 480.846548 
L 1875.992803 481.298894 
L 1876.550958 481.531007 
L 1878.783575 481.567298 
L 1887.15589 481.655423 
L 1887.714045 481.926506 
L 1888.830354 481.982446 
L 1914.505454 481.982446 
L 1915.063608 480.800616 
L 1915.621763 480.384249 
L 1916.179917 480.170746 
L 1917.296226 480.114662 
L 1926.78485 480.170746 
L 1927.901159 480.384249 
L 1931.250085 482.448814 
L 1932.366393 482.537029 
L 1943.52948 482.537029 
L 1944.087635 482.895133 
L 1945.762098 482.947063 
L 1958.599648 482.947063 
L 1959.157802 482.557744 
L 1961.39042 482.557744 
L 1961.948574 482.701468 
L 1971.437198 482.701468 
L 1971.995353 482.557744 
L 1979.251359 482.421651 
L 1989.856292 482.332342 
L 1990.414446 482.069034 
L 1990.972601 482.332342 
L 1991.530755 482.356261 
L 1992.08891 482.866278 
L 2018.322164 482.866278 
L 2018.880319 481.700768 
L 2019.438473 481.076602 
L 2019.996627 481.044949 
L 2020.554782 480.74865 
L 2043.997265 480.74865 
L 2044.555419 480.530367 
L 2045.113573 480.508595 
L 2046.229882 480.081426 
L 2054.044043 480.081426 
L 2054.602198 479.915751 
L 2055.160352 478.470282 
L 2055.718506 476.440943 
L 2058.509278 476.325387 
L 2064.090822 476.402281 
L 2064.648976 476.440943 
L 2065.20713 479.7974 
L 2065.765285 482.297417 
L 2091.998539 482.297417 
L 2093.114848 482.15372 
L 2094.789311 482.109094 
L 2103.719781 482.030333 
L 2104.277935 481.91026 
L 2112.092096 481.868291 
L 2112.650251 480.908964 
L 2116.557331 480.701402 
L 2126.045955 480.701402 
L 2127.720418 480.986853 
L 2137.767197 480.986853 
L 2140.557968 481.757847 
L 2151.721056 481.80214 
L 2153.953673 482.0881 
L 2179.070619 482.0881 
L 2179.628773 481.81844 
L 2191.908169 481.831975 
L 2192.466324 481.96582 
L 2207.536491 482.020182 
L 2212.55988 482.101462 
L 2213.118035 482.308712 
L 2217.025115 482.348231 
L 2240.467598 482.329371 
L 2241.583907 482.184663 
L 2242.142061 482.151071 
L 2242.700216 481.94435 
L 2246.049142 481.94435 
L 2246.607296 482.151071 
L 2249.398068 482.175959 
L 2273.95686 482.105979 
L 2276.189477 481.913172 
L 2324.748906 481.825724 
L 2329.772295 481.695598 
L 2336.470148 481.591009 
L 2340.935383 481.575782 
L 2343.168 481.575782 
L 2343.168 481.575782 
" style="fill:none;stroke:#0000ff;stroke-linecap:round;stroke-width:1.5;"/>
   </g>
   <g id="line2d_14">
    <defs>
     <path d="M 0 3 
C 0.795609 3 1.55874 2.683901 2.12132 2.12132 
C 2.683901 1.55874 3 0.795609 3 0 
C 3 -0.795609 2.683901 -1.55874 2.12132 -2.12132 
C 1.55874 -2.683901 0.795609 -3 0 -3 
C -0.795609 -3 -1.55874 -2.683901 -2.12132 -2.12132 
C -2.683901 -1.55874 -3 -0.795609 -3 0 
C -3 0.795609 -2.683901 1.55874 -2.12132 2.12132 
C -1.55874 2.683901 -0.795609 3 0 3 
z
" id="m53f38f2641" style="stroke:#008000;"/>
    </defs>
    <g clip-path="url(#p57da8e428d)">
     <use style="fill:#008000;stroke:#008000;" x="341.626476" xlink:href="#m53f38f2641" y="419.812414"/>
     <use style="fill:#008000;stroke:#008000;" x="347.20802" xlink:href="#m53f38f2641" y="436.287813"/>
     <use style="fill:#008000;stroke:#008000;" x="352.789563" xlink:href="#m53f38f2641" y="444.134022"/>
     <use style="fill:#008000;stroke:#008000;" x="357.812953" xlink:href="#m53f38f2641" y="411.205198"/>
     <use style="fill:#008000;stroke:#008000;" x="368.417885" xlink:href="#m53f38f2641" y="423.796655"/>
     <use style="fill:#008000;stroke:#008000;" x="389.627751" xlink:href="#m53f38f2641" y="372.508142"/>
     <use style="fill:#008000;stroke:#008000;" x="403.58161" xlink:href="#m53f38f2641" y="371.518003"/>
     <use style="fill:#008000;stroke:#008000;" x="414.186543" xlink:href="#m53f38f2641" y="384.64584"/>
     <use style="fill:#008000;stroke:#008000;" x="433.163791" xlink:href="#m53f38f2641" y="419.874632"/>
     <use style="fill:#008000;stroke:#008000;" x="437.629026" xlink:href="#m53f38f2641" y="380.443124"/>
     <use style="fill:#008000;stroke:#008000;" x="467.211207" xlink:href="#m53f38f2641" y="363.468147"/>
     <use style="fill:#008000;stroke:#008000;" x="473.350905" xlink:href="#m53f38f2641" y="410.430847"/>
     <use style="fill:#008000;stroke:#008000;" x="480.606911" xlink:href="#m53f38f2641" y="445.239829"/>
     <use style="fill:#008000;stroke:#008000;" x="488.979227" xlink:href="#m53f38f2641" y="323.116624"/>
     <use style="fill:#008000;stroke:#008000;" x="509.630938" xlink:href="#m53f38f2641" y="474.622523"/>
     <use style="fill:#008000;stroke:#008000;" x="518.003253" xlink:href="#m53f38f2641" y="338.206832"/>
     <use style="fill:#008000;stroke:#008000;" x="531.957112" xlink:href="#m53f38f2641" y="329.206381"/>
     <use style="fill:#008000;stroke:#008000;" x="538.654964" xlink:href="#m53f38f2641" y="385.736213"/>
     <use style="fill:#008000;stroke:#008000;" x="547.585434" xlink:href="#m53f38f2641" y="360.552832"/>
     <use style="fill:#008000;stroke:#008000;" x="553.725132" xlink:href="#m53f38f2641" y="421.138535"/>
     <use style="fill:#008000;stroke:#008000;" x="574.376843" xlink:href="#m53f38f2641" y="350.841131"/>
     <use style="fill:#008000;stroke:#008000;" x="590.56332" xlink:href="#m53f38f2641" y="346.950239"/>
     <use style="fill:#008000;stroke:#008000;" x="603.40087" xlink:href="#m53f38f2641" y="371.887236"/>
     <use style="fill:#008000;stroke:#008000;" x="613.447648" xlink:href="#m53f38f2641" y="361.569157"/>
     <use style="fill:#008000;stroke:#008000;" x="631.866742" xlink:href="#m53f38f2641" y="327.728678"/>
     <use style="fill:#008000;stroke:#008000;" x="664.239695" xlink:href="#m53f38f2641" y="323.06253"/>
     <use style="fill:#008000;stroke:#008000;" x="693.263721" xlink:href="#m53f38f2641" y="346.446005"/>
     <use style="fill:#008000;stroke:#008000;" x="708.892043" xlink:href="#m53f38f2641" y="368.892902"/>
     <use style="fill:#008000;stroke:#008000;" x="719.496976" xlink:href="#m53f38f2641" y="380.610502"/>
     <use style="fill:#008000;stroke:#008000;" x="725.07852" xlink:href="#m53f38f2641" y="392.026244"/>
     <use style="fill:#008000;stroke:#008000;" x="740.706841" xlink:href="#m53f38f2641" y="342.363348"/>
     <use style="fill:#008000;stroke:#008000;" x="793.731505" xlink:href="#m53f38f2641" y="362.837512"/>
     <use style="fill:#008000;stroke:#008000;" x="815.499525" xlink:href="#m53f38f2641" y="364.665661"/>
     <use style="fill:#008000;stroke:#008000;" x="826.104458" xlink:href="#m53f38f2641" y="361.599002"/>
     <use style="fill:#008000;stroke:#008000;" x="866.849726" xlink:href="#m53f38f2641" y="426.109351"/>
     <use style="fill:#008000;stroke:#008000;" x="878.570968" xlink:href="#m53f38f2641" y="352.009131"/>
     <use style="fill:#008000;stroke:#008000;" x="972.3409" xlink:href="#m53f38f2641" y="349.099835"/>
     <use style="fill:#008000;stroke:#008000;" x="986.852913" xlink:href="#m53f38f2641" y="478.088743"/>
     <use style="fill:#008000;stroke:#008000;" x="1006.388315" xlink:href="#m53f38f2641" y="375.981448"/>
     <use style="fill:#008000;stroke:#008000;" x="1036.528651" xlink:href="#m53f38f2641" y="429.889678"/>
     <use style="fill:#008000;stroke:#008000;" x="1043.784657" xlink:href="#m53f38f2641" y="409.987828"/>
     <use style="fill:#008000;stroke:#008000;" x="1050.48251" xlink:href="#m53f38f2641" y="437.510254"/>
     <use style="fill:#008000;stroke:#008000;" x="1061.087442" xlink:href="#m53f38f2641" y="392.016261"/>
     <use style="fill:#008000;stroke:#008000;" x="1094.576704" xlink:href="#m53f38f2641" y="396.670486"/>
     <use style="fill:#008000;stroke:#008000;" x="1113.553952" xlink:href="#m53f38f2641" y="364.581369"/>
     <use style="fill:#008000;stroke:#008000;" x="1146.485059" xlink:href="#m53f38f2641" y="413.456386"/>
     <use style="fill:#008000;stroke:#008000;" x="1168.253079" xlink:href="#m53f38f2641" y="404.826456"/>
     <use style="fill:#008000;stroke:#008000;" x="1190.579253" xlink:href="#m53f38f2641" y="386.676926"/>
     <use style="fill:#008000;stroke:#008000;" x="1210.67281" xlink:href="#m53f38f2641" y="385.883642"/>
     <use style="fill:#008000;stroke:#008000;" x="1231.882676" xlink:href="#m53f38f2641" y="353.875486"/>
     <use style="fill:#008000;stroke:#008000;" x="1259.232239" xlink:href="#m53f38f2641" y="421.943765"/>
     <use style="fill:#008000;stroke:#008000;" x="1272.069789" xlink:href="#m53f38f2641" y="387.44986"/>
     <use style="fill:#008000;stroke:#008000;" x="1288.256266" xlink:href="#m53f38f2641" y="407.858293"/>
     <use style="fill:#008000;stroke:#008000;" x="1296.070427" xlink:href="#m53f38f2641" y="435.395483"/>
     <use style="fill:#008000;stroke:#008000;" x="1310.58244" xlink:href="#m53f38f2641" y="330.938102"/>
     <use style="fill:#008000;stroke:#008000;" x="1347.978782" xlink:href="#m53f38f2641" y="349.622167"/>
     <use style="fill:#008000;stroke:#008000;" x="1358.583715" xlink:href="#m53f38f2641" y="449.437353"/>
     <use style="fill:#008000;stroke:#008000;" x="1394.863748" xlink:href="#m53f38f2641" y="363.271437"/>
     <use style="fill:#008000;stroke:#008000;" x="1408.817607" xlink:href="#m53f38f2641" y="411.925595"/>
     <use style="fill:#008000;stroke:#008000;" x="1423.32962" xlink:href="#m53f38f2641" y="319.198619"/>
     <use style="fill:#008000;stroke:#008000;" x="1436.16717" xlink:href="#m53f38f2641" y="437.407899"/>
     <use style="fill:#008000;stroke:#008000;" x="1461.284116" xlink:href="#m53f38f2641" y="460.306954"/>
     <use style="fill:#008000;stroke:#008000;" x="1486.401062" xlink:href="#m53f38f2641" y="313.146059"/>
     <use style="fill:#008000;stroke:#008000;" x="1505.37831" xlink:href="#m53f38f2641" y="446.728344"/>
     <use style="fill:#008000;stroke:#008000;" x="1528.262639" xlink:href="#m53f38f2641" y="402.265572"/>
     <use style="fill:#008000;stroke:#008000;" x="1535.518646" xlink:href="#m53f38f2641" y="434.942753"/>
     <use style="fill:#008000;stroke:#008000;" x="1549.472505" xlink:href="#m53f38f2641" y="331.072056"/>
     <use style="fill:#008000;stroke:#008000;" x="1571.240524" xlink:href="#m53f38f2641" y="378.621061"/>
     <use style="fill:#008000;stroke:#008000;" x="1590.217773" xlink:href="#m53f38f2641" y="330.87969"/>
     <use style="fill:#008000;stroke:#008000;" x="1618.12549" xlink:href="#m53f38f2641" y="337.023774"/>
     <use style="fill:#008000;stroke:#008000;" x="1656.079987" xlink:href="#m53f38f2641" y="408.158629"/>
     <use style="fill:#008000;stroke:#008000;" x="1673.382772" xlink:href="#m53f38f2641" y="432.423778"/>
     <use style="fill:#008000;stroke:#008000;" x="1694.592637" xlink:href="#m53f38f2641" y="472.061177"/>
     <use style="fill:#008000;stroke:#008000;" x="1702.964953" xlink:href="#m53f38f2641" y="418.562219"/>
     <use style="fill:#008000;stroke:#008000;" x="1723.05851" xlink:href="#m53f38f2641" y="416.022749"/>
     <use style="fill:#008000;stroke:#008000;" x="1731.988979" xlink:href="#m53f38f2641" y="407.177319"/>
     <use style="fill:#008000;stroke:#008000;" x="1746.500993" xlink:href="#m53f38f2641" y="387.600189"/>
     <use style="fill:#008000;stroke:#008000;" x="1761.013006" xlink:href="#m53f38f2641" y="342.386373"/>
     <use style="fill:#008000;stroke:#008000;" x="1773.292402" xlink:href="#m53f38f2641" y="460.053624"/>
     <use style="fill:#008000;stroke:#008000;" x="1789.478878" xlink:href="#m53f38f2641" y="391.111758"/>
     <use style="fill:#008000;stroke:#008000;" x="1805.1072" xlink:href="#m53f38f2641" y="417.763101"/>
     <use style="fill:#008000;stroke:#008000;" x="1812.921361" xlink:href="#m53f38f2641" y="380.236028"/>
     <use style="fill:#008000;stroke:#008000;" x="1824.642602" xlink:href="#m53f38f2641" y="364.33265"/>
     <use style="fill:#008000;stroke:#008000;" x="1850.317703" xlink:href="#m53f38f2641" y="377.768757"/>
     <use style="fill:#008000;stroke:#008000;" x="1867.062334" xlink:href="#m53f38f2641" y="371.384962"/>
     <use style="fill:#008000;stroke:#008000;" x="1908.365756" xlink:href="#m53f38f2641" y="417.675123"/>
     <use style="fill:#008000;stroke:#008000;" x="1932.924548" xlink:href="#m53f38f2641" y="403.229132"/>
     <use style="fill:#008000;stroke:#008000;" x="1951.343641" xlink:href="#m53f38f2641" y="417.88842"/>
     <use style="fill:#008000;stroke:#008000;" x="1968.646427" xlink:href="#m53f38f2641" y="403.957776"/>
     <use style="fill:#008000;stroke:#008000;" x="1987.06552" xlink:href="#m53f38f2641" y="452.342801"/>
     <use style="fill:#008000;stroke:#008000;" x="1999.903071" xlink:href="#m53f38f2641" y="460.337898"/>
     <use style="fill:#008000;stroke:#008000;" x="2012.182466" xlink:href="#m53f38f2641" y="406.984793"/>
     <use style="fill:#008000;stroke:#008000;" x="2023.345554" xlink:href="#m53f38f2641" y="435.675161"/>
     <use style="fill:#008000;stroke:#008000;" x="2049.020654" xlink:href="#m53f38f2641" y="425.269365"/>
     <use style="fill:#008000;stroke:#008000;" x="2073.021291" xlink:href="#m53f38f2641" y="443.013006"/>
     <use style="fill:#008000;stroke:#008000;" x="2083.626224" xlink:href="#m53f38f2641" y="478.124336"/>
     <use style="fill:#008000;stroke:#008000;" x="2105.394244" xlink:href="#m53f38f2641" y="452.443803"/>
     <use style="fill:#008000;stroke:#008000;" x="2134.418271" xlink:href="#m53f38f2641" y="456.739623"/>
     <use style="fill:#008000;stroke:#008000;" x="2159.535217" xlink:href="#m53f38f2641" y="469.657722"/>
     <use style="fill:#008000;stroke:#008000;" x="2200.838639" xlink:href="#m53f38f2641" y="479.291345"/>
     <use style="fill:#008000;stroke:#008000;" x="2219.815887" xlink:href="#m53f38f2641" y="474.856207"/>
     <use style="fill:#008000;stroke:#008000;" x="2233.769746" xlink:href="#m53f38f2641" y="473.234144"/>
     <use style="fill:#008000;stroke:#008000;" x="2266.700853" xlink:href="#m53f38f2641" y="469.309863"/>
    </g>
   </g>
   <g id="patch_3">
    <path d="M 320.44 504 
L 320.44 69.12 
" style="fill:none;stroke:#262626;stroke-linecap:square;stroke-linejoin:miter;stroke-width:0.8;"/>
   </g>
   <g id="patch_4">
    <path d="M 325.44 509 
L 2343.168 509 
" style="fill:none;stroke:#262626;stroke-linecap:square;stroke-linejoin:miter;stroke-width:0.8;"/>
   </g>
   <g id="text_14">
    <text style="fill:#262626;font-family:Arial;font-size:36px;font-stretch:normal;font-style:normal;font-weight:normal;text-anchor:middle;" transform="rotate(-0, 1334.304, 61.543125)" x="1334.304" y="61.543125">20190923_GN941-09_03_Overlay-1.tif NID-1::wSc</text>
   </g>
  </g>
 </g>
 <defs>
  <clipPath id="p57da8e428d">
   <rect height="434.88" width="2017.728" x="325.44" y="69.12"/>
  </clipPath>
 </defs>
</svg>
