<?xml version="1.0" encoding="utf-8" standalone="no"?>
<!DOCTYPE svg PUBLIC "-//W3C//DTD SVG 1.1//EN"
  "http://www.w3.org/Graphics/SVG/1.1/DTD/svg11.dtd">
<!-- Created with matplotlib (https://matplotlib.org/) -->
<svg height="576pt" version="1.1" viewBox="0 0 2118.96 576" width="2118.96pt" xmlns="http://www.w3.org/2000/svg" xmlns:xlink="http://www.w3.org/1999/xlink">
 <metadata>
  <rdf:RDF xmlns:cc="http://creativecommons.org/ns#" xmlns:dc="http://purl.org/dc/elements/1.1/" xmlns:rdf="http://www.w3.org/1999/02/22-rdf-syntax-ns#">
   <cc:Work>
    <dc:type rdf:resource="http://purl.org/dc/dcmitype/StillImage"/>
    <dc:date>2022-12-01T10:17:39.777241</dc:date>
    <dc:format>image/svg+xml</dc:format>
    <dc:creator>
     <cc:Agent>
      <dc:title>Matplotlib v3.3.4, https://matplotlib.org/</dc:title>
     </cc:Agent>
    </dc:creator>
   </cc:Work>
  </rdf:RDF>
 </metadata>
 <defs>
  <style type="text/css">*{stroke-linecap:butt;stroke-linejoin:round;}</style>
 </defs>
 <g id="figure_1">
  <g id="patch_1">
   <path d="M 0 576 
L 2118.96 576 
L 2118.96 0 
L 0 0 
z
" style="fill:#ffffff;"/>
  </g>
  <g id="axes_1">
   <g id="patch_2">
    <path d="M 264.87 504 
L 1907.064 504 
L 1907.064 69.12 
L 264.87 69.12 
z
" style="fill:#ffffff;"/>
   </g>
   <g id="matplotlib.axis_1">
    <g id="xtick_1">
     <g id="line2d_1">
      <defs>
       <path d="M 0 0 
L 0 -3.5 
" id="m68438dff83" style="stroke:#262626;stroke-width:0.8;"/>
      </defs>
      <g>
       <use style="fill:#262626;stroke:#262626;stroke-width:0.8;" x="264.87" xlink:href="#m68438dff83" y="509"/>
      </g>
     </g>
     <g id="text_1">
      <text style="fill:#262626;font-family:Arial;font-size:30px;font-stretch:normal;font-style:normal;font-weight:normal;text-anchor:middle;" transform="rotate(-0, 264.87, 533.973438)" x="264.87" y="533.973438">0</text>
     </g>
    </g>
    <g id="xtick_2">
     <g id="line2d_2">
      <g>
       <use style="fill:#262626;stroke:#262626;stroke-width:0.8;" x="486.961379" xlink:href="#m68438dff83" y="509"/>
      </g>
     </g>
     <g id="text_2">
      <text style="fill:#262626;font-family:Arial;font-size:30px;font-stretch:normal;font-style:normal;font-weight:normal;text-anchor:middle;" transform="rotate(-0, 486.961379, 533.973438)" x="486.961379" y="533.973438">50</text>
     </g>
    </g>
    <g id="xtick_3">
     <g id="line2d_3">
      <g>
       <use style="fill:#262626;stroke:#262626;stroke-width:0.8;" x="709.052759" xlink:href="#m68438dff83" y="509"/>
      </g>
     </g>
     <g id="text_3">
      <text style="fill:#262626;font-family:Arial;font-size:30px;font-stretch:normal;font-style:normal;font-weight:normal;text-anchor:middle;" transform="rotate(-0, 709.052759, 533.973438)" x="709.052759" y="533.973438">100</text>
     </g>
    </g>
    <g id="xtick_4">
     <g id="line2d_4">
      <g>
       <use style="fill:#262626;stroke:#262626;stroke-width:0.8;" x="931.144138" xlink:href="#m68438dff83" y="509"/>
      </g>
     </g>
     <g id="text_4">
      <text style="fill:#262626;font-family:Arial;font-size:30px;font-stretch:normal;font-style:normal;font-weight:normal;text-anchor:middle;" transform="rotate(-0, 931.144138, 533.973438)" x="931.144138" y="533.973438">150</text>
     </g>
    </g>
    <g id="xtick_5">
     <g id="line2d_5">
      <g>
       <use style="fill:#262626;stroke:#262626;stroke-width:0.8;" x="1153.235518" xlink:href="#m68438dff83" y="509"/>
      </g>
     </g>
     <g id="text_5">
      <text style="fill:#262626;font-family:Arial;font-size:30px;font-stretch:normal;font-style:normal;font-weight:normal;text-anchor:middle;" transform="rotate(-0, 1153.235518, 533.973438)" x="1153.235518" y="533.973438">200</text>
     </g>
    </g>
    <g id="xtick_6">
     <g id="line2d_6">
      <g>
       <use style="fill:#262626;stroke:#262626;stroke-width:0.8;" x="1375.326897" xlink:href="#m68438dff83" y="509"/>
      </g>
     </g>
     <g id="text_6">
      <text style="fill:#262626;font-family:Arial;font-size:30px;font-stretch:normal;font-style:normal;font-weight:normal;text-anchor:middle;" transform="rotate(-0, 1375.326897, 533.973438)" x="1375.326897" y="533.973438">250</text>
     </g>
    </g>
    <g id="xtick_7">
     <g id="line2d_7">
      <g>
       <use style="fill:#262626;stroke:#262626;stroke-width:0.8;" x="1597.418276" xlink:href="#m68438dff83" y="509"/>
      </g>
     </g>
     <g id="text_7">
      <text style="fill:#262626;font-family:Arial;font-size:30px;font-stretch:normal;font-style:normal;font-weight:normal;text-anchor:middle;" transform="rotate(-0, 1597.418276, 533.973438)" x="1597.418276" y="533.973438">300</text>
     </g>
    </g>
    <g id="xtick_8">
     <g id="line2d_8">
      <g>
       <use style="fill:#262626;stroke:#262626;stroke-width:0.8;" x="1819.509656" xlink:href="#m68438dff83" y="509"/>
      </g>
     </g>
     <g id="text_8">
      <text style="fill:#262626;font-family:Arial;font-size:30px;font-stretch:normal;font-style:normal;font-weight:normal;text-anchor:middle;" transform="rotate(-0, 1819.509656, 533.973438)" x="1819.509656" y="533.973438">350</text>
     </g>
    </g>
    <g id="text_9">
     <text style="fill:#262626;font-family:Arial;font-size:30px;font-stretch:normal;font-style:normal;font-weight:normal;text-anchor:middle;" transform="rotate(-0, 1085.967, 565.775)" x="1085.967" y="565.775">Distance (um)</text>
    </g>
   </g>
   <g id="matplotlib.axis_2">
    <g id="ytick_1">
     <g id="line2d_9">
      <defs>
       <path d="M 0 0 
L 3.5 0 
" id="m2ec2f1793a" style="stroke:#262626;stroke-width:0.8;"/>
      </defs>
      <g>
       <use style="fill:#262626;stroke:#262626;stroke-width:0.8;" x="259.87" xlink:href="#m2ec2f1793a" y="504"/>
      </g>
     </g>
     <g id="text_10">
      <text style="fill:#262626;font-family:Arial;font-size:30px;font-stretch:normal;font-style:normal;font-weight:normal;text-anchor:end;" transform="rotate(-0, 256.37, 514.736719)" x="256.37" y="514.736719">0</text>
     </g>
    </g>
    <g id="ytick_2">
     <g id="line2d_10">
      <g>
       <use style="fill:#262626;stroke:#262626;stroke-width:0.8;" x="259.87" xlink:href="#m2ec2f1793a" y="431.52"/>
      </g>
     </g>
     <g id="text_11">
      <text style="fill:#262626;font-family:Arial;font-size:30px;font-stretch:normal;font-style:normal;font-weight:normal;text-anchor:end;" transform="rotate(-0, 256.37, 442.256719)" x="256.37" y="442.256719">5</text>
     </g>
    </g>
    <g id="ytick_3">
     <g id="line2d_11">
      <g>
       <use style="fill:#262626;stroke:#262626;stroke-width:0.8;" x="259.87" xlink:href="#m2ec2f1793a" y="359.04"/>
      </g>
     </g>
     <g id="text_12">
      <text style="fill:#262626;font-family:Arial;font-size:30px;font-stretch:normal;font-style:normal;font-weight:normal;text-anchor:end;" transform="rotate(-0, 256.37, 369.776719)" x="256.37" y="369.776719">10</text>
     </g>
    </g>
    <g id="ytick_4">
     <g id="line2d_12">
      <g>
       <use style="fill:#262626;stroke:#262626;stroke-width:0.8;" x="259.87" xlink:href="#m2ec2f1793a" y="286.56"/>
      </g>
     </g>
     <g id="text_13">
      <text style="fill:#262626;font-family:Arial;font-size:30px;font-stretch:normal;font-style:normal;font-weight:normal;text-anchor:end;" transform="rotate(-0, 256.37, 297.296719)" x="256.37" y="297.296719">15</text>
     </g>
    </g>
    <g id="ytick_5">
     <g id="line2d_13">
      <g>
       <use style="fill:#262626;stroke:#262626;stroke-width:0.8;" x="259.87" xlink:href="#m2ec2f1793a" y="214.08"/>
      </g>
     </g>
     <g id="text_14">
      <text style="fill:#262626;font-family:Arial;font-size:30px;font-stretch:normal;font-style:normal;font-weight:normal;text-anchor:end;" transform="rotate(-0, 256.37, 224.816719)" x="256.37" y="224.816719">20</text>
     </g>
    </g>
    <g id="ytick_6">
     <g id="line2d_14">
      <g>
       <use style="fill:#262626;stroke:#262626;stroke-width:0.8;" x="259.87" xlink:href="#m2ec2f1793a" y="141.6"/>
      </g>
     </g>
     <g id="text_15">
      <text style="fill:#262626;font-family:Arial;font-size:30px;font-stretch:normal;font-style:normal;font-weight:normal;text-anchor:end;" transform="rotate(-0, 256.37, 152.336719)" x="256.37" y="152.336719">25</text>
     </g>
    </g>
    <g id="ytick_7">
     <g id="line2d_15">
      <g>
       <use style="fill:#262626;stroke:#262626;stroke-width:0.8;" x="259.87" xlink:href="#m2ec2f1793a" y="69.12"/>
      </g>
     </g>
     <g id="text_16">
      <text style="fill:#262626;font-family:Arial;font-size:30px;font-stretch:normal;font-style:normal;font-weight:normal;text-anchor:end;" transform="rotate(-0, 256.37, 79.856719)" x="256.37" y="79.856719">30</text>
     </g>
    </g>
    <g id="text_17">
     <text style="fill:#262626;font-family:Arial;font-size:30px;font-stretch:normal;font-style:normal;font-weight:normal;text-anchor:middle;" transform="rotate(-90, 212.690313, 286.56)" x="212.690313" y="286.56">Intensity (AU)</text>
    </g>
   </g>
   <g id="line2d_16">
    <path clip-path="url(#p8e2f67e6fc)" d="M 264.87 483.299744 
L 266.544569 446.806162 
L 267.102759 439.258238 
L 267.660948 437.107331 
L 268.219138 440.401573 
L 269.335517 453.702124 
L 269.893707 457.002628 
L 270.451897 454.347386 
L 271.010086 444.459913 
L 271.568276 427.584585 
L 272.684655 379.1815 
L 273.801035 330.545915 
L 274.359224 314.136219 
L 274.917414 303.257752 
L 277.150173 270.733713 
L 277.708362 267.848881 
L 278.266552 272.989838 
L 278.824742 288.112928 
L 279.382931 312.470491 
L 281.0575 399.556457 
L 281.61569 420.373557 
L 282.17388 434.265366 
L 282.732069 441.416691 
L 283.290259 443.426402 
L 284.406638 442.41864 
L 285.523018 443.128963 
L 286.081207 441.62348 
L 286.639397 436.925516 
L 288.313966 412.109586 
L 288.872156 410.624293 
L 289.430345 417.344522 
L 289.988535 431.149695 
L 291.104914 462.653926 
L 291.663104 470.371731 
L 292.221294 468.865648 
L 292.779483 458.560806 
L 293.895863 421.742441 
L 295.012242 385.564781 
L 295.570432 375.629197 
L 296.128621 373.935852 
L 296.686811 380.474273 
L 297.80319 408.451248 
L 298.36138 421.630156 
L 298.91957 428.313071 
L 299.477759 425.727543 
L 300.035949 414.497922 
L 301.152328 384.607307 
L 301.710518 376.556363 
L 302.268708 377.649096 
L 302.826897 388.37696 
L 303.385087 406.689199 
L 305.059656 473.303724 
L 305.617846 489.113665 
L 306.176035 497.508687 
L 306.734225 497.532448 
L 307.292415 489.707182 
L 308.408794 459.713644 
L 308.966984 444.108544 
L 309.525173 432.004407 
L 310.083363 425.354733 
L 310.641553 424.914779 
L 311.199742 429.912945 
L 312.316122 448.708651 
L 312.874311 457.765971 
L 313.432501 463.361824 
L 313.990691 465.013357 
L 314.54888 464.722675 
L 315.10707 465.267796 
L 315.66526 468.095447 
L 316.223449 472.988538 
L 317.898018 491.632346 
L 318.456208 495.871839 
L 319.014398 497.914298 
L 319.572587 497.307082 
L 320.130777 493.309046 
L 320.688967 485.474961 
L 322.363536 453.209177 
L 322.921725 446.781508 
L 323.479915 443.467652 
L 324.596294 439.649577 
L 325.154484 436.009885 
L 325.712674 430.443211 
L 326.829053 416.935582 
L 327.387243 411.438632 
L 327.945432 407.576264 
L 328.503622 405.252432 
L 329.061812 404.442303 
L 329.620001 405.42728 
L 330.178191 408.26155 
L 331.85276 420.387744 
L 332.41095 425.398162 
L 332.969139 432.160895 
L 334.085519 450.956174 
L 335.201898 472.439621 
L 335.760088 480.41208 
L 336.318277 483.939135 
L 336.876467 482.026148 
L 337.434657 474.837776 
L 339.109226 441.937358 
L 339.667415 437.046224 
L 340.225605 437.516644 
L 341.341984 445.78349 
L 341.900174 446.412178 
L 342.458364 440.253171 
L 343.016553 426.247491 
L 344.691122 366.340947 
L 345.249312 354.582219 
L 345.807502 351.373092 
L 346.365691 356.824905 
L 346.923881 369.65492 
L 348.04026 407.700341 
L 349.15664 443.951228 
L 349.714829 456.119683 
L 350.273019 462.130825 
L 350.831209 460.723842 
L 351.389398 451.654699 
L 351.947588 436.385151 
L 353.063967 399.637632 
L 353.622157 384.799765 
L 354.180347 375.84689 
L 354.738536 374.082807 
L 355.296726 379.393184 
L 355.854916 390.506355 
L 357.529485 434.816166 
L 358.087674 442.41919 
L 358.645864 441.945214 
L 359.204054 433.155926 
L 359.762243 417.744346 
L 360.878623 382.111151 
L 361.436812 370.536529 
L 361.995002 366.874288 
L 362.553192 371.606351 
L 363.111381 383.596171 
L 364.227761 419.988682 
L 365.34414 454.789449 
L 365.90233 465.424352 
L 366.460519 470.136857 
L 367.018709 469.161053 
L 367.576899 463.056803 
L 368.135088 452.288715 
L 368.693278 437.339522 
L 370.367847 383.518215 
L 370.926037 371.519803 
L 371.484226 366.363706 
L 372.042416 369.031005 
L 372.600606 379.517967 
L 373.158795 396.808466 
L 374.833364 458.555915 
L 375.391554 468.002328 
L 375.949744 468.10794 
L 376.507933 459.647656 
L 377.066123 444.394343 
L 378.740692 385.6789 
L 379.298882 372.254392 
L 379.857071 366.265445 
L 380.415261 368.028313 
L 380.973451 375.999811 
L 381.53164 388.120847 
L 382.64802 419.992337 
L 384.322589 475.154938 
L 384.880778 489.175021 
L 385.438968 498.498179 
L 385.997158 503.371559 
L 386.555347 504.712775 
L 387.113537 503.417251 
L 387.671727 500.215945 
L 388.229916 495.612805 
L 388.788106 489.662998 
L 389.346296 482.004712 
L 389.904485 472.189829 
L 390.462675 459.837567 
L 391.579054 427.256291 
L 392.695434 393.783674 
L 393.253623 383.454325 
L 393.811813 379.678021 
L 394.370003 382.491139 
L 394.928192 391.19708 
L 395.486382 404.736365 
L 396.602761 441.157296 
L 397.719141 478.408018 
L 398.27733 492.072597 
L 398.83552 500.997321 
L 399.39371 505.797605 
L 399.951899 507.782434 
L 400.510089 508.138199 
L 401.068279 507.491968 
L 401.626468 505.817043 
L 402.184658 502.506033 
L 402.742848 496.586366 
L 403.301037 487.218762 
L 403.859227 474.311386 
L 406.091986 414.217309 
L 406.650175 404.846234 
L 408.882934 376.746063 
L 409.441124 372.452255 
L 409.999313 372.806313 
L 410.557503 379.574197 
L 411.115693 392.98721 
L 412.790262 448.560665 
L 413.348451 461.6645 
L 413.906641 469.994948 
L 414.464831 474.739602 
L 415.02302 477.393998 
L 416.697589 482.588385 
L 417.813969 487.559419 
L 418.372158 489.376493 
L 419.488538 492.132465 
L 420.046727 494.369137 
L 421.721296 502.824229 
L 422.279486 504.475037 
L 422.837676 504.836205 
L 423.395865 503.049978 
L 423.954055 497.909667 
L 424.512245 488.513491 
L 426.186814 448.226097 
L 426.745003 440.740982 
L 427.303193 439.443158 
L 427.861383 444.526551 
L 428.419572 455.247694 
L 429.535952 483.47465 
L 430.094141 493.898285 
L 430.652331 498.012142 
L 431.210521 494.464909 
L 431.76871 483.289172 
L 432.3269 465.882467 
L 434.001469 404.101927 
L 434.559659 390.171039 
L 435.117848 381.910259 
L 435.676038 378.484769 
L 436.234228 378.53056 
L 436.792417 380.648795 
L 437.908797 385.697317 
L 438.466986 387.248778 
L 439.025176 389.132235 
L 439.583366 393.375699 
L 440.141555 401.774081 
L 440.699745 414.715981 
L 442.374314 460.61752 
L 442.932504 469.035372 
L 443.490693 472.645552 
L 444.048883 473.228795 
L 444.607073 472.824021 
L 445.165262 473.095646 
L 445.723452 475.122261 
L 446.839831 481.965781 
L 447.398021 482.468589 
L 447.956211 478.387473 
L 448.5144 469.013002 
L 449.63078 437.92833 
L 450.188969 421.763596 
L 450.747159 409.407968 
L 451.305349 402.025302 
L 451.863538 399.236559 
L 452.421728 400.260129 
L 452.979918 404.594568 
L 453.538107 412.347836 
L 454.096297 423.766313 
L 455.770866 465.978453 
L 456.329056 475.484643 
L 456.887245 481.082885 
L 457.445435 483.043099 
L 458.003625 481.863844 
L 458.561814 478.163427 
L 459.678194 466.240055 
L 460.236383 460.410262 
L 460.794573 456.441866 
L 461.352763 454.540081 
L 462.469142 452.794018 
L 463.027332 450.738476 
L 463.585521 446.633907 
L 464.143711 439.642501 
L 465.81828 411.770323 
L 466.37647 408.061122 
L 466.934659 408.684826 
L 467.492849 411.70658 
L 468.051039 413.823557 
L 468.609228 411.296497 
L 469.167418 401.410534 
L 469.725608 384.01042 
L 470.841987 340.624795 
L 471.400177 325.153762 
L 471.958366 319.364318 
L 472.516556 324.237368 
L 473.074746 337.949029 
L 474.191125 375.278235 
L 474.749315 390.025164 
L 475.307504 399.080162 
L 475.865694 403.778505 
L 476.423884 407.359201 
L 476.982073 412.680591 
L 477.540263 420.754436 
L 479.214832 450.617298 
L 479.773022 457.902296 
L 480.331211 462.368234 
L 480.889401 463.091901 
L 481.447591 458.982267 
L 482.00578 449.225138 
L 482.56397 433.707041 
L 483.680349 389.926393 
L 484.796729 347.151641 
L 485.354918 332.722387 
L 485.913108 323.808305 
L 486.471298 319.636988 
L 487.029487 319.296087 
L 487.587677 322.325776 
L 488.145867 328.567534 
L 489.262246 348.159467 
L 490.378625 373.943814 
L 491.495005 408.538016 
L 492.611384 443.806082 
L 493.169574 457.708332 
L 493.727763 468.553663 
L 494.285953 476.57426 
L 494.844143 481.764322 
L 495.402332 483.986617 
L 495.960522 483.696473 
L 497.076901 480.670686 
L 497.635091 480.333643 
L 498.193281 481.499759 
L 498.75147 483.999572 
L 499.86785 491.483915 
L 500.984229 498.668334 
L 501.542419 500.606826 
L 502.100608 501.067515 
L 502.658798 499.881039 
L 503.216988 496.619636 
L 503.775177 490.397323 
L 504.333367 479.885567 
L 504.891557 463.99149 
L 506.566126 399.467425 
L 507.124315 385.92766 
L 507.682505 382.916595 
L 508.240695 391.115731 
L 508.798884 408.328393 
L 509.915264 451.604027 
L 510.473453 468.404889 
L 511.031643 479.1444 
L 511.589833 484.945988 
L 512.148022 488.011443 
L 512.706212 490.019991 
L 513.264402 491.52745 
L 513.822591 492.255886 
L 514.380781 491.72466 
L 514.938971 489.897326 
L 516.05535 484.566504 
L 516.61354 481.429873 
L 518.288109 469.521089 
L 518.846298 467.915214 
L 519.404488 468.983524 
L 519.962678 472.263894 
L 521.637247 484.729721 
L 522.195436 487.088039 
L 522.753626 487.658238 
L 523.311816 486.289637 
L 524.428195 480.679435 
L 524.986385 478.772554 
L 525.544574 478.152756 
L 526.102764 477.967279 
L 526.660954 476.545577 
L 527.219143 472.086817 
L 527.777333 463.418013 
L 530.010092 414.139182 
L 530.568281 411.124554 
L 531.126471 414.881095 
L 531.684661 425.257579 
L 533.35923 470.065729 
L 533.917419 476.11024 
L 534.475609 474.157853 
L 536.150178 451.721331 
L 536.708368 452.936443 
L 537.266557 460.759174 
L 538.941126 496.01976 
L 539.499316 502.99325 
L 540.057506 506.040739 
L 540.615695 505.313732 
L 541.173885 500.882414 
L 541.732075 492.657474 
L 542.290264 480.778112 
L 543.964833 436.621527 
L 544.523023 426.542467 
L 545.081213 422.498574 
L 545.639402 425.42805 
L 546.197592 434.758532 
L 547.872161 476.062379 
L 548.430351 483.393111 
L 548.98854 484.593372 
L 549.54673 480.652998 
L 550.663109 467.28894 
L 551.221299 463.049044 
L 551.779489 462.211111 
L 552.337678 464.258576 
L 554.012247 474.374376 
L 554.570437 474.72858 
L 555.128627 470.87712 
L 555.686816 461.340047 
L 556.245006 445.517334 
L 557.361385 399.398556 
L 558.477765 353.434405 
L 559.035954 338.103335 
L 559.594144 329.853753 
L 560.152334 328.622862 
L 560.710523 333.802611 
L 561.268713 344.652626 
L 561.826903 360.429487 
L 562.943282 403.016838 
L 564.059661 443.237007 
L 564.617851 453.708719 
L 565.176041 455.902094 
L 565.73423 451.457609 
L 566.85061 436.201268 
L 567.408799 431.785221 
L 567.966989 431.365539 
L 569.083368 436.826408 
L 569.641558 437.939409 
L 570.199748 436.25973 
L 570.757937 432.225376 
L 571.316127 426.367659 
L 571.874317 418.378898 
L 572.432506 407.636701 
L 574.107075 367.343429 
L 574.665265 357.433361 
L 575.223455 351.365101 
L 575.781644 349.721017 
L 576.339834 353.492728 
L 576.898024 363.981787 
L 577.456213 381.853301 
L 579.688972 473.743398 
L 580.247162 478.877903 
L 580.805351 472.529743 
L 582.47992 429.224825 
L 583.03811 426.504373 
L 583.5963 434.224121 
L 584.712679 468.13926 
L 585.270869 484.613316 
L 585.829058 496.206812 
L 586.387248 502.384432 
L 586.945438 504.247735 
L 587.503627 503.530281 
L 588.061817 501.941564 
L 588.620007 500.736933 
L 589.178196 500.47902 
L 589.736386 501.113774 
L 590.852765 503.414488 
L 591.410955 504.138437 
L 591.969145 503.897854 
L 592.527334 502.045403 
L 593.085524 497.76405 
L 593.643714 490.341635 
L 594.760093 468.0007 
L 595.318283 456.737898 
L 595.876472 447.990234 
L 596.434662 442.730935 
L 596.992852 441.216662 
L 597.551041 443.281716 
L 598.109231 448.565851 
L 598.667421 456.685932 
L 600.34199 486.486142 
L 600.900179 492.19916 
L 601.458369 494.175924 
L 602.016559 492.631614 
L 602.574748 488.096068 
L 603.691128 473.065649 
L 604.249317 465.276039 
L 604.807507 459.996655 
L 605.365697 458.817524 
L 605.923886 461.767981 
L 607.598455 477.679352 
L 608.156645 480.92743 
L 608.714835 482.946264 
L 609.273024 483.516371 
L 609.831214 481.960361 
L 610.389404 477.912576 
L 611.505783 466.365149 
L 612.063973 462.746445 
L 612.622162 462.614159 
L 613.180352 465.798758 
L 614.296731 475.689327 
L 614.854921 479.418776 
L 615.413111 480.77132 
L 615.9713 478.218788 
L 616.52949 470.625902 
L 618.204059 432.556223 
L 618.762249 426.531637 
L 619.320438 428.401448 
L 619.878628 437.953063 
L 622.111387 494.725782 
L 622.669576 501.187726 
L 623.227766 504.55659 
L 623.785956 506.012373 
L 624.344145 506.416336 
L 624.902335 506.270262 
L 625.460525 505.654362 
L 626.018714 504.014447 
L 626.576904 499.884211 
L 627.135094 491.047707 
L 627.693283 475.569297 
L 628.251473 453.101132 
L 629.926042 369.344393 
L 630.484232 349.611326 
L 631.042421 339.597686 
L 631.600611 340.023223 
L 632.158801 349.539296 
L 633.27518 380.619816 
L 633.83337 390.947784 
L 634.391559 391.740015 
L 634.949749 383.304316 
L 636.066128 357.801894 
L 636.624318 351.033176 
L 637.182508 351.380799 
L 637.740697 358.047571 
L 638.298887 369.229361 
L 639.415266 400.048898 
L 641.648025 471.420412 
L 642.206215 482.843668 
L 642.764404 490.066021 
L 643.322594 493.688195 
L 643.880784 494.643491 
L 644.438973 493.956074 
L 645.555353 490.806187 
L 646.671732 487.730825 
L 647.229922 486.989884 
L 647.788111 486.786457 
L 648.346301 486.427234 
L 648.904491 484.418435 
L 649.46268 478.934308 
L 650.02087 469.116241 
L 651.695439 429.767883 
L 652.253629 420.870596 
L 652.811818 415.853448 
L 653.370008 414.615025 
L 653.928198 417.535076 
L 654.486387 425.781667 
L 655.044577 439.855184 
L 656.160956 474.982684 
L 656.719146 486.603811 
L 657.277336 489.544951 
L 657.835525 483.427779 
L 658.393715 470.088298 
L 660.068284 419.554111 
L 660.626474 409.886773 
L 661.184663 408.045395 
L 661.742853 415.052698 
L 662.301043 429.684067 
L 663.417422 466.600355 
L 663.975612 479.558094 
L 664.533801 484.259255 
L 665.091991 480.218981 
L 666.76656 449.62451 
L 667.32475 447.974842 
L 667.882939 453.688227 
L 668.999319 478.16346 
L 669.557508 490.154424 
L 670.115698 498.85206 
L 670.673888 503.940241 
L 671.232077 506.113082 
L 671.790267 506.302446 
L 672.348457 505.242435 
L 672.906646 503.371251 
L 674.023026 498.514611 
L 674.581215 496.775184 
L 675.139405 496.515802 
L 675.697595 497.681429 
L 676.255785 499.31436 
L 676.813974 500.303028 
L 677.372164 500.052568 
L 677.930354 498.627806 
L 679.046733 493.977103 
L 679.604923 490.996804 
L 681.837681 476.215827 
L 682.395871 473.757867 
L 682.954061 472.768276 
L 683.51225 473.840828 
L 684.07044 476.970268 
L 685.745009 489.236061 
L 686.303199 491.577891 
L 686.861388 492.612161 
L 687.419578 492.679541 
L 687.977768 492.426891 
L 688.535957 492.477204 
L 689.094147 493.177527 
L 690.210526 496.026999 
L 690.768716 497.503515 
L 691.326906 498.563764 
L 691.885095 498.800123 
L 692.443285 497.729872 
L 693.001475 494.645019 
L 693.559664 488.440891 
L 694.117854 477.909629 
L 694.676044 462.560916 
L 696.350613 406.0737 
L 696.908802 395.655048 
L 697.466992 394.796562 
L 698.025182 403.62059 
L 699.141561 435.17926 
L 699.699751 446.324311 
L 700.25794 448.374313 
L 700.81613 440.697211 
L 702.490699 398.834655 
L 703.048889 394.289924 
L 703.607078 397.933818 
L 704.165268 408.748462 
L 705.839837 453.36624 
L 706.398027 458.530356 
L 706.956216 453.701031 
L 707.514406 438.495851 
L 708.072596 414.519063 
L 709.747165 332.690818 
L 710.305354 318.751842 
L 710.863544 315.904979 
L 711.421734 322.630049 
L 712.538113 349.500189 
L 714.212682 392.992 
L 715.329061 425.380506 
L 715.887251 434.076114 
L 716.445441 433.309711 
L 717.00363 423.366513 
L 718.678199 377.660882 
L 719.236389 370.186668 
L 719.794579 369.785729 
L 720.352768 376.513077 
L 720.910958 389.502247 
L 722.027337 426.934701 
L 723.143717 462.045197 
L 723.701906 473.111066 
L 724.260096 479.174469 
L 724.818286 481.087348 
L 725.376475 479.977715 
L 726.492855 474.335155 
L 727.051044 472.879074 
L 727.609234 473.377593 
L 728.167424 475.676991 
L 728.725613 479.363965 
L 730.400182 492.335168 
L 730.958372 494.728979 
L 731.516562 495.991623 
L 732.632941 497.737401 
L 733.74932 499.781283 
L 734.30751 500.564135 
L 734.8657 500.925985 
L 735.423889 500.825109 
L 735.982079 500.042223 
L 736.540269 497.688455 
L 737.098458 492.289819 
L 737.656648 482.437667 
L 738.214838 467.30235 
L 738.773027 446.867266 
L 741.563976 327.017445 
L 742.122165 314.185946 
L 742.680355 306.190995 
L 743.238545 301.264058 
L 743.796734 297.750452 
L 744.354924 294.959211 
L 744.913114 293.102692 
L 745.471303 292.880682 
L 746.029493 295.375365 
L 746.587683 302.037779 
L 747.145872 314.470704 
L 747.704062 333.852097 
L 748.820441 389.440124 
L 749.936821 441.419806 
L 750.49501 457.250504 
L 751.0532 466.121559 
L 751.61139 470.282349 
L 752.727769 474.998689 
L 754.960528 488.11657 
L 756.076907 494.235533 
L 757.193286 500.946809 
L 757.751476 502.967093 
L 758.309666 503.436749 
L 758.867855 502.056334 
L 759.426045 498.568844 
L 759.984235 492.661158 
L 760.542424 483.801783 
L 761.100614 471.385689 
L 762.216993 436.514892 
L 763.333373 401.035049 
L 763.891562 389.200571 
L 764.449752 382.65979 
L 765.007942 381.539997 
L 765.566131 385.818363 
L 766.124321 395.029552 
L 767.2407 423.590921 
L 768.35708 455.490143 
L 768.915269 468.166868 
L 769.473459 476.744328 
L 770.031649 481.293659 
L 770.589838 483.026523 
L 771.706218 483.972423 
L 772.822597 485.511414 
L 773.380787 485.801455 
L 775.613545 485.269721 
L 777.288114 485.24364 
L 777.846304 485.361165 
L 778.404494 486.021024 
L 778.962683 487.499809 
L 780.637252 493.395448 
L 781.195442 494.647201 
L 783.428201 498.401319 
L 785.10277 502.578041 
L 785.660959 502.208424 
L 786.219149 499.421274 
L 786.777339 493.722503 
L 787.335528 485.408965 
L 788.451908 463.760475 
L 789.010097 450.193689 
L 790.126477 413.692651 
L 791.242856 371.546782 
L 791.801046 354.67689 
L 792.359235 343.178829 
L 792.917425 337.470724 
L 793.475615 336.884211 
L 794.033804 339.94964 
L 794.591994 344.993919 
L 795.150184 351.122946 
L 795.708373 358.917095 
L 796.266563 370.082867 
L 796.824753 386.30783 
L 797.941132 433.578297 
L 799.057511 479.828733 
L 799.615701 493.322603 
L 800.173891 498.993165 
L 800.73208 497.823561 
L 801.29027 491.314568 
L 802.964839 461.569607 
L 803.523029 457.187793 
L 804.081218 458.415055 
L 804.639408 464.421091 
L 806.313977 488.79433 
L 806.872167 494.321026 
L 807.430356 497.686802 
L 807.988546 498.276296 
L 808.546736 495.32339 
L 809.104925 487.758049 
L 809.663115 474.596189 
L 810.779494 433.969329 
L 811.895874 393.556767 
L 812.454063 382.944964 
L 813.012253 381.861671 
L 813.570443 390.183961 
L 814.128632 406.083066 
L 815.803201 463.756124 
L 816.361391 475.770822 
L 816.919581 482.974762 
L 817.47777 486.796049 
L 818.03596 488.894275 
L 819.152339 491.629841 
L 819.710529 492.624232 
L 820.268719 493.312727 
L 820.826908 493.738228 
L 821.385098 493.944997 
L 821.943288 493.830766 
L 822.501477 493.081351 
L 823.059667 491.238178 
L 823.617857 487.921489 
L 824.176046 483.110563 
L 825.850615 466.305201 
L 826.408805 463.094817 
L 826.966995 461.891252 
L 827.525184 461.927228 
L 828.083374 461.676494 
L 828.641564 459.095524 
L 829.199753 451.992101 
L 829.757943 439.248304 
L 831.432512 390.364744 
L 831.990702 384.16338 
L 832.548891 387.834812 
L 833.107081 400.803766 
L 834.78165 459.717508 
L 835.33984 473.295284 
L 835.898029 480.797352 
L 836.456219 481.876331 
L 837.014409 476.410403 
L 837.572598 464.696625 
L 838.130788 447.679162 
L 840.363547 365.786932 
L 841.479926 337.899699 
L 842.038116 328.248307 
L 842.596305 321.704003 
L 843.154495 318.655463 
L 843.712685 319.429278 
L 844.270874 324.549114 
L 844.829064 334.710563 
L 845.387254 350.246865 
L 846.503633 394.818239 
L 847.620012 440.782949 
L 848.178202 454.074669 
L 848.736392 456.759048 
L 849.294581 449.001558 
L 849.852771 433.528929 
L 850.96915 395.847263 
L 851.52734 380.871152 
L 852.08553 371.004836 
L 852.643719 366.63996 
L 853.201909 367.819723 
L 853.760099 374.535828 
L 854.318288 386.575283 
L 854.876478 403.278808 
L 857.109237 482.073427 
L 857.667426 494.461976 
L 858.225616 502.025868 
L 858.783806 505.665122 
L 859.341995 506.718128 
L 859.900185 506.419403 
L 861.016564 504.8795 
L 861.574754 504.32689 
L 862.132944 504.010552 
L 863.249323 503.855146 
L 867.71484 504.006027 
L 872.180358 504.04532 
L 874.413116 504.482542 
L 874.971306 504.351118 
L 875.529496 503.803262 
L 876.087685 502.604708 
L 876.645875 500.5392 
L 877.204065 497.23522 
L 877.762254 491.821548 
L 878.320444 483.096753 
L 878.878634 470.323283 
L 879.995013 434.342821 
L 881.111392 394.82408 
L 881.669582 378.640447 
L 882.227772 366.503999 
L 882.785961 358.805998 
L 883.344151 355.529711 
L 883.902341 356.181881 
L 884.46053 359.942 
L 885.01872 366.448836 
L 885.57691 376.313843 
L 886.135099 390.474214 
L 887.251479 430.078359 
L 888.367858 470.123384 
L 888.926048 484.507267 
L 889.484237 493.763533 
L 890.042427 498.360858 
L 890.600617 499.631001 
L 891.158806 499.237313 
L 891.716996 498.588373 
L 892.275186 498.434968 
L 892.833375 498.864092 
L 893.391565 499.478587 
L 893.949755 499.637762 
L 894.507944 498.861365 
L 895.066134 497.183683 
L 896.182513 493.13016 
L 896.740703 491.740743 
L 897.298893 491.023721 
L 897.857082 490.517103 
L 898.415272 489.374732 
L 900.089841 482.952865 
L 900.648031 482.608338 
L 901.20622 483.566221 
L 901.76441 485.478004 
L 902.880789 490.989948 
L 903.997169 496.142385 
L 904.555358 497.79625 
L 905.113548 498.697164 
L 905.671738 498.29869 
L 906.229927 495.510384 
L 906.788117 489.150233 
L 907.346307 478.45189 
L 907.904496 463.363894 
L 910.695445 373.762516 
L 911.253634 363.788967 
L 911.811824 358.636959 
L 912.370014 358.781261 
L 912.928203 364.068259 
L 913.486393 374.016448 
L 914.044583 388.031459 
L 916.277341 457.478975 
L 916.835531 469.448154 
L 917.393721 477.509328 
L 917.95191 482.453326 
L 918.5101 485.474541 
L 919.626479 489.623036 
L 920.184669 491.501869 
L 920.742859 492.9649 
L 921.301048 493.609239 
L 921.859238 493.370876 
L 924.091997 490.557902 
L 925.208376 488.498494 
L 925.766566 488.202188 
L 926.324755 488.802336 
L 926.882945 489.891355 
L 927.441135 490.677738 
L 927.999324 490.551784 
L 928.557514 489.532724 
L 929.115704 488.265632 
L 929.673893 487.458171 
L 930.232083 487.305288 
L 930.790273 487.626394 
L 931.906652 488.765963 
L 932.464842 488.944812 
L 933.581221 488.76096 
L 934.139411 489.21877 
L 935.81398 492.022398 
L 936.930359 493.282712 
L 937.488549 493.75169 
L 938.046738 493.646454 
L 938.604928 492.851234 
L 939.163118 491.856822 
L 939.721307 491.250806 
L 940.279497 491.049242 
L 940.837687 490.437632 
L 941.395876 487.861374 
L 941.954066 481.468242 
L 942.512256 469.925025 
L 943.070445 453.223863 
L 944.745014 393.191352 
L 945.303204 378.475174 
L 945.861394 368.124466 
L 946.419583 361.294055 
L 946.977773 356.835199 
L 947.535963 353.956857 
L 948.094152 352.59659 
L 948.652342 353.234591 
L 949.210532 356.364195 
L 949.768721 362.246185 
L 950.326911 370.960931 
L 950.885101 382.467634 
L 952.00148 412.882278 
L 953.676049 462.110821 
L 954.234239 473.551725 
L 954.792428 480.962817 
L 955.350618 484.544891 
L 955.908808 485.218636 
L 956.466997 484.313536 
L 957.025187 483.145764 
L 957.583377 482.661381 
L 958.141566 483.184627 
L 958.699756 484.473654 
L 959.816135 488.039617 
L 962.048894 495.817425 
L 963.165273 497.844056 
L 963.723463 498.568884 
L 964.281653 498.979846 
L 964.839842 498.848403 
L 965.398032 498.108271 
L 965.956222 497.088151 
L 966.514411 496.416338 
L 967.072601 496.483379 
L 967.630791 496.947606 
L 968.18898 496.882756 
L 968.74717 495.333994 
L 969.30536 491.570833 
L 969.863549 485.182819 
L 971.538118 458.327554 
L 972.096308 452.514705 
L 972.654498 450.565861 
L 973.212687 452.505045 
L 973.770877 457.341199 
L 975.445446 476.321577 
L 976.003636 480.538714 
L 976.561825 481.994863 
L 977.120015 479.929254 
L 977.678205 474.019039 
L 978.236394 464.45259 
L 979.352774 437.40478 
L 982.143722 362.348512 
L 982.701912 351.888915 
L 983.260101 345.319485 
L 983.818291 343.801195 
L 984.376481 348.037848 
L 984.93467 358.158894 
L 985.49286 373.781215 
L 986.609239 416.601672 
L 987.725619 460.907074 
L 988.283808 478.792628 
L 988.841998 492.145976 
L 989.400188 500.581684 
L 989.958377 504.804566 
L 990.516567 506.249545 
L 991.074757 506.376906 
L 991.632946 506.213512 
L 992.191136 506.242329 
L 992.749326 506.465089 
L 993.307515 506.456428 
L 993.865705 505.376636 
L 994.423895 502.047231 
L 994.982084 495.245319 
L 995.540274 484.254484 
L 996.656653 451.832972 
L 997.773033 417.928854 
L 998.331222 406.311406 
L 998.889412 400.493777 
L 999.447602 401.046548 
L 1000.005791 407.702625 
L 1000.563981 419.451597 
L 1002.79674 480.966025 
L 1003.354929 491.718825 
L 1003.913119 499.052243 
L 1004.471309 503.207093 
L 1005.029498 504.949699 
L 1005.587688 505.270545 
L 1006.704067 504.601168 
L 1007.820447 504.05099 
L 1008.936826 503.872199 
L 1010.053205 503.88523 
L 1011.169585 504.133343 
L 1012.285964 504.816077 
L 1012.844154 505.240482 
L 1013.402343 505.457621 
L 1013.960533 505.033463 
L 1014.518723 503.333457 
L 1015.076912 499.602126 
L 1015.635102 493.04879 
L 1016.193292 482.941462 
L 1016.751481 468.946213 
L 1018.98424 398.222864 
L 1019.54243 386.335047 
L 1020.100619 378.522972 
L 1020.658809 373.877465 
L 1021.216999 371.396006 
L 1021.775188 370.807546 
L 1022.333378 372.740752 
L 1022.891568 378.055773 
L 1023.449757 387.086613 
L 1024.007947 399.641367 
L 1025.124326 433.335326 
L 1026.240706 469.064261 
L 1026.798895 482.861808 
L 1027.357085 492.859945 
L 1027.915275 499.438217 
L 1028.473464 503.25091 
L 1029.031654 504.925727 
L 1029.589844 505.025299 
L 1030.148033 504.022676 
L 1030.706223 502.270716 
L 1032.380792 495.380997 
L 1032.938982 493.81178 
L 1033.497171 493.1705 
L 1034.055361 493.405847 
L 1035.17174 495.131509 
L 1036.28812 496.93368 
L 1036.846309 497.59299 
L 1037.962689 498.439452 
L 1038.520878 498.595466 
L 1039.079068 498.14651 
L 1039.637258 496.725528 
L 1041.311827 489.943989 
L 1041.870016 489.605212 
L 1042.428206 491.167386 
L 1044.102775 499.993361 
L 1044.660965 500.897209 
L 1045.219154 499.52429 
L 1045.777344 495.58943 
L 1046.335534 489.300643 
L 1046.893723 481.094191 
L 1047.451913 471.096175 
L 1048.010103 458.959526 
L 1049.126482 427.817363 
L 1050.242861 394.515869 
L 1051.359241 369.416074 
L 1051.91743 360.565558 
L 1052.47562 354.033287 
L 1053.03381 350.245441 
L 1053.591999 350.149012 
L 1054.150189 354.873619 
L 1054.708379 365.362169 
L 1055.266568 381.963605 
L 1056.382948 428.280663 
L 1057.499327 471.136571 
L 1058.057517 484.116501 
L 1058.615706 491.019166 
L 1059.173896 493.577817 
L 1059.732086 493.783663 
L 1060.848465 492.372855 
L 1061.406655 492.155286 
L 1061.964844 492.683259 
L 1062.523034 493.913025 
L 1064.197603 498.873727 
L 1064.755793 499.672105 
L 1065.872172 500.329923 
L 1066.430362 501.034769 
L 1067.546741 502.914741 
L 1068.104931 503.579123 
L 1068.66312 503.956298 
L 1069.22131 504.108004 
L 1072.012258 504.20286 
L 1073.686827 504.998239 
L 1074.245017 504.97804 
L 1074.803207 504.282587 
L 1075.361396 502.40631 
L 1075.919586 498.897932 
L 1077.035965 487.61891 
L 1077.594155 482.076285 
L 1078.152345 478.595929 
L 1078.710534 478.089649 
L 1079.268724 480.672541 
L 1080.385103 491.540553 
L 1080.943293 496.977511 
L 1081.501483 501.014563 
L 1082.059672 503.477871 
L 1082.617862 504.727771 
L 1083.176052 505.314939 
L 1084.292431 506.208268 
L 1084.850621 506.733551 
L 1085.40881 506.857466 
L 1085.967 505.694791 
L 1086.52519 501.969801 
L 1087.083379 494.333819 
L 1087.641569 482.062515 
L 1088.757948 447.482525 
L 1089.874328 413.873203 
L 1090.432517 401.520105 
L 1090.990707 392.535314 
L 1091.548897 386.427862 
L 1092.107086 382.722324 
L 1092.665276 381.413959 
L 1093.223466 383.006253 
L 1093.781655 387.860936 
L 1094.339845 395.520493 
L 1096.014414 424.263126 
L 1097.130793 446.756754 
L 1098.805362 486.714468 
L 1099.363552 494.815807 
L 1099.921742 499.382708 
L 1100.479931 501.33543 
L 1101.038121 501.672051 
L 1101.596311 501.373886 
L 1102.1545 501.301136 
L 1102.71269 501.850374 
L 1104.387259 504.880207 
L 1104.945449 505.299494 
L 1105.503638 504.841117 
L 1106.061828 502.961168 
L 1106.620018 499.092749 
L 1107.178207 492.958948 
L 1108.852776 468.197282 
L 1109.410966 463.71496 
L 1109.969156 464.336142 
L 1110.527345 470.022564 
L 1112.201914 495.587099 
L 1112.760104 500.832799 
L 1113.318294 503.811231 
L 1113.876483 505.113961 
L 1114.434673 505.465325 
L 1115.551052 505.532536 
L 1116.667432 505.965554 
L 1117.225621 505.703259 
L 1117.783811 504.184967 
L 1118.342001 500.425852 
L 1118.90019 493.3685 
L 1119.45838 482.004014 
L 1120.01657 465.945672 
L 1121.132949 427.363028 
L 1121.691139 412.637176 
L 1122.249328 405.682995 
L 1122.807518 407.946749 
L 1123.365708 418.866688 
L 1125.598466 487.11132 
L 1126.156656 496.89977 
L 1126.714846 502.703442 
L 1127.273035 505.432198 
L 1127.831225 506.201441 
L 1128.389415 506.010696 
L 1129.505794 505.201601 
L 1130.622173 504.891962 
L 1131.180363 504.458734 
L 1131.738553 503.267035 
L 1132.296742 500.840393 
L 1132.854932 496.933338 
L 1133.971311 486.618588 
L 1134.529501 482.802434 
L 1135.087691 481.959614 
L 1135.64588 484.814993 
L 1136.76226 496.769418 
L 1137.320449 500.436324 
L 1137.878639 498.854376 
L 1138.436829 490.23292 
L 1138.995018 474.167821 
L 1141.227777 388.38701 
L 1141.785967 377.241801 
L 1142.344156 371.658935 
L 1142.902346 370.495229 
L 1143.460536 373.279932 
L 1144.018725 380.398722 
L 1144.576915 392.323946 
L 1145.135105 408.822961 
L 1147.367863 487.079961 
L 1147.926053 498.353338 
L 1148.484243 504.530594 
L 1149.042432 506.93741 
L 1149.600622 507.138372 
L 1150.158812 506.374531 
L 1151.275191 504.641127 
L 1151.833381 504.14723 
L 1152.39157 503.903622 
L 1153.50795 503.84441 
L 1156.298898 504.0075 
L 1166.346312 503.956429 
L 1168.020881 503.917823 
L 1168.579071 503.995702 
L 1169.13726 504.187169 
L 1169.69545 504.528652 
L 1170.811829 505.516816 
L 1171.370019 505.752303 
L 1171.928209 505.177399 
L 1172.486398 503.015123 
L 1173.044588 498.42082 
L 1173.602778 490.937993 
L 1175.277347 463.011674 
L 1175.835536 459.315991 
L 1176.393726 460.920866 
L 1176.951916 467.523136 
L 1178.626485 496.151489 
L 1179.184674 501.385478 
L 1179.742864 503.694871 
L 1180.301054 503.919955 
L 1180.859243 502.729714 
L 1181.417433 500.31868 
L 1181.975623 496.653157 
L 1183.092002 485.894219 
L 1183.650192 480.15839 
L 1184.208381 475.961412 
L 1184.766571 474.068094 
L 1185.324761 474.107804 
L 1185.88295 475.219274 
L 1186.99933 478.218393 
L 1187.557519 479.043089 
L 1188.115709 478.714516 
L 1188.673899 476.904328 
L 1189.232088 473.287845 
L 1189.790278 467.449986 
L 1190.348468 459.129432 
L 1190.906657 448.319147 
L 1192.023037 419.013655 
L 1193.139416 380.225092 
L 1194.255795 340.133512 
L 1194.813985 323.800774 
L 1195.372175 312.656239 
L 1195.930364 308.629935 
L 1196.488554 312.206088 
L 1197.046744 321.443766 
L 1198.163123 343.342485 
L 1199.837692 368.836635 
L 1200.395882 380.822211 
L 1201.512261 415.193435 
L 1202.070451 432.29159 
L 1202.62864 444.316879 
L 1203.18683 449.856581 
L 1203.74502 450.115876 
L 1204.303209 447.376948 
L 1205.977778 435.520074 
L 1206.535968 428.914689 
L 1207.094158 417.639684 
L 1207.652347 400.425114 
L 1208.768727 352.81531 
L 1209.885106 308.865378 
L 1210.443296 297.299727 
L 1211.001485 296.158023 
L 1211.559675 305.954774 
L 1212.117865 325.085255 
L 1213.792434 400.277824 
L 1214.350623 418.53397 
L 1214.908813 430.561179 
L 1215.467003 436.837372 
L 1216.025192 438.569986 
L 1216.583382 437.55956 
L 1217.699761 434.172631 
L 1218.257951 433.820647 
L 1218.816141 435.31835 
L 1219.37433 439.022582 
L 1220.49071 450.803921 
L 1221.048899 456.787855 
L 1221.607089 461.45927 
L 1222.165279 464.119205 
L 1222.723468 464.841965 
L 1223.281658 464.693858 
L 1223.839848 465.085744 
L 1224.398037 466.793568 
L 1225.514417 472.182206 
L 1226.072606 473.767529 
L 1226.630796 474.213486 
L 1227.188986 474.154679 
L 1227.747175 473.888274 
L 1228.305365 473.038296 
L 1228.863555 471.19173 
L 1229.979934 465.899616 
L 1230.538124 464.328097 
L 1231.096313 464.525252 
L 1231.654503 466.652171 
L 1232.770882 473.573409 
L 1233.329072 475.886228 
L 1233.887262 476.648597 
L 1234.445451 476.08266 
L 1235.561831 473.554432 
L 1236.12002 472.985789 
L 1236.67821 473.308629 
L 1237.2364 474.59394 
L 1237.794589 476.842419 
L 1238.910969 483.439977 
L 1239.469158 486.872825 
L 1240.027348 489.295627 
L 1240.585538 489.141523 
L 1241.143727 484.044636 
L 1241.701917 471.507208 
L 1242.260107 450.386954 
L 1244.492865 337.001533 
L 1245.051055 320.184038 
L 1245.609245 312.349243 
L 1246.167434 313.779739 
L 1246.725624 323.317775 
L 1247.842003 355.934678 
L 1249.516572 406.624399 
L 1250.632952 436.858293 
L 1251.191141 449.411689 
L 1251.749331 459.378316 
L 1252.86571 473.200467 
L 1253.98209 483.128058 
L 1254.540279 486.944146 
L 1255.098469 489.663059 
L 1255.656659 491.280699 
L 1256.214848 492.017644 
L 1256.773038 491.982153 
L 1257.889417 490.438591 
L 1258.447607 490.228623 
L 1259.005797 490.845513 
L 1259.563986 491.704233 
L 1260.122176 491.944954 
L 1260.680366 491.091737 
L 1261.796745 488.004175 
L 1262.354935 487.988845 
L 1262.913124 490.136307 
L 1264.587693 502.45443 
L 1265.145883 504.320401 
L 1265.704073 503.383018 
L 1266.262262 498.807117 
L 1266.820452 490.050675 
L 1267.936831 462.197947 
L 1268.495021 447.089302 
L 1269.053211 435.54384 
L 1269.6114 430.874345 
L 1270.16959 434.608898 
L 1270.72778 445.613187 
L 1272.402349 489.598916 
L 1272.960538 499.259494 
L 1273.518728 505.382869 
L 1274.076918 508.443651 
L 1274.635107 508.568708 
L 1275.193297 505.266606 
L 1275.751487 497.542369 
L 1276.309676 484.467716 
L 1276.867866 466.016974 
L 1279.100625 377.688076 
L 1279.658814 362.022864 
L 1280.217004 350.383534 
L 1280.775194 342.410604 
L 1281.333383 337.217925 
L 1281.891573 334.096948 
L 1282.449763 333.478487 
L 1283.007952 336.992895 
L 1283.566142 346.653288 
L 1284.124332 363.878193 
L 1285.240711 418.019061 
L 1286.35709 473.078722 
L 1286.91528 491.12077 
L 1287.47347 501.822252 
L 1288.031659 506.764136 
L 1288.589849 508.016964 
L 1289.148039 507.40267 
L 1290.264418 505.059563 
L 1290.822608 504.340919 
L 1291.380797 504.110937 
L 1291.938987 504.350811 
L 1292.497177 504.980739 
L 1293.613556 506.514642 
L 1294.171746 506.374575 
L 1294.729935 504.358016 
L 1295.288125 499.165216 
L 1295.846315 489.713372 
L 1296.404504 475.929256 
L 1298.079073 426.299953 
L 1298.637263 414.314754 
L 1299.195453 407.366405 
L 1299.753642 406.179235 
L 1300.311832 410.615441 
L 1300.870022 419.983586 
L 1301.428211 433.519463 
L 1303.10278 484.016777 
L 1303.66097 495.828423 
L 1304.21916 502.916106 
L 1304.777349 506.253676 
L 1305.335539 507.336834 
L 1305.893729 507.462613 
L 1307.010108 507.417686 
L 1307.568298 507.033814 
L 1308.126487 505.292952 
L 1308.684677 500.800302 
L 1309.242867 492.175695 
L 1309.801056 478.967636 
L 1310.917436 448.374735 
L 1311.475625 440.717667 
L 1312.033815 443.08286 
L 1312.592005 454.464441 
L 1313.708384 486.823942 
L 1314.266574 499.554458 
L 1314.824763 507.261035 
L 1315.382953 509.344967 
L 1315.941143 505.128233 
L 1316.499332 493.545758 
L 1317.057522 473.955587 
L 1319.290281 370.147278 
L 1319.84847 355.836662 
L 1320.40666 348.590246 
L 1320.96485 348.590918 
L 1321.523039 355.63589 
L 1322.639419 382.736923 
L 1325.430367 457.55678 
L 1325.988557 473.48302 
L 1326.546746 485.881079 
L 1327.104936 493.694722 
L 1327.663126 497.368067 
L 1328.221315 498.213913 
L 1328.779505 497.726878 
L 1329.337695 496.777465 
L 1329.895884 494.920798 
L 1330.454074 490.61473 
L 1331.012264 482.521026 
L 1332.686833 449.148646 
L 1333.245022 446.646063 
L 1333.803212 452.021247 
L 1336.035971 495.98763 
L 1336.59416 501.372513 
L 1337.15235 504.245863 
L 1337.71054 505.070799 
L 1338.268729 504.1914 
L 1338.826919 501.875834 
L 1339.943298 494.404712 
L 1340.501488 489.842551 
L 1341.059678 483.703791 
L 1341.617867 473.807936 
L 1342.176057 458.241717 
L 1342.734247 436.710958 
L 1346.083385 283.39198 
L 1346.641574 269.841981 
L 1347.199764 264.573634 
L 1347.757954 266.941723 
L 1348.316143 274.22598 
L 1349.432523 293.958265 
L 1349.990712 307.08826 
L 1350.548902 325.781336 
L 1351.107092 351.713394 
L 1352.781661 444.763694 
L 1353.33985 464.887398 
L 1353.89804 476.412714 
L 1354.45623 481.458397 
L 1355.014419 482.677773 
L 1355.572609 481.989231 
L 1356.688988 478.769461 
L 1357.247178 477.715019 
L 1357.805368 477.958963 
L 1358.363557 479.718721 
L 1360.038126 488.231565 
L 1360.596316 488.437756 
L 1361.154506 484.640092 
L 1361.712695 474.936989 
L 1362.270885 458.338295 
L 1363.387264 409.442863 
L 1364.503644 359.570665 
L 1365.061833 342.103867 
L 1365.620023 332.98412 
L 1366.178213 333.477269 
L 1366.736402 343.18992 
L 1367.294592 360.194382 
L 1369.527351 444.945137 
L 1370.08554 458.956116 
L 1370.64373 468.9794 
L 1371.20192 476.040886 
L 1371.760109 481.191986 
L 1372.318299 485.130549 
L 1372.876489 487.916219 
L 1373.434678 488.708416 
L 1373.992868 485.698945 
L 1374.551058 476.872547 
L 1375.109247 461.687386 
L 1376.225627 423.938096 
L 1376.783816 411.406928 
L 1377.342006 408.23432 
L 1377.900196 414.852443 
L 1378.458385 429.128824 
L 1380.132954 481.154603 
L 1380.691144 492.267192 
L 1381.249334 498.801369 
L 1381.807523 501.239348 
L 1382.365713 500.656343 
L 1383.482092 496.104317 
L 1384.040282 494.674206 
L 1384.598472 494.573651 
L 1385.714851 495.869648 
L 1386.83123 495.901729 
L 1387.38942 496.530659 
L 1387.94761 498.121794 
L 1388.505799 500.051658 
L 1389.063989 500.597797 
L 1389.622179 497.352005 
L 1390.180368 488.09642 
L 1390.738558 471.566011 
L 1391.296748 447.911168 
L 1393.529506 332.063634 
L 1394.087696 310.433828 
L 1394.645886 293.350206 
L 1395.204075 281.769238 
L 1395.762265 277.787011 
L 1396.320455 283.02248 
L 1396.878644 296.493214 
L 1399.111403 368.033463 
L 1400.227782 417.365591 
L 1401.344162 469.403446 
L 1401.902351 487.429579 
L 1402.460541 498.563874 
L 1403.018731 504.006699 
L 1403.57692 505.722969 
L 1404.13511 505.521137 
L 1404.6933 504.56358 
L 1405.809679 501.861021 
L 1406.926058 497.92505 
L 1407.484248 495.834689 
L 1408.042438 494.593824 
L 1408.600627 494.81993 
L 1409.158817 496.415551 
L 1410.833386 502.872676 
L 1411.949765 505.602658 
L 1413.066145 507.906762 
L 1413.624334 508.234402 
L 1414.182524 506.590442 
L 1414.740714 501.179716 
L 1415.298903 490.044051 
L 1415.857093 471.829857 
L 1416.415283 446.584069 
L 1418.089852 356.937315 
L 1418.648041 337.785182 
L 1419.206231 330.339134 
L 1419.764421 335.533403 
L 1420.32261 352.02356 
L 1421.43899 405.663696 
L 1422.555369 461.92852 
L 1423.113559 482.897701 
L 1423.671748 496.92638 
L 1424.229938 504.580073 
L 1424.788128 507.578418 
L 1425.346317 507.849425 
L 1425.904507 506.922273 
L 1427.020886 504.803197 
L 1427.579076 504.206572 
L 1428.137266 503.923617 
L 1429.253645 503.879685 
L 1430.370024 503.897701 
L 1430.928214 503.764685 
L 1432.044593 503.123224 
L 1432.602783 502.772924 
L 1433.160973 502.637289 
L 1434.277352 502.826396 
L 1434.835542 502.45328 
L 1435.393731 501.372473 
L 1436.510111 497.828893 
L 1437.0683 496.692483 
L 1437.62649 496.90508 
L 1438.18468 498.405775 
L 1439.301059 502.249173 
L 1439.859249 503.465268 
L 1440.417438 504.108902 
L 1440.975628 504.338433 
L 1442.092007 504.219195 
L 1443.766576 503.961135 
L 1448.232094 503.908177 
L 1448.790283 504.083918 
L 1449.348473 504.457097 
L 1449.906663 505.064459 
L 1451.023042 506.520948 
L 1451.581232 506.519477 
L 1452.139421 504.869125 
L 1452.697611 500.303007 
L 1453.255801 491.592967 
L 1453.81399 478.020243 
L 1454.93037 437.875304 
L 1456.046749 392.100982 
L 1456.604939 372.576425 
L 1457.163128 357.182472 
L 1457.721318 346.568876 
L 1458.279508 341.583814 
L 1458.837697 343.609586 
L 1459.395887 353.780267 
L 1459.954077 371.891477 
L 1462.186835 469.204803 
L 1462.745025 482.755411 
L 1463.303215 489.804916 
L 1463.861404 491.913596 
L 1464.419594 490.713838 
L 1464.977784 487.501855 
L 1465.535973 482.908019 
L 1466.094163 476.579333 
L 1466.652353 467.110451 
L 1467.210542 452.770991 
L 1468.326922 409.587411 
L 1469.443301 367.022069 
L 1470.001491 355.790486 
L 1470.55968 354.306478 
L 1471.11787 362.821228 
L 1471.67606 380.226604 
L 1473.908818 473.492049 
L 1474.467008 485.666609 
L 1475.025198 489.902815 
L 1475.583387 485.5915 
L 1476.141577 472.68575 
L 1476.699767 452.310443 
L 1478.374336 379.205637 
L 1478.932525 365.061082 
L 1479.490715 360.367554 
L 1480.048905 364.50471 
L 1480.607094 375.813993 
L 1481.165284 392.654659 
L 1482.839853 454.976877 
L 1483.398043 470.123354 
L 1483.956232 479.66135 
L 1484.514422 484.431483 
L 1485.072612 486.055372 
L 1485.630801 486.075374 
L 1486.747181 485.128986 
L 1487.30537 484.368399 
L 1487.86356 482.789021 
L 1489.538129 475.000796 
L 1490.096319 473.514736 
L 1490.654508 473.072676 
L 1491.212698 473.312282 
L 1491.770888 474.036192 
L 1492.329077 475.381195 
L 1493.445457 478.852749 
L 1494.003646 479.308363 
L 1494.561836 478.40967 
L 1495.678215 474.59287 
L 1496.236405 472.091981 
L 1496.794595 468.617236 
L 1497.352785 463.361273 
L 1497.910974 455.71394 
L 1499.585543 427.821905 
L 1500.143733 425.303782 
L 1500.701923 429.254099 
L 1501.260112 438.212552 
L 1502.376492 459.489137 
L 1503.492871 475.033489 
L 1504.60925 485.988377 
L 1505.16744 489.463077 
L 1505.72563 491.200712 
L 1506.283819 491.428981 
L 1506.842009 490.460694 
L 1507.400199 488.466784 
L 1509.074768 479.87427 
L 1509.632957 477.995081 
L 1510.191147 477.342473 
L 1510.749337 477.958069 
L 1511.865716 481.22852 
L 1512.423906 481.78213 
L 1512.982095 479.94973 
L 1513.540285 474.83505 
L 1514.098475 465.753946 
L 1514.656664 452.374224 
L 1515.773044 415.267542 
L 1518.005802 334.396586 
L 1518.563992 321.184077 
L 1519.122182 314.051067 
L 1519.680371 314.286314 
L 1520.238561 322.44254 
L 1520.796751 337.837877 
L 1521.91313 382.983058 
L 1523.029509 432.447979 
L 1523.587699 452.662828 
L 1524.145889 466.622918 
L 1524.704078 473.546459 
L 1525.262268 474.875474 
L 1526.378647 471.993422 
L 1526.936837 471.797607 
L 1527.495027 473.015339 
L 1528.611406 477.050587 
L 1529.169596 478.028732 
L 1529.727785 477.49994 
L 1530.844165 474.275243 
L 1531.402354 474.071354 
L 1531.960544 475.742734 
L 1532.518734 479.04452 
L 1533.635113 486.972465 
L 1534.193303 488.433711 
L 1534.751492 485.972859 
L 1535.309682 478.984352 
L 1536.984251 448.932944 
L 1537.542441 445.448706 
L 1538.10063 448.040972 
L 1538.65882 455.950126 
L 1539.775199 476.990775 
L 1540.333389 484.490159 
L 1540.891579 488.777206 
L 1541.449768 490.898785 
L 1542.007958 492.076283 
L 1542.566148 492.94747 
L 1543.124337 493.503618 
L 1543.682527 493.29489 
L 1544.240717 491.966915 
L 1545.357096 487.852321 
L 1546.473475 484.350258 
L 1547.031665 481.23384 
L 1547.589855 476.616653 
L 1548.148044 470.403766 
L 1548.706234 461.70836 
L 1549.264424 449.152396 
L 1550.380803 412.185717 
L 1552.055372 351.250189 
L 1552.613562 336.109589 
L 1553.171751 326.173315 
L 1553.729941 322.831561 
L 1554.288131 326.470576 
L 1554.84632 336.619214 
L 1555.40451 352.430774 
L 1557.637269 429.866264 
L 1558.195458 441.593498 
L 1558.753648 449.273336 
L 1559.311838 453.595886 
L 1559.870027 455.269868 
L 1560.428217 455.168198 
L 1560.986407 454.179741 
L 1561.544596 452.626302 
L 1562.102786 449.858536 
L 1562.660976 444.622127 
L 1563.219165 436.010124 
L 1564.335545 410.689484 
L 1564.893734 398.162797 
L 1565.451924 390.041532 
L 1566.010114 389.006089 
L 1566.568303 395.375141 
L 1567.684683 420.736035 
L 1568.801062 445.325235 
L 1569.359252 454.030431 
L 1569.917441 459.920666 
L 1570.475631 462.874485 
L 1571.033821 463.115085 
L 1571.59201 461.518132 
L 1572.70839 456.418108 
L 1573.266579 452.550484 
L 1573.824769 446.259593 
L 1574.382959 436.627332 
L 1575.499338 408.467683 
L 1576.615717 376.881388 
L 1577.173907 363.56368 
L 1577.732097 353.606068 
L 1578.290286 348.572229 
L 1578.848476 350.281929 
L 1579.406666 359.63367 
L 1579.964855 375.540351 
L 1581.639424 433.190772 
L 1582.197614 446.604846 
L 1582.755804 454.479093 
L 1583.313993 456.702341 
L 1583.872183 454.261765 
L 1584.430373 448.657499 
L 1584.988562 440.86511 
L 1586.104942 419.370202 
L 1587.221321 396.936119 
L 1587.779511 391.095907 
L 1588.3377 391.098972 
L 1588.89589 396.826478 
L 1589.45408 406.895991 
L 1590.570459 430.374731 
L 1591.128649 438.827984 
L 1591.686838 443.623041 
L 1592.245028 445.469273 
L 1592.803218 445.713057 
L 1593.361407 445.37885 
L 1593.919597 444.756781 
L 1595.035976 442.800799 
L 1595.594166 441.479552 
L 1596.152356 438.775358 
L 1596.710545 433.006657 
L 1597.268735 422.974468 
L 1598.385114 391.989114 
L 1598.943304 375.692832 
L 1599.501494 363.537181 
L 1600.059683 358.359662 
L 1600.617873 360.631916 
L 1601.734252 376.091648 
L 1602.292442 380.743356 
L 1602.850632 379.176322 
L 1603.408821 371.084574 
L 1604.525201 347.009679 
L 1605.08339 340.427489 
L 1605.64158 342.459319 
L 1606.19977 353.634166 
L 1607.316149 392.344394 
L 1607.874339 411.547245 
L 1608.432528 426.484103 
L 1608.990718 436.423127 
L 1609.548908 441.93729 
L 1610.107097 443.836085 
L 1610.665287 442.888685 
L 1612.339856 434.498121 
L 1612.898046 433.008894 
L 1613.456235 432.448993 
L 1614.014425 432.542018 
L 1615.130804 433.372423 
L 1615.688994 433.512417 
L 1616.247184 433.176518 
L 1616.805373 432.181702 
L 1618.479942 427.173832 
L 1619.038132 427.509865 
L 1619.596322 429.966385 
L 1620.712701 437.973789 
L 1621.270891 440.84292 
L 1621.82908 442.019775 
L 1622.38727 441.903085 
L 1622.94546 441.455279 
L 1623.503649 441.511849 
L 1624.061839 442.298496 
L 1625.178218 445.16795 
L 1625.736408 446.603642 
L 1626.294598 447.326295 
L 1626.852787 446.648165 
L 1627.410977 443.990965 
L 1627.969167 438.743849 
L 1628.527356 429.966504 
L 1629.085546 416.89609 
L 1630.760115 367.326814 
L 1631.318305 358.116228 
L 1631.876494 356.82488 
L 1632.434684 363.86276 
L 1632.992874 378.078627 
L 1634.667443 433.133902 
L 1635.225632 444.391426 
L 1635.783822 450.1347 
L 1636.342012 452.109014 
L 1636.900201 452.776697 
L 1637.458391 454.192548 
L 1638.016581 457.405219 
L 1639.69115 472.408752 
L 1640.249339 474.619504 
L 1640.807529 473.978995 
L 1642.482098 465.673947 
L 1643.040288 464.379835 
L 1643.598477 463.898006 
L 1644.156667 463.581714 
L 1644.714857 462.505762 
L 1645.273046 459.490335 
L 1645.831236 453.253809 
L 1646.389426 442.836539 
L 1647.505805 411.608461 
L 1648.063995 395.89194 
L 1648.622184 384.711349 
L 1649.180374 380.269342 
L 1649.738564 382.609694 
L 1650.296753 389.822318 
L 1651.413133 409.679106 
L 1654.204081 463.576656 
L 1654.762271 469.94664 
L 1655.32046 474.418019 
L 1655.87865 477.596851 
L 1656.43684 479.797073 
L 1656.995029 481.01437 
L 1657.553219 481.210798 
L 1658.111409 480.379182 
L 1658.669598 478.361018 
L 1659.227788 474.88737 
L 1660.902357 459.687895 
L 1661.460547 457.23213 
L 1662.018736 458.224074 
L 1662.576926 462.868461 
L 1663.693305 477.206891 
L 1664.251495 481.876864 
L 1664.809685 482.539923 
L 1665.367874 479.412151 
L 1665.926064 473.659303 
L 1666.484254 466.099317 
L 1667.042443 456.690438 
L 1668.158823 432.019296 
L 1669.275202 406.925428 
L 1669.833392 398.761828 
L 1670.391581 395.10188 
L 1670.949771 395.9922 
L 1671.507961 400.934607 
L 1672.06615 409.509786 
L 1672.62434 421.437053 
L 1675.415288 493.309507 
L 1675.973478 500.849873 
L 1676.531668 504.819149 
L 1677.089857 505.922946 
L 1677.648047 504.95215 
L 1678.206237 502.480024 
L 1678.764426 498.788772 
L 1679.880806 488.419537 
L 1681.555375 471.173338 
L 1683.788133 451.218947 
L 1684.904513 437.950082 
L 1687.137271 405.474697 
L 1687.695461 400.966593 
L 1688.253651 398.882562 
L 1688.81184 399.313594 
L 1689.37003 402.622693 
L 1689.92822 408.978171 
L 1691.044599 427.667225 
L 1692.160978 444.856754 
L 1692.719168 450.397267 
L 1693.277358 454.198702 
L 1694.393737 459.982652 
L 1694.951927 462.319072 
L 1695.510116 463.380841 
L 1696.068306 462.37029 
L 1696.626496 459.165811 
L 1697.742875 450.184074 
L 1698.301065 447.680237 
L 1698.859254 448.442628 
L 1699.417444 452.89953 
L 1701.092013 475.148798 
L 1701.650203 477.132691 
L 1702.208392 472.623258 
L 1702.766582 461.537164 
L 1704.441151 413.577389 
L 1704.999341 402.469053 
L 1705.55753 395.907671 
L 1706.11572 393.414063 
L 1706.67391 394.534895 
L 1707.232099 399.248036 
L 1707.790289 407.571776 
L 1708.906668 432.528397 
L 1710.023048 460.121202 
L 1711.139427 481.707802 
L 1711.697617 488.900975 
L 1712.255806 493.577277 
L 1712.813996 496.036165 
L 1713.372186 496.52611 
L 1713.930375 495.277755 
L 1715.046755 490.617492 
L 1715.604944 488.985724 
L 1716.163134 488.019361 
L 1716.721324 487.428716 
L 1717.279513 487.195868 
L 1718.395893 487.351904 
L 1718.954082 487.102185 
L 1720.628651 485.951293 
L 1721.186841 485.705598 
L 1721.745031 485.828253 
L 1722.30322 486.700666 
L 1723.4196 489.682032 
L 1723.977789 490.297292 
L 1724.535979 490.028925 
L 1725.652358 488.846526 
L 1726.768738 488.493583 
L 1727.326927 487.51454 
L 1727.885117 485.029475 
L 1728.443307 481.042662 
L 1729.001496 475.970507 
L 1729.559686 469.836869 
L 1730.117876 462.1524 
L 1731.234255 441.588758 
L 1732.350634 420.70711 
L 1732.908824 414.245041 
L 1733.467014 411.815154 
L 1734.025203 413.117605 
L 1734.583393 417.437405 
L 1735.141583 424.324365 
L 1736.257962 443.769398 
L 1737.374341 463.500959 
L 1737.932531 470.857934 
L 1738.490721 476.283612 
L 1739.6071 483.618568 
L 1740.16529 486.199035 
L 1740.723479 487.584287 
L 1741.281669 487.340527 
L 1741.839859 485.668078 
L 1742.956238 480.272745 
L 1744.630807 471.381589 
L 1745.747186 466.540968 
L 1746.305376 464.825997 
L 1746.863566 464.099738 
L 1747.421755 464.829174 
L 1747.979945 467.049825 
L 1749.096324 473.283809 
L 1749.654514 475.427804 
L 1750.212704 475.844966 
L 1750.770893 473.784975 
L 1751.329083 468.421925 
L 1751.887273 459.135775 
L 1753.003652 430.605194 
L 1754.120031 402.755554 
L 1754.678221 395.643505 
L 1755.236411 394.756451 
L 1755.7946 399.443272 
L 1756.35279 408.28769 
L 1757.469169 433.206427 
L 1758.585549 457.991623 
L 1759.143738 466.909192 
L 1759.701928 472.995792 
L 1760.260118 476.540461 
L 1760.818307 478.115555 
L 1761.376497 478.463634 
L 1761.934687 478.131921 
L 1762.492876 477.155831 
L 1763.051066 475.363014 
L 1764.167445 470.776645 
L 1764.725635 469.369435 
L 1765.283825 468.984257 
L 1765.842014 469.204349 
L 1766.400204 469.254778 
L 1766.958394 468.57776 
L 1768.074773 466.249732 
L 1768.632963 466.397457 
L 1769.191152 468.097651 
L 1770.307532 473.519748 
L 1770.865721 475.478098 
L 1771.423911 476.417562 
L 1771.982101 476.405825 
L 1772.54029 475.727548 
L 1773.65667 473.879396 
L 1774.214859 472.342649 
L 1774.773049 469.12477 
L 1775.331239 463.50896 
L 1776.447618 446.428467 
L 1777.563997 428.494941 
L 1778.122187 422.554493 
L 1778.680377 419.710565 
L 1779.238566 419.496112 
L 1779.796756 420.982384 
L 1780.354946 423.591261 
L 1780.913135 427.304397 
L 1781.471325 432.380166 
L 1782.587704 446.277908 
L 1783.145894 453.492458 
L 1783.704084 459.243692 
L 1784.262273 462.78977 
L 1784.820463 464.250239 
L 1785.378653 464.288175 
L 1785.936842 463.577729 
L 1786.495032 462.439261 
L 1787.053222 460.79425 
L 1787.611411 458.439752 
L 1788.169601 455.311413 
L 1789.28598 447.052526 
L 1790.960549 432.919179 
L 1791.518739 430.226752 
L 1792.076929 429.95903 
L 1792.635118 432.136785 
L 1793.751498 440.173963 
L 1794.867877 447.783225 
L 1796.542446 457.313054 
L 1797.100636 459.604108 
L 1797.658825 461.065321 
L 1798.217015 461.836062 
L 1798.775205 461.997117 
L 1799.333394 461.267792 
L 1799.891584 459.16176 
L 1800.449774 455.531318 
L 1802.682532 437.319807 
L 1803.240722 434.859717 
L 1803.798912 433.58732 
L 1804.357101 433.248589 
L 1804.915291 433.656493 
L 1805.473481 434.645251 
L 1807.14805 438.308977 
L 1808.822619 441.255437 
L 1809.380808 441.561428 
L 1809.938998 440.418169 
L 1810.497188 437.254317 
L 1811.055377 432.199914 
L 1812.729946 414.045066 
L 1813.288136 410.179074 
L 1813.846326 408.682197 
L 1814.404515 409.873086 
L 1814.962705 413.467942 
L 1817.195464 433.322201 
L 1817.753653 436.667062 
L 1818.311843 438.95695 
L 1818.870033 439.962214 
L 1819.428222 439.596111 
L 1819.986412 438.002337 
L 1820.544602 435.473843 
L 1821.660981 428.802769 
L 1823.89374 414.502424 
L 1824.451929 412.21008 
L 1825.010119 411.451144 
L 1825.568309 412.38572 
L 1826.126498 414.746436 
L 1826.684688 418.189163 
L 1828.359257 430.980899 
L 1828.917447 434.031166 
L 1829.475636 435.736768 
L 1830.033826 436.340779 
L 1831.708395 436.490871 
L 1832.266585 436.877502 
L 1832.824774 437.677107 
L 1834.499343 441.812209 
L 1835.057533 442.316715 
L 1835.615723 441.945302 
L 1836.173912 441.04046 
L 1836.732102 439.919898 
L 1837.290292 438.494046 
L 1837.848481 436.363773 
L 1838.406671 433.166248 
L 1840.08124 420.170449 
L 1840.63943 417.462052 
L 1841.197619 416.112526 
L 1842.313999 414.671949 
L 1842.872188 413.093477 
L 1843.988568 408.672953 
L 1844.546757 407.684942 
L 1845.104947 408.467513 
L 1845.663137 411.285301 
L 1846.221326 416.129488 
L 1848.454085 441.253428 
L 1849.012275 444.76603 
L 1849.570464 446.31205 
L 1850.128654 445.988773 
L 1850.686844 444.327366 
L 1851.245033 442.246669 
L 1851.803223 440.771513 
L 1852.361413 440.48734 
L 1853.477792 441.753173 
L 1854.035982 441.717951 
L 1854.594171 440.83176 
L 1855.710551 438.265007 
L 1856.26874 438.175708 
L 1856.82693 439.50952 
L 1857.943309 444.152607 
L 1858.501499 445.621616 
L 1859.059689 445.784994 
L 1859.617878 444.618043 
L 1860.734258 440.651278 
L 1861.292447 439.889109 
L 1861.850637 440.620166 
L 1862.967016 443.920995 
L 1863.525206 445.096118 
L 1864.083396 445.760505 
L 1865.199775 446.57463 
L 1865.757965 447.518824 
L 1866.316154 449.28015 
L 1867.990723 456.901729 
L 1868.548913 458.641306 
L 1869.107103 459.628503 
L 1869.665292 459.820434 
L 1870.223482 459.204887 
L 1870.781672 457.837666 
L 1871.898051 454.048748 
L 1872.456241 452.946492 
L 1873.01443 453.179678 
L 1873.57262 454.571303 
L 1875.247189 460.116961 
L 1875.805379 461.435375 
L 1876.363568 462.165694 
L 1876.921758 462.251448 
L 1878.038137 461.698714 
L 1878.596327 461.929838 
L 1879.154517 462.910057 
L 1882.503655 472.752858 
L 1884.736413 482.40288 
L 1885.294603 482.72281 
L 1885.852793 481.99935 
L 1886.969172 480.088352 
L 1887.527362 479.745823 
L 1888.085551 479.865162 
L 1888.643741 480.3751 
L 1889.201931 481.303735 
L 1890.31831 483.925 
L 1890.8765 484.858519 
L 1891.434689 485.111034 
L 1891.992879 484.713688 
L 1892.551069 484.040786 
L 1893.109258 483.645995 
L 1893.667448 483.961309 
L 1894.225638 485.054514 
L 1895.342017 487.901878 
L 1896.458396 489.663904 
L 1897.016586 490.332537 
L 1897.574776 490.718304 
L 1898.132965 490.724365 
L 1899.807534 490.271963 
L 1900.365724 489.038377 
L 1900.923914 485.014499 
L 1901.482103 475.767826 
L 1902.040293 458.718175 
L 1902.598483 432.652229 
L 1903.714862 367.516255 
L 1904.273052 345.440587 
L 1904.831241 341.502798 
L 1905.389431 357.111738 
L 1905.947621 387.414583 
L 1907.064 465.827568 
L 1907.064 465.827568 
" style="fill:none;stroke:#bfbf00;stroke-linecap:round;stroke-width:1.5;"/>
   </g>
   <g id="line2d_17">
    <path clip-path="url(#p8e2f67e6fc)" d="M 264.87 417.180239 
L 278.266552 417.180239 
L 278.824742 417.058202 
L 279.382931 415.552118 
L 279.941121 409.340396 
L 291.104914 409.340396 
L 291.663104 415.552118 
L 292.221294 417.058202 
L 292.779483 419.990194 
L 293.337673 435.800135 
L 293.895863 436.393652 
L 303.943277 436.393652 
L 304.501466 438.318817 
L 305.059656 442.558309 
L 305.617846 444.195158 
L 320.130777 444.195158 
L 320.688967 443.993552 
L 321.247156 442.558309 
L 332.41095 442.558309 
L 332.969139 439.995517 
L 333.527329 432.161432 
L 334.085519 430.625606 
L 335.201898 427.09855 
L 349.714829 427.09855 
L 350.273019 421.524247 
L 350.831209 410.49656 
L 351.947588 407.410312 
L 352.505778 407.410312 
L 353.063967 408.817296 
L 353.622157 412.110822 
L 361.436812 412.110822 
L 361.995002 414.688799 
L 363.111381 414.794411 
L 370.367847 414.794411 
L 371.484226 416.823328 
L 372.042416 421.841409 
L 372.600606 435.861492 
L 373.158795 445.18465 
L 373.716985 450.058029 
L 385.997158 450.103722 
L 387.671727 454.178438 
L 413.906641 454.178438 
L 414.464831 452.503514 
L 415.02302 451.522675 
L 415.58121 451.161507 
L 416.1394 449.736449 
L 436.234228 449.736449 
L 436.792417 444.698612 
L 437.350607 444.596138 
L 437.908797 441.15138 
L 438.466986 440.584755 
L 444.048883 440.584755 
L 444.607073 429.975643 
L 445.165262 429.729569 
L 446.281642 428.652252 
L 461.352763 428.550315 
L 461.910952 427.769356 
L 470.841987 427.769356 
L 471.400177 424.849898 
L 472.516556 412.926525 
L 473.074746 409.778372 
L 473.632935 409.054704 
L 474.191125 407.096733 
L 474.749315 405.668738 
L 479.773022 405.668738 
L 480.331211 409.054704 
L 480.889401 409.778372 
L 481.447591 415.240134 
L 482.00578 423.26073 
L 482.56397 428.450793 
L 483.12216 428.812175 
L 484.796729 428.812175 
L 485.354918 430.382943 
L 485.913108 430.673088 
L 486.471298 430.686042 
L 487.587677 438.170385 
L 488.704056 445.354805 
L 489.262246 446.567509 
L 515.49716 446.567509 
L 516.05535 443.306107 
L 516.61354 438.942357 
L 517.171729 438.411131 
L 517.729919 438.213921 
L 524.986385 438.213921 
L 525.544574 438.411131 
L 526.102764 438.942357 
L 526.660954 442.70623 
L 527.219143 449.679721 
L 553.454058 449.679721 
L 554.012247 447.568885 
L 555.128627 431.279843 
L 555.686816 430.079582 
L 556.245006 427.464583 
L 556.803196 427.339468 
L 562.385092 427.339468 
L 562.943282 421.415051 
L 564.059661 420.620395 
L 564.617851 418.274192 
L 565.73423 418.274192 
L 566.29242 420.429869 
L 566.85061 421.060847 
L 567.966989 421.060847 
L 568.525179 420.429869 
L 569.083368 419.216214 
L 571.316127 419.216214 
L 571.874317 420.429869 
L 572.990696 431.299786 
L 573.548886 442.893282 
L 574.107075 449.070902 
L 576.898024 449.070902 
L 577.456213 450.100958 
L 578.014403 450.216752 
L 578.572593 450.584325 
L 600.900179 450.584325 
L 601.458369 450.216752 
L 602.016559 450.100958 
L 604.807507 450.100958 
L 605.365697 448.731874 
L 606.482076 440.862394 
L 607.040266 439.318084 
L 607.598455 438.88563 
L 608.156645 438.88563 
L 608.714835 439.318084 
L 609.273024 440.862394 
L 609.831214 441.412252 
L 610.389404 447.874196 
L 610.947593 451.243061 
L 611.505783 452.698843 
L 637.740697 452.698843 
L 638.298887 452.340832 
L 638.857077 450.700917 
L 639.415266 446.570682 
L 639.973456 441.329962 
L 640.531646 440.642544 
L 641.089835 440.374666 
L 656.160956 440.374666 
L 656.719146 440.642544 
L 657.277336 441.329962 
L 657.835525 445.538531 
L 658.393715 450.626712 
L 658.951905 451.928905 
L 685.186819 451.928905 
L 685.745009 450.057721 
L 686.303199 447.665978 
L 686.861388 446.989498 
L 687.419578 446.739039 
L 687.977768 446.000831 
L 690.210526 446.000831 
L 690.768716 445.486594 
L 691.885095 445.250235 
L 692.443285 444.416342 
L 705.281647 444.416342 
L 705.839837 441.33149 
L 706.398027 435.127362 
L 706.956216 424.5961 
L 707.514406 409.247386 
L 708.630785 400.387502 
L 709.188975 400.052711 
L 709.747165 400.387502 
L 710.305354 405.216826 
L 710.863544 408.731668 
L 711.421734 419.797537 
L 711.979923 425.86094 
L 714.770872 425.86094 
L 715.329061 426.050436 
L 715.887251 426.664185 
L 716.445441 427.773818 
L 717.00363 430.594347 
L 718.12001 439.021638 
L 718.678199 441.41545 
L 719.236389 442.678093 
L 720.352768 444.423872 
L 721.469148 446.467754 
L 722.027337 447.250606 
L 743.238545 447.250606 
L 743.796734 447.511579 
L 744.913114 447.633279 
L 745.471303 448.742805 
L 771.148028 448.742805 
L 771.706218 449.264512 
L 772.264407 448.894895 
L 772.822597 448.742805 
L 773.380787 448.169946 
L 798.499322 448.169946 
L 799.057511 446.107744 
L 799.615701 445.679636 
L 800.173891 444.962766 
L 800.73208 444.510032 
L 814.128632 444.510032 
L 814.686822 444.373273 
L 815.245012 442.009861 
L 821.385098 442.009861 
L 821.943288 440.631468 
L 823.059667 440.424699 
L 834.78165 440.424699 
L 835.33984 439.767822 
L 835.898029 437.924649 
L 836.456219 434.60796 
L 837.014409 429.797034 
L 838.130788 427.483822 
L 838.688978 423.969949 
L 839.247167 423.096873 
L 843.154495 423.096873 
L 843.712685 427.483822 
L 844.270874 428.562802 
L 844.829064 428.759897 
L 845.387254 441.148447 
L 845.945443 448.712338 
L 846.503633 452.351592 
L 873.296737 452.329752 
L 873.854927 451.56597 
L 874.413116 451.169012 
L 876.087685 451.037588 
L 887.809668 451.037588 
L 888.367858 450.489732 
L 888.926048 449.291178 
L 889.484237 447.22567 
L 890.042427 446.324232 
L 890.600617 446.317471 
L 891.158806 446.165058 
L 904.555358 446.165058 
L 905.113548 445.923783 
L 905.671738 445.550563 
L 907.346307 445.547836 
L 907.904496 445.383634 
L 909.020876 444.48272 
L 918.5101 444.48272 
L 919.626479 440.29571 
L 920.184669 440.057346 
L 920.742859 439.651371 
L 922.975617 439.651371 
L 923.533807 439.969183 
L 924.091997 440.057346 
L 924.650186 440.29571 
L 935.25579 440.29571 
L 935.81398 440.057346 
L 936.930359 439.969183 
L 947.535963 439.969183 
L 948.094152 440.332924 
L 948.652342 440.438161 
L 949.210532 440.918878 
L 949.768721 442.503896 
L 950.885101 444.530526 
L 951.44329 445.255355 
L 975.445446 445.255355 
L 976.003636 445.534873 
L 976.561825 445.666316 
L 977.120015 447.268155 
L 977.678205 451.491037 
L 978.236394 452.899982 
L 983.260101 453.063376 
L 1005.029498 453.063376 
L 1005.587688 452.928799 
L 1006.145878 452.928799 
L 1006.704067 452.144091 
L 1008.936826 451.926953 
L 1019.54243 451.926953 
L 1020.100619 451.719933 
L 1027.915275 451.612197 
L 1028.473464 450.709146 
L 1042.986396 450.709146 
L 1043.544585 448.957186 
L 1044.102775 447.583679 
L 1044.660965 446.71952 
L 1045.219154 446.679831 
L 1045.777344 446.21076 
L 1050.801051 446.21076 
L 1051.359241 446.358575 
L 1051.91743 446.672524 
L 1052.47562 446.679831 
L 1053.03381 447.016394 
L 1053.591999 447.583679 
L 1054.150189 447.72124 
L 1055.266568 449.601212 
L 1055.824758 450.265594 
L 1056.382948 450.642769 
L 1056.941137 450.769011 
L 1059.173896 450.809339 
L 1059.732086 450.889331 
L 1060.848465 451.422274 
L 1069.22131 451.422274 
L 1069.7795 451.664511 
L 1070.337689 451.684709 
L 1071.454069 452.406608 
L 1072.012258 452.894739 
L 1098.247173 452.894739 
L 1099.363552 451.985965 
L 1099.921742 451.566678 
L 1100.479931 451.566678 
L 1102.1545 452.151795 
L 1103.27088 452.219007 
L 1103.829069 452.389729 
L 1114.434673 452.437062 
L 1114.992863 452.652025 
L 1130.622173 452.652025 
L 1131.738553 452.242356 
L 1135.087691 452.242356 
L 1135.64588 452.697167 
L 1136.76226 453.061001 
L 1162.997174 453.061001 
L 1163.555364 452.438774 
L 1164.113553 452.203287 
L 1164.671743 452.104988 
L 1165.229933 451.86387 
L 1184.766571 451.86387 
L 1185.324761 450.606426 
L 1185.88295 450.381342 
L 1186.44114 449.701594 
L 1186.99933 449.416185 
L 1193.697606 449.416185 
L 1194.255795 447.00515 
L 1194.813985 443.339628 
L 1195.930364 432.580689 
L 1196.488554 426.844861 
L 1197.046744 425.729559 
L 1197.604933 425.400987 
L 1198.163123 424.904864 
L 1200.954071 424.904864 
L 1201.512261 423.590799 
L 1202.070451 419.974316 
L 1202.62864 414.136457 
L 1203.74502 396.802347 
L 1204.303209 396.543052 
L 1204.861399 395.005618 
L 1205.419589 394.063418 
L 1206.535968 394.063418 
L 1207.094158 396.543052 
L 1207.652347 396.802347 
L 1208.210537 397.490392 
L 1208.768727 403.474325 
L 1209.326916 408.14574 
L 1209.885106 410.805676 
L 1210.443296 411.380329 
L 1211.559675 411.772215 
L 1212.117865 413.480039 
L 1213.234244 418.868676 
L 1213.792434 420.453999 
L 1214.350623 420.574745 
L 1219.37433 420.574745 
L 1219.93252 420.841149 
L 1220.49071 420.899956 
L 1221.048899 422.572698 
L 1223.839848 422.572698 
L 1224.398037 422.769131 
L 1224.956227 423.335068 
L 1225.514417 423.52889 
L 1226.630796 430.126447 
L 1227.188986 433.559296 
L 1241.143727 433.630616 
L 1241.701917 435.827994 
L 1242.260107 435.982097 
L 1242.818296 436.349529 
L 1243.376486 437.96717 
L 1245.609245 437.96717 
L 1246.167434 438.390704 
L 1246.725624 438.631425 
L 1250.632952 438.704114 
L 1251.191141 440.793392 
L 1252.307521 449.140901 
L 1259.563986 449.140901 
L 1261.238555 452.069339 
L 1274.076918 452.069339 
L 1275.193297 454.703434 
L 1288.031659 454.703434 
L 1289.148039 453.450606 
L 1291.380797 453.450606 
L 1291.938987 454.023304 
L 1293.613556 454.110442 
L 1320.40666 454.104157 
L 1321.523039 453.720285 
L 1322.081229 451.979423 
L 1322.639419 451.814703 
L 1329.337695 451.75727 
L 1329.895884 450.932333 
L 1331.570453 450.87787 
L 1351.107092 450.87787 
L 1351.665281 448.562305 
L 1352.781661 441.091183 
L 1353.33985 436.529021 
L 1353.89804 435.124227 
L 1354.45623 434.918035 
L 1355.014419 432.510649 
L 1358.921747 432.510649 
L 1359.479937 434.602689 
L 1360.038126 434.918035 
L 1366.736402 434.918035 
L 1367.852782 435.394886 
L 1368.410971 438.953663 
L 1368.969161 445.48784 
L 1374.551058 445.48784 
L 1375.109247 446.738128 
L 1375.667437 447.284268 
L 1389.622179 447.342814 
L 1390.180368 447.925819 
L 1390.738558 450.69317 
L 1391.296748 451.25005 
L 1397.995024 451.25005 
L 1398.553213 452.207608 
L 1399.669593 452.40944 
L 1400.227782 453.516219 
L 1410.833386 453.516219 
L 1411.391576 454.264889 
L 1411.949765 454.535896 
L 1427.020886 454.535896 
L 1427.579076 454.264889 
L 1428.137266 453.608744 
L 1438.742869 453.608744 
L 1439.301059 453.207419 
L 1439.859249 453.205948 
L 1440.417438 452.527951 
L 1464.419594 452.527951 
L 1464.977784 451.555596 
L 1465.535973 446.989477 
L 1466.094163 438.600066 
L 1466.652353 438.279437 
L 1467.768732 436.589285 
L 1477.816146 436.589285 
L 1478.374336 434.188326 
L 1478.932525 432.761844 
L 1482.281663 432.741842 
L 1488.979939 432.741842 
L 1489.538129 432.293365 
L 1490.654508 432.293365 
L 1491.212698 432.674848 
L 1492.329077 432.761844 
L 1492.887267 436.149548 
L 1493.445457 437.147165 
L 1519.680371 437.147165 
L 1520.238561 435.153255 
L 1520.796751 435.120182 
L 1521.35494 433.658936 
L 1521.91313 432.65933 
L 1526.936837 432.65933 
L 1527.495027 433.658936 
L 1528.053216 435.120182 
L 1528.611406 435.463676 
L 1529.169596 437.585256 
L 1529.727785 438.762754 
L 1530.285975 439.633941 
L 1556.520889 439.633941 
L 1557.079079 438.653385 
L 1558.195458 434.538792 
L 1559.311838 431.036728 
L 1559.870027 427.92031 
L 1560.428217 423.303123 
L 1561.544596 409.801555 
L 1562.102786 409.560955 
L 1562.660976 408.394831 
L 1563.219165 408.204603 
L 1584.430373 408.204603 
L 1585.546752 403.388811 
L 1586.104942 403.104578 
L 1586.663131 401.165564 
L 1587.221321 400.948235 
L 1596.710545 400.948235 
L 1597.268735 395.34397 
L 1597.826925 392.399527 
L 1598.385114 392.155744 
L 1599.501494 392.06532 
L 1606.19977 392.06532 
L 1606.757959 391.443251 
L 1607.316149 390.530232 
L 1607.874339 390.522556 
L 1608.432528 389.575155 
L 1608.990718 389.487269 
L 1609.548908 388.706246 
L 1610.107097 388.706246 
L 1610.665287 388.984967 
L 1611.781666 390.29639 
L 1612.339856 390.522556 
L 1613.456235 393.290113 
L 1622.38727 393.334635 
L 1622.94546 394.012766 
L 1623.503649 396.82117 
L 1624.061839 398.795485 
L 1624.620029 399.463168 
L 1625.178218 400.879019 
L 1625.736408 404.091689 
L 1627.410977 419.095223 
L 1641.365719 419.095223 
L 1641.923908 420.665465 
L 1642.482098 421.104489 
L 1643.040288 421.305974 
L 1643.598477 424.283322 
L 1644.156667 426.483544 
L 1644.714857 427.065652 
L 1650.296753 427.065652 
L 1650.854943 427.70084 
L 1651.413133 427.897269 
L 1660.902357 427.897269 
L 1661.460547 428.563335 
L 1662.018736 428.760001 
L 1662.576926 429.226393 
L 1663.135116 439.995977 
L 1663.693305 447.536343 
L 1664.251495 451.50562 
L 1690.486409 451.50562 
L 1691.044599 449.166495 
L 1691.602789 445.475242 
L 1692.719168 435.106008 
L 1693.835547 423.819162 
L 1694.393737 423.222715 
L 1694.951927 421.835269 
L 1695.510116 419.309729 
L 1697.184685 419.309729 
L 1697.742875 421.835269 
L 1698.301065 423.819162 
L 1698.859254 428.394273 
L 1699.417444 435.587445 
L 1699.975634 440.263748 
L 1700.533823 441.964226 
L 1726.768738 441.964226 
L 1727.885117 437.303962 
L 1729.559686 436.368503 
L 1737.374341 436.368503 
L 1737.932531 436.055589 
L 1738.490721 435.532997 
L 1739.6071 435.180054 
L 1740.16529 434.270758 
L 1741.281669 434.026997 
L 1741.839859 432.885506 
L 1754.120031 432.885506 
L 1754.678221 432.354548 
L 1756.35279 425.150104 
L 1756.91098 424.818391 
L 1760.818307 424.802026 
L 1774.773049 424.802026 
L 1775.331239 423.842302 
L 1775.889428 423.104032 
L 1776.447618 423.092296 
L 1777.005808 422.414018 
L 1785.378653 422.414018 
L 1786.495032 420.565867 
L 1787.053222 419.02912 
L 1787.611411 415.811241 
L 1788.169601 410.974646 
L 1788.727791 410.93671 
L 1789.28598 410.264199 
L 1798.775205 410.264199 
L 1799.333394 409.125732 
L 1799.891584 408.683588 
L 1800.449774 408.522533 
L 1801.007963 407.954263 
L 1812.171757 407.954263 
L 1812.729946 405.848231 
L 1813.288136 402.217789 
L 1814.962705 388.247898 
L 1816.079084 387.739229 
L 1816.637274 387.104639 
L 1820.544602 387.209112 
L 1821.102791 387.941907 
L 1822.219171 388.49868 
L 1835.057533 388.49868 
L 1835.615723 388.631773 
L 1836.173912 389.003185 
L 1836.732102 391.4525 
L 1844.546757 391.4525 
L 1845.104947 392.308087 
L 1845.663137 392.471465 
L 1850.686844 392.471465 
L 1852.919602 393.261101 
L 1853.477792 394.205295 
L 1854.035982 395.96662 
L 1855.710551 403.5882 
L 1856.26874 405.327777 
L 1856.82693 405.891357 
L 1861.292447 405.891357 
L 1861.850637 406.314974 
L 1862.967016 406.803431 
L 1863.525206 408.121845 
L 1864.083396 408.632731 
L 1865.199775 408.632731 
L 1865.757965 408.852164 
L 1866.316154 408.937919 
L 1866.874344 409.596528 
L 1870.223482 419.439329 
L 1871.898051 427.419407 
L 1872.456241 428.685821 
L 1875.805379 428.685821 
L 1876.363568 429.089351 
L 1877.479948 429.409281 
L 1878.038137 430.611471 
L 1878.596327 431.400158 
L 1880.270896 431.400158 
L 1881.945465 431.797504 
L 1883.061844 434.588349 
L 1884.178224 436.350374 
L 1884.736413 437.019008 
L 1885.294603 437.237919 
L 1902.598483 437.237919 
L 1903.156672 437.404774 
L 1907.064 437.404774 
L 1907.064 437.404774 
" style="fill:none;stroke:#0000ff;stroke-linecap:round;stroke-width:1.5;"/>
   </g>
   <g id="line2d_18">
    <defs>
     <path d="M 0 3 
C 0.795609 3 1.55874 2.683901 2.12132 2.12132 
C 2.683901 1.55874 3 0.795609 3 0 
C 3 -0.795609 2.683901 -1.55874 2.12132 -2.12132 
C 1.55874 -2.683901 0.795609 -3 0 -3 
C -0.795609 -3 -1.55874 -2.683901 -2.12132 -2.12132 
C -2.683901 -1.55874 -3 -0.795609 -3 0 
C -3 0.795609 -2.683901 1.55874 -2.12132 2.12132 
C -1.55874 2.683901 -0.795609 3 0 3 
z
" id="mc1c9b45e02" style="stroke:#008000;"/>
    </defs>
    <g clip-path="url(#p8e2f67e6fc)">
     <use style="fill:#008000;stroke:#008000;" x="277.708362" xlink:href="#mc1c9b45e02" y="267.848881"/>
     <use style="fill:#008000;stroke:#008000;" x="296.128621" xlink:href="#mc1c9b45e02" y="373.935852"/>
     <use style="fill:#008000;stroke:#008000;" x="301.710518" xlink:href="#mc1c9b45e02" y="376.556363"/>
     <use style="fill:#008000;stroke:#008000;" x="310.641553" xlink:href="#mc1c9b45e02" y="424.914779"/>
     <use style="fill:#008000;stroke:#008000;" x="329.061812" xlink:href="#mc1c9b45e02" y="404.442303"/>
     <use style="fill:#008000;stroke:#008000;" x="345.807502" xlink:href="#mc1c9b45e02" y="351.373092"/>
     <use style="fill:#008000;stroke:#008000;" x="354.738536" xlink:href="#mc1c9b45e02" y="374.082807"/>
     <use style="fill:#008000;stroke:#008000;" x="361.995002" xlink:href="#mc1c9b45e02" y="366.874288"/>
     <use style="fill:#008000;stroke:#008000;" x="372.600606" xlink:href="#mc1c9b45e02" y="379.517967"/>
     <use style="fill:#008000;stroke:#008000;" x="379.857071" xlink:href="#mc1c9b45e02" y="366.265445"/>
     <use style="fill:#008000;stroke:#008000;" x="393.811813" xlink:href="#mc1c9b45e02" y="379.678021"/>
     <use style="fill:#008000;stroke:#008000;" x="409.441124" xlink:href="#mc1c9b45e02" y="372.452255"/>
     <use style="fill:#008000;stroke:#008000;" x="427.303193" xlink:href="#mc1c9b45e02" y="439.443158"/>
     <use style="fill:#008000;stroke:#008000;" x="435.676038" xlink:href="#mc1c9b45e02" y="378.484769"/>
     <use style="fill:#008000;stroke:#008000;" x="451.863538" xlink:href="#mc1c9b45e02" y="399.236559"/>
     <use style="fill:#008000;stroke:#008000;" x="471.958366" xlink:href="#mc1c9b45e02" y="319.364318"/>
     <use style="fill:#008000;stroke:#008000;" x="487.587677" xlink:href="#mc1c9b45e02" y="322.325776"/>
     <use style="fill:#008000;stroke:#008000;" x="507.682505" xlink:href="#mc1c9b45e02" y="382.916595"/>
     <use style="fill:#008000;stroke:#008000;" x="530.568281" xlink:href="#mc1c9b45e02" y="411.124554"/>
     <use style="fill:#008000;stroke:#008000;" x="545.081213" xlink:href="#mc1c9b45e02" y="422.498574"/>
     <use style="fill:#008000;stroke:#008000;" x="560.152334" xlink:href="#mc1c9b45e02" y="328.622862"/>
     <use style="fill:#008000;stroke:#008000;" x="575.781644" xlink:href="#mc1c9b45e02" y="349.721017"/>
     <use style="fill:#008000;stroke:#008000;" x="583.03811" xlink:href="#mc1c9b45e02" y="426.504373"/>
     <use style="fill:#008000;stroke:#008000;" x="596.992852" xlink:href="#mc1c9b45e02" y="441.216662"/>
     <use style="fill:#008000;stroke:#008000;" x="618.762249" xlink:href="#mc1c9b45e02" y="426.531637"/>
     <use style="fill:#008000;stroke:#008000;" x="631.042421" xlink:href="#mc1c9b45e02" y="339.597686"/>
     <use style="fill:#008000;stroke:#008000;" x="636.624318" xlink:href="#mc1c9b45e02" y="351.033176"/>
     <use style="fill:#008000;stroke:#008000;" x="653.370008" xlink:href="#mc1c9b45e02" y="414.615025"/>
     <use style="fill:#008000;stroke:#008000;" x="661.184663" xlink:href="#mc1c9b45e02" y="408.045395"/>
     <use style="fill:#008000;stroke:#008000;" x="667.32475" xlink:href="#mc1c9b45e02" y="447.974842"/>
     <use style="fill:#008000;stroke:#008000;" x="697.466992" xlink:href="#mc1c9b45e02" y="394.796562"/>
     <use style="fill:#008000;stroke:#008000;" x="703.048889" xlink:href="#mc1c9b45e02" y="394.289924"/>
     <use style="fill:#008000;stroke:#008000;" x="711.421734" xlink:href="#mc1c9b45e02" y="322.630049"/>
     <use style="fill:#008000;stroke:#008000;" x="719.794579" xlink:href="#mc1c9b45e02" y="369.785729"/>
     <use style="fill:#008000;stroke:#008000;" x="745.471303" xlink:href="#mc1c9b45e02" y="292.880682"/>
     <use style="fill:#008000;stroke:#008000;" x="765.007942" xlink:href="#mc1c9b45e02" y="381.539997"/>
     <use style="fill:#008000;stroke:#008000;" x="793.475615" xlink:href="#mc1c9b45e02" y="336.884211"/>
     <use style="fill:#008000;stroke:#008000;" x="813.012253" xlink:href="#mc1c9b45e02" y="381.861671"/>
     <use style="fill:#008000;stroke:#008000;" x="831.990702" xlink:href="#mc1c9b45e02" y="384.16338"/>
     <use style="fill:#008000;stroke:#008000;" x="843.712685" xlink:href="#mc1c9b45e02" y="319.429278"/>
     <use style="fill:#008000;stroke:#008000;" x="852.643719" xlink:href="#mc1c9b45e02" y="366.63996"/>
     <use style="fill:#008000;stroke:#008000;" x="883.344151" xlink:href="#mc1c9b45e02" y="355.529711"/>
     <use style="fill:#008000;stroke:#008000;" x="911.811824" xlink:href="#mc1c9b45e02" y="358.636959"/>
     <use style="fill:#008000;stroke:#008000;" x="948.094152" xlink:href="#mc1c9b45e02" y="352.59659"/>
     <use style="fill:#008000;stroke:#008000;" x="983.818291" xlink:href="#mc1c9b45e02" y="343.801195"/>
     <use style="fill:#008000;stroke:#008000;" x="998.889412" xlink:href="#mc1c9b45e02" y="400.493777"/>
     <use style="fill:#008000;stroke:#008000;" x="1021.775188" xlink:href="#mc1c9b45e02" y="370.807546"/>
     <use style="fill:#008000;stroke:#008000;" x="1053.591999" xlink:href="#mc1c9b45e02" y="350.149012"/>
     <use style="fill:#008000;stroke:#008000;" x="1092.665276" xlink:href="#mc1c9b45e02" y="381.413959"/>
     <use style="fill:#008000;stroke:#008000;" x="1122.249328" xlink:href="#mc1c9b45e02" y="405.682995"/>
     <use style="fill:#008000;stroke:#008000;" x="1142.902346" xlink:href="#mc1c9b45e02" y="370.495229"/>
     <use style="fill:#008000;stroke:#008000;" x="1195.372175" xlink:href="#mc1c9b45e02" y="312.656239"/>
     <use style="fill:#008000;stroke:#008000;" x="1211.001485" xlink:href="#mc1c9b45e02" y="296.158023"/>
     <use style="fill:#008000;stroke:#008000;" x="1245.609245" xlink:href="#mc1c9b45e02" y="312.349243"/>
     <use style="fill:#008000;stroke:#008000;" x="1269.6114" xlink:href="#mc1c9b45e02" y="430.874345"/>
     <use style="fill:#008000;stroke:#008000;" x="1282.449763" xlink:href="#mc1c9b45e02" y="333.478487"/>
     <use style="fill:#008000;stroke:#008000;" x="1299.753642" xlink:href="#mc1c9b45e02" y="406.179235"/>
     <use style="fill:#008000;stroke:#008000;" x="1311.475625" xlink:href="#mc1c9b45e02" y="440.717667"/>
     <use style="fill:#008000;stroke:#008000;" x="1320.40666" xlink:href="#mc1c9b45e02" y="348.590246"/>
     <use style="fill:#008000;stroke:#008000;" x="1333.245022" xlink:href="#mc1c9b45e02" y="446.646063"/>
     <use style="fill:#008000;stroke:#008000;" x="1347.199764" xlink:href="#mc1c9b45e02" y="264.573634"/>
     <use style="fill:#008000;stroke:#008000;" x="1365.620023" xlink:href="#mc1c9b45e02" y="332.98412"/>
     <use style="fill:#008000;stroke:#008000;" x="1377.342006" xlink:href="#mc1c9b45e02" y="408.23432"/>
     <use style="fill:#008000;stroke:#008000;" x="1395.762265" xlink:href="#mc1c9b45e02" y="277.787011"/>
     <use style="fill:#008000;stroke:#008000;" x="1419.206231" xlink:href="#mc1c9b45e02" y="330.339134"/>
     <use style="fill:#008000;stroke:#008000;" x="1458.279508" xlink:href="#mc1c9b45e02" y="341.583814"/>
     <use style="fill:#008000;stroke:#008000;" x="1470.55968" xlink:href="#mc1c9b45e02" y="354.306478"/>
     <use style="fill:#008000;stroke:#008000;" x="1479.490715" xlink:href="#mc1c9b45e02" y="360.367554"/>
     <use style="fill:#008000;stroke:#008000;" x="1500.143733" xlink:href="#mc1c9b45e02" y="425.303782"/>
     <use style="fill:#008000;stroke:#008000;" x="1519.122182" xlink:href="#mc1c9b45e02" y="314.051067"/>
     <use style="fill:#008000;stroke:#008000;" x="1553.729941" xlink:href="#mc1c9b45e02" y="322.831561"/>
     <use style="fill:#008000;stroke:#008000;" x="1566.010114" xlink:href="#mc1c9b45e02" y="389.006089"/>
     <use style="fill:#008000;stroke:#008000;" x="1578.290286" xlink:href="#mc1c9b45e02" y="348.572229"/>
     <use style="fill:#008000;stroke:#008000;" x="1587.779511" xlink:href="#mc1c9b45e02" y="391.095907"/>
     <use style="fill:#008000;stroke:#008000;" x="1600.059683" xlink:href="#mc1c9b45e02" y="358.359662"/>
     <use style="fill:#008000;stroke:#008000;" x="1605.08339" xlink:href="#mc1c9b45e02" y="340.427489"/>
     <use style="fill:#008000;stroke:#008000;" x="1631.876494" xlink:href="#mc1c9b45e02" y="356.82488"/>
     <use style="fill:#008000;stroke:#008000;" x="1649.180374" xlink:href="#mc1c9b45e02" y="380.269342"/>
     <use style="fill:#008000;stroke:#008000;" x="1670.391581" xlink:href="#mc1c9b45e02" y="395.10188"/>
     <use style="fill:#008000;stroke:#008000;" x="1688.253651" xlink:href="#mc1c9b45e02" y="398.882562"/>
     <use style="fill:#008000;stroke:#008000;" x="1706.11572" xlink:href="#mc1c9b45e02" y="393.414063"/>
     <use style="fill:#008000;stroke:#008000;" x="1733.467014" xlink:href="#mc1c9b45e02" y="411.815154"/>
     <use style="fill:#008000;stroke:#008000;" x="1754.678221" xlink:href="#mc1c9b45e02" y="395.643505"/>
     <use style="fill:#008000;stroke:#008000;" x="1779.238566" xlink:href="#mc1c9b45e02" y="419.496112"/>
     <use style="fill:#008000;stroke:#008000;" x="1904.831241" xlink:href="#mc1c9b45e02" y="341.502798"/>
    </g>
   </g>
   <g id="patch_3">
    <path d="M 259.87 504 
L 259.87 69.12 
" style="fill:none;stroke:#262626;stroke-linecap:square;stroke-linejoin:miter;stroke-width:0.8;"/>
   </g>
   <g id="patch_4">
    <path d="M 264.87 509 
L 1907.064 509 
" style="fill:none;stroke:#262626;stroke-linecap:square;stroke-linejoin:miter;stroke-width:0.8;"/>
   </g>
   <g id="text_18">
    <text style="fill:#262626;font-family:Arial;font-size:36px;font-stretch:normal;font-style:normal;font-weight:normal;text-anchor:middle;" transform="rotate(-0, 1085.967, 61.965)" x="1085.967" y="61.965">20201123_GN902_60x_001-1.tif LAM-1::wSc</text>
   </g>
  </g>
 </g>
 <defs>
  <clipPath id="p8e2f67e6fc">
   <rect height="434.88" width="1642.194" x="264.87" y="69.12"/>
  </clipPath>
 </defs>
</svg>
