<?xml version="1.0" encoding="utf-8" standalone="no"?>
<!DOCTYPE svg PUBLIC "-//W3C//DTD SVG 1.1//EN"
  "http://www.w3.org/Graphics/SVG/1.1/DTD/svg11.dtd">
<!-- Created with matplotlib (https://matplotlib.org/) -->
<svg height="576pt" version="1.1" viewBox="0 0 2494.08 576" width="2494.08pt" xmlns="http://www.w3.org/2000/svg" xmlns:xlink="http://www.w3.org/1999/xlink">
 <metadata>
  <rdf:RDF xmlns:cc="http://creativecommons.org/ns#" xmlns:dc="http://purl.org/dc/elements/1.1/" xmlns:rdf="http://www.w3.org/1999/02/22-rdf-syntax-ns#">
   <cc:Work>
    <dc:type rdf:resource="http://purl.org/dc/dcmitype/StillImage"/>
    <dc:date>2022-12-01T10:18:17.881598</dc:date>
    <dc:format>image/svg+xml</dc:format>
    <dc:creator>
     <cc:Agent>
      <dc:title>Matplotlib v3.3.4, https://matplotlib.org/</dc:title>
     </cc:Agent>
    </dc:creator>
   </cc:Work>
  </rdf:RDF>
 </metadata>
 <defs>
  <style type="text/css">*{stroke-linecap:butt;stroke-linejoin:round;}</style>
 </defs>
 <g id="figure_1">
  <g id="patch_1">
   <path d="M 0 576 
L 2494.08 576 
L 2494.08 0 
L 0 0 
z
" style="fill:#ffffff;"/>
  </g>
  <g id="axes_1">
   <g id="patch_2">
    <path d="M 311.76 504 
L 2244.672 504 
L 2244.672 69.12 
L 311.76 69.12 
z
" style="fill:#ffffff;"/>
   </g>
   <g id="matplotlib.axis_1">
    <g id="xtick_1">
     <g id="line2d_1">
      <defs>
       <path d="M 0 0 
L 0 -3.5 
" id="m6280cd8aa9" style="stroke:#262626;stroke-width:0.8;"/>
      </defs>
      <g>
       <use style="fill:#262626;stroke:#262626;stroke-width:0.8;" x="311.76" xlink:href="#m6280cd8aa9" y="509"/>
      </g>
     </g>
     <g id="text_1">
      <text style="fill:#262626;font-family:Arial;font-size:30px;font-stretch:normal;font-style:normal;font-weight:normal;text-anchor:middle;" transform="rotate(-0, 311.76, 533.973438)" x="311.76" y="533.973438">0</text>
     </g>
    </g>
    <g id="xtick_2">
     <g id="line2d_2">
      <g>
       <use style="fill:#262626;stroke:#262626;stroke-width:0.8;" x="533.840026" xlink:href="#m6280cd8aa9" y="509"/>
      </g>
     </g>
     <g id="text_2">
      <text style="fill:#262626;font-family:Arial;font-size:30px;font-stretch:normal;font-style:normal;font-weight:normal;text-anchor:middle;" transform="rotate(-0, 533.840026, 533.973438)" x="533.840026" y="533.973438">50</text>
     </g>
    </g>
    <g id="xtick_3">
     <g id="line2d_3">
      <g>
       <use style="fill:#262626;stroke:#262626;stroke-width:0.8;" x="755.920052" xlink:href="#m6280cd8aa9" y="509"/>
      </g>
     </g>
     <g id="text_3">
      <text style="fill:#262626;font-family:Arial;font-size:30px;font-stretch:normal;font-style:normal;font-weight:normal;text-anchor:middle;" transform="rotate(-0, 755.920052, 533.973438)" x="755.920052" y="533.973438">100</text>
     </g>
    </g>
    <g id="xtick_4">
     <g id="line2d_4">
      <g>
       <use style="fill:#262626;stroke:#262626;stroke-width:0.8;" x="978.000078" xlink:href="#m6280cd8aa9" y="509"/>
      </g>
     </g>
     <g id="text_4">
      <text style="fill:#262626;font-family:Arial;font-size:30px;font-stretch:normal;font-style:normal;font-weight:normal;text-anchor:middle;" transform="rotate(-0, 978.000078, 533.973438)" x="978.000078" y="533.973438">150</text>
     </g>
    </g>
    <g id="xtick_5">
     <g id="line2d_5">
      <g>
       <use style="fill:#262626;stroke:#262626;stroke-width:0.8;" x="1200.080104" xlink:href="#m6280cd8aa9" y="509"/>
      </g>
     </g>
     <g id="text_5">
      <text style="fill:#262626;font-family:Arial;font-size:30px;font-stretch:normal;font-style:normal;font-weight:normal;text-anchor:middle;" transform="rotate(-0, 1200.080104, 533.973438)" x="1200.080104" y="533.973438">200</text>
     </g>
    </g>
    <g id="xtick_6">
     <g id="line2d_6">
      <g>
       <use style="fill:#262626;stroke:#262626;stroke-width:0.8;" x="1422.16013" xlink:href="#m6280cd8aa9" y="509"/>
      </g>
     </g>
     <g id="text_6">
      <text style="fill:#262626;font-family:Arial;font-size:30px;font-stretch:normal;font-style:normal;font-weight:normal;text-anchor:middle;" transform="rotate(-0, 1422.16013, 533.973438)" x="1422.16013" y="533.973438">250</text>
     </g>
    </g>
    <g id="xtick_7">
     <g id="line2d_7">
      <g>
       <use style="fill:#262626;stroke:#262626;stroke-width:0.8;" x="1644.240156" xlink:href="#m6280cd8aa9" y="509"/>
      </g>
     </g>
     <g id="text_7">
      <text style="fill:#262626;font-family:Arial;font-size:30px;font-stretch:normal;font-style:normal;font-weight:normal;text-anchor:middle;" transform="rotate(-0, 1644.240156, 533.973438)" x="1644.240156" y="533.973438">300</text>
     </g>
    </g>
    <g id="xtick_8">
     <g id="line2d_8">
      <g>
       <use style="fill:#262626;stroke:#262626;stroke-width:0.8;" x="1866.320182" xlink:href="#m6280cd8aa9" y="509"/>
      </g>
     </g>
     <g id="text_8">
      <text style="fill:#262626;font-family:Arial;font-size:30px;font-stretch:normal;font-style:normal;font-weight:normal;text-anchor:middle;" transform="rotate(-0, 1866.320182, 533.973438)" x="1866.320182" y="533.973438">350</text>
     </g>
    </g>
    <g id="xtick_9">
     <g id="line2d_9">
      <g>
       <use style="fill:#262626;stroke:#262626;stroke-width:0.8;" x="2088.400208" xlink:href="#m6280cd8aa9" y="509"/>
      </g>
     </g>
     <g id="text_9">
      <text style="fill:#262626;font-family:Arial;font-size:30px;font-stretch:normal;font-style:normal;font-weight:normal;text-anchor:middle;" transform="rotate(-0, 2088.400208, 533.973438)" x="2088.400208" y="533.973438">400</text>
     </g>
    </g>
    <g id="text_10">
     <text style="fill:#262626;font-family:Arial;font-size:30px;font-stretch:normal;font-style:normal;font-weight:normal;text-anchor:middle;" transform="rotate(-0, 1278.216, 565.775)" x="1278.216" y="565.775">Distance (um)</text>
    </g>
   </g>
   <g id="matplotlib.axis_2">
    <g id="ytick_1">
     <g id="line2d_10">
      <defs>
       <path d="M 0 0 
L 3.5 0 
" id="m201b8f5336" style="stroke:#262626;stroke-width:0.8;"/>
      </defs>
      <g>
       <use style="fill:#262626;stroke:#262626;stroke-width:0.8;" x="306.76" xlink:href="#m201b8f5336" y="504"/>
      </g>
     </g>
     <g id="text_11">
      <text style="fill:#262626;font-family:Arial;font-size:30px;font-stretch:normal;font-style:normal;font-weight:normal;text-anchor:end;" transform="rotate(-0, 303.26, 514.736719)" x="303.26" y="514.736719">0</text>
     </g>
    </g>
    <g id="ytick_2">
     <g id="line2d_11">
      <g>
       <use style="fill:#262626;stroke:#262626;stroke-width:0.8;" x="306.76" xlink:href="#m201b8f5336" y="431.52"/>
      </g>
     </g>
     <g id="text_12">
      <text style="fill:#262626;font-family:Arial;font-size:30px;font-stretch:normal;font-style:normal;font-weight:normal;text-anchor:end;" transform="rotate(-0, 303.26, 442.256719)" x="303.26" y="442.256719">5</text>
     </g>
    </g>
    <g id="ytick_3">
     <g id="line2d_12">
      <g>
       <use style="fill:#262626;stroke:#262626;stroke-width:0.8;" x="306.76" xlink:href="#m201b8f5336" y="359.04"/>
      </g>
     </g>
     <g id="text_13">
      <text style="fill:#262626;font-family:Arial;font-size:30px;font-stretch:normal;font-style:normal;font-weight:normal;text-anchor:end;" transform="rotate(-0, 303.26, 369.776719)" x="303.26" y="369.776719">10</text>
     </g>
    </g>
    <g id="ytick_4">
     <g id="line2d_13">
      <g>
       <use style="fill:#262626;stroke:#262626;stroke-width:0.8;" x="306.76" xlink:href="#m201b8f5336" y="286.56"/>
      </g>
     </g>
     <g id="text_14">
      <text style="fill:#262626;font-family:Arial;font-size:30px;font-stretch:normal;font-style:normal;font-weight:normal;text-anchor:end;" transform="rotate(-0, 303.26, 297.296719)" x="303.26" y="297.296719">15</text>
     </g>
    </g>
    <g id="ytick_5">
     <g id="line2d_14">
      <g>
       <use style="fill:#262626;stroke:#262626;stroke-width:0.8;" x="306.76" xlink:href="#m201b8f5336" y="214.08"/>
      </g>
     </g>
     <g id="text_15">
      <text style="fill:#262626;font-family:Arial;font-size:30px;font-stretch:normal;font-style:normal;font-weight:normal;text-anchor:end;" transform="rotate(-0, 303.26, 224.816719)" x="303.26" y="224.816719">20</text>
     </g>
    </g>
    <g id="ytick_6">
     <g id="line2d_15">
      <g>
       <use style="fill:#262626;stroke:#262626;stroke-width:0.8;" x="306.76" xlink:href="#m201b8f5336" y="141.6"/>
      </g>
     </g>
     <g id="text_16">
      <text style="fill:#262626;font-family:Arial;font-size:30px;font-stretch:normal;font-style:normal;font-weight:normal;text-anchor:end;" transform="rotate(-0, 303.26, 152.336719)" x="303.26" y="152.336719">25</text>
     </g>
    </g>
    <g id="ytick_7">
     <g id="line2d_16">
      <g>
       <use style="fill:#262626;stroke:#262626;stroke-width:0.8;" x="306.76" xlink:href="#m201b8f5336" y="69.12"/>
      </g>
     </g>
     <g id="text_17">
      <text style="fill:#262626;font-family:Arial;font-size:30px;font-stretch:normal;font-style:normal;font-weight:normal;text-anchor:end;" transform="rotate(-0, 303.26, 79.856719)" x="303.26" y="79.856719">30</text>
     </g>
    </g>
    <g id="text_18">
     <text style="fill:#262626;font-family:Arial;font-size:30px;font-stretch:normal;font-style:normal;font-weight:normal;text-anchor:middle;" transform="rotate(-90, 259.580312, 286.56)" x="259.580312" y="286.56">Intensity (AU)</text>
    </g>
   </g>
   <g id="line2d_17">
    <path clip-path="url(#p2db92b3682)" d="M 311.76 417.618064 
L 312.876322 383.272985 
L 313.434483 369.534542 
L 313.992645 359.912907 
L 314.550806 354.877063 
L 315.108967 353.915369 
L 315.667128 356.183098 
L 316.225289 361.077539 
L 316.78345 368.227831 
L 317.899772 387.840654 
L 318.457934 398.363637 
L 319.016095 406.552231 
L 319.574256 410.178223 
L 320.132417 408.366342 
L 321.8069 390.264613 
L 322.365062 390.450041 
L 322.923223 396.327022 
L 323.481384 407.429057 
L 325.714028 463.76634 
L 326.272189 471.179811 
L 326.830351 475.621743 
L 327.388512 477.941332 
L 327.946673 478.845362 
L 328.504834 478.91255 
L 329.062995 478.432569 
L 329.621156 477.168793 
L 330.179317 474.467606 
L 330.737478 469.852975 
L 332.411962 452.188282 
L 332.970123 449.057487 
L 333.528284 448.07554 
L 334.086445 448.821381 
L 335.202768 452.078573 
L 335.760929 452.75137 
L 336.31909 452.245078 
L 336.877251 450.6425 
L 337.435412 448.092423 
L 338.551734 442.329928 
L 339.109895 441.200148 
L 339.668057 442.358701 
L 340.226218 445.543128 
L 341.34254 453.615265 
L 341.900701 456.498617 
L 342.458862 458.043542 
L 343.017023 458.416855 
L 343.575185 457.901612 
L 344.133346 456.588761 
L 344.691507 454.376062 
L 345.249668 450.96452 
L 345.807829 445.816544 
L 346.36599 438.47758 
L 347.482312 417.949084 
L 348.598635 394.771792 
L 349.156796 385.595471 
L 349.714957 380.030309 
L 350.273118 378.622387 
L 350.831279 381.375999 
L 351.38944 388.23467 
L 351.947602 398.745118 
L 353.622085 436.596298 
L 354.180246 446.534365 
L 354.738407 453.668482 
L 355.296568 457.061038 
L 355.854729 456.264446 
L 356.412891 451.974672 
L 357.529213 440.293671 
L 358.087374 435.744181 
L 358.645535 432.305381 
L 359.203696 429.67711 
L 359.761857 427.664025 
L 360.320018 426.418974 
L 360.87818 426.565412 
L 361.436341 428.761877 
L 361.994502 433.143133 
L 363.668985 450.883745 
L 364.227146 454.386763 
L 364.785308 455.166287 
L 365.343469 453.038519 
L 366.459791 444.97565 
L 367.017952 442.43352 
L 367.576113 442.010932 
L 368.134274 443.428447 
L 369.808758 450.515723 
L 370.366919 451.452 
L 370.92508 451.350801 
L 371.483241 450.438601 
L 373.157725 446.636412 
L 373.715886 445.416152 
L 374.274047 443.738078 
L 375.390369 439.734871 
L 375.94853 438.709022 
L 376.506691 439.545258 
L 377.064852 443.0687 
L 377.623014 449.560033 
L 378.739336 466.214955 
L 379.297497 471.427211 
L 379.855658 472.541133 
L 380.413819 470.101699 
L 382.646464 451.637838 
L 383.204625 448.413857 
L 383.762786 445.878914 
L 384.320947 444.774194 
L 384.879108 446.188564 
L 385.437269 450.537442 
L 386.553592 462.831083 
L 387.111753 466.351368 
L 387.669914 466.519622 
L 388.228075 463.941546 
L 389.344397 456.143753 
L 389.902558 453.332267 
L 390.46072 451.881335 
L 391.018881 451.901366 
L 391.577042 453.455522 
L 392.693364 458.391017 
L 393.251525 458.71224 
L 393.809686 456.178152 
L 396.042331 438.545078 
L 396.600492 435.348966 
L 397.158653 433.067355 
L 397.716814 431.516943 
L 398.274975 429.527222 
L 398.833137 425.753324 
L 399.391298 419.531015 
L 400.50762 400.606396 
L 401.623942 381.482313 
L 402.182103 377.489798 
L 402.740265 379.998828 
L 403.298426 389.184974 
L 404.972909 428.358168 
L 405.53107 435.669959 
L 406.089231 439.852923 
L 408.321876 450.942156 
L 408.880037 452.082955 
L 409.438198 451.717861 
L 409.996359 450.509334 
L 410.55452 449.030849 
L 411.112681 446.941071 
L 411.670843 443.096465 
L 412.229004 436.14618 
L 412.787165 425.118739 
L 413.903487 392.393212 
L 414.461648 375.252874 
L 415.019809 362.328996 
L 415.577971 356.645026 
L 416.136132 359.206025 
L 416.694293 368.584861 
L 418.368776 407.961069 
L 418.926937 417.498791 
L 419.485098 424.030486 
L 420.04326 428.201522 
L 420.601421 430.877078 
L 421.159582 432.481656 
L 422.275904 434.411889 
L 423.950388 438.679131 
L 424.508549 439.383257 
L 425.06671 439.419717 
L 425.624871 439.153535 
L 426.183032 439.328465 
L 427.299354 441.490117 
L 427.857515 441.595243 
L 428.415677 439.804513 
L 429.531999 434.031225 
L 430.09016 433.737316 
L 430.648321 436.404499 
L 432.322805 451.015858 
L 432.880966 454.240872 
L 433.439127 456.38188 
L 433.997288 457.799972 
L 435.11361 459.660675 
L 435.671771 460.186748 
L 436.788094 460.596899 
L 437.346255 460.714798 
L 437.904416 460.403429 
L 438.462577 459.284221 
L 439.578899 455.315826 
L 440.13706 454.058844 
L 440.695221 454.415845 
L 441.253383 456.390525 
L 442.927866 464.5693 
L 445.160511 472.994912 
L 445.718672 474.142738 
L 446.834994 475.45311 
L 447.393155 475.734012 
L 447.951316 474.914996 
L 448.509477 472.465217 
L 451.300283 453.665876 
L 451.858444 447.931763 
L 453.532928 427.419268 
L 454.091089 424.788356 
L 454.64925 425.786285 
L 455.207411 429.487939 
L 456.323733 437.959382 
L 456.881894 439.139351 
L 457.440055 437.059711 
L 457.998217 432.0306 
L 458.556378 424.58067 
L 460.230861 396.658623 
L 460.789022 390.794048 
L 461.347183 388.699643 
L 461.905344 390.14071 
L 462.463506 394.09701 
L 463.021667 399.566377 
L 464.137989 414.170214 
L 465.254311 431.133323 
L 466.370634 443.265196 
L 467.486956 453.634243 
L 468.045117 457.310685 
L 468.603278 458.065867 
L 469.161439 455.577818 
L 470.277761 447.036452 
L 470.835923 445.101957 
L 471.394084 446.092917 
L 471.952245 449.432491 
L 474.743051 470.875153 
L 475.301212 470.667082 
L 475.859373 467.203096 
L 476.975695 454.494164 
L 478.092017 441.769095 
L 478.650178 437.603643 
L 479.766501 432.203061 
L 480.324662 427.903466 
L 480.882823 420.208202 
L 481.440984 408.002981 
L 483.115468 358.843696 
L 483.673629 348.230813 
L 484.23179 343.666883 
L 484.789951 344.548178 
L 485.348112 349.423246 
L 485.906273 357.065944 
L 486.464434 366.902828 
L 487.580757 392.191531 
L 488.697079 419.163644 
L 489.25524 428.924389 
L 489.813401 434.458585 
L 490.371562 436.234921 
L 490.929723 435.906775 
L 491.487884 435.358331 
L 492.046046 435.865783 
L 492.604207 437.595533 
L 493.720529 441.556772 
L 494.27869 442.351723 
L 494.836851 442.021907 
L 495.395012 440.750237 
L 495.953174 438.869404 
L 497.069496 433.940156 
L 498.185818 428.078276 
L 499.30214 420.46746 
L 499.860301 415.456792 
L 500.418463 409.187332 
L 501.534785 392.278557 
L 504.325591 341.840128 
L 504.883752 337.167302 
L 505.441913 335.985678 
L 506.000074 338.196887 
L 506.558235 343.223737 
L 508.232718 363.299722 
L 509.349041 380.099604 
L 510.465363 400.373626 
L 511.023524 408.37861 
L 511.581685 413.982861 
L 512.698008 423.253177 
L 514.372491 439.362552 
L 514.930652 442.526015 
L 515.488813 444.153377 
L 516.046974 444.181012 
L 516.605135 442.80449 
L 518.279619 436.789529 
L 518.83778 435.103391 
L 519.395941 432.824409 
L 521.628586 421.54776 
L 522.186747 419.802182 
L 523.303069 417.51957 
L 523.86123 416.414019 
L 524.419391 414.787294 
L 524.977552 412.694848 
L 525.535714 411.232635 
L 526.093875 412.159199 
L 526.652036 416.468834 
L 528.326519 435.736683 
L 528.88468 438.611646 
L 529.442841 439.669974 
L 530.001003 439.903683 
L 530.559164 439.74383 
L 531.117325 439.076938 
L 532.233647 436.616105 
L 534.466292 431.170609 
L 535.024453 430.664357 
L 535.582614 431.987226 
L 536.140775 435.912343 
L 537.815258 455.763733 
L 538.37342 458.712721 
L 538.931581 458.528878 
L 539.489742 456.490204 
L 542.280548 443.451071 
L 542.838709 441.326481 
L 543.39687 441.00547 
L 543.955031 442.677101 
L 546.187675 453.880781 
L 546.745837 455.696292 
L 547.303998 455.926057 
L 547.862159 454.03526 
L 548.978481 447.087697 
L 549.536642 446.619551 
L 550.094803 451.143579 
L 550.652964 460.743068 
L 551.769287 485.870643 
L 552.327448 495.16476 
L 552.885609 499.643711 
L 553.44377 499.247546 
L 554.001931 494.904896 
L 554.560092 487.859297 
L 557.350898 444.642974 
L 557.909059 438.610616 
L 559.025381 429.776658 
L 560.141704 421.217398 
L 561.258026 412.367644 
L 561.816187 409.832664 
L 562.374348 409.871772 
L 562.932509 412.834717 
L 563.490671 418.230516 
L 565.165154 437.485296 
L 565.723315 442.610208 
L 566.281476 446.64877 
L 566.839637 449.123646 
L 567.397798 449.442036 
L 567.95596 447.32369 
L 568.514121 443.168928 
L 570.188604 427.588248 
L 570.746765 424.787756 
L 571.304926 424.005947 
L 571.863087 424.292903 
L 572.421249 424.327685 
L 572.97941 423.630078 
L 573.537571 423.189175 
L 574.095732 424.822601 
L 574.653893 429.578276 
L 575.770215 445.627997 
L 576.886538 462.94332 
L 577.444699 469.068319 
L 578.00286 471.860434 
L 578.561021 470.771116 
L 579.119182 465.941496 
L 579.677343 458.120904 
L 581.351827 429.851401 
L 581.909988 423.45577 
L 582.468149 420.700378 
L 583.02631 422.45817 
L 583.584471 428.299194 
L 584.700794 443.148002 
L 585.258955 447.439369 
L 585.817116 448.10441 
L 586.375277 445.363959 
L 587.491599 434.419122 
L 588.607921 421.061972 
L 589.166083 412.051972 
L 589.724244 400.256063 
L 591.956888 341.059727 
L 592.515049 333.719306 
L 593.073211 333.713789 
L 593.631372 340.956554 
L 594.747694 367.618086 
L 595.864016 394.99637 
L 596.980338 418.288647 
L 598.096661 436.486345 
L 598.654822 442.677853 
L 599.212983 446.564995 
L 599.771144 448.463749 
L 600.329305 449.050566 
L 600.887466 449.161088 
L 601.445627 449.880141 
L 602.003789 452.291751 
L 602.56195 456.909294 
L 603.120111 463.579487 
L 604.794594 486.356088 
L 605.352755 489.999339 
L 605.910917 489.844202 
L 606.469078 485.873305 
L 607.5854 472.447708 
L 608.143561 468.109162 
L 608.701722 467.777482 
L 609.259883 470.983227 
L 610.376206 479.73049 
L 610.934367 481.258585 
L 611.492528 480.00798 
L 612.60885 473.981206 
L 613.167011 472.139748 
L 613.725172 472.101604 
L 614.283334 473.875427 
L 615.399656 479.939701 
L 615.957817 481.114508 
L 616.515978 478.442183 
L 617.074139 470.564064 
L 617.6323 457.424678 
L 619.306784 408.025752 
L 619.864945 399.166858 
L 620.423106 398.209912 
L 620.981267 404.769402 
L 622.097589 430.327166 
L 622.655751 443.475006 
L 623.213912 453.949245 
L 623.772073 460.7778 
L 624.330234 464.128359 
L 624.888395 465.16668 
L 626.004717 465.601068 
L 626.562878 465.960949 
L 627.12104 466.546128 
L 627.679201 467.853355 
L 628.795523 472.352574 
L 629.353684 473.03038 
L 629.911845 471.097991 
L 631.028167 463.205643 
L 631.586329 461.434674 
L 632.14449 462.630186 
L 633.818973 471.880855 
L 634.377134 471.855444 
L 634.935295 469.266904 
L 636.609779 456.103478 
L 637.16794 453.994152 
L 637.726101 453.8227 
L 638.284262 455.291849 
L 638.842423 458.132413 
L 639.958746 466.73109 
L 640.516907 471.126484 
L 641.075068 474.144029 
L 641.633229 475.020098 
L 642.19139 473.776344 
L 643.865874 465.979882 
L 644.424035 465.541032 
L 644.982196 466.716233 
L 645.540357 468.940596 
L 646.098518 471.971478 
L 647.773001 483.727351 
L 648.331163 485.471454 
L 648.889324 484.501865 
L 649.447485 481.034667 
L 651.121968 466.421153 
L 651.680129 463.271742 
L 652.23829 462.249975 
L 652.796452 463.439849 
L 654.470935 471.035775 
L 655.029096 471.056508 
L 655.587257 469.543815 
L 656.145418 467.688907 
L 656.70358 466.501536 
L 657.261741 466.132976 
L 657.819902 466.062825 
L 658.936224 465.489961 
L 659.494385 465.731231 
L 660.052546 467.085167 
L 660.610707 469.517984 
L 661.72703 475.068622 
L 662.285191 476.2258 
L 662.843352 475.302154 
L 663.401513 472.558339 
L 665.075997 461.96044 
L 666.192319 457.132111 
L 666.75048 455.317763 
L 667.308641 454.252405 
L 667.866802 454.56096 
L 668.424963 456.652425 
L 670.099447 466.803454 
L 670.657608 467.24963 
L 671.215769 465.4596 
L 672.332091 458.452189 
L 673.448414 451.370971 
L 674.006575 449.305449 
L 674.564736 449.115738 
L 675.122897 450.704746 
L 675.681058 453.058674 
L 676.239219 454.710317 
L 676.79738 454.281327 
L 677.355541 450.994083 
L 679.030025 432.564658 
L 679.588186 429.063548 
L 680.146347 427.852213 
L 681.82083 427.606713 
L 682.378992 428.173783 
L 682.937153 430.253581 
L 684.611636 441.241975 
L 685.169797 442.795508 
L 685.727958 443.005447 
L 686.28612 443.057276 
L 686.844281 443.855935 
L 687.402442 445.749631 
L 687.960603 448.896088 
L 688.518764 453.40689 
L 690.193247 470.477628 
L 690.751409 474.170795 
L 691.30957 475.381651 
L 691.867731 473.607569 
L 692.425892 468.946575 
L 692.984053 461.837749 
L 693.542214 452.447683 
L 694.658537 426.890412 
L 695.774859 401.489682 
L 696.33302 395.795034 
L 696.891181 397.24606 
L 697.449342 405.246091 
L 699.123826 441.139072 
L 699.681987 446.601561 
L 700.240148 444.881462 
L 700.798309 435.607599 
L 702.472792 391.176632 
L 703.030954 385.204443 
L 703.589115 388.038191 
L 704.147276 398.44131 
L 705.821759 440.816068 
L 706.37992 449.974783 
L 706.938081 456.136117 
L 707.496243 460.445563 
L 708.054404 463.768311 
L 708.612565 466.351103 
L 709.170726 468.033014 
L 709.728887 468.62349 
L 710.287048 468.255735 
L 710.845209 467.31729 
L 711.40337 465.832221 
L 711.961532 463.237432 
L 712.519693 459.124992 
L 713.636015 448.855549 
L 714.194176 444.738053 
L 714.752337 442.125632 
L 715.310498 441.139737 
L 715.86866 441.466307 
L 716.426821 442.234897 
L 716.984982 442.312245 
L 717.543143 441.05351 
L 718.659465 436.760053 
L 719.217626 436.042683 
L 719.775787 436.896914 
L 720.89211 439.999242 
L 721.450271 440.769483 
L 722.008432 440.890694 
L 722.566593 440.463221 
L 723.124754 439.44554 
L 723.682915 437.881336 
L 724.241077 435.856263 
L 725.91556 428.352786 
L 726.473721 427.410442 
L 727.031882 427.862206 
L 727.590043 429.20662 
L 729.264527 434.659913 
L 730.380849 437.947084 
L 730.93901 438.821948 
L 731.497171 438.714014 
L 732.055332 437.671157 
L 732.613494 436.337039 
L 733.171655 435.478764 
L 733.729816 435.457378 
L 735.404299 437.410232 
L 735.96246 437.783223 
L 736.520621 438.460512 
L 737.078783 439.809639 
L 738.195105 443.611539 
L 738.753266 444.896492 
L 739.311427 445.280172 
L 739.869588 444.858234 
L 740.98591 442.909064 
L 741.544072 442.357994 
L 742.102233 442.752419 
L 742.660394 444.269194 
L 743.776716 449.71216 
L 744.893038 454.927617 
L 745.4512 456.551443 
L 746.009361 457.15891 
L 746.567522 456.590063 
L 747.125683 455.111721 
L 748.242005 450.992598 
L 748.800166 448.660817 
L 749.358327 446.848075 
L 749.916489 446.463053 
L 750.47465 447.803731 
L 751.590972 453.251445 
L 752.707294 459.315669 
L 754.939939 473.764435 
L 755.4981 475.281505 
L 756.056261 474.803982 
L 756.614422 472.442848 
L 758.288906 462.370097 
L 758.847067 460.64981 
L 759.405228 459.799438 
L 759.963389 459.155149 
L 760.52155 458.185073 
L 762.754195 452.60952 
L 764.986839 445.17384 
L 765.545 443.778738 
L 766.103161 441.256535 
L 766.661323 436.37531 
L 767.219484 428.738819 
L 768.893967 401.942907 
L 769.452128 397.088948 
L 770.010289 395.838843 
L 770.56845 398.796189 
L 771.126612 406.485337 
L 771.684773 418.686413 
L 773.359256 462.399146 
L 773.917417 472.140947 
L 774.475578 478.176586 
L 775.03374 481.155605 
L 775.591901 482.38313 
L 777.266384 484.798054 
L 777.824545 483.881882 
L 778.382706 479.789234 
L 778.940867 471.638947 
L 779.499029 459.507324 
L 781.731673 400.539909 
L 782.289834 395.667654 
L 782.847995 398.061272 
L 783.406157 407.095392 
L 784.522479 436.712559 
L 785.638801 464.907595 
L 786.196962 474.166657 
L 786.755123 479.86735 
L 787.313284 482.836844 
L 787.871446 484.152594 
L 789.545929 485.98748 
L 790.10409 486.384182 
L 790.662251 485.732833 
L 791.220412 483.817636 
L 791.778573 481.365771 
L 792.336735 479.443857 
L 792.894896 478.54427 
L 793.453057 478.212668 
L 794.011218 477.349383 
L 794.569379 474.865656 
L 795.12754 470.378352 
L 796.243863 458.734492 
L 796.802024 454.363328 
L 797.360185 452.263038 
L 797.918346 452.668245 
L 798.476507 455.58298 
L 799.592829 466.478876 
L 800.15099 471.787312 
L 800.709152 475.760332 
L 801.267313 478.244525 
L 801.825474 479.242681 
L 802.383635 478.897052 
L 802.941796 477.588618 
L 804.058118 474.284742 
L 804.61628 473.393728 
L 805.174441 473.282021 
L 805.732602 473.544787 
L 806.290763 473.468884 
L 806.848924 472.351068 
L 807.407085 469.899139 
L 809.081569 458.844078 
L 809.63973 456.685841 
L 810.197891 456.809673 
L 810.756052 459.534445 
L 812.430535 473.589956 
L 812.988697 474.780859 
L 813.546858 473.12142 
L 814.66318 466.667572 
L 815.221341 464.553686 
L 815.779502 463.779994 
L 816.337663 464.208209 
L 816.895824 465.633599 
L 818.012147 469.832615 
L 818.570308 471.27776 
L 819.128469 471.722948 
L 820.244791 471.358664 
L 820.802952 471.741891 
L 821.919275 473.501958 
L 822.477436 473.997546 
L 823.035597 473.850834 
L 824.151919 472.909549 
L 824.71008 472.891272 
L 825.826403 473.430363 
L 826.384564 473.367383 
L 826.942725 472.480195 
L 827.500886 470.577445 
L 828.617208 465.787592 
L 829.175369 464.054822 
L 829.73353 462.843013 
L 830.291692 462.05948 
L 830.849853 461.877711 
L 831.408014 462.518635 
L 831.966175 463.955021 
L 833.082497 468.13696 
L 834.19882 472.325892 
L 834.756981 473.903077 
L 835.315142 475.03583 
L 835.873303 475.852254 
L 836.431464 476.265439 
L 836.989625 475.652522 
L 837.547786 473.356884 
L 838.105947 469.439508 
L 839.22227 460.176579 
L 839.780431 456.797044 
L 840.338592 454.755192 
L 842.013075 450.921948 
L 842.571237 450.199345 
L 843.129398 450.228436 
L 843.687559 450.904543 
L 844.803881 453.479698 
L 846.478364 457.556427 
L 848.152848 462.855845 
L 848.711009 463.591212 
L 849.26917 462.498319 
L 849.827331 459.26932 
L 850.943653 450.462313 
L 851.501815 447.729467 
L 852.059976 446.760285 
L 852.618137 446.990599 
L 853.176298 447.831278 
L 854.850781 451.410696 
L 855.408943 451.809315 
L 855.967104 451.431941 
L 857.083426 449.601761 
L 857.641587 449.017819 
L 858.757909 448.395373 
L 859.31607 448.253757 
L 859.874232 448.617616 
L 860.432393 449.673521 
L 860.990554 451.364365 
L 862.106876 456.316307 
L 863.223198 461.2156 
L 864.339521 464.776892 
L 864.897682 466.100069 
L 865.455843 467.01157 
L 866.014004 467.230387 
L 866.572165 466.54403 
L 867.130326 465.038141 
L 867.688487 462.87442 
L 868.246649 460.07405 
L 869.362971 452.469354 
L 869.921132 447.333532 
L 870.479293 440.616568 
L 871.037454 431.89613 
L 873.270099 390.964687 
L 873.82826 385.748234 
L 874.386421 383.07005 
L 874.944582 382.482687 
L 875.502743 383.957538 
L 876.060904 387.647456 
L 876.619066 393.395312 
L 880.526193 441.162972 
L 881.084355 444.219106 
L 881.642516 444.564644 
L 882.200677 442.96269 
L 882.758838 440.814162 
L 883.316999 439.363584 
L 883.87516 439.275907 
L 884.433321 440.536067 
L 885.549644 444.327424 
L 886.107805 445.498085 
L 886.665966 446.128156 
L 887.224127 446.393201 
L 887.782288 446.129296 
L 888.340449 445.158364 
L 889.456772 442.191895 
L 890.014933 441.187088 
L 890.573094 441.165276 
L 891.131255 442.566571 
L 892.805738 451.374216 
L 893.3639 452.641892 
L 893.922061 452.55626 
L 894.480222 451.614073 
L 895.038383 450.107669 
L 895.596544 447.98429 
L 896.712866 443.012785 
L 897.271027 441.458263 
L 897.829189 441.192803 
L 898.38735 442.708062 
L 898.945511 446.134697 
L 900.619994 459.905499 
L 901.178155 463.4732 
L 901.736316 466.277271 
L 902.294478 468.431076 
L 902.852639 470.008466 
L 903.4108 470.695003 
L 903.968961 469.786948 
L 904.527122 466.832632 
L 905.643444 457.534039 
L 906.201606 454.276582 
L 906.759767 453.791179 
L 907.317928 456.242664 
L 908.992411 469.386018 
L 909.550572 471.617743 
L 910.108733 471.99818 
L 910.666895 470.777623 
L 911.225056 468.361587 
L 912.341378 462.327742 
L 912.899539 460.217452 
L 913.4577 459.194773 
L 914.015861 458.950769 
L 914.574023 458.923863 
L 915.132184 458.471405 
L 915.690345 457.085387 
L 916.806667 452.453176 
L 917.364828 451.85889 
L 917.922989 454.589827 
L 918.48115 460.829468 
L 919.597473 475.955942 
L 920.155634 479.843228 
L 920.713795 479.408179 
L 921.271956 474.719474 
L 921.830117 466.798174 
L 924.620923 418.872865 
L 925.179084 412.047448 
L 925.737245 407.738487 
L 926.295406 406.907428 
L 926.853567 409.563215 
L 927.411729 414.772583 
L 928.528051 427.112994 
L 929.086212 431.63257 
L 929.644373 434.442472 
L 930.202534 435.893654 
L 930.760695 436.271451 
L 931.877018 435.38969 
L 932.435179 435.684101 
L 932.99334 436.962161 
L 933.551501 438.702672 
L 934.109662 439.966399 
L 934.667823 439.803579 
L 935.225984 437.478442 
L 935.784146 432.179071 
L 936.342307 422.847337 
L 936.900468 408.952921 
L 938.574951 357.112041 
L 939.133112 346.965595 
L 939.691273 344.214853 
L 940.249435 348.597368 
L 940.807596 358.950036 
L 941.923918 391.674045 
L 943.04024 425.498503 
L 943.598401 437.670701 
L 944.156563 445.814093 
L 944.714724 450.059796 
L 945.272885 450.904003 
L 945.831046 449.528472 
L 946.389207 447.566852 
L 946.947368 446.42173 
L 947.505529 446.756432 
L 948.06369 448.331661 
L 949.180013 452.345721 
L 949.738174 453.90051 
L 950.854496 456.058001 
L 951.412657 456.977677 
L 951.970818 458.501581 
L 952.528979 461.310406 
L 954.203463 472.948293 
L 954.761624 475.924519 
L 955.319785 478.280896 
L 955.877946 479.896248 
L 956.436107 480.541171 
L 956.994269 479.855534 
L 957.55243 477.670389 
L 958.668752 472.095937 
L 959.226913 470.636709 
L 959.785074 469.757706 
L 960.343235 468.561816 
L 960.901396 466.468367 
L 961.459558 463.345959 
L 963.134041 452.302619 
L 963.692202 449.431282 
L 964.250363 447.381042 
L 964.808524 446.241194 
L 967.041169 444.220371 
L 967.59933 444.511453 
L 968.157491 446.209792 
L 968.715652 449.762727 
L 969.831975 461.676633 
L 970.390136 467.46974 
L 970.948297 470.928555 
L 971.506458 471.397766 
L 972.064619 469.277091 
L 973.739103 458.471701 
L 976.529908 446.713524 
L 978.204392 438.015959 
L 978.762553 437.556801 
L 979.320714 439.788275 
L 980.995197 452.911852 
L 981.553358 454.867725 
L 982.111519 455.148409 
L 983.227842 454.696226 
L 983.786003 454.426019 
L 984.344164 453.43804 
L 985.460486 449.334648 
L 987.13497 443.227699 
L 987.693131 441.485557 
L 988.251292 440.980727 
L 988.809453 442.517378 
L 989.367614 446.232075 
L 991.042098 460.833893 
L 991.600259 462.513604 
L 992.15842 461.998039 
L 993.274742 458.792296 
L 993.832903 458.109189 
L 994.391064 458.974252 
L 994.949226 461.398112 
L 996.065548 467.452194 
L 996.623709 469.069696 
L 997.18187 469.039008 
L 997.740031 467.306134 
L 1001.088998 448.553454 
L 1001.647159 446.45684 
L 1002.20532 445.935381 
L 1002.763481 446.468982 
L 1003.321643 447.550627 
L 1004.437965 450.907936 
L 1004.996126 451.846022 
L 1005.554287 451.205858 
L 1006.670609 447.738376 
L 1007.22877 446.90098 
L 1007.786932 446.811447 
L 1008.903254 447.249991 
L 1009.461415 447.883926 
L 1010.019576 449.15644 
L 1011.694059 454.296446 
L 1012.252221 455.020913 
L 1012.810382 455.387002 
L 1013.368543 456.045016 
L 1014.484865 458.754407 
L 1016.159349 462.724717 
L 1016.71751 463.545622 
L 1017.275671 463.627843 
L 1017.833832 462.593138 
L 1018.391993 459.502789 
L 1018.950154 453.255679 
L 1019.508315 443.570909 
L 1021.74096 394.223135 
L 1022.299121 389.39759 
L 1022.857282 391.042917 
L 1023.415443 398.720758 
L 1025.648088 444.585502 
L 1026.206249 451.329953 
L 1026.76441 456.072885 
L 1027.322571 459.166556 
L 1027.880732 460.455124 
L 1028.438893 459.974997 
L 1028.997055 458.65192 
L 1029.555216 457.809035 
L 1030.113377 458.218919 
L 1030.671538 459.802342 
L 1034.020505 472.167556 
L 1034.578666 473.661264 
L 1035.136827 474.285561 
L 1035.694988 473.904687 
L 1036.253149 472.553111 
L 1036.81131 470.423644 
L 1037.369472 467.162068 
L 1037.927633 461.48235 
L 1038.485794 452.1313 
L 1039.043955 438.826778 
L 1041.276599 375.468304 
L 1041.834761 369.38693 
L 1042.392922 370.017929 
L 1042.951083 376.981754 
L 1043.509244 389.015606 
L 1044.625566 418.535675 
L 1045.183727 430.441981 
L 1045.741889 438.136478 
L 1046.30005 441.278151 
L 1046.858211 440.309692 
L 1047.974533 433.060304 
L 1048.532694 432.507002 
L 1049.090855 436.40436 
L 1050.765339 456.590082 
L 1051.3235 458.474854 
L 1051.881661 456.865476 
L 1052.439822 452.825488 
L 1053.556144 443.353223 
L 1054.114306 439.969104 
L 1054.672467 438.000662 
L 1055.230628 437.742245 
L 1055.788789 439.338896 
L 1056.34695 442.041239 
L 1056.905111 443.960633 
L 1057.463272 442.904202 
L 1058.021433 437.750014 
L 1059.137756 420.74757 
L 1059.695917 414.976851 
L 1060.254078 414.364346 
L 1060.812239 419.578131 
L 1061.3704 429.661157 
L 1062.486722 453.742971 
L 1063.044884 462.277729 
L 1063.603045 467.241992 
L 1064.161206 469.274396 
L 1064.719367 469.176554 
L 1065.277528 467.781371 
L 1066.39385 463.84646 
L 1067.510173 459.322253 
L 1068.068334 457.666079 
L 1068.626495 456.912418 
L 1069.184656 457.111272 
L 1069.742817 458.146654 
L 1070.859139 460.765153 
L 1071.417301 461.077603 
L 1071.975462 460.444449 
L 1073.091784 458.122632 
L 1073.649945 457.643318 
L 1074.208106 457.738157 
L 1074.766267 457.649022 
L 1075.324429 456.503176 
L 1076.998912 449.796307 
L 1077.557073 450.16331 
L 1078.115234 452.621957 
L 1079.789718 462.642335 
L 1080.347879 465.125101 
L 1080.90604 466.969122 
L 1081.464201 468.317773 
L 1082.022362 469.216943 
L 1082.580523 469.321912 
L 1083.138684 468.358162 
L 1083.696846 466.477508 
L 1084.813168 462.053135 
L 1085.371329 460.753922 
L 1085.92949 460.40915 
L 1086.487651 460.918977 
L 1087.045812 462.277692 
L 1088.162135 466.113224 
L 1088.720296 466.27221 
L 1089.278457 463.904812 
L 1089.836618 459.286239 
L 1090.95294 447.692903 
L 1091.511101 443.380022 
L 1092.069262 441.933416 
L 1092.627424 444.270365 
L 1093.185585 450.10062 
L 1094.301907 464.518535 
L 1094.860068 468.466681 
L 1095.418229 468.861855 
L 1095.97639 466.411682 
L 1097.650874 454.907919 
L 1098.209035 453.860058 
L 1098.767196 455.386531 
L 1099.325357 458.958289 
L 1100.999841 472.394878 
L 1101.558002 475.808091 
L 1102.116163 477.661659 
L 1102.674324 477.438995 
L 1103.232485 475.399447 
L 1104.906969 467.159752 
L 1105.46513 465.673074 
L 1106.023291 465.449036 
L 1106.581452 466.667798 
L 1107.139613 469.407648 
L 1107.697774 473.587433 
L 1108.814096 483.379777 
L 1109.372258 486.886374 
L 1109.930419 488.611811 
L 1110.48858 488.455873 
L 1111.046741 486.588499 
L 1112.163063 481.150354 
L 1112.721224 480.218858 
L 1113.279386 481.03912 
L 1113.837547 482.857926 
L 1114.953869 487.700693 
L 1116.070191 492.562986 
L 1116.628352 493.884497 
L 1117.744675 494.854256 
L 1118.302836 495.765124 
L 1118.860997 497.051242 
L 1119.419158 497.866417 
L 1119.977319 497.441863 
L 1120.53548 495.35215 
L 1121.093641 491.407971 
L 1122.768125 475.319077 
L 1123.326286 471.64416 
L 1123.884447 468.969457 
L 1124.442608 466.938604 
L 1126.117092 462.544375 
L 1126.675253 459.8626 
L 1127.791575 452.166595 
L 1128.349736 449.271343 
L 1128.907897 447.710902 
L 1129.466058 447.156941 
L 1130.024219 447.245416 
L 1130.582381 447.940983 
L 1131.140542 449.464434 
L 1132.815025 456.592777 
L 1133.931347 459.424807 
L 1135.04767 461.572514 
L 1136.163992 462.62577 
L 1136.722153 463.695976 
L 1138.396636 469.015533 
L 1138.954798 469.658552 
L 1139.512959 469.45669 
L 1140.07112 468.645243 
L 1140.629281 467.319505 
L 1141.187442 465.451894 
L 1141.745603 463.008653 
L 1142.861925 456.636441 
L 1143.978248 448.875936 
L 1144.536409 443.761981 
L 1145.09457 436.675011 
L 1146.769053 407.585009 
L 1147.327215 403.73392 
L 1147.885376 406.931932 
L 1148.443537 416.738818 
L 1150.11802 456.569707 
L 1150.676181 464.022425 
L 1151.234342 467.356927 
L 1151.792504 467.773827 
L 1152.908826 466.199166 
L 1153.466987 466.685703 
L 1154.025148 468.695998 
L 1154.583309 472.102766 
L 1155.699632 480.618922 
L 1156.257793 483.905069 
L 1156.815954 486.035502 
L 1157.374115 487.195785 
L 1157.932276 487.423449 
L 1158.490437 486.753438 
L 1159.048598 485.477209 
L 1159.606759 483.846654 
L 1160.164921 481.80958 
L 1161.281243 476.162251 
L 1162.955726 466.631334 
L 1163.513887 464.854694 
L 1164.072049 464.441373 
L 1164.63021 465.344483 
L 1165.746532 468.683412 
L 1166.304693 469.788702 
L 1167.421015 471.212656 
L 1167.979176 471.692683 
L 1168.537338 471.672832 
L 1169.095499 471.344345 
L 1169.65366 471.214876 
L 1171.328143 471.822996 
L 1171.886304 471.276956 
L 1172.444465 469.10501 
L 1173.002627 463.849398 
L 1173.560788 454.420006 
L 1174.118949 440.873746 
L 1175.793432 392.266096 
L 1176.351593 380.047512 
L 1176.909755 371.684468 
L 1177.467916 367.484211 
L 1178.026077 367.582613 
L 1178.584238 371.949545 
L 1179.142399 380.090921 
L 1180.258721 402.772154 
L 1181.375044 425.612619 
L 1182.491366 444.169336 
L 1183.049527 451.093409 
L 1183.607688 455.851388 
L 1184.165849 458.455446 
L 1184.72401 459.490308 
L 1185.840333 460.230121 
L 1186.398494 461.101203 
L 1188.072977 465.535474 
L 1188.631138 465.292223 
L 1189.189299 463.179638 
L 1190.863783 453.100258 
L 1191.421944 452.064405 
L 1191.980105 453.284957 
L 1193.654589 461.61966 
L 1194.21275 463.394228 
L 1194.770911 464.477315 
L 1195.329072 464.17197 
L 1195.887233 461.753537 
L 1197.561716 449.042488 
L 1198.119878 447.870473 
L 1198.678039 449.746934 
L 1199.2362 454.200281 
L 1200.352522 464.284662 
L 1200.910683 466.939657 
L 1201.468844 467.178199 
L 1202.027005 464.508589 
L 1202.585167 458.257859 
L 1203.143328 448.168903 
L 1205.375972 396.66293 
L 1205.934133 390.331798 
L 1206.492295 388.40867 
L 1207.050456 390.021294 
L 1207.608617 394.07836 
L 1208.166778 399.914211 
L 1209.2831 415.557259 
L 1210.399422 431.608943 
L 1210.957584 436.981499 
L 1211.515745 440.019276 
L 1212.073906 441.094836 
L 1212.632067 441.240177 
L 1213.190228 442.206399 
L 1213.748389 445.615246 
L 1214.30655 452.139722 
L 1215.422873 472.6222 
L 1215.981034 483.544831 
L 1216.539195 492.092045 
L 1217.097356 496.785517 
L 1217.655517 497.424076 
L 1218.213678 494.95862 
L 1221.004484 474.38568 
L 1222.120806 465.549717 
L 1222.678967 462.889391 
L 1223.237129 462.14653 
L 1223.79529 463.415893 
L 1224.353451 466.301691 
L 1225.469773 473.107514 
L 1226.027934 475.488088 
L 1226.586095 476.853717 
L 1227.144256 477.315887 
L 1227.702418 477.44388 
L 1228.260579 478.041418 
L 1229.376901 480.862363 
L 1229.935062 481.657878 
L 1230.493223 481.310585 
L 1231.051384 479.970666 
L 1232.167707 476.802895 
L 1232.725868 476.197442 
L 1233.284029 476.495913 
L 1234.400351 478.459693 
L 1235.516673 480.831342 
L 1236.632996 484.143717 
L 1237.191157 485.217521 
L 1237.749318 484.830606 
L 1238.307479 482.653204 
L 1241.098285 464.590372 
L 1241.656446 457.315173 
L 1242.214607 445.560231 
L 1243.88909 398.433023 
L 1244.447252 390.032197 
L 1245.005413 388.45763 
L 1245.563574 392.104379 
L 1247.238057 411.595325 
L 1247.796218 415.002487 
L 1248.354379 415.633062 
L 1249.470702 413.538332 
L 1250.028863 414.139141 
L 1250.587024 417.36703 
L 1251.145185 423.455589 
L 1252.819668 446.120359 
L 1253.37783 449.504539 
L 1253.935991 450.109736 
L 1254.494152 449.063405 
L 1255.052313 447.716995 
L 1255.610474 447.074656 
L 1256.168635 447.411375 
L 1257.284958 449.435141 
L 1257.843119 450.700476 
L 1258.40128 452.287143 
L 1258.959441 454.273935 
L 1259.517602 456.803304 
L 1260.075763 460.092466 
L 1261.750247 471.78969 
L 1262.308408 473.76911 
L 1262.866569 473.822684 
L 1263.42473 472.295332 
L 1264.541052 468.548827 
L 1266.215536 465.049468 
L 1266.773697 463.049439 
L 1268.44818 455.937403 
L 1269.006341 454.883639 
L 1269.564502 455.127198 
L 1270.122664 456.631623 
L 1271.238986 461.13123 
L 1271.797147 462.682426 
L 1272.913469 464.789273 
L 1273.47163 466.469694 
L 1274.587953 470.344789 
L 1275.146114 470.742466 
L 1275.704275 469.415147 
L 1276.262436 466.549098 
L 1277.378758 458.982732 
L 1277.936919 456.12354 
L 1278.495081 454.440834 
L 1279.053242 453.515661 
L 1279.611403 452.861893 
L 1280.169564 452.394355 
L 1280.727725 452.504407 
L 1281.285886 453.805902 
L 1281.844047 456.479696 
L 1284.076692 469.734338 
L 1284.634853 472.44286 
L 1285.193014 474.561681 
L 1285.751175 475.528203 
L 1286.309336 475.016869 
L 1286.867498 473.331981 
L 1287.98382 469.039141 
L 1288.541981 467.358398 
L 1289.100142 466.363641 
L 1290.216464 465.655712 
L 1291.332787 464.925323 
L 1292.449109 464.796646 
L 1293.00727 464.22274 
L 1293.565431 462.55656 
L 1294.123592 459.51195 
L 1294.681753 455.037348 
L 1295.798076 442.765061 
L 1297.472559 422.29791 
L 1298.03072 417.828494 
L 1298.588881 416.315406 
L 1299.147042 418.76041 
L 1299.705204 425.490757 
L 1300.821526 444.861388 
L 1301.379687 451.423885 
L 1301.937848 453.273482 
L 1302.496009 451.047603 
L 1303.612332 442.728499 
L 1304.170493 439.864932 
L 1304.728654 438.531279 
L 1305.286815 438.770526 
L 1305.844976 440.623389 
L 1306.961298 447.689826 
L 1307.519459 451.027301 
L 1308.077621 453.298451 
L 1309.193943 456.677418 
L 1309.752104 459.229553 
L 1310.868426 466.678286 
L 1311.984748 474.104735 
L 1312.54291 475.943987 
L 1313.101071 475.619078 
L 1313.659232 472.812726 
L 1314.217393 467.667758 
L 1315.891876 446.55582 
L 1316.450038 441.591931 
L 1317.008199 438.750994 
L 1317.56636 438.239449 
L 1318.124521 440.250951 
L 1319.240843 449.286166 
L 1319.799004 453.528628 
L 1320.357165 456.437102 
L 1320.915327 458.174691 
L 1321.473488 459.137343 
L 1322.031649 459.510817 
L 1322.58981 459.186574 
L 1323.147971 458.064641 
L 1324.264293 455.076838 
L 1324.822455 454.427219 
L 1325.380616 454.761556 
L 1325.938777 456.246592 
L 1327.61326 464.215884 
L 1328.171421 464.253658 
L 1328.729582 462.35581 
L 1329.287744 459.895956 
L 1329.845905 458.169395 
L 1330.404066 457.762029 
L 1330.962227 458.839213 
L 1331.520388 461.480663 
L 1332.078549 465.577113 
L 1333.194871 475.132765 
L 1333.753033 478.376781 
L 1334.311194 479.441678 
L 1334.869355 478.158463 
L 1335.985677 472.973627 
L 1336.543838 471.770099 
L 1337.660161 471.386504 
L 1338.218322 470.60643 
L 1338.776483 468.858787 
L 1339.334644 466.07823 
L 1340.450966 459.45954 
L 1341.009127 457.114483 
L 1341.567288 455.863034 
L 1342.12545 455.427954 
L 1342.683611 455.388588 
L 1343.241772 455.771599 
L 1343.799933 457.127679 
L 1344.358094 459.815899 
L 1345.474416 466.556825 
L 1346.032578 468.58625 
L 1346.590739 469.397978 
L 1347.1489 469.220214 
L 1347.707061 467.519666 
L 1348.265222 463.20042 
L 1348.823383 455.778659 
L 1351.056028 417.555418 
L 1351.614189 411.87876 
L 1352.17235 408.356414 
L 1352.730511 407.002418 
L 1353.288672 407.8807 
L 1353.846833 410.966176 
L 1354.404995 416.015952 
L 1356.637639 440.807499 
L 1357.753961 447.938702 
L 1360.544767 462.343529 
L 1361.661089 465.977444 
L 1362.777411 469.312926 
L 1363.335573 471.444 
L 1363.893734 474.431553 
L 1364.451895 478.47147 
L 1366.126378 493.513511 
L 1366.684539 496.823354 
L 1367.242701 498.433701 
L 1367.800862 498.494069 
L 1368.359023 497.092044 
L 1368.917184 494.390231 
L 1370.033506 486.682607 
L 1371.70799 472.920615 
L 1372.266151 469.629774 
L 1372.824312 467.779229 
L 1373.382473 467.090005 
L 1373.940634 467.160437 
L 1375.056956 468.240152 
L 1375.615118 467.410962 
L 1376.173279 464.298681 
L 1377.289601 455.347158 
L 1377.847762 452.892735 
L 1378.405923 452.640471 
L 1378.964084 454.336837 
L 1379.522245 457.659734 
L 1381.196729 472.290883 
L 1381.75489 474.836659 
L 1382.313051 474.611921 
L 1382.871212 472.263076 
L 1383.987535 466.76311 
L 1384.545696 465.039531 
L 1385.103857 463.851263 
L 1385.662018 463.214021 
L 1386.220179 463.171004 
L 1386.77834 463.257875 
L 1387.336501 462.945684 
L 1387.894662 462.41415 
L 1388.452824 462.430739 
L 1389.010985 463.662569 
L 1389.569146 466.200412 
L 1390.127307 469.353803 
L 1390.685468 471.800536 
L 1391.243629 472.439871 
L 1391.80179 471.362516 
L 1392.359951 469.768153 
L 1392.918113 468.875241 
L 1393.476274 468.985847 
L 1394.034435 469.584701 
L 1394.592596 470.010424 
L 1395.150757 469.717859 
L 1395.708918 468.410472 
L 1396.825241 464.389095 
L 1397.383402 462.873957 
L 1399.057885 459.870416 
L 1399.616046 457.472406 
L 1400.174207 452.928493 
L 1400.732368 445.727373 
L 1402.965013 409.074627 
L 1403.523174 407.070337 
L 1404.081335 409.551072 
L 1406.31398 430.324999 
L 1406.872141 433.013575 
L 1407.430302 434.352596 
L 1407.988463 434.34948 
L 1408.546624 433.428917 
L 1409.104785 432.744618 
L 1409.662947 433.749165 
L 1410.221108 437.335147 
L 1411.33743 450.336438 
L 1411.895591 457.031913 
L 1412.453752 462.357253 
L 1413.011913 465.994694 
L 1413.570075 467.971253 
L 1414.128236 468.4922 
L 1415.244558 467.53907 
L 1415.802719 467.889284 
L 1416.36088 469.569605 
L 1416.919041 472.006595 
L 1417.477202 473.918169 
L 1418.035364 474.168255 
L 1418.593525 472.456315 
L 1419.709847 466.774669 
L 1420.268008 465.738843 
L 1420.826169 466.827507 
L 1422.500653 473.56333 
L 1423.058814 474.957236 
L 1423.616975 475.655786 
L 1424.175136 475.527065 
L 1424.733297 474.56245 
L 1425.291458 472.719519 
L 1425.849619 469.868327 
L 1426.407781 465.959299 
L 1427.524103 456.597772 
L 1428.082264 453.156316 
L 1428.640425 451.659977 
L 1429.198586 451.777027 
L 1429.756747 452.447425 
L 1430.314908 452.760652 
L 1430.87307 452.506816 
L 1431.431231 451.872403 
L 1431.989392 450.928845 
L 1433.663875 447.141048 
L 1434.222036 444.618096 
L 1434.780198 440.020654 
L 1435.338359 433.112792 
L 1437.012842 407.63113 
L 1437.571003 404.33887 
L 1438.129164 407.309594 
L 1438.687325 416.725463 
L 1440.361809 459.736374 
L 1440.91997 468.954964 
L 1441.478131 473.493222 
L 1442.036292 474.252216 
L 1442.594453 472.553323 
L 1443.152614 469.922045 
L 1443.710776 468.105499 
L 1444.268937 468.389218 
L 1444.827098 470.686089 
L 1445.94342 476.308895 
L 1446.501581 477.66234 
L 1447.059742 477.380282 
L 1447.617904 475.374005 
L 1448.734226 469.011261 
L 1449.292387 466.987135 
L 1449.850548 466.626362 
L 1450.408709 467.575614 
L 1450.96687 468.987086 
L 1451.525031 470.012674 
L 1452.083193 470.219358 
L 1452.641354 469.665002 
L 1453.199515 468.730141 
L 1453.757676 468.029596 
L 1454.315837 468.237946 
L 1454.873998 469.602925 
L 1455.432159 471.550535 
L 1455.990321 473.092897 
L 1456.548482 473.785629 
L 1457.106643 474.021003 
L 1457.664804 474.391386 
L 1458.781126 475.618193 
L 1459.339287 475.699777 
L 1459.897448 475.167789 
L 1460.45561 473.982641 
L 1462.130093 468.519061 
L 1462.688254 467.929217 
L 1463.246415 467.756719 
L 1463.804576 467.811437 
L 1464.362738 468.732858 
L 1464.920899 470.909642 
L 1466.037221 476.114271 
L 1466.595382 477.442976 
L 1467.153543 477.608003 
L 1467.711704 476.897788 
L 1468.269865 475.572485 
L 1468.828027 473.624404 
L 1469.386188 470.86813 
L 1469.944349 467.139492 
L 1471.060671 457.373044 
L 1472.176993 447.722772 
L 1472.735154 444.429511 
L 1473.293316 442.954733 
L 1473.851477 443.644449 
L 1474.409638 446.575641 
L 1474.967799 451.437029 
L 1476.642282 468.364462 
L 1477.200444 471.983502 
L 1477.758605 474.13585 
L 1478.316766 474.899042 
L 1478.874927 474.172622 
L 1479.433088 471.536665 
L 1479.991249 466.726048 
L 1481.665733 448.4861 
L 1482.223894 445.15541 
L 1482.782055 443.610892 
L 1483.898377 442.535221 
L 1484.456538 440.744323 
L 1485.014699 436.954161 
L 1485.572861 430.935567 
L 1487.247344 409.452861 
L 1487.805505 406.196991 
L 1488.363666 406.10599 
L 1488.921827 408.940273 
L 1489.479988 414.430274 
L 1490.596311 431.110487 
L 1491.712633 447.180429 
L 1492.828955 458.311654 
L 1493.387116 461.874582 
L 1493.945278 463.610595 
L 1494.503439 463.387002 
L 1495.0616 461.444412 
L 1495.619761 458.061968 
L 1496.177922 453.289181 
L 1497.852405 436.075883 
L 1498.410567 434.968118 
L 1498.968728 438.329185 
L 1500.643211 459.350572 
L 1501.201372 463.490774 
L 1501.759533 464.795631 
L 1502.317694 463.684115 
L 1503.434017 458.124159 
L 1503.992178 455.294695 
L 1504.550339 453.093779 
L 1505.1085 452.243149 
L 1505.666661 453.41346 
L 1507.341145 461.862943 
L 1507.899306 461.176488 
L 1508.457467 457.890402 
L 1509.015628 452.549116 
L 1510.13195 437.120575 
L 1511.248273 420.314797 
L 1511.806434 415.328645 
L 1512.364595 414.64325 
L 1512.922756 418.586798 
L 1514.039078 435.073917 
L 1514.597239 443.460782 
L 1515.155401 450.066406 
L 1515.713562 454.741019 
L 1516.271723 457.961804 
L 1517.388045 462.274082 
L 1518.504367 465.975941 
L 1519.62069 470.803808 
L 1522.969656 487.60067 
L 1523.527817 490.053347 
L 1524.085979 491.489052 
L 1524.64414 491.562682 
L 1525.202301 490.254897 
L 1525.760462 487.808927 
L 1527.993107 475.796422 
L 1529.109429 472.090313 
L 1529.66759 470.385752 
L 1530.225751 468.319718 
L 1531.342073 462.706963 
L 1531.900234 459.870087 
L 1532.458396 457.939716 
L 1533.016557 457.629509 
L 1533.574718 459.522464 
L 1534.132879 463.880413 
L 1536.365524 489.380359 
L 1536.923685 492.705357 
L 1537.481846 494.584949 
L 1538.040007 495.336794 
L 1538.598168 495.185557 
L 1539.156329 494.688466 
L 1539.71449 494.595707 
L 1540.272651 495.262623 
L 1541.388974 497.420941 
L 1541.947135 497.746622 
L 1542.505296 497.44337 
L 1543.621618 496.488714 
L 1544.179779 496.197283 
L 1544.737941 496.20265 
L 1545.296102 496.713994 
L 1546.412424 498.583751 
L 1546.970585 498.913691 
L 1547.528746 498.449789 
L 1548.086907 497.388635 
L 1549.20323 494.671089 
L 1549.761391 493.646151 
L 1550.319552 493.345034 
L 1550.877713 493.818075 
L 1551.435874 494.505941 
L 1551.994035 494.629332 
L 1552.552196 493.856311 
L 1553.110357 492.367548 
L 1554.784841 486.958996 
L 1557.017485 481.104153 
L 1557.575647 479.260732 
L 1558.133808 477.869116 
L 1558.691969 477.412769 
L 1559.25013 477.945325 
L 1560.366452 480.608053 
L 1560.924613 481.869972 
L 1561.482774 482.701558 
L 1562.040936 483.044217 
L 1562.599097 482.799323 
L 1563.157258 481.772575 
L 1563.715419 479.91671 
L 1564.831741 475.647454 
L 1565.389902 475.027804 
L 1565.948064 476.156786 
L 1566.506225 478.791382 
L 1569.29703 496.027915 
L 1569.855191 497.233083 
L 1570.413353 496.900254 
L 1570.971514 495.259761 
L 1571.529675 492.768158 
L 1572.645997 486.140909 
L 1573.204158 481.802715 
L 1573.762319 476.416133 
L 1576.553125 444.349558 
L 1577.111286 439.858355 
L 1577.669447 436.925631 
L 1578.227608 436.298505 
L 1578.78577 438.339355 
L 1579.343931 442.799916 
L 1581.018414 460.546372 
L 1581.576575 464.389432 
L 1582.692897 469.282495 
L 1583.80922 473.072261 
L 1585.483703 477.850035 
L 1586.600025 481.554659 
L 1587.158187 482.619423 
L 1587.716348 482.23634 
L 1588.274509 479.985064 
L 1588.83267 476.000088 
L 1591.623476 450.558043 
L 1592.181637 448.067496 
L 1592.739798 447.42289 
L 1593.297959 448.520565 
L 1593.85612 450.949877 
L 1594.972442 456.960713 
L 1595.530604 459.033399 
L 1596.088765 459.991004 
L 1597.205087 460.502828 
L 1597.763248 461.538221 
L 1598.321409 463.445475 
L 1599.437731 467.718409 
L 1599.995893 468.518401 
L 1600.554054 467.827489 
L 1601.670376 464.345523 
L 1602.228537 463.775074 
L 1602.786698 464.949828 
L 1603.344859 467.944952 
L 1605.019343 480.138277 
L 1605.577504 482.506523 
L 1606.135665 483.948696 
L 1606.693826 484.757952 
L 1607.251987 484.90996 
L 1607.810148 483.98515 
L 1608.36831 481.663818 
L 1610.042793 471.506769 
L 1611.159115 467.225153 
L 1613.39176 459.272043 
L 1613.949921 457.692799 
L 1614.508082 456.595461 
L 1615.066243 456.731995 
L 1615.624404 458.579412 
L 1616.740727 465.66286 
L 1617.298888 469.086333 
L 1617.857049 471.337248 
L 1618.41521 472.048425 
L 1618.973371 471.381424 
L 1620.089693 468.621764 
L 1621.764177 465.78065 
L 1622.322338 463.708866 
L 1622.880499 460.574082 
L 1623.996821 451.769417 
L 1624.554982 446.148005 
L 1625.113144 438.99931 
L 1626.229466 419.393048 
L 1626.787627 409.039153 
L 1627.345788 401.166593 
L 1627.903949 397.982144 
L 1628.46211 400.56429 
L 1629.020271 408.449319 
L 1631.252916 455.096471 
L 1631.811077 462.010929 
L 1632.369238 466.11506 
L 1632.927399 468.303934 
L 1633.48556 469.381349 
L 1634.043722 469.607343 
L 1634.601883 468.916934 
L 1636.276366 464.398377 
L 1636.834527 463.837561 
L 1637.392688 464.040508 
L 1637.95085 464.540537 
L 1638.509011 464.67373 
L 1639.067172 464.097158 
L 1639.625333 463.190387 
L 1640.183494 462.699635 
L 1640.741655 462.988414 
L 1641.857977 464.821508 
L 1642.416139 465.218882 
L 1642.9743 464.576665 
L 1643.532461 462.567801 
L 1644.090622 458.854178 
L 1644.648783 453.189284 
L 1645.206944 445.466588 
L 1646.323267 424.262147 
L 1647.439589 402.855507 
L 1647.99775 396.900489 
L 1648.555911 396.041268 
L 1649.114072 400.603892 
L 1649.672233 409.758865 
L 1651.346717 443.267086 
L 1651.904878 450.177719 
L 1652.463039 454.29868 
L 1653.0212 456.263998 
L 1653.579361 456.56351 
L 1654.137522 455.514996 
L 1655.253845 451.45811 
L 1656.928328 444.876313 
L 1658.04465 440.637419 
L 1658.602811 439.386972 
L 1659.160973 438.640814 
L 1660.277295 437.755909 
L 1660.835456 437.563414 
L 1661.951778 437.705646 
L 1662.509939 437.934775 
L 1663.0681 438.58087 
L 1663.626262 440.11441 
L 1664.184423 442.894921 
L 1666.417067 457.868225 
L 1666.975228 459.238184 
L 1667.53339 459.409548 
L 1668.091551 458.724559 
L 1668.649712 457.310923 
L 1670.324195 450.788233 
L 1670.882356 449.817126 
L 1671.440517 450.753733 
L 1671.998679 454.006154 
L 1673.115001 465.488845 
L 1674.231323 476.391149 
L 1674.789484 479.439764 
L 1675.347645 480.455008 
L 1675.905807 479.718822 
L 1677.022129 476.037867 
L 1677.58029 474.775468 
L 1678.138451 474.32355 
L 1678.696612 474.089653 
L 1679.254773 473.345113 
L 1680.371096 470.631033 
L 1680.929257 469.73082 
L 1681.487418 469.357955 
L 1682.045579 469.517047 
L 1682.60374 470.446529 
L 1683.161901 472.231792 
L 1684.278224 476.482781 
L 1684.836385 477.85639 
L 1685.394546 478.298844 
L 1685.952707 477.315575 
L 1686.510868 474.082294 
L 1687.069029 467.90344 
L 1688.185351 448.506088 
L 1688.743513 438.862227 
L 1689.301674 432.041186 
L 1689.859835 429.150919 
L 1690.417996 430.325653 
L 1690.976157 434.985711 
L 1693.208802 462.801191 
L 1694.325124 472.280587 
L 1694.883285 475.502015 
L 1695.441446 477.223495 
L 1695.999607 477.075234 
L 1696.557768 474.817412 
L 1697.11593 470.51451 
L 1698.232252 459.300914 
L 1698.790413 454.822328 
L 1699.348574 451.683125 
L 1699.906735 449.646542 
L 1700.464896 448.663604 
L 1701.023057 448.972632 
L 1701.581219 450.758122 
L 1703.255702 459.031574 
L 1703.813863 459.578812 
L 1704.372024 458.65866 
L 1705.488347 455.491646 
L 1706.604669 452.659217 
L 1707.16283 450.17617 
L 1707.720991 446.390007 
L 1708.837313 437.036636 
L 1709.395474 434.274866 
L 1709.953636 434.973341 
L 1710.511797 439.834867 
L 1711.628119 457.673501 
L 1712.744441 474.640224 
L 1713.860763 486.161323 
L 1714.418925 490.425143 
L 1714.977086 493.449394 
L 1715.535247 494.738121 
L 1716.093408 494.022774 
L 1716.651569 491.366659 
L 1717.20973 487.068984 
L 1718.884214 470.29366 
L 1719.442375 466.431438 
L 1720.000536 464.791108 
L 1720.558697 465.395999 
L 1721.116858 467.643394 
L 1722.23318 474.325563 
L 1723.349503 480.758791 
L 1723.907664 482.785401 
L 1724.465825 483.842845 
L 1725.023986 484.103753 
L 1725.582147 483.822001 
L 1726.140308 483.151689 
L 1726.69847 481.769005 
L 1727.256631 478.598072 
L 1727.814792 472.149626 
L 1728.372953 461.420299 
L 1729.489275 430.038135 
L 1730.047436 414.369396 
L 1730.605597 402.704735 
L 1731.163759 396.819527 
L 1731.72192 396.99295 
L 1732.280081 402.461361 
L 1732.838242 412.051754 
L 1733.954564 438.316866 
L 1735.070887 463.807352 
L 1735.629048 472.597722 
L 1736.187209 477.681597 
L 1736.74537 479.264257 
L 1737.303531 478.054618 
L 1737.861692 474.96143 
L 1738.978014 467.434569 
L 1739.536176 464.635297 
L 1740.094337 462.656931 
L 1741.210659 459.838234 
L 1741.76882 458.841154 
L 1742.326981 458.589666 
L 1742.885142 459.428513 
L 1743.443303 461.324441 
L 1745.675948 471.693933 
L 1746.234109 472.942178 
L 1746.79227 473.40042 
L 1747.350431 472.861389 
L 1747.908593 470.763438 
L 1749.024915 462.467517 
L 1749.583076 458.607631 
L 1750.141237 456.426724 
L 1750.699398 456.271811 
L 1751.257559 458.091364 
L 1751.81572 461.591384 
L 1753.490204 474.79459 
L 1754.048365 477.466615 
L 1754.606526 478.466591 
L 1755.164687 477.757807 
L 1756.839171 471.789231 
L 1757.397332 471.19815 
L 1757.955493 471.990069 
L 1759.629976 477.593117 
L 1760.188137 478.227611 
L 1760.746299 477.782762 
L 1761.30446 476.538612 
L 1761.862621 474.686813 
L 1762.420782 472.155578 
L 1764.095265 462.495128 
L 1764.653427 460.889358 
L 1765.211588 461.277754 
L 1765.769749 463.58031 
L 1766.886071 470.043266 
L 1768.002393 474.861781 
L 1768.560554 477.134686 
L 1769.118716 479.962368 
L 1770.235038 488.055376 
L 1770.793199 492.346545 
L 1771.35136 495.48485 
L 1771.909521 496.933231 
L 1772.467682 496.867644 
L 1773.025843 495.829815 
L 1773.584005 494.223294 
L 1774.142166 491.972963 
L 1774.700327 488.704669 
L 1776.37481 476.634784 
L 1776.932971 475.193862 
L 1777.491133 475.936272 
L 1779.165616 482.827829 
L 1779.723777 483.429286 
L 1780.281938 483.058037 
L 1780.840099 482.126154 
L 1782.514583 478.671029 
L 1783.072744 478.185795 
L 1783.630905 478.180498 
L 1784.747227 478.698754 
L 1785.305388 478.615529 
L 1785.86355 477.834165 
L 1786.979872 474.498327 
L 1787.538033 473.569547 
L 1788.096194 474.083774 
L 1788.654355 475.733636 
L 1789.770677 480.003347 
L 1790.887 485.435991 
L 1791.445161 488.482519 
L 1792.003322 490.830887 
L 1792.561483 492.010633 
L 1793.119644 492.25214 
L 1793.677805 492.073491 
L 1794.235967 491.710554 
L 1794.794128 491.041424 
L 1795.352289 489.890384 
L 1795.91045 488.146909 
L 1796.468611 485.640591 
L 1798.701256 472.915167 
L 1799.259417 471.318889 
L 1799.817578 470.134883 
L 1800.375739 469.273331 
L 1800.9339 468.963605 
L 1801.492061 469.362989 
L 1802.050222 470.373154 
L 1803.166545 473.530396 
L 1804.282867 476.782171 
L 1804.841028 477.672282 
L 1805.399189 477.880734 
L 1805.95735 477.626806 
L 1806.515511 477.501877 
L 1807.073673 478.273305 
L 1807.631834 480.314781 
L 1808.748156 485.840448 
L 1809.306317 487.300341 
L 1809.864478 487.455075 
L 1810.422639 487.087722 
L 1810.9808 487.046043 
L 1812.097123 487.678523 
L 1812.655284 487.427435 
L 1813.213445 486.714936 
L 1813.771606 485.508385 
L 1814.329767 483.328015 
L 1814.887928 479.646693 
L 1816.004251 468.376046 
L 1817.120573 457.241098 
L 1817.678734 454.323444 
L 1818.236895 453.977124 
L 1818.795056 455.824849 
L 1819.911379 462.742026 
L 1820.46954 466.170714 
L 1821.027701 468.789626 
L 1821.585862 470.32659 
L 1822.144023 470.731401 
L 1822.702184 470.334554 
L 1823.260345 469.799473 
L 1823.818506 469.654227 
L 1824.376668 470.072516 
L 1824.934829 471.042983 
L 1829.958279 483.460636 
L 1830.51644 484.225427 
L 1831.074601 484.32125 
L 1831.632762 483.530466 
L 1832.190923 481.929074 
L 1833.307246 478.320748 
L 1833.865407 477.522722 
L 1834.423568 478.065755 
L 1834.981729 480.118513 
L 1836.098051 485.371201 
L 1836.656213 486.191934 
L 1837.214374 485.515308 
L 1837.772535 483.967686 
L 1839.447018 477.952153 
L 1840.005179 476.716361 
L 1840.56334 476.753455 
L 1841.121502 478.564459 
L 1842.795985 489.531729 
L 1843.354146 490.437333 
L 1843.912307 488.712195 
L 1846.144952 474.927895 
L 1846.703113 473.662058 
L 1847.261274 472.685699 
L 1847.819435 471.09102 
L 1848.377596 468.296536 
L 1848.935757 464.182588 
L 1851.726563 439.928139 
L 1852.284724 436.962287 
L 1852.842885 435.673202 
L 1853.401046 436.373516 
L 1853.959208 438.994225 
L 1854.517369 443.175465 
L 1856.191852 458.179664 
L 1856.750013 460.361237 
L 1857.308174 459.435132 
L 1857.866336 455.306958 
L 1858.982658 442.710522 
L 1859.540819 439.394098 
L 1860.09898 441.442071 
L 1860.657141 449.488918 
L 1862.331625 487.984838 
L 1862.889786 496.619078 
L 1863.447947 501.406216 
L 1864.006108 503.221052 
L 1864.564269 503.484169 
L 1865.12243 503.416676 
L 1865.680591 503.558156 
L 1866.796914 504.147609 
L 1867.355075 504.135666 
L 1867.913236 503.604573 
L 1868.471397 502.339881 
L 1869.029558 500.261573 
L 1871.262203 489.809557 
L 1871.820364 487.968506 
L 1872.378525 486.701847 
L 1872.936686 486.212321 
L 1874.053008 486.678336 
L 1874.61117 485.941214 
L 1875.169331 483.476175 
L 1875.727492 479.134795 
L 1876.285653 473.118011 
L 1877.401975 457.59076 
L 1879.076459 433.222791 
L 1879.63462 427.061237 
L 1880.192781 423.177091 
L 1880.750942 422.404511 
L 1881.309103 425.199157 
L 1881.867264 431.285303 
L 1882.983586 448.983282 
L 1884.099909 466.664235 
L 1885.216231 479.995602 
L 1885.774392 484.326397 
L 1886.332553 486.456507 
L 1886.890714 485.822768 
L 1887.448876 482.45168 
L 1888.565198 471.296111 
L 1889.68152 460.439209 
L 1890.239681 456.209746 
L 1890.797842 453.630489 
L 1891.356003 453.685671 
L 1891.914165 457.002523 
L 1892.472326 463.239617 
L 1894.70497 493.713303 
L 1895.263131 498.765491 
L 1895.821293 502.225831 
L 1896.379454 504.250276 
L 1896.937615 505.239772 
L 1897.495776 505.628206 
L 1898.053937 505.683814 
L 1898.612098 505.417023 
L 1899.170259 504.569728 
L 1899.72842 502.679207 
L 1900.286582 499.250676 
L 1900.844743 494.122551 
L 1901.961065 481.998345 
L 1902.519226 478.027787 
L 1903.077387 477.17331 
L 1903.635548 479.567844 
L 1905.310032 492.238916 
L 1905.868193 494.145874 
L 1906.426354 494.84621 
L 1906.984515 494.903318 
L 1907.542676 494.601316 
L 1908.100837 493.822437 
L 1908.658999 492.272041 
L 1910.333482 485.822067 
L 1910.891643 484.982868 
L 1912.566126 484.033451 
L 1913.124288 482.892085 
L 1913.682449 480.340923 
L 1914.24061 475.725443 
L 1915.356932 460.970634 
L 1915.915093 453.965557 
L 1916.473254 450.248368 
L 1917.031416 451.344 
L 1917.589577 457.297888 
L 1919.822221 494.343333 
L 1920.380382 498.469712 
L 1920.938543 499.772344 
L 1921.496705 498.811519 
L 1922.054866 496.169936 
L 1923.171188 488.790649 
L 1923.729349 486.242576 
L 1924.28751 485.489282 
L 1924.845671 486.239672 
L 1925.403833 487.815508 
L 1927.078316 493.820563 
L 1927.636477 495.032181 
L 1928.194638 495.499611 
L 1928.752799 495.743626 
L 1929.31096 496.314869 
L 1930.985444 499.45475 
L 1931.543605 499.316336 
L 1932.101766 497.257459 
L 1932.659927 492.558302 
L 1933.776249 476.660099 
L 1934.334411 469.073887 
L 1934.892572 465.080239 
L 1935.450733 466.268068 
L 1936.008894 472.370761 
L 1937.683377 497.617761 
L 1938.241539 502.149193 
L 1938.7997 504.490079 
L 1939.357861 505.47934 
L 1939.916022 505.805998 
L 1940.474183 505.834831 
L 1941.032344 505.607926 
L 1941.590505 504.866322 
L 1942.148666 503.112864 
L 1942.706828 499.786838 
L 1943.264989 494.622658 
L 1944.381311 481.713957 
L 1944.939472 477.249272 
L 1945.497633 476.156178 
L 1946.055794 478.823322 
L 1947.172117 491.053964 
L 1947.730278 496.967152 
L 1948.288439 501.154523 
L 1948.8466 503.588145 
L 1949.404761 504.686427 
L 1949.962922 504.934475 
L 1950.521083 504.741912 
L 1952.195567 503.773113 
L 1953.311889 503.507923 
L 1954.428211 503.631148 
L 1954.986373 503.759062 
L 1955.544534 503.767763 
L 1956.102695 503.336183 
L 1956.660856 502.020672 
L 1957.219017 499.480453 
L 1958.8935 487.93987 
L 1959.451662 485.98265 
L 1960.009823 486.219882 
L 1960.567984 488.483193 
L 1962.242467 498.454378 
L 1962.800628 499.238105 
L 1963.358789 497.617338 
L 1965.033273 487.050627 
L 1965.591434 486.772765 
L 1966.149595 489.092558 
L 1967.824079 500.796688 
L 1968.38224 503.111948 
L 1968.940401 504.307306 
L 1969.498562 504.717835 
L 1970.056723 504.693615 
L 1972.289368 504.016963 
L 1973.963851 503.966369 
L 1980.103623 503.995801 
L 1983.45259 504.049514 
L 1985.127074 504.174389 
L 1985.685235 504.125563 
L 1986.243396 503.925217 
L 1986.801557 503.48877 
L 1987.359718 502.765647 
L 1988.47604 500.909059 
L 1989.034202 500.402072 
L 1989.592363 500.537245 
L 1990.150524 501.23566 
L 1991.266846 503.048964 
L 1991.825007 503.665999 
L 1992.383168 504.018608 
L 1993.499491 504.218704 
L 1995.173974 504.113744 
L 1995.732135 503.982227 
L 1996.290296 503.733188 
L 1997.406619 502.790817 
L 1997.96478 502.238991 
L 1998.522941 501.909588 
L 1999.081102 501.99734 
L 2000.197424 503.045891 
L 2000.755585 503.546647 
L 2001.313746 503.875852 
L 2002.430069 504.102095 
L 2007.453519 504.131438 
L 2008.569841 504.252978 
L 2009.128002 504.194985 
L 2009.686163 503.925895 
L 2010.244325 503.248935 
L 2010.802486 501.679477 
L 2011.360647 498.328297 
L 2011.918808 492.301203 
L 2013.03513 473.270329 
L 2013.593291 463.989098 
L 2014.151452 458.192964 
L 2014.709614 457.223618 
L 2015.267775 460.734523 
L 2015.825936 467.304886 
L 2017.500419 490.241967 
L 2018.05858 495.445759 
L 2018.616742 498.643694 
L 2019.174903 499.934817 
L 2019.733064 499.812445 
L 2020.291225 499.123829 
L 2020.849386 498.627999 
L 2021.407547 498.342178 
L 2021.965708 497.624479 
L 2022.523869 495.940775 
L 2023.082031 493.159331 
L 2023.640192 489.186489 
L 2024.198353 483.832313 
L 2025.872836 464.476179 
L 2026.430997 460.701401 
L 2026.989159 459.258599 
L 2027.54732 459.764584 
L 2028.105481 461.703634 
L 2029.779964 470.453807 
L 2030.338125 471.953065 
L 2031.454448 473.412142 
L 2032.012609 475.054359 
L 2032.57077 477.960458 
L 2034.245253 489.877006 
L 2035.361576 495.437264 
L 2036.477898 500.520489 
L 2037.036059 502.439666 
L 2037.59422 503.643987 
L 2038.152381 504.221323 
L 2038.710542 504.377623 
L 2040.943187 504.157855 
L 2041.501348 504.344714 
L 2043.175831 505.334521 
L 2043.733992 505.07739 
L 2044.292154 503.732096 
L 2044.850315 500.634196 
L 2045.408476 495.321041 
L 2046.524798 480.61786 
L 2047.082959 475.343228 
L 2047.64112 474.200481 
L 2048.199282 477.419683 
L 2049.873765 495.716085 
L 2050.431926 498.675364 
L 2050.990087 499.584523 
L 2052.106409 499.250205 
L 2052.664571 499.550327 
L 2053.222732 500.498418 
L 2054.339054 503.151659 
L 2054.897215 503.932681 
L 2055.455376 503.868467 
L 2056.013537 502.715154 
L 2056.571699 500.348116 
L 2057.688021 492.950532 
L 2058.246182 489.308558 
L 2058.804343 486.812654 
L 2059.362504 485.888859 
L 2059.920665 486.570306 
L 2060.478826 488.645087 
L 2061.595149 494.362412 
L 2062.711471 498.586598 
L 2063.827793 501.955031 
L 2064.385954 503.140646 
L 2064.944116 503.859613 
L 2065.502277 504.192768 
L 2066.060438 504.275379 
L 2069.409405 504.041498 
L 2071.642049 504.260409 
L 2072.20021 504.058715 
L 2072.758371 503.526683 
L 2073.316532 502.544997 
L 2074.432855 499.432197 
L 2074.991016 497.596259 
L 2075.549177 495.1439 
L 2076.107338 491.081992 
L 2076.665499 484.665566 
L 2078.898144 451.504546 
L 2079.456305 450.959203 
L 2080.014466 455.996122 
L 2080.572627 465.416305 
L 2081.688949 487.921305 
L 2082.247111 496.537884 
L 2082.805272 502.074053 
L 2083.363433 504.879054 
L 2083.921594 505.799775 
L 2084.479755 505.694233 
L 2086.154239 504.267158 
L 2086.7124 504.030928 
L 2087.828722 503.901586 
L 2094.526656 503.999832 
L 2122.434712 504.036203 
L 2122.992873 503.870079 
L 2123.551034 503.55257 
L 2125.225518 502.090447 
L 2125.783679 501.95376 
L 2126.34184 502.16606 
L 2128.574485 503.905463 
L 2129.690807 504.095536 
L 2146.435641 504 
L 2244.672 504 
L 2244.672 504 
" style="fill:none;stroke:#bfbf00;stroke-linecap:round;stroke-width:1.5;"/>
   </g>
   <g id="line2d_18">
    <path clip-path="url(#p2db92b3682)" d="M 311.76 402.861486 
L 312.318161 402.861486 
L 312.876322 417.295622 
L 313.434483 428.363849 
L 313.992645 435.77732 
L 314.550806 440.219252 
L 315.108967 442.538841 
L 315.667128 443.030077 
L 341.900701 443.030077 
L 342.458862 441.766301 
L 343.017023 439.065114 
L 343.575185 434.450484 
L 344.691507 423.014363 
L 345.249668 422.64105 
L 345.807829 422.499121 
L 356.412891 422.499121 
L 356.971052 421.658546 
L 357.529213 421.18627 
L 358.087374 420.861955 
L 358.645535 419.763795 
L 364.227146 419.763795 
L 364.785308 420.861955 
L 365.343469 421.658546 
L 365.90163 422.665457 
L 366.459791 430.812463 
L 367.017952 434.699208 
L 393.251525 434.699208 
L 393.809686 431.11713 
L 394.367848 430.948877 
L 394.926009 430.1289 
L 395.48417 428.539054 
L 401.065781 428.539054 
L 401.623942 424.595933 
L 402.182103 423.309749 
L 402.740265 422.988525 
L 403.298426 420.77566 
L 406.647392 420.77566 
L 407.205554 416.680464 
L 407.763715 416.31537 
L 408.321876 416.191034 
L 408.880037 415.539664 
L 418.926937 415.613366 
L 419.485098 416.31537 
L 420.04326 416.680464 
L 421.159582 420.979388 
L 421.717743 422.39748 
L 422.834065 424.258183 
L 423.392226 424.784256 
L 423.950388 425.022145 
L 428.415677 425.022145 
L 429.531999 425.312307 
L 430.09016 426.708653 
L 431.206482 431.347232 
L 432.880966 437.59242 
L 433.439127 438.740246 
L 433.997288 439.441606 
L 435.11361 439.512504 
L 460.789022 439.512504 
L 461.347183 437.062725 
L 461.905344 435.472661 
L 462.463506 435.26459 
L 463.021667 433.272903 
L 463.579828 432.63278 
L 488.138918 432.63278 
L 488.697079 431.800604 
L 489.813401 419.091672 
L 490.371562 412.220785 
L 490.929723 406.949231 
L 492.046046 406.366604 
L 492.604207 406.15428 
L 500.976624 406.15428 
L 502.092946 406.949231 
L 503.767429 407.401998 
L 523.303069 407.401998 
L 523.86123 408.750886 
L 524.419391 408.77852 
L 525.535714 420.361241 
L 526.093875 421.087712 
L 536.698936 421.087712 
L 537.257097 423.126386 
L 537.815258 423.31023 
L 538.37342 425.340576 
L 539.489742 450.468151 
L 540.047903 459.762269 
L 566.281476 459.762269 
L 566.839637 459.502404 
L 567.397798 452.456805 
L 568.514121 436.457942 
L 569.630443 434.400602 
L 570.188604 433.665827 
L 589.724244 433.665827 
L 590.282405 435.368624 
L 590.840566 436.217921 
L 591.398727 436.457942 
L 592.515049 450.953596 
L 618.748623 450.953596 
L 619.306784 450.470813 
L 619.864945 445.856093 
L 620.423106 445.712016 
L 620.981267 444.605488 
L 625.446556 444.53721 
L 626.004717 443.039692 
L 629.353684 443.039692 
L 629.911845 439.617606 
L 630.470006 438.741537 
L 631.028167 438.373852 
L 632.702651 438.373852 
L 633.260812 438.741537 
L 634.377134 440.421292 
L 635.493457 448.32486 
L 661.72703 448.32486 
L 662.285191 445.632176 
L 662.843352 440.823308 
L 663.401513 440.745094 
L 663.959674 439.899662 
L 664.517835 439.66613 
L 675.681058 439.66613 
L 676.79738 435.075136 
L 677.913703 435.075136 
L 678.471864 438.205077 
L 704.705437 438.205077 
L 705.263598 433.544084 
L 706.938081 432.630522 
L 723.124754 432.630522 
L 723.682915 431.914798 
L 724.241077 430.42973 
L 724.799238 427.834941 
L 725.357399 423.722501 
L 726.473721 413.453058 
L 727.031882 409.87768 
L 727.590043 409.494001 
L 729.264527 409.455742 
L 729.822688 409.494001 
L 730.380849 409.87768 
L 730.93901 411.344572 
L 732.055332 417.168051 
L 732.613494 419.525125 
L 733.171655 421.148952 
L 739.311427 421.187572 
L 739.869588 421.756418 
L 740.427749 423.913177 
L 742.660394 438.361943 
L 760.52155 438.361943 
L 761.079711 439.401491 
L 761.637872 439.879013 
L 762.754195 445.753113 
L 763.312356 446.980638 
L 764.428678 448.47939 
L 773.917417 448.47939 
L 774.475578 448.717564 
L 775.03374 448.750102 
L 775.591901 449.350605 
L 776.150062 449.395562 
L 777.266384 450.330342 
L 803.499957 450.330342 
L 804.058118 448.415144 
L 804.61628 445.963279 
L 805.174441 444.041365 
L 805.732602 443.840189 
L 807.407085 442.842033 
L 815.221341 442.842033 
L 815.779502 442.186127 
L 816.337663 440.449377 
L 816.895824 439.378367 
L 817.453986 438.882251 
L 818.012147 438.595054 
L 818.570308 438.448342 
L 821.361113 438.500586 
L 821.919275 438.595054 
L 822.477436 439.378367 
L 823.035597 439.633338 
L 823.593758 440.25003 
L 849.827331 440.25003 
L 850.385492 437.954392 
L 851.501815 430.697578 
L 852.618137 430.697578 
L 853.176298 431.141538 
L 879.409871 431.141538 
L 879.968032 429.635649 
L 880.526193 427.471928 
L 881.084355 424.671558 
L 882.200677 417.2394 
L 883.316999 417.066862 
L 883.87516 416.211582 
L 886.107805 416.211582 
L 886.665966 417.153768 
L 887.224127 417.2394 
L 887.782288 420.19223 
L 888.89861 428.070708 
L 889.456772 430.874779 
L 890.014933 433.028584 
L 890.573094 434.384457 
L 895.596544 434.384457 
L 896.154705 434.605974 
L 896.712866 435.292511 
L 897.829189 435.375132 
L 905.643444 435.375132 
L 906.201606 436.215252 
L 906.759767 436.595688 
L 907.317928 440.55345 
L 933.551501 440.55345 
L 934.109662 439.316983 
L 934.667823 431.395682 
L 935.225984 421.670579 
L 935.784146 416.943229 
L 936.900468 416.943229 
L 937.458629 418.498018 
L 938.574951 420.655509 
L 939.133112 421.575185 
L 939.691273 423.099089 
L 940.249435 425.907914 
L 941.923918 437.545801 
L 942.482079 440.522027 
L 943.04024 442.878404 
L 943.598401 444.453042 
L 969.831975 444.453042 
L 970.390136 442.267898 
L 971.506458 436.693446 
L 972.064619 435.995275 
L 972.62278 435.526063 
L 973.180941 435.234217 
L 973.739103 434.355214 
L 974.297264 433.874599 
L 984.902325 433.874599 
L 985.460486 433.667204 
L 986.018647 433.636516 
L 986.576809 432.049702 
L 1010.019576 432.049702 
L 1010.577737 431.903642 
L 1011.135898 428.833246 
L 1011.694059 428.225351 
L 1012.252221 428.14313 
L 1012.810382 427.322226 
L 1017.833832 427.322226 
L 1018.391993 428.14313 
L 1018.950154 428.225351 
L 1019.508315 428.487734 
L 1020.624638 432.424137 
L 1021.74096 436.765065 
L 1022.299121 438.258773 
L 1048.532694 438.258773 
L 1049.090855 437.15062 
L 1049.649016 435.021152 
L 1050.207178 431.8395 
L 1051.3235 431.8395 
L 1051.881661 432.378879 
L 1067.510173 432.378879 
L 1068.068334 432.915281 
L 1068.626495 433.774063 
L 1070.300978 433.814451 
L 1078.673395 433.774063 
L 1079.231556 432.95567 
L 1081.464201 433.064189 
L 1082.022362 433.459364 
L 1087.045812 433.459364 
L 1087.603973 433.814451 
L 1088.162135 433.91942 
L 1089.278457 440.405599 
L 1094.301907 440.405599 
L 1094.860068 442.036504 
L 1095.418229 442.259168 
L 1095.97639 443.205823 
L 1096.534552 447.977286 
L 1097.092713 451.483883 
L 1100.999841 451.483883 
L 1102.116163 453.053382 
L 1102.674324 453.20932 
L 1103.232485 454.964422 
L 1103.790646 457.160494 
L 1104.348807 458.482005 
L 1105.46513 459.451764 
L 1106.023291 460.362632 
L 1106.581452 461.64875 
L 1132.815025 461.64875 
L 1133.373186 459.949658 
L 1133.931347 456.005479 
L 1135.605831 439.916585 
L 1136.163992 436.241668 
L 1136.722153 434.25606 
L 1137.280314 434.054198 
L 1137.838475 433.613041 
L 1140.629281 433.613041 
L 1141.187442 434.054198 
L 1141.745603 434.25606 
L 1142.303764 436.700275 
L 1143.420087 445.216431 
L 1143.978248 448.502578 
L 1144.536409 450.63301 
L 1145.09457 451.350947 
L 1171.328143 451.350947 
L 1171.886304 450.074718 
L 1172.444465 448.444162 
L 1173.002627 446.407089 
L 1174.118949 440.75976 
L 1174.67711 437.386822 
L 1175.235271 436.420504 
L 1176.351593 436.290191 
L 1182.491366 436.270341 
L 1183.049527 436.032561 
L 1184.165849 436.032561 
L 1184.72401 435.874465 
L 1185.282172 433.702519 
L 1185.840333 430.132983 
L 1186.398494 429.889731 
L 1186.956655 429.074823 
L 1187.514816 429.889731 
L 1188.072977 430.132983 
L 1201.468844 430.132983 
L 1202.027005 431.537166 
L 1202.585167 431.775707 
L 1203.143328 437.219708 
L 1203.701489 448.142339 
L 1204.25965 456.689553 
L 1204.817811 459.556128 
L 1231.051384 459.556128 
L 1232.167707 451.412748 
L 1232.725868 449.81503 
L 1233.284029 449.428115 
L 1233.84219 448.741225 
L 1250.587024 448.741225 
L 1251.145185 447.250712 
L 1252.261507 439.70419 
L 1252.819668 438.420193 
L 1253.37783 438.366618 
L 1253.935991 436.89284 
L 1270.680825 436.89284 
L 1271.238986 437.040369 
L 1271.797147 438.366618 
L 1272.355308 438.420193 
L 1272.913469 439.159189 
L 1298.588881 439.159189 
L 1299.705204 440.125711 
L 1300.263365 439.614378 
L 1300.821526 438.702243 
L 1319.240843 438.702243 
L 1319.799004 439.730273 
L 1320.357165 440.216586 
L 1320.915327 440.541495 
L 1321.473488 442.755971 
L 1347.707061 442.755971 
L 1348.823383 437.571135 
L 1349.381544 436.367607 
L 1349.939705 436.143841 
L 1351.056028 436.143841 
L 1351.614189 439.029061 
L 1352.17235 443.068978 
L 1353.846833 458.111019 
L 1354.404995 461.420863 
L 1354.963156 461.689552 
L 1381.196729 461.689552 
L 1381.75489 458.98774 
L 1382.871212 451.280116 
L 1383.987535 441.940912 
L 1384.545696 439.434167 
L 1385.103857 439.209429 
L 1385.662018 437.518123 
L 1386.220179 437.037379 
L 1395.708918 437.037379 
L 1396.267079 436.860584 
L 1397.383402 435.960024 
L 1402.965013 435.960024 
L 1403.523174 436.398044 
L 1404.081335 436.604103 
L 1404.639496 437.037379 
L 1408.546624 437.053823 
L 1409.104785 438.160839 
L 1410.221108 438.765763 
L 1410.779269 439.554745 
L 1431.989392 439.554745 
L 1432.547553 440.124574 
L 1433.105714 440.253295 
L 1433.663875 440.906404 
L 1452.641354 440.906404 
L 1453.199515 441.97779 
L 1454.315837 442.040484 
L 1461.013771 441.97779 
L 1461.571932 441.495297 
L 1480.54941 441.495297 
L 1481.107571 440.169993 
L 1482.223894 438.77013 
L 1484.456538 438.733359 
L 1491.712633 438.733359 
L 1492.270794 436.134174 
L 1492.828955 431.323556 
L 1493.387116 429.39314 
L 1493.945278 428.281623 
L 1495.0616 428.208103 
L 1504.550339 428.281623 
L 1505.1085 428.690549 
L 1505.666661 429.39314 
L 1506.224822 430.573449 
L 1507.341145 435.401316 
L 1510.690111 452.198178 
L 1511.248273 454.650856 
L 1511.806434 454.852405 
L 1522.969656 454.852405 
L 1523.527817 456.08656 
L 1524.085979 456.160191 
L 1524.64414 457.302865 
L 1525.202301 459.182457 
L 1526.318623 459.285974 
L 1526.876784 459.783065 
L 1527.993107 459.934303 
L 1529.109429 462.018449 
L 1532.458396 462.040879 
L 1533.016557 462.261828 
L 1533.574718 462.34413 
L 1534.132879 463.047298 
L 1560.366452 463.047298 
L 1560.924613 461.986143 
L 1561.482774 461.830591 
L 1562.040936 461.497762 
L 1562.599097 460.633261 
L 1570.971514 460.625423 
L 1583.251059 460.625423 
L 1583.80922 459.857269 
L 1584.367381 457.365666 
L 1585.483703 450.738418 
L 1586.041864 447.216932 
L 1587.716348 446.152168 
L 1591.623476 446.152168 
L 1592.181637 446.833848 
L 1592.739798 447.104031 
L 1593.297959 447.216932 
L 1593.85612 448.546205 
L 1596.088765 448.582659 
L 1620.647854 448.582659 
L 1621.206016 446.261327 
L 1622.880499 436.645934 
L 1623.43866 436.104277 
L 1624.554982 435.934757 
L 1631.811077 435.934757 
L 1632.369238 434.573282 
L 1632.927399 434.204852 
L 1633.48556 433.978858 
L 1634.043722 433.514442 
L 1647.439589 433.514442 
L 1648.555911 430.336076 
L 1649.672233 429.419017 
L 1650.230394 429.271238 
L 1655.812006 429.174174 
L 1656.370167 427.165309 
L 1656.928328 424.007056 
L 1657.486489 423.835693 
L 1658.04465 423.451687 
L 1658.602811 423.322067 
L 1659.160973 423.835693 
L 1659.719134 423.843834 
L 1660.277295 424.007056 
L 1661.393617 436.129769 
L 1661.951778 440.988657 
L 1662.509939 444.037272 
L 1688.743513 444.037272 
L 1689.301674 442.896353 
L 1689.859835 442.542031 
L 1690.417996 442.453898 
L 1690.976157 441.913084 
L 1700.464896 441.821004 
L 1701.023057 445.556411 
L 1702.13938 455.022651 
L 1702.697541 458.046902 
L 1728.931114 458.046902 
L 1729.489275 455.964167 
L 1730.047436 451.666493 
L 1730.605597 448.701261 
L 1731.163759 448.440353 
L 1734.512725 448.419509 
L 1738.419853 448.419509 
L 1738.978014 447.749197 
L 1739.536176 446.366513 
L 1740.094337 443.861766 
L 1740.652498 443.19558 
L 1741.210659 443.064099 
L 1741.76882 442.652126 
L 1746.234109 442.652126 
L 1746.79227 442.82512 
L 1750.699398 442.82512 
L 1752.373882 442.38027 
L 1755.164687 442.38027 
L 1755.722848 442.82512 
L 1756.28101 443.064099 
L 1756.839171 444.559876 
L 1757.955493 452.652885 
L 1758.513654 456.944054 
L 1759.071815 460.082358 
L 1759.629976 460.427324 
L 1785.86355 460.427324 
L 1786.421711 458.820802 
L 1786.979872 456.849648 
L 1788.096194 456.608141 
L 1806.515511 456.608141 
L 1807.073673 456.308062 
L 1807.631834 455.638933 
L 1808.189995 454.487892 
L 1808.748156 452.744418 
L 1809.306317 452.276032 
L 1809.864478 452.052583 
L 1812.655284 452.024944 
L 1825.49299 452.019587 
L 1826.051151 451.312444 
L 1826.609312 450.789442 
L 1827.167473 450.112817 
L 1827.725634 450.105893 
L 1828.283796 449.968709 
L 1828.841957 450.112817 
L 1829.400118 450.789442 
L 1829.958279 450.884024 
L 1830.51644 453.309703 
L 1848.935757 453.309703 
L 1850.05208 455.034841 
L 1850.610241 461.216586 
L 1851.168402 466.003725 
L 1851.726563 467.81856 
L 1852.284724 468.014185 
L 1853.401046 468.155665 
L 1853.959208 468.474211 
L 1880.192781 468.474211 
L 1880.750942 468.202081 
L 1881.309103 466.937389 
L 1881.867264 464.859082 
L 1882.983586 464.859082 
L 1884.099909 468.847784 
L 1884.65807 469.837281 
L 1885.216231 470.014531 
L 1911.449804 470.014531 
L 1912.007965 469.167237 
L 1912.566126 467.276715 
L 1913.124288 464.369853 
L 1914.24061 463.409028 
L 1914.798771 463.06722 
L 1917.031416 463.152782 
L 1917.589577 463.409028 
L 1918.147738 463.913844 
L 1924.28751 463.913844 
L 1924.845671 464.052258 
L 1925.403833 464.369853 
L 1926.520155 469.087588 
L 1927.078316 470.076849 
L 1927.636477 470.205435 
L 1953.87005 470.205435 
L 1954.428211 469.531983 
L 1956.660856 469.315343 
L 1964.475112 469.291124 
L 1965.033273 469.093974 
L 1983.45259 469.093974 
L 1984.010751 468.878633 
L 1985.685235 468.775304 
L 2021.965708 468.792493 
L 2022.523869 468.523403 
L 2023.640192 467.037174 
L 2024.756514 467.037174 
L 2025.314675 468.241495 
L 2025.872836 468.818831 
L 2028.105481 468.914438 
L 2029.221803 468.975131 
L 2030.338125 469.671389 
L 2056.571699 469.671389 
L 2057.12986 468.872888 
L 2069.409405 468.857917 
L 2070.525727 468.872888 
L 2071.083888 469.476562 
L 2071.642049 469.791034 
L 2097.875622 469.791034 
L 2098.991945 468.864666 
L 2099.550106 468.628436 
L 2102.340911 468.6013 
L 2244.672 468.597508 
L 2244.672 468.597508 
" style="fill:none;stroke:#0000ff;stroke-linecap:round;stroke-width:1.5;"/>
   </g>
   <g id="line2d_19">
    <defs>
     <path d="M 0 3 
C 0.795609 3 1.55874 2.683901 2.12132 2.12132 
C 2.683901 1.55874 3 0.795609 3 0 
C 3 -0.795609 2.683901 -1.55874 2.12132 -2.12132 
C 1.55874 -2.683901 0.795609 -3 0 -3 
C -0.795609 -3 -1.55874 -2.683901 -2.12132 -2.12132 
C -2.683901 -1.55874 -3 -0.795609 -3 0 
C -3 0.795609 -2.683901 1.55874 -2.12132 2.12132 
C -1.55874 2.683901 -0.795609 3 0 3 
z
" id="me0480e16bd" style="stroke:#008000;"/>
    </defs>
    <g clip-path="url(#p2db92b3682)">
     <use style="fill:#008000;stroke:#008000;" x="315.108967" xlink:href="#me0480e16bd" y="353.915369"/>
     <use style="fill:#008000;stroke:#008000;" x="321.8069" xlink:href="#me0480e16bd" y="390.264613"/>
     <use style="fill:#008000;stroke:#008000;" x="350.273118" xlink:href="#me0480e16bd" y="378.622387"/>
     <use style="fill:#008000;stroke:#008000;" x="402.182103" xlink:href="#me0480e16bd" y="377.489798"/>
     <use style="fill:#008000;stroke:#008000;" x="415.577971" xlink:href="#me0480e16bd" y="356.645026"/>
     <use style="fill:#008000;stroke:#008000;" x="454.091089" xlink:href="#me0480e16bd" y="424.788356"/>
     <use style="fill:#008000;stroke:#008000;" x="460.789022" xlink:href="#me0480e16bd" y="390.794048"/>
     <use style="fill:#008000;stroke:#008000;" x="484.23179" xlink:href="#me0480e16bd" y="343.666883"/>
     <use style="fill:#008000;stroke:#008000;" x="505.441913" xlink:href="#me0480e16bd" y="335.985678"/>
     <use style="fill:#008000;stroke:#008000;" x="525.535714" xlink:href="#me0480e16bd" y="411.232635"/>
     <use style="fill:#008000;stroke:#008000;" x="543.39687" xlink:href="#me0480e16bd" y="441.00547"/>
     <use style="fill:#008000;stroke:#008000;" x="549.536642" xlink:href="#me0480e16bd" y="446.619551"/>
     <use style="fill:#008000;stroke:#008000;" x="561.816187" xlink:href="#me0480e16bd" y="409.832664"/>
     <use style="fill:#008000;stroke:#008000;" x="573.537571" xlink:href="#me0480e16bd" y="423.189175"/>
     <use style="fill:#008000;stroke:#008000;" x="582.468149" xlink:href="#me0480e16bd" y="420.700378"/>
     <use style="fill:#008000;stroke:#008000;" x="593.073211" xlink:href="#me0480e16bd" y="333.713789"/>
     <use style="fill:#008000;stroke:#008000;" x="620.423106" xlink:href="#me0480e16bd" y="398.209912"/>
     <use style="fill:#008000;stroke:#008000;" x="696.33302" xlink:href="#me0480e16bd" y="395.795034"/>
     <use style="fill:#008000;stroke:#008000;" x="703.030954" xlink:href="#me0480e16bd" y="385.204443"/>
     <use style="fill:#008000;stroke:#008000;" x="770.010289" xlink:href="#me0480e16bd" y="395.838843"/>
     <use style="fill:#008000;stroke:#008000;" x="782.289834" xlink:href="#me0480e16bd" y="395.667654"/>
     <use style="fill:#008000;stroke:#008000;" x="874.944582" xlink:href="#me0480e16bd" y="382.482687"/>
     <use style="fill:#008000;stroke:#008000;" x="926.295406" xlink:href="#me0480e16bd" y="406.907428"/>
     <use style="fill:#008000;stroke:#008000;" x="939.691273" xlink:href="#me0480e16bd" y="344.214853"/>
     <use style="fill:#008000;stroke:#008000;" x="1022.299121" xlink:href="#me0480e16bd" y="389.39759"/>
     <use style="fill:#008000;stroke:#008000;" x="1041.834761" xlink:href="#me0480e16bd" y="369.38693"/>
     <use style="fill:#008000;stroke:#008000;" x="1048.532694" xlink:href="#me0480e16bd" y="432.507002"/>
     <use style="fill:#008000;stroke:#008000;" x="1060.254078" xlink:href="#me0480e16bd" y="414.364346"/>
     <use style="fill:#008000;stroke:#008000;" x="1147.327215" xlink:href="#me0480e16bd" y="403.73392"/>
     <use style="fill:#008000;stroke:#008000;" x="1177.467916" xlink:href="#me0480e16bd" y="367.484211"/>
     <use style="fill:#008000;stroke:#008000;" x="1206.492295" xlink:href="#me0480e16bd" y="388.40867"/>
     <use style="fill:#008000;stroke:#008000;" x="1245.005413" xlink:href="#me0480e16bd" y="388.45763"/>
     <use style="fill:#008000;stroke:#008000;" x="1298.588881" xlink:href="#me0480e16bd" y="416.315406"/>
     <use style="fill:#008000;stroke:#008000;" x="1304.728654" xlink:href="#me0480e16bd" y="438.531279"/>
     <use style="fill:#008000;stroke:#008000;" x="1353.846833" xlink:href="#me0480e16bd" y="410.966176"/>
     <use style="fill:#008000;stroke:#008000;" x="1403.523174" xlink:href="#me0480e16bd" y="407.070337"/>
     <use style="fill:#008000;stroke:#008000;" x="1437.571003" xlink:href="#me0480e16bd" y="404.33887"/>
     <use style="fill:#008000;stroke:#008000;" x="1488.363666" xlink:href="#me0480e16bd" y="406.10599"/>
     <use style="fill:#008000;stroke:#008000;" x="1512.364595" xlink:href="#me0480e16bd" y="414.64325"/>
     <use style="fill:#008000;stroke:#008000;" x="1578.227608" xlink:href="#me0480e16bd" y="436.298505"/>
     <use style="fill:#008000;stroke:#008000;" x="1627.903949" xlink:href="#me0480e16bd" y="397.982144"/>
     <use style="fill:#008000;stroke:#008000;" x="1647.99775" xlink:href="#me0480e16bd" y="396.900489"/>
     <use style="fill:#008000;stroke:#008000;" x="1662.509939" xlink:href="#me0480e16bd" y="437.934775"/>
     <use style="fill:#008000;stroke:#008000;" x="1689.859835" xlink:href="#me0480e16bd" y="429.150919"/>
     <use style="fill:#008000;stroke:#008000;" x="1709.395474" xlink:href="#me0480e16bd" y="434.274866"/>
     <use style="fill:#008000;stroke:#008000;" x="1731.163759" xlink:href="#me0480e16bd" y="396.819527"/>
     <use style="fill:#008000;stroke:#008000;" x="1852.842885" xlink:href="#me0480e16bd" y="435.673202"/>
     <use style="fill:#008000;stroke:#008000;" x="1859.540819" xlink:href="#me0480e16bd" y="439.394098"/>
     <use style="fill:#008000;stroke:#008000;" x="1880.750942" xlink:href="#me0480e16bd" y="422.404511"/>
     <use style="fill:#008000;stroke:#008000;" x="1890.797842" xlink:href="#me0480e16bd" y="453.630489"/>
     <use style="fill:#008000;stroke:#008000;" x="1916.473254" xlink:href="#me0480e16bd" y="450.248368"/>
     <use style="fill:#008000;stroke:#008000;" x="1934.892572" xlink:href="#me0480e16bd" y="465.080239"/>
     <use style="fill:#008000;stroke:#008000;" x="2014.709614" xlink:href="#me0480e16bd" y="457.223618"/>
     <use style="fill:#008000;stroke:#008000;" x="2026.989159" xlink:href="#me0480e16bd" y="459.258599"/>
     <use style="fill:#008000;stroke:#008000;" x="2079.456305" xlink:href="#me0480e16bd" y="450.959203"/>
    </g>
   </g>
   <g id="patch_3">
    <path d="M 306.76 504 
L 306.76 69.12 
" style="fill:none;stroke:#262626;stroke-linecap:square;stroke-linejoin:miter;stroke-width:0.8;"/>
   </g>
   <g id="patch_4">
    <path d="M 311.76 509 
L 2244.672 509 
" style="fill:none;stroke:#262626;stroke-linecap:square;stroke-linejoin:miter;stroke-width:0.8;"/>
   </g>
   <g id="text_19">
    <text style="fill:#262626;font-family:Arial;font-size:36px;font-stretch:normal;font-style:normal;font-weight:normal;text-anchor:middle;" transform="rotate(-0, 1278.216, 61.965)" x="1278.216" y="61.965">20201105_GN999-6_60x_002-1.tif LAM-1::wSc</text>
   </g>
  </g>
 </g>
 <defs>
  <clipPath id="p2db92b3682">
   <rect height="434.88" width="1932.912" x="311.76" y="69.12"/>
  </clipPath>
 </defs>
</svg>
