<?xml version="1.0" encoding="utf-8" standalone="no"?>
<!DOCTYPE svg PUBLIC "-//W3C//DTD SVG 1.1//EN"
  "http://www.w3.org/Graphics/SVG/1.1/DTD/svg11.dtd">
<!-- Created with matplotlib (https://matplotlib.org/) -->
<svg height="576pt" version="1.1" viewBox="0 0 2465.28 576" width="2465.28pt" xmlns="http://www.w3.org/2000/svg" xmlns:xlink="http://www.w3.org/1999/xlink">
 <metadata>
  <rdf:RDF xmlns:cc="http://creativecommons.org/ns#" xmlns:dc="http://purl.org/dc/elements/1.1/" xmlns:rdf="http://www.w3.org/1999/02/22-rdf-syntax-ns#">
   <cc:Work>
    <dc:type rdf:resource="http://purl.org/dc/dcmitype/StillImage"/>
    <dc:date>2022-12-01T10:18:25.736606</dc:date>
    <dc:format>image/svg+xml</dc:format>
    <dc:creator>
     <cc:Agent>
      <dc:title>Matplotlib v3.3.4, https://matplotlib.org/</dc:title>
     </cc:Agent>
    </dc:creator>
   </cc:Work>
  </rdf:RDF>
 </metadata>
 <defs>
  <style type="text/css">*{stroke-linecap:butt;stroke-linejoin:round;}</style>
 </defs>
 <g id="figure_1">
  <g id="patch_1">
   <path d="M 0 576 
L 2465.28 576 
L 2465.28 0 
L 0 0 
z
" style="fill:#ffffff;"/>
  </g>
  <g id="axes_1">
   <g id="patch_2">
    <path d="M 308.16 504 
L 2218.752 504 
L 2218.752 69.12 
L 308.16 69.12 
z
" style="fill:#ffffff;"/>
   </g>
   <g id="matplotlib.axis_1">
    <g id="xtick_1">
     <g id="line2d_1">
      <defs>
       <path d="M 0 0 
L 0 -3.5 
" id="m8743da6c63" style="stroke:#262626;stroke-width:0.8;"/>
      </defs>
      <g>
       <use style="fill:#262626;stroke:#262626;stroke-width:0.8;" x="308.16" xlink:href="#m8743da6c63" y="509"/>
      </g>
     </g>
     <g id="text_1">
      <text style="fill:#262626;font-family:Arial;font-size:30px;font-stretch:normal;font-style:normal;font-weight:normal;text-anchor:middle;" transform="rotate(-0, 308.16, 533.973438)" x="308.16" y="533.973438">0</text>
     </g>
    </g>
    <g id="xtick_2">
     <g id="line2d_2">
      <g>
       <use style="fill:#262626;stroke:#262626;stroke-width:0.8;" x="530.240775" xlink:href="#m8743da6c63" y="509"/>
      </g>
     </g>
     <g id="text_2">
      <text style="fill:#262626;font-family:Arial;font-size:30px;font-stretch:normal;font-style:normal;font-weight:normal;text-anchor:middle;" transform="rotate(-0, 530.240775, 533.973438)" x="530.240775" y="533.973438">50</text>
     </g>
    </g>
    <g id="xtick_3">
     <g id="line2d_3">
      <g>
       <use style="fill:#262626;stroke:#262626;stroke-width:0.8;" x="752.32155" xlink:href="#m8743da6c63" y="509"/>
      </g>
     </g>
     <g id="text_3">
      <text style="fill:#262626;font-family:Arial;font-size:30px;font-stretch:normal;font-style:normal;font-weight:normal;text-anchor:middle;" transform="rotate(-0, 752.32155, 533.973438)" x="752.32155" y="533.973438">100</text>
     </g>
    </g>
    <g id="xtick_4">
     <g id="line2d_4">
      <g>
       <use style="fill:#262626;stroke:#262626;stroke-width:0.8;" x="974.402325" xlink:href="#m8743da6c63" y="509"/>
      </g>
     </g>
     <g id="text_4">
      <text style="fill:#262626;font-family:Arial;font-size:30px;font-stretch:normal;font-style:normal;font-weight:normal;text-anchor:middle;" transform="rotate(-0, 974.402325, 533.973438)" x="974.402325" y="533.973438">150</text>
     </g>
    </g>
    <g id="xtick_5">
     <g id="line2d_5">
      <g>
       <use style="fill:#262626;stroke:#262626;stroke-width:0.8;" x="1196.483101" xlink:href="#m8743da6c63" y="509"/>
      </g>
     </g>
     <g id="text_5">
      <text style="fill:#262626;font-family:Arial;font-size:30px;font-stretch:normal;font-style:normal;font-weight:normal;text-anchor:middle;" transform="rotate(-0, 1196.483101, 533.973438)" x="1196.483101" y="533.973438">200</text>
     </g>
    </g>
    <g id="xtick_6">
     <g id="line2d_6">
      <g>
       <use style="fill:#262626;stroke:#262626;stroke-width:0.8;" x="1418.563876" xlink:href="#m8743da6c63" y="509"/>
      </g>
     </g>
     <g id="text_6">
      <text style="fill:#262626;font-family:Arial;font-size:30px;font-stretch:normal;font-style:normal;font-weight:normal;text-anchor:middle;" transform="rotate(-0, 1418.563876, 533.973438)" x="1418.563876" y="533.973438">250</text>
     </g>
    </g>
    <g id="xtick_7">
     <g id="line2d_7">
      <g>
       <use style="fill:#262626;stroke:#262626;stroke-width:0.8;" x="1640.644651" xlink:href="#m8743da6c63" y="509"/>
      </g>
     </g>
     <g id="text_7">
      <text style="fill:#262626;font-family:Arial;font-size:30px;font-stretch:normal;font-style:normal;font-weight:normal;text-anchor:middle;" transform="rotate(-0, 1640.644651, 533.973438)" x="1640.644651" y="533.973438">300</text>
     </g>
    </g>
    <g id="xtick_8">
     <g id="line2d_8">
      <g>
       <use style="fill:#262626;stroke:#262626;stroke-width:0.8;" x="1862.725426" xlink:href="#m8743da6c63" y="509"/>
      </g>
     </g>
     <g id="text_8">
      <text style="fill:#262626;font-family:Arial;font-size:30px;font-stretch:normal;font-style:normal;font-weight:normal;text-anchor:middle;" transform="rotate(-0, 1862.725426, 533.973438)" x="1862.725426" y="533.973438">350</text>
     </g>
    </g>
    <g id="xtick_9">
     <g id="line2d_9">
      <g>
       <use style="fill:#262626;stroke:#262626;stroke-width:0.8;" x="2084.806201" xlink:href="#m8743da6c63" y="509"/>
      </g>
     </g>
     <g id="text_9">
      <text style="fill:#262626;font-family:Arial;font-size:30px;font-stretch:normal;font-style:normal;font-weight:normal;text-anchor:middle;" transform="rotate(-0, 2084.806201, 533.973438)" x="2084.806201" y="533.973438">400</text>
     </g>
    </g>
    <g id="text_10">
     <text style="fill:#262626;font-family:Arial;font-size:30px;font-stretch:normal;font-style:normal;font-weight:normal;text-anchor:middle;" transform="rotate(-0, 1263.456, 565.775)" x="1263.456" y="565.775">Distance (um)</text>
    </g>
   </g>
   <g id="matplotlib.axis_2">
    <g id="ytick_1">
     <g id="line2d_10">
      <defs>
       <path d="M 0 0 
L 3.5 0 
" id="m7a5c68372d" style="stroke:#262626;stroke-width:0.8;"/>
      </defs>
      <g>
       <use style="fill:#262626;stroke:#262626;stroke-width:0.8;" x="303.16" xlink:href="#m7a5c68372d" y="504"/>
      </g>
     </g>
     <g id="text_11">
      <text style="fill:#262626;font-family:Arial;font-size:30px;font-stretch:normal;font-style:normal;font-weight:normal;text-anchor:end;" transform="rotate(-0, 299.66, 514.736719)" x="299.66" y="514.736719">0</text>
     </g>
    </g>
    <g id="ytick_2">
     <g id="line2d_11">
      <g>
       <use style="fill:#262626;stroke:#262626;stroke-width:0.8;" x="303.16" xlink:href="#m7a5c68372d" y="431.52"/>
      </g>
     </g>
     <g id="text_12">
      <text style="fill:#262626;font-family:Arial;font-size:30px;font-stretch:normal;font-style:normal;font-weight:normal;text-anchor:end;" transform="rotate(-0, 299.66, 442.256719)" x="299.66" y="442.256719">5</text>
     </g>
    </g>
    <g id="ytick_3">
     <g id="line2d_12">
      <g>
       <use style="fill:#262626;stroke:#262626;stroke-width:0.8;" x="303.16" xlink:href="#m7a5c68372d" y="359.04"/>
      </g>
     </g>
     <g id="text_13">
      <text style="fill:#262626;font-family:Arial;font-size:30px;font-stretch:normal;font-style:normal;font-weight:normal;text-anchor:end;" transform="rotate(-0, 299.66, 369.776719)" x="299.66" y="369.776719">10</text>
     </g>
    </g>
    <g id="ytick_4">
     <g id="line2d_13">
      <g>
       <use style="fill:#262626;stroke:#262626;stroke-width:0.8;" x="303.16" xlink:href="#m7a5c68372d" y="286.56"/>
      </g>
     </g>
     <g id="text_14">
      <text style="fill:#262626;font-family:Arial;font-size:30px;font-stretch:normal;font-style:normal;font-weight:normal;text-anchor:end;" transform="rotate(-0, 299.66, 297.296719)" x="299.66" y="297.296719">15</text>
     </g>
    </g>
    <g id="ytick_5">
     <g id="line2d_14">
      <g>
       <use style="fill:#262626;stroke:#262626;stroke-width:0.8;" x="303.16" xlink:href="#m7a5c68372d" y="214.08"/>
      </g>
     </g>
     <g id="text_15">
      <text style="fill:#262626;font-family:Arial;font-size:30px;font-stretch:normal;font-style:normal;font-weight:normal;text-anchor:end;" transform="rotate(-0, 299.66, 224.816719)" x="299.66" y="224.816719">20</text>
     </g>
    </g>
    <g id="ytick_6">
     <g id="line2d_15">
      <g>
       <use style="fill:#262626;stroke:#262626;stroke-width:0.8;" x="303.16" xlink:href="#m7a5c68372d" y="141.6"/>
      </g>
     </g>
     <g id="text_16">
      <text style="fill:#262626;font-family:Arial;font-size:30px;font-stretch:normal;font-style:normal;font-weight:normal;text-anchor:end;" transform="rotate(-0, 299.66, 152.336719)" x="299.66" y="152.336719">25</text>
     </g>
    </g>
    <g id="ytick_7">
     <g id="line2d_16">
      <g>
       <use style="fill:#262626;stroke:#262626;stroke-width:0.8;" x="303.16" xlink:href="#m7a5c68372d" y="69.12"/>
      </g>
     </g>
     <g id="text_17">
      <text style="fill:#262626;font-family:Arial;font-size:30px;font-stretch:normal;font-style:normal;font-weight:normal;text-anchor:end;" transform="rotate(-0, 299.66, 79.856719)" x="299.66" y="79.856719">30</text>
     </g>
    </g>
    <g id="text_18">
     <text style="fill:#262626;font-family:Arial;font-size:30px;font-stretch:normal;font-style:normal;font-weight:normal;text-anchor:middle;" transform="rotate(-90, 255.980312, 286.56)" x="255.980312" y="286.56">Intensity (AU)</text>
    </g>
   </g>
   <g id="line2d_17">
    <path clip-path="url(#pdd9e9254a6)" d="M 308.16 501.839219 
L 310.392652 495.259909 
L 310.950815 494.697377 
L 311.508978 494.918784 
L 312.067141 495.555998 
L 312.625304 495.918139 
L 313.183467 495.375353 
L 314.299793 492.06332 
L 314.857956 491.244509 
L 315.416119 492.006736 
L 315.974282 494.001714 
L 317.648771 501.25111 
L 318.206934 502.882324 
L 318.765097 503.86868 
L 319.32326 504.32915 
L 319.881423 504.452243 
L 320.997749 504.262995 
L 322.114075 503.831022 
L 322.672238 503.436674 
L 323.230401 502.722764 
L 323.788564 501.47937 
L 325.463053 496.247071 
L 326.021216 495.845182 
L 326.579379 495.991409 
L 327.137543 495.44214 
L 327.695706 493.261284 
L 328.812032 485.219997 
L 331.602847 465.374679 
L 332.719173 456.674056 
L 333.835499 448.885415 
L 334.393662 443.550199 
L 334.951825 436.412408 
L 336.068151 417.498498 
L 337.184477 399.977496 
L 337.74264 394.819308 
L 338.300803 392.726044 
L 338.858966 393.400248 
L 339.417129 396.02173 
L 340.533455 402.591077 
L 341.649781 407.386043 
L 342.207944 410.921918 
L 342.766107 416.124537 
L 344.440596 434.850375 
L 344.998759 437.259348 
L 345.556922 436.048928 
L 346.673248 429.072589 
L 347.231411 428.706304 
L 347.789574 433.434942 
L 348.347737 443.642301 
L 350.022226 485.640787 
L 350.580389 495.120252 
L 351.138552 500.695836 
L 351.696715 503.050269 
L 352.254878 503.293419 
L 352.813041 502.107339 
L 353.371204 499.246311 
L 353.929367 493.855074 
L 354.48753 485.332666 
L 355.603856 460.877871 
L 357.836508 408.004685 
L 358.952834 388.029076 
L 359.510997 381.099964 
L 360.06916 378.026576 
L 360.627323 380.394123 
L 361.185486 389.165179 
L 361.743649 403.861867 
L 363.418138 458.001386 
L 363.976301 469.730644 
L 364.534465 474.436774 
L 365.092628 470.908508 
L 365.650791 459.509813 
L 366.767117 422.106037 
L 367.883443 386.185754 
L 368.441606 375.615277 
L 368.999769 371.500349 
L 369.557932 373.043467 
L 370.674258 383.644994 
L 371.790584 394.556758 
L 372.348747 402.473519 
L 372.90691 414.065332 
L 374.023236 445.912105 
L 375.139562 476.563791 
L 375.697725 487.693868 
L 376.255888 495.726325 
L 376.814051 500.959875 
L 377.372214 503.844919 
L 377.930377 505.045942 
L 378.48854 505.323499 
L 379.046703 505.335107 
L 379.604866 505.528321 
L 380.163029 506.099215 
L 380.721192 506.941016 
L 381.279355 507.552838 
L 381.837518 506.935385 
L 382.395681 503.571164 
L 382.953844 495.667205 
L 383.512007 481.819745 
L 384.07017 461.865768 
L 385.744659 387.292034 
L 386.302822 369.918134 
L 386.860985 362.127535 
L 387.419148 365.141467 
L 387.977311 377.44942 
L 389.093637 411.910948 
L 389.6518 425.704177 
L 390.209963 435.61258 
L 390.768126 442.394223 
L 391.326289 446.745759 
L 391.884452 448.984943 
L 392.442615 449.156092 
L 393.000778 447.467586 
L 393.558941 444.909374 
L 394.117104 443.240694 
L 394.675267 443.988046 
L 395.791593 450.585459 
L 396.349756 451.452433 
L 396.907919 447.27099 
L 397.466082 436.866058 
L 398.024245 420.57177 
L 399.698734 363.101883 
L 400.256897 351.985018 
L 400.81506 347.624207 
L 401.373223 349.554853 
L 401.931387 356.692794 
L 402.48955 368.189052 
L 403.047713 383.870413 
L 404.164039 425.644891 
L 405.280365 466.86754 
L 405.838528 482.465438 
L 406.396691 494.014003 
L 406.954854 501.629708 
L 407.513017 505.929673 
L 408.07118 507.851177 
L 408.629343 508.163594 
L 409.187506 507.098982 
L 409.745669 504.276518 
L 410.303832 498.923842 
L 410.861995 490.442946 
L 412.536484 456.734266 
L 413.094647 451.175795 
L 413.65281 452.0484 
L 414.210973 459.077186 
L 415.885462 493.657113 
L 416.443625 500.945338 
L 417.001788 503.67264 
L 417.559951 501.663632 
L 418.118114 495.21832 
L 419.792603 467.252658 
L 420.350766 465.500369 
L 420.908929 469.957754 
L 422.025255 485.629423 
L 422.583418 489.854613 
L 423.141581 489.877178 
L 423.699744 486.732186 
L 427.048722 459.98677 
L 427.606885 457.541126 
L 428.165048 456.934704 
L 428.723211 458.196762 
L 429.281374 461.853502 
L 429.839537 468.52189 
L 431.514026 495.645724 
L 432.072189 501.283422 
L 432.630352 504.344255 
L 433.188515 505.514567 
L 433.746678 505.5867 
L 435.97933 504.02502 
L 437.095656 503.898825 
L 438.211982 504.162277 
L 439.886472 504.850248 
L 440.444635 504.686065 
L 441.002798 503.832493 
L 441.560961 501.874457 
L 442.119124 498.450483 
L 442.677287 493.363397 
L 443.23545 486.656304 
L 444.351776 469.189938 
L 446.026265 439.746192 
L 447.142591 423.700894 
L 447.700754 417.263911 
L 448.258917 412.565795 
L 448.81708 409.791782 
L 449.933406 406.828532 
L 450.491569 404.300009 
L 452.166058 392.409517 
L 452.724221 393.016403 
L 453.282384 398.815666 
L 453.840547 409.448128 
L 454.956873 436.256087 
L 455.515036 446.736163 
L 456.073199 452.465812 
L 456.631362 453.527784 
L 457.189525 451.832844 
L 457.747688 449.525296 
L 458.305851 447.794753 
L 458.864014 447.022622 
L 459.422177 447.191697 
L 460.538503 448.668025 
L 461.096666 449.049299 
L 461.654829 448.903884 
L 462.212992 448.021538 
L 462.771155 446.061877 
L 464.445644 437.396967 
L 465.003807 437.600795 
L 465.56197 440.624996 
L 466.120133 446.041713 
L 467.236459 459.171215 
L 467.794622 464.256124 
L 468.352785 467.760668 
L 469.469111 473.428319 
L 472.818089 492.385984 
L 473.376252 493.681193 
L 473.934415 492.565338 
L 474.492578 488.632144 
L 475.050741 481.929354 
L 476.167067 465.424971 
L 476.72523 459.321121 
L 477.283394 456.178226 
L 477.841557 456.099339 
L 478.39972 458.313882 
L 478.957883 461.196225 
L 479.516046 462.873361 
L 480.074209 461.854513 
L 480.632372 457.343531 
L 481.190535 449.600994 
L 482.306861 430.785638 
L 482.865024 423.168506 
L 483.423187 418.051439 
L 483.98135 415.912265 
L 484.539513 416.918111 
L 485.097676 420.845651 
L 487.330328 444.538032 
L 487.888491 448.76035 
L 488.446654 451.63471 
L 489.004817 452.515711 
L 489.56298 451.257452 
L 490.679306 445.469943 
L 492.353795 436.730065 
L 492.911958 434.585682 
L 493.470121 433.234456 
L 494.028284 433.003863 
L 494.586447 434.061837 
L 495.14461 436.28489 
L 496.260936 442.82498 
L 497.377262 451.111172 
L 499.051751 467.055594 
L 499.609914 469.528146 
L 500.168077 468.896469 
L 500.72624 465.453748 
L 501.842566 455.623978 
L 502.400729 452.375915 
L 502.958892 450.931142 
L 503.517055 450.355556 
L 504.075218 449.304669 
L 504.633381 446.924679 
L 506.30787 435.936126 
L 506.866033 433.708113 
L 507.424196 432.76234 
L 507.982359 432.914342 
L 508.540522 433.417592 
L 509.098685 433.189463 
L 509.656848 431.810315 
L 510.215011 430.067694 
L 510.773174 429.327193 
L 511.331337 430.447182 
L 513.005826 438.705403 
L 513.563989 440.279021 
L 514.122152 440.994444 
L 514.680316 440.898899 
L 515.238479 440.321679 
L 515.796642 440.015143 
L 516.354805 440.685054 
L 516.912968 442.540251 
L 518.029294 447.363227 
L 518.587457 448.522851 
L 519.14562 448.327236 
L 519.703783 446.82751 
L 520.820109 441.214099 
L 521.936435 435.723433 
L 523.052761 430.958736 
L 523.610924 429.408415 
L 524.72725 427.918402 
L 526.401739 424.472586 
L 526.959902 423.821913 
L 527.518065 422.755224 
L 528.076228 421.11553 
L 528.634391 420.063684 
L 529.192554 421.16726 
L 529.750717 425.122968 
L 530.30888 431.68031 
L 531.983369 456.284881 
L 532.541532 461.223817 
L 533.099695 463.943947 
L 533.657858 465.230224 
L 534.216021 465.491164 
L 534.774184 464.900494 
L 535.332347 463.75449 
L 537.006836 459.69514 
L 537.564999 459.34416 
L 538.123162 460.22407 
L 538.681325 461.974198 
L 539.239488 463.297921 
L 539.797651 462.570868 
L 540.355814 458.66009 
L 540.913977 451.288118 
L 542.030303 428.932433 
L 543.146629 407.143506 
L 543.704792 401.304477 
L 544.262955 400.273183 
L 544.821118 403.858414 
L 545.379281 411.310886 
L 547.05377 440.427686 
L 547.611933 447.388248 
L 549.286422 462.994831 
L 550.402748 472.263286 
L 550.960911 474.875186 
L 551.519074 475.47938 
L 552.077238 474.071568 
L 553.193564 468.64644 
L 553.751727 467.633388 
L 554.30989 468.606903 
L 554.868053 470.293328 
L 555.426216 471.046154 
L 555.984379 470.223929 
L 557.658868 464.071497 
L 558.217031 462.890678 
L 559.333357 461.820128 
L 559.89152 460.59365 
L 561.007846 457.061054 
L 562.124172 454.917151 
L 562.682335 452.340893 
L 563.240498 448.045107 
L 564.356824 437.704126 
L 564.914987 433.531446 
L 565.47315 430.286526 
L 566.031313 427.706417 
L 566.589476 426.179827 
L 567.147639 426.853411 
L 567.705802 430.574466 
L 568.263965 437.027606 
L 569.380291 452.376623 
L 570.496617 464.306002 
L 572.171106 479.58578 
L 572.729269 482.78677 
L 573.287432 483.893953 
L 573.845595 482.613452 
L 574.403758 479.110823 
L 574.961921 473.885211 
L 576.078247 459.806462 
L 576.63641 452.408911 
L 577.194573 446.589926 
L 577.752736 443.255779 
L 578.310899 442.421208 
L 578.869062 443.512415 
L 579.985388 447.408837 
L 580.543551 448.371244 
L 581.101714 448.535639 
L 581.659877 448.189088 
L 582.21804 447.341873 
L 582.776203 445.943278 
L 583.334366 443.861583 
L 583.892529 440.559882 
L 584.450692 435.478969 
L 586.683344 409.76839 
L 587.241507 407.224761 
L 587.79967 407.273253 
L 588.357833 409.004033 
L 590.032323 415.645989 
L 591.148649 417.968051 
L 591.706812 419.932923 
L 593.381301 430.604 
L 593.939464 431.524157 
L 594.497627 430.296397 
L 595.05579 427.988179 
L 595.613953 426.155376 
L 596.172116 425.909427 
L 596.730279 427.253989 
L 597.846605 431.198481 
L 598.404768 432.425441 
L 598.962931 433.038658 
L 599.521094 433.189135 
L 600.63742 432.782192 
L 601.195583 433.563338 
L 601.753746 435.870632 
L 603.428235 445.580821 
L 603.986398 447.036083 
L 604.544561 446.381114 
L 605.102724 442.818028 
L 605.660887 435.710249 
L 606.21905 424.93785 
L 607.335376 396.343792 
L 608.451702 367.510921 
L 609.009865 356.008289 
L 609.568028 347.616023 
L 610.126191 342.544461 
L 610.684354 340.917397 
L 611.242517 343.295231 
L 611.80068 350.237356 
L 612.917006 374.192713 
L 614.033332 397.525411 
L 614.591495 405.970883 
L 615.707821 418.117727 
L 616.265984 422.205122 
L 617.38231 427.762305 
L 619.614962 437.338482 
L 620.731288 442.0543 
L 622.405777 451.321704 
L 622.96394 453.397652 
L 623.522103 454.722825 
L 624.080266 455.524268 
L 624.638429 455.955627 
L 625.196592 456.218604 
L 625.754755 456.92431 
L 626.312918 458.935026 
L 626.871082 462.752944 
L 627.987408 474.691855 
L 628.545571 480.681069 
L 629.103734 484.906238 
L 629.661897 486.675142 
L 630.22006 485.828825 
L 630.778223 482.443823 
L 631.336386 476.92477 
L 633.010875 456.446347 
L 633.569038 451.252898 
L 634.127201 447.79107 
L 634.685364 446.195062 
L 635.243527 446.600328 
L 635.80169 449.15316 
L 636.918016 458.51995 
L 638.034342 467.727824 
L 638.592505 471.050628 
L 639.150668 473.072585 
L 640.266994 474.986779 
L 640.825157 476.520505 
L 641.941483 480.573002 
L 642.499646 482.076471 
L 643.057809 483.049223 
L 643.615972 483.515118 
L 644.174135 483.310205 
L 644.732298 482.444477 
L 645.848624 480.056604 
L 646.406787 479.229729 
L 647.523113 478.849684 
L 648.081276 477.982253 
L 648.639439 476.16089 
L 649.755765 471.926451 
L 650.313928 470.456884 
L 651.430254 468.272575 
L 651.988417 466.313866 
L 655.337395 449.349844 
L 655.895558 443.7532 
L 656.453721 434.647347 
L 658.686373 386.560564 
L 659.244536 384.481083 
L 659.802699 389.388808 
L 660.360862 400.090525 
L 662.035351 441.696299 
L 662.593514 451.698429 
L 663.151677 458.141665 
L 663.70984 460.908606 
L 664.268004 460.610612 
L 665.38433 457.140256 
L 665.942493 457.590588 
L 666.500656 460.60068 
L 667.616982 470.997104 
L 668.733308 481.370788 
L 669.291471 485.183896 
L 669.849634 487.20759 
L 670.407797 487.109336 
L 670.96596 485.18623 
L 671.524123 481.689853 
L 672.082286 476.089734 
L 672.640449 467.41293 
L 673.756775 441.284378 
L 674.314938 428.039109 
L 674.873101 419.188472 
L 675.431264 417.490577 
L 675.989427 423.675142 
L 676.54759 436.201197 
L 678.222079 481.278137 
L 678.780242 491.045265 
L 679.338405 497.45256 
L 679.896568 501.343827 
L 680.454731 503.576753 
L 681.012894 504.70633 
L 681.571057 505.022795 
L 682.12922 504.669682 
L 682.687383 503.669185 
L 683.245546 501.981466 
L 684.361872 496.897756 
L 685.478198 491.815773 
L 686.036361 490.212156 
L 686.594524 489.483983 
L 687.152687 489.583561 
L 688.827176 491.466291 
L 689.943502 493.018943 
L 690.501665 493.789685 
L 691.059828 493.9905 
L 691.617991 493.091202 
L 692.176154 491.054878 
L 692.734317 488.583429 
L 693.29248 486.688824 
L 693.850643 485.877634 
L 694.408806 485.562174 
L 694.966969 484.46086 
L 695.525132 481.737714 
L 696.083295 477.463329 
L 697.199621 465.786864 
L 698.315947 454.065951 
L 698.87411 450.402124 
L 699.432273 448.397166 
L 700.548599 446.358589 
L 701.106762 444.400636 
L 701.664926 441.055063 
L 702.781252 432.992107 
L 703.339415 430.270207 
L 703.897578 428.608616 
L 704.455741 427.488279 
L 705.013904 426.903035 
L 705.572067 427.15872 
L 706.13023 427.681206 
L 706.688393 426.88129 
L 707.246556 423.641624 
L 708.362882 412.136911 
L 709.479208 401.08657 
L 710.037371 397.600332 
L 710.595534 395.444538 
L 711.153697 394.069956 
L 711.71186 393.417814 
L 712.270023 393.890532 
L 712.828186 395.516399 
L 713.944512 400.460457 
L 714.502675 403.509931 
L 715.060838 407.529711 
L 715.619001 413.114485 
L 716.735327 428.466683 
L 718.409816 453.78252 
L 718.967979 460.022318 
L 719.526142 464.116162 
L 720.084305 466.406601 
L 720.642468 467.642769 
L 721.200631 468.558173 
L 721.758794 469.698323 
L 722.316957 471.542754 
L 723.433283 477.516121 
L 723.991446 479.377111 
L 724.549609 478.32876 
L 725.107772 473.670815 
L 725.665935 465.837828 
L 726.782261 446.846532 
L 727.340424 439.338396 
L 727.898587 434.875358 
L 728.45675 433.793315 
L 729.014913 435.684804 
L 729.573076 439.722261 
L 731.247565 454.247489 
L 731.805728 457.37214 
L 732.363891 459.318697 
L 732.922054 459.909734 
L 733.480217 458.950249 
L 735.154706 451.968014 
L 735.712869 450.73912 
L 736.271032 450.295762 
L 736.829195 450.084351 
L 737.387358 449.577856 
L 737.945521 448.479031 
L 738.503684 446.484638 
L 739.061848 443.376015 
L 740.736337 432.090422 
L 741.2945 430.01843 
L 741.852663 429.103626 
L 742.410826 428.856086 
L 742.968989 429.053548 
L 743.527152 430.211211 
L 744.085315 433.035463 
L 745.201641 442.672919 
L 746.317967 451.967085 
L 746.87613 455.146751 
L 747.434293 456.364868 
L 747.992456 454.92519 
L 749.666945 443.905001 
L 750.225108 443.424588 
L 750.783271 445.500858 
L 753.015923 460.458573 
L 754.132249 463.60937 
L 754.690412 465.855106 
L 756.364901 474.068582 
L 756.923064 475.435095 
L 757.481227 475.265382 
L 758.03939 474.143208 
L 758.597553 473.281603 
L 759.155716 473.584203 
L 759.713879 475.103145 
L 760.830205 479.198745 
L 761.388368 480.020314 
L 761.946531 479.318419 
L 763.062857 475.416544 
L 763.62102 472.931289 
L 764.179183 469.552485 
L 765.853672 457.227495 
L 766.411835 455.613882 
L 766.969998 456.198703 
L 767.528161 458.917625 
L 769.20265 471.117545 
L 769.760813 472.487583 
L 770.318976 471.630969 
L 770.877139 468.935593 
L 771.435302 464.906895 
L 772.551628 455.345358 
L 773.109791 452.093998 
L 773.667954 451.187674 
L 774.226117 452.275472 
L 774.78428 453.968077 
L 775.342443 454.563828 
L 775.900606 452.93338 
L 777.016933 445.860145 
L 777.575096 444.350348 
L 778.133259 445.568769 
L 779.249585 450.945518 
L 779.807748 451.058009 
L 780.365911 447.544646 
L 780.924074 440.539667 
L 782.0404 420.585853 
L 783.156726 400.318006 
L 783.714889 394.060743 
L 784.273052 392.857634 
L 784.831215 397.5145 
L 785.389378 407.349584 
L 787.063867 446.419233 
L 787.62203 455.718751 
L 788.180193 461.781156 
L 788.738356 464.709524 
L 789.296519 464.793266 
L 789.854682 462.62973 
L 790.971008 455.637111 
L 791.529171 453.013694 
L 792.087334 451.69328 
L 792.645497 451.294765 
L 793.20366 451.476468 
L 793.761823 452.730162 
L 794.319986 455.883136 
L 795.436312 466.498823 
L 796.552638 476.463957 
L 797.668964 484.40458 
L 798.227127 487.53107 
L 798.78529 489.686635 
L 799.343453 490.494702 
L 799.901616 489.582296 
L 800.459779 486.91161 
L 801.576105 480.246524 
L 802.134268 478.373957 
L 802.692431 477.420811 
L 803.250594 476.698461 
L 803.808757 475.791037 
L 804.36692 474.429543 
L 804.925083 472.037515 
L 805.483246 468.047847 
L 806.599572 457.800687 
L 807.157735 454.532542 
L 807.715898 453.744376 
L 808.274061 455.00801 
L 809.390387 458.984923 
L 809.94855 460.048029 
L 810.506713 460.239004 
L 811.064876 459.617643 
L 811.623039 458.272015 
L 812.739365 454.0472 
L 814.413855 446.058709 
L 814.972018 444.228135 
L 815.530181 443.315638 
L 816.646507 442.686746 
L 817.20467 442.049936 
L 818.879159 438.940645 
L 819.437322 438.380529 
L 819.995485 438.703154 
L 820.553648 440.271979 
L 821.111811 443.075531 
L 822.7863 453.901516 
L 823.344463 455.961615 
L 823.902626 456.446793 
L 825.018952 455.410288 
L 825.577115 455.517791 
L 827.251604 457.007786 
L 827.809767 458.098156 
L 828.36793 459.966993 
L 828.926093 462.728548 
L 829.484256 466.41492 
L 830.600582 475.823453 
L 831.716908 485.611714 
L 832.275071 489.407758 
L 832.833234 491.447748 
L 833.391397 491.260929 
L 835.624049 483.747079 
L 836.182212 481.077612 
L 837.298538 472.9643 
L 838.414864 462.862312 
L 839.53119 450.694402 
L 840.089353 446.605175 
L 840.647516 445.221685 
L 841.205679 446.068412 
L 841.763842 448.195473 
L 843.438331 457.257522 
L 843.996494 458.447023 
L 844.554657 457.166385 
L 845.11282 453.855194 
L 846.229146 444.480616 
L 847.345472 434.192079 
L 847.903635 430.667126 
L 848.461798 429.489083 
L 849.019961 430.721131 
L 849.578124 433.654965 
L 850.69445 440.41165 
L 851.252613 442.677221 
L 851.810777 443.601294 
L 852.36894 442.9503 
L 852.927103 440.825575 
L 853.485266 437.553429 
L 854.601592 428.76271 
L 855.159755 424.213528 
L 855.717918 420.600228 
L 856.276081 418.549292 
L 856.834244 418.251675 
L 857.392407 419.287963 
L 857.95057 420.735691 
L 858.508733 421.862318 
L 859.625059 423.345364 
L 860.183222 423.558479 
L 860.741385 422.387841 
L 861.299548 419.41088 
L 862.415874 411.00061 
L 862.974037 408.117631 
L 863.5322 407.15427 
L 864.090363 407.693968 
L 864.648526 408.58079 
L 865.206689 408.821569 
L 865.764852 408.563827 
L 866.323015 408.906712 
L 866.881178 410.64216 
L 868.555667 419.763033 
L 869.11383 421.055452 
L 869.671993 420.161684 
L 870.230156 417.430266 
L 870.788319 414.008784 
L 871.346482 411.343918 
L 871.904645 410.855318 
L 872.462808 413.424893 
L 873.020971 418.949916 
L 874.69546 440.626116 
L 875.253623 444.239604 
L 875.811786 444.596547 
L 876.369949 442.677601 
L 876.928112 440.345747 
L 877.486275 439.008367 
L 878.044438 438.931577 
L 878.602601 439.871427 
L 879.160764 441.880814 
L 879.718927 445.092197 
L 880.835253 452.685499 
L 881.393416 454.933024 
L 881.951579 455.203365 
L 882.509742 453.712671 
L 883.626068 449.265846 
L 884.184231 447.796559 
L 884.742394 447.173251 
L 885.300557 447.68142 
L 885.85872 449.394717 
L 886.416883 451.626375 
L 886.975046 453.27332 
L 887.533209 453.850167 
L 888.091372 453.851203 
L 888.649535 454.147415 
L 889.207699 455.28964 
L 889.765862 457.317904 
L 890.882188 462.495715 
L 891.440351 464.192668 
L 891.998514 463.980384 
L 892.556677 460.810198 
L 893.11484 453.799854 
L 893.673003 442.71529 
L 895.347492 400.034306 
L 895.905655 391.06535 
L 896.463818 387.8694 
L 897.021981 390.426673 
L 897.580144 397.576634 
L 900.370959 446.213209 
L 901.487285 461.38433 
L 902.045448 467.702514 
L 902.603611 472.529897 
L 903.161774 475.739297 
L 903.719937 477.492784 
L 904.2781 478.195454 
L 904.836263 478.282828 
L 905.394426 477.788749 
L 905.952589 476.107544 
L 906.510752 472.284993 
L 907.068915 465.706401 
L 908.743404 440.157516 
L 909.301567 437.089551 
L 909.85973 439.149489 
L 910.417893 445.548983 
L 911.534219 462.334838 
L 912.092382 468.490916 
L 912.650545 472.482808 
L 913.208708 475.0231 
L 913.766871 476.65796 
L 914.325034 477.521473 
L 914.883197 477.583083 
L 915.44136 476.889348 
L 915.999523 475.863235 
L 916.557686 475.225966 
L 917.115849 475.392742 
L 917.674012 476.412445 
L 918.232175 478.355548 
L 919.348501 483.148598 
L 919.906664 484.073304 
L 920.464827 483.594321 
L 921.581153 480.924682 
L 922.139316 480.352997 
L 922.697479 480.382138 
L 923.255642 479.986441 
L 923.813805 478.298028 
L 924.371968 475.288538 
L 925.488294 468.133859 
L 926.046457 465.447273 
L 928.837273 456.063059 
L 929.395436 455.099592 
L 929.953599 455.799904 
L 930.511762 458.465985 
L 931.628088 466.223671 
L 932.186251 468.142449 
L 932.744414 466.364091 
L 933.302577 459.696696 
L 933.86074 448.295367 
L 935.535229 406.613067 
L 936.093392 399.53405 
L 936.651555 398.742943 
L 937.209718 403.955611 
L 937.767881 413.976396 
L 940.000533 465.119174 
L 940.558696 472.666328 
L 941.116859 477.236691 
L 941.675022 479.556861 
L 942.233185 480.825043 
L 942.791348 482.599082 
L 943.349511 485.987639 
L 945.024 499.753544 
L 945.582163 502.539622 
L 946.140326 504.148795 
L 946.698489 504.894692 
L 947.256652 505.061493 
L 947.814815 504.77376 
L 948.372978 503.995704 
L 948.931141 502.598314 
L 949.489304 500.505446 
L 950.60563 495.506323 
L 951.163793 493.751687 
L 951.721956 492.731354 
L 952.280119 492.227788 
L 952.838282 491.957307 
L 953.396445 491.444049 
L 953.954608 490.236761 
L 955.070934 486.279916 
L 956.18726 481.697415 
L 957.303586 476.696358 
L 957.861749 475.623608 
L 958.419912 475.973169 
L 960.094401 479.46757 
L 960.652564 480.104479 
L 961.210727 480.433676 
L 961.76889 480.350779 
L 962.327053 479.734426 
L 963.443379 477.889108 
L 964.001543 477.142072 
L 964.559706 476.036118 
L 965.117869 474.099828 
L 966.792358 466.353195 
L 967.350521 465.63693 
L 967.908684 466.774117 
L 968.466847 469.861096 
L 969.583173 480.290984 
L 970.699499 490.430403 
L 971.257662 493.230564 
L 971.815825 494.283764 
L 972.373988 493.808298 
L 972.932151 491.912287 
L 973.490314 488.71609 
L 974.60664 480.734113 
L 975.164803 477.598819 
L 975.722966 475.818076 
L 976.281129 475.597826 
L 976.839292 476.830106 
L 977.955618 480.86345 
L 978.513781 481.875848 
L 979.630107 482.284851 
L 980.18827 483.418724 
L 980.746433 485.807918 
L 982.420922 496.081296 
L 982.979085 497.398031 
L 983.537248 496.939839 
L 984.095411 495.303539 
L 985.211737 491.459484 
L 985.7699 490.212532 
L 986.328063 489.422528 
L 986.886226 488.86018 
L 987.444389 488.512225 
L 988.002552 488.550513 
L 988.560715 489.034482 
L 990.793367 491.990385 
L 991.909693 493.198982 
L 992.467856 494.141011 
L 993.584182 497.126894 
L 994.700508 500.164258 
L 995.258671 501.414404 
L 995.816834 502.319237 
L 996.374997 502.659251 
L 996.93316 502.242553 
L 997.491323 501.00419 
L 998.049486 499.035772 
L 1000.282138 489.09551 
L 1000.840301 487.942434 
L 1001.398465 487.319753 
L 1001.956628 486.481639 
L 1002.514791 484.920356 
L 1003.631117 481.121562 
L 1004.18928 480.67484 
L 1004.747443 482.239475 
L 1005.305606 485.971428 
L 1006.980095 500.638854 
L 1007.538258 503.272458 
L 1008.096421 504.55589 
L 1008.654584 504.935672 
L 1009.212747 504.839973 
L 1010.887236 504.116968 
L 1012.003562 503.959707 
L 1017.027029 503.98774 
L 1018.143355 504.142939 
L 1019.817844 504.615981 
L 1020.376007 504.531465 
L 1020.93417 503.979256 
L 1021.492333 502.654989 
L 1022.050496 500.326039 
L 1023.166822 493.165569 
L 1024.283148 486.219373 
L 1025.957637 478.203676 
L 1028.190289 463.838202 
L 1028.748452 462.114011 
L 1029.306615 461.383195 
L 1029.864778 461.382797 
L 1030.422941 462.100757 
L 1030.981104 463.780539 
L 1031.539267 466.538548 
L 1032.655593 474.46125 
L 1033.771919 482.440336 
L 1034.330082 484.340583 
L 1034.888245 484.346256 
L 1035.446408 483.348041 
L 1036.004571 482.620228 
L 1036.562734 482.752433 
L 1037.120897 483.385326 
L 1037.67906 483.668455 
L 1038.237223 482.769607 
L 1038.795387 480.406499 
L 1040.469876 470.836065 
L 1042.702528 460.141976 
L 1043.260691 458.752864 
L 1043.818854 458.733711 
L 1044.93518 461.273809 
L 1045.493343 461.716065 
L 1046.051506 460.405357 
L 1046.609669 457.298729 
L 1048.284158 445.466602 
L 1048.842321 443.680526 
L 1049.400484 443.656862 
L 1049.958647 444.914768 
L 1052.191299 451.829037 
L 1052.749462 455.201864 
L 1054.423951 468.322794 
L 1054.982114 470.625933 
L 1055.540277 471.126597 
L 1056.656603 469.669304 
L 1057.214766 469.865279 
L 1057.772929 471.706632 
L 1062.238233 497.357678 
L 1062.796396 500.099225 
L 1063.354559 501.896411 
L 1063.912722 502.668727 
L 1064.470885 502.446929 
L 1065.029048 501.206022 
L 1065.587211 498.903776 
L 1066.703537 492.071818 
L 1067.2617 488.633701 
L 1067.819863 485.89465 
L 1068.378026 484.013703 
L 1070.052515 480.450726 
L 1071.727004 476.954266 
L 1072.285167 476.166997 
L 1072.84333 476.016039 
L 1073.401493 477.01584 
L 1073.959656 479.469238 
L 1075.075982 485.989341 
L 1075.634145 487.844345 
L 1076.192309 488.137411 
L 1076.750472 486.873283 
L 1077.308635 484.109369 
L 1078.983124 472.792167 
L 1079.541287 470.946206 
L 1080.09945 470.50163 
L 1080.657613 471.04805 
L 1081.215776 472.321124 
L 1081.773939 474.243792 
L 1086.239243 493.523678 
L 1086.797406 495.708925 
L 1087.355569 497.353588 
L 1087.913732 498.07752 
L 1088.471895 497.780111 
L 1089.030058 496.622266 
L 1089.588221 495.043287 
L 1090.146384 493.836027 
L 1090.704547 493.717 
L 1091.26271 494.662655 
L 1091.820873 495.969939 
L 1092.379036 496.894284 
L 1092.937199 497.014008 
L 1093.495362 496.194054 
L 1094.053525 494.507736 
L 1095.728014 487.507157 
L 1096.286177 486.341337 
L 1096.84434 486.156848 
L 1097.402503 486.397231 
L 1097.960666 486.468968 
L 1098.518829 486.167795 
L 1100.193318 484.448588 
L 1100.751481 483.531313 
L 1101.867807 481.11863 
L 1102.42597 480.646344 
L 1102.984133 481.222503 
L 1104.100459 483.878243 
L 1104.658622 484.390847 
L 1105.216785 483.660835 
L 1105.774948 481.787292 
L 1107.449437 473.824746 
L 1108.0076 472.493573 
L 1108.565763 473.023881 
L 1109.123926 475.659451 
L 1110.798415 488.064602 
L 1111.356578 490.048665 
L 1111.914741 490.14962 
L 1113.031067 487.976363 
L 1113.58923 487.506634 
L 1114.147394 487.7624 
L 1114.705557 488.626131 
L 1116.938209 493.564067 
L 1117.496372 493.018407 
L 1118.054535 490.859197 
L 1119.170861 484.629353 
L 1119.729024 482.267963 
L 1120.84535 479.082669 
L 1121.961676 476.291541 
L 1122.519839 475.250864 
L 1123.078002 474.969439 
L 1123.636165 475.953631 
L 1124.194328 478.502903 
L 1126.42698 493.368902 
L 1126.985143 493.916362 
L 1127.543306 492.178451 
L 1128.101469 488.353908 
L 1129.217795 476.878226 
L 1129.775958 471.123068 
L 1130.334121 466.76514 
L 1130.892284 464.241804 
L 1131.450447 463.165689 
L 1132.00861 462.813895 
L 1132.566773 462.785671 
L 1133.124936 463.125289 
L 1133.683099 464.049511 
L 1134.241262 465.801722 
L 1134.799425 468.607449 
L 1135.357588 472.639294 
L 1135.915751 478.008365 
L 1137.59024 497.773909 
L 1138.148403 502.388137 
L 1138.706566 504.587749 
L 1139.264729 503.667533 
L 1139.822892 498.917621 
L 1140.381055 489.855898 
L 1140.939218 476.629365 
L 1142.613707 429.647276 
L 1143.17187 421.346299 
L 1143.730033 420.688348 
L 1144.288196 427.712078 
L 1145.404522 455.128634 
L 1145.962685 468.568014 
L 1146.520848 478.616986 
L 1147.079011 484.833047 
L 1147.637174 487.700322 
L 1148.195337 487.890284 
L 1148.7535 486.147941 
L 1149.869826 480.68442 
L 1150.427989 478.58858 
L 1150.986152 477.592501 
L 1151.544316 478.052221 
L 1152.102479 480.001675 
L 1153.218805 485.397256 
L 1153.776968 486.641043 
L 1154.335131 486.027524 
L 1154.893294 483.617775 
L 1157.125946 469.053843 
L 1157.684109 467.187015 
L 1158.242272 466.498362 
L 1158.800435 467.319604 
L 1159.358598 469.726256 
L 1161.033087 480.676342 
L 1161.59125 482.828058 
L 1162.149413 484.078504 
L 1162.707576 484.804786 
L 1163.265739 484.671708 
L 1163.823902 483.316944 
L 1164.940228 479.526464 
L 1165.498391 478.945513 
L 1166.056554 479.873394 
L 1166.614717 482.335264 
L 1167.731043 489.569321 
L 1168.289206 491.786605 
L 1168.847369 491.567105 
L 1169.405532 489.273861 
L 1170.521858 483.99534 
L 1171.080021 482.472166 
L 1173.870836 476.982684 
L 1174.428999 476.512332 
L 1174.987162 477.082283 
L 1175.545325 479.16315 
L 1176.661651 486.550516 
L 1177.219814 490.182676 
L 1177.777977 493.021667 
L 1178.33614 495.08853 
L 1178.894303 496.594993 
L 1179.452466 497.596048 
L 1180.010629 497.924309 
L 1180.568792 497.376271 
L 1181.126955 495.658221 
L 1181.685118 492.239529 
L 1182.243281 486.737782 
L 1183.359607 471.280526 
L 1184.475933 455.44381 
L 1185.034096 450.125994 
L 1185.592259 448.909917 
L 1186.150422 452.64533 
L 1187.824911 475.519597 
L 1188.383074 479.274676 
L 1188.941238 480.062011 
L 1189.499401 479.09596 
L 1190.057564 477.164771 
L 1190.615727 473.683661 
L 1191.17389 467.309097 
L 1191.732053 457.468707 
L 1193.406542 422.362935 
L 1193.964705 415.215629 
L 1194.522868 411.977222 
L 1195.081031 413.030355 
L 1195.639194 418.358136 
L 1196.197357 427.113434 
L 1197.871846 458.153053 
L 1198.430009 465.358151 
L 1198.988172 469.992699 
L 1199.546335 472.594232 
L 1200.104498 474.060399 
L 1200.662661 475.067544 
L 1201.220824 475.669254 
L 1201.778987 475.471568 
L 1202.33715 474.121436 
L 1202.895313 471.629921 
L 1203.453476 468.618143 
L 1204.011639 466.276755 
L 1204.569802 465.667389 
L 1205.127965 466.884016 
L 1206.244291 470.895832 
L 1206.802454 472.046028 
L 1207.91878 473.176275 
L 1208.476943 474.158686 
L 1209.035106 475.427383 
L 1209.593269 476.352882 
L 1210.151432 476.437924 
L 1210.709595 475.688272 
L 1211.267758 474.549142 
L 1211.825921 473.704821 
L 1212.384084 473.787174 
L 1212.942247 474.951401 
L 1213.50041 476.617916 
L 1214.058573 477.748676 
L 1214.616736 477.602785 
L 1215.733062 475.081564 
L 1216.291225 474.50927 
L 1216.849388 474.972225 
L 1218.523877 478.819221 
L 1219.08204 479.449021 
L 1220.198366 480.363088 
L 1220.756529 481.006449 
L 1221.314692 481.947265 
L 1221.872855 483.464778 
L 1222.989181 487.589743 
L 1223.547344 488.763791 
L 1224.105507 488.798921 
L 1225.221833 487.468011 
L 1225.779996 487.245425 
L 1226.33816 487.846792 
L 1226.896323 489.410838 
L 1229.128975 498.512038 
L 1230.803464 502.391646 
L 1231.91979 504.366173 
L 1232.477953 504.964406 
L 1233.036116 505.213622 
L 1233.594279 504.897108 
L 1234.152442 503.633996 
L 1234.710605 500.968676 
L 1235.268768 496.633737 
L 1236.943257 479.95557 
L 1237.50142 476.668041 
L 1238.059583 475.250853 
L 1238.617746 475.560561 
L 1239.175909 477.387325 
L 1239.734072 480.469361 
L 1240.850398 488.118899 
L 1241.408561 490.670495 
L 1241.966724 491.158469 
L 1242.524887 489.646892 
L 1243.641213 484.465307 
L 1244.199376 483.099319 
L 1244.757539 483.254643 
L 1245.315702 483.865464 
L 1245.873865 482.717931 
L 1246.432028 477.802984 
L 1246.990191 468.811496 
L 1248.106517 447.283652 
L 1248.66468 440.966771 
L 1249.222843 440.257019 
L 1249.781006 444.853656 
L 1251.455495 470.203865 
L 1252.013658 475.592762 
L 1252.571821 478.186685 
L 1253.129984 478.670373 
L 1253.688147 478.218748 
L 1254.24631 478.18826 
L 1254.804473 479.455132 
L 1255.362636 481.990455 
L 1256.478962 488.021942 
L 1257.037125 489.181751 
L 1257.595288 487.150205 
L 1258.153451 481.154752 
L 1259.269777 460.411331 
L 1259.82794 449.448514 
L 1260.386103 441.114051 
L 1260.944266 437.326747 
L 1261.502429 439.121328 
L 1262.060592 446.255527 
L 1264.293245 488.444688 
L 1264.851408 494.084856 
L 1265.409571 497.234653 
L 1265.967734 498.466123 
L 1266.525897 498.601682 
L 1267.08406 498.463097 
L 1267.642223 498.560169 
L 1268.758549 499.314052 
L 1269.316712 499.318487 
L 1270.433038 498.512459 
L 1270.991201 498.424133 
L 1271.549364 498.800258 
L 1272.107527 499.342714 
L 1272.66569 499.559255 
L 1273.223853 499.043659 
L 1273.782016 497.551126 
L 1275.456505 490.029497 
L 1276.014668 489.220958 
L 1276.572831 490.273357 
L 1277.130994 492.90231 
L 1278.24732 499.41016 
L 1278.805483 501.54565 
L 1279.363646 502.460828 
L 1279.921809 502.382762 
L 1280.479972 501.740226 
L 1281.596298 499.989424 
L 1282.154461 499.431164 
L 1282.712624 499.608884 
L 1283.270787 500.555609 
L 1284.387113 502.908084 
L 1284.945276 503.582356 
L 1285.503439 503.841431 
L 1286.061602 503.792389 
L 1287.177928 503.430113 
L 1291.643232 503.03153 
L 1292.201395 502.537935 
L 1293.875884 499.715606 
L 1294.434047 499.483659 
L 1294.99221 499.968197 
L 1295.550373 500.812069 
L 1296.108536 501.393791 
L 1296.666699 501.239589 
L 1297.224862 500.231634 
L 1297.783025 498.472096 
L 1299.457514 491.739213 
L 1300.015677 491.129872 
L 1300.57384 491.965092 
L 1301.132004 493.400509 
L 1301.690167 494.287894 
L 1302.24833 494.003118 
L 1302.806493 492.46394 
L 1303.364656 489.751014 
L 1303.922819 485.977735 
L 1305.597308 472.032873 
L 1306.155471 469.854129 
L 1306.713634 470.916506 
L 1307.271797 475.19787 
L 1308.388123 489.059269 
L 1308.946286 495.972956 
L 1309.504449 501.159498 
L 1310.062612 503.621476 
L 1310.620775 502.675773 
L 1311.178938 497.827351 
L 1311.737101 488.894353 
L 1312.853427 461.849515 
L 1313.969753 436.00838 
L 1314.527916 429.263786 
L 1315.086079 428.316898 
L 1315.644242 433.03353 
L 1316.202405 442.271507 
L 1318.435057 488.77451 
L 1318.99322 495.000489 
L 1319.551383 497.288739 
L 1320.109546 496.101771 
L 1321.225872 489.545192 
L 1321.784035 487.362991 
L 1322.342198 486.737032 
L 1322.900361 487.483778 
L 1324.016687 491.179665 
L 1324.57485 492.950304 
L 1325.133013 494.205427 
L 1325.691176 494.804366 
L 1326.249339 494.668475 
L 1327.923828 492.475758 
L 1329.040154 491.660568 
L 1330.714643 489.306447 
L 1331.272806 489.007303 
L 1331.830969 489.363312 
L 1332.389132 490.355631 
L 1333.505458 492.800829 
L 1334.063621 493.570897 
L 1335.179947 494.301318 
L 1335.73811 494.972384 
L 1336.854436 496.798246 
L 1337.412599 496.733617 
L 1337.970762 495.579546 
L 1339.645252 490.122819 
L 1340.761578 487.382879 
L 1341.319741 485.417373 
L 1342.436067 480.084181 
L 1342.99423 476.219081 
L 1343.552393 470.858227 
L 1344.668719 455.399828 
L 1345.785045 439.104764 
L 1346.343208 434.519926 
L 1346.901371 433.991701 
L 1347.459534 437.721637 
L 1348.017697 444.895655 
L 1350.250349 480.921571 
L 1350.808512 488.197025 
L 1351.366675 493.823531 
L 1351.924838 497.596192 
L 1352.483001 499.972752 
L 1353.041164 501.606515 
L 1353.599327 502.807388 
L 1354.15749 503.609758 
L 1354.715653 504.054426 
L 1355.273816 504.25423 
L 1357.506468 504.4655 
L 1358.064631 504.353541 
L 1358.622794 503.924787 
L 1359.180957 502.966019 
L 1359.73912 501.324019 
L 1360.855446 496.245215 
L 1361.971772 490.990733 
L 1362.529935 489.871276 
L 1363.088098 490.523336 
L 1363.646261 492.863736 
L 1364.762587 499.533197 
L 1365.32075 502.085628 
L 1365.878913 503.500659 
L 1366.437076 503.791735 
L 1366.995239 503.156762 
L 1368.669728 499.3861 
L 1369.786054 498.144026 
L 1370.344217 496.875728 
L 1370.90238 493.813121 
L 1371.460543 487.980327 
L 1372.018706 479.151501 
L 1373.135032 457.6274 
L 1373.693195 449.783587 
L 1374.251358 447.110757 
L 1374.809521 450.479093 
L 1375.367684 458.818828 
L 1377.042174 489.896128 
L 1377.600337 496.452875 
L 1378.1585 500.643395 
L 1378.716663 503.220085 
L 1379.274826 504.506717 
L 1379.832989 504.027996 
L 1380.391152 500.867319 
L 1380.949315 494.240263 
L 1381.507478 484.154674 
L 1382.623804 460.395861 
L 1383.181967 451.996513 
L 1383.74013 448.585057 
L 1384.298293 450.618175 
L 1384.856456 456.96199 
L 1385.972782 472.226786 
L 1386.530945 476.419877 
L 1387.089108 477.327381 
L 1387.647271 476.296906 
L 1388.205434 475.684962 
L 1388.763597 477.317558 
L 1390.438086 489.640239 
L 1390.996249 491.497714 
L 1391.554412 491.539242 
L 1392.112575 490.297635 
L 1393.228901 485.98146 
L 1394.90339 478.219383 
L 1395.461553 478.166595 
L 1396.019716 480.74726 
L 1397.694205 495.741291 
L 1398.252368 498.05187 
L 1398.810531 497.244625 
L 1399.368694 493.752855 
L 1400.48502 484.631726 
L 1401.043183 481.608435 
L 1401.601346 480.055177 
L 1402.159509 479.817883 
L 1402.717672 480.803039 
L 1403.275835 482.897142 
L 1404.950324 490.906038 
L 1406.06665 494.50718 
L 1407.182976 499.223357 
L 1408.299302 503.61516 
L 1408.857465 504.666489 
L 1409.415628 504.331658 
L 1409.973791 502.088564 
L 1410.531954 497.507487 
L 1411.64828 482.424182 
L 1412.206443 474.553136 
L 1412.764606 468.604653 
L 1413.32277 465.225482 
L 1413.880933 463.917118 
L 1414.439096 463.347876 
L 1414.997259 461.955579 
L 1415.555422 458.782161 
L 1416.671748 449.239827 
L 1417.229911 445.779217 
L 1417.788074 444.805979 
L 1418.346237 446.469828 
L 1418.9044 450.063156 
L 1420.020726 458.491827 
L 1420.578889 461.010076 
L 1421.137052 461.458598 
L 1421.695215 460.032726 
L 1423.927867 449.780888 
L 1424.48603 448.915123 
L 1425.044193 448.546619 
L 1425.602356 447.281918 
L 1426.160519 443.378504 
L 1426.718682 435.792394 
L 1427.835008 412.35716 
L 1428.951334 390.348377 
L 1429.509497 383.591971 
L 1430.06766 380.432656 
L 1430.625823 381.202823 
L 1431.183986 385.851835 
L 1432.300312 401.984123 
L 1433.416638 417.289278 
L 1433.974801 422.890542 
L 1434.532964 426.877406 
L 1435.091127 429.253606 
L 1435.64929 430.281304 
L 1436.207453 430.342472 
L 1436.765616 429.57288 
L 1437.323779 427.845843 
L 1438.440105 422.217594 
L 1439.556431 416.600213 
L 1440.114594 414.473153 
L 1444.021735 403.196701 
L 1445.138061 401.082176 
L 1446.254387 398.8199 
L 1446.81255 398.560199 
L 1447.370713 399.077535 
L 1447.928876 399.812268 
L 1448.487039 400.260218 
L 1449.045202 400.380748 
L 1449.603365 400.30196 
L 1450.719691 399.834445 
L 1451.277855 400.123516 
L 1452.394181 401.978218 
L 1452.952344 402.242716 
L 1453.510507 401.451097 
L 1454.06867 399.740941 
L 1455.184996 395.72863 
L 1455.743159 394.655659 
L 1456.301322 394.720458 
L 1456.859485 395.78768 
L 1457.975811 398.872926 
L 1458.533974 399.901677 
L 1459.092137 400.149685 
L 1460.208463 399.052966 
L 1460.766626 399.583209 
L 1461.324789 402.11336 
L 1462.999278 415.917005 
L 1463.557441 418.219411 
L 1464.115604 417.227142 
L 1464.673767 412.259663 
L 1465.23193 403.509657 
L 1466.906419 370.089119 
L 1467.464582 363.194925 
L 1468.022745 361.17097 
L 1468.580908 364.710496 
L 1469.139071 373.648862 
L 1469.697234 387.137492 
L 1471.371723 434.905945 
L 1471.929886 446.321228 
L 1472.488049 454.333157 
L 1473.046212 458.77817 
L 1473.604375 459.213473 
L 1474.162538 455.719469 
L 1475.278864 441.868423 
L 1476.39519 425.586083 
L 1478.069679 397.567972 
L 1478.627842 394.227857 
L 1479.186005 397.616521 
L 1479.744168 406.642112 
L 1481.418657 441.785212 
L 1481.97682 450.593648 
L 1482.534983 456.353555 
L 1483.093146 458.571641 
L 1483.651309 457.6251 
L 1484.209472 454.645399 
L 1485.883961 443.711901 
L 1486.442124 441.760605 
L 1487.000287 441.737587 
L 1487.55845 443.615287 
L 1488.674777 449.483864 
L 1489.23294 451.463744 
L 1489.791103 452.040293 
L 1490.349266 451.170138 
L 1490.907429 449.21965 
L 1492.023755 444.8808 
L 1492.581918 444.171584 
L 1493.140081 445.102464 
L 1494.256407 449.013448 
L 1494.81457 449.805829 
L 1495.372733 449.485369 
L 1495.930896 448.724935 
L 1496.489059 448.260417 
L 1497.047222 448.678378 
L 1497.605385 450.400161 
L 1498.721711 456.942688 
L 1499.279874 460.14543 
L 1499.838037 462.430621 
L 1500.3962 463.533196 
L 1500.954363 463.105134 
L 1501.512526 460.914767 
L 1502.628852 454.172645 
L 1503.187015 452.369489 
L 1503.745178 452.602038 
L 1504.303341 454.417229 
L 1505.97783 461.949724 
L 1506.535993 463.399115 
L 1507.094156 463.772015 
L 1507.652319 463.062004 
L 1508.768645 460.106824 
L 1509.884971 456.662438 
L 1510.443134 454.27464 
L 1511.001297 451.227619 
L 1511.55946 447.492851 
L 1512.117623 442.815213 
L 1512.675786 436.704989 
L 1514.350275 414.870635 
L 1514.908438 411.955335 
L 1515.466601 413.585344 
L 1516.024764 419.895557 
L 1517.14109 441.030276 
L 1518.257416 459.987608 
L 1518.815579 466.175721 
L 1519.373742 470.321324 
L 1519.931905 472.656102 
L 1520.490068 473.227427 
L 1521.048231 471.940213 
L 1521.606394 468.973881 
L 1522.72272 461.868987 
L 1523.280883 460.122522 
L 1523.839046 460.327177 
L 1524.397209 462.324133 
L 1524.955372 465.90458 
L 1526.071699 476.554095 
L 1527.188025 486.568357 
L 1527.746188 489.858931 
L 1528.304351 491.762083 
L 1528.862514 492.271293 
L 1529.420677 491.763966 
L 1530.537003 490.214637 
L 1531.653329 489.472798 
L 1532.211492 488.613464 
L 1533.327818 486.279481 
L 1533.885981 486.184628 
L 1534.444144 487.241137 
L 1536.676796 494.279917 
L 1538.351285 501.497416 
L 1538.909448 502.979923 
L 1539.467611 503.835318 
L 1540.025774 504.264893 
L 1541.700263 505.0801 
L 1542.258426 505.376597 
L 1542.816589 505.359892 
L 1543.374752 504.525793 
L 1543.932915 502.20235 
L 1544.491078 497.756216 
L 1545.049241 491.00338 
L 1546.72373 464.250739 
L 1548.398219 437.494664 
L 1548.956382 432.047619 
L 1549.514545 431.169756 
L 1550.072708 435.009326 
L 1551.747197 455.87217 
L 1552.30536 460.529966 
L 1552.863523 463.659967 
L 1553.421686 465.929489 
L 1553.979849 467.646418 
L 1554.538012 468.125743 
L 1555.096175 465.887744 
L 1555.654338 459.872019 
L 1557.328827 432.156346 
L 1557.88699 427.964293 
L 1558.445153 428.872997 
L 1559.003316 434.456388 
L 1560.119642 453.508327 
L 1560.677805 463.393783 
L 1561.235968 471.144642 
L 1561.794131 475.485314 
L 1562.352294 476.312047 
L 1562.910457 474.79684 
L 1563.468621 472.744339 
L 1564.026784 471.557204 
L 1564.584947 471.568013 
L 1565.701273 473.087786 
L 1566.259436 473.366719 
L 1566.817599 472.708883 
L 1568.492088 468.207258 
L 1569.050251 468.281769 
L 1569.608414 469.80855 
L 1570.166577 472.671599 
L 1571.282903 481.403597 
L 1571.841066 485.751674 
L 1572.399229 488.393816 
L 1572.957392 488.644246 
L 1573.515555 486.93272 
L 1574.631881 482.486368 
L 1575.748207 479.751026 
L 1576.30637 478.625313 
L 1576.864533 478.263918 
L 1577.422696 479.004797 
L 1579.097185 483.78107 
L 1579.655348 484.73546 
L 1580.213511 484.743102 
L 1580.771674 483.860838 
L 1581.329837 482.63514 
L 1581.888 481.742957 
L 1582.446163 481.701087 
L 1583.004326 482.737237 
L 1583.562489 484.796856 
L 1584.120652 487.752254 
L 1586.353304 502.759426 
L 1586.911467 504.715453 
L 1587.46963 505.305853 
L 1588.027793 504.32842 
L 1588.585956 501.488894 
L 1589.144119 496.575689 
L 1590.818608 477.198361 
L 1591.376771 474.943719 
L 1591.934934 476.4002 
L 1592.493097 480.782838 
L 1594.167586 498.006857 
L 1594.725749 501.32256 
L 1595.283912 502.479176 
L 1595.842075 501.291655 
L 1596.400238 497.557828 
L 1596.958401 491.330874 
L 1598.63289 468.315731 
L 1599.191053 464.190349 
L 1599.749216 463.156031 
L 1600.307379 464.882597 
L 1600.865543 468.741047 
L 1601.981869 480.202237 
L 1603.098195 492.082613 
L 1603.656358 496.836738 
L 1604.214521 500.544012 
L 1604.772684 503.167742 
L 1605.330847 504.674422 
L 1605.88901 505.018312 
L 1606.447173 504.094307 
L 1607.005336 501.729518 
L 1607.563499 497.861473 
L 1608.679825 487.843173 
L 1609.237988 484.032244 
L 1609.796151 482.312495 
L 1610.354314 482.798689 
L 1610.912477 485.02406 
L 1612.028803 490.861567 
L 1612.586966 492.351304 
L 1613.145129 492.009605 
L 1613.703292 489.744032 
L 1614.819618 482.700639 
L 1615.377781 481.027366 
L 1615.935944 482.048271 
L 1616.494107 485.535309 
L 1618.168596 499.526988 
L 1618.726759 502.352566 
L 1619.284922 503.950312 
L 1619.843085 504.623272 
L 1620.401248 504.732898 
L 1623.192063 503.984211 
L 1625.424715 503.984825 
L 1632.122671 503.995027 
L 1635.471649 504.01664 
L 1636.587975 504.387427 
L 1637.704301 504.995512 
L 1638.262465 505.06431 
L 1638.820628 504.535302 
L 1639.378791 502.903904 
L 1639.936954 499.668334 
L 1640.495117 494.52363 
L 1641.611443 479.074079 
L 1642.169606 470.873187 
L 1642.727769 465.281387 
L 1643.285932 464.538779 
L 1643.844095 469.371243 
L 1645.518584 496.435308 
L 1646.076747 501.856028 
L 1646.63491 504.670136 
L 1647.193073 505.70812 
L 1647.751236 505.8389 
L 1648.867562 505.668097 
L 1649.425725 505.749738 
L 1649.983888 505.686955 
L 1650.542051 504.915776 
L 1651.100214 502.62684 
L 1651.658377 497.941748 
L 1652.21654 490.361686 
L 1653.332866 470.273632 
L 1653.891029 462.641517 
L 1654.449192 459.862167 
L 1655.007355 462.585144 
L 1655.565518 469.63398 
L 1656.681844 486.838026 
L 1657.240007 492.190629 
L 1657.79817 493.750576 
L 1658.356333 492.194124 
L 1658.914496 489.59415 
L 1659.472659 488.322058 
L 1660.030822 489.604489 
L 1660.588985 492.982896 
L 1661.705311 500.571315 
L 1662.263474 502.945809 
L 1662.821637 504.208428 
L 1663.3798 504.670341 
L 1663.937963 504.676562 
L 1666.170615 504.061832 
L 1668.96143 504.037993 
L 1669.519593 503.677666 
L 1670.077756 502.998502 
L 1671.752245 500.109241 
L 1672.310408 500.118351 
L 1672.868571 500.90433 
L 1673.984897 503.015763 
L 1674.54306 503.691462 
L 1675.101223 504.052988 
L 1675.659387 504.187268 
L 1676.775713 504.142973 
L 1679.008365 504.025671 
L 1680.682854 503.981011 
L 1681.79918 503.733695 
L 1682.915506 503.326344 
L 1683.473669 503.246653 
L 1684.031832 503.346091 
L 1685.706321 503.993594 
L 1686.822647 504.078978 
L 1687.38081 503.925392 
L 1687.938973 503.599257 
L 1689.613462 502.030337 
L 1690.171625 501.936184 
L 1690.729788 502.279632 
L 1691.846114 503.400819 
L 1692.404277 503.788041 
L 1692.96244 504.005084 
L 1694.078766 504.104561 
L 1699.102233 503.998779 
L 1703.567537 503.945861 
L 1705.242026 503.882503 
L 1705.800189 503.971804 
L 1706.358352 504.206551 
L 1706.916515 504.640198 
L 1708.591004 506.377467 
L 1709.149167 505.80635 
L 1709.70733 503.242143 
L 1710.265493 497.525787 
L 1710.823656 487.909846 
L 1712.498145 447.458895 
L 1713.056309 439.06145 
L 1713.614472 437.416653 
L 1714.172635 443.302242 
L 1714.730798 455.475708 
L 1715.847124 485.311166 
L 1716.405287 496.316108 
L 1716.96345 503.010582 
L 1717.521613 506.119608 
L 1718.079776 506.858875 
L 1718.637939 506.27922 
L 1719.196102 505.043583 
L 1721.428754 498.988814 
L 1721.986917 498.940153 
L 1722.54508 499.949426 
L 1724.219569 504.572685 
L 1724.777732 505.111532 
L 1725.335895 504.386198 
L 1725.894058 501.754241 
L 1726.452221 496.59081 
L 1727.010384 488.582557 
L 1729.243036 447.781334 
L 1729.801199 445.08485 
L 1730.359362 447.742092 
L 1730.917525 454.543729 
L 1732.592014 479.499861 
L 1733.150177 483.974305 
L 1733.70834 486.058949 
L 1734.266503 486.874539 
L 1734.824666 487.472546 
L 1735.382829 488.32674 
L 1735.940992 489.473987 
L 1736.499155 490.994707 
L 1737.057318 493.170589 
L 1738.731807 501.83567 
L 1739.28997 503.777992 
L 1739.848133 505.016033 
L 1740.406296 505.6872 
L 1740.964459 505.799698 
L 1741.522622 505.113435 
L 1742.080785 503.141351 
L 1742.638948 499.313405 
L 1743.197111 493.374643 
L 1744.313437 478.504454 
L 1744.8716 472.962744 
L 1745.429763 470.340232 
L 1745.987926 470.368728 
L 1747.104252 473.29679 
L 1747.662415 474.299291 
L 1748.220578 474.820988 
L 1748.778741 474.958393 
L 1749.336904 474.658349 
L 1749.895067 474.092763 
L 1750.45323 474.126501 
L 1751.011394 475.98241 
L 1751.569557 480.142152 
L 1753.244046 497.082304 
L 1753.802209 500.975318 
L 1754.360372 503.383353 
L 1754.918535 504.543761 
L 1755.476698 504.876049 
L 1756.034861 504.776845 
L 1757.70935 504.104112 
L 1758.825676 503.961073 
L 1763.849143 504.002927 
L 1765.523632 504.19562 
L 1766.639958 504.323492 
L 1767.198121 504.198334 
L 1767.756284 503.765419 
L 1768.314447 502.869917 
L 1768.87261 501.375993 
L 1769.430773 499.125138 
L 1769.988936 495.988623 
L 1771.663425 484.319518 
L 1772.221588 481.664143 
L 1772.779751 480.5188 
L 1773.337914 481.106651 
L 1773.896077 483.379681 
L 1774.45424 487.09994 
L 1776.128729 500.648062 
L 1776.686892 503.205369 
L 1777.245055 503.929131 
L 1777.803218 502.717486 
L 1778.361381 499.651736 
L 1779.477707 490.527074 
L 1780.03587 487.250892 
L 1780.594033 486.624393 
L 1781.152196 488.804439 
L 1782.826685 500.8453 
L 1783.384848 503.198635 
L 1783.943011 504.44827 
L 1784.501174 504.979263 
L 1785.059337 505.160987 
L 1786.175663 505.192459 
L 1786.733826 504.901573 
L 1787.291989 503.986995 
L 1787.850152 501.98347 
L 1788.408316 498.524064 
L 1790.082805 484.697621 
L 1790.640968 483.349681 
L 1791.199131 484.71911 
L 1791.757294 488.147777 
L 1793.431783 500.817839 
L 1793.989946 503.199122 
L 1794.548109 504.440701 
L 1795.106272 504.910237 
L 1795.664435 504.965752 
L 1796.780761 504.616252 
L 1797.338924 504.230828 
L 1797.897087 503.530473 
L 1798.45525 502.347754 
L 1800.687902 495.693003 
L 1801.246065 495.155107 
L 1801.804228 495.042635 
L 1802.920554 495.184983 
L 1803.478717 495.133866 
L 1804.03688 494.869725 
L 1804.595043 494.248227 
L 1805.153206 493.1053 
L 1805.711369 491.232608 
L 1806.269532 488.276362 
L 1806.827695 483.926921 
L 1809.060347 461.505109 
L 1809.61851 460.09172 
L 1810.176673 462.062475 
L 1810.734836 466.653394 
L 1812.409325 483.428392 
L 1813.525651 491.20575 
L 1814.641977 497.994191 
L 1815.20014 500.807727 
L 1815.758303 502.804597 
L 1816.316466 503.948084 
L 1816.874629 504.426234 
L 1817.432792 504.49492 
L 1819.665444 504.023941 
L 1820.223607 504.089933 
L 1821.339933 504.580041 
L 1821.898096 504.916246 
L 1822.456259 505.109728 
L 1823.014422 504.832486 
L 1823.572585 503.602315 
L 1824.130748 500.874218 
L 1824.688911 496.305426 
L 1826.363401 478.107894 
L 1826.921564 475.551893 
L 1827.479727 476.537187 
L 1828.03789 480.490391 
L 1829.712379 496.06703 
L 1830.270542 499.190949 
L 1830.828705 501.306325 
L 1831.386868 502.756283 
L 1831.945031 503.624302 
L 1832.503194 503.864135 
L 1833.061357 503.42334 
L 1833.61952 502.309935 
L 1835.294009 497.70442 
L 1835.852172 497.340138 
L 1836.410335 497.975628 
L 1837.526661 501.021767 
L 1838.084824 502.470455 
L 1838.642987 503.4521 
L 1839.20115 503.962413 
L 1839.759313 504.135296 
L 1841.433802 504.032021 
L 1843.666454 503.992077 
L 1847.015432 504.01634 
L 1848.131758 503.764009 
L 1849.806247 503.035296 
L 1850.36441 503.001861 
L 1851.480736 503.349468 
L 1853.155225 503.908641 
L 1854.271551 504.090558 
L 1855.387877 504.103677 
L 1855.94604 504.008182 
L 1856.504203 503.796301 
L 1857.620529 502.951001 
L 1858.178692 502.44932 
L 1858.736855 502.133981 
L 1859.295018 502.175755 
L 1859.853181 502.55826 
L 1860.969507 503.547369 
L 1861.52767 503.861074 
L 1862.643996 504.089417 
L 1870.458279 503.998723 
L 1874.36542 504.061147 
L 1875.481746 504.371444 
L 1876.598072 504.689139 
L 1877.156235 504.517921 
L 1877.714398 503.76462 
L 1878.272561 502.09362 
L 1878.830724 499.291747 
L 1880.505213 488.057051 
L 1881.063376 486.321614 
L 1881.621539 486.708724 
L 1882.179702 489.126851 
L 1883.854191 500.630952 
L 1884.412354 503.009969 
L 1884.970517 504.276834 
L 1885.52868 504.741355 
L 1886.086843 504.735268 
L 1887.203169 504.171657 
L 1888.877658 503.072297 
L 1889.435821 502.898275 
L 1889.993984 502.971707 
L 1892.226636 503.954147 
L 1893.342962 504.055544 
L 1905.064386 504.042766 
L 1906.738875 503.979335 
L 1907.855201 503.643761 
L 1908.971527 503.116131 
L 1909.52969 503.023158 
L 1911.204179 503.331177 
L 1911.762342 503.024917 
L 1912.320505 502.392435 
L 1914.553157 498.968162 
L 1915.11132 498.778711 
L 1916.227646 499.212668 
L 1916.785809 498.689668 
L 1917.343972 497.304588 
L 1918.460298 493.993933 
L 1919.018461 493.314046 
L 1919.576624 493.104161 
L 1920.134787 492.439968 
L 1920.69295 490.42562 
L 1921.251113 486.54113 
L 1921.809276 480.610353 
L 1922.367439 472.64466 
L 1924.600091 433.249282 
L 1925.158254 429.682688 
L 1925.716417 431.284652 
L 1926.27458 436.812547 
L 1927.390906 450.562414 
L 1927.949069 455.623226 
L 1928.507232 458.815267 
L 1929.065395 460.339369 
L 1929.623558 460.671916 
L 1930.181721 460.322508 
L 1931.298047 459.098175 
L 1931.85621 458.805359 
L 1932.414373 459.059089 
L 1932.972536 460.280438 
L 1933.530699 462.888741 
L 1934.647025 470.514166 
L 1935.205188 473.31968 
L 1935.763351 474.545717 
L 1936.321514 474.324746 
L 1937.43784 472.404922 
L 1937.996004 472.713447 
L 1938.554167 474.795153 
L 1939.11233 478.653138 
L 1940.228656 488.151905 
L 1940.786819 491.118955 
L 1941.344982 492.050017 
L 1942.461308 491.262431 
L 1943.019471 491.787113 
L 1943.577634 493.378763 
L 1944.69396 497.192957 
L 1945.252123 497.926559 
L 1945.810286 497.773327 
L 1946.368449 497.440737 
L 1946.926612 497.673893 
L 1947.484775 498.749291 
L 1948.601101 501.98229 
L 1949.159264 503.192119 
L 1949.717427 503.909522 
L 1950.27559 504.23008 
L 1950.833753 504.300326 
L 1955.299057 503.988466 
L 1969.253132 504 
L 1993.254142 504.017474 
L 1994.370468 504.409811 
L 1995.486794 505.053742 
L 1996.044957 505.127149 
L 1996.60312 504.568232 
L 1997.161283 502.842857 
L 1997.719446 499.419531 
L 1998.277609 494.083181 
L 1999.952098 474.183094 
L 2000.510261 471.002639 
L 2001.068424 471.287997 
L 2001.626587 474.664986 
L 2002.742913 484.991191 
L 2003.301076 488.685504 
L 2003.859239 490.287968 
L 2004.417402 489.914703 
L 2004.975565 487.920874 
L 2005.533728 484.654437 
L 2008.324543 464.52974 
L 2008.882706 462.474504 
L 2009.440869 461.759437 
L 2009.999032 462.359652 
L 2011.115358 465.137704 
L 2011.673521 466.15964 
L 2013.348011 467.993095 
L 2013.906174 468.394745 
L 2014.464337 467.915779 
L 2015.0225 465.551627 
L 2015.580663 460.518051 
L 2016.696989 443.846307 
L 2017.255152 434.9764 
L 2017.813315 428.039286 
L 2018.371478 424.153279 
L 2018.929641 423.514621 
L 2019.487804 425.881239 
L 2020.045967 431.08357 
L 2020.60413 438.789839 
L 2022.836782 475.065841 
L 2023.394945 481.447399 
L 2023.953108 486.28954 
L 2024.511271 489.729169 
L 2025.069434 492.009145 
L 2025.627597 493.4477 
L 2026.18576 494.283124 
L 2026.743923 494.617849 
L 2027.302086 494.504334 
L 2027.860249 493.986346 
L 2028.976575 492.221747 
L 2029.534738 491.877951 
L 2030.092901 492.780515 
L 2030.651064 495.011696 
L 2031.76739 500.285481 
L 2032.325553 501.368606 
L 2032.883716 500.611171 
L 2033.441879 498.049708 
L 2034.558205 490.842003 
L 2035.116368 488.631389 
L 2035.674531 488.204068 
L 2036.232694 489.281158 
L 2036.790857 491.354094 
L 2037.907183 496.157165 
L 2038.465346 497.733119 
L 2039.023509 498.616209 
L 2039.581672 499.045971 
L 2040.139835 499.026479 
L 2040.697998 498.447424 
L 2041.814324 496.158281 
L 2042.372487 494.66905 
L 2042.93065 492.66382 
L 2043.488813 489.823011 
L 2044.605139 482.545162 
L 2045.163302 480.056384 
L 2045.721465 479.894531 
L 2046.279628 482.406604 
L 2047.954117 494.825115 
L 2048.51228 496.528453 
L 2049.070443 496.378912 
L 2049.628606 494.583439 
L 2050.18677 491.230836 
L 2050.744933 486.070356 
L 2051.303096 478.870104 
L 2052.977585 451.973454 
L 2053.535748 445.879488 
L 2054.093911 443.244521 
L 2054.652074 444.092255 
L 2055.210237 447.461272 
L 2056.884726 459.953515 
L 2058.001052 466.279005 
L 2058.559215 470.074469 
L 2059.117378 474.954404 
L 2060.791867 492.693358 
L 2061.35003 496.891387 
L 2061.908193 499.2347 
L 2062.466356 499.426723 
L 2063.024519 497.571101 
L 2064.140845 490.388607 
L 2064.699008 486.869572 
L 2065.257171 484.685559 
L 2065.815334 484.491103 
L 2066.373497 486.088486 
L 2066.93166 488.405348 
L 2067.489823 490.0982 
L 2068.047986 490.328987 
L 2069.164312 488.36444 
L 2069.722475 488.61813 
L 2070.280638 490.556515 
L 2071.955127 499.991798 
L 2072.51329 501.578542 
L 2073.071453 502.150723 
L 2074.187779 502.519465 
L 2074.745942 502.880097 
L 2075.304105 503.080888 
L 2075.862268 502.807384 
L 2076.420431 501.907359 
L 2076.978594 500.41222 
L 2078.09492 496.232594 
L 2078.653083 493.68065 
L 2079.211246 490.602999 
L 2079.769409 486.674176 
L 2080.885735 476.9354 
L 2081.443898 473.521644 
L 2082.002061 473.134856 
L 2082.560224 476.136224 
L 2083.67655 488.122146 
L 2084.234713 494.318234 
L 2084.792876 499.122569 
L 2085.351039 501.944477 
L 2085.909202 502.813394 
L 2086.467365 502.243222 
L 2088.141855 498.72014 
L 2088.700018 497.968388 
L 2089.258181 497.617879 
L 2089.816344 497.952539 
L 2090.374507 499.054463 
L 2091.490833 502.129979 
L 2092.048996 502.971927 
L 2092.607159 502.728416 
L 2093.165322 501.207087 
L 2093.723485 498.496698 
L 2094.839811 491.031689 
L 2097.072463 474.621441 
L 2097.630626 469.302643 
L 2098.188789 462.614639 
L 2099.305115 444.564553 
L 2100.979604 415.148748 
L 2101.537767 408.998707 
L 2102.09593 405.88173 
L 2102.654093 405.611083 
L 2103.212256 408.082924 
L 2103.770419 413.547974 
L 2104.328582 422.125271 
L 2105.444908 446.173536 
L 2106.561234 471.760331 
L 2107.119397 482.120846 
L 2107.67756 490.145088 
L 2108.235723 496.000636 
L 2108.793886 499.913718 
L 2109.352049 502.034805 
L 2109.910212 502.62934 
L 2110.468375 502.233526 
L 2111.026538 501.614711 
L 2111.584701 501.477361 
L 2112.142864 502.057397 
L 2113.25919 504.04128 
L 2113.817353 504.580502 
L 2114.375516 504.316184 
L 2114.933679 502.848277 
L 2115.491842 499.827106 
L 2117.166331 485.17498 
L 2117.724494 482.894626 
L 2118.282657 483.730542 
L 2118.84082 487.218149 
L 2120.515309 501.078356 
L 2121.073472 503.647351 
L 2121.631635 504.832429 
L 2122.189798 504.818236 
L 2122.747961 503.748359 
L 2123.306124 501.715174 
L 2124.42245 496.034545 
L 2124.980613 494.004382 
L 2125.538777 493.757246 
L 2126.09694 495.42251 
L 2127.213266 500.498086 
L 2127.771429 501.365528 
L 2128.329592 500.158435 
L 2128.887755 496.899672 
L 2129.445918 492.041293 
L 2130.004081 486.002705 
L 2130.562244 478.735448 
L 2132.794896 444.893524 
L 2133.353059 444.228252 
L 2133.911222 449.216128 
L 2135.027548 466.826277 
L 2135.585711 473.205107 
L 2136.143874 475.804674 
L 2136.702037 475.340586 
L 2137.818363 471.150531 
L 2138.376526 468.905425 
L 2138.934689 466.152839 
L 2139.492852 462.295347 
L 2141.167341 446.479729 
L 2141.725504 443.593642 
L 2142.283667 443.897914 
L 2142.84183 447.559029 
L 2143.399993 453.908666 
L 2144.516319 469.27934 
L 2145.074482 475.494395 
L 2145.632645 479.977418 
L 2147.865297 492.772572 
L 2148.42346 494.868654 
L 2148.981623 495.040805 
L 2149.539786 493.211635 
L 2150.097949 489.985207 
L 2151.772438 478.40087 
L 2152.330601 477.153174 
L 2152.888764 479.109727 
L 2153.446927 484.065044 
L 2154.563253 496.643724 
L 2155.121416 501.196131 
L 2155.679579 503.93723 
L 2156.237742 505.212506 
L 2156.795905 505.507777 
L 2157.354068 505.181435 
L 2157.912231 504.35521 
L 2158.470394 502.884313 
L 2159.028557 500.464798 
L 2159.58672 496.940895 
L 2161.819372 478.909654 
L 2162.377535 472.638121 
L 2162.935699 463.89379 
L 2164.610188 432.04058 
L 2165.168351 425.759718 
L 2165.726514 423.29797 
L 2166.284677 423.93857 
L 2166.84284 426.502335 
L 2167.959166 434.469674 
L 2169.633655 447.525879 
L 2170.191818 450.634165 
L 2170.749981 452.887926 
L 2171.308144 454.290542 
L 2171.866307 454.801179 
L 2172.42447 454.227154 
L 2172.982633 452.207817 
L 2173.540796 448.460389 
L 2174.657122 436.73038 
L 2176.331611 416.652427 
L 2179.122426 387.249506 
L 2179.680589 383.911556 
L 2180.238752 385.1989 
L 2180.796915 391.885955 
L 2181.913241 415.934064 
L 2183.029567 438.716166 
L 2183.58773 445.912192 
L 2184.145893 450.622286 
L 2185.262219 457.498814 
L 2185.820382 460.035639 
L 2186.378545 460.13892 
L 2186.936708 456.21417 
L 2187.494871 447.687949 
L 2188.053034 435.114308 
L 2189.727523 388.766563 
L 2190.285686 377.135293 
L 2190.843849 370.462782 
L 2191.402012 369.254936 
L 2191.960175 372.243548 
L 2193.076501 380.389568 
L 2193.634664 382.359012 
L 2194.192827 383.508581 
L 2194.75099 385.114127 
L 2195.309153 387.833793 
L 2196.425479 394.364572 
L 2196.983642 395.752907 
L 2197.541805 395.004984 
L 2199.216294 389.010297 
L 2199.774457 387.455336 
L 2200.332621 384.960618 
L 2200.890784 381.152162 
L 2202.565273 367.367107 
L 2203.123436 364.016267 
L 2203.681599 362.425722 
L 2204.239762 362.883481 
L 2204.797925 365.20341 
L 2207.030577 379.59659 
L 2207.58874 381.783028 
L 2208.146903 382.723442 
L 2208.705066 381.897067 
L 2209.263229 379.079854 
L 2209.821392 374.48833 
L 2211.495881 356.70666 
L 2212.054044 353.571381 
L 2212.612207 353.780784 
L 2213.17037 356.179258 
L 2213.728533 357.733139 
L 2214.286696 355.606959 
L 2215.961185 338.615981 
L 2216.519348 340.43926 
L 2217.077511 347.767626 
L 2218.752 380.291966 
L 2218.752 380.291966 
" style="fill:none;stroke:#bfbf00;stroke-linecap:round;stroke-width:1.5;"/>
   </g>
   <g id="line2d_18">
    <path clip-path="url(#pdd9e9254a6)" d="M 308.16 467.107522 
L 333.277336 467.038505 
L 333.835499 466.972349 
L 334.951825 466.540377 
L 335.509988 466.146028 
L 336.068151 465.432119 
L 336.626314 464.188725 
L 337.184477 462.38251 
L 338.300803 462.38251 
L 338.858966 463.40519 
L 339.417129 464.816693 
L 363.418138 464.816693 
L 363.976301 465.759624 
L 364.534465 466.002774 
L 365.092628 466.554273 
L 365.650791 467.755297 
L 366.208954 468.032853 
L 366.767117 468.044461 
L 367.32528 468.237675 
L 367.883443 468.808569 
L 368.441606 469.644739 
L 394.675267 469.650371 
L 395.23343 470.262193 
L 395.791593 469.808336 
L 422.025255 469.808336 
L 422.583418 468.296054 
L 423.141581 468.223922 
L 423.699744 467.89207 
L 447.142591 467.89207 
L 447.700754 467.559602 
L 448.258917 467.396181 
L 453.282384 467.389269 
L 453.840547 466.541848 
L 454.39871 464.583811 
L 454.956873 461.159838 
L 455.515036 456.072752 
L 456.073199 449.365658 
L 456.631362 441.233573 
L 457.747688 441.233573 
L 458.305851 442.291856 
L 459.422177 448.383925 
L 460.538503 455.095338 
L 486.772165 455.095338 
L 487.330328 451.341499 
L 487.888491 444.638708 
L 488.446654 436.260471 
L 489.004817 432.2375 
L 489.56298 431.605823 
L 490.121143 429.764948 
L 513.005826 429.764948 
L 513.563989 428.163102 
L 514.680316 418.333332 
L 515.238479 415.085269 
L 515.796642 413.640497 
L 516.354805 413.06491 
L 516.912968 412.014023 
L 517.471131 411.232205 
L 518.587457 411.232205 
L 519.14562 411.579976 
L 519.703783 418.994236 
L 520.261946 423.933171 
L 520.820109 426.653302 
L 521.378272 427.609849 
L 535.89051 427.609849 
L 537.006836 428.200518 
L 537.564999 430.76747 
L 538.123162 434.97264 
L 538.681325 436.780922 
L 557.658868 436.780922 
L 558.217031 437.58454 
L 558.775194 437.649999 
L 559.333357 438.188734 
L 559.89152 442.295134 
L 560.449683 445.322807 
L 586.683344 445.322807 
L 587.241507 441.820177 
L 587.79967 436.594565 
L 588.915996 422.515817 
L 589.47416 415.118265 
L 590.032323 411.244993 
L 591.148649 410.898442 
L 594.497627 410.898442 
L 595.05579 410.051228 
L 595.613953 409.745437 
L 596.172116 409.090468 
L 597.288442 408.290175 
L 607.893539 408.290175 
L 609.009865 409.745437 
L 609.568028 411.139891 
L 610.126191 414.031058 
L 610.684354 416.107007 
L 611.242517 417.432179 
L 611.80068 418.233623 
L 612.358843 418.664981 
L 612.917006 418.927958 
L 613.475169 419.633664 
L 614.033332 421.64438 
L 614.591495 425.462298 
L 615.707821 437.401209 
L 616.265984 443.390423 
L 616.824147 447.615592 
L 643.057809 447.615592 
L 643.615972 446.224472 
L 644.732298 445.758578 
L 655.337395 445.758578 
L 656.453721 446.224472 
L 657.011884 447.89325 
L 664.826167 447.895585 
L 665.38433 449.81869 
L 665.942493 449.916945 
L 666.500656 453.754619 
L 667.058819 460.161915 
L 667.616982 464.053182 
L 668.175145 466.286108 
L 668.733308 467.379036 
L 694.966969 467.379036 
L 695.525132 466.37854 
L 696.083295 464.690821 
L 697.199621 459.607111 
L 697.757784 456.854528 
L 698.87411 456.499039 
L 699.432273 455.800556 
L 704.455741 455.800556 
L 705.013904 453.764233 
L 705.572067 451.292784 
L 706.13023 449.398179 
L 706.688393 448.586988 
L 707.246556 448.271529 
L 707.804719 447.170214 
L 708.362882 444.447068 
L 708.921045 440.172684 
L 709.479208 437.07023 
L 710.595534 437.07023 
L 711.153697 440.225475 
L 737.387358 440.225475 
L 737.945521 436.380169 
L 738.503684 428.547182 
L 739.061848 422.619089 
L 740.178174 422.619089 
L 740.736337 423.167927 
L 741.852663 426.318724 
L 742.410826 428.564461 
L 744.085315 436.777937 
L 745.201641 436.852562 
L 745.759804 436.852562 
L 746.317967 437.8125 
L 747.434293 438.14445 
L 748.550619 441.9081 
L 774.78428 441.9081 
L 775.342443 440.257258 
L 776.45877 435.640643 
L 777.016933 435.196938 
L 777.575096 434.340323 
L 778.133259 433.826899 
L 782.0404 433.826899 
L 782.598563 434.340323 
L 783.156726 434.498288 
L 783.714889 435.196938 
L 785.389378 447.113935 
L 785.947541 450.240424 
L 786.505704 452.29165 
L 812.739365 452.29165 
L 813.297528 449.620964 
L 814.413855 442.955878 
L 814.972018 441.083311 
L 815.530181 440.130166 
L 816.088344 439.407816 
L 816.646507 438.500392 
L 818.320996 438.532807 
L 819.437322 448.321068 
L 819.995485 452.117113 
L 846.787309 452.092338 
L 847.345472 449.873217 
L 848.461798 446.456434 
L 849.019961 443.786966 
L 850.136287 435.673655 
L 851.810777 421.156378 
L 852.36894 419.966877 
L 853.485266 419.875739 
L 857.392407 419.875739 
L 857.95057 416.564549 
L 859.066896 407.18997 
L 859.625059 406.310648 
L 860.183222 405.659655 
L 860.741385 405.386576 
L 861.299548 405.386576 
L 861.857711 405.659655 
L 862.415874 406.310648 
L 865.764852 406.310648 
L 866.323015 406.948959 
L 866.881178 407.305901 
L 867.439341 407.801551 
L 868.555667 415.394854 
L 869.11383 416.422025 
L 873.579134 416.422025 
L 874.137297 416.559521 
L 874.69546 416.560558 
L 875.253623 416.856769 
L 875.811786 417.642378 
L 876.369949 417.912719 
L 876.928112 417.998995 
L 877.486275 420.027258 
L 878.602601 425.205069 
L 888.091372 425.205069 
L 888.649535 426.689738 
L 889.207699 426.902022 
L 889.765862 430.411869 
L 890.324025 435.239252 
L 890.882188 438.448651 
L 891.440351 440.202138 
L 891.998514 440.498104 
L 904.2781 440.498104 
L 904.836263 440.904808 
L 905.952589 441.064903 
L 907.068915 445.857953 
L 929.395436 445.857953 
L 930.511762 446.782659 
L 931.069925 448.696994 
L 932.744414 462.462898 
L 933.302577 465.248976 
L 933.86074 466.858149 
L 934.418903 467.483114 
L 960.652564 467.483114 
L 961.210727 466.705059 
L 961.76889 465.307668 
L 962.327053 463.2148 
L 963.443379 458.215678 
L 964.001543 456.993118 
L 964.559706 456.517652 
L 965.117869 456.461042 
L 965.676032 455.939919 
L 968.466847 455.939919 
L 969.583173 456.993118 
L 970.141336 458.790651 
L 979.630107 458.790651 
L 980.18827 459.649193 
L 981.304596 460.107385 
L 982.979085 464.123759 
L 983.537248 464.951907 
L 994.142345 465.028592 
L 994.700508 465.368605 
L 995.258671 465.981813 
L 995.816834 467.265245 
L 999.723975 467.283226 
L 1033.213756 467.194033 
L 1033.771919 466.68861 
L 1034.330082 465.364343 
L 1034.888245 463.035393 
L 1036.004571 455.874923 
L 1037.120897 448.928727 
L 1037.67906 447.05561 
L 1038.237223 447.049937 
L 1038.795387 446.399269 
L 1042.144365 446.377809 
L 1046.051506 446.377809 
L 1046.609669 447.049937 
L 1047.167832 447.05561 
L 1047.725995 447.510639 
L 1048.842321 453.323195 
L 1049.958647 460.067033 
L 1050.51681 462.808579 
L 1051.074973 464.605765 
L 1077.308635 464.605765 
L 1077.866798 463.915376 
L 1078.424961 461.61313 
L 1078.983124 460.786874 
L 1079.541287 460.489466 
L 1080.09945 460.062942 
L 1101.309644 460.062942 
L 1101.867807 459.723362 
L 1102.42597 459.603638 
L 1102.984133 459.331621 
L 1103.542296 458.903409 
L 1106.333111 458.903409 
L 1106.891274 457.217091 
L 1107.449437 456.273421 
L 1108.0076 455.727761 
L 1108.565763 455.498223 
L 1112.472904 455.498223 
L 1113.031067 455.727761 
L 1113.58923 456.078257 
L 1123.636165 456.078257 
L 1124.194328 456.273421 
L 1124.752491 456.625716 
L 1125.868817 465.097491 
L 1152.102479 465.097491 
L 1152.660642 461.626975 
L 1153.218805 452.565253 
L 1153.776968 450.599638 
L 1154.893294 450.599638 
L 1155.451457 452.278675 
L 1163.265739 452.278675 
L 1163.823902 452.89203 
L 1164.382065 454.276459 
L 1164.940228 454.49596 
L 1165.498391 455.731022 
L 1166.056554 457.797885 
L 1166.614717 459.304348 
L 1167.17288 460.085626 
L 1193.406542 460.085626 
L 1193.964705 458.367575 
L 1194.522868 454.948884 
L 1195.081031 449.447137 
L 1195.639194 442.771365 
L 1196.197357 442.178929 
L 1197.313683 441.805314 
L 1202.33715 441.805314 
L 1202.895313 440.45803 
L 1203.453476 440.31214 
L 1204.011639 439.874125 
L 1204.569802 440.31214 
L 1205.686128 440.45803 
L 1206.244291 441.528575 
L 1206.802454 442.158375 
L 1207.91878 443.072443 
L 1208.476943 443.715804 
L 1209.035106 444.656619 
L 1209.593269 446.174132 
L 1210.709595 450.299097 
L 1211.267758 450.860085 
L 1212.942247 450.860085 
L 1213.50041 451.473145 
L 1214.058573 451.508275 
L 1214.616736 452.120193 
L 1216.849388 461.221393 
L 1218.523877 465.101001 
L 1219.640203 467.075527 
L 1220.198366 467.606462 
L 1246.432028 467.606462 
L 1246.990191 466.343351 
L 1247.548354 463.678031 
L 1248.106517 459.343091 
L 1248.66468 453.867824 
L 1249.781006 453.379849 
L 1250.339169 452.356246 
L 1250.897332 452.356246 
L 1251.455495 453.379849 
L 1252.013658 453.867824 
L 1253.129984 459.944008 
L 1253.688147 461.172452 
L 1254.804473 461.269523 
L 1255.362636 461.311036 
L 1255.920799 461.657999 
L 1258.153451 461.657999 
L 1258.711614 462.023407 
L 1265.409571 462.119514 
L 1265.967734 462.26861 
L 1266.525897 464.255005 
L 1267.08406 464.44958 
L 1270.433038 464.531157 
L 1270.991201 465.092116 
L 1271.549364 465.170182 
L 1272.107527 465.617438 
L 1272.66569 466.291711 
L 1277.130994 466.306802 
L 1300.015677 466.306802 
L 1300.57384 466.139467 
L 1305.039145 465.740884 
L 1305.597308 465.385127 
L 1306.155471 465.24729 
L 1306.713634 464.355892 
L 1307.271797 464.103145 
L 1310.062612 464.103145 
L 1311.178938 463.868852 
L 1323.458524 463.868852 
L 1324.016687 460.536705 
L 1325.133013 459.5076 
L 1326.249339 459.442971 
L 1333.505458 459.442971 
L 1334.063621 458.811126 
L 1335.179947 458.699352 
L 1337.970762 458.699352 
L 1338.528926 459.442971 
L 1339.087089 459.5076 
L 1339.645252 460.305546 
L 1340.203415 462.682106 
L 1340.761578 464.31587 
L 1341.319741 465.516742 
L 1341.877904 466.319112 
L 1342.436067 466.76378 
L 1342.99423 466.963584 
L 1344.668719 467.093681 
L 1371.460543 467.062895 
L 1372.018706 466.737351 
L 1373.693195 466.501089 
L 1380.391152 466.501089 
L 1380.949315 465.929439 
L 1392.670738 465.929439 
L 1393.228901 463.576674 
L 1393.787064 461.932711 
L 1394.90339 461.932711 
L 1396.019716 466.324514 
L 1422.253378 466.324514 
L 1422.811541 464.797919 
L 1423.369704 460.216842 
L 1424.48603 445.133536 
L 1425.044193 437.26249 
L 1425.602356 431.314007 
L 1426.160519 427.934837 
L 1426.718682 426.626472 
L 1427.276845 426.05723 
L 1427.835008 424.664934 
L 1428.951334 423.719431 
L 1429.509497 422.742081 
L 1434.532964 422.742081 
L 1436.765616 412.490242 
L 1437.323779 411.624478 
L 1437.881942 411.255973 
L 1438.440105 409.991272 
L 1438.998268 406.087859 
L 1439.556431 398.501749 
L 1440.114594 393.051826 
L 1440.672757 392.990659 
L 1441.23092 392.282235 
L 1449.603365 392.282235 
L 1450.161528 390.555197 
L 1451.277855 384.926948 
L 1451.836018 381.951992 
L 1452.952344 379.936496 
L 1454.06867 378.62636 
L 1456.859485 378.62636 
L 1457.417648 379.936496 
L 1457.975811 380.928766 
L 1458.533974 382.944494 
L 1459.092137 397.6153 
L 1459.6503 409.030582 
L 1460.208463 417.042512 
L 1460.766626 418.428824 
L 1468.580908 418.428824 
L 1469.139071 419.06291 
L 1469.697234 421.280995 
L 1485.325798 421.280995 
L 1485.883961 421.487524 
L 1486.442124 421.922827 
L 1487.000287 422.854785 
L 1487.55845 425.139975 
L 1492.581918 425.139975 
L 1493.140081 425.814489 
L 1493.698244 426.10847 
L 1504.861504 426.10847 
L 1505.97783 426.481369 
L 1506.535993 428.885076 
L 1507.094156 433.030678 
L 1507.652319 434.649567 
L 1512.117623 434.649567 
L 1513.233949 435.936782 
L 1513.792112 439.26345 
L 1514.908438 449.277711 
L 1515.466601 452.568286 
L 1516.024764 454.471438 
L 1522.72272 454.47332 
L 1523.280883 454.980647 
L 1523.839046 455.027934 
L 1524.397209 456.989272 
L 1526.071699 464.206771 
L 1526.629862 465.689278 
L 1527.188025 466.544672 
L 1527.746188 466.974247 
L 1529.420677 467.789454 
L 1555.654338 467.789454 
L 1556.212501 467.235147 
L 1556.770664 464.911704 
L 1557.328827 460.465571 
L 1557.88699 453.712734 
L 1558.445153 448.461028 
L 1559.561479 448.461028 
L 1560.119642 449.642074 
L 1570.166577 449.642074 
L 1571.282903 451.103171 
L 1571.841066 451.353601 
L 1572.399229 454.195786 
L 1573.515555 462.328021 
L 1574.073718 465.468781 
L 1574.631881 467.037775 
L 1591.376771 467.037775 
L 1591.934934 467.383777 
L 1593.609423 467.424807 
L 1601.423706 467.383777 
L 1602.540032 466.803662 
L 1605.88901 466.803662 
L 1606.447173 467.332626 
L 1608.121662 467.383777 
L 1633.238997 467.442253 
L 1633.79716 467.704867 
L 1634.355323 467.773665 
L 1634.913486 468.417474 
L 1662.821637 468.377451 
L 1663.3798 467.62513 
L 1663.937963 467.385916 
L 1664.496126 467.379695 
L 1665.054289 467.203422 
L 1677.333876 467.203422 
L 1678.450202 466.901276 
L 1693.520603 466.813915 
L 1694.078766 466.915906 
L 1694.636929 467.349552 
L 1695.753255 468.515704 
L 1703.567537 468.515704 
L 1705.242026 468.988574 
L 1722.54508 468.988574 
L 1723.103243 468.828962 
L 1731.475688 468.828962 
L 1732.033851 468.509053 
L 1732.592014 468.396555 
L 1733.150177 467.822789 
L 1754.360372 467.822789 
L 1754.918535 467.585403 
L 1755.476698 467.486199 
L 1756.034861 467.253116 
L 1769.430773 467.235681 
L 1769.988936 467.032846 
L 1771.105262 467.032846 
L 1771.663425 467.157624 
L 1772.221588 467.688618 
L 1772.779751 467.870341 
L 1799.013413 467.870341 
L 1799.571576 467.675106 
L 1801.804228 467.550596 
L 1835.852172 467.541841 
L 1836.410335 466.844651 
L 1862.085833 466.831271 
L 1862.643996 466.897008 
L 1863.760323 467.227276 
L 1872.132768 467.283226 
L 1872.690931 467.398493 
L 1890.552147 467.398493 
L 1891.11031 467.227276 
L 1895.017451 467.210413 
L 1899.482755 467.210413 
L 1900.040918 466.881011 
L 1901.157245 466.760119 
L 1919.576624 466.688689 
L 1920.69295 466.353116 
L 1921.251113 466.078459 
L 1922.367439 466.027474 
L 1922.925602 465.848113 
L 1924.041928 465.848113 
L 1924.600091 465.734271 
L 1925.158254 465.10179 
L 1927.390906 461.922022 
L 1929.065395 461.488065 
L 1929.623558 461.399022 
L 1930.181721 460.013942 
L 1930.739884 458.190459 
L 1931.85621 458.190459 
L 1932.414373 459.902311 
L 1933.530699 460.383247 
L 1934.647025 460.635914 
L 1935.205188 461.458645 
L 1936.321514 464.691644 
L 1936.879677 465.901473 
L 1937.43784 466.618876 
L 1937.996004 466.939434 
L 1964.787828 466.86917 
L 1966.462317 466.710209 
L 1980.974556 466.726829 
L 1982.090882 467.119165 
L 1982.649045 467.448472 
L 2008.882706 467.448472 
L 2009.440869 467.277587 
L 2009.999032 465.552211 
L 2010.557195 462.128885 
L 2011.115358 456.792536 
L 2011.673521 454.7185 
L 2012.789848 454.7185 
L 2013.348011 456.157055 
L 2013.906174 456.992479 
L 2016.696989 456.992479 
L 2018.371478 457.72105 
L 2019.487804 462.994836 
L 2045.721465 462.994836 
L 2046.279628 461.755325 
L 2046.837791 461.735834 
L 2047.395954 461.325564 
L 2047.954117 461.325564 
L 2048.51228 461.735834 
L 2051.861259 461.755325 
L 2054.093911 461.735834 
L 2054.652074 461.156778 
L 2055.210237 460.280456 
L 2058.001052 460.280456 
L 2058.559215 461.944055 
L 2059.117378 462.136078 
L 2059.675541 462.701152 
L 2060.233704 464.287897 
L 2060.791867 464.860078 
L 2061.908193 465.22882 
L 2062.466356 465.516738 
L 2099.305115 465.522748 
L 2100.421441 465.776398 
L 2100.979604 466.750634 
L 2107.67756 466.750634 
L 2108.793886 467.289856 
L 2127.771429 467.289856 
L 2128.329592 467.025538 
L 2128.887755 466.457714 
L 2135.585711 466.457714 
L 2136.143874 464.424529 
L 2136.702037 464.074883 
L 2137.2602 463.207441 
L 2137.818363 462.867789 
L 2142.283667 462.867789 
L 2142.84183 463.905486 
L 2143.399993 466.646584 
L 2143.958156 467.890789 
L 2170.191818 467.890789 
L 2170.749981 467.064565 
L 2171.308144 465.593668 
L 2171.866307 463.174153 
L 2172.42447 459.65025 
L 2174.657122 441.619009 
L 2175.215285 435.347476 
L 2175.773448 426.603144 
L 2176.331611 422.848275 
L 2176.889774 422.744994 
L 2177.447937 420.208168 
L 2199.216294 420.208168 
L 2199.774457 418.923525 
L 2200.332621 410.397303 
L 2200.890784 397.823663 
L 2202.00711 366.407371 
L 2202.565273 358.462262 
L 2203.681599 357.073927 
L 2210.379555 357.073927 
L 2210.937718 355.575692 
L 2211.495881 353.352631 
L 2212.612207 350.16469 
L 2213.728533 345.432796 
L 2214.286696 344.606422 
L 2214.844859 344.492382 
L 2215.403022 344.492382 
L 2215.961185 344.606422 
L 2218.752 344.606422 
L 2218.752 344.606422 
" style="fill:none;stroke:#0000ff;stroke-linecap:round;stroke-width:1.5;"/>
   </g>
   <g id="line2d_19">
    <defs>
     <path d="M 0 3 
C 0.795609 3 1.55874 2.683901 2.12132 2.12132 
C 2.683901 1.55874 3 0.795609 3 0 
C 3 -0.795609 2.683901 -1.55874 2.12132 -2.12132 
C 1.55874 -2.683901 0.795609 -3 0 -3 
C -0.795609 -3 -1.55874 -2.683901 -2.12132 -2.12132 
C -2.683901 -1.55874 -3 -0.795609 -3 0 
C -3 0.795609 -2.683901 1.55874 -2.12132 2.12132 
C -1.55874 2.683901 -0.795609 3 0 3 
z
" id="mbbe3e5c57b" style="stroke:#008000;"/>
    </defs>
    <g clip-path="url(#pdd9e9254a6)">
     <use style="fill:#008000;stroke:#008000;" x="338.858966" xlink:href="#mbbe3e5c57b" y="393.400248"/>
     <use style="fill:#008000;stroke:#008000;" x="347.231411" xlink:href="#mbbe3e5c57b" y="428.706304"/>
     <use style="fill:#008000;stroke:#008000;" x="360.06916" xlink:href="#mbbe3e5c57b" y="378.026576"/>
     <use style="fill:#008000;stroke:#008000;" x="368.999769" xlink:href="#mbbe3e5c57b" y="371.500349"/>
     <use style="fill:#008000;stroke:#008000;" x="386.860985" xlink:href="#mbbe3e5c57b" y="362.127535"/>
     <use style="fill:#008000;stroke:#008000;" x="400.81506" xlink:href="#mbbe3e5c57b" y="347.624207"/>
     <use style="fill:#008000;stroke:#008000;" x="413.094647" xlink:href="#mbbe3e5c57b" y="451.175795"/>
     <use style="fill:#008000;stroke:#008000;" x="420.350766" xlink:href="#mbbe3e5c57b" y="465.500369"/>
     <use style="fill:#008000;stroke:#008000;" x="428.165048" xlink:href="#mbbe3e5c57b" y="456.934704"/>
     <use style="fill:#008000;stroke:#008000;" x="452.166058" xlink:href="#mbbe3e5c57b" y="392.409517"/>
     <use style="fill:#008000;stroke:#008000;" x="464.445644" xlink:href="#mbbe3e5c57b" y="437.396967"/>
     <use style="fill:#008000;stroke:#008000;" x="483.98135" xlink:href="#mbbe3e5c57b" y="415.912265"/>
     <use style="fill:#008000;stroke:#008000;" x="544.262955" xlink:href="#mbbe3e5c57b" y="400.273183"/>
     <use style="fill:#008000;stroke:#008000;" x="566.589476" xlink:href="#mbbe3e5c57b" y="426.179827"/>
     <use style="fill:#008000;stroke:#008000;" x="586.683344" xlink:href="#mbbe3e5c57b" y="409.76839"/>
     <use style="fill:#008000;stroke:#008000;" x="610.684354" xlink:href="#mbbe3e5c57b" y="340.917397"/>
     <use style="fill:#008000;stroke:#008000;" x="634.685364" xlink:href="#mbbe3e5c57b" y="446.195062"/>
     <use style="fill:#008000;stroke:#008000;" x="659.244536" xlink:href="#mbbe3e5c57b" y="384.481083"/>
     <use style="fill:#008000;stroke:#008000;" x="675.431264" xlink:href="#mbbe3e5c57b" y="417.490577"/>
     <use style="fill:#008000;stroke:#008000;" x="711.71186" xlink:href="#mbbe3e5c57b" y="393.417814"/>
     <use style="fill:#008000;stroke:#008000;" x="728.45675" xlink:href="#mbbe3e5c57b" y="433.793315"/>
     <use style="fill:#008000;stroke:#008000;" x="743.527152" xlink:href="#mbbe3e5c57b" y="430.211211"/>
     <use style="fill:#008000;stroke:#008000;" x="784.273052" xlink:href="#mbbe3e5c57b" y="392.857634"/>
     <use style="fill:#008000;stroke:#008000;" x="792.645497" xlink:href="#mbbe3e5c57b" y="451.294765"/>
     <use style="fill:#008000;stroke:#008000;" x="840.647516" xlink:href="#mbbe3e5c57b" y="445.221685"/>
     <use style="fill:#008000;stroke:#008000;" x="847.903635" xlink:href="#mbbe3e5c57b" y="430.667126"/>
     <use style="fill:#008000;stroke:#008000;" x="856.834244" xlink:href="#mbbe3e5c57b" y="418.251675"/>
     <use style="fill:#008000;stroke:#008000;" x="896.463818" xlink:href="#mbbe3e5c57b" y="387.8694"/>
     <use style="fill:#008000;stroke:#008000;" x="909.301567" xlink:href="#mbbe3e5c57b" y="437.089551"/>
     <use style="fill:#008000;stroke:#008000;" x="936.651555" xlink:href="#mbbe3e5c57b" y="398.742943"/>
     <use style="fill:#008000;stroke:#008000;" x="1143.730033" xlink:href="#mbbe3e5c57b" y="420.688348"/>
     <use style="fill:#008000;stroke:#008000;" x="1185.592259" xlink:href="#mbbe3e5c57b" y="448.909917"/>
     <use style="fill:#008000;stroke:#008000;" x="1193.964705" xlink:href="#mbbe3e5c57b" y="415.215629"/>
     <use style="fill:#008000;stroke:#008000;" x="1249.222843" xlink:href="#mbbe3e5c57b" y="440.257019"/>
     <use style="fill:#008000;stroke:#008000;" x="1260.944266" xlink:href="#mbbe3e5c57b" y="437.326747"/>
     <use style="fill:#008000;stroke:#008000;" x="1315.086079" xlink:href="#mbbe3e5c57b" y="428.316898"/>
     <use style="fill:#008000;stroke:#008000;" x="1346.901371" xlink:href="#mbbe3e5c57b" y="433.991701"/>
     <use style="fill:#008000;stroke:#008000;" x="1374.251358" xlink:href="#mbbe3e5c57b" y="447.110757"/>
     <use style="fill:#008000;stroke:#008000;" x="1383.74013" xlink:href="#mbbe3e5c57b" y="448.585057"/>
     <use style="fill:#008000;stroke:#008000;" x="1417.788074" xlink:href="#mbbe3e5c57b" y="444.805979"/>
     <use style="fill:#008000;stroke:#008000;" x="1430.06766" xlink:href="#mbbe3e5c57b" y="380.432656"/>
     <use style="fill:#008000;stroke:#008000;" x="1460.766626" xlink:href="#mbbe3e5c57b" y="399.583209"/>
     <use style="fill:#008000;stroke:#008000;" x="1468.022745" xlink:href="#mbbe3e5c57b" y="361.17097"/>
     <use style="fill:#008000;stroke:#008000;" x="1478.627842" xlink:href="#mbbe3e5c57b" y="394.227857"/>
     <use style="fill:#008000;stroke:#008000;" x="1515.466601" xlink:href="#mbbe3e5c57b" y="413.585344"/>
     <use style="fill:#008000;stroke:#008000;" x="1549.514545" xlink:href="#mbbe3e5c57b" y="431.169756"/>
     <use style="fill:#008000;stroke:#008000;" x="1557.328827" xlink:href="#mbbe3e5c57b" y="432.156346"/>
     <use style="fill:#008000;stroke:#008000;" x="1599.749216" xlink:href="#mbbe3e5c57b" y="463.156031"/>
     <use style="fill:#008000;stroke:#008000;" x="1643.285932" xlink:href="#mbbe3e5c57b" y="464.538779"/>
     <use style="fill:#008000;stroke:#008000;" x="1654.449192" xlink:href="#mbbe3e5c57b" y="459.862167"/>
     <use style="fill:#008000;stroke:#008000;" x="1713.614472" xlink:href="#mbbe3e5c57b" y="437.416653"/>
     <use style="fill:#008000;stroke:#008000;" x="1729.801199" xlink:href="#mbbe3e5c57b" y="445.08485"/>
     <use style="fill:#008000;stroke:#008000;" x="1809.61851" xlink:href="#mbbe3e5c57b" y="460.09172"/>
     <use style="fill:#008000;stroke:#008000;" x="1925.158254" xlink:href="#mbbe3e5c57b" y="429.682688"/>
     <use style="fill:#008000;stroke:#008000;" x="2009.440869" xlink:href="#mbbe3e5c57b" y="461.759437"/>
     <use style="fill:#008000;stroke:#008000;" x="2019.487804" xlink:href="#mbbe3e5c57b" y="425.881239"/>
     <use style="fill:#008000;stroke:#008000;" x="2054.093911" xlink:href="#mbbe3e5c57b" y="443.244521"/>
     <use style="fill:#008000;stroke:#008000;" x="2102.654093" xlink:href="#mbbe3e5c57b" y="405.611083"/>
     <use style="fill:#008000;stroke:#008000;" x="2133.353059" xlink:href="#mbbe3e5c57b" y="444.228252"/>
     <use style="fill:#008000;stroke:#008000;" x="2141.725504" xlink:href="#mbbe3e5c57b" y="443.593642"/>
     <use style="fill:#008000;stroke:#008000;" x="2165.726514" xlink:href="#mbbe3e5c57b" y="423.29797"/>
     <use style="fill:#008000;stroke:#008000;" x="2179.680589" xlink:href="#mbbe3e5c57b" y="383.911556"/>
     <use style="fill:#008000;stroke:#008000;" x="2191.402012" xlink:href="#mbbe3e5c57b" y="369.254936"/>
     <use style="fill:#008000;stroke:#008000;" x="2215.961185" xlink:href="#mbbe3e5c57b" y="338.615981"/>
    </g>
   </g>
   <g id="patch_3">
    <path d="M 303.16 504 
L 303.16 69.12 
" style="fill:none;stroke:#262626;stroke-linecap:square;stroke-linejoin:miter;stroke-width:0.8;"/>
   </g>
   <g id="patch_4">
    <path d="M 308.16 509 
L 2218.752 509 
" style="fill:none;stroke:#262626;stroke-linecap:square;stroke-linejoin:miter;stroke-width:0.8;"/>
   </g>
   <g id="text_19">
    <text style="fill:#262626;font-family:Arial;font-size:36px;font-stretch:normal;font-style:normal;font-weight:normal;text-anchor:middle;" transform="rotate(-0, 1263.456, 61.965)" x="1263.456" y="61.965">20201105_GN999-6_60x_004-1.tif LAM-1::wSc</text>
   </g>
  </g>
 </g>
 <defs>
  <clipPath id="pdd9e9254a6">
   <rect height="434.88" width="1910.592" x="308.16" y="69.12"/>
  </clipPath>
 </defs>
</svg>
