<?xml version="1.0" encoding="utf-8" standalone="no"?>
<!DOCTYPE svg PUBLIC "-//W3C//DTD SVG 1.1//EN"
  "http://www.w3.org/Graphics/SVG/1.1/DTD/svg11.dtd">
<!-- Created with matplotlib (https://matplotlib.org/) -->
<svg height="576pt" version="1.1" viewBox="0 0 2626.56 576" width="2626.56pt" xmlns="http://www.w3.org/2000/svg" xmlns:xlink="http://www.w3.org/1999/xlink">
 <metadata>
  <rdf:RDF xmlns:cc="http://creativecommons.org/ns#" xmlns:dc="http://purl.org/dc/elements/1.1/" xmlns:rdf="http://www.w3.org/1999/02/22-rdf-syntax-ns#">
   <cc:Work>
    <dc:type rdf:resource="http://purl.org/dc/dcmitype/StillImage"/>
    <dc:date>2022-12-01T10:18:14.030437</dc:date>
    <dc:format>image/svg+xml</dc:format>
    <dc:creator>
     <cc:Agent>
      <dc:title>Matplotlib v3.3.4, https://matplotlib.org/</dc:title>
     </cc:Agent>
    </dc:creator>
   </cc:Work>
  </rdf:RDF>
 </metadata>
 <defs>
  <style type="text/css">*{stroke-linecap:butt;stroke-linejoin:round;}</style>
 </defs>
 <g id="figure_1">
  <g id="patch_1">
   <path d="M 0 576 
L 2626.56 576 
L 2626.56 0 
L 0 0 
z
" style="fill:#ffffff;"/>
  </g>
  <g id="axes_1">
   <g id="patch_2">
    <path d="M 328.32 504 
L 2363.904 504 
L 2363.904 69.12 
L 328.32 69.12 
z
" style="fill:#ffffff;"/>
   </g>
   <g id="matplotlib.axis_1">
    <g id="xtick_1">
     <g id="line2d_1">
      <defs>
       <path d="M 0 0 
L 0 -3.5 
" id="m1a4954e2a4" style="stroke:#262626;stroke-width:0.8;"/>
      </defs>
      <g>
       <use style="fill:#262626;stroke:#262626;stroke-width:0.8;" x="328.32" xlink:href="#m1a4954e2a4" y="509"/>
      </g>
     </g>
     <g id="text_1">
      <text style="fill:#262626;font-family:Arial;font-size:30px;font-stretch:normal;font-style:normal;font-weight:normal;text-anchor:middle;" transform="rotate(-0, 328.32, 533.973438)" x="328.32" y="533.973438">0</text>
     </g>
    </g>
    <g id="xtick_2">
     <g id="line2d_2">
      <g>
       <use style="fill:#262626;stroke:#262626;stroke-width:0.8;" x="772.473583" xlink:href="#m1a4954e2a4" y="509"/>
      </g>
     </g>
     <g id="text_2">
      <text style="fill:#262626;font-family:Arial;font-size:30px;font-stretch:normal;font-style:normal;font-weight:normal;text-anchor:middle;" transform="rotate(-0, 772.473583, 533.973438)" x="772.473583" y="533.973438">100</text>
     </g>
    </g>
    <g id="xtick_3">
     <g id="line2d_3">
      <g>
       <use style="fill:#262626;stroke:#262626;stroke-width:0.8;" x="1216.627166" xlink:href="#m1a4954e2a4" y="509"/>
      </g>
     </g>
     <g id="text_3">
      <text style="fill:#262626;font-family:Arial;font-size:30px;font-stretch:normal;font-style:normal;font-weight:normal;text-anchor:middle;" transform="rotate(-0, 1216.627166, 533.973438)" x="1216.627166" y="533.973438">200</text>
     </g>
    </g>
    <g id="xtick_4">
     <g id="line2d_4">
      <g>
       <use style="fill:#262626;stroke:#262626;stroke-width:0.8;" x="1660.780749" xlink:href="#m1a4954e2a4" y="509"/>
      </g>
     </g>
     <g id="text_4">
      <text style="fill:#262626;font-family:Arial;font-size:30px;font-stretch:normal;font-style:normal;font-weight:normal;text-anchor:middle;" transform="rotate(-0, 1660.780749, 533.973438)" x="1660.780749" y="533.973438">300</text>
     </g>
    </g>
    <g id="xtick_5">
     <g id="line2d_5">
      <g>
       <use style="fill:#262626;stroke:#262626;stroke-width:0.8;" x="2104.934331" xlink:href="#m1a4954e2a4" y="509"/>
      </g>
     </g>
     <g id="text_5">
      <text style="fill:#262626;font-family:Arial;font-size:30px;font-stretch:normal;font-style:normal;font-weight:normal;text-anchor:middle;" transform="rotate(-0, 2104.934331, 533.973438)" x="2104.934331" y="533.973438">400</text>
     </g>
    </g>
    <g id="text_6">
     <text style="fill:#262626;font-family:Arial;font-size:30px;font-stretch:normal;font-style:normal;font-weight:normal;text-anchor:middle;" transform="rotate(-0, 1346.112, 565.775)" x="1346.112" y="565.775">Distance (um)</text>
    </g>
   </g>
   <g id="matplotlib.axis_2">
    <g id="ytick_1">
     <g id="line2d_6">
      <defs>
       <path d="M 0 0 
L 3.5 0 
" id="mb98eab1dfe" style="stroke:#262626;stroke-width:0.8;"/>
      </defs>
      <g>
       <use style="fill:#262626;stroke:#262626;stroke-width:0.8;" x="323.32" xlink:href="#mb98eab1dfe" y="504"/>
      </g>
     </g>
     <g id="text_7">
      <text style="fill:#262626;font-family:Arial;font-size:30px;font-stretch:normal;font-style:normal;font-weight:normal;text-anchor:end;" transform="rotate(-0, 319.82, 514.736719)" x="319.82" y="514.736719">0</text>
     </g>
    </g>
    <g id="ytick_2">
     <g id="line2d_7">
      <g>
       <use style="fill:#262626;stroke:#262626;stroke-width:0.8;" x="323.32" xlink:href="#mb98eab1dfe" y="431.52"/>
      </g>
     </g>
     <g id="text_8">
      <text style="fill:#262626;font-family:Arial;font-size:30px;font-stretch:normal;font-style:normal;font-weight:normal;text-anchor:end;" transform="rotate(-0, 319.82, 442.256719)" x="319.82" y="442.256719">5</text>
     </g>
    </g>
    <g id="ytick_3">
     <g id="line2d_8">
      <g>
       <use style="fill:#262626;stroke:#262626;stroke-width:0.8;" x="323.32" xlink:href="#mb98eab1dfe" y="359.04"/>
      </g>
     </g>
     <g id="text_9">
      <text style="fill:#262626;font-family:Arial;font-size:30px;font-stretch:normal;font-style:normal;font-weight:normal;text-anchor:end;" transform="rotate(-0, 319.82, 369.776719)" x="319.82" y="369.776719">10</text>
     </g>
    </g>
    <g id="ytick_4">
     <g id="line2d_9">
      <g>
       <use style="fill:#262626;stroke:#262626;stroke-width:0.8;" x="323.32" xlink:href="#mb98eab1dfe" y="286.56"/>
      </g>
     </g>
     <g id="text_10">
      <text style="fill:#262626;font-family:Arial;font-size:30px;font-stretch:normal;font-style:normal;font-weight:normal;text-anchor:end;" transform="rotate(-0, 319.82, 297.296719)" x="319.82" y="297.296719">15</text>
     </g>
    </g>
    <g id="ytick_5">
     <g id="line2d_10">
      <g>
       <use style="fill:#262626;stroke:#262626;stroke-width:0.8;" x="323.32" xlink:href="#mb98eab1dfe" y="214.08"/>
      </g>
     </g>
     <g id="text_11">
      <text style="fill:#262626;font-family:Arial;font-size:30px;font-stretch:normal;font-style:normal;font-weight:normal;text-anchor:end;" transform="rotate(-0, 319.82, 224.816719)" x="319.82" y="224.816719">20</text>
     </g>
    </g>
    <g id="ytick_6">
     <g id="line2d_11">
      <g>
       <use style="fill:#262626;stroke:#262626;stroke-width:0.8;" x="323.32" xlink:href="#mb98eab1dfe" y="141.6"/>
      </g>
     </g>
     <g id="text_12">
      <text style="fill:#262626;font-family:Arial;font-size:30px;font-stretch:normal;font-style:normal;font-weight:normal;text-anchor:end;" transform="rotate(-0, 319.82, 152.336719)" x="319.82" y="152.336719">25</text>
     </g>
    </g>
    <g id="ytick_7">
     <g id="line2d_12">
      <g>
       <use style="fill:#262626;stroke:#262626;stroke-width:0.8;" x="323.32" xlink:href="#mb98eab1dfe" y="69.12"/>
      </g>
     </g>
     <g id="text_13">
      <text style="fill:#262626;font-family:Arial;font-size:30px;font-stretch:normal;font-style:normal;font-weight:normal;text-anchor:end;" transform="rotate(-0, 319.82, 79.856719)" x="319.82" y="79.856719">30</text>
     </g>
    </g>
    <g id="text_14">
     <text style="fill:#262626;font-family:Arial;font-size:30px;font-stretch:normal;font-style:normal;font-weight:normal;text-anchor:middle;" transform="rotate(-90, 276.140313, 286.56)" x="276.140313" y="286.56">Intensity (AU)</text>
    </g>
   </g>
   <g id="line2d_13">
    <path clip-path="url(#p37bdc89436)" d="M 328.32 502.007532 
L 329.436306 496.451844 
L 331.668918 488.135697 
L 332.227071 487.417999 
L 332.785224 488.463862 
L 333.343377 491.156869 
L 333.90153 494.537305 
L 334.459683 496.991523 
L 335.017836 496.924072 
L 335.575989 493.571278 
L 336.692295 480.108139 
L 337.250448 473.798064 
L 337.808601 470.497013 
L 338.366754 471.405821 
L 338.924907 476.236104 
L 340.041213 489.770872 
L 340.599366 494.888222 
L 341.157519 498.027518 
L 341.715672 499.110402 
L 342.273825 498.335342 
L 342.831978 496.042999 
L 343.948284 489.146159 
L 344.506437 487.198737 
L 345.06459 488.025674 
L 345.622743 491.380052 
L 346.739049 499.802925 
L 347.297202 502.583462 
L 347.855355 504.113485 
L 348.413508 504.714416 
L 348.971661 504.769596 
L 351.204273 504.036318 
L 352.878732 503.966196 
L 356.22765 503.96298 
L 357.902109 503.63583 
L 358.460262 503.435958 
L 359.018415 502.965329 
L 359.576568 501.68752 
L 360.134721 498.817196 
L 360.692874 493.721137 
L 361.251027 486.254648 
L 362.367333 466.083705 
L 363.483639 441.739044 
L 365.158098 403.04446 
L 365.716251 396.064546 
L 366.274404 394.538393 
L 366.832557 398.22036 
L 368.507016 420.237594 
L 369.065169 423.31433 
L 369.623322 422.573266 
L 370.181475 418.76366 
L 371.297781 408.71851 
L 371.855934 406.37243 
L 372.414087 407.153589 
L 373.530393 413.341562 
L 374.088546 414.422328 
L 374.646699 412.611202 
L 375.204852 409.187104 
L 375.763005 406.790279 
L 376.321158 408.085544 
L 376.879311 414.890057 
L 377.437464 427.591402 
L 379.111923 475.311356 
L 379.670076 483.666819 
L 380.228229 486.613843 
L 380.786382 484.338163 
L 381.344535 477.402776 
L 382.460841 458.124043 
L 383.018994 450.77729 
L 383.577147 446.294851 
L 384.1353 443.972887 
L 385.251606 441.083016 
L 385.809759 438.692779 
L 386.367912 435.041122 
L 388.042371 420.603535 
L 388.600524 419.523128 
L 389.158677 422.661394 
L 389.71683 429.475257 
L 390.833136 445.486384 
L 391.391289 450.654073 
L 392.507595 456.673549 
L 393.065748 459.105604 
L 393.623901 460.348218 
L 394.182054 459.764856 
L 394.740207 457.83826 
L 395.856513 452.405297 
L 397.530972 441.086065 
L 398.089125 439.693582 
L 398.647278 441.056485 
L 399.763584 448.014792 
L 400.321737 449.964851 
L 400.87989 449.21224 
L 401.438043 445.870868 
L 402.554349 436.816021 
L 403.112502 434.137407 
L 403.670655 433.562055 
L 404.228808 434.766073 
L 404.786961 437.181896 
L 407.019573 449.191034 
L 408.135879 450.746737 
L 408.694032 453.083763 
L 410.368491 464.324031 
L 410.926644 466.642367 
L 411.484797 467.617432 
L 412.04295 467.059014 
L 412.601103 464.832363 
L 413.159256 461.050896 
L 414.275562 452.105678 
L 414.833715 449.065233 
L 415.391868 447.729285 
L 415.950021 448.457673 
L 416.508174 451.565832 
L 417.066327 456.767307 
L 418.740786 476.001064 
L 419.298939 480.685669 
L 419.857092 483.402707 
L 420.415245 483.68686 
L 420.973398 480.897067 
L 421.531551 474.743561 
L 423.20601 449.84221 
L 424.322316 438.176427 
L 425.438622 428.873635 
L 425.996775 426.609903 
L 426.554928 426.674531 
L 427.113081 427.953279 
L 427.671234 428.577566 
L 428.229387 427.519185 
L 428.78754 425.044172 
L 429.345693 421.740739 
L 429.903846 417.571202 
L 430.461999 412.019328 
L 432.136458 392.399217 
L 432.694611 389.574273 
L 433.252764 390.81836 
L 433.810917 396.608648 
L 434.927223 417.15277 
L 435.485376 427.853762 
L 436.043529 436.419365 
L 436.601682 441.748342 
L 437.159835 443.728829 
L 437.717988 443.484559 
L 438.276141 443.07466 
L 438.834294 444.211014 
L 439.9506 449.121537 
L 440.508753 449.335629 
L 441.066906 446.856271 
L 442.741366 433.268115 
L 443.299519 430.423639 
L 443.857672 428.964406 
L 444.415825 428.563512 
L 444.973978 428.633725 
L 445.532131 428.938809 
L 446.090284 429.926824 
L 447.20659 433.570789 
L 447.764743 433.147289 
L 448.322896 429.289792 
L 449.997355 407.96508 
L 450.555508 403.944264 
L 451.113661 403.188859 
L 451.671814 405.779233 
L 452.229967 411.618257 
L 452.78812 420.307184 
L 455.578885 472.629499 
L 456.137038 477.32927 
L 456.695191 478.703674 
L 457.253344 477.247795 
L 457.811497 473.85728 
L 458.927803 465.595221 
L 459.485956 462.743135 
L 460.044109 461.510479 
L 460.602262 461.716351 
L 461.160415 462.770687 
L 462.276721 465.722746 
L 462.834874 467.645594 
L 463.393027 470.271147 
L 465.067486 481.083833 
L 465.625639 482.891688 
L 466.183792 482.577158 
L 466.741945 480.248114 
L 468.416404 469.160994 
L 470.649016 452.990678 
L 471.207169 452.922227 
L 471.765322 455.293559 
L 472.881628 461.910995 
L 473.439781 463.365134 
L 473.997934 462.768646 
L 474.556087 459.865437 
L 475.11424 453.935253 
L 475.672393 443.866383 
L 476.230546 429.01072 
L 477.346852 388.294503 
L 477.905005 367.357451 
L 478.463158 350.987594 
L 479.021311 342.88056 
L 479.579464 345.129623 
L 480.137617 357.13833 
L 481.253923 396.994978 
L 481.812076 416.917552 
L 482.370229 432.553847 
L 482.928382 441.952695 
L 483.486535 444.760114 
L 484.044688 442.34411 
L 485.719147 427.235426 
L 486.2773 425.152223 
L 487.393606 423.365886 
L 487.951759 421.124386 
L 488.509912 416.434347 
L 489.626218 400.305844 
L 490.184371 392.697698 
L 490.742524 388.800064 
L 491.300677 390.184122 
L 491.85883 396.825072 
L 492.416983 407.461613 
L 493.533289 435.050472 
L 494.649595 463.650608 
L 495.207748 475.052472 
L 495.765901 482.706921 
L 496.324054 486.147635 
L 496.882207 486.188576 
L 497.998513 483.107394 
L 498.556666 483.057486 
L 499.114819 484.622886 
L 500.231125 490.17285 
L 501.347431 495.981378 
L 501.905584 498.413513 
L 502.463737 500.230935 
L 503.02189 501.435238 
L 503.580043 502.011464 
L 504.138196 501.918552 
L 505.254502 500.719544 
L 505.812655 500.73474 
L 506.370808 501.709792 
L 508.045267 506.498197 
L 508.60342 506.260609 
L 509.161573 503.323544 
L 509.719726 496.314429 
L 510.277879 484.210355 
L 510.836032 466.96544 
L 512.510491 404.078491 
L 513.068644 390.67469 
L 513.626797 385.829376 
L 514.18495 389.734971 
L 514.743103 400.916008 
L 515.859409 435.76396 
L 516.975715 471.328341 
L 517.533868 484.88984 
L 518.092021 494.236244 
L 518.650174 499.197549 
L 519.208327 500.674556 
L 520.324633 500.186337 
L 520.882786 500.788142 
L 521.999092 503.152088 
L 522.557245 503.874552 
L 523.115398 503.902777 
L 523.673551 503.0765 
L 524.231704 501.327959 
L 525.34801 495.890244 
L 527.580622 484.469303 
L 528.138775 478.881283 
L 528.696928 470.453346 
L 529.255081 458.906785 
L 531.487693 402.741916 
L 532.045846 395.412777 
L 533.162152 385.160436 
L 533.720305 376.059347 
L 534.278458 361.119864 
L 535.394764 316.309099 
L 535.952917 293.851312 
L 536.51107 278.232298 
L 537.069223 272.965708 
L 537.627376 278.812762 
L 538.185529 294.327269 
L 539.859988 359.770939 
L 540.418141 373.254626 
L 540.976294 379.614468 
L 541.534447 379.618337 
L 542.0926 374.239326 
L 542.650753 364.183898 
L 543.208906 349.994028 
L 545.441518 283.549896 
L 545.999671 276.048175 
L 546.557824 274.731382 
L 547.115977 279.071604 
L 547.67413 288.064479 
L 548.790436 314.250012 
L 549.906742 339.496753 
L 550.464895 348.057595 
L 551.023048 353.608615 
L 552.139354 361.609545 
L 552.697507 367.393982 
L 554.930119 398.191213 
L 555.488272 403.37105 
L 556.046425 406.483531 
L 557.162731 409.281882 
L 557.720884 411.480425 
L 558.279037 415.131223 
L 559.395343 425.531762 
L 561.069802 440.65809 
L 562.186108 448.899328 
L 562.744261 451.158258 
L 563.302414 452.20278 
L 563.860567 453.61759 
L 564.41872 457.182954 
L 564.976873 463.518556 
L 566.651332 486.579651 
L 567.209485 490.545578 
L 567.767638 491.907443 
L 568.325791 491.491651 
L 569.442097 489.323686 
L 570.00025 488.558311 
L 570.558403 487.158769 
L 571.116556 483.414721 
L 571.674709 476.315815 
L 572.791015 457.288552 
L 573.349168 450.591206 
L 573.907321 447.763846 
L 574.465474 448.324378 
L 575.023627 451.363735 
L 577.256239 469.41833 
L 577.814392 471.020596 
L 578.930698 472.877159 
L 579.488851 473.906812 
L 580.605157 475.087714 
L 581.16331 476.266327 
L 581.721463 478.681216 
L 582.837769 485.270213 
L 583.395922 487.574931 
L 583.954075 488.473157 
L 584.512228 487.872519 
L 585.070381 486.452437 
L 585.628534 485.559575 
L 586.186687 486.003059 
L 586.74484 487.489009 
L 588.419299 492.964039 
L 588.977452 493.051301 
L 589.535605 491.333519 
L 590.651911 485.919245 
L 591.210064 484.479026 
L 591.768217 483.868023 
L 592.32637 483.043697 
L 592.884523 480.958288 
L 593.442676 476.781939 
L 594.000829 470.212882 
L 595.117135 454.79468 
L 595.675288 449.997454 
L 596.233441 448.451142 
L 596.791594 449.96996 
L 597.349747 454.58947 
L 597.9079 462.376893 
L 599.024206 481.578092 
L 599.582359 488.225234 
L 600.140512 491.112087 
L 600.698665 490.693959 
L 601.256818 488.209477 
L 602.931277 477.574785 
L 603.48943 473.771269 
L 604.047583 469.086041 
L 604.605736 463.124838 
L 605.722042 447.910762 
L 606.838348 430.75882 
L 607.396501 423.95166 
L 607.954654 420.248859 
L 608.512807 419.425642 
L 609.07096 419.217735 
L 609.629113 416.850529 
L 610.187266 411.269526 
L 611.303572 397.310577 
L 611.861725 393.735552 
L 612.419878 393.976064 
L 612.978031 397.21278 
L 615.210643 415.077967 
L 615.768796 417.968608 
L 616.326949 419.809292 
L 616.885102 420.327296 
L 617.443255 419.939111 
L 618.001408 419.792099 
L 618.559561 420.936596 
L 619.117714 423.56428 
L 620.23402 431.078256 
L 621.350326 439.799601 
L 622.466632 450.75072 
L 623.582938 462.900312 
L 624.141091 467.21336 
L 624.699244 469.269831 
L 625.257397 469.189425 
L 625.81555 467.386445 
L 626.373703 464.378119 
L 628.048162 452.623292 
L 628.606315 450.465739 
L 629.164468 451.311352 
L 629.722621 454.732633 
L 630.838927 462.997788 
L 632.513386 470.848122 
L 633.071539 473.571361 
L 633.629692 475.320109 
L 634.187845 475.969046 
L 634.745998 476.032815 
L 635.304151 475.365975 
L 635.862304 473.264753 
L 637.536763 462.649642 
L 638.094916 461.509771 
L 638.653069 463.75165 
L 639.211222 469.576423 
L 640.885681 492.66387 
L 641.443834 496.607032 
L 642.001987 498.141708 
L 642.56014 498.266504 
L 643.118293 497.748235 
L 643.676446 496.743817 
L 644.234599 495.007592 
L 645.909058 487.239053 
L 646.467211 486.913135 
L 647.025364 487.796659 
L 648.14167 490.625691 
L 649.257976 494.100798 
L 649.816129 496.082047 
L 650.374282 497.623871 
L 650.932435 497.967955 
L 651.490588 496.700322 
L 652.606894 490.828338 
L 653.165047 488.044586 
L 654.839506 481.592212 
L 655.955812 475.635135 
L 657.072118 468.733447 
L 657.630271 465.974266 
L 658.188424 464.588307 
L 658.746577 465.000244 
L 659.30473 467.083424 
L 660.421036 473.561696 
L 660.979189 477.222746 
L 662.653648 490.893043 
L 663.211801 493.425216 
L 663.769954 493.794021 
L 664.328107 492.465618 
L 665.444413 488.207847 
L 666.002566 485.081289 
L 667.118872 474.795806 
L 667.677026 469.989534 
L 668.235179 466.77012 
L 669.351485 462.782279 
L 669.909638 461.292416 
L 670.467791 460.278648 
L 671.025944 459.721171 
L 671.584097 459.692763 
L 672.14225 460.077236 
L 672.700403 460.103186 
L 673.258556 458.631854 
L 673.816709 454.402549 
L 674.374862 445.906948 
L 674.933015 432.029183 
L 676.049321 391.50161 
L 677.165627 351.725473 
L 677.72378 339.088357 
L 678.281933 333.912687 
L 678.840086 336.634955 
L 679.398239 345.369221 
L 680.514545 365.243411 
L 681.072698 370.015862 
L 681.630851 369.642716 
L 682.189004 365.040007 
L 682.747157 359.328579 
L 683.30531 356.610247 
L 683.863463 359.931293 
L 684.421616 370.367574 
L 686.654228 434.948197 
L 687.212381 442.8114 
L 688.328687 452.140039 
L 690.561299 468.631346 
L 691.119452 471.085877 
L 691.677605 472.201417 
L 692.235758 471.962268 
L 693.910217 469.350815 
L 694.46837 467.538469 
L 695.584676 462.83723 
L 696.142829 462.131816 
L 696.700982 462.768535 
L 697.817288 465.32451 
L 698.375441 466.932829 
L 698.933594 469.617505 
L 699.491747 474.028973 
L 701.166206 492.379837 
L 701.724359 495.156199 
L 702.282512 494.653354 
L 702.840665 491.657283 
L 703.956971 484.058718 
L 704.515124 482.272969 
L 705.073277 483.031918 
L 706.747736 490.818972 
L 707.305889 490.809288 
L 708.422195 488.876338 
L 708.980348 488.874823 
L 709.538501 489.274312 
L 710.096654 489.128401 
L 710.654807 487.534362 
L 711.21296 484.037154 
L 712.887419 469.051467 
L 713.445572 466.076057 
L 714.003725 464.989696 
L 714.561878 465.796087 
L 716.236337 472.604969 
L 716.79449 473.93702 
L 717.352643 474.707271 
L 719.027102 476.319184 
L 720.143408 478.40462 
L 720.701561 478.854574 
L 721.259714 477.703532 
L 722.37602 472.355449 
L 722.934173 471.182435 
L 723.492326 472.181966 
L 724.608632 476.964772 
L 725.166785 478.550796 
L 725.724938 479.315139 
L 726.283091 479.781132 
L 726.841244 480.601678 
L 727.399397 482.075819 
L 729.073856 487.817309 
L 729.632009 488.958846 
L 730.190162 488.542843 
L 730.748315 485.822616 
L 731.306468 480.832984 
L 732.980927 462.025056 
L 733.53908 458.06915 
L 734.097233 455.874944 
L 734.655386 454.488708 
L 735.213539 452.416117 
L 735.771692 448.755121 
L 737.446151 435.086814 
L 738.004304 432.631854 
L 738.562457 431.954066 
L 739.12061 433.378092 
L 739.678763 436.837855 
L 740.795069 445.862403 
L 741.353222 448.955235 
L 742.469528 452.585823 
L 743.027681 455.204326 
L 743.585834 458.837154 
L 744.143987 463.400758 
L 745.260293 475.671833 
L 746.376599 488.588688 
L 746.934752 492.887184 
L 747.492905 495.117097 
L 748.051058 495.943905 
L 748.609211 496.226995 
L 749.167364 496.122188 
L 749.725517 495.423318 
L 750.841823 493.071025 
L 751.399976 492.537672 
L 751.958129 492.909127 
L 753.074435 494.666906 
L 753.632588 495.031092 
L 754.190741 494.581387 
L 754.748894 493.198109 
L 756.423353 487.059224 
L 758.097812 479.089578 
L 758.655965 477.63723 
L 759.214118 477.387574 
L 759.772271 477.946797 
L 760.888577 479.401995 
L 761.44673 479.939579 
L 762.004883 480.187342 
L 762.563036 480.012758 
L 763.121189 479.700594 
L 763.679342 479.787485 
L 764.237495 480.18327 
L 764.795648 479.895279 
L 765.353801 478.036727 
L 765.911954 474.742475 
L 767.586413 462.011257 
L 768.702719 453.926437 
L 769.819025 447.919667 
L 770.377178 445.346221 
L 770.935331 443.829551 
L 771.493484 444.850422 
L 772.051637 449.404733 
L 773.726096 470.380598 
L 774.284249 474.385187 
L 774.842402 476.822453 
L 775.400555 478.135836 
L 775.958708 478.182104 
L 776.516861 476.845179 
L 778.19132 469.858721 
L 778.749473 466.822406 
L 779.307626 462.524304 
L 781.540238 440.640147 
L 782.098391 438.160944 
L 782.656544 437.725338 
L 783.77285 439.456379 
L 784.889156 440.379619 
L 785.447309 441.512682 
L 786.563615 444.46337 
L 787.121768 444.966685 
L 787.679921 444.357471 
L 788.238074 442.989112 
L 788.796227 441.947964 
L 789.35438 442.345924 
L 789.912533 444.459489 
L 791.028839 451.798345 
L 792.145145 459.158504 
L 792.703298 461.440357 
L 793.261451 462.431711 
L 793.819604 462.144388 
L 794.377757 460.653774 
L 795.494063 455.371331 
L 796.052216 452.752426 
L 796.610369 450.770897 
L 797.168522 449.670356 
L 797.726675 449.401692 
L 798.284828 449.354163 
L 798.842981 448.5803 
L 799.401134 446.628057 
L 799.959287 444.087501 
L 800.51744 442.083647 
L 801.075593 441.347629 
L 801.633746 441.920705 
L 802.750052 444.895074 
L 803.308205 445.603579 
L 803.866358 444.870621 
L 804.424511 442.763922 
L 805.540817 437.23258 
L 806.09897 435.638797 
L 806.657123 435.580542 
L 807.215276 436.681809 
L 808.331582 440.083637 
L 808.889735 442.519883 
L 810.006041 449.883724 
L 810.564194 453.372871 
L 811.122347 454.797924 
L 811.6805 453.46653 
L 813.354959 443.726349 
L 813.913112 441.821529 
L 814.471265 440.833065 
L 815.029418 440.709778 
L 815.587571 441.363147 
L 816.703877 443.560235 
L 817.820183 444.935285 
L 818.378336 445.977225 
L 819.494642 449.420671 
L 821.169101 455.67919 
L 821.727254 456.675073 
L 822.285407 456.794664 
L 822.84356 456.29608 
L 823.959866 454.534507 
L 824.518019 453.972212 
L 825.076172 454.259026 
L 825.634325 455.695134 
L 826.750631 460.971415 
L 827.866937 465.747302 
L 828.42509 467.182344 
L 828.983243 467.254515 
L 829.541396 465.098723 
L 830.099549 460.341515 
L 831.774008 438.687605 
L 832.890314 423.082249 
L 834.564773 394.502085 
L 835.122926 390.802813 
L 835.681079 392.845423 
L 836.239232 399.997744 
L 837.355538 422.723183 
L 837.913691 434.085561 
L 838.471844 442.551422 
L 839.029997 446.704659 
L 839.58815 446.513968 
L 840.146303 443.068522 
L 841.820762 427.855803 
L 842.378915 425.504613 
L 842.937068 425.089562 
L 843.495221 425.805403 
L 844.053374 426.988137 
L 844.611527 428.578074 
L 845.727833 433.352886 
L 846.285986 435.697811 
L 846.844139 436.805974 
L 847.402292 435.964583 
L 847.960445 433.301773 
L 849.076751 426.464939 
L 850.193057 421.644401 
L 850.75121 419.708527 
L 851.309363 418.235382 
L 851.867516 417.79992 
L 852.425669 418.653032 
L 853.541975 421.523124 
L 854.100128 421.56471 
L 854.658281 419.975429 
L 855.216434 416.658166 
L 856.33274 407.192 
L 856.890893 403.877587 
L 857.449046 402.730163 
L 858.007199 402.987787 
L 858.565352 402.837253 
L 859.123505 400.323523 
L 859.681658 394.472232 
L 860.797964 378.105738 
L 861.356117 373.465232 
L 861.91427 374.471348 
L 862.472423 381.495319 
L 863.030576 393.381222 
L 865.263188 451.356391 
L 865.821341 459.123878 
L 866.379494 461.904917 
L 866.937647 460.14614 
L 867.4958 454.874289 
L 869.170259 434.10153 
L 869.728412 431.970381 
L 870.286565 433.986469 
L 870.844718 439.218457 
L 871.402871 445.542833 
L 871.961024 450.537926 
L 872.519177 452.897004 
L 873.07733 453.223501 
L 873.635483 453.328672 
L 874.193636 454.731411 
L 875.309942 460.354038 
L 875.868095 461.518022 
L 876.426248 460.206212 
L 876.984401 456.340384 
L 877.542554 449.868495 
L 878.65886 430.374931 
L 879.775166 411.459504 
L 880.333319 406.130924 
L 880.891472 404.365803 
L 881.449625 405.641646 
L 882.565931 412.585969 
L 883.124084 415.923775 
L 883.682237 417.996945 
L 884.24039 418.467785 
L 884.798543 417.653674 
L 885.356696 416.094096 
L 885.914849 413.99809 
L 886.473002 411.269743 
L 887.589308 404.014072 
L 890.380073 383.183956 
L 892.054532 373.910855 
L 893.170838 366.711862 
L 893.728991 365.154113 
L 894.287145 365.715011 
L 894.845298 368.430293 
L 895.403451 373.396937 
L 897.636063 400.954459 
L 898.194216 404.542364 
L 898.752369 405.82254 
L 899.310522 404.501687 
L 899.868675 400.484227 
L 900.426828 394.087274 
L 901.543134 378.756023 
L 902.101287 373.713937 
L 902.65944 373.051135 
L 903.217593 377.496105 
L 903.775746 386.274779 
L 905.450205 418.269318 
L 906.008358 424.842086 
L 906.566511 428.54741 
L 907.124664 430.014071 
L 907.682817 429.936052 
L 908.24097 428.864421 
L 908.799123 427.200976 
L 909.915429 422.741761 
L 910.473582 420.347437 
L 911.031735 418.630005 
L 911.589888 418.148271 
L 912.706194 419.391055 
L 913.264347 419.339203 
L 913.8225 418.228147 
L 914.380653 416.042216 
L 914.938806 412.773393 
L 916.055112 403.568747 
L 917.171418 393.58481 
L 917.729571 390.461817 
L 918.287724 390.691626 
L 918.845877 395.132351 
L 920.520336 418.716103 
L 921.078489 423.690819 
L 921.636642 426.189754 
L 922.194795 426.514879 
L 922.752948 425.073279 
L 923.869254 419.318027 
L 924.427407 416.493856 
L 924.98556 414.775001 
L 925.543713 415.074596 
L 926.101866 418.062457 
L 926.660019 423.664354 
L 928.334478 445.463739 
L 928.892631 450.803333 
L 929.450784 454.264172 
L 930.008937 455.536883 
L 930.56709 454.843327 
L 931.125243 453.373771 
L 931.683396 452.716845 
L 932.241549 453.973411 
L 932.799702 457.575929 
L 933.357855 463.367432 
L 934.474161 476.758637 
L 935.032314 480.458451 
L 935.590467 480.315698 
L 936.14862 476.824329 
L 936.706773 472.116077 
L 937.264926 469.084261 
L 937.823079 469.82753 
L 938.381232 474.531158 
L 940.055691 496.348169 
L 940.613844 501.154866 
L 941.171997 503.907071 
L 941.73015 505.068891 
L 942.288303 505.261068 
L 943.404609 504.624861 
L 944.520915 504.082387 
L 945.637221 503.908374 
L 947.31168 503.908979 
L 948.427986 504.084536 
L 949.544292 504.628176 
L 950.660598 505.258291 
L 951.218751 505.056641 
L 951.776904 503.855575 
L 952.335057 500.916977 
L 952.89321 495.531783 
L 953.451363 487.494392 
L 955.125822 459.51511 
L 955.683975 455.473991 
L 956.242128 455.172757 
L 957.358434 459.504408 
L 957.916587 460.578283 
L 958.47474 459.123644 
L 959.032893 454.621907 
L 959.591046 447.338232 
L 963.498117 384.166227 
L 964.05627 377.792493 
L 964.614423 374.420142 
L 965.172576 373.319445 
L 965.730729 372.705512 
L 966.288882 370.541305 
L 966.847035 365.780326 
L 967.963341 354.397687 
L 968.521494 353.391493 
L 969.079647 357.970764 
L 969.6378 368.067606 
L 970.754106 399.388325 
L 972.428565 450.03118 
L 972.986718 463.045418 
L 973.544871 473.056482 
L 974.103024 479.799114 
L 974.661177 483.527865 
L 975.21933 484.800991 
L 975.777483 484.099689 
L 976.335636 481.722664 
L 976.893789 477.66633 
L 977.451942 471.687179 
L 979.126401 449.92196 
L 979.684554 446.426822 
L 980.242707 446.473078 
L 980.80086 450.540613 
L 981.359013 458.48974 
L 983.033472 490.109091 
L 983.591625 495.900773 
L 984.149778 497.237923 
L 984.707931 494.586814 
L 985.266084 488.98716 
L 986.940543 468.816237 
L 988.056849 456.544114 
L 988.615002 448.578668 
L 989.731308 427.647015 
L 990.847614 403.874998 
L 991.405767 394.587678 
L 991.96392 389.072101 
L 992.522073 388.008413 
L 993.080226 391.081635 
L 993.638379 397.192581 
L 994.754685 414.15002 
L 995.870991 435.307185 
L 996.987297 456.024016 
L 997.54545 462.825248 
L 998.103603 466.87953 
L 999.219909 472.440254 
L 999.778062 477.244262 
L 1001.452521 497.566314 
L 1002.010674 501.956176 
L 1002.568827 504.500571 
L 1003.12698 505.754992 
L 1003.685133 506.300401 
L 1004.243286 506.470766 
L 1004.801439 506.227419 
L 1005.359592 505.132418 
L 1005.917745 502.430084 
L 1006.475898 497.306761 
L 1007.034051 489.364895 
L 1009.266663 449.55939 
L 1009.824816 444.456458 
L 1010.382969 442.077824 
L 1010.941122 441.768041 
L 1011.499275 442.777675 
L 1012.057428 444.659709 
L 1012.615581 447.493532 
L 1013.173734 451.486452 
L 1014.29004 461.019596 
L 1014.848193 464.880763 
L 1015.406346 467.422727 
L 1015.964499 468.473738 
L 1016.522652 468.321138 
L 1017.080805 467.586821 
L 1017.638958 466.656797 
L 1018.197111 465.38219 
L 1018.755264 463.281098 
L 1019.313417 460.015169 
L 1020.987876 447.859304 
L 1021.546029 445.661736 
L 1022.104182 445.125247 
L 1022.662335 446.17643 
L 1023.220488 448.759706 
L 1023.778641 452.982994 
L 1025.4531 470.433038 
L 1026.011253 473.523816 
L 1026.569406 473.906123 
L 1027.127559 472.144301 
L 1027.685712 469.537863 
L 1028.243865 467.593422 
L 1028.802018 467.348751 
L 1029.360171 469.032149 
L 1030.476477 475.255459 
L 1031.03463 477.351891 
L 1031.592783 477.544592 
L 1032.150936 475.701811 
L 1033.267242 468.300249 
L 1033.825395 464.546023 
L 1034.383548 461.756345 
L 1034.941701 460.43978 
L 1035.499854 460.716164 
L 1037.174313 464.846327 
L 1037.732466 465.608715 
L 1038.290619 465.972048 
L 1038.848772 465.595077 
L 1039.406925 463.355747 
L 1039.965078 457.497294 
L 1040.523231 446.792619 
L 1042.19769 404.079973 
L 1042.755843 397.716562 
L 1043.313996 397.820152 
L 1043.872149 402.934797 
L 1046.104761 433.762017 
L 1048.895526 462.844541 
L 1049.453679 466.59599 
L 1050.011832 468.690457 
L 1050.569985 468.384822 
L 1051.128138 465.382912 
L 1051.686291 459.654312 
L 1052.244444 451.085805 
L 1053.918903 419.243003 
L 1054.477056 413.530631 
L 1055.035209 411.514606 
L 1055.593362 412.202748 
L 1056.151515 414.766847 
L 1056.709668 419.155074 
L 1057.267821 425.875154 
L 1058.384127 446.120669 
L 1059.500433 468.005063 
L 1060.058586 476.74156 
L 1060.616739 483.336951 
L 1061.174892 487.479228 
L 1061.733045 488.793912 
L 1062.291198 486.952581 
L 1062.849351 481.907999 
L 1064.52381 459.188135 
L 1065.081963 455.259784 
L 1065.640116 454.104022 
L 1066.198269 454.042039 
L 1066.756422 452.765142 
L 1067.314575 448.661994 
L 1067.872728 441.521602 
L 1068.989034 423.489782 
L 1069.547187 417.467392 
L 1070.10534 416.831772 
L 1070.663493 422.243843 
L 1071.221646 432.319333 
L 1072.337952 457.205901 
L 1072.896105 467.058648 
L 1073.454258 472.248214 
L 1074.012411 471.87708 
L 1074.570564 466.80252 
L 1075.128717 459.85249 
L 1075.68687 454.760185 
L 1076.245023 454.000601 
L 1076.803176 457.64679 
L 1077.919482 471.544347 
L 1079.035788 484.695112 
L 1079.593941 489.088924 
L 1080.152094 491.212709 
L 1080.710247 490.650743 
L 1081.2684 487.685351 
L 1082.384706 479.682407 
L 1082.942859 477.329521 
L 1083.501012 476.339002 
L 1084.059165 475.828877 
L 1085.175471 474.579065 
L 1085.733624 474.655868 
L 1086.291777 475.358761 
L 1086.84993 475.795838 
L 1087.408083 475.01307 
L 1087.966236 472.551153 
L 1088.524389 468.299328 
L 1089.640695 456.01802 
L 1090.757001 444.103216 
L 1091.315154 440.677484 
L 1091.873307 440.279033 
L 1092.43146 443.164617 
L 1092.989613 448.820872 
L 1094.105919 463.221443 
L 1094.664072 468.749965 
L 1095.222225 472.164426 
L 1096.338531 476.554748 
L 1098.571143 488.740274 
L 1099.129296 490.780847 
L 1099.687449 492.153202 
L 1100.245602 492.57066 
L 1101.361908 492.018712 
L 1101.920061 492.088489 
L 1102.478214 492.303738 
L 1103.036367 492.238752 
L 1103.59452 491.604678 
L 1104.710826 489.139639 
L 1105.268979 488.775846 
L 1105.827132 490.178493 
L 1106.385285 493.44417 
L 1107.501591 501.626849 
L 1108.059744 503.95846 
L 1108.617897 503.852323 
L 1109.17605 500.673098 
L 1109.734203 494.046377 
L 1110.292356 484.176375 
L 1111.966815 448.409846 
L 1112.524968 441.097819 
L 1113.083121 438.763546 
L 1113.641274 441.505973 
L 1114.199427 448.676133 
L 1115.315733 471.635242 
L 1116.432039 493.930387 
L 1116.990192 500.839745 
L 1117.548345 504.563489 
L 1118.106498 505.75945 
L 1118.664651 505.182366 
L 1119.222804 503.415277 
L 1121.455417 493.118863 
L 1123.688029 482.857041 
L 1124.246182 482.026234 
L 1124.804335 482.365915 
L 1125.362488 483.249107 
L 1125.920641 483.815352 
L 1126.478794 483.610468 
L 1127.036947 482.575142 
L 1127.5951 480.702345 
L 1129.269559 472.416417 
L 1129.827712 471.020145 
L 1130.385865 471.243809 
L 1130.944018 472.702745 
L 1132.618477 478.662132 
L 1133.17663 479.663101 
L 1133.734783 479.187905 
L 1134.292936 477.15408 
L 1135.409242 471.366895 
L 1135.967395 470.037496 
L 1136.525548 470.995423 
L 1137.083701 474.524568 
L 1138.200007 485.864032 
L 1138.75816 489.51663 
L 1139.316313 489.627802 
L 1139.874466 486.216459 
L 1140.432619 480.175483 
L 1142.107078 459.201422 
L 1142.665231 455.091718 
L 1143.223384 453.278373 
L 1143.781537 453.817482 
L 1144.897843 458.557774 
L 1145.455996 459.182254 
L 1146.014149 456.588533 
L 1146.572302 450.969736 
L 1147.688608 437.989491 
L 1148.246761 433.832055 
L 1148.804914 431.873848 
L 1149.363067 431.964579 
L 1149.92122 433.556404 
L 1150.479373 436.036687 
L 1151.037526 439.338368 
L 1152.711985 452.570283 
L 1153.270138 454.744312 
L 1153.828291 454.34135 
L 1154.386444 451.606259 
L 1156.619056 435.032539 
L 1158.851668 424.663828 
L 1159.409821 421.202443 
L 1159.967974 418.693393 
L 1160.526127 418.482266 
L 1161.08428 421.054202 
L 1161.642433 425.842618 
L 1163.875045 450.435204 
L 1164.433198 453.676656 
L 1164.991351 454.841965 
L 1165.549504 454.559105 
L 1166.107657 453.157757 
L 1166.66581 450.328949 
L 1168.340269 436.335474 
L 1168.898422 434.903295 
L 1169.456575 436.739695 
L 1171.131034 448.575633 
L 1171.689187 449.023144 
L 1172.24734 446.831059 
L 1173.921799 434.063943 
L 1174.479952 431.846241 
L 1175.596258 429.554047 
L 1176.712564 425.784664 
L 1177.270717 425.148644 
L 1177.82887 426.442546 
L 1178.387023 428.56945 
L 1178.945176 428.630488 
L 1179.503329 423.694766 
L 1180.061482 412.856364 
L 1181.177788 380.239619 
L 1182.294094 347.553357 
L 1182.852247 336.648878 
L 1183.4104 333.523384 
L 1183.968553 340.528573 
L 1184.526706 357.01799 
L 1185.643012 400.761168 
L 1186.201165 417.252162 
L 1186.759318 425.779496 
L 1187.317471 426.723341 
L 1187.875624 422.985685 
L 1188.433777 418.377779 
L 1188.99193 415.876533 
L 1189.550083 416.856151 
L 1190.108236 421.317194 
L 1192.340848 448.903461 
L 1192.899001 452.310069 
L 1193.457154 454.330971 
L 1194.015307 455.335799 
L 1194.57346 455.357112 
L 1195.131613 454.127119 
L 1195.689766 451.287154 
L 1197.364225 438.47105 
L 1197.922378 435.710972 
L 1199.596837 430.370067 
L 1200.15499 428.908533 
L 1200.713143 428.307362 
L 1201.271296 428.352031 
L 1201.829449 428.150518 
L 1202.387602 426.846025 
L 1203.503908 422.252072 
L 1204.062061 422.184352 
L 1204.620214 425.349794 
L 1205.73652 437.944846 
L 1206.852826 449.691937 
L 1207.969132 460.600715 
L 1209.085438 473.980876 
L 1210.759897 498.180876 
L 1211.31805 502.723101 
L 1211.876203 504.082516 
L 1212.434356 502.129223 
L 1212.992509 496.883962 
L 1213.550662 488.771295 
L 1215.225121 460.499699 
L 1215.783274 455.322672 
L 1216.341427 454.391912 
L 1216.89958 457.921439 
L 1217.457733 465.092728 
L 1219.132192 491.405817 
L 1219.690345 497.446036 
L 1220.248498 501.537979 
L 1220.806651 503.880195 
L 1221.364804 504.913991 
L 1221.922957 505.180893 
L 1223.597416 504.944687 
L 1224.155569 504.776157 
L 1224.713722 504.251618 
L 1225.271875 502.997067 
L 1225.830028 500.658499 
L 1226.388181 497.154382 
L 1228.06264 483.538306 
L 1228.620793 479.048829 
L 1229.178946 475.530865 
L 1229.737099 473.845802 
L 1230.295252 474.251862 
L 1230.853405 476.206838 
L 1231.969711 480.933799 
L 1232.527864 481.942799 
L 1233.086017 481.299966 
L 1233.64417 479.067267 
L 1234.202323 475.374169 
L 1234.760476 470.107419 
L 1235.876782 457.597202 
L 1236.434935 453.791766 
L 1236.993088 453.247999 
L 1237.551241 455.445556 
L 1238.667547 461.415109 
L 1239.2257 462.516492 
L 1239.783853 461.725204 
L 1240.342006 458.810059 
L 1240.900159 453.363736 
L 1241.458312 444.953693 
L 1242.574618 420.063089 
L 1243.690924 395.466355 
L 1244.249077 390.323464 
L 1244.80723 393.19137 
L 1245.365383 403.929145 
L 1246.481689 435.479372 
L 1247.039842 447.291613 
L 1247.597995 453.286436 
L 1248.156148 454.488536 
L 1248.714301 453.272905 
L 1249.272454 451.67461 
L 1249.830607 450.600344 
L 1250.38876 450.157444 
L 1250.946913 450.324648 
L 1251.505066 451.060094 
L 1252.621372 452.764747 
L 1254.295831 454.606315 
L 1255.412137 455.65556 
L 1255.97029 455.536533 
L 1256.528443 454.077193 
L 1257.086596 451.075103 
L 1258.202902 442.887516 
L 1258.761055 440.145029 
L 1259.319208 440.017419 
L 1259.877361 442.732844 
L 1260.435514 447.51217 
L 1261.55182 458.970363 
L 1262.109973 463.422322 
L 1262.668126 466.217018 
L 1263.226279 467.849874 
L 1264.342585 470.473149 
L 1264.900738 472.035505 
L 1265.458891 473.230191 
L 1266.017044 473.469697 
L 1266.575197 473.00431 
L 1267.13335 472.856227 
L 1267.691503 473.962054 
L 1268.249656 476.537783 
L 1268.807809 479.823352 
L 1269.365962 482.401586 
L 1269.924115 483.381016 
L 1270.482268 483.103935 
L 1271.598574 481.511784 
L 1272.156727 480.305601 
L 1272.71488 477.973351 
L 1273.273033 473.71952 
L 1274.947492 454.939728 
L 1275.505645 451.654339 
L 1276.063798 450.881711 
L 1276.621951 451.654668 
L 1278.29641 455.427564 
L 1278.854563 456.385286 
L 1279.412716 456.711069 
L 1279.970869 456.088731 
L 1281.087175 453.170891 
L 1281.645328 452.42342 
L 1282.203481 453.361552 
L 1282.761634 456.494925 
L 1283.87794 464.842154 
L 1284.436093 465.383922 
L 1284.994246 460.61123 
L 1285.552399 449.801182 
L 1286.668705 414.824685 
L 1287.785011 380.137741 
L 1288.343164 371.34762 
L 1288.901317 371.171926 
L 1289.45947 379.444606 
L 1291.133929 424.339614 
L 1291.692082 434.085043 
L 1292.250235 439.585825 
L 1292.808388 442.273307 
L 1293.366541 443.984815 
L 1293.924694 446.161691 
L 1295.599153 455.809569 
L 1296.157306 457.029118 
L 1296.715459 456.046717 
L 1297.273612 453.276834 
L 1297.831765 449.343517 
L 1298.948071 438.697247 
L 1301.738836 405.579866 
L 1302.296989 403.172696 
L 1302.855142 404.556384 
L 1303.413295 410.169577 
L 1304.529601 429.630235 
L 1305.645907 447.41996 
L 1306.20406 453.30636 
L 1307.878519 466.410843 
L 1308.436672 469.789313 
L 1308.994825 471.066174 
L 1309.552978 470.242524 
L 1310.111131 468.620495 
L 1310.669284 467.991561 
L 1311.227437 469.567791 
L 1312.901896 479.995605 
L 1313.460049 481.320557 
L 1314.018202 481.615 
L 1314.576355 481.704522 
L 1315.134508 482.233367 
L 1315.692661 483.125538 
L 1316.250814 483.409054 
L 1316.808967 481.99243 
L 1317.36712 478.698065 
L 1320.157885 456.712855 
L 1320.716038 454.585328 
L 1321.274191 454.198665 
L 1321.832344 455.486854 
L 1322.390497 458.232736 
L 1324.064956 469.56812 
L 1324.623109 471.298525 
L 1325.181262 471.837775 
L 1325.739415 471.619049 
L 1326.297568 470.367791 
L 1326.855721 467.689561 
L 1327.972027 459.161054 
L 1329.646486 444.131697 
L 1330.204639 441.342824 
L 1330.762792 440.738546 
L 1331.320945 441.908528 
L 1332.437251 446.716754 
L 1333.553557 451.870793 
L 1334.11171 453.66081 
L 1334.669863 454.582711 
L 1335.228016 455.230067 
L 1335.786169 456.51083 
L 1336.344322 458.855718 
L 1338.576934 471.008498 
L 1339.135087 471.05929 
L 1339.69324 468.086733 
L 1341.367699 449.952202 
L 1341.925852 446.528779 
L 1342.484005 445.153335 
L 1343.042158 445.099202 
L 1343.600311 445.866721 
L 1344.158464 447.327401 
L 1345.27477 451.217365 
L 1345.832923 452.040475 
L 1346.391077 451.072468 
L 1346.94923 448.227375 
L 1347.507383 443.837981 
L 1348.065536 438.155601 
L 1349.181842 423.163175 
L 1350.298148 407.221116 
L 1351.414454 394.373471 
L 1351.972607 390.150785 
L 1352.53076 389.35131 
L 1353.088913 393.311985 
L 1353.647066 402.297197 
L 1354.763372 429.780447 
L 1355.879678 455.719274 
L 1356.437831 465.270551 
L 1356.995984 472.497554 
L 1357.554137 477.675287 
L 1358.11229 480.775016 
L 1358.670443 481.485022 
L 1359.228596 479.673609 
L 1359.786749 475.694263 
L 1360.903055 463.766471 
L 1362.019361 450.930537 
L 1362.577514 447.128609 
L 1363.135667 446.297988 
L 1363.69382 448.031559 
L 1364.810126 453.586644 
L 1365.368279 454.468761 
L 1365.926432 453.131146 
L 1366.484585 449.869899 
L 1368.717197 432.773377 
L 1369.27535 430.899994 
L 1369.833503 430.533619 
L 1370.391656 431.393515 
L 1370.949809 432.754529 
L 1371.507962 433.808755 
L 1372.066115 434.029214 
L 1372.624268 433.16908 
L 1373.740574 429.691339 
L 1374.298727 428.859151 
L 1374.85688 429.435674 
L 1375.415033 431.297705 
L 1375.973186 433.651761 
L 1376.531339 435.385388 
L 1377.089492 435.832652 
L 1377.647645 434.991405 
L 1379.322104 429.556289 
L 1379.880257 428.787081 
L 1380.43841 429.650772 
L 1380.996563 432.40369 
L 1382.112869 441.032795 
L 1382.671022 446.377724 
L 1383.787328 460.802587 
L 1384.345481 467.927536 
L 1384.903634 472.692701 
L 1385.461787 474.108933 
L 1386.01994 471.85656 
L 1386.578093 466.289583 
L 1387.694399 451.763267 
L 1388.252552 447.315457 
L 1388.810705 446.296015 
L 1389.368858 448.088999 
L 1390.485164 454.128127 
L 1391.043317 455.535371 
L 1391.60147 455.439614 
L 1393.834082 452.227881 
L 1394.392235 452.817382 
L 1394.950388 455.192518 
L 1396.066694 461.48604 
L 1396.624847 462.00374 
L 1397.183 459.503981 
L 1397.741153 454.151863 
L 1399.973765 424.717354 
L 1400.531918 422.11021 
L 1401.090071 422.498949 
L 1401.648224 425.364533 
L 1403.322683 438.800638 
L 1403.880836 441.463246 
L 1404.438989 442.8018 
L 1406.113448 444.600257 
L 1406.671601 445.924074 
L 1407.787907 450.54623 
L 1408.904213 455.04718 
L 1409.462366 456.716121 
L 1410.020519 457.866051 
L 1410.578672 457.988357 
L 1411.136825 456.474268 
L 1411.694978 453.038548 
L 1412.811284 443.205688 
L 1413.369437 439.977724 
L 1413.92759 439.462389 
L 1414.485743 441.563323 
L 1415.043896 445.567283 
L 1416.718355 461.219234 
L 1417.276508 464.330917 
L 1417.834661 464.718828 
L 1418.392814 462.064553 
L 1419.50912 451.677348 
L 1420.067273 448.243966 
L 1420.625426 448.23642 
L 1421.183579 451.304471 
L 1422.299885 459.293489 
L 1422.858038 461.009489 
L 1423.416191 460.382332 
L 1423.974344 457.660909 
L 1425.09065 450.22316 
L 1425.648803 448.156734 
L 1426.206956 447.877408 
L 1427.323262 449.626452 
L 1427.881415 449.728361 
L 1428.997721 448.511075 
L 1429.555874 449.201057 
L 1430.114027 451.443645 
L 1430.67218 454.364142 
L 1431.230333 456.676447 
L 1431.788486 457.483189 
L 1432.346639 456.32387 
L 1432.904792 453.131916 
L 1434.021098 443.778217 
L 1434.579251 440.528392 
L 1435.137404 439.832404 
L 1435.695557 441.884744 
L 1436.25371 446.212096 
L 1437.370016 457.262501 
L 1437.928169 460.913279 
L 1438.486322 461.959342 
L 1439.044475 460.561463 
L 1439.602628 457.520562 
L 1441.277087 446.86222 
L 1442.393393 440.080487 
L 1444.067852 428.302589 
L 1444.626005 426.753378 
L 1445.184158 427.621506 
L 1445.742311 430.570885 
L 1448.533076 451.507178 
L 1450.765688 474.634678 
L 1451.323841 478.692109 
L 1451.881994 480.900705 
L 1452.440147 480.700144 
L 1452.9983 478.379292 
L 1455.230912 464.12447 
L 1456.905371 456.081058 
L 1458.021677 451.181957 
L 1458.57983 447.54469 
L 1459.137983 442.325519 
L 1461.370595 415.64936 
L 1461.928748 413.397815 
L 1462.486901 414.133474 
L 1463.045054 417.697708 
L 1465.277666 440.177799 
L 1465.835819 441.971815 
L 1466.393972 442.050777 
L 1466.952125 441.514242 
L 1467.510278 441.322375 
L 1468.068431 441.999154 
L 1468.626584 443.573539 
L 1469.74289 448.13102 
L 1470.859196 452.616433 
L 1471.417349 453.736224 
L 1471.975502 453.686483 
L 1472.533655 452.595056 
L 1473.091808 450.622284 
L 1474.208114 445.356786 
L 1474.766267 443.362832 
L 1475.32442 442.375579 
L 1475.882573 442.331361 
L 1476.440726 443.008595 
L 1476.998879 444.17415 
L 1477.557032 445.703766 
L 1478.115185 447.866932 
L 1478.673338 451.240361 
L 1480.347797 465.127391 
L 1480.90595 467.219734 
L 1481.464103 467.737715 
L 1482.580409 467.684565 
L 1483.138562 467.316344 
L 1483.696715 466.102789 
L 1484.254868 463.534 
L 1484.813021 458.922173 
L 1485.371174 451.378082 
L 1485.929327 440.234617 
L 1487.603786 396.948197 
L 1488.161939 389.975908 
L 1488.720092 391.175346 
L 1489.278245 399.548736 
L 1490.952704 436.687705 
L 1491.510857 444.350701 
L 1492.06901 448.135481 
L 1492.627163 448.680394 
L 1493.185316 447.009605 
L 1494.859775 438.668438 
L 1495.417928 437.324245 
L 1495.976081 437.816381 
L 1496.534234 440.653839 
L 1497.092387 445.852561 
L 1498.766846 465.104807 
L 1499.324999 468.581196 
L 1499.883152 469.662087 
L 1500.441305 468.960259 
L 1500.999458 467.824564 
L 1501.557611 467.654086 
L 1502.115764 469.272423 
L 1502.673917 472.677265 
L 1503.790223 480.608437 
L 1504.348376 482.269571 
L 1504.906529 481.627112 
L 1506.022835 477.478059 
L 1506.580988 476.136241 
L 1507.139141 475.548901 
L 1507.697294 475.257763 
L 1508.255447 474.827158 
L 1508.8136 473.924268 
L 1509.371753 472.17944 
L 1509.929906 469.401362 
L 1511.046212 463.05594 
L 1511.604365 461.25262 
L 1512.162518 460.591199 
L 1512.720671 460.39768 
L 1513.278824 460.003757 
L 1513.836977 459.090478 
L 1514.39513 457.413563 
L 1514.953283 454.469982 
L 1515.511436 449.631101 
L 1516.627742 434.514715 
L 1517.185895 426.664984 
L 1517.744048 420.848102 
L 1518.302201 418.139543 
L 1518.860354 418.80643 
L 1519.418507 422.506689 
L 1519.97666 428.610907 
L 1521.651119 450.789443 
L 1522.209272 456.065611 
L 1522.767425 459.766899 
L 1523.325578 461.847764 
L 1523.883731 462.394177 
L 1525.000037 461.712648 
L 1525.55819 462.163658 
L 1526.116343 463.485753 
L 1526.674496 465.133979 
L 1527.232649 466.259833 
L 1527.790802 466.375501 
L 1528.907108 465.052804 
L 1529.465261 465.008501 
L 1530.023414 465.907276 
L 1531.13972 468.92385 
L 1531.697873 469.784754 
L 1532.814179 470.754597 
L 1533.372332 471.678337 
L 1534.488638 474.438377 
L 1535.046791 476.327038 
L 1535.604944 478.870104 
L 1536.72125 485.100168 
L 1537.279403 487.025219 
L 1537.837556 487.080193 
L 1538.395709 485.361923 
L 1539.512015 479.669478 
L 1540.070168 476.533893 
L 1540.628321 472.324185 
L 1541.186474 465.636205 
L 1541.744627 455.299679 
L 1542.860933 424.084402 
L 1543.977239 392.249006 
L 1544.535392 383.649986 
L 1545.093545 382.947915 
L 1545.651698 390.285429 
L 1546.209851 404.138586 
L 1547.88431 457.352486 
L 1548.442463 470.313617 
L 1549.000616 479.182809 
L 1549.558769 484.535352 
L 1550.116922 487.056269 
L 1550.675075 487.158794 
L 1551.233228 485.154629 
L 1552.907687 475.10955 
L 1553.46584 474.238516 
L 1554.023993 475.492299 
L 1555.698452 484.044725 
L 1556.256605 483.893993 
L 1556.814758 480.373985 
L 1557.372911 473.481978 
L 1558.489217 455.210031 
L 1559.04737 448.16227 
L 1559.605523 444.719249 
L 1560.163676 445.082345 
L 1560.721829 448.459473 
L 1561.838135 459.580182 
L 1562.396288 465.253114 
L 1562.954441 469.773101 
L 1563.512594 472.150341 
L 1564.070747 471.706762 
L 1564.6289 468.525906 
L 1566.303359 453.078936 
L 1566.861512 450.312114 
L 1567.419665 449.988714 
L 1567.977818 451.789766 
L 1569.094124 458.45071 
L 1569.652277 461.770884 
L 1570.21043 464.18175 
L 1570.768583 465.105482 
L 1571.326736 464.552409 
L 1571.884889 463.394209 
L 1572.443043 462.910957 
L 1573.001196 463.923458 
L 1574.117502 468.323557 
L 1574.675655 468.909958 
L 1575.233808 467.117289 
L 1575.791961 463.141124 
L 1577.46642 447.886931 
L 1578.024573 444.677088 
L 1578.582726 443.031091 
L 1579.140879 442.997713 
L 1579.699032 444.484218 
L 1580.257185 447.126289 
L 1581.373491 453.432044 
L 1581.931644 456.044536 
L 1582.489797 458.094376 
L 1583.04795 459.590459 
L 1584.164256 461.599117 
L 1584.722409 463.320901 
L 1585.280562 466.238902 
L 1586.396868 473.262904 
L 1586.955021 474.394527 
L 1587.513174 472.15154 
L 1588.071327 466.327967 
L 1590.303939 433.862901 
L 1590.862092 430.111949 
L 1591.420245 429.202365 
L 1591.978398 430.837963 
L 1593.094704 438.258721 
L 1593.652857 441.84488 
L 1594.21101 444.122677 
L 1594.769163 444.81342 
L 1595.885469 443.830961 
L 1596.443622 444.348001 
L 1597.001775 446.363629 
L 1598.118081 452.413747 
L 1598.676234 454.610445 
L 1599.234387 455.632775 
L 1599.79254 455.528693 
L 1600.350693 454.612932 
L 1600.908846 453.456806 
L 1601.466999 452.643394 
L 1602.025152 452.261272 
L 1602.583305 451.743596 
L 1603.141458 450.31677 
L 1603.699611 447.612673 
L 1604.815917 440.466895 
L 1605.37407 437.705355 
L 1605.932223 435.951876 
L 1606.490376 435.267481 
L 1607.048529 436.007337 
L 1607.606682 438.70028 
L 1608.164835 443.521272 
L 1609.839294 462.920018 
L 1610.397447 467.654195 
L 1610.9556 471.020248 
L 1611.513753 473.447879 
L 1612.071906 475.17638 
L 1612.630059 475.93776 
L 1613.188212 475.242489 
L 1613.746365 472.945229 
L 1614.862671 465.412609 
L 1615.420824 461.641537 
L 1615.978977 458.788549 
L 1616.53713 457.256305 
L 1617.095283 457.083601 
L 1617.653436 457.924761 
L 1618.769742 460.194164 
L 1620.444201 462.085568 
L 1621.002354 463.35654 
L 1622.11866 466.709429 
L 1622.676813 467.222264 
L 1623.234966 465.994507 
L 1623.793119 462.98065 
L 1626.025731 445.673156 
L 1626.583884 443.259726 
L 1627.142037 442.100541 
L 1627.70019 442.419934 
L 1628.258343 444.35139 
L 1629.374649 451.232255 
L 1630.490955 458.171818 
L 1631.049108 460.75555 
L 1631.607261 462.581368 
L 1632.165414 463.633546 
L 1632.723567 463.579612 
L 1633.28172 461.831083 
L 1633.839873 457.962567 
L 1634.398026 451.997335 
L 1636.630638 421.609302 
L 1637.188791 417.315766 
L 1637.746944 416.668507 
L 1638.305097 420.467717 
L 1638.86325 428.376984 
L 1639.979556 448.70247 
L 1640.537709 456.653044 
L 1641.095862 461.794979 
L 1641.654015 464.43335 
L 1642.212168 465.224308 
L 1642.770321 464.730173 
L 1643.328474 463.326839 
L 1644.44478 459.965448 
L 1645.002933 459.201559 
L 1645.561086 459.30561 
L 1646.119239 460.330878 
L 1646.677392 462.494684 
L 1648.910004 475.344888 
L 1649.468157 476.216591 
L 1650.02631 475.872311 
L 1650.584463 474.857622 
L 1651.142616 473.533605 
L 1651.700769 471.515043 
L 1652.258922 467.650615 
L 1652.817075 460.694785 
L 1653.933381 438.615601 
L 1654.491534 427.637426 
L 1655.049687 420.007942 
L 1655.60784 417.103715 
L 1656.165993 418.730049 
L 1656.724146 423.494317 
L 1658.956758 448.091527 
L 1659.514911 452.916999 
L 1660.073064 456.732407 
L 1660.631217 459.312317 
L 1661.18937 460.332038 
L 1661.747523 459.767824 
L 1662.863829 457.000557 
L 1663.421982 456.409814 
L 1663.980135 456.439488 
L 1664.538288 456.747572 
L 1665.096441 457.209639 
L 1666.212747 458.787983 
L 1666.7709 459.50244 
L 1667.329053 459.696915 
L 1667.887206 459.060663 
L 1668.445359 457.359662 
L 1669.561665 452.164122 
L 1670.119818 450.493198 
L 1670.677971 450.358137 
L 1671.236124 451.698309 
L 1672.910583 457.903281 
L 1673.468736 459.077345 
L 1674.026889 459.666643 
L 1674.585042 459.655521 
L 1675.143195 459.107462 
L 1675.701348 458.096729 
L 1676.259501 456.515381 
L 1676.817654 454.238793 
L 1677.93396 448.730251 
L 1678.492113 446.540526 
L 1679.050266 445.17263 
L 1679.608419 444.835087 
L 1680.166572 445.85568 
L 1680.724725 448.558669 
L 1681.282878 453.106117 
L 1681.841031 459.419373 
L 1683.51549 482.112251 
L 1684.073643 487.657564 
L 1684.631796 490.776369 
L 1685.189949 491.105364 
L 1685.748102 488.902542 
L 1687.422561 477.755637 
L 1687.980714 475.481863 
L 1689.655173 470.613835 
L 1691.329632 462.415718 
L 1691.887785 461.332742 
L 1692.445938 461.595712 
L 1693.004091 462.83794 
L 1694.67855 468.15568 
L 1695.236703 468.753405 
L 1695.794856 468.337714 
L 1696.911162 465.990814 
L 1697.469315 465.365436 
L 1698.027468 465.891238 
L 1698.585621 467.760237 
L 1701.376386 482.607258 
L 1703.050845 491.648461 
L 1703.608998 492.40148 
L 1704.167151 490.61236 
L 1705.283457 482.429064 
L 1705.84161 478.320124 
L 1706.399763 475.051416 
L 1706.957916 472.672658 
L 1707.516069 471.13404 
L 1708.074222 470.330653 
L 1708.632375 469.952041 
L 1709.190528 469.727111 
L 1709.748681 469.697204 
L 1710.306834 469.954264 
L 1711.42314 470.870509 
L 1712.539446 472.101166 
L 1713.655752 473.541766 
L 1714.213905 473.979111 
L 1714.772058 474.21276 
L 1715.888364 474.419419 
L 1716.446517 474.935256 
L 1717.00467 476.00976 
L 1717.562823 477.610068 
L 1718.679129 481.789008 
L 1719.237282 484.033304 
L 1719.795435 485.814067 
L 1720.353588 486.19623 
L 1720.911741 484.178939 
L 1721.469894 479.578171 
L 1722.5862 467.597119 
L 1723.144353 463.427756 
L 1723.702506 461.812088 
L 1724.260659 462.830678 
L 1725.935118 472.051699 
L 1726.493271 473.045926 
L 1727.051424 472.573249 
L 1727.609577 471.16055 
L 1728.725883 467.360103 
L 1729.284036 466.280432 
L 1729.842189 466.104089 
L 1730.400342 466.091235 
L 1730.958495 465.645677 
L 1731.516648 464.978537 
L 1732.074801 464.68925 
L 1732.632954 465.356409 
L 1733.191107 467.522529 
L 1733.74926 471.413773 
L 1734.865566 480.901124 
L 1735.423719 483.031801 
L 1735.981872 481.672802 
L 1736.540025 477.064393 
L 1737.656331 465.518315 
L 1738.214484 462.958454 
L 1738.772637 463.783233 
L 1739.33079 467.20471 
L 1739.888943 471.387821 
L 1740.447096 474.0979 
L 1741.005249 473.714277 
L 1741.563402 469.90225 
L 1742.679708 456.163877 
L 1743.237861 449.507613 
L 1743.796014 445.09772 
L 1744.354167 444.079738 
L 1744.91232 446.551208 
L 1746.028626 455.448548 
L 1746.586779 458.181816 
L 1747.144932 459.080056 
L 1747.703085 458.978894 
L 1748.261238 459.020816 
L 1748.819391 459.819286 
L 1749.935697 462.273795 
L 1750.49385 463.061664 
L 1751.052003 464.271688 
L 1751.610156 467.164936 
L 1752.168309 472.386344 
L 1753.842768 493.4029 
L 1754.400921 496.823102 
L 1754.959074 496.981389 
L 1755.517227 494.413326 
L 1758.307992 473.419379 
L 1758.866145 471.046539 
L 1759.424298 470.284682 
L 1759.982451 471.248333 
L 1760.540604 472.997024 
L 1761.098757 474.004322 
L 1761.65691 473.311497 
L 1762.215063 471.042403 
L 1762.773216 467.764543 
L 1763.889522 459.224501 
L 1765.005828 450.535589 
L 1765.563981 448.001324 
L 1766.122134 447.321658 
L 1766.680287 447.954649 
L 1767.23844 449.193586 
L 1767.796593 450.95814 
L 1768.354746 453.495422 
L 1769.471052 460.691591 
L 1770.587358 468.303762 
L 1771.703664 474.193845 
L 1772.261817 476.051922 
L 1773.378123 478.403091 
L 1775.052582 483.408622 
L 1775.610735 483.67489 
L 1776.168888 483.036717 
L 1777.843347 479.51919 
L 1778.4015 477.930921 
L 1778.959653 475.687173 
L 1780.075959 470.343785 
L 1780.634112 468.697244 
L 1781.192265 468.618359 
L 1781.750418 470.14429 
L 1782.308571 472.900247 
L 1784.541183 486.386784 
L 1785.099336 487.616652 
L 1785.657489 487.696715 
L 1786.773795 486.617396 
L 1787.331948 486.448513 
L 1788.448254 486.556976 
L 1789.006407 486.429455 
L 1789.56456 485.855402 
L 1790.122713 484.446879 
L 1790.680866 481.891814 
L 1791.239019 478.068692 
L 1792.913478 463.359719 
L 1793.471631 459.900846 
L 1794.029784 457.628429 
L 1795.704243 453.195583 
L 1796.262396 450.415669 
L 1797.936855 439.699657 
L 1798.495009 437.714707 
L 1799.053162 437.387547 
L 1799.611315 438.81891 
L 1800.727621 444.92305 
L 1801.285774 447.89767 
L 1801.843927 450.17281 
L 1802.960233 453.84013 
L 1804.076539 458.388661 
L 1804.634692 459.464978 
L 1805.192845 458.197661 
L 1805.750998 454.113043 
L 1806.309151 447.456287 
L 1808.541763 412.450231 
L 1809.099916 406.995893 
L 1809.658069 404.685599 
L 1810.216222 406.189662 
L 1810.774375 411.479055 
L 1812.448834 434.241375 
L 1813.56514 445.219979 
L 1814.681446 453.880053 
L 1815.797752 460.757237 
L 1816.355905 463.054562 
L 1816.914058 463.920286 
L 1817.472211 462.916104 
L 1818.030364 459.26876 
L 1818.588517 452.03397 
L 1819.704823 428.830053 
L 1820.262976 417.59659 
L 1820.821129 410.417894 
L 1821.379282 409.130996 
L 1821.937435 413.953369 
L 1823.053741 434.328584 
L 1824.170047 453.73586 
L 1825.286353 466.911471 
L 1825.844506 471.75841 
L 1826.402659 475.446521 
L 1826.960812 477.719552 
L 1827.518965 478.371146 
L 1828.077118 477.397896 
L 1828.635271 474.959555 
L 1829.193424 471.203516 
L 1829.751577 465.967165 
L 1830.30973 458.730866 
L 1831.426036 437.892887 
L 1832.542342 415.850938 
L 1833.100495 409.008391 
L 1833.658648 406.783955 
L 1834.216801 408.968259 
L 1834.774954 414.360019 
L 1835.89126 430.043695 
L 1837.565719 457.267863 
L 1838.123872 464.162362 
L 1838.682025 468.488829 
L 1839.240178 470.485924 
L 1839.798331 470.933869 
L 1840.356484 470.460902 
L 1842.030943 467.26801 
L 1842.589096 465.895686 
L 1843.147249 463.533714 
L 1844.263555 456.644465 
L 1844.821708 454.698713 
L 1845.379861 455.706006 
L 1845.938014 460.353861 
L 1846.496167 468.252304 
L 1848.170626 495.969641 
L 1848.728779 501.405069 
L 1849.286932 504.005925 
L 1849.845085 504.199913 
L 1850.403238 502.621311 
L 1852.077697 494.598461 
L 1853.194003 491.274555 
L 1853.752156 488.71621 
L 1854.310309 483.974344 
L 1854.868462 476.116907 
L 1855.426615 464.537549 
L 1857.659227 405.134776 
L 1858.21738 399.08571 
L 1858.775533 398.273612 
L 1859.333686 401.234628 
L 1860.449992 410.710616 
L 1861.008145 413.82411 
L 1861.566298 414.93751 
L 1862.124451 414.565285 
L 1862.682604 413.927846 
L 1863.240757 414.579139 
L 1863.79891 417.862196 
L 1864.357063 424.313562 
L 1866.031522 449.282727 
L 1866.589675 453.221938 
L 1867.147828 454.609612 
L 1867.705981 455.162251 
L 1868.264134 456.476616 
L 1868.822287 459.123378 
L 1869.938593 467.188558 
L 1871.054899 477.771678 
L 1872.171205 489.244761 
L 1872.729358 493.693238 
L 1873.287511 496.893097 
L 1873.845664 499.110697 
L 1874.403817 500.572221 
L 1874.96197 501.22891 
L 1875.520123 500.723373 
L 1876.078276 498.587492 
L 1876.636429 494.693496 
L 1878.310888 479.650645 
L 1878.869041 476.585272 
L 1879.427194 474.376071 
L 1879.985347 471.417855 
L 1880.5435 466.036185 
L 1881.101653 457.523943 
L 1882.217959 436.038544 
L 1882.776112 428.628341 
L 1883.334265 426.842707 
L 1883.892418 430.957939 
L 1886.12503 462.885027 
L 1886.683183 466.158817 
L 1887.241336 467.386314 
L 1887.799489 467.091277 
L 1888.357642 465.599605 
L 1888.915795 463.070121 
L 1890.590254 453.177542 
L 1891.148407 451.520242 
L 1891.70656 451.722768 
L 1892.264713 454.498835 
L 1892.822866 460.340951 
L 1894.497325 485.26866 
L 1895.055478 490.022875 
L 1895.613631 491.970904 
L 1896.171784 491.902584 
L 1896.729937 490.603385 
L 1898.404396 484.441333 
L 1898.962549 483.52297 
L 1899.520702 483.66325 
L 1900.078855 484.546034 
L 1900.637008 485.864299 
L 1901.195161 487.679607 
L 1901.753314 490.254635 
L 1902.86962 496.340944 
L 1903.427773 498.237395 
L 1903.985926 499.048321 
L 1904.544079 499.396592 
L 1905.102232 499.934324 
L 1906.776691 502.49862 
L 1907.334844 502.794931 
L 1907.892997 502.732558 
L 1909.567456 501.81628 
L 1910.125609 501.791988 
L 1910.683762 502.203042 
L 1911.800068 503.626397 
L 1912.358221 504.050024 
L 1912.916374 503.991835 
L 1913.474527 503.287416 
L 1914.03268 501.830783 
L 1915.707139 495.45128 
L 1916.265292 494.576879 
L 1916.823445 494.867997 
L 1917.381598 496.022662 
L 1917.939751 497.443338 
L 1918.497904 498.508273 
L 1919.056057 498.918219 
L 1919.61421 498.708916 
L 1920.172363 497.785334 
L 1920.730516 495.65969 
L 1921.288669 491.947372 
L 1922.963128 477.78496 
L 1923.521281 474.545228 
L 1924.079434 472.084913 
L 1924.637587 470.172528 
L 1925.19574 468.905817 
L 1925.753893 468.744998 
L 1926.312046 470.088887 
L 1926.870199 472.803066 
L 1927.986505 479.390682 
L 1928.544658 481.588766 
L 1929.102811 482.394636 
L 1929.660964 481.767514 
L 1930.219117 479.7864 
L 1930.77727 476.571716 
L 1931.893576 467.662269 
L 1933.568035 452.612549 
L 1934.126188 450.519348 
L 1934.684341 451.548177 
L 1935.242494 455.290195 
L 1936.916953 470.202746 
L 1937.475106 472.982165 
L 1938.033259 474.110842 
L 1938.591412 473.908527 
L 1939.707718 472.118975 
L 1940.265871 471.815584 
L 1940.824024 472.396327 
L 1941.382177 473.842414 
L 1942.498483 477.683795 
L 1943.056636 479.149859 
L 1944.172942 481.574333 
L 1944.731095 483.444044 
L 1946.405554 489.961137 
L 1946.963707 491.503774 
L 1947.52186 492.242937 
L 1948.080013 491.399876 
L 1948.638166 488.281049 
L 1949.196319 482.836678 
L 1951.428931 454.55815 
L 1951.987084 451.867249 
L 1952.545237 452.866204 
L 1953.10339 457.270997 
L 1954.777849 476.864149 
L 1955.336002 481.167163 
L 1955.894155 483.930283 
L 1957.568614 489.517664 
L 1958.126767 491.114471 
L 1958.68492 491.926994 
L 1959.243073 491.397711 
L 1959.801226 489.593192 
L 1960.359379 487.372544 
L 1960.917532 485.792157 
L 1961.475685 485.180747 
L 1962.033838 484.872482 
L 1962.591991 484.070623 
L 1963.150144 482.605761 
L 1963.708297 480.51841 
L 1964.26645 477.492694 
L 1964.824603 473.064165 
L 1965.382756 466.921491 
L 1966.499062 449.637123 
L 1967.615368 430.6541 
L 1968.731674 416.693417 
L 1969.84798 407.477758 
L 1970.406133 405.204317 
L 1970.964286 406.194872 
L 1971.522439 411.512151 
L 1972.080592 420.993042 
L 1973.755051 456.415778 
L 1974.313204 464.105755 
L 1974.871357 468.663884 
L 1975.42951 470.946914 
L 1975.987663 471.931845 
L 1976.545816 472.245226 
L 1977.103969 472.205721 
L 1977.662122 471.997467 
L 1978.220275 471.661187 
L 1978.778428 470.896264 
L 1979.336581 469.108531 
L 1979.894734 465.93759 
L 1981.569193 453.819352 
L 1983.801805 442.134995 
L 1984.918111 432.874233 
L 1985.476264 428.15586 
L 1986.034417 424.492013 
L 1986.59257 422.68317 
L 1987.150723 423.243369 
L 1987.708876 425.980016 
L 1988.825182 433.622943 
L 1989.383335 436.218836 
L 1989.941488 437.031741 
L 1990.499641 435.881421 
L 1991.057794 433.007257 
L 1991.615947 428.815965 
L 1992.732253 417.377064 
L 1993.848559 403.826035 
L 1994.406712 398.489333 
L 1994.964865 395.751125 
L 1995.523018 396.447139 
L 1996.081171 400.886377 
L 1996.639324 408.718265 
L 1998.313783 437.765208 
L 1998.871936 444.197168 
L 2000.546395 458.22032 
L 2002.779007 481.470224 
L 2003.33716 484.430305 
L 2003.895313 485.761455 
L 2004.453466 486.096772 
L 2005.011619 486.139561 
L 2005.569772 486.437607 
L 2006.127925 487.366968 
L 2007.802384 491.927974 
L 2008.360537 492.245003 
L 2008.91869 491.233327 
L 2009.476843 488.483836 
L 2010.034996 483.896736 
L 2011.151302 470.820758 
L 2011.709455 464.25869 
L 2012.267608 460.115696 
L 2012.825761 460.155363 
L 2013.383914 464.732713 
L 2015.616526 496.190175 
L 2016.174679 500.437926 
L 2016.732832 502.997445 
L 2017.290985 504.300236 
L 2017.849138 504.75702 
L 2018.407291 504.741321 
L 2020.639903 504.020447 
L 2022.314362 503.963968 
L 2028.454046 503.999938 
L 2047.989401 503.939024 
L 2050.780166 503.525577 
L 2053.012778 503.984185 
L 2054.129084 504.357968 
L 2054.687237 504.164879 
L 2055.24539 503.1038 
L 2055.803543 500.667059 
L 2056.361696 496.621489 
L 2057.478002 486.372158 
L 2058.036155 483.231984 
L 2058.594308 482.837512 
L 2059.152461 484.560846 
L 2060.268767 488.95651 
L 2061.943226 492.706916 
L 2063.059532 498.277063 
L 2063.617685 500.965184 
L 2064.175838 502.87719 
L 2064.733991 503.9687 
L 2065.292144 504.427699 
L 2065.850297 504.501768 
L 2069.199215 503.975307 
L 2074.222592 504.038843 
L 2077.013357 504.405487 
L 2077.57151 503.907727 
L 2078.129663 502.76217 
L 2078.687816 500.79612 
L 2079.804122 495.012999 
L 2081.478581 485.265837 
L 2082.036734 480.781553 
L 2083.711193 464.677321 
L 2084.269346 461.952536 
L 2084.827499 462.444588 
L 2085.385652 466.115641 
L 2087.618264 488.458622 
L 2088.176417 491.199844 
L 2088.73457 492.206639 
L 2089.850876 491.999316 
L 2090.409029 492.50596 
L 2091.525335 494.638893 
L 2093.199794 496.531701 
L 2095.432406 501.849565 
L 2095.990559 502.711567 
L 2096.548712 503.285438 
L 2097.106865 503.516283 
L 2097.665018 503.429125 
L 2099.89763 502.284492 
L 2100.455783 502.462374 
L 2102.688395 503.924716 
L 2103.804701 504.080989 
L 2113.293302 503.943757 
L 2114.409608 503.548705 
L 2115.525914 502.95965 
L 2116.084067 502.841848 
L 2116.64222 502.970163 
L 2118.316679 503.805772 
L 2119.991138 504.21808 
L 2121.107444 504.363074 
L 2121.665597 504.281984 
L 2122.22375 503.934515 
L 2122.781903 503.158298 
L 2123.340056 501.84032 
L 2123.898209 499.992378 
L 2125.014515 495.054022 
L 2125.572668 492.449215 
L 2126.130821 490.807952 
L 2126.688974 491.080684 
L 2127.247127 493.362105 
L 2128.363433 500.055022 
L 2128.921586 502.526911 
L 2129.479739 504.026107 
L 2130.037892 504.757228 
L 2130.596045 504.988016 
L 2131.154198 504.896788 
L 2131.712351 504.516006 
L 2132.270504 503.745503 
L 2132.828657 502.428474 
L 2134.503116 496.279904 
L 2135.061269 495.579859 
L 2135.619422 496.500316 
L 2137.293881 502.615016 
L 2137.852034 503.728738 
L 2138.410187 504.261677 
L 2138.96834 504.411069 
L 2140.084646 504.243867 
L 2141.759105 504.000547 
L 2144.54987 503.994987 
L 2161.29446 503.994041 
L 2164.643378 504.061326 
L 2166.87599 504.382981 
L 2167.434143 504.167325 
L 2167.992296 503.535535 
L 2168.550449 502.308633 
L 2169.108602 500.442032 
L 2171.341214 491.3909 
L 2171.899367 490.062025 
L 2172.45752 489.376389 
L 2173.573826 489.028647 
L 2174.131979 488.512519 
L 2174.690132 487.01151 
L 2175.248285 483.887311 
L 2175.806438 478.609869 
L 2176.364591 471.063336 
L 2177.480897 452.694548 
L 2178.03905 445.436377 
L 2178.597203 441.893117 
L 2179.155356 442.873703 
L 2179.713509 447.821583 
L 2181.387968 469.414474 
L 2181.946121 474.768512 
L 2182.504274 478.756379 
L 2183.062427 481.088511 
L 2183.62058 481.421192 
L 2184.178733 479.974689 
L 2185.295039 475.331217 
L 2185.853192 473.902806 
L 2186.411345 473.73176 
L 2186.969498 474.841668 
L 2187.527651 476.955676 
L 2188.085804 479.935184 
L 2188.643957 483.99822 
L 2190.318416 499.233996 
L 2190.876569 502.422798 
L 2191.434722 504.137702 
L 2191.992875 504.736294 
L 2192.551028 504.650315 
L 2194.225487 503.488082 
L 2194.78364 503.426757 
L 2198.132558 504.026839 
L 2202.039629 504.02843 
L 2203.155935 503.720575 
L 2204.830394 502.731821 
L 2205.388547 502.634907 
L 2205.9467 502.809782 
L 2206.504853 503.110749 
L 2207.063006 503.13243 
L 2207.621159 502.363388 
L 2208.179312 500.421148 
L 2208.737465 497.261877 
L 2210.411924 486.119786 
L 2211.52823 481.167782 
L 2212.086383 477.988026 
L 2212.644536 473.622959 
L 2213.760842 463.150414 
L 2214.318995 459.012137 
L 2214.877148 456.858933 
L 2215.435301 457.359998 
L 2215.993454 460.927996 
L 2216.551607 467.327635 
L 2218.226066 490.062946 
L 2218.784219 494.584939 
L 2219.342372 497.336387 
L 2219.900525 499.156641 
L 2220.458678 500.563193 
L 2221.016831 501.420135 
L 2221.574984 501.341733 
L 2222.133137 500.199177 
L 2223.249443 496.530219 
L 2223.807596 495.333134 
L 2224.365749 494.853101 
L 2224.923902 494.900571 
L 2225.482055 495.190934 
L 2226.040208 495.20821 
L 2226.598361 494.284531 
L 2227.156514 492.004419 
L 2228.830973 481.948454 
L 2229.389126 480.331185 
L 2229.947279 479.9336 
L 2230.505432 480.265483 
L 2232.179891 482.41751 
L 2232.738044 483.147116 
L 2233.296197 484.33567 
L 2233.85435 486.431281 
L 2234.412503 489.499143 
L 2235.528809 496.717815 
L 2236.086962 499.029818 
L 2236.645115 499.471344 
L 2237.203268 498.007539 
L 2237.761421 495.028941 
L 2239.43588 484.116941 
L 2239.994033 483.274492 
L 2240.552186 485.263946 
L 2241.110339 489.581493 
L 2242.226645 499.336951 
L 2242.784798 502.478645 
L 2243.342951 504.186082 
L 2243.901104 504.840742 
L 2244.459257 504.884121 
L 2246.691869 504.036632 
L 2247.808175 503.948912 
L 2252.2734 503.994862 
L 2253.389706 503.686848 
L 2255.622318 502.70105 
L 2256.180471 502.705154 
L 2256.738624 502.932806 
L 2257.85493 503.629864 
L 2258.971236 504.003893 
L 2260.087542 504.064945 
L 2266.227225 503.999956 
L 2277.948438 503.977274 
L 2278.506591 504.128285 
L 2279.064744 504.410252 
L 2280.739203 505.575369 
L 2281.297356 505.23478 
L 2281.855509 503.602618 
L 2282.413662 499.908497 
L 2282.971815 493.633938 
L 2284.646274 468.973667 
L 2285.204427 466.570414 
L 2285.76258 469.767779 
L 2286.320733 477.353904 
L 2287.437039 494.939162 
L 2287.995192 500.796075 
L 2288.553345 504.078304 
L 2289.111498 505.412086 
L 2289.669651 505.581662 
L 2290.785957 504.747122 
L 2291.34411 504.348306 
L 2291.902263 504.089694 
L 2293.018569 503.915811 
L 2314.786536 504 
L 2334.880044 504.023513 
L 2335.438197 503.812055 
L 2335.99635 503.422652 
L 2337.112656 502.179417 
L 2337.670809 501.286178 
L 2338.228962 499.423544 
L 2338.787115 495.186726 
L 2339.345268 487.226341 
L 2339.903421 474.728229 
L 2341.019727 437.422728 
L 2341.57788 417.567903 
L 2342.136033 402.25669 
L 2342.694186 393.986234 
L 2343.252339 392.06652 
L 2343.810492 393.15465 
L 2344.368645 393.473285 
L 2344.926798 391.166295 
L 2346.043104 382.653783 
L 2346.601257 380.277273 
L 2347.15941 381.044285 
L 2347.717563 385.372966 
L 2348.275716 392.817678 
L 2349.392022 413.216932 
L 2350.508328 434.501224 
L 2351.066481 442.68692 
L 2351.624634 447.867696 
L 2352.182787 449.84288 
L 2352.74094 449.027859 
L 2353.299093 446.038652 
L 2354.415399 436.056785 
L 2354.973552 430.938778 
L 2355.531705 426.943134 
L 2357.764317 414.934759 
L 2358.32247 411.181919 
L 2358.880623 408.267332 
L 2359.438776 407.426147 
L 2359.996929 409.567892 
L 2360.555082 414.923061 
L 2362.229541 438.082957 
L 2362.787694 440.311917 
L 2363.345847 437.435547 
L 2363.904 431.144455 
L 2363.904 431.144455 
" style="fill:none;stroke:#bfbf00;stroke-linecap:round;stroke-width:1.5;"/>
   </g>
   <g id="line2d_14">
    <path clip-path="url(#p37bdc89436)" d="M 328.32 454.549343 
L 332.785224 454.549343 
L 333.343377 455.241866 
L 333.90153 457.446474 
L 334.459683 457.446474 
L 335.017836 458.022404 
L 335.575989 459.552426 
L 336.134142 460.023434 
L 362.367333 460.023434 
L 363.483639 459.597354 
L 364.599945 459.458391 
L 369.623322 459.324234 
L 370.739628 459.074772 
L 371.297781 458.874899 
L 371.855934 458.404271 
L 372.414087 457.126462 
L 372.97224 454.256138 
L 373.530393 449.160079 
L 374.088546 442.052785 
L 374.646699 441.69359 
L 375.204852 439.777105 
L 375.763005 439.105761 
L 393.623901 439.105761 
L 394.182054 432.841718 
L 394.740207 423.162918 
L 395.29836 415.78716 
L 395.856513 415.203798 
L 396.414666 415.203798 
L 397.530972 416.350023 
L 398.089125 419.762973 
L 398.647278 422.081309 
L 404.228808 422.081309 
L 404.786961 422.497956 
L 405.345114 423.056374 
L 405.903267 425.343804 
L 406.46142 431.440006 
L 407.019573 436.124611 
L 407.577726 436.336009 
L 433.810917 436.336009 
L 434.36907 430.182503 
L 436.043529 405.281152 
L 436.601682 404.774571 
L 437.159835 404.560478 
L 437.717988 402.295213 
L 440.508753 402.295213 
L 441.066906 404.560478 
L 441.62506 404.774571 
L 442.183213 409.684327 
L 442.741366 420.112779 
L 443.299519 428.068441 
L 443.857672 432.686736 
L 451.113661 432.768212 
L 451.671814 433.152666 
L 452.229967 434.142616 
L 452.78812 436.522775 
L 479.021311 436.522775 
L 479.579464 435.687056 
L 481.253923 424.599936 
L 482.370229 424.599936 
L 482.928382 430.491414 
L 483.486535 438.145863 
L 484.044688 439.997632 
L 485.719147 440.061828 
L 486.2773 441.586577 
L 486.835453 441.627518 
L 487.393606 442.665545 
L 489.068065 451.420319 
L 489.626218 453.852454 
L 490.184371 455.669876 
L 490.742524 456.87418 
L 492.416983 456.87418 
L 493.533289 457.357494 
L 494.091442 457.450406 
L 494.649595 458.852193 
L 495.207748 460.687182 
L 521.440939 460.687182 
L 521.999092 459.341719 
L 522.557245 459.313494 
L 523.115398 458.762486 
L 523.673551 458.59103 
L 536.51107 458.515442 
L 537.069223 456.766901 
L 538.185529 451.329186 
L 540.418141 439.908244 
L 540.976294 434.320225 
L 541.534447 425.892287 
L 542.0926 414.345727 
L 543.767059 369.517445 
L 544.325212 366.919367 
L 545.441518 366.919367 
L 545.999671 370.570165 
L 547.115977 380.970704 
L 548.790436 396.097031 
L 549.906742 404.33827 
L 550.464895 406.5972 
L 551.023048 407.641721 
L 551.581201 409.056532 
L 552.139354 412.621896 
L 552.697507 418.957498 
L 554.371966 442.018593 
L 554.930119 445.984519 
L 573.907321 445.984519 
L 574.465474 446.901461 
L 575.023627 446.930593 
L 575.58178 447.346384 
L 581.721463 447.346384 
L 582.279616 446.930593 
L 584.512228 446.901461 
L 601.814971 446.901461 
L 602.931277 446.551029 
L 603.48943 446.132901 
L 604.047583 443.937741 
L 604.605736 443.664176 
L 614.094337 443.648419 
L 615.768796 433.013727 
L 616.885102 424.708773 
L 618.001408 424.524982 
L 618.559561 423.580121 
L 619.117714 424.628366 
L 619.675867 424.708773 
L 620.23402 426.287064 
L 620.792173 429.010303 
L 621.350326 430.759051 
L 623.024785 430.804917 
L 625.81555 430.804917 
L 626.373703 431.407988 
L 626.931856 431.471757 
L 627.490009 433.136811 
L 628.048162 441.473409 
L 628.606315 448.102811 
L 629.164468 452.045973 
L 629.722621 453.187177 
L 636.97861 453.187177 
L 637.536763 453.406897 
L 655.955812 453.406897 
L 657.072118 453.062813 
L 657.630271 452.182759 
L 659.30473 452.139264 
L 664.328107 452.139264 
L 664.88626 449.473809 
L 665.444413 449.232963 
L 666.002566 448.864158 
L 666.560719 447.90456 
L 677.165627 447.90456 
L 678.281933 443.646789 
L 678.840086 440.52023 
L 679.956392 430.234748 
L 680.514545 427.640359 
L 681.072698 427.40121 
L 681.630851 426.524819 
L 685.537922 426.524819 
L 686.096075 427.40121 
L 686.654228 427.640359 
L 687.212381 429.467915 
L 688.88684 447.818779 
L 715.120031 447.818779 
L 716.236337 446.257914 
L 716.79449 446.24823 
L 717.352643 445.16101 
L 720.701561 445.16101 
L 721.259714 444.713254 
L 722.37602 444.397788 
L 723.492326 444.397788 
L 724.050479 443.981785 
L 724.608632 443.25625 
L 732.422774 443.25625 
L 732.980927 443.981785 
L 733.53908 444.027629 
L 734.097233 444.397788 
L 734.655386 448.326126 
L 735.213539 450.556039 
L 735.771692 451.382847 
L 762.004883 451.382847 
L 763.121189 450.470033 
L 763.679342 450.105847 
L 764.795648 450.020329 
L 767.02826 450.020329 
L 767.586413 448.637051 
L 769.260872 442.498166 
L 770.377178 436.979104 
L 770.935331 435.626283 
L 771.493484 435.622212 
L 772.051637 435.4517 
L 775.958708 435.4517 
L 777.075014 435.226427 
L 777.633167 435.226427 
L 778.19132 433.621046 
L 779.307626 433.475669 
L 779.865779 432.284121 
L 789.35438 432.284121 
L 791.028839 425.297662 
L 791.586992 422.261347 
L 792.145145 417.963246 
L 792.703298 417.870652 
L 793.261451 417.583329 
L 793.819604 416.879299 
L 806.657123 416.879299 
L 807.215276 416.092716 
L 807.773429 413.649165 
L 808.331582 412.114015 
L 808.889735 412.114015 
L 809.447888 411.735022 
L 812.238653 411.735022 
L 812.796806 412.114015 
L 813.354959 412.233606 
L 813.913112 413.568441 
L 815.029418 419.040502 
L 815.587571 421.186244 
L 841.820762 421.186244 
L 842.378915 420.537665 
L 842.937068 415.780457 
L 844.053374 402.143601 
L 844.611527 401.952909 
L 845.16968 401.465284 
L 845.727833 398.507464 
L 851.309363 398.507464 
L 851.867516 401.952909 
L 852.425669 402.143601 
L 852.983822 406.795333 
L 853.541975 414.56282 
L 861.356117 414.56282 
L 861.91427 415.585081 
L 862.472423 415.792979 
L 880.333319 415.792979 
L 880.891472 415.645154 
L 889.263767 415.645154 
L 889.82192 411.779326 
L 890.380073 405.307437 
L 891.496379 385.813872 
L 892.054532 375.398064 
L 893.170838 375.398064 
L 893.728991 380.281028 
L 894.287145 383.986351 
L 894.845298 384.303363 
L 913.264347 384.303363 
L 913.8225 385.374994 
L 914.380653 385.453013 
L 914.938806 386.405286 
L 916.055112 400.902681 
L 916.613265 406.242275 
L 917.171418 409.703114 
L 918.845877 409.703114 
L 919.962183 410.975824 
L 920.520336 413.014871 
L 921.078489 418.806374 
L 922.194795 432.197579 
L 923.311101 432.263271 
L 924.98556 432.263271 
L 925.543713 435.754639 
L 926.101866 435.897393 
L 926.660019 437.204316 
L 927.776325 451.787111 
L 928.334478 456.593808 
L 928.892631 459.346013 
L 929.450784 460.440275 
L 964.05627 460.442161 
L 964.614423 459.294516 
L 965.172576 456.355919 
L 965.730729 450.970725 
L 966.288882 442.933334 
L 966.847035 440.239933 
L 967.963341 438.966807 
L 969.079647 438.966807 
L 970.195953 440.239933 
L 971.312259 450.025755 
L 987.498696 450.025755 
L 988.615002 452.676865 
L 989.173155 453.005255 
L 989.731308 457.395118 
L 990.289461 459.939513 
L 990.847614 461.193934 
L 991.405767 461.666361 
L 1017.638958 461.666361 
L 1018.197111 460.571359 
L 1018.755264 457.869026 
L 1019.313417 452.745703 
L 1019.87157 444.803836 
L 1020.429723 434.532831 
L 1020.987876 432.983534 
L 1021.546029 432.790833 
L 1022.104182 431.140753 
L 1044.988455 431.140753 
L 1046.104761 424.129399 
L 1047.221067 424.129399 
L 1048.337373 438.775892 
L 1048.895526 442.391523 
L 1065.640116 442.391523 
L 1066.198269 442.918169 
L 1066.756422 444.232854 
L 1067.314575 444.527866 
L 1085.175471 444.527866 
L 1085.733624 446.089685 
L 1086.291777 446.219789 
L 1086.84993 446.651651 
L 1087.408083 447.592143 
L 1088.524389 447.592143 
L 1089.082542 447.7411 
L 1092.989613 447.74268 
L 1093.547766 448.009602 
L 1094.105919 448.883112 
L 1095.222225 457.065791 
L 1103.59452 457.065791 
L 1104.152673 459.291265 
L 1104.710826 459.397402 
L 1105.268979 460.002431 
L 1131.502171 460.002431 
L 1132.060324 458.854219 
L 1134.292936 448.557805 
L 1134.851089 445.872813 
L 1135.409242 445.066743 
L 1135.967395 444.955571 
L 1136.525548 442.999884 
L 1137.083701 441.6554 
L 1152.711985 441.6554 
L 1153.270138 435.614425 
L 1154.944597 414.640364 
L 1155.50275 414.621196 
L 1156.060903 413.996716 
L 1156.619056 412.027474 
L 1158.851668 412.027474 
L 1159.409821 410.280907 
L 1161.642433 409.998047 
L 1167.223963 409.998047 
L 1167.782116 409.780292 
L 1168.340269 409.115597 
L 1178.387023 409.115597 
L 1178.945176 408.596698 
L 1179.503329 407.749011 
L 1180.619635 407.749011 
L 1181.177788 409.769913 
L 1193.457154 409.769913 
L 1194.015307 410.431024 
L 1194.57346 410.774741 
L 1195.131613 410.796054 
L 1196.247919 422.226937 
L 1197.364225 437.785933 
L 1198.480531 453.619818 
L 1199.038684 457.568165 
L 1206.852826 457.568165 
L 1207.410979 458.162043 
L 1207.969132 459.319137 
L 1208.527285 459.521458 
L 1209.085438 460.352932 
L 1210.201744 460.464658 
L 1236.434935 460.383628 
L 1236.993088 460.215099 
L 1237.551241 459.69056 
L 1238.109394 458.436009 
L 1238.667547 456.097441 
L 1239.2257 452.593324 
L 1240.900159 438.977247 
L 1241.458312 437.381741 
L 1242.016465 436.738908 
L 1242.574618 436.372741 
L 1245.923536 436.372741 
L 1246.481689 434.506209 
L 1247.039842 430.813111 
L 1247.597995 425.546361 
L 1248.156148 419.109938 
L 1248.714301 418.861263 
L 1249.830607 418.861263 
L 1250.38876 421.65596 
L 1250.946913 423.288816 
L 1252.063219 425.912091 
L 1252.621372 427.474447 
L 1253.179525 428.443252 
L 1253.737678 428.443252 
L 1254.853984 428.908638 
L 1255.412137 429.400996 
L 1255.97029 431.976725 
L 1256.528443 435.262294 
L 1257.086596 437.840528 
L 1283.87794 437.801933 
L 1284.436093 436.950725 
L 1284.994246 435.744543 
L 1285.552399 433.412293 
L 1286.110552 429.158462 
L 1286.668705 423.000257 
L 1287.226858 420.822863 
L 1287.785011 420.281096 
L 1288.343164 416.467026 
L 1293.366541 416.467026 
L 1293.924694 417.529074 
L 1294.482847 420.281096 
L 1295.041 420.822863 
L 1295.599153 421.849785 
L 1296.157306 425.228255 
L 1297.831765 425.228255 
L 1298.389918 425.681465 
L 1298.948071 426.505116 
L 1299.506224 428.56699 
L 1300.064377 432.559872 
L 1300.62253 435.434547 
L 1301.180683 436.759499 
L 1301.738836 437.053942 
L 1302.296989 437.143463 
L 1302.855142 437.672309 
L 1329.088333 437.672309 
L 1329.646486 437.431372 
L 1330.204639 434.137007 
L 1330.762792 429.735123 
L 1331.320945 427.276717 
L 1332.995404 426.737467 
L 1338.576934 426.737467 
L 1339.135087 426.498231 
L 1339.69324 426.447439 
L 1340.251393 425.806732 
L 1340.809546 424.251314 
L 1343.042158 424.251314 
L 1343.600311 426.447439 
L 1344.158464 426.498231 
L 1344.716617 427.936496 
L 1345.27477 433.114229 
L 1345.832923 435.112551 
L 1372.066115 435.112551 
L 1372.624268 431.133205 
L 1373.740574 428.131643 
L 1374.298727 427.295502 
L 1398.857459 427.295502 
L 1399.415612 421.728524 
L 1399.973765 417.442682 
L 1400.531918 416.924982 
L 1401.090071 414.942923 
L 1402.76453 414.942923 
L 1403.322683 416.658176 
L 1403.880836 416.924982 
L 1404.438989 417.442682 
L 1405.555295 417.503495 
L 1431.788486 417.398283 
L 1432.346639 416.44843 
L 1433.462945 416.352221 
L 1436.25371 416.44843 
L 1436.811863 417.398283 
L 1437.370016 419.230203 
L 1438.486322 430.07362 
L 1439.044475 434.131051 
L 1465.277666 434.131051 
L 1465.835819 433.818234 
L 1467.510278 422.658676 
L 1468.626584 422.658676 
L 1469.184737 423.123506 
L 1486.48748 423.176657 
L 1487.045633 424.020138 
L 1488.161939 424.020138 
L 1489.836398 425.101029 
L 1490.394551 428.116206 
L 1491.510857 436.047379 
L 1517.744048 436.047379 
L 1518.302201 435.019885 
L 1518.860354 432.917001 
L 1519.418507 431.575183 
L 1519.97666 430.987842 
L 1520.534813 430.696705 
L 1521.092966 430.2661 
L 1522.209272 430.2661 
L 1522.767425 431.76598 
L 1523.325578 434.309046 
L 1524.441884 440.53911 
L 1525.000037 440.800865 
L 1536.163097 440.800865 
L 1536.72125 442.464161 
L 1538.953862 442.495211 
L 1551.791381 442.495211 
L 1552.349534 440.800865 
L 1552.907687 440.593571 
L 1564.070747 440.593571 
L 1564.6289 439.483667 
L 1565.187053 439.332935 
L 1565.745206 437.17657 
L 1569.094124 437.17657 
L 1569.652277 435.812927 
L 1570.21043 428.92092 
L 1570.768583 427.589283 
L 1571.326736 427.145704 
L 1571.884889 425.212043 
L 1572.443043 425.423825 
L 1573.001196 427.145704 
L 1573.559349 427.589283 
L 1597.559928 427.590481 
L 1598.118081 428.701846 
L 1598.676234 428.886821 
L 1599.79254 430.615322 
L 1626.025731 430.615322 
L 1626.583884 428.384171 
L 1627.142037 424.874832 
L 1627.70019 422.661205 
L 1628.258343 422.148371 
L 1628.816496 421.433449 
L 1633.839873 421.433449 
L 1634.398026 422.148371 
L 1634.956179 422.661205 
L 1635.514332 425.072466 
L 1636.072485 428.498016 
L 1636.630638 430.78383 
L 1662.863829 430.78383 
L 1663.421982 430.296564 
L 1663.980135 428.972547 
L 1664.538288 426.953985 
L 1665.096441 423.089557 
L 1665.654594 416.133727 
L 1666.212747 415.77098 
L 1666.7709 415.206766 
L 1667.887206 415.135856 
L 1669.003512 415.206766 
L 1669.561665 415.77098 
L 1670.677971 430.350038 
L 1671.236124 437.551193 
L 1671.794277 443.096506 
L 1672.35243 444.341484 
L 1689.09702 444.410231 
L 1689.655173 446.215311 
L 1690.213326 446.544306 
L 1699.143774 446.544306 
L 1699.701927 446.051301 
L 1717.00467 446.051301 
L 1717.562823 442.318005 
L 1718.120976 441.635172 
L 1718.679129 441.253009 
L 1719.237282 439.617881 
L 1733.74926 439.617881 
L 1735.423719 436.340066 
L 1739.33079 436.340066 
L 1739.888943 437.111744 
L 1740.447096 438.470743 
L 1741.005249 442.575364 
L 1741.563402 448.841841 
L 1742.121555 449.852268 
L 1768.354746 449.852268 
L 1769.471052 440.795468 
L 1770.029205 439.113831 
L 1771.145511 439.113831 
L 1771.703664 439.283027 
L 1772.261817 441.825726 
L 1772.81997 442.587709 
L 1799.053162 442.587709 
L 1799.611315 442.056338 
L 1801.843927 441.868397 
L 1802.40208 441.294344 
L 1802.960233 439.885821 
L 1803.518386 437.330756 
L 1804.076539 433.507634 
L 1805.750998 419.359228 
L 1806.309151 418.798661 
L 1806.867304 418.493504 
L 1807.425457 418.355045 
L 1811.332528 418.355045 
L 1811.890681 418.493504 
L 1812.448834 419.359228 
L 1813.006987 422.350413 
L 1813.56514 427.197352 
L 1814.123293 430.885463 
L 1814.681446 432.836838 
L 1833.100495 432.836838 
L 1834.774954 433.810088 
L 1835.89126 451.408583 
L 1836.449413 456.844011 
L 1837.007566 458.060253 
L 1863.240757 458.060253 
L 1863.79891 456.667852 
L 1864.357063 456.162315 
L 1864.915216 456.011163 
L 1888.357642 456.011163 
L 1889.473948 451.779885 
L 1890.590254 451.779885 
L 1891.148407 453.676337 
L 1891.70656 454.487262 
L 1892.264713 454.835534 
L 1892.822866 455.373266 
L 1894.497325 457.937562 
L 1897.28809 457.937562 
L 1897.846243 458.1715 
L 1898.962549 458.357971 
L 1899.520702 459.065338 
L 1925.753893 459.065338 
L 1926.312046 458.726358 
L 1926.870199 457.269725 
L 1927.428352 455.146897 
L 1927.986505 454.35716 
L 1929.102811 453.947215 
L 1932.451729 453.947215 
L 1933.009882 453.224275 
L 1933.568035 451.098631 
L 1934.126188 447.681879 
L 1934.684341 447.386314 
L 1935.242494 446.942715 
L 1936.3588 446.838818 
L 1962.033838 446.836653 
L 1962.591991 446.553413 
L 1972.080592 446.553413 
L 1972.638745 445.032134 
L 1973.196898 442.811486 
L 1973.755051 441.231098 
L 1974.313204 440.619689 
L 1974.871357 440.311424 
L 1975.42951 439.509564 
L 1975.987663 438.044703 
L 1976.545816 435.957352 
L 1977.103969 432.931636 
L 1977.662122 428.503107 
L 1978.220275 427.684168 
L 1978.778428 427.644663 
L 1979.336581 427.436409 
L 1988.267029 427.436409 
L 1988.825182 427.644663 
L 1989.383335 427.684168 
L 1990.499641 436.909166 
L 1991.057794 439.869247 
L 1991.615947 441.200397 
L 1992.1741 441.535714 
L 1992.732253 441.578503 
L 1993.290406 441.876549 
L 1993.848559 442.80591 
L 1994.964865 446.112742 
L 1995.523018 446.672269 
L 2001.662701 446.672269 
L 2002.220854 447.366915 
L 2002.779007 447.683945 
L 2003.895313 455.876868 
L 2004.453466 458.436387 
L 2005.011619 459.739178 
L 2005.569772 459.973759 
L 2031.802964 459.973759 
L 2032.91927 459.567082 
L 2034.035576 459.460153 
L 2040.733412 459.464616 
L 2041.291565 459.603821 
L 2051.896472 459.627904 
L 2052.454625 459.796909 
L 2054.129084 459.835941 
L 2089.850876 459.844429 
L 2090.409029 459.519931 
L 2102.130242 459.490797 
L 2107.153619 459.54685 
L 2108.269925 459.720926 
L 2117.200373 459.802016 
L 2117.758526 460.196169 
L 2143.991717 460.196169 
L 2144.54987 459.954948 
L 2146.224329 459.700618 
L 2178.597203 459.807609 
L 2180.829815 459.821923 
L 2181.387968 459.680959 
L 2205.9467 459.680959 
L 2206.504853 459.502842 
L 2214.877148 459.467371 
L 2215.993454 459.159517 
L 2217.10976 458.571372 
L 2218.226066 458.4765 
L 2218.784219 458.248724 
L 2219.900525 458.248724 
L 2220.458678 457.80233 
L 2221.016831 456.859077 
L 2221.574984 456.780675 
L 2222.133137 456.002135 
L 2228.830973 456.002135 
L 2229.389126 456.780675 
L 2229.947279 456.859077 
L 2230.505432 457.917586 
L 2231.063585 459.625024 
L 2231.621738 460.102285 
L 2257.85493 460.102285 
L 2258.971236 459.613609 
L 2260.087542 459.497169 
L 2265.669072 459.503887 
L 2266.227225 459.567226 
L 2266.785378 459.849194 
L 2267.901684 460.673722 
L 2275.715826 460.729839 
L 2276.273979 460.851028 
L 2294.693028 460.851028 
L 2295.251181 460.673722 
L 2301.949017 460.66384 
L 2303.065323 460.66384 
L 2304.181629 459.787248 
L 2304.739782 459.528635 
L 2305.856088 459.442753 
L 2347.717563 459.462455 
L 2348.275716 459.250997 
L 2348.833869 458.861594 
L 2349.950175 457.618359 
L 2350.508328 456.725119 
L 2351.066481 454.862486 
L 2351.624634 450.625668 
L 2352.182787 442.665283 
L 2352.74094 430.167171 
L 2353.299093 413.074072 
L 2353.857246 405.281822 
L 2354.415399 404.466801 
L 2354.973552 403.306637 
L 2361.671388 403.306637 
L 2362.229541 404.466801 
L 2363.904 404.466801 
L 2363.904 404.466801 
" style="fill:none;stroke:#0000ff;stroke-linecap:round;stroke-width:1.5;"/>
   </g>
   <g id="line2d_15">
    <defs>
     <path d="M 0 3 
C 0.795609 3 1.55874 2.683901 2.12132 2.12132 
C 2.683901 1.55874 3 0.795609 3 0 
C 3 -0.795609 2.683901 -1.55874 2.12132 -2.12132 
C 1.55874 -2.683901 0.795609 -3 0 -3 
C -0.795609 -3 -1.55874 -2.683901 -2.12132 -2.12132 
C -2.683901 -1.55874 -3 -0.795609 -3 0 
C -3 0.795609 -2.683901 1.55874 -2.12132 2.12132 
C -1.55874 2.683901 -0.795609 3 0 3 
z
" id="mc4dd4086fb" style="stroke:#008000;"/>
    </defs>
    <g clip-path="url(#p37bdc89436)">
     <use style="fill:#008000;stroke:#008000;" x="366.274404" xlink:href="#mc4dd4086fb" y="394.538393"/>
     <use style="fill:#008000;stroke:#008000;" x="371.855934" xlink:href="#mc4dd4086fb" y="406.37243"/>
     <use style="fill:#008000;stroke:#008000;" x="432.694611" xlink:href="#mc4dd4086fb" y="389.574273"/>
     <use style="fill:#008000;stroke:#008000;" x="451.113661" xlink:href="#mc4dd4086fb" y="403.188859"/>
     <use style="fill:#008000;stroke:#008000;" x="479.021311" xlink:href="#mc4dd4086fb" y="342.88056"/>
     <use style="fill:#008000;stroke:#008000;" x="490.742524" xlink:href="#mc4dd4086fb" y="388.800064"/>
     <use style="fill:#008000;stroke:#008000;" x="513.626797" xlink:href="#mc4dd4086fb" y="385.829376"/>
     <use style="fill:#008000;stroke:#008000;" x="537.069223" xlink:href="#mc4dd4086fb" y="272.965708"/>
     <use style="fill:#008000;stroke:#008000;" x="547.115977" xlink:href="#mc4dd4086fb" y="279.071604"/>
     <use style="fill:#008000;stroke:#008000;" x="611.861725" xlink:href="#mc4dd4086fb" y="393.735552"/>
     <use style="fill:#008000;stroke:#008000;" x="629.164468" xlink:href="#mc4dd4086fb" y="451.311352"/>
     <use style="fill:#008000;stroke:#008000;" x="678.281933" xlink:href="#mc4dd4086fb" y="333.912687"/>
     <use style="fill:#008000;stroke:#008000;" x="683.30531" xlink:href="#mc4dd4086fb" y="356.610247"/>
     <use style="fill:#008000;stroke:#008000;" x="835.122926" xlink:href="#mc4dd4086fb" y="390.802813"/>
     <use style="fill:#008000;stroke:#008000;" x="861.91427" xlink:href="#mc4dd4086fb" y="374.471348"/>
     <use style="fill:#008000;stroke:#008000;" x="880.891472" xlink:href="#mc4dd4086fb" y="404.365803"/>
     <use style="fill:#008000;stroke:#008000;" x="889.82192" xlink:href="#mc4dd4086fb" y="386.784136"/>
     <use style="fill:#008000;stroke:#008000;" x="894.287145" xlink:href="#mc4dd4086fb" y="365.715011"/>
     <use style="fill:#008000;stroke:#008000;" x="902.65944" xlink:href="#mc4dd4086fb" y="373.051135"/>
     <use style="fill:#008000;stroke:#008000;" x="917.729571" xlink:href="#mc4dd4086fb" y="390.461817"/>
     <use style="fill:#008000;stroke:#008000;" x="964.614423" xlink:href="#mc4dd4086fb" y="374.420142"/>
     <use style="fill:#008000;stroke:#008000;" x="968.521494" xlink:href="#mc4dd4086fb" y="353.391493"/>
     <use style="fill:#008000;stroke:#008000;" x="979.684554" xlink:href="#mc4dd4086fb" y="446.426822"/>
     <use style="fill:#008000;stroke:#008000;" x="992.522073" xlink:href="#mc4dd4086fb" y="388.008413"/>
     <use style="fill:#008000;stroke:#008000;" x="1042.755843" xlink:href="#mc4dd4086fb" y="397.716562"/>
     <use style="fill:#008000;stroke:#008000;" x="1055.035209" xlink:href="#mc4dd4086fb" y="411.514606"/>
     <use style="fill:#008000;stroke:#008000;" x="1070.10534" xlink:href="#mc4dd4086fb" y="416.831772"/>
     <use style="fill:#008000;stroke:#008000;" x="1113.083121" xlink:href="#mc4dd4086fb" y="438.763546"/>
     <use style="fill:#008000;stroke:#008000;" x="1183.4104" xlink:href="#mc4dd4086fb" y="333.523384"/>
     <use style="fill:#008000;stroke:#008000;" x="1204.062061" xlink:href="#mc4dd4086fb" y="422.184352"/>
     <use style="fill:#008000;stroke:#008000;" x="1216.341427" xlink:href="#mc4dd4086fb" y="454.391912"/>
     <use style="fill:#008000;stroke:#008000;" x="1236.993088" xlink:href="#mc4dd4086fb" y="453.247999"/>
     <use style="fill:#008000;stroke:#008000;" x="1244.249077" xlink:href="#mc4dd4086fb" y="390.323464"/>
     <use style="fill:#008000;stroke:#008000;" x="1288.901317" xlink:href="#mc4dd4086fb" y="371.171926"/>
     <use style="fill:#008000;stroke:#008000;" x="1302.296989" xlink:href="#mc4dd4086fb" y="403.172696"/>
     <use style="fill:#008000;stroke:#008000;" x="1352.53076" xlink:href="#mc4dd4086fb" y="389.35131"/>
     <use style="fill:#008000;stroke:#008000;" x="1461.928748" xlink:href="#mc4dd4086fb" y="413.397815"/>
     <use style="fill:#008000;stroke:#008000;" x="1488.161939" xlink:href="#mc4dd4086fb" y="389.975908"/>
     <use style="fill:#008000;stroke:#008000;" x="1518.302201" xlink:href="#mc4dd4086fb" y="418.139543"/>
     <use style="fill:#008000;stroke:#008000;" x="1545.093545" xlink:href="#mc4dd4086fb" y="382.947915"/>
     <use style="fill:#008000;stroke:#008000;" x="1637.746944" xlink:href="#mc4dd4086fb" y="416.668507"/>
     <use style="fill:#008000;stroke:#008000;" x="1655.60784" xlink:href="#mc4dd4086fb" y="417.103715"/>
     <use style="fill:#008000;stroke:#008000;" x="1809.658069" xlink:href="#mc4dd4086fb" y="404.685599"/>
     <use style="fill:#008000;stroke:#008000;" x="1821.379282" xlink:href="#mc4dd4086fb" y="409.130996"/>
     <use style="fill:#008000;stroke:#008000;" x="1833.658648" xlink:href="#mc4dd4086fb" y="406.783955"/>
     <use style="fill:#008000;stroke:#008000;" x="1844.821708" xlink:href="#mc4dd4086fb" y="454.698713"/>
     <use style="fill:#008000;stroke:#008000;" x="1858.775533" xlink:href="#mc4dd4086fb" y="398.273612"/>
     <use style="fill:#008000;stroke:#008000;" x="1883.334265" xlink:href="#mc4dd4086fb" y="426.842707"/>
     <use style="fill:#008000;stroke:#008000;" x="1891.70656" xlink:href="#mc4dd4086fb" y="451.722768"/>
     <use style="fill:#008000;stroke:#008000;" x="1970.406133" xlink:href="#mc4dd4086fb" y="405.204317"/>
     <use style="fill:#008000;stroke:#008000;" x="1986.59257" xlink:href="#mc4dd4086fb" y="422.68317"/>
     <use style="fill:#008000;stroke:#008000;" x="1994.964865" xlink:href="#mc4dd4086fb" y="395.751125"/>
     <use style="fill:#008000;stroke:#008000;" x="2178.597203" xlink:href="#mc4dd4086fb" y="441.893117"/>
     <use style="fill:#008000;stroke:#008000;" x="2214.877148" xlink:href="#mc4dd4086fb" y="456.858933"/>
     <use style="fill:#008000;stroke:#008000;" x="2346.601257" xlink:href="#mc4dd4086fb" y="380.277273"/>
    </g>
   </g>
   <g id="patch_3">
    <path d="M 323.32 504 
L 323.32 69.12 
" style="fill:none;stroke:#262626;stroke-linecap:square;stroke-linejoin:miter;stroke-width:0.8;"/>
   </g>
   <g id="patch_4">
    <path d="M 328.32 509 
L 2363.904 509 
" style="fill:none;stroke:#262626;stroke-linecap:square;stroke-linejoin:miter;stroke-width:0.8;"/>
   </g>
   <g id="text_15">
    <text style="fill:#262626;font-family:Arial;font-size:36px;font-stretch:normal;font-style:normal;font-weight:normal;text-anchor:middle;" transform="rotate(-0, 1346.112, 61.965)" x="1346.112" y="61.965">20201105_GN999-6_60x_001-1.tif LAM-1::wSc</text>
   </g>
  </g>
 </g>
 <defs>
  <clipPath id="p37bdc89436">
   <rect height="434.88" width="2035.584" x="328.32" y="69.12"/>
  </clipPath>
 </defs>
</svg>
