<?xml version="1.0" encoding="utf-8" standalone="no"?>
<!DOCTYPE svg PUBLIC "-//W3C//DTD SVG 1.1//EN"
  "http://www.w3.org/Graphics/SVG/1.1/DTD/svg11.dtd">
<!-- Created with matplotlib (https://matplotlib.org/) -->
<svg height="576pt" version="1.1" viewBox="0 0 2314.08 576" width="2314.08pt" xmlns="http://www.w3.org/2000/svg" xmlns:xlink="http://www.w3.org/1999/xlink">
 <metadata>
  <rdf:RDF xmlns:cc="http://creativecommons.org/ns#" xmlns:dc="http://purl.org/dc/elements/1.1/" xmlns:rdf="http://www.w3.org/1999/02/22-rdf-syntax-ns#">
   <cc:Work>
    <dc:type rdf:resource="http://purl.org/dc/dcmitype/StillImage"/>
    <dc:date>2022-12-01T10:17:48.373765</dc:date>
    <dc:format>image/svg+xml</dc:format>
    <dc:creator>
     <cc:Agent>
      <dc:title>Matplotlib v3.3.4, https://matplotlib.org/</dc:title>
     </cc:Agent>
    </dc:creator>
   </cc:Work>
  </rdf:RDF>
 </metadata>
 <defs>
  <style type="text/css">*{stroke-linecap:butt;stroke-linejoin:round;}</style>
 </defs>
 <g id="figure_1">
  <g id="patch_1">
   <path d="M 0 576 
L 2314.08 576 
L 2314.08 0 
L 0 0 
z
" style="fill:#ffffff;"/>
  </g>
  <g id="axes_1">
   <g id="patch_2">
    <path d="M 289.26 504 
L 2082.672 504 
L 2082.672 69.12 
L 289.26 69.12 
z
" style="fill:#ffffff;"/>
   </g>
   <g id="matplotlib.axis_1">
    <g id="xtick_1">
     <g id="line2d_1">
      <defs>
       <path d="M 0 0 
L 0 -3.5 
" id="m55e6b138c0" style="stroke:#262626;stroke-width:0.8;"/>
      </defs>
      <g>
       <use style="fill:#262626;stroke:#262626;stroke-width:0.8;" x="289.26" xlink:href="#m55e6b138c0" y="509"/>
      </g>
     </g>
     <g id="text_1">
      <text style="fill:#262626;font-family:Arial;font-size:30px;font-stretch:normal;font-style:normal;font-weight:normal;text-anchor:middle;" transform="rotate(-0, 289.26, 533.973438)" x="289.26" y="533.973438">0</text>
     </g>
    </g>
    <g id="xtick_2">
     <g id="line2d_2">
      <g>
       <use style="fill:#262626;stroke:#262626;stroke-width:0.8;" x="511.345014" xlink:href="#m55e6b138c0" y="509"/>
      </g>
     </g>
     <g id="text_2">
      <text style="fill:#262626;font-family:Arial;font-size:30px;font-stretch:normal;font-style:normal;font-weight:normal;text-anchor:middle;" transform="rotate(-0, 511.345014, 533.973438)" x="511.345014" y="533.973438">50</text>
     </g>
    </g>
    <g id="xtick_3">
     <g id="line2d_3">
      <g>
       <use style="fill:#262626;stroke:#262626;stroke-width:0.8;" x="733.430029" xlink:href="#m55e6b138c0" y="509"/>
      </g>
     </g>
     <g id="text_3">
      <text style="fill:#262626;font-family:Arial;font-size:30px;font-stretch:normal;font-style:normal;font-weight:normal;text-anchor:middle;" transform="rotate(-0, 733.430029, 533.973438)" x="733.430029" y="533.973438">100</text>
     </g>
    </g>
    <g id="xtick_4">
     <g id="line2d_4">
      <g>
       <use style="fill:#262626;stroke:#262626;stroke-width:0.8;" x="955.515043" xlink:href="#m55e6b138c0" y="509"/>
      </g>
     </g>
     <g id="text_4">
      <text style="fill:#262626;font-family:Arial;font-size:30px;font-stretch:normal;font-style:normal;font-weight:normal;text-anchor:middle;" transform="rotate(-0, 955.515043, 533.973438)" x="955.515043" y="533.973438">150</text>
     </g>
    </g>
    <g id="xtick_5">
     <g id="line2d_5">
      <g>
       <use style="fill:#262626;stroke:#262626;stroke-width:0.8;" x="1177.600058" xlink:href="#m55e6b138c0" y="509"/>
      </g>
     </g>
     <g id="text_5">
      <text style="fill:#262626;font-family:Arial;font-size:30px;font-stretch:normal;font-style:normal;font-weight:normal;text-anchor:middle;" transform="rotate(-0, 1177.600058, 533.973438)" x="1177.600058" y="533.973438">200</text>
     </g>
    </g>
    <g id="xtick_6">
     <g id="line2d_6">
      <g>
       <use style="fill:#262626;stroke:#262626;stroke-width:0.8;" x="1399.685072" xlink:href="#m55e6b138c0" y="509"/>
      </g>
     </g>
     <g id="text_6">
      <text style="fill:#262626;font-family:Arial;font-size:30px;font-stretch:normal;font-style:normal;font-weight:normal;text-anchor:middle;" transform="rotate(-0, 1399.685072, 533.973438)" x="1399.685072" y="533.973438">250</text>
     </g>
    </g>
    <g id="xtick_7">
     <g id="line2d_7">
      <g>
       <use style="fill:#262626;stroke:#262626;stroke-width:0.8;" x="1621.770086" xlink:href="#m55e6b138c0" y="509"/>
      </g>
     </g>
     <g id="text_7">
      <text style="fill:#262626;font-family:Arial;font-size:30px;font-stretch:normal;font-style:normal;font-weight:normal;text-anchor:middle;" transform="rotate(-0, 1621.770086, 533.973438)" x="1621.770086" y="533.973438">300</text>
     </g>
    </g>
    <g id="xtick_8">
     <g id="line2d_8">
      <g>
       <use style="fill:#262626;stroke:#262626;stroke-width:0.8;" x="1843.855101" xlink:href="#m55e6b138c0" y="509"/>
      </g>
     </g>
     <g id="text_8">
      <text style="fill:#262626;font-family:Arial;font-size:30px;font-stretch:normal;font-style:normal;font-weight:normal;text-anchor:middle;" transform="rotate(-0, 1843.855101, 533.973438)" x="1843.855101" y="533.973438">350</text>
     </g>
    </g>
    <g id="xtick_9">
     <g id="line2d_9">
      <g>
       <use style="fill:#262626;stroke:#262626;stroke-width:0.8;" x="2065.940115" xlink:href="#m55e6b138c0" y="509"/>
      </g>
     </g>
     <g id="text_9">
      <text style="fill:#262626;font-family:Arial;font-size:30px;font-stretch:normal;font-style:normal;font-weight:normal;text-anchor:middle;" transform="rotate(-0, 2065.940115, 533.973438)" x="2065.940115" y="533.973438">400</text>
     </g>
    </g>
    <g id="text_10">
     <text style="fill:#262626;font-family:Arial;font-size:30px;font-stretch:normal;font-style:normal;font-weight:normal;text-anchor:middle;" transform="rotate(-0, 1185.966, 565.775)" x="1185.966" y="565.775">Distance (um)</text>
    </g>
   </g>
   <g id="matplotlib.axis_2">
    <g id="ytick_1">
     <g id="line2d_10">
      <defs>
       <path d="M 0 0 
L 3.5 0 
" id="m85a66f0c35" style="stroke:#262626;stroke-width:0.8;"/>
      </defs>
      <g>
       <use style="fill:#262626;stroke:#262626;stroke-width:0.8;" x="284.26" xlink:href="#m85a66f0c35" y="504"/>
      </g>
     </g>
     <g id="text_11">
      <text style="fill:#262626;font-family:Arial;font-size:30px;font-stretch:normal;font-style:normal;font-weight:normal;text-anchor:end;" transform="rotate(-0, 280.76, 514.736719)" x="280.76" y="514.736719">0</text>
     </g>
    </g>
    <g id="ytick_2">
     <g id="line2d_11">
      <g>
       <use style="fill:#262626;stroke:#262626;stroke-width:0.8;" x="284.26" xlink:href="#m85a66f0c35" y="431.52"/>
      </g>
     </g>
     <g id="text_12">
      <text style="fill:#262626;font-family:Arial;font-size:30px;font-stretch:normal;font-style:normal;font-weight:normal;text-anchor:end;" transform="rotate(-0, 280.76, 442.256719)" x="280.76" y="442.256719">5</text>
     </g>
    </g>
    <g id="ytick_3">
     <g id="line2d_12">
      <g>
       <use style="fill:#262626;stroke:#262626;stroke-width:0.8;" x="284.26" xlink:href="#m85a66f0c35" y="359.04"/>
      </g>
     </g>
     <g id="text_13">
      <text style="fill:#262626;font-family:Arial;font-size:30px;font-stretch:normal;font-style:normal;font-weight:normal;text-anchor:end;" transform="rotate(-0, 280.76, 369.776719)" x="280.76" y="369.776719">10</text>
     </g>
    </g>
    <g id="ytick_4">
     <g id="line2d_13">
      <g>
       <use style="fill:#262626;stroke:#262626;stroke-width:0.8;" x="284.26" xlink:href="#m85a66f0c35" y="286.56"/>
      </g>
     </g>
     <g id="text_14">
      <text style="fill:#262626;font-family:Arial;font-size:30px;font-stretch:normal;font-style:normal;font-weight:normal;text-anchor:end;" transform="rotate(-0, 280.76, 297.296719)" x="280.76" y="297.296719">15</text>
     </g>
    </g>
    <g id="ytick_5">
     <g id="line2d_14">
      <g>
       <use style="fill:#262626;stroke:#262626;stroke-width:0.8;" x="284.26" xlink:href="#m85a66f0c35" y="214.08"/>
      </g>
     </g>
     <g id="text_15">
      <text style="fill:#262626;font-family:Arial;font-size:30px;font-stretch:normal;font-style:normal;font-weight:normal;text-anchor:end;" transform="rotate(-0, 280.76, 224.816719)" x="280.76" y="224.816719">20</text>
     </g>
    </g>
    <g id="ytick_6">
     <g id="line2d_15">
      <g>
       <use style="fill:#262626;stroke:#262626;stroke-width:0.8;" x="284.26" xlink:href="#m85a66f0c35" y="141.6"/>
      </g>
     </g>
     <g id="text_16">
      <text style="fill:#262626;font-family:Arial;font-size:30px;font-stretch:normal;font-style:normal;font-weight:normal;text-anchor:end;" transform="rotate(-0, 280.76, 152.336719)" x="280.76" y="152.336719">25</text>
     </g>
    </g>
    <g id="ytick_7">
     <g id="line2d_16">
      <g>
       <use style="fill:#262626;stroke:#262626;stroke-width:0.8;" x="284.26" xlink:href="#m85a66f0c35" y="69.12"/>
      </g>
     </g>
     <g id="text_17">
      <text style="fill:#262626;font-family:Arial;font-size:30px;font-stretch:normal;font-style:normal;font-weight:normal;text-anchor:end;" transform="rotate(-0, 280.76, 79.856719)" x="280.76" y="79.856719">30</text>
     </g>
    </g>
    <g id="text_18">
     <text style="fill:#262626;font-family:Arial;font-size:30px;font-stretch:normal;font-style:normal;font-weight:normal;text-anchor:middle;" transform="rotate(-90, 237.080312, 286.56)" x="237.080312" y="286.56">Intensity (AU)</text>
    </g>
   </g>
   <g id="line2d_17">
    <path clip-path="url(#pbb7fc722dd)" d="M 289.26 458.897966 
L 289.818174 452.850196 
L 290.376347 443.644907 
L 292.050868 406.025097 
L 292.609042 403.037688 
L 293.167216 408.396767 
L 294.283563 431.252148 
L 294.841737 438.327103 
L 295.39991 437.07679 
L 295.958084 427.329033 
L 297.074431 397.547003 
L 297.632605 387.552224 
L 298.190779 385.324251 
L 298.748952 390.927814 
L 300.423473 421.195886 
L 300.981647 424.34201 
L 301.539821 423.116228 
L 302.656168 415.980892 
L 303.214342 413.58599 
L 303.772515 412.690697 
L 304.330689 412.849704 
L 304.888863 413.758838 
L 305.447036 415.304664 
L 306.00521 416.485603 
L 306.563384 415.022189 
L 307.121557 408.744626 
L 308.796078 374.3304 
L 309.354252 371.183453 
L 309.912426 376.611149 
L 310.470599 389.288037 
L 312.703294 454.355977 
L 313.261468 463.557711 
L 313.819641 467.976107 
L 314.377815 466.912668 
L 314.935989 459.155642 
L 315.494162 443.286693 
L 316.052336 418.841747 
L 317.168683 352.466066 
L 318.285031 287.726046 
L 318.843204 263.259039 
L 319.401378 245.460247 
L 319.959552 234.133812 
L 320.517725 228.041132 
L 321.075899 225.354894 
L 321.634073 225.166487 
L 322.192246 228.42355 
L 322.75042 237.069279 
L 323.308594 252.277255 
L 324.424941 297.519081 
L 325.541289 344.788976 
L 327.773983 424.8219 
L 328.332157 442.007421 
L 328.890331 455.763333 
L 329.448504 464.934289 
L 330.006678 468.232543 
L 330.564852 464.309287 
L 331.123025 452.53095 
L 331.681199 433.728261 
L 333.913894 343.963789 
L 334.472067 332.925782 
L 335.030241 329.842416 
L 335.588415 334.97309 
L 336.146588 347.979097 
L 337.262936 390.494579 
L 338.379283 435.679938 
L 339.49563 470.047309 
L 340.053804 482.924362 
L 340.611978 492.89063 
L 341.170151 499.575737 
L 341.728325 502.686578 
L 342.286499 502.277057 
L 342.844672 498.668583 
L 343.402846 492.174046 
L 343.96102 483.026319 
L 345.077367 458.603563 
L 346.751888 419.472047 
L 347.310062 409.826126 
L 347.868235 404.64301 
L 348.426409 405.663657 
L 348.984583 413.276061 
L 350.10093 441.198776 
L 350.659104 455.492058 
L 351.217277 466.192032 
L 351.775451 471.849457 
L 352.333625 472.437112 
L 352.891798 468.364151 
L 353.449972 459.502153 
L 354.008146 445.646888 
L 356.24084 376.068093 
L 356.799014 365.705005 
L 357.357188 359.795263 
L 357.915361 358.53175 
L 358.473535 361.493209 
L 359.031709 367.322821 
L 360.148056 382.650294 
L 361.264403 401.179485 
L 363.497098 441.223834 
L 364.055272 448.018952 
L 364.613445 453.300214 
L 365.171619 457.44176 
L 365.729793 460.415898 
L 366.287966 462.135777 
L 366.84614 463.173254 
L 367.404314 464.660411 
L 368.520661 469.81054 
L 369.078835 471.449124 
L 369.637008 471.437284 
L 370.195182 470.148738 
L 370.753356 468.183051 
L 371.311529 465.461796 
L 371.869703 461.105076 
L 372.427877 454.193894 
L 374.102398 428.197404 
L 374.660571 426.110592 
L 375.218745 430.300304 
L 375.776919 440.557657 
L 378.009613 497.388774 
L 378.567787 503.015205 
L 379.125961 503.974172 
L 379.684134 501.272074 
L 380.242308 496.112478 
L 381.358655 483.398443 
L 381.916829 478.437949 
L 382.475003 476.227389 
L 383.033176 477.413183 
L 384.149524 485.697751 
L 384.707697 487.956974 
L 385.265871 484.91482 
L 385.824045 474.040415 
L 386.382218 454.524038 
L 387.498566 397.786669 
L 388.614913 343.180586 
L 389.173087 323.334421 
L 389.731261 308.968263 
L 390.289434 299.920423 
L 390.847608 296.372258 
L 391.405782 298.809439 
L 391.963955 307.546656 
L 392.522129 322.256282 
L 393.638476 365.335413 
L 395.312997 440.315359 
L 396.429345 479.21124 
L 396.987518 492.382857 
L 397.545692 500.73389 
L 398.103866 504.816395 
L 398.662039 505.883555 
L 399.220213 505.310471 
L 399.778387 504.284691 
L 400.33656 503.68295 
L 401.452908 503.982688 
L 402.011081 503.033345 
L 402.569255 499.514812 
L 403.127429 492.188368 
L 403.685602 480.058029 
L 404.243776 462.64084 
L 406.476471 373.447165 
L 407.034644 361.345437 
L 407.592818 359.276513 
L 408.150992 368.04687 
L 408.709165 385.663326 
L 410.383686 449.742815 
L 410.94186 463.45161 
L 411.500034 471.640486 
L 412.058207 475.337946 
L 412.616381 475.458836 
L 413.174555 472.053703 
L 413.732728 464.46668 
L 414.290902 451.767864 
L 414.849076 433.245996 
L 415.965423 382.161998 
L 417.08177 330.772398 
L 417.639944 311.927806 
L 418.198118 299.955568 
L 418.756291 295.208812 
L 419.314465 297.100052 
L 419.872639 305.076072 
L 420.430812 319.025773 
L 420.988986 338.755712 
L 422.105333 390.938279 
L 423.221681 443.746572 
L 423.779854 464.045265 
L 424.338028 478.763093 
L 424.896202 488.382869 
L 425.454375 494.146621 
L 426.012549 497.423449 
L 427.128896 501.113108 
L 427.68707 502.531716 
L 428.245244 503.246367 
L 428.803417 502.621683 
L 429.361591 500.151591 
L 429.919765 495.717565 
L 431.036112 484.083155 
L 431.594286 479.748151 
L 432.152459 478.014778 
L 432.710633 479.34211 
L 433.268807 483.457642 
L 434.943328 499.997444 
L 435.501501 503.217557 
L 436.059675 505.15497 
L 436.617849 506.349267 
L 437.176022 507.201864 
L 437.734196 507.729984 
L 438.29237 507.414768 
L 438.850543 505.153888 
L 439.408717 499.414346 
L 439.966891 488.766396 
L 440.525064 472.821535 
L 442.199585 409.172818 
L 443.315933 368.836372 
L 444.43228 336.965578 
L 444.990454 324.944234 
L 445.548627 315.400617 
L 446.106801 308.574382 
L 446.664975 305.094415 
L 447.223148 305.479183 
L 447.781322 309.910931 
L 448.339496 318.345396 
L 448.897669 330.51583 
L 449.455843 346.078531 
L 450.57219 386.905204 
L 452.246711 456.630593 
L 452.804885 474.076392 
L 453.363059 486.196838 
L 453.921232 492.984112 
L 454.479406 495.116762 
L 455.03758 493.52395 
L 455.595754 489.425372 
L 456.712101 479.735162 
L 457.270275 476.889147 
L 457.828448 476.58985 
L 458.386622 478.650933 
L 458.944796 481.640421 
L 459.502969 483.440455 
L 460.061143 482.086007 
L 460.619317 476.222323 
L 461.17749 465.140475 
L 461.735664 448.599989 
L 462.852011 401.04836 
L 463.968359 347.677205 
L 464.526532 326.241224 
L 465.084706 311.365076 
L 465.64288 303.88286 
L 466.201053 303.300302 
L 466.759227 308.034624 
L 467.317401 316.192459 
L 468.433748 337.887826 
L 470.108269 372.1113 
L 470.666443 381.086398 
L 471.224616 387.966736 
L 472.340964 396.747686 
L 472.899137 401.397333 
L 473.457311 408.039225 
L 474.573658 426.587956 
L 475.690006 444.578658 
L 476.248179 450.106988 
L 476.806353 452.16915 
L 477.364527 450.548543 
L 477.9227 445.278525 
L 478.480874 436.482354 
L 479.597221 410.631 
L 480.155395 396.660714 
L 480.713569 385.474671 
L 481.271742 379.603834 
L 481.829916 379.796471 
L 482.38809 384.55526 
L 483.504437 397.436012 
L 484.062611 402.002695 
L 484.620784 404.582525 
L 485.178958 405.471976 
L 485.737132 405.631689 
L 486.295305 406.435818 
L 486.853479 408.794177 
L 487.969826 416.156934 
L 488.528 418.854482 
L 489.086174 420.649018 
L 489.644347 422.982513 
L 490.202521 427.489573 
L 490.760695 434.607898 
L 491.877042 451.713797 
L 492.435216 458.730438 
L 492.993389 464.046876 
L 494.66791 475.757118 
L 495.226084 478.780485 
L 495.784258 479.825073 
L 496.342431 478.072513 
L 497.458779 469.953418 
L 498.016952 467.362391 
L 498.575126 467.300417 
L 499.1333 469.619291 
L 499.691473 473.691057 
L 501.924168 493.541393 
L 502.482342 494.83112 
L 503.040515 493.601142 
L 503.598689 490.264148 
L 504.156863 485.140906 
L 506.389557 459.068256 
L 506.947731 457.02181 
L 507.505905 457.292656 
L 509.180426 461.706663 
L 509.738599 462.483145 
L 510.296773 463.578786 
L 510.854947 466.161433 
L 511.41312 471.025281 
L 513.087641 492.475715 
L 513.645815 497.267381 
L 514.203989 499.790756 
L 514.762162 500.741685 
L 515.87851 501.246388 
L 516.994857 501.612824 
L 517.553031 501.998644 
L 519.785725 504.216462 
L 520.343899 505.05919 
L 522.01842 508.768473 
L 522.576594 508.430447 
L 523.134768 504.781643 
L 523.692941 495.471407 
L 524.251115 478.510468 
L 524.809289 453.698168 
L 526.48381 367.708516 
L 527.041983 351.414088 
L 527.600157 345.381502 
L 528.158331 348.242473 
L 528.716504 357.961174 
L 529.274678 373.215787 
L 530.391025 416.778379 
L 531.507373 465.572301 
L 532.065546 485.106097 
L 532.62372 498.367947 
L 533.181894 504.86911 
L 533.740067 505.317018 
L 534.298241 500.782688 
L 534.856415 492.378998 
L 535.972762 468.935942 
L 537.647283 430.232189 
L 538.205457 420.070528 
L 538.76363 414.605737 
L 539.321804 415.69724 
L 539.879978 423.586947 
L 540.996325 452.131401 
L 542.112672 481.587145 
L 542.670846 492.437151 
L 543.22902 500.029662 
L 543.787193 504.949657 
L 544.345367 507.971498 
L 544.903541 509.526588 
L 545.461714 509.402063 
L 546.019888 506.558477 
L 546.578062 499.243425 
L 547.136235 485.568767 
L 547.694409 464.361428 
L 548.252583 435.699676 
L 549.36893 362.147764 
L 550.485277 285.942074 
L 551.043451 255.638757 
L 551.601625 234.468367 
L 552.159798 223.262791 
L 552.717972 220.575982 
L 553.276146 223.750279 
L 553.834319 230.56904 
L 554.392493 240.034915 
L 554.950667 252.063679 
L 555.50884 266.962159 
L 556.625188 306.620774 
L 558.299709 385.214326 
L 559.416056 432.911687 
L 559.97423 450.848564 
L 560.532403 464.718988 
L 561.090577 475.246579 
L 561.648751 483.203575 
L 562.206924 488.930929 
L 562.765098 492.316615 
L 563.323272 493.492528 
L 564.439619 493.301607 
L 564.997793 494.098453 
L 566.11414 497.319614 
L 566.672314 497.92253 
L 567.230487 497.123251 
L 569.463182 490.20645 
L 570.021356 487.065194 
L 570.579529 480.730871 
L 571.137703 470.544953 
L 572.812224 433.29882 
L 573.370398 426.045617 
L 573.928571 422.92368 
L 574.486745 423.711613 
L 575.044919 428.065328 
L 575.603092 435.502546 
L 577.277613 463.084579 
L 577.835787 468.587697 
L 578.393961 470.946794 
L 578.952134 470.59406 
L 579.510308 468.465391 
L 580.068482 465.212914 
L 580.626655 460.416651 
L 581.184829 452.734073 
L 581.743003 440.993862 
L 582.85935 406.82113 
L 583.975697 370.517993 
L 584.533871 356.121886 
L 585.092045 345.401364 
L 585.650218 338.573755 
L 586.208392 335.896879 
L 586.766566 337.909929 
L 587.324739 345.12026 
L 587.882913 357.494274 
L 588.999261 392.753957 
L 590.115608 426.504193 
L 590.673782 438.697609 
L 591.790129 456.15412 
L 592.906476 469.699768 
L 594.022824 480.668969 
L 594.580997 484.772971 
L 595.139171 487.832474 
L 595.697345 489.955349 
L 596.255518 491.280609 
L 596.813692 491.807372 
L 597.371866 491.472802 
L 598.488213 489.77819 
L 599.046387 489.808039 
L 599.60456 490.81444 
L 601.279081 496.471773 
L 601.837255 497.546552 
L 602.395429 498.039325 
L 602.953602 498.251012 
L 603.511776 498.190638 
L 604.06995 497.621443 
L 604.628123 496.423325 
L 606.302644 491.248045 
L 606.860818 488.603945 
L 607.418992 483.839607 
L 607.977165 475.580611 
L 608.535339 462.938005 
L 609.093513 445.724021 
L 610.20986 399.886339 
L 611.884381 323.445152 
L 612.442555 303.473169 
L 613.000728 288.698547 
L 613.558902 279.308939 
L 614.117076 275.012627 
L 614.675249 275.414289 
L 615.233423 279.88502 
L 615.791597 287.516115 
L 616.34977 297.646553 
L 616.907944 310.467214 
L 617.466118 326.834574 
L 618.582465 371.172664 
L 619.698812 419.137568 
L 620.256986 437.282471 
L 620.81516 449.343705 
L 621.373333 455.935914 
L 623.047854 465.594042 
L 624.164202 473.533427 
L 624.722375 475.164924 
L 625.280549 474.374104 
L 626.396896 469.141022 
L 626.95507 468.12202 
L 627.513244 470.228753 
L 628.071417 475.722287 
L 629.745938 498.637454 
L 630.304112 503.238286 
L 630.862286 505.553148 
L 631.420459 505.901303 
L 631.978633 504.501525 
L 632.536807 501.391402 
L 633.09498 496.670892 
L 634.211328 485.454409 
L 634.769501 481.496324 
L 635.327675 479.406302 
L 635.885849 478.331773 
L 636.444022 476.851739 
L 637.002196 473.913287 
L 638.676717 461.425853 
L 639.234891 459.993768 
L 639.793064 460.222193 
L 640.351238 460.6219 
L 640.909412 459.690148 
L 641.467585 457.017376 
L 642.583933 449.112552 
L 643.70028 441.009079 
L 644.258454 438.036598 
L 644.816627 437.08294 
L 645.374801 438.997653 
L 645.932975 444.095546 
L 646.491148 452.1759 
L 647.607496 472.300868 
L 648.165669 479.610417 
L 648.723843 482.012223 
L 649.282017 478.591616 
L 649.84019 469.995398 
L 650.956538 448.240559 
L 651.514711 442.697283 
L 652.072885 444.197048 
L 652.631059 452.206271 
L 653.189232 463.197943 
L 653.747406 471.693103 
L 654.30558 472.619373 
L 654.863754 463.883632 
L 657.096448 401.277446 
L 657.654622 397.82793 
L 658.212796 399.297525 
L 658.770969 402.069728 
L 659.329143 402.807957 
L 659.887317 400.431866 
L 660.44549 396.552127 
L 661.003664 393.959557 
L 661.561838 394.937991 
L 662.120011 400.684731 
L 662.678185 411.276536 
L 664.352706 454.231903 
L 664.91088 463.469881 
L 665.469053 467.37095 
L 666.027227 466.800895 
L 666.585401 464.516423 
L 667.143574 463.8442 
L 667.701748 467.006392 
L 669.376269 488.247279 
L 669.934443 488.703491 
L 670.492616 481.173448 
L 671.05079 464.704335 
L 671.608964 440.191452 
L 673.841658 321.174693 
L 674.399832 300.950908 
L 674.958006 288.218139 
L 675.516179 282.87054 
L 676.074353 283.680512 
L 676.632527 289.12963 
L 677.1907 298.594272 
L 677.748874 313.088515 
L 678.307048 334.409474 
L 679.423395 395.064644 
L 680.539742 451.631538 
L 681.097916 468.613739 
L 681.65609 477.13378 
L 682.214263 478.934909 
L 682.772437 476.590165 
L 683.330611 472.750269 
L 683.888784 469.697817 
L 684.446958 468.944121 
L 685.005132 470.612592 
L 685.563305 473.146067 
L 686.121479 474.011166 
L 686.679653 470.895809 
L 687.237826 462.544551 
L 687.796 449.14085 
L 688.912347 415.865126 
L 689.470521 402.810295 
L 690.028695 395.796019 
L 690.586868 395.165964 
L 691.145042 399.227618 
L 692.261389 410.59378 
L 692.819563 413.396062 
L 693.377737 412.147809 
L 693.93591 405.375255 
L 694.494084 391.925349 
L 695.052258 371.936365 
L 696.726779 303.278527 
L 697.284952 290.142279 
L 697.843126 285.376147 
L 698.4013 289.447141 
L 698.959473 301.824483 
L 700.633994 358.313406 
L 701.192168 367.315917 
L 701.750342 364.998339 
L 702.308515 350.815081 
L 702.866689 326.772907 
L 705.099384 209.99008 
L 705.657557 191.542011 
L 706.215731 182.013123 
L 706.773905 183.157828 
L 707.332078 196.052966 
L 707.890252 220.808964 
L 710.122947 358.303456 
L 710.68112 373.775365 
L 711.239294 378.19692 
L 711.797468 375.551044 
L 712.355641 371.314862 
L 712.913815 370.72059 
L 713.471989 377.030867 
L 714.030162 390.388613 
L 715.704683 441.949957 
L 716.262857 452.274099 
L 716.821031 457.376102 
L 717.379204 458.826536 
L 717.937378 459.120689 
L 718.495552 460.761643 
L 719.053725 465.202727 
L 720.728246 485.566236 
L 721.28642 489.446027 
L 721.844594 491.36305 
L 722.402768 492.203397 
L 724.077289 493.848616 
L 725.193636 495.94994 
L 725.75181 496.355169 
L 726.309983 494.981123 
L 726.868157 491.251152 
L 728.542678 474.543795 
L 729.100852 471.982369 
L 729.659025 472.386146 
L 730.217199 475.578318 
L 732.449894 495.233653 
L 733.566241 503.00705 
L 734.124415 506.159477 
L 734.682588 508.342196 
L 735.240762 508.835043 
L 735.798936 506.301064 
L 736.357109 498.817488 
L 736.915283 484.492184 
L 737.473457 462.675413 
L 739.147978 378.320501 
L 739.706151 358.004695 
L 740.264325 345.936186 
L 740.822499 340.976247 
L 741.380672 340.371288 
L 741.938846 341.4896 
L 742.49702 342.918259 
L 743.055193 344.70012 
L 743.613367 348.257426 
L 744.171541 355.787131 
L 744.729714 368.876445 
L 745.846062 409.429795 
L 746.962409 455.044758 
L 747.520583 474.317618 
L 748.078756 489.103364 
L 748.63693 498.844674 
L 749.195104 503.952825 
L 749.753277 505.504615 
L 750.311451 504.797828 
L 751.427798 501.136301 
L 751.985972 499.898329 
L 752.544146 499.75809 
L 753.102319 500.613373 
L 754.218667 502.911841 
L 754.77684 503.384776 
L 755.335014 503.171297 
L 755.893188 502.305007 
L 757.009535 499.7648 
L 757.567709 499.050313 
L 758.684056 498.632681 
L 759.24223 497.48716 
L 759.800403 494.779382 
L 760.358577 490.045669 
L 760.916751 483.011517 
L 763.149445 447.705466 
L 763.707619 447.189185 
L 764.265793 452.645228 
L 765.38214 474.49588 
L 765.940314 485.736624 
L 766.498487 494.35056 
L 767.056661 499.551247 
L 767.614835 501.677764 
L 768.173008 501.603917 
L 768.731182 500.116061 
L 769.847529 494.948169 
L 770.963877 488.660234 
L 771.52205 484.532356 
L 772.080224 478.362165 
L 772.638398 468.993356 
L 773.754745 441.650862 
L 774.312919 427.339 
L 774.871092 415.927909 
L 775.429266 409.726524 
L 775.98744 410.602184 
L 776.545613 419.356443 
L 777.103787 434.880487 
L 778.220134 472.61293 
L 778.778308 487.046538 
L 779.336482 495.819562 
L 779.894655 499.575852 
L 780.452829 500.136068 
L 781.011003 499.493438 
L 781.569176 499.194025 
L 782.685524 500.560575 
L 783.243697 499.634912 
L 783.801871 494.833958 
L 784.360045 484.453676 
L 784.918218 468.252623 
L 787.150913 387.546253 
L 787.709087 376.694387 
L 788.267261 373.514048 
L 788.825434 378.562194 
L 789.383608 391.280688 
L 790.499955 430.567035 
L 791.616303 467.335209 
L 792.174476 480.053299 
L 792.73265 489.140734 
L 793.290824 494.931251 
L 793.848997 497.435223 
L 794.407171 497.11285 
L 795.523518 493.378772 
L 796.639866 490.627461 
L 797.198039 487.588887 
L 797.756213 481.210357 
L 798.314387 470.486474 
L 798.87256 455.236456 
L 799.988908 413.823398 
L 801.105255 372.832237 
L 801.663429 361.175154 
L 802.221602 359.204032 
L 802.779776 367.208795 
L 803.33795 383.040103 
L 805.012471 441.425075 
L 805.570644 456.083172 
L 806.128818 467.647455 
L 806.686992 476.500755 
L 807.245165 482.748558 
L 807.803339 486.432047 
L 808.361513 487.906343 
L 808.919686 488.184959 
L 809.47786 488.733033 
L 810.036034 490.630699 
L 810.594207 494.015992 
L 812.268728 505.999149 
L 812.826902 508.350588 
L 813.385076 508.783165 
L 813.943249 505.958269 
L 814.501423 497.960562 
L 815.059597 482.808182 
L 815.61777 459.406996 
L 816.734118 393.592086 
L 817.850465 331.113569 
L 818.408639 312.401762 
L 818.966812 304.585944 
L 819.524986 306.888306 
L 820.08316 317.216508 
L 821.199507 351.593138 
L 822.874028 409.370125 
L 823.990375 439.189618 
L 825.106723 459.58168 
L 826.22307 474.712808 
L 826.781244 480.3945 
L 827.339417 484.830925 
L 827.897591 487.790632 
L 828.455765 488.995921 
L 829.013938 488.839887 
L 830.130286 487.818016 
L 830.688459 486.29881 
L 831.246633 481.765348 
L 831.804807 472.385046 
L 832.36298 457.006234 
L 832.921154 435.196587 
L 834.037501 376.455361 
L 835.153849 316.881971 
L 835.712022 294.405676 
L 836.270196 279.609499 
L 836.82837 273.742362 
L 837.386543 276.547167 
L 837.944717 285.945354 
L 839.061064 313.334096 
L 840.177412 343.657275 
L 841.293759 382.172453 
L 842.96828 448.148411 
L 843.526454 464.242614 
L 844.084627 474.838697 
L 844.642801 480.540131 
L 845.200975 483.314986 
L 845.759148 485.392372 
L 846.875496 491.192341 
L 847.433669 493.942647 
L 847.991843 495.777529 
L 848.550017 496.724232 
L 849.10819 496.976802 
L 849.666364 496.452621 
L 850.224538 494.695506 
L 850.782711 491.353803 
L 851.899059 481.063359 
L 852.457232 475.703272 
L 853.015406 471.718565 
L 853.57358 469.854933 
L 854.131754 469.770928 
L 854.689927 470.265036 
L 855.248101 470.195366 
L 855.806275 469.237708 
L 856.364448 467.657996 
L 856.922622 465.469485 
L 857.480796 462.280366 
L 858.597143 452.733913 
L 859.155317 447.806334 
L 859.71349 444.416125 
L 860.271664 443.568756 
L 860.829838 445.298058 
L 861.946185 451.326738 
L 862.504359 452.64947 
L 863.062532 452.151194 
L 864.17888 448.888331 
L 864.737053 448.186659 
L 865.295227 448.718393 
L 866.411574 451.366029 
L 866.969748 451.232397 
L 867.527922 448.646158 
L 868.086095 442.861416 
L 868.644269 433.247987 
L 869.202443 419.311857 
L 869.760616 400.99176 
L 870.876964 353.462707 
L 873.109658 244.325891 
L 873.667832 225.021287 
L 874.226006 212.548923 
L 874.784179 207.166478 
L 875.342353 208.100716 
L 875.900527 213.905763 
L 876.4587 223.273387 
L 877.016874 236.104358 
L 877.575048 253.617228 
L 878.133221 276.808283 
L 880.92409 415.456701 
L 881.482263 432.097723 
L 882.040437 443.658943 
L 882.598611 451.636977 
L 883.714958 462.766084 
L 884.831305 471.961401 
L 885.389479 475.017099 
L 887.064 480.927488 
L 888.180347 487.786857 
L 888.738521 491.492874 
L 889.296695 494.352664 
L 889.854868 495.668611 
L 890.413042 495.294315 
L 892.087563 490.992031 
L 892.645737 490.91128 
L 893.762084 492.333817 
L 894.320258 492.276093 
L 894.878431 491.121514 
L 895.436605 489.029298 
L 896.552952 484.035378 
L 897.111126 482.253797 
L 897.6693 481.463197 
L 898.227473 481.572426 
L 898.785647 482.272754 
L 899.343821 483.460939 
L 899.901994 485.174827 
L 900.460168 487.464308 
L 902.134689 496.258081 
L 902.692863 497.928322 
L 903.80921 499.479214 
L 904.367384 500.739086 
L 906.041905 505.736268 
L 906.600078 506.358623 
L 907.158252 505.448974 
L 907.716426 502.022374 
L 908.274599 495.060276 
L 908.832773 484.189318 
L 909.94912 456.827358 
L 910.507294 446.235432 
L 911.065468 440.49692 
L 911.623641 438.87974 
L 912.181815 438.843986 
L 912.739989 437.804488 
L 913.298162 434.556973 
L 914.972683 420.049901 
L 915.530857 418.793229 
L 916.089031 421.285525 
L 916.647204 427.351104 
L 918.321725 450.541527 
L 918.879899 454.862137 
L 919.438073 457.426606 
L 920.55442 461.632759 
L 921.112594 464.881628 
L 921.670768 469.405643 
L 922.787115 482.406298 
L 923.903462 496.235563 
L 924.461636 500.813226 
L 925.01981 503.413488 
L 925.577983 504.531558 
L 926.136157 504.800079 
L 926.694331 504.68781 
L 928.368852 504.088451 
L 930.043373 503.886942 
L 931.717894 503.803716 
L 932.276067 503.9121 
L 932.834241 504.21776 
L 933.392415 504.809551 
L 935.066936 507.556259 
L 935.625109 507.108578 
L 936.183283 503.993309 
L 936.741457 496.451618 
L 937.29963 483.084798 
L 938.415978 441.29234 
L 939.532325 399.489253 
L 940.090499 384.779414 
L 940.648672 374.290424 
L 941.206846 367.070371 
L 941.76502 362.424357 
L 942.323193 360.353891 
L 942.881367 361.623754 
L 943.439541 367.424869 
L 943.997714 378.689199 
L 944.555888 395.494411 
L 945.672235 440.744853 
L 946.788583 483.371092 
L 947.346756 496.752496 
L 947.90493 503.570418 
L 948.463104 504.069191 
L 949.021277 498.539045 
L 949.579451 487.423886 
L 951.253972 441.313005 
L 951.812146 433.556349 
L 952.370319 433.905772 
L 952.928493 441.674711 
L 954.04484 469.348776 
L 954.603014 483.382383 
L 955.161188 494.3681 
L 955.719361 501.432314 
L 956.277535 505.048909 
L 956.835709 506.371942 
L 957.393882 506.572735 
L 957.952056 506.503241 
L 958.51023 506.585513 
L 959.068403 506.786737 
L 959.626577 506.607618 
L 960.184751 505.090919 
L 960.742924 500.937463 
L 961.301098 492.820941 
L 961.859272 479.788689 
L 962.417445 461.527687 
L 963.533793 412.97152 
L 964.65014 365.958972 
L 965.208314 350.308906 
L 965.766487 342.1566 
L 966.324661 342.433 
L 966.882835 351.82363 
L 967.441008 370.416003 
L 968.557356 427.011982 
L 969.673703 480.020053 
L 970.231877 496.101118 
L 970.79005 504.868991 
L 971.348224 508.240704 
L 971.906398 508.420474 
L 972.464571 507.146084 
L 973.580919 504.057996 
L 974.139092 503.080712 
L 974.697266 502.719314 
L 975.25544 503.011522 
L 975.813613 503.85071 
L 976.929961 506.215213 
L 977.488134 506.931848 
L 978.046308 506.320529 
L 978.604482 503.130989 
L 979.162655 495.910251 
L 979.720829 483.554558 
L 980.279003 466.064298 
L 983.069871 356.715463 
L 985.302566 272.499276 
L 985.860739 261.637805 
L 986.418913 260.570783 
L 986.977087 269.527079 
L 987.535261 286.800107 
L 988.093434 310.319029 
L 989.209782 369.965422 
L 990.326129 433.469272 
L 990.884303 459.667604 
L 991.442476 479.209287 
L 992.00065 491.814291 
L 992.558824 498.548547 
L 993.116997 501.095228 
L 993.675171 501.144185 
L 994.233345 499.948584 
L 994.791518 498.108424 
L 997.024213 489.063739 
L 997.582387 488.843244 
L 998.14056 490.012144 
L 999.256908 494.075826 
L 999.815081 494.329172 
L 1000.373255 491.705673 
L 1000.931429 485.920816 
L 1001.489602 477.477072 
L 1003.722297 436.194177 
L 1004.280471 429.316303 
L 1004.838644 425.880503 
L 1005.396818 426.771987 
L 1005.954992 431.949923 
L 1007.071339 446.005744 
L 1007.629513 447.855746 
L 1008.187686 443.370095 
L 1008.74586 433.419718 
L 1009.862207 409.098644 
L 1010.420381 401.323115 
L 1010.978555 399.630827 
L 1011.536728 404.783327 
L 1012.094902 415.798548 
L 1013.211249 442.509066 
L 1013.769423 449.52197 
L 1014.327597 447.768007 
L 1014.88577 436.480374 
L 1015.443944 417.333951 
L 1017.118465 349.609519 
L 1017.676639 335.573914 
L 1018.234812 329.126308 
L 1018.792986 330.349077 
L 1019.35116 338.68375 
L 1019.909333 353.256015 
L 1021.025681 394.458454 
L 1022.142028 433.300606 
L 1022.700202 446.202555 
L 1023.258375 454.578822 
L 1023.816549 459.436491 
L 1024.374723 461.688264 
L 1024.932896 461.859638 
L 1025.49107 460.259855 
L 1027.165591 451.6873 
L 1027.723765 451.413874 
L 1028.281938 454.109864 
L 1028.840112 459.416827 
L 1029.956459 471.776954 
L 1030.514633 476.313437 
L 1031.072807 479.43433 
L 1032.189154 484.279044 
L 1032.747328 487.72658 
L 1034.421849 501.108057 
L 1034.980022 504.18745 
L 1035.538196 506.213568 
L 1036.09637 507.263283 
L 1036.654543 507.109172 
L 1037.212717 505.054445 
L 1037.770891 500.018177 
L 1038.329064 490.920425 
L 1038.887238 477.271291 
L 1040.003585 439.805028 
L 1041.119933 403.960933 
L 1041.678106 393.731095 
L 1042.23628 391.730504 
L 1042.794454 398.595845 
L 1043.352627 412.807916 
L 1044.468975 447.448014 
L 1045.027148 458.546928 
L 1045.585322 461.232524 
L 1046.143496 454.874991 
L 1046.701669 440.732129 
L 1048.934364 366.964689 
L 1049.492538 359.946335 
L 1050.050711 361.5564 
L 1050.608885 372.068869 
L 1051.167059 390.544774 
L 1053.399754 484.616394 
L 1053.957927 497.306618 
L 1054.516101 503.650184 
L 1055.074275 505.169088 
L 1055.632448 503.82001 
L 1056.190622 501.502848 
L 1056.748796 499.670847 
L 1057.306969 498.865941 
L 1057.865143 498.60718 
L 1058.423317 497.92444 
L 1058.98149 496.155374 
L 1060.656011 488.488437 
L 1061.214185 487.719419 
L 1061.772359 488.141098 
L 1062.330532 488.943449 
L 1062.888706 488.60547 
L 1063.44688 484.902425 
L 1064.005053 475.368381 
L 1064.563227 458.404305 
L 1065.679574 406.305928 
L 1066.795922 352.060063 
L 1067.354095 330.514643 
L 1067.912269 313.264602 
L 1068.470443 299.859366 
L 1069.028616 289.919199 
L 1069.58679 283.5123 
L 1070.144964 281.213929 
L 1070.703137 283.749646 
L 1071.261311 291.365249 
L 1071.819485 303.463472 
L 1072.935832 337.353786 
L 1074.052179 383.007262 
L 1075.7267 459.216749 
L 1076.284874 476.526476 
L 1076.843048 486.202539 
L 1077.401221 487.933553 
L 1077.959395 482.905576 
L 1079.633916 454.520516 
L 1080.19209 449.418402 
L 1080.750263 448.306174 
L 1081.308437 450.123987 
L 1081.866611 452.66394 
L 1082.424784 453.483824 
L 1082.982958 451.074355 
L 1083.541132 445.462688 
L 1084.657479 430.516887 
L 1085.215653 425.169506 
L 1085.773826 423.67573 
L 1086.332 427.151227 
L 1086.890174 435.541281 
L 1089.122868 480.923955 
L 1089.681042 486.620736 
L 1090.239216 489.500289 
L 1090.797389 490.198794 
L 1091.355563 489.47717 
L 1092.47191 486.907148 
L 1093.030084 486.005343 
L 1093.588258 485.55336 
L 1094.146431 485.527547 
L 1095.262779 485.972345 
L 1095.820952 485.90706 
L 1096.379126 485.420119 
L 1096.9373 484.213753 
L 1097.495473 481.782726 
L 1098.053647 477.927784 
L 1099.169994 469.155501 
L 1099.728168 466.948586 
L 1100.286342 467.262375 
L 1100.844515 469.695676 
L 1102.519036 479.896822 
L 1103.07721 481.651926 
L 1103.635384 482.217941 
L 1104.193557 481.908067 
L 1104.751731 481.082924 
L 1105.868078 478.677163 
L 1106.984426 475.369673 
L 1108.100773 471.478181 
L 1109.775294 464.598809 
L 1110.891641 459.116846 
L 1111.449815 455.396669 
L 1112.007989 450.760256 
L 1112.566162 444.88555 
L 1113.124336 437.185992 
L 1114.240683 415.849247 
L 1114.798857 404.608478 
L 1115.357031 396.053551 
L 1115.915204 392.408635 
L 1116.473378 394.566776 
L 1117.031552 401.440163 
L 1117.589725 410.179163 
L 1118.147899 417.062096 
L 1118.706073 418.869182 
L 1119.264246 414.398432 
L 1120.380594 395.223571 
L 1120.938768 389.163391 
L 1121.496941 390.974594 
L 1122.055115 402.127148 
L 1123.171462 442.996023 
L 1123.729636 463.322166 
L 1124.28781 477.404661 
L 1124.845983 482.379977 
L 1125.404157 477.622214 
L 1125.962331 464.998688 
L 1127.078678 432.780002 
L 1127.636852 422.381539 
L 1128.195025 419.614575 
L 1128.753199 424.409717 
L 1129.311373 434.779839 
L 1131.544067 485.228058 
L 1132.102241 493.770474 
L 1132.660415 500.107561 
L 1133.218588 504.402928 
L 1133.776762 506.621838 
L 1134.334936 506.428698 
L 1134.893109 503.165178 
L 1135.451283 496.015363 
L 1136.009457 484.649449 
L 1137.125804 455.746689 
L 1137.683978 445.096248 
L 1138.242151 441.104907 
L 1138.800325 444.355074 
L 1139.358499 453.297025 
L 1141.03302 488.508851 
L 1141.591193 496.107903 
L 1142.149367 500.185305 
L 1142.707541 501.031563 
L 1143.265714 499.10306 
L 1143.823888 494.831706 
L 1145.498409 477.246973 
L 1146.056583 474.309288 
L 1146.614756 474.611776 
L 1147.17293 478.103212 
L 1149.405625 500.215546 
L 1149.963798 502.782712 
L 1150.521972 503.864678 
L 1151.080146 504.00075 
L 1151.638319 503.837516 
L 1152.196493 503.953357 
L 1153.31284 505.239319 
L 1153.871014 505.133114 
L 1154.429188 503.103593 
L 1154.987361 497.880246 
L 1155.545535 488.123294 
L 1156.103709 472.6573 
L 1156.661882 451.100428 
L 1158.894577 350.36066 
L 1159.452751 336.928139 
L 1160.010924 329.250992 
L 1160.569098 325.123428 
L 1161.685445 319.266985 
L 1162.243619 316.013645 
L 1162.801793 313.739805 
L 1163.359966 314.177931 
L 1163.91814 318.809763 
L 1164.476314 328.627786 
L 1165.034487 344.075383 
L 1166.150835 389.34492 
L 1167.825356 462.757739 
L 1168.383529 480.220407 
L 1168.941703 492.449953 
L 1169.499877 499.502607 
L 1170.05805 502.033149 
L 1170.616224 501.189644 
L 1171.732571 495.050593 
L 1172.290745 492.222991 
L 1172.848919 490.471916 
L 1173.407092 489.846381 
L 1173.965266 490.032388 
L 1174.52344 490.540164 
L 1175.081613 490.890819 
L 1175.639787 490.765449 
L 1176.197961 490.081378 
L 1177.872482 486.944405 
L 1178.430655 486.195191 
L 1178.988829 485.782315 
L 1179.547003 486.06082 
L 1180.105176 487.383712 
L 1180.66335 489.750224 
L 1182.337871 498.161376 
L 1182.896045 499.733397 
L 1183.454218 500.216258 
L 1184.012392 499.693551 
L 1184.570566 498.489978 
L 1185.686913 495.08073 
L 1186.803261 491.702501 
L 1187.361434 490.947563 
L 1187.919608 491.262534 
L 1188.477782 492.544494 
L 1189.594129 495.768551 
L 1190.152303 496.739428 
L 1190.710476 497.167518 
L 1192.384997 497.36393 
L 1192.943171 497.34437 
L 1194.059518 497.127655 
L 1194.617692 497.633109 
L 1195.175866 498.908052 
L 1196.850387 504.519227 
L 1197.40856 505.876544 
L 1197.966734 506.517031 
L 1198.524908 505.883076 
L 1199.083081 503.080819 
L 1199.641255 497.056645 
L 1200.199429 487.174668 
L 1201.87395 447.200175 
L 1202.432123 438.84462 
L 1202.990297 436.083166 
L 1203.548471 439.073676 
L 1204.106644 446.989195 
L 1206.339339 491.70571 
L 1206.897513 498.275066 
L 1207.455686 502.114647 
L 1208.01386 504.012132 
L 1208.572034 504.90724 
L 1210.246555 506.576913 
L 1210.804728 506.792542 
L 1211.362902 505.900622 
L 1211.921076 502.68977 
L 1212.479249 495.622664 
L 1213.037423 483.370909 
L 1213.595597 465.695742 
L 1215.828291 380.603705 
L 1216.386465 368.701773 
L 1216.944639 362.8709 
L 1217.502812 361.877604 
L 1218.060986 364.059584 
L 1218.61916 368.136115 
L 1219.177333 373.498337 
L 1219.735507 380.445388 
L 1220.293681 390.186186 
L 1220.851854 403.967915 
L 1221.968202 442.38918 
L 1223.084549 479.765452 
L 1223.642723 491.92692 
L 1224.200896 499.1964 
L 1224.75907 502.909908 
L 1225.317244 504.558578 
L 1225.875417 505.069361 
L 1226.433591 504.850996 
L 1226.991765 504.070304 
L 1227.549938 502.767921 
L 1228.108112 500.915324 
L 1229.224459 496.145677 
L 1229.782633 494.381101 
L 1230.340807 493.88547 
L 1230.89898 494.633722 
L 1232.015328 497.561285 
L 1232.573501 498.415171 
L 1233.131675 498.25886 
L 1233.689849 497.020645 
L 1234.248022 494.86957 
L 1235.922543 486.258886 
L 1237.038891 479.779313 
L 1237.597064 477.241708 
L 1238.155238 476.101046 
L 1238.713412 475.987405 
L 1239.271585 475.206615 
L 1239.829759 471.60373 
L 1240.387933 463.695074 
L 1240.946106 451.203152 
L 1242.620627 403.09656 
L 1243.178801 392.782766 
L 1243.736975 389.332944 
L 1244.295148 393.773426 
L 1244.853322 405.857328 
L 1245.969669 445.53022 
L 1247.086017 484.667797 
L 1247.64419 497.526479 
L 1248.202364 505.381075 
L 1248.760538 509.194898 
L 1249.318711 509.949576 
L 1249.876885 507.980301 
L 1250.435059 502.813181 
L 1250.993232 493.554331 
L 1251.551406 479.757238 
L 1253.225927 427.147992 
L 1253.784101 416.238013 
L 1254.342275 413.522669 
L 1254.900448 419.784322 
L 1255.458622 433.525808 
L 1257.133143 484.702272 
L 1257.691317 495.575738 
L 1258.24949 502.167777 
L 1258.807664 505.358981 
L 1259.365838 506.308271 
L 1259.924011 506.074976 
L 1261.040359 504.758315 
L 1261.598532 504.281376 
L 1262.156706 504.01344 
L 1262.71488 503.915099 
L 1263.831227 504.005288 
L 1264.947574 504.158916 
L 1265.505748 504.128244 
L 1266.063922 503.923941 
L 1266.622095 503.457246 
L 1267.180269 502.675951 
L 1268.296616 500.659139 
L 1268.85479 500.061411 
L 1269.971137 499.678308 
L 1270.529311 498.290303 
L 1271.087485 494.364788 
L 1271.645658 486.518487 
L 1272.203832 474.120691 
L 1274.436527 411.070524 
L 1277.785569 346.354962 
L 1278.343742 339.851637 
L 1278.901916 339.659197 
L 1279.46009 346.717861 
L 1280.018263 361.24471 
L 1280.576437 382.643216 
L 1282.250958 462.033893 
L 1282.809132 482.293944 
L 1283.367305 496.018294 
L 1283.925479 503.645985 
L 1284.483653 506.773055 
L 1285.041826 507.237786 
L 1285.6 506.521258 
L 1286.716347 504.731135 
L 1287.274521 504.219743 
L 1287.832695 503.981732 
L 1288.949042 503.95882 
L 1290.065389 503.892291 
L 1290.623563 503.632848 
L 1291.181737 503.157389 
L 1292.298084 501.870531 
L 1292.856258 501.511572 
L 1293.414431 501.58553 
L 1294.530779 502.486752 
L 1295.647126 503.389504 
L 1296.2053 503.676656 
L 1296.763473 503.723581 
L 1297.321647 503.465517 
L 1297.879821 502.913344 
L 1298.996168 501.585873 
L 1299.554342 501.328318 
L 1300.112515 501.491805 
L 1301.787036 502.917152 
L 1302.34521 502.551793 
L 1302.903384 501.240072 
L 1304.577905 494.760213 
L 1305.136078 494.293634 
L 1305.694252 495.373264 
L 1306.252426 497.624274 
L 1307.368773 502.884633 
L 1307.926947 504.104257 
L 1308.48512 502.937948 
L 1309.043294 498.235495 
L 1309.601468 489.062389 
L 1310.159641 475.066421 
L 1311.275989 435.144399 
L 1312.95051 370.047699 
L 1314.066857 338.335819 
L 1314.625031 328.452018 
L 1315.183204 323.757297 
L 1315.741378 324.870714 
L 1316.299552 332.028953 
L 1316.857725 344.914563 
L 1317.974073 383.198831 
L 1319.648594 447.488157 
L 1320.764941 479.704742 
L 1321.323115 490.620016 
L 1321.881289 498.150246 
L 1322.439462 502.770803 
L 1322.997636 505.050974 
L 1323.55581 505.506019 
L 1324.113983 504.466474 
L 1324.672157 501.947334 
L 1325.230331 497.755742 
L 1326.346678 485.108632 
L 1326.904852 478.710425 
L 1327.463025 474.31271 
L 1328.021199 473.027794 
L 1328.579373 474.968271 
L 1330.253894 487.946537 
L 1331.370241 493.253607 
L 1333.044762 501.16965 
L 1333.602936 502.989941 
L 1334.161109 504.004877 
L 1334.719283 504.364422 
L 1335.277457 504.275477 
L 1336.393804 503.455726 
L 1336.951978 503.062778 
L 1338.068325 502.808103 
L 1338.626499 502.048486 
L 1339.184672 499.532333 
L 1339.742846 494.207921 
L 1340.30102 485.28097 
L 1341.417367 457.469027 
L 1341.975541 442.421218 
L 1342.533714 430.48944 
L 1343.091888 423.973172 
L 1343.650062 423.972708 
L 1344.208235 430.301448 
L 1344.766409 441.536183 
L 1345.882756 468.488526 
L 1346.44093 478.876123 
L 1346.999104 485.26202 
L 1347.557277 487.916235 
L 1348.115451 488.086032 
L 1348.673625 487.41902 
L 1349.231798 487.359284 
L 1349.789972 488.651423 
L 1350.906319 493.494613 
L 1351.464493 494.611096 
L 1352.022667 493.41042 
L 1352.58084 489.252184 
L 1353.139014 481.470721 
L 1353.697188 469.375621 
L 1354.813535 434.315916 
L 1355.929882 401.038997 
L 1356.488056 390.25105 
L 1357.04623 383.425379 
L 1357.604403 380.028934 
L 1358.162577 380.153495 
L 1358.720751 384.450537 
L 1359.278924 393.423814 
L 1359.837098 406.853575 
L 1362.069793 473.360141 
L 1362.627966 483.758516 
L 1363.18614 490.060406 
L 1363.744314 493.021022 
L 1364.302487 493.558744 
L 1364.860661 491.945593 
L 1365.418835 487.56788 
L 1365.977008 479.576081 
L 1366.535182 467.835358 
L 1368.767877 409.720351 
L 1369.32605 399.377855 
L 1369.884224 392.86284 
L 1370.442398 391.61624 
L 1371.000571 396.802258 
L 1371.558745 408.568683 
L 1372.675092 444.838976 
L 1373.79144 478.389557 
L 1374.349613 489.159071 
L 1374.907787 496.139841 
L 1375.465961 500.526745 
L 1376.024134 503.315348 
L 1376.582308 504.986033 
L 1377.140482 505.60601 
L 1377.698655 504.921255 
L 1378.256829 502.286643 
L 1378.815003 496.740474 
L 1379.373176 487.409299 
L 1379.93135 473.966737 
L 1381.047697 437.622549 
L 1382.164045 398.962412 
L 1382.722218 383.362754 
L 1383.280392 373.050762 
L 1383.838566 369.687326 
L 1384.396739 374.075724 
L 1384.954913 386.166303 
L 1385.513087 404.828585 
L 1387.187608 471.802288 
L 1387.745782 487.917961 
L 1388.303955 498.461282 
L 1388.862129 503.986684 
L 1389.420303 505.951838 
L 1389.978476 505.996115 
L 1391.652997 504.257677 
L 1392.211171 503.990617 
L 1393.327518 503.825889 
L 1394.443866 503.745912 
L 1395.560213 503.47546 
L 1397.234734 502.911498 
L 1397.792908 502.891665 
L 1398.351081 503.074079 
L 1400.025602 503.881172 
L 1401.14195 504.048854 
L 1405.607339 503.99692 
L 1411.189076 503.933347 
L 1412.863597 503.887616 
L 1413.42177 504.01331 
L 1413.979944 504.309094 
L 1414.538118 504.823582 
L 1415.654465 506.245612 
L 1416.212639 506.50743 
L 1416.770812 505.50235 
L 1417.328986 502.084729 
L 1417.88716 495.019681 
L 1418.445333 483.420009 
L 1419.003507 467.156506 
L 1420.119854 424.770582 
L 1421.236202 383.228935 
L 1421.794375 368.231278 
L 1422.352549 358.76197 
L 1422.910723 355.479694 
L 1423.468896 358.958607 
L 1424.02707 369.31558 
L 1424.585244 385.610303 
L 1426.817938 466.163664 
L 1427.376112 480.865205 
L 1427.934286 491.789777 
L 1428.492459 498.842256 
L 1429.050633 502.299073 
L 1429.608807 502.84498 
L 1430.16698 501.512265 
L 1430.725154 499.549972 
L 1431.283328 498.069688 
L 1431.841501 497.598741 
L 1432.399675 498.030753 
L 1434.074196 500.690639 
L 1434.63237 501.09462 
L 1435.190543 501.28387 
L 1435.748717 501.617402 
L 1436.306891 502.426182 
L 1436.865064 503.545402 
L 1437.423238 504.197325 
L 1437.981412 503.258572 
L 1438.539585 499.463328 
L 1439.097759 491.625815 
L 1439.655933 479.193499 
L 1440.77228 443.863029 
L 1442.446801 387.638537 
L 1443.004975 373.532921 
L 1443.563148 364.113784 
L 1444.121322 360.709328 
L 1444.679496 364.286287 
L 1445.237669 375.011905 
L 1445.795843 391.878868 
L 1448.028538 475.874156 
L 1448.586711 489.98408 
L 1449.144885 498.949128 
L 1449.703059 503.55995 
L 1450.261232 505.328392 
L 1450.819406 505.618095 
L 1451.37758 505.290427 
L 1452.493927 504.393394 
L 1453.052101 504.119046 
L 1454.168448 503.925289 
L 1458.075664 503.870309 
L 1458.633838 504.073354 
L 1459.192011 504.520165 
L 1459.750185 505.266286 
L 1460.866532 507.161918 
L 1461.424706 507.307363 
L 1461.98288 505.49294 
L 1462.541053 500.094573 
L 1463.099227 489.509318 
L 1463.657401 472.976556 
L 1464.773748 425.861299 
L 1465.890095 375.437671 
L 1466.448269 355.011956 
L 1467.006443 339.343779 
L 1467.564616 328.393375 
L 1468.12279 322.084383 
L 1468.680964 321.059156 
L 1469.239137 326.635177 
L 1469.797311 340.066522 
L 1470.355485 361.609261 
L 1472.588179 475.631899 
L 1473.146353 493.038763 
L 1473.704527 503.136973 
L 1474.2627 507.537786 
L 1474.820874 508.381798 
L 1475.379048 507.499313 
L 1476.495395 504.822292 
L 1477.053569 503.923011 
L 1477.611742 503.456882 
L 1478.169916 503.357758 
L 1479.286263 503.670312 
L 1480.402611 503.975019 
L 1482.077132 504.152369 
L 1483.193479 504.0442 
L 1483.751653 503.809457 
L 1484.309826 503.383366 
L 1485.984347 501.600873 
L 1486.542521 501.605474 
L 1487.100695 502.073333 
L 1487.658868 502.687277 
L 1488.217042 503.089171 
L 1488.775216 503.076629 
L 1489.333389 502.636707 
L 1490.449737 501.415169 
L 1491.00791 501.37433 
L 1491.566084 501.873629 
L 1492.682431 503.302301 
L 1493.240605 503.771365 
L 1493.798779 504.026665 
L 1494.915126 504.132753 
L 1501.055036 503.858452 
L 1501.61321 503.957754 
L 1502.171384 504.225302 
L 1502.729557 504.726179 
L 1504.404078 506.81357 
L 1504.962252 506.223756 
L 1505.520426 503.341494 
L 1506.078599 496.789735 
L 1506.636773 485.616643 
L 1507.75312 452.417865 
L 1508.311294 435.614894 
L 1508.869468 423.44448 
L 1509.427641 419.054994 
L 1509.985815 423.723923 
L 1510.543989 436.143042 
L 1511.660336 468.999382 
L 1512.21851 480.004518 
L 1512.776683 482.980845 
L 1513.334857 478.254492 
L 1514.451204 461.152992 
L 1515.009378 458.30814 
L 1515.567552 462.525973 
L 1516.125725 472.430593 
L 1517.242073 494.571057 
L 1517.800246 499.222747 
L 1518.35842 496.163547 
L 1518.916594 484.490299 
L 1519.474768 465.11733 
L 1521.149289 396.117313 
L 1521.707462 381.451454 
L 1522.265636 373.64053 
L 1522.82381 372.656826 
L 1523.381983 377.820394 
L 1523.940157 388.173931 
L 1524.498331 402.756247 
L 1526.731025 471.664181 
L 1527.289199 481.778883 
L 1527.847373 487.522476 
L 1528.405546 490.153532 
L 1528.96372 491.157745 
L 1529.521894 491.642638 
L 1530.080067 492.322229 
L 1530.638241 493.497114 
L 1531.754588 496.166773 
L 1532.870936 498.266144 
L 1533.429109 500.000835 
L 1533.987283 502.156653 
L 1534.545457 503.785847 
L 1535.10363 503.492866 
L 1535.661804 499.831595 
L 1536.219978 491.617443 
L 1536.778151 478.349483 
L 1537.894499 440.793488 
L 1539.010846 404.854778 
L 1539.56902 392.848375 
L 1540.127193 385.3269 
L 1540.685367 381.289507 
L 1541.243541 379.681107 
L 1541.801714 380.130174 
L 1542.359888 383.099124 
L 1542.918062 389.608147 
L 1543.476235 400.583614 
L 1544.592583 433.732144 
L 1545.70893 465.733217 
L 1546.267104 476.456293 
L 1546.825277 483.681837 
L 1547.383451 488.237719 
L 1547.941625 490.823295 
L 1548.499798 492.018755 
L 1550.174319 493.568615 
L 1550.732493 492.493205 
L 1551.290667 487.703719 
L 1551.84884 477.18189 
L 1552.407014 460.519108 
L 1554.639709 377.843732 
L 1555.197882 365.663267 
L 1555.756056 360.243263 
L 1556.31423 362.621576 
L 1556.872403 372.978959 
L 1557.430577 390.523812 
L 1559.663272 484.490917 
L 1560.221445 497.867448 
L 1560.779619 504.967063 
L 1561.337793 507.595049 
L 1561.895966 507.780457 
L 1562.45414 507.133689 
L 1563.012314 506.671797 
L 1563.570487 506.842854 
L 1564.686835 508.217799 
L 1565.245008 507.540705 
L 1565.803182 503.657977 
L 1566.361356 494.349186 
L 1566.919529 477.932706 
L 1568.035877 427.062802 
L 1569.152224 375.506205 
L 1569.710398 358.267192 
L 1570.268571 349.448064 
L 1570.826745 349.699595 
L 1571.384919 358.596303 
L 1571.943092 374.844098 
L 1573.05944 421.371258 
L 1574.175787 469.118616 
L 1574.733961 486.764865 
L 1575.292134 498.470874 
L 1575.850308 504.771848 
L 1576.408482 507.163582 
L 1576.966655 507.296369 
L 1579.19935 504.157753 
L 1579.757524 503.928133 
L 1580.873871 503.897153 
L 1581.990218 503.88752 
L 1582.548392 503.750594 
L 1583.664739 503.172301 
L 1584.781087 502.697904 
L 1586.455608 502.698836 
L 1587.013782 502.412076 
L 1588.130129 501.467257 
L 1588.688303 501.480885 
L 1589.246476 502.087722 
L 1590.362824 503.909119 
L 1590.920997 504.334841 
L 1591.479171 503.800026 
L 1592.037345 501.537589 
L 1592.595518 496.74983 
L 1593.153692 489.070607 
L 1595.386387 450.030981 
L 1595.94456 446.978235 
L 1596.502734 449.43678 
L 1597.060908 456.928201 
L 1598.735429 487.208986 
L 1599.293602 493.882863 
L 1599.851776 498.250332 
L 1600.40995 500.716525 
L 1600.968123 501.535962 
L 1601.526297 500.799306 
L 1602.084471 498.50895 
L 1602.642644 494.321298 
L 1603.200818 487.137858 
L 1603.758992 475.201153 
L 1604.317165 457.147205 
L 1605.433513 406.077317 
L 1607.108034 326.127759 
L 1608.224381 286.263135 
L 1608.782555 274.237798 
L 1609.340728 268.911912 
L 1609.898902 270.45512 
L 1610.457076 278.704284 
L 1611.015249 293.393841 
L 1611.573423 314.016999 
L 1612.68977 367.595917 
L 1613.806118 420.872796 
L 1614.922465 459.580158 
L 1615.480639 473.284434 
L 1616.038812 483.814558 
L 1616.596986 491.511499 
L 1617.15516 496.740107 
L 1617.713333 500.139661 
L 1618.271507 502.417555 
L 1618.829681 503.94646 
L 1619.387854 504.785125 
L 1619.946028 504.883125 
L 1620.504202 504.021402 
L 1621.062375 501.533961 
L 1621.620549 496.25243 
L 1622.178723 487.049799 
L 1622.736896 473.710168 
L 1623.853244 441.932113 
L 1624.411417 430.464545 
L 1624.969591 426.305491 
L 1625.527765 430.560045 
L 1626.085938 441.903519 
L 1627.760459 484.924796 
L 1628.318633 493.787321 
L 1628.876807 499.275026 
L 1629.43498 502.200967 
L 1629.993154 503.368861 
L 1630.551328 503.561358 
L 1631.667675 503.410929 
L 1632.225849 503.560007 
L 1632.784022 503.924032 
L 1633.342196 504.555719 
L 1633.90037 505.49758 
L 1635.016717 507.696259 
L 1635.574891 507.761043 
L 1636.133064 505.46928 
L 1636.691238 498.973627 
L 1637.249412 486.538316 
L 1637.807585 467.663088 
L 1640.04028 373.095711 
L 1640.598454 354.487616 
L 1641.156627 339.602264 
L 1641.714801 329.518097 
L 1642.272975 325.046874 
L 1642.831148 326.212903 
L 1643.389322 332.607859 
L 1643.947496 344.292558 
L 1644.505669 362.013307 
L 1645.063843 386.144158 
L 1646.738364 471.960837 
L 1647.296538 491.989835 
L 1647.854711 504.449887 
L 1648.412885 509.99845 
L 1648.971059 509.63526 
L 1649.529232 503.823448 
L 1650.087406 492.512761 
L 1650.64558 475.966234 
L 1652.320101 414.408786 
L 1652.878275 400.531342 
L 1653.436448 395.727432 
L 1653.994622 401.739456 
L 1654.552796 417.435549 
L 1655.669143 460.235488 
L 1656.227317 476.589793 
L 1656.78549 485.007521 
L 1657.343664 485.676802 
L 1658.460011 476.911375 
L 1659.018185 475.169307 
L 1659.576359 477.169546 
L 1660.692706 485.521759 
L 1661.25088 487.536113 
L 1661.809053 486.493107 
L 1662.367227 482.229634 
L 1662.925401 475.153333 
L 1664.041748 458.22619 
L 1664.599922 453.499477 
L 1665.158095 454.534197 
L 1665.716269 461.628015 
L 1666.832616 483.675072 
L 1667.39079 491.97821 
L 1667.948964 496.558794 
L 1668.507137 498.264153 
L 1669.065311 498.559012 
L 1669.623485 498.726424 
L 1670.181658 499.513658 
L 1670.739832 500.869123 
L 1671.298006 501.868322 
L 1671.856179 501.064457 
L 1672.414353 497.088924 
L 1672.972527 489.151158 
L 1673.5307 477.28641 
L 1675.205221 433.224696 
L 1675.763395 425.138455 
L 1676.321569 424.275629 
L 1676.879742 430.212126 
L 1677.437916 441.054448 
L 1679.112437 481.023192 
L 1679.670611 490.511827 
L 1680.228784 496.870423 
L 1680.786958 500.540757 
L 1681.345132 502.030058 
L 1681.903305 501.921701 
L 1682.461479 500.928298 
L 1683.019653 499.568487 
L 1683.577826 497.822566 
L 1684.136 495.055149 
L 1684.694174 490.010737 
L 1685.252347 480.942323 
L 1685.810521 466.4552 
L 1688.043216 387.424984 
L 1688.601389 375.024289 
L 1689.159563 366.634905 
L 1689.717737 361.610378 
L 1690.27591 359.573885 
L 1690.834084 360.029612 
L 1691.392258 362.195924 
L 1691.950431 365.534761 
L 1692.508605 370.322458 
L 1693.066779 377.773898 
L 1693.624952 389.474158 
L 1694.183126 406.113818 
L 1695.857647 467.53431 
L 1696.415821 483.254095 
L 1696.973994 494.150893 
L 1697.532168 500.277024 
L 1698.090342 502.591916 
L 1698.648515 502.650848 
L 1699.206689 502.033553 
L 1699.764863 501.753132 
L 1700.323036 502.042756 
L 1701.997557 503.711568 
L 1702.555731 503.975992 
L 1703.672078 504.114663 
L 1709.253815 504.000189 
L 1713.161031 503.960119 
L 1715.951899 503.751759 
L 1718.184594 503.965388 
L 1720.417289 503.868232 
L 1720.975462 503.978384 
L 1721.533636 504.268788 
L 1722.09181 504.802482 
L 1723.208157 506.413992 
L 1723.766331 506.871591 
L 1724.324504 506.10253 
L 1724.882678 502.864615 
L 1725.440852 495.762552 
L 1725.999025 483.849753 
L 1727.115373 448.163656 
L 1728.23172 412.435547 
L 1728.789894 400.595161 
L 1729.348067 394.513186 
L 1729.906241 394.501717 
L 1730.464415 400.087468 
L 1731.022588 410.011583 
L 1733.813457 472.441015 
L 1734.37163 481.480881 
L 1734.929804 488.573642 
L 1735.487978 494.073481 
L 1736.046151 498.339304 
L 1736.604325 501.446102 
L 1737.162499 503.396336 
L 1737.720672 504.364963 
L 1738.278846 504.665956 
L 1738.83702 504.607792 
L 1740.511541 504.052633 
L 1741.627888 503.921119 
L 1742.744235 504.048738 
L 1743.860583 504.504942 
L 1744.97693 504.99392 
L 1745.535104 504.780518 
L 1746.093277 503.676093 
L 1746.651451 501.020787 
L 1747.209625 496.193814 
L 1747.767798 488.84934 
L 1748.325972 478.893324 
L 1749.442319 451.835732 
L 1750.558667 422.010228 
L 1751.11684 410.161748 
L 1751.675014 402.081892 
L 1752.233188 398.310488 
L 1752.791361 399.027516 
L 1753.349535 404.333777 
L 1753.907709 414.252424 
L 1754.465882 428.435052 
L 1756.140403 480.431937 
L 1756.698577 492.865409 
L 1757.256751 500.453739 
L 1757.814924 503.797976 
L 1758.373098 504.242203 
L 1758.931272 503.170619 
L 1760.047619 500.35874 
L 1760.605793 499.879221 
L 1761.163966 500.331976 
L 1762.280314 502.428278 
L 1762.838487 503.053177 
L 1763.396661 503.056018 
L 1763.954835 502.467531 
L 1765.071182 500.329984 
L 1765.629356 498.467 
L 1766.187529 494.371815 
L 1766.745703 486.02897 
L 1767.303877 472.216274 
L 1769.536571 397.45511 
L 1770.094745 388.601769 
L 1770.652919 386.617223 
L 1771.211092 391.139785 
L 1771.769266 401.678396 
L 1772.32744 417.642395 
L 1774.001961 478.453041 
L 1774.560134 493.190176 
L 1775.118308 502.381605 
L 1775.676482 506.556869 
L 1776.234655 506.782521 
L 1776.792829 503.925155 
L 1777.351003 498.535154 
L 1779.025524 476.515762 
L 1779.583697 472.712983 
L 1780.141871 473.01567 
L 1780.700045 477.310117 
L 1782.374566 498.091772 
L 1782.932739 502.273782 
L 1783.490913 504.464476 
L 1784.049087 505.244815 
L 1784.607261 505.23821 
L 1786.281782 504.307385 
L 1788.514476 503.723523 
L 1789.07265 503.313597 
L 1790.747171 501.621298 
L 1791.305345 501.667391 
L 1791.863518 502.157325 
L 1792.979866 503.41048 
L 1794.096213 504.195067 
L 1795.770734 505.106789 
L 1796.328908 505.168265 
L 1796.887081 504.642627 
L 1797.445255 502.991742 
L 1798.003429 499.494191 
L 1798.561602 493.266544 
L 1799.119776 483.649747 
L 1800.236123 456.571749 
L 1801.352471 431.342011 
L 1801.910644 423.70061 
L 1802.468818 420.327969 
L 1803.026992 421.219599 
L 1803.585165 425.888058 
L 1804.143339 433.583086 
L 1805.259686 455.902317 
L 1806.376034 481.383833 
L 1806.934207 491.369996 
L 1807.492381 498.186109 
L 1808.050555 501.979326 
L 1808.608728 503.507102 
L 1809.166902 503.698921 
L 1809.725076 503.280517 
L 1810.841423 502.159879 
L 1811.399597 501.954177 
L 1811.95777 502.096005 
L 1814.748639 503.804812 
L 1815.864986 504.175904 
L 1816.42316 504.474934 
L 1818.097681 505.823932 
L 1818.655854 505.598867 
L 1819.214028 504.029747 
L 1819.772202 500.217742 
L 1820.330375 493.456556 
L 1821.446723 472.321525 
L 1822.004896 461.078692 
L 1822.56307 452.327541 
L 1823.121244 447.846394 
L 1823.679417 448.466505 
L 1824.237591 454.061431 
L 1824.795765 463.593389 
L 1825.912112 486.421527 
L 1826.470286 495.483597 
L 1827.028459 501.481475 
L 1827.586633 504.636932 
L 1828.144807 505.767712 
L 1828.70298 505.75777 
L 1830.377501 504.316379 
L 1830.935675 504.057886 
L 1832.052022 503.900357 
L 1835.959238 504.053896 
L 1837.075585 504.50017 
L 1838.191933 505.118919 
L 1838.750106 505.063595 
L 1839.30828 504.235185 
L 1839.866454 502.074837 
L 1840.424627 498.096371 
L 1840.982801 492.170071 
L 1843.773669 455.990251 
L 1844.331843 453.272529 
L 1844.890017 454.104652 
L 1845.44819 459.248979 
L 1846.006364 468.27097 
L 1847.122711 489.675567 
L 1847.680885 497.670056 
L 1848.239059 502.659456 
L 1848.797232 505.080796 
L 1849.355406 505.788707 
L 1849.91358 505.598303 
L 1851.588101 504.218522 
L 1852.146275 504.008569 
L 1853.262622 503.904554 
L 1858.844359 504.000776 
L 1868.333311 504.02631 
L 1869.449658 504.23833 
L 1870.566006 504.518054 
L 1871.124179 504.476033 
L 1871.682353 504.063089 
L 1872.240527 503.021506 
L 1872.7987 501.137877 
L 1874.473221 493.265771 
L 1875.031395 492.756899 
L 1875.589569 494.169469 
L 1877.26409 502.587773 
L 1877.822263 503.843647 
L 1878.380437 503.361146 
L 1878.938611 500.871352 
L 1879.496784 496.395026 
L 1880.613132 484.835269 
L 1881.171305 480.934219 
L 1881.729479 480.110717 
L 1882.287653 482.514998 
L 1883.404 492.872467 
L 1883.962174 497.954057 
L 1884.520347 501.65029 
L 1885.078521 503.810102 
L 1885.636695 504.752914 
L 1886.194868 504.938956 
L 1887.311216 504.483811 
L 1888.427563 504.072614 
L 1889.54391 503.952469 
L 1915.778073 504.031417 
L 1918.010768 504.104936 
L 1918.568941 503.981427 
L 1919.127115 503.69437 
L 1919.685289 503.198752 
L 1920.801636 501.848259 
L 1921.35981 501.545207 
L 1921.917983 501.95088 
L 1922.476157 503.047717 
L 1923.034331 504.41799 
L 1923.592504 505.450294 
L 1924.150678 505.424361 
L 1924.708852 503.45746 
L 1925.267025 498.586816 
L 1925.825199 490.201392 
L 1928.057894 445.02712 
L 1928.616067 440.081618 
L 1929.174241 438.819906 
L 1929.732415 440.397321 
L 1930.290588 444.080921 
L 1931.406936 455.650357 
L 1932.523283 467.087743 
L 1933.081457 469.966717 
L 1933.63963 469.753619 
L 1934.197804 466.196776 
L 1934.755978 459.759744 
L 1936.430499 434.506533 
L 1936.988672 428.976752 
L 1937.546846 426.645019 
L 1938.10502 427.355268 
L 1938.663193 430.526924 
L 1940.895888 449.442514 
L 1941.454062 451.281409 
L 1942.012235 450.885956 
L 1942.570409 448.335847 
L 1944.24493 436.076079 
L 1945.919451 426.789049 
L 1946.477625 421.959342 
L 1947.035798 415.243832 
L 1948.710319 389.696091 
L 1949.268493 384.659257 
L 1949.826667 383.153052 
L 1950.38484 384.611988 
L 1950.943014 388.025176 
L 1951.501188 392.811032 
L 1952.059361 399.103883 
L 1953.175709 416.405684 
L 1954.292056 434.052745 
L 1954.85023 440.828397 
L 1955.408403 446.097314 
L 1955.966577 449.967518 
L 1956.524751 452.569962 
L 1957.082924 454.199911 
L 1957.641098 455.177156 
L 1958.199272 455.678947 
L 1958.757445 455.824127 
L 1959.873793 455.80825 
L 1960.431966 456.137557 
L 1960.99014 456.75977 
L 1961.548314 457.208171 
L 1962.106487 456.656971 
L 1962.664661 454.415277 
L 1963.222835 450.521177 
L 1964.339182 441.535518 
L 1964.897356 438.444888 
L 1965.455529 436.7501 
L 1966.013703 436.054941 
L 1966.571877 435.669559 
L 1967.13005 434.942192 
L 1967.688224 433.489181 
L 1968.246398 431.178017 
L 1968.804571 427.985751 
L 1969.362745 423.928509 
L 1970.479092 413.175627 
L 1971.59544 398.407643 
L 1973.269961 374.386692 
L 1973.828134 368.474779 
L 1974.386308 364.697884 
L 1974.944482 363.653188 
L 1975.502655 366.20101 
L 1976.060829 372.985401 
L 1977.177176 395.702076 
L 1978.293524 417.367086 
L 1978.851697 423.525282 
L 1979.409871 425.714463 
L 1979.968045 424.715978 
L 1981.084392 418.818234 
L 1982.200739 413.233186 
L 1983.317087 408.274699 
L 1983.875261 406.391552 
L 1984.433434 405.414112 
L 1984.991608 405.604476 
L 1985.549782 406.967245 
L 1986.666129 411.210367 
L 1987.224303 412.115649 
L 1987.782476 410.437999 
L 1988.34065 405.010438 
L 1988.898824 395.478472 
L 1991.131518 346.310802 
L 1991.689692 342.061706 
L 1992.247866 343.013364 
L 1992.806039 348.543836 
L 1993.364213 357.829453 
L 1995.596908 406.959324 
L 1996.155081 414.621108 
L 1996.713255 419.65581 
L 1997.271429 422.284106 
L 1997.829602 422.429686 
L 1998.387776 420.233711 
L 1998.94595 416.267038 
L 2000.062297 406.649825 
L 2000.620471 403.120843 
L 2001.178644 401.734659 
L 2001.736818 402.891546 
L 2002.294992 406.364566 
L 2002.853165 411.698381 
L 2003.969513 425.871071 
L 2005.08586 439.788665 
L 2005.644034 444.86141 
L 2006.202207 447.978862 
L 2006.760381 449.033969 
L 2007.318555 448.503924 
L 2008.434902 445.653247 
L 2009.551249 442.640906 
L 2010.109423 440.689791 
L 2010.667597 437.770535 
L 2011.22577 433.447489 
L 2011.783944 427.604037 
L 2012.900291 412.675369 
L 2015.132986 379.962041 
L 2015.69116 374.182226 
L 2016.249333 371.086935 
L 2016.807507 371.054357 
L 2017.365681 374.087014 
L 2017.923854 379.707067 
L 2019.598375 399.810794 
L 2020.156549 403.317031 
L 2020.714723 404.713787 
L 2021.272896 405.168267 
L 2021.83107 406.053895 
L 2022.389244 408.017509 
L 2024.063765 416.018857 
L 2024.621938 417.511231 
L 2025.180112 417.628397 
L 2026.854633 414.67639 
L 2027.412807 414.385144 
L 2027.97098 413.584101 
L 2028.529154 411.762541 
L 2030.761849 401.471593 
L 2031.320022 397.992758 
L 2031.878196 393.41617 
L 2034.110891 372.041856 
L 2034.669064 370.88715 
L 2035.227238 373.728411 
L 2035.785412 380.041018 
L 2036.901759 395.470497 
L 2037.459933 401.33679 
L 2038.018106 405.153213 
L 2038.57628 407.058656 
L 2039.692627 408.569474 
L 2040.250801 409.958871 
L 2040.808975 411.868073 
L 2041.367148 414.181883 
L 2041.925322 417.120058 
L 2043.599843 428.136465 
L 2044.158017 430.612399 
L 2044.71619 431.989038 
L 2045.274364 432.749116 
L 2045.832538 433.291548 
L 2046.390711 433.646655 
L 2046.948885 433.795043 
L 2047.507059 433.760385 
L 2048.065232 433.420886 
L 2048.623406 432.773713 
L 2049.18158 432.307215 
L 2049.739754 432.679165 
L 2050.297927 434.178732 
L 2050.856101 436.758537 
L 2051.414275 440.399215 
L 2052.530622 450.74007 
L 2053.646969 461.662311 
L 2054.205143 465.927132 
L 2054.763317 469.183097 
L 2055.32149 471.362913 
L 2055.879664 472.433584 
L 2056.437838 472.409512 
L 2056.996011 471.135305 
L 2057.554185 468.332258 
L 2058.112359 464.088997 
L 2060.345053 444.250732 
L 2060.903227 441.87476 
L 2061.461401 441.487527 
L 2062.019574 443.08004 
L 2062.577748 446.679553 
L 2063.135922 452.374431 
L 2064.252269 468.421804 
L 2065.368616 484.398812 
L 2066.484964 495.906802 
L 2067.043137 499.694889 
L 2067.601311 501.721134 
L 2068.159485 501.562509 
L 2068.717658 499.123914 
L 2069.275832 494.740869 
L 2072.0667 467.313486 
L 2073.741221 453.035188 
L 2074.299395 449.790268 
L 2074.857569 447.999548 
L 2077.090263 444.562306 
L 2077.648437 444.113303 
L 2078.206611 444.282256 
L 2079.881132 445.627026 
L 2081.555653 447.866714 
L 2082.113826 447.613089 
L 2082.672 446.715008 
L 2082.672 446.715008 
" style="fill:none;stroke:#bfbf00;stroke-linecap:round;stroke-width:1.5;"/>
   </g>
   <g id="line2d_18">
    <path clip-path="url(#pbb7fc722dd)" d="M 289.26 398.267631 
L 298.748952 398.267631 
L 299.307126 399.773412 
L 299.8653 404.315401 
L 300.423473 404.315401 
L 300.981647 408.975146 
L 315.494162 408.975146 
L 316.052336 410.351724 
L 316.61051 412.330103 
L 325.541289 412.330103 
L 326.099462 413.393542 
L 326.657636 413.649978 
L 327.21581 415.464744 
L 327.773983 428.341797 
L 328.332157 438.308065 
L 328.890331 444.993172 
L 355.124493 444.993172 
L 355.682667 444.086018 
L 356.24084 437.591481 
L 357.357188 417.854547 
L 357.915361 417.266892 
L 359.031709 416.866559 
L 362.938924 416.866559 
L 363.497098 417.20654 
L 364.055272 417.266892 
L 364.613445 417.854547 
L 365.171619 432.091182 
L 365.729793 442.806209 
L 366.287966 446.689509 
L 384.149524 446.689509 
L 384.707697 448.43264 
L 385.824045 450.23383 
L 412.058207 450.23383 
L 412.616381 449.702126 
L 413.732728 449.197331 
L 414.290902 449.100385 
L 414.849076 448.663802 
L 415.407249 448.45078 
L 415.965423 448.039118 
L 417.08177 447.949151 
L 422.105333 448.039118 
L 422.663507 448.634992 
L 423.221681 448.663802 
L 423.779854 450.572405 
L 424.338028 451.766702 
L 424.896202 452.619299 
L 451.130364 452.619299 
L 451.688538 450.571323 
L 452.246711 444.831781 
L 452.804885 440.534197 
L 453.363059 438.941385 
L 453.921232 438.401547 
L 467.875574 438.401547 
L 468.433748 434.842807 
L 468.991922 429.749102 
L 469.550095 428.85789 
L 470.108269 427.503441 
L 470.666443 427.057856 
L 472.899137 427.057856 
L 473.457311 421.639758 
L 474.573658 397.586585 
L 475.131832 395.965978 
L 475.690006 395.524423 
L 477.9227 395.524423 
L 478.480874 395.965978 
L 479.039048 397.131232 
L 479.597221 397.586585 
L 480.713569 409.464311 
L 482.38809 421.174553 
L 482.946263 423.489948 
L 486.295305 423.489948 
L 486.853479 424.19792 
L 487.411653 424.309152 
L 487.969826 425.242507 
L 489.644347 438.958828 
L 500.249647 439.018577 
L 500.807821 440.248554 
L 501.924168 445.20819 
L 502.482342 446.15912 
L 503.598689 446.663823 
L 504.715036 447.030259 
L 505.27321 447.416079 
L 507.505905 449.633897 
L 508.064078 450.476625 
L 509.180426 453.074389 
L 530.391025 453.074389 
L 530.949199 453.388932 
L 532.065546 454.185908 
L 535.972762 454.185908 
L 537.089109 453.388932 
L 558.299709 453.388932 
L 558.857882 451.975911 
L 559.416056 444.66086 
L 559.97423 443.339965 
L 560.532403 442.737049 
L 561.090577 442.540685 
L 580.068482 442.540685 
L 582.301176 435.623885 
L 583.417524 435.623885 
L 583.975697 436.698044 
L 586.208392 436.698044 
L 586.766566 436.890237 
L 587.324739 437.224807 
L 587.882913 438.010887 
L 588.999261 441.889208 
L 589.557434 442.963987 
L 590.115608 443.45676 
L 615.791597 443.45676 
L 616.907944 443.668447 
L 617.466118 444.054889 
L 618.024291 448.655721 
L 618.582465 449.91896 
L 644.816627 449.91896 
L 645.374801 446.808837 
L 645.932975 442.088327 
L 647.049322 430.871844 
L 647.607496 427.429658 
L 648.165669 426.913758 
L 648.723843 425.027852 
L 649.282017 424.823737 
L 649.84019 424.009051 
L 654.863754 424.009051 
L 655.421927 425.027852 
L 655.980101 427.429658 
L 656.538275 427.620655 
L 682.772437 427.620655 
L 683.330611 426.590883 
L 684.446958 422.551215 
L 685.005132 422.0076 
L 695.610431 422.0076 
L 696.168605 419.428601 
L 696.726779 418.563502 
L 697.284952 418.167704 
L 697.843126 416.313244 
L 699.517647 416.313244 
L 700.075821 407.961986 
L 700.633994 394.558285 
L 701.192168 377.921582 
L 701.750342 371.964369 
L 702.866689 371.964369 
L 703.424863 387.367392 
L 703.983036 397.691533 
L 704.54121 402.793537 
L 705.099384 404.243971 
L 705.657557 404.538124 
L 706.215731 406.179078 
L 706.773905 410.620162 
L 708.448426 430.983671 
L 709.006599 434.863462 
L 709.564773 436.780485 
L 710.122947 437.620831 
L 711.797468 439.266051 
L 712.355641 440.255039 
L 712.913815 440.398558 
L 718.495552 440.398558 
L 719.053725 440.651088 
L 719.611899 441.367375 
L 720.170073 441.772604 
L 720.728246 444.692539 
L 721.844594 451.576912 
L 722.402768 451.718499 
L 748.63693 451.718499 
L 750.311451 449.37026 
L 763.149445 449.37026 
L 763.707619 448.802211 
L 764.823966 448.438315 
L 765.940314 448.329276 
L 768.173008 448.329276 
L 769.289356 447.095199 
L 769.847529 447.021352 
L 770.963877 445.97801 
L 781.569176 445.97801 
L 782.12735 445.553503 
L 782.685524 445.533496 
L 783.243697 445.221847 
L 794.407171 445.221847 
L 794.965345 445.052347 
L 796.081692 445.052347 
L 796.639866 442.852658 
L 797.198039 442.530285 
L 797.756213 442.530285 
L 798.314387 442.852658 
L 798.87256 443.670581 
L 799.988908 451.416584 
L 826.781244 451.375704 
L 827.897591 434.413356 
L 828.455765 434.257322 
L 829.013938 433.731522 
L 832.921154 433.731522 
L 833.479328 434.257322 
L 834.037501 434.413356 
L 834.595675 436.609776 
L 835.153849 439.360082 
L 835.712022 441.194964 
L 836.270196 441.870056 
L 862.504359 441.870056 
L 863.062532 440.112941 
L 863.620706 436.771238 
L 864.737053 426.480794 
L 865.295227 421.120707 
L 865.853401 417.136 
L 866.411574 415.682471 
L 866.969748 415.612801 
L 867.527922 415.272368 
L 868.086095 415.188363 
L 868.644269 414.655143 
L 869.202443 413.075431 
L 869.760616 410.88692 
L 870.31879 408.183519 
L 871.435137 408.183519 
L 872.551485 417.378836 
L 873.109658 420.434533 
L 874.784179 426.344923 
L 875.900527 433.204292 
L 876.4587 436.910308 
L 877.016874 439.770099 
L 888.180347 439.770099 
L 888.738521 440.71175 
L 889.296695 441.086046 
L 889.854868 441.675516 
L 890.413042 443.345757 
L 891.529389 444.896649 
L 892.087563 446.156521 
L 893.20391 449.703411 
L 893.762084 450.866409 
L 921.112594 450.866409 
L 921.670768 451.130129 
L 922.228941 452.199611 
L 949.021277 452.204172 
L 949.579451 452.025053 
L 952.928493 452.002948 
L 957.952056 452.025053 
L 958.51023 452.204172 
L 959.068403 452.563519 
L 985.302566 452.563519 
L 985.860739 452.349283 
L 986.418913 451.737964 
L 987.535261 451.632648 
L 990.884303 451.632648 
L 991.442476 448.548424 
L 992.00065 446.56162 
L 992.558824 446.512663 
L 993.116997 445.366019 
L 1007.071339 445.366019 
L 1007.629513 443.525859 
L 1008.187686 441.168286 
L 1008.74586 439.746607 
L 1009.304034 439.493261 
L 1010.420381 437.546088 
L 1012.653076 437.546088 
L 1013.211249 437.123108 
L 1013.769423 431.338251 
L 1014.327597 422.894507 
L 1014.88577 412.657693 
L 1015.443944 407.277073 
L 1016.560291 407.277073 
L 1017.118465 411.264171 
L 1017.676639 417.194389 
L 1018.234812 421.730872 
L 1018.792986 424.851765 
L 1019.909333 429.696479 
L 1020.467507 433.144015 
L 1022.142028 446.525492 
L 1022.700202 449.604885 
L 1023.258375 451.631003 
L 1049.492538 451.631003 
L 1050.050711 450.586523 
L 1050.608885 450.47188 
L 1051.167059 449.237445 
L 1051.725232 449.067619 
L 1068.470443 449.067619 
L 1069.58679 445.088282 
L 1070.144964 444.283376 
L 1070.703137 444.024615 
L 1071.261311 443.341875 
L 1071.819485 441.572809 
L 1072.935832 435.986579 
L 1073.494006 434.360884 
L 1074.052179 434.022905 
L 1074.610353 433.905872 
L 1075.168527 433.558533 
L 1075.7267 433.558533 
L 1076.284874 433.350988 
L 1077.401221 433.350988 
L 1077.959395 434.894605 
L 1104.193557 434.894605 
L 1105.309905 432.324583 
L 1105.868078 431.422778 
L 1106.984426 431.324495 
L 1107.542599 431.180872 
L 1108.658947 431.180872 
L 1109.21712 430.837554 
L 1109.775294 429.631188 
L 1110.333468 427.635376 
L 1110.891641 427.325502 
L 1118.147899 427.325502 
L 1118.706073 427.797412 
L 1119.264246 430.645493 
L 1119.82242 439.187909 
L 1120.380594 445.524996 
L 1120.938768 449.820363 
L 1138.800325 449.820363 
L 1139.358499 449.970275 
L 1139.916672 450.656754 
L 1148.289277 450.550549 
L 1148.847451 449.970275 
L 1166.709008 449.970275 
L 1167.267182 448.521028 
L 1168.383529 446.607079 
L 1168.941703 444.920042 
L 1169.499877 445.150832 
L 1170.05805 445.633693 
L 1181.779697 445.633693 
L 1182.896045 446.607079 
L 1184.012392 448.152385 
L 1184.570566 449.936661 
L 1185.128739 451.293979 
L 1196.292213 451.300511 
L 1196.850387 451.438907 
L 1197.40856 451.934466 
L 1211.921076 451.934466 
L 1212.479249 451.438907 
L 1223.642723 451.438907 
L 1224.200896 451.318057 
L 1224.75907 450.486796 
L 1225.875417 449.976013 
L 1234.248022 449.976013 
L 1235.922543 450.79851 
L 1236.480717 453.397736 
L 1262.71488 453.397736 
L 1263.273053 451.725706 
L 1263.831227 451.492411 
L 1264.389401 450.833047 
L 1270.529311 450.833047 
L 1271.087485 451.492411 
L 1272.203832 451.938693 
L 1298.437994 451.938693 
L 1299.554342 450.14857 
L 1300.112515 449.637178 
L 1301.787036 449.393454 
L 1303.461557 449.309726 
L 1304.019731 449.141016 
L 1305.694252 449.094091 
L 1309.601468 449.141016 
L 1310.717815 449.883909 
L 1337.510151 449.781857 
L 1338.068325 449.692912 
L 1338.626499 449.422312 
L 1348.673625 449.337654 
L 1349.789972 448.480213 
L 1350.906319 448.225538 
L 1351.464493 447.465921 
L 1352.022667 444.949768 
L 1352.58084 440.028531 
L 1353.139014 439.625356 
L 1353.697188 438.976179 
L 1354.813535 438.912048 
L 1361.511619 438.976179 
L 1362.069793 440.028531 
L 1362.627966 441.557276 
L 1363.18614 445.94418 
L 1363.744314 448.732783 
L 1364.302487 450.33869 
L 1376.024134 450.403468 
L 1376.582308 451.023445 
L 1391.094824 451.023445 
L 1391.652997 450.786579 
L 1401.14195 450.786579 
L 1401.700123 450.949023 
L 1402.258297 451.369273 
L 1403.932818 451.41355 
L 1404.490992 450.949023 
L 1429.608807 450.919785 
L 1430.16698 449.61476 
L 1430.725154 448.962837 
L 1431.283328 448.676007 
L 1435.748717 448.676007 
L 1436.306891 448.962837 
L 1436.865064 448.977385 
L 1437.423238 449.61476 
L 1437.981412 450.707862 
L 1446.91219 450.745827 
L 1447.470364 451.03553 
L 1448.028538 451.666569 
L 1460.308359 451.666569 
L 1460.866532 452.579353 
L 1462.541053 452.916748 
L 1488.217042 452.916748 
L 1489.333389 450.239727 
L 1490.449737 450.239727 
L 1491.566084 451.641191 
L 1517.800246 451.641191 
L 1518.35842 448.758929 
L 1518.916594 444.640182 
L 1519.474768 443.683579 
L 1520.032941 443.683579 
L 1521.149289 445.41827 
L 1521.707462 447.574088 
L 1546.825277 447.574088 
L 1547.383451 448.910301 
L 1547.941625 449.203282 
L 1548.499798 450.384498 
L 1549.057972 452.551124 
L 1550.174319 452.551124 
L 1550.732493 452.98535 
L 1553.523361 453.012484 
L 1578.083003 452.95814 
L 1579.19935 452.581017 
L 1579.757524 451.879192 
L 1590.362824 451.879192 
L 1591.479171 450.070742 
L 1592.037345 449.752276 
L 1593.153692 449.345568 
L 1604.317165 449.217461 
L 1604.875339 447.83499 
L 1605.991686 447.83499 
L 1606.54986 449.363895 
L 1607.666207 449.438837 
L 1619.387854 449.438837 
L 1619.946028 449.973154 
L 1620.504202 450.20256 
L 1621.062375 450.30056 
L 1621.620549 450.915015 
L 1622.178723 452.0842 
L 1634.458543 452.0842 
L 1635.016717 453.113694 
L 1636.133064 453.178478 
L 1649.529232 453.178478 
L 1650.087406 450.886715 
L 1650.64558 449.867322 
L 1661.809053 449.867322 
L 1662.367227 449.240883 
L 1662.925401 447.285757 
L 1663.483574 446.481892 
L 1664.041748 446.286558 
L 1667.39079 446.286558 
L 1667.948964 446.481892 
L 1668.507137 447.285757 
L 1684.694174 447.339136 
L 1685.810521 447.450988 
L 1686.926868 447.460191 
L 1687.485042 448.009351 
L 1688.601389 448.068283 
L 1689.717737 449.129003 
L 1690.27591 449.393427 
L 1690.834084 449.509072 
L 1708.695641 449.532098 
L 1709.253815 449.686222 
L 1709.811989 450.219917 
L 1710.370162 450.991082 
L 1710.928336 451.519965 
L 1737.162499 451.519965 
L 1737.720672 450.411355 
L 1738.278846 450.223163 
L 1741.069714 450.197953 
L 1758.373098 450.197953 
L 1759.489445 449.21541 
L 1760.047619 449.093528 
L 1760.605793 448.588054 
L 1761.72214 448.588054 
L 1762.280314 449.21541 
L 1762.838487 449.659638 
L 1769.536571 449.659638 
L 1770.094745 449.881911 
L 1770.652919 450.66225 
L 1798.003429 450.5857 
L 1798.561602 450.524224 
L 1799.67795 450.239573 
L 1803.585165 450.332811 
L 1804.143339 450.524224 
L 1804.701513 450.5857 
L 1805.259686 450.857748 
L 1814.190465 450.857748 
L 1815.306812 451.175204 
L 1832.052022 451.175204 
L 1832.610196 451.016302 
L 1833.16837 450.697324 
L 1835.401064 450.697324 
L 1835.959238 451.175204 
L 1842.099148 451.175204 
L 1842.657322 451.015738 
L 1843.215496 450.697324 
L 1843.773669 450.536354 
L 1863.309748 450.505883 
L 1863.867922 450.001728 
L 1866.100616 449.813053 
L 1872.240527 449.893468 
L 1872.7987 449.935489 
L 1873.356874 450.170349 
L 1899.591036 450.170349 
L 1900.707384 449.6557 
L 1901.823731 449.426711 
L 1909.638162 449.522371 
L 1910.196336 449.545042 
L 1910.75451 449.835425 
L 1936.988672 449.835425 
L 1937.546846 448.874895 
L 1938.10502 444.004251 
L 1938.663193 435.618827 
L 1939.221367 424.131759 
L 1939.779541 415.384152 
L 1940.337714 415.171053 
L 1940.895888 412.505178 
L 1946.477625 412.505178 
L 1947.035798 411.614211 
L 1947.593972 405.177179 
L 1948.152146 402.625606 
L 1948.710319 402.177205 
L 1949.826667 402.074406 
L 1974.944482 402.074406 
L 1975.502655 399.832712 
L 1976.060829 395.938612 
L 1977.177176 386.952953 
L 1977.73535 383.862323 
L 1978.293524 382.167535 
L 1978.851697 381.472376 
L 1979.409871 381.086994 
L 1979.968045 380.359627 
L 1980.526218 378.906616 
L 1981.084392 376.595452 
L 1981.642566 373.403186 
L 1982.200739 371.131898 
L 1983.317087 369.345944 
L 1983.875261 368.942717 
L 1990.015171 368.942717 
L 1991.131518 371.131898 
L 1991.689692 371.288506 
L 1992.806039 385.2061 
L 1993.364213 390.278845 
L 1993.922387 393.396297 
L 2020.156549 393.396297 
L 2020.714723 392.597008 
L 2022.389244 388.058341 
L 2022.947417 386.107226 
L 2023.505591 383.18797 
L 2024.063765 378.864924 
L 2024.621938 373.021472 
L 2025.180112 365.933928 
L 2025.738286 363.045832 
L 2026.296459 362.928666 
L 2026.854633 361.991851 
L 2027.97098 361.991851 
L 2029.087328 362.928666 
L 2029.645501 363.045832 
L 2030.203675 366.150408 
L 2031.320022 373.5539 
L 2031.878196 376.029834 
L 2032.43637 377.406473 
L 2032.994543 378.166551 
L 2033.552717 378.708983 
L 2034.110891 379.06409 
L 2036.343585 379.06409 
L 2037.459933 379.212478 
L 2038.018106 379.596167 
L 2038.57628 382.175972 
L 2039.134454 385.81665 
L 2040.250801 396.157505 
L 2041.367148 407.079745 
L 2041.925322 411.344567 
L 2042.483496 414.600532 
L 2043.041669 416.780348 
L 2050.856101 416.780348 
L 2051.414275 417.826947 
L 2051.972448 417.851019 
L 2052.530622 422.265332 
L 2053.646969 436.181072 
L 2054.205143 441.324237 
L 2054.763317 445.112324 
L 2080.997479 445.112324 
L 2081.555653 444.541349 
L 2082.113826 440.158304 
L 2082.672 434.527577 
L 2082.672 434.527577 
" style="fill:none;stroke:#0000ff;stroke-linecap:round;stroke-width:1.5;"/>
   </g>
   <g id="line2d_19">
    <defs>
     <path d="M 0 3 
C 0.795609 3 1.55874 2.683901 2.12132 2.12132 
C 2.683901 1.55874 3 0.795609 3 0 
C 3 -0.795609 2.683901 -1.55874 2.12132 -2.12132 
C 1.55874 -2.683901 0.795609 -3 0 -3 
C -0.795609 -3 -1.55874 -2.683901 -2.12132 -2.12132 
C -2.683901 -1.55874 -3 -0.795609 -3 0 
C -3 0.795609 -2.683901 1.55874 -2.12132 2.12132 
C -1.55874 2.683901 -0.795609 3 0 3 
z
" id="m1fd74c3bc2" style="stroke:#008000;"/>
    </defs>
    <g clip-path="url(#pbb7fc722dd)">
     <use style="fill:#008000;stroke:#008000;" x="298.190779" xlink:href="#m1fd74c3bc2" y="385.324251"/>
     <use style="fill:#008000;stroke:#008000;" x="309.354252" xlink:href="#m1fd74c3bc2" y="371.183453"/>
     <use style="fill:#008000;stroke:#008000;" x="321.634073" xlink:href="#m1fd74c3bc2" y="225.166487"/>
     <use style="fill:#008000;stroke:#008000;" x="335.030241" xlink:href="#m1fd74c3bc2" y="329.842416"/>
     <use style="fill:#008000;stroke:#008000;" x="347.868235" xlink:href="#m1fd74c3bc2" y="404.64301"/>
     <use style="fill:#008000;stroke:#008000;" x="356.799014" xlink:href="#m1fd74c3bc2" y="365.705005"/>
     <use style="fill:#008000;stroke:#008000;" x="374.660571" xlink:href="#m1fd74c3bc2" y="426.110592"/>
     <use style="fill:#008000;stroke:#008000;" x="390.847608" xlink:href="#m1fd74c3bc2" y="296.372258"/>
     <use style="fill:#008000;stroke:#008000;" x="407.592818" xlink:href="#m1fd74c3bc2" y="359.276513"/>
     <use style="fill:#008000;stroke:#008000;" x="418.756291" xlink:href="#m1fd74c3bc2" y="295.208812"/>
     <use style="fill:#008000;stroke:#008000;" x="446.664975" xlink:href="#m1fd74c3bc2" y="305.094415"/>
     <use style="fill:#008000;stroke:#008000;" x="466.201053" xlink:href="#m1fd74c3bc2" y="303.300302"/>
     <use style="fill:#008000;stroke:#008000;" x="481.829916" xlink:href="#m1fd74c3bc2" y="379.796471"/>
     <use style="fill:#008000;stroke:#008000;" x="527.600157" xlink:href="#m1fd74c3bc2" y="345.381502"/>
     <use style="fill:#008000;stroke:#008000;" x="538.76363" xlink:href="#m1fd74c3bc2" y="414.605737"/>
     <use style="fill:#008000;stroke:#008000;" x="552.717972" xlink:href="#m1fd74c3bc2" y="220.575982"/>
     <use style="fill:#008000;stroke:#008000;" x="573.928571" xlink:href="#m1fd74c3bc2" y="422.92368"/>
     <use style="fill:#008000;stroke:#008000;" x="586.208392" xlink:href="#m1fd74c3bc2" y="335.896879"/>
     <use style="fill:#008000;stroke:#008000;" x="614.117076" xlink:href="#m1fd74c3bc2" y="275.012627"/>
     <use style="fill:#008000;stroke:#008000;" x="661.003664" xlink:href="#m1fd74c3bc2" y="393.959557"/>
     <use style="fill:#008000;stroke:#008000;" x="675.516179" xlink:href="#m1fd74c3bc2" y="282.87054"/>
     <use style="fill:#008000;stroke:#008000;" x="690.586868" xlink:href="#m1fd74c3bc2" y="395.165964"/>
     <use style="fill:#008000;stroke:#008000;" x="697.843126" xlink:href="#m1fd74c3bc2" y="285.376147"/>
     <use style="fill:#008000;stroke:#008000;" x="706.773905" xlink:href="#m1fd74c3bc2" y="183.157828"/>
     <use style="fill:#008000;stroke:#008000;" x="741.380672" xlink:href="#m1fd74c3bc2" y="340.371288"/>
     <use style="fill:#008000;stroke:#008000;" x="763.149445" xlink:href="#m1fd74c3bc2" y="447.705466"/>
     <use style="fill:#008000;stroke:#008000;" x="775.429266" xlink:href="#m1fd74c3bc2" y="409.726524"/>
     <use style="fill:#008000;stroke:#008000;" x="788.267261" xlink:href="#m1fd74c3bc2" y="373.514048"/>
     <use style="fill:#008000;stroke:#008000;" x="802.221602" xlink:href="#m1fd74c3bc2" y="359.204032"/>
     <use style="fill:#008000;stroke:#008000;" x="818.966812" xlink:href="#m1fd74c3bc2" y="304.585944"/>
     <use style="fill:#008000;stroke:#008000;" x="836.82837" xlink:href="#m1fd74c3bc2" y="273.742362"/>
     <use style="fill:#008000;stroke:#008000;" x="875.342353" xlink:href="#m1fd74c3bc2" y="208.100716"/>
     <use style="fill:#008000;stroke:#008000;" x="915.530857" xlink:href="#m1fd74c3bc2" y="418.793229"/>
     <use style="fill:#008000;stroke:#008000;" x="942.323193" xlink:href="#m1fd74c3bc2" y="360.353891"/>
     <use style="fill:#008000;stroke:#008000;" x="951.812146" xlink:href="#m1fd74c3bc2" y="433.556349"/>
     <use style="fill:#008000;stroke:#008000;" x="965.766487" xlink:href="#m1fd74c3bc2" y="342.1566"/>
     <use style="fill:#008000;stroke:#008000;" x="986.418913" xlink:href="#m1fd74c3bc2" y="260.570783"/>
     <use style="fill:#008000;stroke:#008000;" x="1004.838644" xlink:href="#m1fd74c3bc2" y="425.880503"/>
     <use style="fill:#008000;stroke:#008000;" x="1010.978555" xlink:href="#m1fd74c3bc2" y="399.630827"/>
     <use style="fill:#008000;stroke:#008000;" x="1018.792986" xlink:href="#m1fd74c3bc2" y="330.349077"/>
     <use style="fill:#008000;stroke:#008000;" x="1042.23628" xlink:href="#m1fd74c3bc2" y="391.730504"/>
     <use style="fill:#008000;stroke:#008000;" x="1049.492538" xlink:href="#m1fd74c3bc2" y="359.946335"/>
     <use style="fill:#008000;stroke:#008000;" x="1070.144964" xlink:href="#m1fd74c3bc2" y="281.213929"/>
     <use style="fill:#008000;stroke:#008000;" x="1085.773826" xlink:href="#m1fd74c3bc2" y="423.67573"/>
     <use style="fill:#008000;stroke:#008000;" x="1115.915204" xlink:href="#m1fd74c3bc2" y="392.408635"/>
     <use style="fill:#008000;stroke:#008000;" x="1120.938768" xlink:href="#m1fd74c3bc2" y="389.163391"/>
     <use style="fill:#008000;stroke:#008000;" x="1128.195025" xlink:href="#m1fd74c3bc2" y="419.614575"/>
     <use style="fill:#008000;stroke:#008000;" x="1138.242151" xlink:href="#m1fd74c3bc2" y="441.104907"/>
     <use style="fill:#008000;stroke:#008000;" x="1162.801793" xlink:href="#m1fd74c3bc2" y="313.739805"/>
     <use style="fill:#008000;stroke:#008000;" x="1202.990297" xlink:href="#m1fd74c3bc2" y="436.083166"/>
     <use style="fill:#008000;stroke:#008000;" x="1217.502812" xlink:href="#m1fd74c3bc2" y="361.877604"/>
     <use style="fill:#008000;stroke:#008000;" x="1243.736975" xlink:href="#m1fd74c3bc2" y="389.332944"/>
     <use style="fill:#008000;stroke:#008000;" x="1254.342275" xlink:href="#m1fd74c3bc2" y="413.522669"/>
     <use style="fill:#008000;stroke:#008000;" x="1278.901916" xlink:href="#m1fd74c3bc2" y="339.659197"/>
     <use style="fill:#008000;stroke:#008000;" x="1315.183204" xlink:href="#m1fd74c3bc2" y="323.757297"/>
     <use style="fill:#008000;stroke:#008000;" x="1343.650062" xlink:href="#m1fd74c3bc2" y="423.972708"/>
     <use style="fill:#008000;stroke:#008000;" x="1357.604403" xlink:href="#m1fd74c3bc2" y="380.028934"/>
     <use style="fill:#008000;stroke:#008000;" x="1370.442398" xlink:href="#m1fd74c3bc2" y="391.61624"/>
     <use style="fill:#008000;stroke:#008000;" x="1383.838566" xlink:href="#m1fd74c3bc2" y="369.687326"/>
     <use style="fill:#008000;stroke:#008000;" x="1422.910723" xlink:href="#m1fd74c3bc2" y="355.479694"/>
     <use style="fill:#008000;stroke:#008000;" x="1444.121322" xlink:href="#m1fd74c3bc2" y="360.709328"/>
     <use style="fill:#008000;stroke:#008000;" x="1468.680964" xlink:href="#m1fd74c3bc2" y="321.059156"/>
     <use style="fill:#008000;stroke:#008000;" x="1509.427641" xlink:href="#m1fd74c3bc2" y="419.054994"/>
     <use style="fill:#008000;stroke:#008000;" x="1522.82381" xlink:href="#m1fd74c3bc2" y="372.656826"/>
     <use style="fill:#008000;stroke:#008000;" x="1541.243541" xlink:href="#m1fd74c3bc2" y="379.681107"/>
     <use style="fill:#008000;stroke:#008000;" x="1555.756056" xlink:href="#m1fd74c3bc2" y="360.243263"/>
     <use style="fill:#008000;stroke:#008000;" x="1570.268571" xlink:href="#m1fd74c3bc2" y="349.448064"/>
     <use style="fill:#008000;stroke:#008000;" x="1595.94456" xlink:href="#m1fd74c3bc2" y="446.978235"/>
     <use style="fill:#008000;stroke:#008000;" x="1609.340728" xlink:href="#m1fd74c3bc2" y="268.911912"/>
     <use style="fill:#008000;stroke:#008000;" x="1624.969591" xlink:href="#m1fd74c3bc2" y="426.305491"/>
     <use style="fill:#008000;stroke:#008000;" x="1642.272975" xlink:href="#m1fd74c3bc2" y="325.046874"/>
     <use style="fill:#008000;stroke:#008000;" x="1653.436448" xlink:href="#m1fd74c3bc2" y="395.727432"/>
     <use style="fill:#008000;stroke:#008000;" x="1676.321569" xlink:href="#m1fd74c3bc2" y="424.275629"/>
     <use style="fill:#008000;stroke:#008000;" x="1690.27591" xlink:href="#m1fd74c3bc2" y="359.573885"/>
     <use style="fill:#008000;stroke:#008000;" x="1729.906241" xlink:href="#m1fd74c3bc2" y="394.501717"/>
     <use style="fill:#008000;stroke:#008000;" x="1752.233188" xlink:href="#m1fd74c3bc2" y="398.310488"/>
     <use style="fill:#008000;stroke:#008000;" x="1770.652919" xlink:href="#m1fd74c3bc2" y="386.617223"/>
     <use style="fill:#008000;stroke:#008000;" x="1802.468818" xlink:href="#m1fd74c3bc2" y="420.327969"/>
     <use style="fill:#008000;stroke:#008000;" x="1823.121244" xlink:href="#m1fd74c3bc2" y="447.846394"/>
     <use style="fill:#008000;stroke:#008000;" x="1929.174241" xlink:href="#m1fd74c3bc2" y="438.819906"/>
     <use style="fill:#008000;stroke:#008000;" x="1937.546846" xlink:href="#m1fd74c3bc2" y="426.645019"/>
     <use style="fill:#008000;stroke:#008000;" x="1949.826667" xlink:href="#m1fd74c3bc2" y="383.153052"/>
     <use style="fill:#008000;stroke:#008000;" x="1974.944482" xlink:href="#m1fd74c3bc2" y="363.653188"/>
     <use style="fill:#008000;stroke:#008000;" x="1992.806039" xlink:href="#m1fd74c3bc2" y="348.543836"/>
     <use style="fill:#008000;stroke:#008000;" x="2016.807507" xlink:href="#m1fd74c3bc2" y="371.054357"/>
     <use style="fill:#008000;stroke:#008000;" x="2034.669064" xlink:href="#m1fd74c3bc2" y="370.88715"/>
     <use style="fill:#008000;stroke:#008000;" x="2061.461401" xlink:href="#m1fd74c3bc2" y="441.487527"/>
    </g>
   </g>
   <g id="patch_3">
    <path d="M 284.26 504 
L 284.26 69.12 
" style="fill:none;stroke:#262626;stroke-linecap:square;stroke-linejoin:miter;stroke-width:0.8;"/>
   </g>
   <g id="patch_4">
    <path d="M 289.26 509 
L 2082.672 509 
" style="fill:none;stroke:#262626;stroke-linecap:square;stroke-linejoin:miter;stroke-width:0.8;"/>
   </g>
   <g id="text_19">
    <text style="fill:#262626;font-family:Arial;font-size:36px;font-stretch:normal;font-style:normal;font-weight:normal;text-anchor:middle;" transform="rotate(-0, 1185.966, 61.965)" x="1185.966" y="61.965">20201123_GN902_60x_003-1.tif LAM-1::wSc</text>
   </g>
  </g>
 </g>
 <defs>
  <clipPath id="pbb7fc722dd">
   <rect height="434.88" width="1793.412" x="289.26" y="69.12"/>
  </clipPath>
 </defs>
</svg>
