<?xml version="1.0" encoding="utf-8" standalone="no"?>
<!DOCTYPE svg PUBLIC "-//W3C//DTD SVG 1.1//EN"
  "http://www.w3.org/Graphics/SVG/1.1/DTD/svg11.dtd">
<!-- Created with matplotlib (https://matplotlib.org/) -->
<svg height="576pt" version="1.1" viewBox="0 0 2386.8 576" width="2386.8pt" xmlns="http://www.w3.org/2000/svg" xmlns:xlink="http://www.w3.org/1999/xlink">
 <metadata>
  <rdf:RDF xmlns:cc="http://creativecommons.org/ns#" xmlns:dc="http://purl.org/dc/elements/1.1/" xmlns:rdf="http://www.w3.org/1999/02/22-rdf-syntax-ns#">
   <cc:Work>
    <dc:type rdf:resource="http://purl.org/dc/dcmitype/StillImage"/>
    <dc:date>2022-12-01T10:17:44.007659</dc:date>
    <dc:format>image/svg+xml</dc:format>
    <dc:creator>
     <cc:Agent>
      <dc:title>Matplotlib v3.3.4, https://matplotlib.org/</dc:title>
     </cc:Agent>
    </dc:creator>
   </cc:Work>
  </rdf:RDF>
 </metadata>
 <defs>
  <style type="text/css">*{stroke-linecap:butt;stroke-linejoin:round;}</style>
 </defs>
 <g id="figure_1">
  <g id="patch_1">
   <path d="M 0 576 
L 2386.8 576 
L 2386.8 0 
L 0 0 
z
" style="fill:#ffffff;"/>
  </g>
  <g id="axes_1">
   <g id="patch_2">
    <path d="M 298.35 504 
L 2148.12 504 
L 2148.12 69.12 
L 298.35 69.12 
z
" style="fill:#ffffff;"/>
   </g>
   <g id="matplotlib.axis_1">
    <g id="xtick_1">
     <g id="line2d_1">
      <defs>
       <path d="M 0 0 
L 0 -3.5 
" id="md416f6b7a4" style="stroke:#262626;stroke-width:0.8;"/>
      </defs>
      <g>
       <use style="fill:#262626;stroke:#262626;stroke-width:0.8;" x="298.35" xlink:href="#md416f6b7a4" y="509"/>
      </g>
     </g>
     <g id="text_1">
      <text style="fill:#262626;font-family:Arial;font-size:30px;font-stretch:normal;font-style:normal;font-weight:normal;text-anchor:middle;" transform="rotate(-0, 298.35, 533.973438)" x="298.35" y="533.973438">0</text>
     </g>
    </g>
    <g id="xtick_2">
     <g id="line2d_2">
      <g>
       <use style="fill:#262626;stroke:#262626;stroke-width:0.8;" x="520.432908" xlink:href="#md416f6b7a4" y="509"/>
      </g>
     </g>
     <g id="text_2">
      <text style="fill:#262626;font-family:Arial;font-size:30px;font-stretch:normal;font-style:normal;font-weight:normal;text-anchor:middle;" transform="rotate(-0, 520.432908, 533.973438)" x="520.432908" y="533.973438">50</text>
     </g>
    </g>
    <g id="xtick_3">
     <g id="line2d_3">
      <g>
       <use style="fill:#262626;stroke:#262626;stroke-width:0.8;" x="742.515817" xlink:href="#md416f6b7a4" y="509"/>
      </g>
     </g>
     <g id="text_3">
      <text style="fill:#262626;font-family:Arial;font-size:30px;font-stretch:normal;font-style:normal;font-weight:normal;text-anchor:middle;" transform="rotate(-0, 742.515817, 533.973438)" x="742.515817" y="533.973438">100</text>
     </g>
    </g>
    <g id="xtick_4">
     <g id="line2d_4">
      <g>
       <use style="fill:#262626;stroke:#262626;stroke-width:0.8;" x="964.598725" xlink:href="#md416f6b7a4" y="509"/>
      </g>
     </g>
     <g id="text_4">
      <text style="fill:#262626;font-family:Arial;font-size:30px;font-stretch:normal;font-style:normal;font-weight:normal;text-anchor:middle;" transform="rotate(-0, 964.598725, 533.973438)" x="964.598725" y="533.973438">150</text>
     </g>
    </g>
    <g id="xtick_5">
     <g id="line2d_5">
      <g>
       <use style="fill:#262626;stroke:#262626;stroke-width:0.8;" x="1186.681634" xlink:href="#md416f6b7a4" y="509"/>
      </g>
     </g>
     <g id="text_5">
      <text style="fill:#262626;font-family:Arial;font-size:30px;font-stretch:normal;font-style:normal;font-weight:normal;text-anchor:middle;" transform="rotate(-0, 1186.681634, 533.973438)" x="1186.681634" y="533.973438">200</text>
     </g>
    </g>
    <g id="xtick_6">
     <g id="line2d_6">
      <g>
       <use style="fill:#262626;stroke:#262626;stroke-width:0.8;" x="1408.764542" xlink:href="#md416f6b7a4" y="509"/>
      </g>
     </g>
     <g id="text_6">
      <text style="fill:#262626;font-family:Arial;font-size:30px;font-stretch:normal;font-style:normal;font-weight:normal;text-anchor:middle;" transform="rotate(-0, 1408.764542, 533.973438)" x="1408.764542" y="533.973438">250</text>
     </g>
    </g>
    <g id="xtick_7">
     <g id="line2d_7">
      <g>
       <use style="fill:#262626;stroke:#262626;stroke-width:0.8;" x="1630.847451" xlink:href="#md416f6b7a4" y="509"/>
      </g>
     </g>
     <g id="text_7">
      <text style="fill:#262626;font-family:Arial;font-size:30px;font-stretch:normal;font-style:normal;font-weight:normal;text-anchor:middle;" transform="rotate(-0, 1630.847451, 533.973438)" x="1630.847451" y="533.973438">300</text>
     </g>
    </g>
    <g id="xtick_8">
     <g id="line2d_8">
      <g>
       <use style="fill:#262626;stroke:#262626;stroke-width:0.8;" x="1852.930359" xlink:href="#md416f6b7a4" y="509"/>
      </g>
     </g>
     <g id="text_8">
      <text style="fill:#262626;font-family:Arial;font-size:30px;font-stretch:normal;font-style:normal;font-weight:normal;text-anchor:middle;" transform="rotate(-0, 1852.930359, 533.973438)" x="1852.930359" y="533.973438">350</text>
     </g>
    </g>
    <g id="xtick_9">
     <g id="line2d_9">
      <g>
       <use style="fill:#262626;stroke:#262626;stroke-width:0.8;" x="2075.013268" xlink:href="#md416f6b7a4" y="509"/>
      </g>
     </g>
     <g id="text_9">
      <text style="fill:#262626;font-family:Arial;font-size:30px;font-stretch:normal;font-style:normal;font-weight:normal;text-anchor:middle;" transform="rotate(-0, 2075.013268, 533.973438)" x="2075.013268" y="533.973438">400</text>
     </g>
    </g>
    <g id="text_10">
     <text style="fill:#262626;font-family:Arial;font-size:30px;font-stretch:normal;font-style:normal;font-weight:normal;text-anchor:middle;" transform="rotate(-0, 1223.235, 565.775)" x="1223.235" y="565.775">Distance (um)</text>
    </g>
   </g>
   <g id="matplotlib.axis_2">
    <g id="ytick_1">
     <g id="line2d_10">
      <defs>
       <path d="M 0 0 
L 3.5 0 
" id="m03cc1f47d9" style="stroke:#262626;stroke-width:0.8;"/>
      </defs>
      <g>
       <use style="fill:#262626;stroke:#262626;stroke-width:0.8;" x="293.35" xlink:href="#m03cc1f47d9" y="504"/>
      </g>
     </g>
     <g id="text_11">
      <text style="fill:#262626;font-family:Arial;font-size:30px;font-stretch:normal;font-style:normal;font-weight:normal;text-anchor:end;" transform="rotate(-0, 289.85, 514.736719)" x="289.85" y="514.736719">0</text>
     </g>
    </g>
    <g id="ytick_2">
     <g id="line2d_11">
      <g>
       <use style="fill:#262626;stroke:#262626;stroke-width:0.8;" x="293.35" xlink:href="#m03cc1f47d9" y="431.52"/>
      </g>
     </g>
     <g id="text_12">
      <text style="fill:#262626;font-family:Arial;font-size:30px;font-stretch:normal;font-style:normal;font-weight:normal;text-anchor:end;" transform="rotate(-0, 289.85, 442.256719)" x="289.85" y="442.256719">5</text>
     </g>
    </g>
    <g id="ytick_3">
     <g id="line2d_12">
      <g>
       <use style="fill:#262626;stroke:#262626;stroke-width:0.8;" x="293.35" xlink:href="#m03cc1f47d9" y="359.04"/>
      </g>
     </g>
     <g id="text_13">
      <text style="fill:#262626;font-family:Arial;font-size:30px;font-stretch:normal;font-style:normal;font-weight:normal;text-anchor:end;" transform="rotate(-0, 289.85, 369.776719)" x="289.85" y="369.776719">10</text>
     </g>
    </g>
    <g id="ytick_4">
     <g id="line2d_13">
      <g>
       <use style="fill:#262626;stroke:#262626;stroke-width:0.8;" x="293.35" xlink:href="#m03cc1f47d9" y="286.56"/>
      </g>
     </g>
     <g id="text_14">
      <text style="fill:#262626;font-family:Arial;font-size:30px;font-stretch:normal;font-style:normal;font-weight:normal;text-anchor:end;" transform="rotate(-0, 289.85, 297.296719)" x="289.85" y="297.296719">15</text>
     </g>
    </g>
    <g id="ytick_5">
     <g id="line2d_14">
      <g>
       <use style="fill:#262626;stroke:#262626;stroke-width:0.8;" x="293.35" xlink:href="#m03cc1f47d9" y="214.08"/>
      </g>
     </g>
     <g id="text_15">
      <text style="fill:#262626;font-family:Arial;font-size:30px;font-stretch:normal;font-style:normal;font-weight:normal;text-anchor:end;" transform="rotate(-0, 289.85, 224.816719)" x="289.85" y="224.816719">20</text>
     </g>
    </g>
    <g id="ytick_6">
     <g id="line2d_15">
      <g>
       <use style="fill:#262626;stroke:#262626;stroke-width:0.8;" x="293.35" xlink:href="#m03cc1f47d9" y="141.6"/>
      </g>
     </g>
     <g id="text_16">
      <text style="fill:#262626;font-family:Arial;font-size:30px;font-stretch:normal;font-style:normal;font-weight:normal;text-anchor:end;" transform="rotate(-0, 289.85, 152.336719)" x="289.85" y="152.336719">25</text>
     </g>
    </g>
    <g id="ytick_7">
     <g id="line2d_16">
      <g>
       <use style="fill:#262626;stroke:#262626;stroke-width:0.8;" x="293.35" xlink:href="#m03cc1f47d9" y="69.12"/>
      </g>
     </g>
     <g id="text_17">
      <text style="fill:#262626;font-family:Arial;font-size:30px;font-stretch:normal;font-style:normal;font-weight:normal;text-anchor:end;" transform="rotate(-0, 289.85, 79.856719)" x="289.85" y="79.856719">30</text>
     </g>
    </g>
    <g id="text_18">
     <text style="fill:#262626;font-family:Arial;font-size:30px;font-stretch:normal;font-style:normal;font-weight:normal;text-anchor:middle;" transform="rotate(-90, 246.170312, 286.56)" x="246.170312" y="286.56">Intensity (AU)</text>
    </g>
   </g>
   <g id="line2d_17">
    <path clip-path="url(#pce029987af)" d="M 298.35 504.006827 
L 300.582674 458.115791 
L 301.140842 450.653993 
L 301.69901 446.759871 
L 302.257179 445.739665 
L 302.815347 446.137884 
L 303.373515 446.20924 
L 303.931684 444.764258 
L 304.489852 441.691541 
L 306.722526 426.264926 
L 307.280694 422.62715 
L 307.838862 419.743249 
L 308.397031 419.261264 
L 308.955199 422.85951 
L 309.513368 431.366187 
L 311.187873 470.852566 
L 311.746041 477.269807 
L 312.304209 475.344634 
L 312.862378 465.40437 
L 315.095051 405.064668 
L 315.65322 396.903407 
L 316.211388 393.463063 
L 316.769556 394.697639 
L 317.327725 399.582676 
L 318.444062 415.434883 
L 319.00223 423.987115 
L 319.560398 430.603081 
L 320.118567 433.333146 
L 320.676735 431.090637 
L 321.234903 424.228161 
L 321.793072 414.012149 
L 323.467577 376.081753 
L 324.025745 367.997711 
L 324.583914 367.200547 
L 325.142082 374.800551 
L 325.70025 389.522234 
L 327.932924 464.073287 
L 328.491092 472.751674 
L 329.049261 475.367041 
L 329.607429 473.628993 
L 330.165597 470.407291 
L 330.723766 468.569738 
L 331.281934 469.15629 
L 331.840103 470.729884 
L 332.398271 470.657678 
L 332.956439 467.052324 
L 333.514608 460.015363 
L 334.630944 444.026754 
L 335.189113 439.109547 
L 336.30545 433.943313 
L 336.863618 429.971576 
L 337.979955 417.895188 
L 338.538123 413.765801 
L 339.096291 413.164192 
L 339.65446 415.97937 
L 340.212628 421.222144 
L 341.328965 436.107841 
L 342.445302 453.474767 
L 343.00347 458.598618 
L 343.561639 457.960079 
L 344.119807 450.870744 
L 345.794312 416.765765 
L 346.35248 414.124184 
L 346.910649 420.434347 
L 347.468817 434.83556 
L 348.585154 470.648037 
L 349.143322 481.548294 
L 349.701491 483.565965 
L 350.259659 476.824004 
L 350.817827 463.458547 
L 352.492333 414.376222 
L 353.050501 402.755457 
L 353.608669 396.250705 
L 354.166838 395.140209 
L 354.725006 397.813087 
L 355.841343 405.194154 
L 357.515848 412.694108 
L 358.074016 418.00908 
L 358.632185 426.178058 
L 359.748521 445.885728 
L 360.30669 451.96679 
L 360.864858 452.721644 
L 361.423027 448.407397 
L 363.097532 427.723117 
L 363.6557 424.735582 
L 364.213868 425.373008 
L 364.772037 430.263744 
L 366.446542 457.669003 
L 367.00471 462.160048 
L 367.562879 462.071388 
L 368.679215 455.268663 
L 369.237384 454.721535 
L 369.795552 459.004337 
L 370.911889 473.991994 
L 371.470057 475.973838 
L 372.028226 470.477537 
L 373.702731 435.88767 
L 374.260899 432.228831 
L 374.819068 435.018635 
L 375.377236 442.771679 
L 376.493573 466.415561 
L 377.609909 488.355032 
L 378.168078 494.898694 
L 378.726246 498.480195 
L 379.284415 499.806957 
L 379.842583 499.305899 
L 380.400751 497.047473 
L 380.95892 493.173677 
L 382.075256 483.859595 
L 382.633425 481.049463 
L 383.191593 480.550902 
L 384.30793 482.624375 
L 384.866098 480.693173 
L 385.424267 473.88643 
L 385.982435 461.835608 
L 388.215109 400.552388 
L 388.773277 393.320172 
L 389.331445 394.092376 
L 389.889614 404.676482 
L 390.447782 424.040746 
L 391.564119 470.805038 
L 392.122287 488.677948 
L 392.680456 500.087608 
L 393.238624 505.715901 
L 393.796792 507.257588 
L 394.354961 506.46517 
L 395.471298 502.599927 
L 396.029466 500.096714 
L 396.587634 496.433287 
L 397.145803 490.904367 
L 397.703971 482.940653 
L 398.262139 471.76296 
L 398.820308 456.870695 
L 401.052981 386.344926 
L 401.61115 374.214492 
L 402.169318 365.635225 
L 402.727486 360.199436 
L 403.285655 356.993136 
L 403.843823 355.065067 
L 404.401992 354.073627 
L 404.96016 354.582147 
L 405.518328 357.929324 
L 406.076497 365.852571 
L 406.634665 379.740947 
L 407.751002 423.24876 
L 408.867339 469.575707 
L 409.425507 486.885115 
L 409.983675 498.586113 
L 410.541844 504.974101 
L 411.100012 507.213922 
L 411.65818 506.614495 
L 412.216349 504.168288 
L 413.890854 493.060288 
L 414.449022 491.011401 
L 415.007191 490.654471 
L 415.565359 491.65421 
L 416.681696 495.540781 
L 417.798033 499.814475 
L 418.356201 501.532229 
L 418.914369 502.446184 
L 419.472538 502.354933 
L 420.030706 501.286135 
L 421.147043 497.437203 
L 421.705211 495.167159 
L 422.26338 492.217179 
L 422.821548 488.07544 
L 423.937885 478.020214 
L 424.496053 474.044163 
L 425.054221 471.502569 
L 425.61239 470.226114 
L 426.728727 469.262683 
L 427.286895 468.277347 
L 427.845063 465.648527 
L 428.403232 460.049605 
L 428.9614 450.587974 
L 431.194074 399.669805 
L 431.752242 394.150839 
L 432.31041 394.503767 
L 432.868579 400.498755 
L 433.984916 420.970911 
L 434.543084 427.437625 
L 435.101252 426.024777 
L 435.659421 415.376386 
L 436.217589 396.997951 
L 437.333926 352.540776 
L 437.892094 334.375198 
L 438.450263 321.332422 
L 439.008431 312.880261 
L 439.566599 307.823605 
L 440.124768 304.897292 
L 440.682936 303.189802 
L 441.241104 302.716799 
L 441.799273 304.296384 
L 442.357441 309.134448 
L 442.91561 318.838935 
L 443.473778 334.664932 
L 445.706451 420.075188 
L 446.26462 431.571722 
L 446.822788 436.46473 
L 447.380957 436.896941 
L 447.939125 436.554328 
L 448.497293 439.042164 
L 449.055462 446.31488 
L 451.288135 490.609901 
L 451.846304 490.568452 
L 452.404472 482.06834 
L 452.96264 465.93927 
L 455.195314 386.288014 
L 456.311651 360.846396 
L 456.869819 353.214335 
L 457.427987 351.279073 
L 457.986156 356.719065 
L 458.544324 369.508903 
L 459.660661 407.920449 
L 460.776998 444.18998 
L 461.335166 457.146698 
L 461.893334 466.342497 
L 462.451503 472.222605 
L 463.009671 475.429457 
L 463.567839 476.975269 
L 464.126008 478.144957 
L 464.684176 479.881651 
L 466.358681 487.62439 
L 466.91685 488.975934 
L 467.475018 488.972915 
L 468.591355 487.433132 
L 469.149523 487.491819 
L 469.707692 488.442177 
L 470.824028 491.361483 
L 471.382197 491.952955 
L 471.940365 491.644984 
L 472.498533 490.765066 
L 473.056702 489.440702 
L 473.61487 487.589984 
L 474.731207 483.191349 
L 475.289375 481.761659 
L 475.847544 481.371396 
L 476.963881 482.161095 
L 477.522049 481.661001 
L 478.080217 479.596409 
L 478.638386 475.717266 
L 479.196554 469.975929 
L 480.312891 453.835392 
L 481.429228 438.694555 
L 482.545564 428.864188 
L 483.661901 420.429301 
L 484.220069 418.797667 
L 484.778238 420.328703 
L 485.336406 424.567514 
L 485.894575 429.695181 
L 486.452743 432.946565 
L 487.010911 431.974281 
L 487.56908 426.67478 
L 488.685416 412.87469 
L 489.243585 408.292966 
L 490.359922 401.689454 
L 492.034427 390.086495 
L 493.150763 385.610372 
L 493.708932 381.864811 
L 494.2671 375.540733 
L 495.383437 358.49034 
L 495.941605 352.044527 
L 496.499774 350.465389 
L 497.057942 355.49491 
L 498.732447 388.209515 
L 499.290616 387.995943 
L 499.848784 376.73355 
L 500.406952 356.17237 
L 502.081457 280.97639 
L 502.639626 264.635268 
L 503.197794 256.433497 
L 503.755963 255.631002 
L 504.314131 259.550163 
L 505.988636 275.664879 
L 506.546804 280.666599 
L 507.104973 287.155389 
L 507.663141 297.499368 
L 508.22131 313.976524 
L 508.779478 337.184592 
L 510.453983 420.986536 
L 511.012151 440.967612 
L 511.57032 453.653652 
L 512.128488 459.874427 
L 512.686657 461.43665 
L 513.802993 460.152575 
L 514.361162 461.017431 
L 514.91933 463.308717 
L 516.035667 468.78618 
L 516.593835 470.269909 
L 517.152004 470.317582 
L 517.710172 468.892195 
L 518.26834 466.214806 
L 518.826509 462.620725 
L 519.942846 452.964183 
L 521.059182 441.397081 
L 521.617351 436.63639 
L 522.733687 428.952091 
L 523.291856 423.008316 
L 523.850024 413.816985 
L 525.524529 377.534815 
L 526.082698 370.762065 
L 526.640866 369.306678 
L 527.199034 372.086382 
L 527.757203 377.287229 
L 528.87354 391.146556 
L 529.989876 407.792268 
L 531.106213 429.814192 
L 531.664381 442.138024 
L 532.22255 451.659936 
L 532.780718 455.171627 
L 533.338887 451.813185 
L 534.455223 433.720013 
L 535.013392 424.975458 
L 535.57156 419.295998 
L 536.129728 417.797357 
L 536.687897 420.057153 
L 537.246065 423.477399 
L 537.804234 423.995921 
L 538.362402 418.249764 
L 538.92057 405.719642 
L 540.036907 373.237735 
L 540.595075 362.740755 
L 541.153244 361.058419 
L 541.711412 369.254923 
L 542.269581 386.051064 
L 544.502254 479.253695 
L 545.060422 494.400512 
L 545.618591 503.247556 
L 546.176759 506.285009 
L 546.734928 504.483732 
L 547.293096 498.749508 
L 547.851264 489.724436 
L 548.409433 477.775669 
L 549.525769 446.850624 
L 550.642106 414.77895 
L 551.200275 402.189411 
L 551.758443 393.149526 
L 552.316611 387.971889 
L 552.87478 386.412574 
L 553.432948 386.885647 
L 553.991116 385.960182 
L 554.549285 379.795804 
L 555.107453 366.690692 
L 556.781958 313.569494 
L 557.340127 305.914826 
L 557.898295 306.775446 
L 558.456463 314.003815 
L 560.130969 344.615769 
L 560.689137 352.508708 
L 561.247305 358.570095 
L 561.805474 362.594011 
L 562.363642 363.920348 
L 562.921811 361.759595 
L 563.479979 356.272623 
L 564.038147 349.357685 
L 564.596316 343.901854 
L 565.154484 342.160492 
L 565.712652 344.949474 
L 566.270821 351.909967 
L 566.828989 362.359446 
L 567.387158 376.291572 
L 567.945326 394.359187 
L 570.177999 482.960772 
L 570.736168 493.596332 
L 571.294336 495.601478 
L 571.852505 489.992608 
L 572.410673 478.651089 
L 574.085178 433.593882 
L 574.643346 425.977482 
L 575.201515 426.219689 
L 575.759683 432.787078 
L 576.87602 450.848988 
L 577.434188 456.285337 
L 577.992357 456.767442 
L 578.550525 451.516154 
L 579.108693 440.687969 
L 579.666862 425.197693 
L 580.783199 385.582245 
L 581.899535 344.527781 
L 582.457704 329.199523 
L 583.015872 321.743398 
L 583.57404 324.321066 
L 584.132209 336.606827 
L 585.806714 392.952626 
L 586.364882 400.721754 
L 586.923051 398.452769 
L 587.481219 388.000275 
L 589.155724 341.08463 
L 589.713893 331.709079 
L 590.272061 330.652072 
L 590.830229 339.17205 
L 591.388398 356.099258 
L 593.062903 417.74492 
L 593.621071 428.796045 
L 594.17924 432.77438 
L 594.737408 430.586076 
L 595.295576 423.25703 
L 595.853745 411.687174 
L 596.970081 382.8324 
L 597.52825 371.601516 
L 598.086418 366.750354 
L 598.644587 369.897285 
L 599.202755 380.388935 
L 600.319092 409.445117 
L 600.87726 419.380792 
L 601.435428 422.868177 
L 601.993597 419.788015 
L 602.551765 411.14656 
L 604.22627 375.475138 
L 604.784439 371.765906 
L 605.342607 375.442115 
L 605.900775 384.803586 
L 607.575281 421.826349 
L 608.133449 429.97486 
L 608.691617 432.189307 
L 609.249786 426.967376 
L 609.807954 414.293664 
L 610.924291 373.795438 
L 611.482459 352.793105 
L 612.040628 337.172993 
L 612.598796 330.423137 
L 613.156964 333.421682 
L 613.715133 344.347523 
L 614.83147 377.914035 
L 615.947806 409.73276 
L 616.505975 420.278102 
L 617.064143 426.431756 
L 617.622311 428.708815 
L 618.18048 428.176524 
L 619.296817 424.190609 
L 619.854985 423.113734 
L 620.413153 423.266147 
L 620.971322 424.148946 
L 621.52949 424.579324 
L 622.087658 423.173816 
L 622.645827 418.897899 
L 623.203995 411.212534 
L 623.762164 400.121217 
L 625.436669 356.806638 
L 626.553005 326.566716 
L 628.785679 259.113815 
L 629.343847 251.8998 
L 629.902016 252.080341 
L 630.460184 259.227897 
L 631.018352 272.194684 
L 631.576521 289.911618 
L 632.692858 337.814436 
L 633.809194 393.031628 
L 634.367363 415.134596 
L 634.925531 429.948564 
L 635.483699 437.624352 
L 636.041868 440.212362 
L 636.600036 440.425104 
L 637.158205 440.456314 
L 637.716373 441.256602 
L 638.274541 442.557157 
L 638.83271 443.234282 
L 639.390878 441.712661 
L 639.949046 436.652073 
L 640.507215 427.684216 
L 641.623552 401.936093 
L 642.739888 377.577166 
L 643.298057 371.485371 
L 643.856225 372.133536 
L 644.414393 379.792011 
L 645.53073 407.881335 
L 646.647067 434.110401 
L 647.205235 442.264078 
L 647.763404 445.941395 
L 648.321572 444.501881 
L 648.87974 438.008215 
L 650.554246 406.331272 
L 651.112414 399.865381 
L 651.670582 396.648323 
L 652.228751 395.686308 
L 652.786919 396.538988 
L 653.345088 399.806698 
L 653.903256 406.650943 
L 654.461424 417.789533 
L 656.694098 477.113811 
L 657.252266 488.125557 
L 657.810435 496.825275 
L 658.368603 502.929689 
L 658.926771 506.277759 
L 659.48494 506.877046 
L 660.043108 504.575795 
L 660.601276 498.970613 
L 661.159445 489.847909 
L 662.83395 453.569232 
L 663.392118 445.63783 
L 663.950287 443.377357 
L 664.508455 448.179394 
L 665.066623 459.340028 
L 666.18296 487.503303 
L 666.741129 497.986249 
L 667.299297 504.587253 
L 667.857465 507.94687 
L 668.415634 508.887915 
L 668.973802 507.691372 
L 669.53197 503.72858 
L 670.090139 495.609654 
L 670.648307 482.072513 
L 671.764644 441.654135 
L 672.322812 421.127394 
L 672.880981 405.531245 
L 673.439149 397.175987 
L 673.997317 396.64841 
L 674.555486 403.445137 
L 675.113654 416.626798 
L 676.229991 455.440657 
L 676.788159 475.173744 
L 677.346328 490.874102 
L 677.904496 501.196237 
L 678.462664 506.624995 
L 679.020833 508.464993 
L 679.579001 507.874355 
L 680.13717 505.43808 
L 680.695338 501.114125 
L 681.253506 494.238956 
L 681.811675 483.726754 
L 682.369843 468.90282 
L 684.044348 415.703749 
L 684.602517 405.511384 
L 685.160685 401.892298 
L 685.718853 403.170835 
L 686.277022 405.667907 
L 686.83519 405.064026 
L 687.393358 398.406335 
L 687.951527 385.720805 
L 689.067864 356.058848 
L 689.626032 347.25122 
L 690.1842 344.742581 
L 690.742369 347.578188 
L 691.300537 354.848171 
L 691.858705 366.608661 
L 693.533211 416.73997 
L 694.091379 426.706456 
L 694.649547 427.676579 
L 695.207716 419.039876 
L 695.765884 402.617516 
L 696.882221 363.396628 
L 697.440389 349.535217 
L 697.998558 342.075794 
L 698.556726 339.845164 
L 699.114894 340.96178 
L 699.673063 344.4222 
L 700.231231 350.760893 
L 700.7894 361.396695 
L 701.347568 376.922705 
L 703.022073 430.985844 
L 703.580241 442.043189 
L 704.13841 448.50018 
L 704.696578 451.535085 
L 705.254747 451.863976 
L 705.812915 449.553729 
L 706.371083 444.539197 
L 708.045588 422.276868 
L 708.603757 418.458625 
L 709.161925 417.925571 
L 709.720094 419.580089 
L 710.83643 424.042264 
L 711.394599 425.267329 
L 712.510935 426.036087 
L 713.069104 427.146878 
L 713.627272 429.532327 
L 714.185441 433.372495 
L 714.743609 438.658481 
L 715.859946 452.322046 
L 716.976282 466.586589 
L 717.534451 472.114698 
L 718.092619 474.885433 
L 718.650788 473.181438 
L 719.208956 466.016099 
L 720.325293 440.071342 
L 720.883461 427.606163 
L 721.441629 420.614555 
L 721.999798 421.420671 
L 722.557966 429.023654 
L 723.116135 438.826897 
L 723.674303 444.78504 
L 724.232471 442.754233 
L 724.79064 432.648929 
L 725.906976 403.372562 
L 726.465145 393.074142 
L 727.023313 389.275432 
L 727.581482 392.53508 
L 728.13965 402.419962 
L 729.255987 434.736261 
L 729.814155 450.646258 
L 730.372323 462.23496 
L 730.930492 467.926356 
L 731.48866 467.264423 
L 732.046829 460.496039 
L 732.604997 448.558614 
L 734.279502 406.179184 
L 734.83767 399.330406 
L 735.395839 398.672646 
L 735.954007 404.296645 
L 736.512176 415.47216 
L 738.186681 459.86664 
L 738.744849 468.631581 
L 739.303018 471.2318 
L 739.861186 467.434651 
L 740.419354 457.691192 
L 741.535691 426.263606 
L 742.652028 396.222045 
L 743.210196 387.031618 
L 743.768365 382.774295 
L 744.326533 383.947001 
L 744.884701 391.297292 
L 745.44287 404.905444 
L 747.117375 456.453402 
L 747.675543 464.423903 
L 748.233712 464.146402 
L 748.79188 456.65306 
L 749.908217 430.865981 
L 751.024553 405.018251 
L 751.582722 393.940564 
L 752.14089 385.188707 
L 752.699059 380.639658 
L 753.257227 382.340093 
L 753.815395 391.449681 
L 754.373564 407.512143 
L 756.606237 488.459573 
L 757.164406 498.574356 
L 757.722574 501.542664 
L 758.280742 497.566284 
L 758.838911 487.817872 
L 759.955247 462.041315 
L 760.513416 453.142813 
L 761.071584 450.153872 
L 761.629753 453.401263 
L 762.187921 461.649101 
L 763.304258 482.416161 
L 763.862426 489.502751 
L 764.420594 492.565996 
L 764.978763 491.865179 
L 765.536931 488.581995 
L 766.653268 480.121122 
L 767.211436 477.104433 
L 767.769605 475.796842 
L 768.327773 476.653274 
L 768.885941 479.591426 
L 770.002278 487.604325 
L 770.560447 489.95986 
L 771.118615 489.61857 
L 771.676783 485.650493 
L 772.234952 477.67802 
L 772.79312 466.100234 
L 774.467625 420.987673 
L 776.700299 364.67643 
L 777.816635 340.539753 
L 778.374804 332.694921 
L 778.932972 329.038136 
L 779.491141 330.159931 
L 780.049309 336.518603 
L 780.607477 348.589378 
L 781.165646 366.406859 
L 783.398319 456.290819 
L 783.956488 469.401661 
L 784.514656 475.780177 
L 785.072824 476.605096 
L 785.630993 473.620048 
L 786.189161 468.005811 
L 786.74733 460.247028 
L 787.863666 439.307092 
L 790.09634 387.04566 
L 790.654508 379.828503 
L 791.212677 378.553235 
L 791.770845 383.592605 
L 792.329013 394.234547 
L 793.44535 422.158742 
L 794.003518 431.00947 
L 794.561687 431.492075 
L 795.119855 423.026467 
L 796.79436 378.208538 
L 797.352529 372.561038 
L 797.910697 376.728818 
L 798.468865 390.198321 
L 800.143371 449.973867 
L 800.701539 463.494228 
L 801.259707 471.640249 
L 801.817876 475.959187 
L 802.376044 478.793116 
L 802.934212 482.225539 
L 804.050549 492.708036 
L 804.608718 497.823705 
L 805.166886 501.51022 
L 805.725054 503.566755 
L 806.283223 504.299034 
L 806.841391 504.195937 
L 807.957728 503.389694 
L 808.515896 503.330528 
L 810.190401 503.958444 
L 810.74857 503.829733 
L 811.306738 502.987528 
L 811.864906 500.521409 
L 812.423075 495.172698 
L 812.981243 486.153478 
L 814.655748 450.144289 
L 815.213917 442.863381 
L 815.772085 440.450998 
L 816.330253 442.683573 
L 817.44659 452.98696 
L 818.004759 456.212167 
L 818.562927 457.107068 
L 819.121095 457.203567 
L 819.679264 458.752692 
L 820.237432 463.199428 
L 821.353769 479.161472 
L 821.911937 487.398594 
L 822.470106 493.619384 
L 823.028274 497.237169 
L 823.586442 498.527953 
L 824.144611 498.312576 
L 824.702779 497.666141 
L 825.260947 497.508968 
L 825.819116 498.193016 
L 826.935453 500.319957 
L 827.493621 500.686262 
L 828.051789 500.500334 
L 828.609958 499.673886 
L 829.168126 497.396494 
L 829.726295 492.345325 
L 830.284463 483.489558 
L 830.842631 470.679645 
L 831.958968 436.745488 
L 833.075305 402.093991 
L 833.633473 389.534371 
L 834.191642 382.511709 
L 834.74981 381.372838 
L 835.307978 385.21783 
L 835.866147 392.768627 
L 836.424315 403.107872 
L 837.540652 429.578163 
L 839.215157 469.984015 
L 839.773325 480.153853 
L 840.331494 487.591322 
L 840.889662 491.674033 
L 841.44783 492.10481 
L 842.005999 489.011223 
L 842.564167 482.635172 
L 843.122336 473.150655 
L 844.238672 446.962857 
L 845.355009 418.943891 
L 845.913177 407.61681 
L 846.471346 399.318718 
L 847.029514 394.348803 
L 847.587683 392.749991 
L 848.145851 394.672239 
L 848.704019 400.422951 
L 849.262188 410.09323 
L 850.378524 437.905659 
L 851.494861 464.430153 
L 852.05303 472.347498 
L 852.611198 475.733848 
L 853.169366 475.499891 
L 853.727535 473.630491 
L 854.285703 472.434139 
L 854.843871 473.564933 
L 855.40204 477.481504 
L 857.634713 501.078329 
L 858.192882 503.727811 
L 858.75105 504.912481 
L 859.309218 505.176009 
L 859.867387 504.982363 
L 863.216397 502.803071 
L 863.774565 502.665995 
L 864.332734 502.75675 
L 866.007239 503.496805 
L 866.565407 503.468967 
L 867.123576 503.217198 
L 868.239912 502.597375 
L 868.798081 502.821151 
L 869.356249 503.654204 
L 869.914418 504.77905 
L 870.472586 505.505877 
L 871.030754 504.94068 
L 871.588923 502.037804 
L 872.147091 495.742312 
L 872.70526 485.291317 
L 873.263428 470.619919 
L 875.496101 400.309273 
L 876.05427 388.588749 
L 876.612438 381.781687 
L 877.170607 380.920893 
L 877.728775 386.541051 
L 878.286943 398.248009 
L 880.519617 461.617523 
L 881.077785 471.280785 
L 881.635954 477.451776 
L 882.194122 480.763239 
L 883.310459 484.279293 
L 883.868627 487.12931 
L 885.543132 498.96975 
L 886.101301 500.475435 
L 886.659469 498.816836 
L 887.217637 493.081026 
L 887.775806 482.599006 
L 888.333974 467.443254 
L 890.008479 413.781477 
L 890.566648 401.920982 
L 891.124816 395.776886 
L 891.682984 395.283581 
L 892.241153 399.245614 
L 892.799321 406.122667 
L 893.357489 415.063327 
L 893.915658 426.089729 
L 895.031995 454.250396 
L 896.148331 483.514094 
L 896.7065 494.388148 
L 897.264668 501.420976 
L 897.822836 505.016946 
L 898.381005 506.235472 
L 898.939173 506.166261 
L 900.05551 505.060813 
L 900.613678 504.678347 
L 901.730015 504.233342 
L 902.288183 503.787577 
L 902.846352 502.828889 
L 903.40452 500.983966 
L 903.962689 497.825323 
L 904.520857 493.120668 
L 905.637194 479.991257 
L 906.75353 463.29849 
L 908.428036 436.316847 
L 908.986204 430.732531 
L 909.544372 428.949059 
L 910.102541 432.230914 
L 910.660709 440.881178 
L 912.893383 491.820006 
L 913.451551 499.201405 
L 914.009719 503.306186 
L 914.567888 504.058745 
L 915.126056 500.794343 
L 915.684225 492.64016 
L 916.242393 479.274707 
L 917.35873 440.854639 
L 918.475066 400.142769 
L 919.033235 384.125178 
L 919.591403 373.404402 
L 920.149572 368.90875 
L 920.70774 369.838623 
L 921.265908 374.107378 
L 921.824077 380.257121 
L 922.382245 388.57073 
L 922.940413 400.046804 
L 924.05675 431.578888 
L 925.731255 482.057615 
L 926.289424 493.912418 
L 926.847592 501.48348 
L 927.40576 505.288635 
L 927.963929 506.512786 
L 928.522097 506.34117 
L 930.196602 504.352536 
L 930.754771 504.01831 
L 931.871107 503.809328 
L 932.987444 503.882805 
L 934.103781 504.1784 
L 935.778286 505.122094 
L 936.336454 505.152159 
L 936.894623 504.47754 
L 937.452791 502.536656 
L 938.01096 498.795365 
L 938.569128 493.136373 
L 939.685465 479.81203 
L 940.243633 475.198004 
L 940.801801 473.332054 
L 941.35997 474.295842 
L 941.918138 477.69531 
L 942.476307 482.995074 
L 943.592643 495.62004 
L 944.150812 500.586769 
L 944.70898 503.88184 
L 945.267148 505.7257 
L 945.825317 506.487609 
L 946.383485 506.327882 
L 946.941654 505.049382 
L 947.499822 502.14307 
L 948.05799 497.058381 
L 949.732495 474.521639 
L 950.290664 471.626017 
L 950.848832 473.864714 
L 951.407001 480.253573 
L 952.523337 495.828569 
L 953.081506 501.099049 
L 953.639674 504.057449 
L 954.197842 505.263181 
L 954.756011 505.420076 
L 955.872348 504.672984 
L 956.988684 504.081584 
L 958.105021 503.924546 
L 973.733736 504.148413 
L 974.850072 504.134495 
L 975.408241 503.940173 
L 975.966409 503.508538 
L 976.524578 502.784149 
L 977.082746 501.773788 
L 977.640914 500.476223 
L 978.199083 498.724019 
L 978.757251 496.053214 
L 979.315419 491.710844 
L 979.873588 484.902549 
L 980.431756 475.257028 
L 982.66443 429.721855 
L 983.222598 423.707192 
L 983.780766 420.683392 
L 984.338935 420.208346 
L 984.897103 421.57131 
L 985.455272 424.15742 
L 986.01344 427.822831 
L 986.571608 432.716686 
L 987.129777 439.070342 
L 987.687945 447.212435 
L 990.478787 494.860373 
L 991.036955 500.174362 
L 991.595124 503.496656 
L 992.153292 505.289254 
L 992.71146 506.181669 
L 993.269629 506.655419 
L 993.827797 506.844171 
L 994.385966 506.438401 
L 994.944134 504.679405 
L 995.502302 500.497758 
L 996.060471 492.840137 
L 996.618639 481.131166 
L 997.734976 448.073315 
L 998.851313 414.046537 
L 999.409481 401.357789 
L 999.967649 393.322216 
L 1000.525818 390.339554 
L 1001.083986 391.873269 
L 1001.642154 396.738268 
L 1002.758491 411.267892 
L 1003.874828 429.458443 
L 1004.991165 454.83363 
L 1006.107502 480.330208 
L 1006.66567 489.069202 
L 1007.223838 494.310905 
L 1007.782007 496.380894 
L 1008.340175 495.943852 
L 1008.898343 493.818505 
L 1010.01468 488.197137 
L 1011.131017 483.902027 
L 1011.689185 482.446386 
L 1012.247354 481.712509 
L 1012.805522 481.665408 
L 1013.921859 482.138206 
L 1014.480027 481.938965 
L 1015.596364 480.806859 
L 1016.154532 480.04236 
L 1016.712701 478.721261 
L 1018.387206 472.450432 
L 1018.945374 472.155593 
L 1019.503543 473.221287 
L 1020.061711 475.418411 
L 1020.619879 478.725731 
L 1022.852553 494.8764 
L 1023.410721 496.992512 
L 1023.96889 498.324343 
L 1025.085226 499.89346 
L 1026.759731 502.24077 
L 1027.3179 502.556337 
L 1027.876068 502.445995 
L 1028.434237 501.892051 
L 1028.992405 500.818064 
L 1029.550573 499.174196 
L 1030.66691 495.180565 
L 1031.225078 493.804974 
L 1031.783247 493.192462 
L 1032.341415 493.061151 
L 1032.899584 492.725641 
L 1033.457752 491.234187 
L 1034.01592 487.772221 
L 1034.574089 482.171165 
L 1035.690425 466.664258 
L 1037.364931 440.32725 
L 1039.597604 399.20164 
L 1040.155772 392.367061 
L 1040.713941 388.788184 
L 1041.272109 388.78826 
L 1041.830278 392.690031 
L 1042.388446 400.541409 
L 1043.504783 424.989562 
L 1044.621119 451.300793 
L 1045.179288 461.038526 
L 1045.737456 467.424674 
L 1046.295625 470.876001 
L 1046.853793 472.191075 
L 1047.411961 472.037205 
L 1047.97013 470.966839 
L 1048.528298 469.603866 
L 1049.086467 468.61864 
L 1049.644635 468.515829 
L 1050.202803 469.427083 
L 1051.31914 472.761952 
L 1051.877308 473.939147 
L 1052.435477 474.215396 
L 1052.993645 473.419044 
L 1053.551814 471.374249 
L 1054.109982 467.804474 
L 1054.66815 462.349059 
L 1055.226319 454.819018 
L 1058.017161 408.45081 
L 1058.575329 403.041959 
L 1059.133497 400.506994 
L 1059.691666 401.130636 
L 1060.249834 404.608727 
L 1062.482508 424.998961 
L 1063.040676 429.055103 
L 1063.598844 434.426209 
L 1064.157013 441.787224 
L 1065.273349 460.906513 
L 1066.389686 479.554905 
L 1066.947855 485.89186 
L 1067.506023 489.724433 
L 1068.064191 491.570711 
L 1068.62236 492.149831 
L 1069.180528 492.256674 
L 1069.738696 492.622168 
L 1070.855033 494.326697 
L 1071.413202 494.78246 
L 1071.97137 494.633229 
L 1072.529538 494.142978 
L 1073.087707 493.904169 
L 1073.645875 494.413138 
L 1074.204043 495.71988 
L 1075.878549 501.151506 
L 1076.436717 502.398402 
L 1076.994885 503.048634 
L 1077.553054 503.137556 
L 1078.111222 502.855659 
L 1080.902064 500.74575 
L 1081.460232 499.941305 
L 1082.018401 498.415641 
L 1083.692906 491.629594 
L 1084.251074 490.75146 
L 1084.809243 490.775605 
L 1085.367411 491.048653 
L 1085.925579 490.968547 
L 1086.483748 490.380649 
L 1087.600084 488.773618 
L 1088.158253 488.237398 
L 1088.716421 487.954677 
L 1089.27459 488.01629 
L 1089.832758 488.644597 
L 1090.390926 490.023912 
L 1090.949095 492.11294 
L 1092.6236 499.238457 
L 1093.181768 499.99022 
L 1093.739937 498.373891 
L 1094.298105 493.463647 
L 1094.856273 485.09779 
L 1095.97261 461.829892 
L 1097.647115 425.039344 
L 1098.205284 415.025121 
L 1098.763452 408.096253 
L 1099.32162 404.819605 
L 1099.879789 404.949852 
L 1100.437957 407.839246 
L 1100.996126 412.677258 
L 1102.112462 425.377326 
L 1103.228799 440.824248 
L 1106.577809 493.685253 
L 1107.135978 499.302654 
L 1107.694146 502.854828 
L 1108.252314 504.630163 
L 1108.810483 505.192992 
L 1109.368651 505.103434 
L 1111.043156 504.166318 
L 1112.159493 503.948976 
L 1114.392167 503.983275 
L 1120.532019 504.005058 
L 1125.555534 504.007257 
L 1126.113702 504.23259 
L 1126.671871 504.626426 
L 1127.788208 505.724896 
L 1128.346376 505.939168 
L 1128.904544 505.190729 
L 1129.462713 502.581272 
L 1130.020881 497.076225 
L 1130.579049 487.894499 
L 1131.695386 459.903657 
L 1132.811723 429.164763 
L 1133.92806 404.907789 
L 1134.486228 396.091461 
L 1135.044396 389.790284 
L 1135.602565 386.565804 
L 1136.160733 387.095824 
L 1136.718902 391.753687 
L 1137.27707 400.162439 
L 1138.393407 424.151436 
L 1140.62608 479.256699 
L 1141.184249 488.895004 
L 1141.742417 495.725361 
L 1142.300585 500.094186 
L 1142.858754 502.611631 
L 1143.416922 503.882394 
L 1143.975091 504.354391 
L 1144.533259 504.331018 
L 1145.649596 503.650418 
L 1146.207764 503.187376 
L 1146.765932 502.556977 
L 1147.882269 500.759418 
L 1148.440438 500.233609 
L 1148.998606 500.550735 
L 1149.556774 501.658558 
L 1150.114943 503.013864 
L 1150.673111 503.975204 
L 1151.231279 504.017006 
L 1151.789448 502.678188 
L 1152.347616 499.40288 
L 1152.905785 493.342408 
L 1153.463953 483.578921 
L 1154.58029 454.603199 
L 1155.138458 440.275923 
L 1155.696626 429.860362 
L 1156.254795 424.046056 
L 1156.812963 421.573571 
L 1157.371132 420.680695 
L 1159.045637 418.912676 
L 1159.603805 419.59014 
L 1160.161973 422.791709 
L 1160.720142 429.246123 
L 1161.27831 438.615857 
L 1163.510984 483.50984 
L 1164.069152 490.898865 
L 1164.62732 495.302542 
L 1165.185489 496.726151 
L 1165.743657 495.428523 
L 1166.301826 492.16723 
L 1167.418162 484.971644 
L 1167.976331 483.478368 
L 1168.534499 484.143853 
L 1169.092667 486.702455 
L 1170.767173 497.671618 
L 1171.325341 499.595921 
L 1171.883509 499.986127 
L 1172.441678 499.100933 
L 1173.558014 495.751707 
L 1174.116183 494.611226 
L 1174.674351 494.344172 
L 1175.790688 495.144402 
L 1176.348856 494.523102 
L 1176.907025 492.264862 
L 1178.023361 485.024482 
L 1178.58153 482.921956 
L 1179.139698 483.178474 
L 1179.697867 485.394726 
L 1180.814203 491.013912 
L 1181.372372 492.674136 
L 1181.93054 493.060793 
L 1182.488709 491.791942 
L 1183.046877 488.22011 
L 1183.605045 481.61895 
L 1184.163214 471.70617 
L 1186.395887 421.736213 
L 1186.954056 413.263603 
L 1187.512224 407.204457 
L 1188.070392 402.971743 
L 1189.744897 393.565319 
L 1190.303066 391.440341 
L 1190.861234 391.320735 
L 1191.419403 394.641732 
L 1191.977571 402.574853 
L 1192.535739 415.339447 
L 1194.768413 482.074981 
L 1195.326581 492.513939 
L 1195.88475 498.534922 
L 1196.442918 501.104502 
L 1197.001086 501.658015 
L 1197.559255 501.308311 
L 1198.117423 500.599011 
L 1199.23376 498.669358 
L 1200.350097 496.352269 
L 1200.908265 495.806051 
L 1201.466433 496.332444 
L 1202.024602 497.898152 
L 1203.140938 501.869224 
L 1203.699107 503.245251 
L 1204.257275 504.042542 
L 1204.815444 504.399986 
L 1205.373612 504.487755 
L 1205.93178 504.421238 
L 1206.489949 504.211305 
L 1207.048117 503.759039 
L 1207.606285 502.917525 
L 1208.164454 501.608648 
L 1209.280791 498.315452 
L 1209.838959 497.209873 
L 1210.397127 496.95813 
L 1213.187969 499.046584 
L 1214.304306 500.936772 
L 1215.420643 502.887143 
L 1215.978811 503.237743 
L 1216.536979 502.694563 
L 1217.095148 500.799004 
L 1217.653316 497.241859 
L 1218.769653 487.527877 
L 1219.327821 484.645349 
L 1219.88599 485.039055 
L 1220.444158 488.522411 
L 1221.560495 498.395028 
L 1222.118663 501.898718 
L 1222.676832 503.906056 
L 1223.235 504.739353 
L 1223.793168 504.84102 
L 1224.909505 504.238575 
L 1225.467674 503.9583 
L 1226.025842 503.852421 
L 1226.58401 503.976489 
L 1227.142179 504.328674 
L 1228.258515 505.394538 
L 1228.816684 505.669849 
L 1229.374852 505.157735 
L 1229.933021 503.115844 
L 1230.491189 498.732538 
L 1231.049357 491.456234 
L 1231.607526 481.274103 
L 1234.398368 420.504919 
L 1234.956536 414.008805 
L 1235.514704 410.161615 
L 1236.072873 409.033869 
L 1236.631041 410.821383 
L 1237.189209 415.699991 
L 1237.747378 423.639522 
L 1238.863715 446.397831 
L 1239.980051 470.530226 
L 1240.53822 479.822289 
L 1241.096388 485.875109 
L 1241.654556 488.467709 
L 1242.212725 488.553238 
L 1242.770893 487.914031 
L 1243.329062 488.09498 
L 1243.88723 489.620645 
L 1245.003567 494.322599 
L 1245.561735 495.06088 
L 1246.119903 492.52565 
L 1246.678072 484.935281 
L 1247.23624 470.98444 
L 1247.794409 450.694076 
L 1249.468914 379.739197 
L 1250.027082 364.628881 
L 1250.58525 356.73485 
L 1251.143419 355.389184 
L 1251.701587 359.040804 
L 1252.259756 366.14533 
L 1252.817924 375.72847 
L 1253.376092 387.498789 
L 1254.492429 418.221939 
L 1255.608766 452.722956 
L 1256.166934 466.503664 
L 1256.725103 476.570518 
L 1257.283271 483.075061 
L 1257.841439 486.469114 
L 1258.399608 487.587465 
L 1259.515944 487.754822 
L 1260.074113 488.326864 
L 1261.19045 490.068002 
L 1263.423123 492.530963 
L 1263.981291 492.810935 
L 1264.53946 492.475868 
L 1265.097628 491.575257 
L 1265.655797 490.457183 
L 1266.213965 489.633475 
L 1266.772133 489.493729 
L 1267.330302 490.069517 
L 1268.446639 491.871876 
L 1269.004807 492.440078 
L 1270.121144 493.070727 
L 1270.679312 493.170559 
L 1271.23748 493.020577 
L 1271.795649 492.485771 
L 1272.353817 491.427276 
L 1273.470154 488.599788 
L 1274.028322 487.751896 
L 1274.586491 487.449141 
L 1275.144659 487.000359 
L 1275.702827 485.246693 
L 1276.260996 481.263802 
L 1277.935501 461.797164 
L 1278.493669 458.951607 
L 1279.051838 459.61683 
L 1279.610006 461.868038 
L 1280.168174 462.878781 
L 1280.726343 460.576572 
L 1281.284511 454.244089 
L 1281.84268 444.325109 
L 1284.075353 395.350826 
L 1284.633521 388.626775 
L 1285.19169 386.776605 
L 1285.749858 390.238799 
L 1286.308027 399.100434 
L 1286.866195 412.81887 
L 1288.5407 464.09782 
L 1289.098868 477.266839 
L 1289.657037 486.919748 
L 1290.215205 493.528872 
L 1290.773374 497.792344 
L 1291.331542 500.344469 
L 1291.88971 501.699619 
L 1292.447879 502.24332 
L 1293.006047 502.234291 
L 1293.564215 501.829588 
L 1295.238721 499.822371 
L 1295.796889 499.689311 
L 1296.355057 499.971333 
L 1296.913226 500.647853 
L 1298.029562 502.930019 
L 1298.587731 503.518595 
L 1299.145899 502.318634 
L 1299.704068 498.076459 
L 1300.262236 489.742619 
L 1300.820404 476.685176 
L 1301.936741 438.240842 
L 1303.053078 399.140634 
L 1303.611246 386.326131 
L 1304.169415 379.285484 
L 1304.727583 377.527017 
L 1305.285751 380.257292 
L 1305.84392 386.538039 
L 1306.402088 395.546522 
L 1306.960256 407.107212 
L 1308.076593 438.34995 
L 1309.19293 471.422604 
L 1309.751098 483.326641 
L 1310.309267 491.5006 
L 1310.867435 496.934329 
L 1311.425604 500.582212 
L 1311.983772 502.947299 
L 1312.54194 504.297971 
L 1313.100109 504.896116 
L 1313.658277 504.982705 
L 1314.216445 504.685774 
L 1314.774614 503.993865 
L 1315.332782 502.809406 
L 1315.890951 501.079338 
L 1317.007287 496.964728 
L 1317.565456 495.523368 
L 1318.123624 494.884924 
L 1318.681792 495.044682 
L 1319.798129 496.528897 
L 1320.356298 496.444798 
L 1320.914466 494.910228 
L 1322.588971 486.348744 
L 1323.147139 485.153638 
L 1323.705308 485.2178 
L 1324.821645 486.615778 
L 1325.379813 486.491671 
L 1325.937981 485.735643 
L 1326.49615 485.170749 
L 1327.054318 485.599961 
L 1327.612486 487.220199 
L 1328.728823 492.630659 
L 1329.84516 498.06738 
L 1330.403328 500.134343 
L 1330.961497 501.661895 
L 1331.519665 502.654133 
L 1332.077833 503.240761 
L 1332.636002 503.600279 
L 1333.19417 503.820975 
L 1333.752339 503.913277 
L 1334.868675 503.768974 
L 1337.101349 503.057781 
L 1338.217686 503.251378 
L 1339.892191 503.904372 
L 1340.450359 504.145172 
L 1341.008527 504.242095 
L 1341.566696 504.033557 
L 1342.124864 503.34221 
L 1342.683033 502.027365 
L 1343.241201 500.063043 
L 1344.357538 494.692696 
L 1345.473874 489.437992 
L 1346.032043 487.577876 
L 1346.590211 486.426298 
L 1347.14838 486.131118 
L 1347.706548 486.541524 
L 1348.264716 487.126647 
L 1348.822885 487.342447 
L 1349.381053 486.975872 
L 1350.49739 485.616866 
L 1351.055558 485.44161 
L 1352.171895 485.727006 
L 1352.730063 485.515529 
L 1353.288232 485.004217 
L 1353.8464 484.671652 
L 1354.404568 485.110127 
L 1354.962737 486.54988 
L 1355.520905 488.838589 
L 1357.19541 496.685951 
L 1357.753579 498.329275 
L 1358.311747 499.45013 
L 1358.869916 500.077015 
L 1359.428084 499.943042 
L 1359.986252 498.792021 
L 1360.544421 496.759337 
L 1361.660757 491.934597 
L 1362.218926 490.064765 
L 1362.777094 489.050813 
L 1363.335263 489.180965 
L 1363.893431 490.563303 
L 1365.009768 495.27365 
L 1365.567936 496.454911 
L 1366.126104 494.958567 
L 1366.684273 489.717913 
L 1367.242441 480.589773 
L 1368.358778 453.784208 
L 1370.591451 394.480337 
L 1371.14962 383.518658 
L 1371.707788 375.942812 
L 1372.265957 372.663852 
L 1372.824125 373.891966 
L 1373.382293 378.830413 
L 1373.940462 386.183085 
L 1375.056798 405.047925 
L 1376.173135 428.026495 
L 1378.963977 491.991789 
L 1379.522145 497.822731 
L 1380.080314 500.116874 
L 1380.638482 500.217249 
L 1381.754819 499.133066 
L 1382.312987 498.950509 
L 1383.429324 498.777412 
L 1383.987492 498.393405 
L 1385.103829 497.147055 
L 1385.661998 496.954592 
L 1386.220166 497.324955 
L 1386.778334 498.324547 
L 1388.452839 503.286192 
L 1389.011008 503.986503 
L 1389.569176 503.470932 
L 1390.127345 501.454453 
L 1390.685513 497.869427 
L 1392.360018 484.379931 
L 1392.918186 482.699323 
L 1393.476355 483.46545 
L 1394.034523 486.164362 
L 1395.15086 492.826912 
L 1395.709028 494.117926 
L 1396.267197 492.909017 
L 1396.825365 489.424473 
L 1398.49987 474.185833 
L 1399.058039 470.723094 
L 1399.616207 469.563414 
L 1400.174375 471.034555 
L 1402.407049 484.129726 
L 1402.965217 484.876469 
L 1403.523386 483.645911 
L 1404.081554 480.525939 
L 1405.197891 472.675438 
L 1405.756059 470.607216 
L 1406.314228 470.804293 
L 1407.430564 474.898937 
L 1407.988733 475.549042 
L 1408.546901 473.406244 
L 1409.105069 467.808545 
L 1409.663238 458.645923 
L 1410.779575 432.354124 
L 1413.012248 375.933196 
L 1413.570416 365.423439 
L 1414.128585 358.068698 
L 1414.686753 354.343486 
L 1415.244922 354.026427 
L 1415.80309 356.623562 
L 1416.361258 362.430419 
L 1416.919427 372.708079 
L 1417.477595 388.452757 
L 1418.593932 432.864262 
L 1419.710269 475.706476 
L 1420.268437 489.3398 
L 1420.826605 496.543755 
L 1421.384774 498.459841 
L 1421.942942 497.101966 
L 1423.059279 491.689513 
L 1423.617447 489.783332 
L 1424.175616 489.342781 
L 1424.733784 490.642521 
L 1425.291952 493.349186 
L 1426.408289 499.975622 
L 1426.966457 502.349048 
L 1427.524626 503.332633 
L 1428.082794 502.686172 
L 1428.640963 500.370353 
L 1429.199131 496.489 
L 1430.315468 485.609241 
L 1431.431804 475.526265 
L 1431.989973 472.924437 
L 1432.548141 472.953419 
L 1433.10631 475.635727 
L 1434.780815 488.899341 
L 1435.338983 491.872877 
L 1435.897151 493.373463 
L 1436.45532 493.24289 
L 1437.013488 491.736938 
L 1438.129825 487.331988 
L 1438.687993 485.760118 
L 1439.246162 485.088567 
L 1439.80433 485.42636 
L 1440.362498 486.879068 
L 1442.037004 493.991617 
L 1442.595172 493.650959 
L 1443.15334 490.42462 
L 1443.711509 484.066789 
L 1444.269677 474.630789 
L 1445.386014 447.936248 
L 1446.502351 419.471801 
L 1447.060519 411.17631 
L 1447.618687 410.24293 
L 1448.176856 417.403436 
L 1448.735024 431.618056 
L 1450.409529 485.678418 
L 1450.967698 496.646483 
L 1451.525866 502.307156 
L 1452.084034 503.935804 
L 1452.642203 503.182328 
L 1454.874876 496.673599 
L 1455.433045 495.549312 
L 1455.991213 494.796463 
L 1456.549381 494.612046 
L 1457.10755 495.309087 
L 1458.782055 499.827057 
L 1459.340223 500.083574 
L 1459.898392 499.682482 
L 1460.45656 499.049071 
L 1461.014728 498.630594 
L 1461.572897 498.853097 
L 1462.131065 499.862017 
L 1463.247402 502.850528 
L 1463.80557 503.992825 
L 1464.363739 504.6147 
L 1464.921907 504.594052 
L 1465.480075 503.757026 
L 1466.038244 501.896987 
L 1466.596412 498.924816 
L 1468.270917 487.453791 
L 1468.829086 486.126902 
L 1469.387254 487.443844 
L 1469.945422 490.806618 
L 1471.061759 498.958366 
L 1471.619928 501.899275 
L 1472.178096 503.64479 
L 1472.736264 504.39114 
L 1473.294433 504.470695 
L 1473.852601 504.195893 
L 1474.968938 503.293855 
L 1475.527106 502.583447 
L 1476.085275 501.518764 
L 1477.201611 498.809452 
L 1477.75978 497.952051 
L 1478.317948 497.956126 
L 1478.876116 498.764242 
L 1480.550622 502.061212 
L 1482.225127 504.914283 
L 1482.783295 505.590506 
L 1483.341463 505.718099 
L 1483.899632 504.491766 
L 1484.4578 500.263396 
L 1485.015969 490.706404 
L 1485.574137 473.812483 
L 1486.132305 449.043701 
L 1487.806811 355.708833 
L 1488.364979 334.638046 
L 1488.923147 324.303474 
L 1489.481316 324.351913 
L 1490.039484 332.429214 
L 1491.155821 359.616115 
L 1492.830326 403.556805 
L 1495.621168 489.730429 
L 1496.179336 496.466745 
L 1496.737505 496.692875 
L 1497.295673 490.954562 
L 1498.41201 469.366364 
L 1498.970178 458.664138 
L 1499.528346 450.728598 
L 1500.086515 446.622915 
L 1500.644683 446.949967 
L 1501.202852 451.826771 
L 1501.76102 460.461595 
L 1502.877357 480.185116 
L 1503.435525 486.004088 
L 1503.993693 487.567668 
L 1504.551862 485.888907 
L 1506.226367 476.060737 
L 1506.784535 473.775756 
L 1507.342704 472.302999 
L 1507.900872 471.69549 
L 1508.45904 471.966086 
L 1509.575377 473.989313 
L 1510.133546 474.446231 
L 1510.691714 473.751531 
L 1511.249882 472.221248 
L 1511.808051 471.187697 
L 1512.366219 472.170413 
L 1512.924387 475.711376 
L 1515.157061 496.79668 
L 1515.715229 500.207597 
L 1516.273398 502.460239 
L 1516.831566 503.663567 
L 1517.389734 504.143814 
L 1517.947903 504.248544 
L 1520.738745 504.006292 
L 1521.296913 504.149563 
L 1522.41325 504.797499 
L 1522.971418 505.181743 
L 1523.529587 505.329019 
L 1524.087755 504.808643 
L 1524.645923 502.936664 
L 1525.204092 498.596759 
L 1525.76226 490.180372 
L 1526.320428 476.248511 
L 1527.994934 417.065004 
L 1528.553102 407.126337 
L 1529.11127 407.805706 
L 1529.669439 417.364475 
L 1531.343944 458.921601 
L 1531.902112 467.271646 
L 1532.460281 471.823142 
L 1533.018449 473.234107 
L 1533.576617 471.353383 
L 1534.134786 464.74528 
L 1534.692954 451.568139 
L 1535.251123 431.158788 
L 1536.925628 352.726533 
L 1537.483796 335.42558 
L 1538.041964 327.239474 
L 1538.600133 327.677167 
L 1539.158301 334.887023 
L 1539.71647 346.752735 
L 1540.832806 379.032305 
L 1543.06548 453.647416 
L 1543.623648 465.19997 
L 1544.181817 472.401321 
L 1544.739985 476.844857 
L 1545.856322 483.224548 
L 1546.41449 485.855432 
L 1546.972658 487.679005 
L 1547.530827 488.346837 
L 1548.088995 487.815129 
L 1548.647164 486.606727 
L 1549.205332 485.833042 
L 1549.7635 486.72231 
L 1550.321669 489.68688 
L 1551.438005 497.377268 
L 1551.996174 499.322027 
L 1552.554342 499.467989 
L 1553.670679 497.61501 
L 1554.228847 497.532489 
L 1554.787016 498.435848 
L 1556.461521 502.867385 
L 1557.019689 503.70045 
L 1557.577858 504.087089 
L 1558.136026 504.146322 
L 1560.926868 503.568803 
L 1561.485036 502.834995 
L 1562.043205 500.649806 
L 1562.601373 496.421354 
L 1563.159541 489.954226 
L 1564.275878 471.464149 
L 1564.834046 461.559919 
L 1565.392215 454.226345 
L 1565.950383 451.83753 
L 1566.508552 455.025705 
L 1567.06672 462.420131 
L 1568.741225 489.631914 
L 1569.299393 495.83086 
L 1569.857562 499.232961 
L 1570.41573 499.910405 
L 1570.973899 498.708239 
L 1571.532067 496.86626 
L 1572.090235 495.56447 
L 1572.648404 495.523621 
L 1573.206572 496.791215 
L 1574.881077 502.674602 
L 1575.439246 503.727326 
L 1575.997414 504.235465 
L 1576.555582 504.381693 
L 1577.671919 504.229983 
L 1579.346424 504.001311 
L 1582.695435 503.998657 
L 1596.091476 503.954894 
L 1598.324149 503.832036 
L 1598.882317 504.00689 
L 1599.440486 504.425966 
L 1599.998654 505.162739 
L 1601.114991 507.240256 
L 1601.673159 507.672477 
L 1602.231328 506.319063 
L 1602.789496 501.524639 
L 1603.347664 491.528264 
L 1603.905833 475.373539 
L 1606.138506 392.540413 
L 1606.696675 382.294805 
L 1607.254843 377.834191 
L 1607.813011 377.482264 
L 1608.37118 379.439533 
L 1608.929348 382.919787 
L 1609.487517 388.617436 
L 1610.045685 398.096459 
L 1610.603853 412.484485 
L 1611.72019 452.797906 
L 1612.278358 473.202929 
L 1612.836527 489.452959 
L 1613.394695 500.071205 
L 1613.952864 505.545014 
L 1614.511032 507.387589 
L 1615.0692 507.159854 
L 1616.185537 504.60184 
L 1617.860042 500.357528 
L 1618.976379 497.329981 
L 1619.534547 496.910564 
L 1620.092716 497.440087 
L 1620.650884 498.234142 
L 1621.209053 498.678232 
L 1621.767221 498.701934 
L 1622.325389 498.287973 
L 1622.883558 496.84522 
L 1623.441726 493.303596 
L 1623.999894 486.653978 
L 1624.558063 476.381634 
L 1625.6744 447.078828 
L 1626.790736 416.886077 
L 1627.348905 405.703598 
L 1627.907073 398.822297 
L 1628.465241 396.79299 
L 1629.02341 399.42117 
L 1629.581578 406.289891 
L 1630.139747 416.831625 
L 1631.814252 454.96806 
L 1632.37242 464.047791 
L 1632.930588 469.834933 
L 1633.488757 471.994563 
L 1634.046925 470.776038 
L 1634.605094 467.825001 
L 1635.163262 465.639339 
L 1635.72143 465.826693 
L 1636.279599 468.353585 
L 1636.837767 472.474349 
L 1637.954104 483.551699 
L 1639.070441 495.367054 
L 1639.628609 500.039187 
L 1640.186777 502.405633 
L 1640.744946 500.804763 
L 1641.303114 493.738979 
L 1641.861282 480.517143 
L 1642.419451 461.673503 
L 1644.093956 393.097647 
L 1644.652124 376.310801 
L 1645.210293 366.504603 
L 1645.768461 364.191505 
L 1646.326629 368.937202 
L 1646.884798 379.568627 
L 1648.001135 411.21491 
L 1649.117471 444.892179 
L 1649.67564 458.801286 
L 1650.233808 468.785374 
L 1650.791976 474.098809 
L 1651.350145 475.213978 
L 1651.908313 473.152619 
L 1652.466482 468.768232 
L 1654.140987 451.431914 
L 1654.699155 448.966199 
L 1655.257323 449.4212 
L 1655.815492 451.845327 
L 1656.931829 458.674876 
L 1657.489997 462.836168 
L 1658.048165 468.21752 
L 1659.164502 483.683508 
L 1659.72267 491.872017 
L 1660.280839 498.371232 
L 1660.839007 502.531317 
L 1661.397176 504.603247 
L 1661.955344 505.259425 
L 1662.513512 505.190708 
L 1663.071681 504.929756 
L 1663.629849 504.816184 
L 1664.188018 505.012636 
L 1665.304354 506.095872 
L 1665.862523 506.262114 
L 1666.420691 505.094554 
L 1666.978859 501.284366 
L 1667.537028 493.487487 
L 1668.095196 480.975374 
L 1669.211533 444.620251 
L 1670.32787 407.048243 
L 1670.886038 393.315094 
L 1671.444206 384.867717 
L 1672.002375 382.321255 
L 1672.560543 385.525497 
L 1673.118712 393.637528 
L 1674.235048 419.242079 
L 1676.467722 478.743513 
L 1677.02589 489.575891 
L 1677.584059 497.43374 
L 1678.142227 502.382511 
L 1678.700395 504.898791 
L 1679.258564 505.757492 
L 1679.816732 505.72118 
L 1680.933069 504.818142 
L 1681.491237 504.247553 
L 1682.049406 503.507375 
L 1682.607574 502.466657 
L 1683.723911 499.68485 
L 1684.282079 498.694896 
L 1684.840247 498.422386 
L 1685.398416 498.467307 
L 1685.956584 498.008182 
L 1686.514753 496.61803 
L 1687.072921 494.79757 
L 1687.631089 493.722258 
L 1688.189258 494.169622 
L 1688.747426 495.444439 
L 1689.305594 495.505255 
L 1689.863763 492.107383 
L 1690.421931 483.660782 
L 1690.9801 469.589247 
L 1692.654605 413.753991 
L 1693.212773 403.586054 
L 1693.770941 402.720285 
L 1694.32911 411.415323 
L 1694.887278 427.723833 
L 1696.561783 485.696212 
L 1697.119952 497.871719 
L 1697.67812 504.698081 
L 1698.236288 506.863244 
L 1698.794457 505.281324 
L 1699.352625 500.613548 
L 1699.910794 493.20231 
L 1701.02713 472.156048 
L 1701.585299 461.437096 
L 1702.143467 453.680152 
L 1702.701635 450.820202 
L 1703.259804 453.656115 
L 1703.817972 461.656702 
L 1705.492477 494.442104 
L 1706.050646 501.04436 
L 1706.608814 504.580084 
L 1707.166982 505.838984 
L 1707.725151 505.703989 
L 1708.283319 504.856616 
L 1709.399656 502.653428 
L 1709.957824 501.828401 
L 1711.074161 500.687133 
L 1712.190498 498.998726 
L 1712.748666 498.590093 
L 1713.306835 498.947901 
L 1713.865003 499.813478 
L 1714.423171 500.364149 
L 1714.98134 499.540882 
L 1715.539508 496.584562 
L 1716.097677 491.365657 
L 1716.655845 483.974883 
L 1717.214013 473.902619 
L 1717.772182 459.933426 
L 1718.33035 441.205462 
L 1720.563024 351.243433 
L 1721.121192 334.82653 
L 1721.67936 323.180487 
L 1722.237529 318.247805 
L 1722.795697 322.040368 
L 1723.353865 335.362845 
L 1723.912034 357.054932 
L 1725.586539 436.821476 
L 1726.144707 453.80168 
L 1726.702876 460.841207 
L 1727.261044 458.068519 
L 1727.819212 448.205039 
L 1728.377381 435.830759 
L 1728.935549 426.015342 
L 1729.493718 422.850361 
L 1730.051886 428.287818 
L 1730.610054 441.5431 
L 1732.284559 493.207436 
L 1732.842728 503.375575 
L 1733.400896 507.661707 
L 1733.959065 505.835499 
L 1734.517233 497.559822 
L 1735.075401 482.672211 
L 1736.749906 419.827185 
L 1737.308075 407.744288 
L 1737.866243 405.232128 
L 1738.424412 411.074828 
L 1740.098917 442.785417 
L 1740.657085 443.937105 
L 1741.215253 436.756092 
L 1742.33159 412.335795 
L 1742.889759 404.9916 
L 1743.447927 403.811156 
L 1744.006095 407.830579 
L 1744.564264 415.394701 
L 1745.6806 437.384907 
L 1746.796937 463.070546 
L 1747.355106 473.839621 
L 1747.913274 482.050477 
L 1748.471442 488.000922 
L 1749.587779 496.077907 
L 1750.145947 499.046013 
L 1750.704116 501.394973 
L 1751.262284 503.028312 
L 1751.820453 503.686538 
L 1752.378621 503.021881 
L 1752.936789 500.778427 
L 1753.494958 497.01199 
L 1754.611295 488.252659 
L 1755.169463 485.924594 
L 1755.727631 485.870533 
L 1756.2858 487.459107 
L 1757.402136 491.189445 
L 1758.518473 493.512236 
L 1760.192978 497.710631 
L 1760.751147 497.369597 
L 1761.309315 494.926286 
L 1761.867483 489.972108 
L 1762.425652 482.466375 
L 1763.541989 461.595967 
L 1764.658325 439.694187 
L 1765.216494 431.643822 
L 1765.774662 427.028279 
L 1766.33283 426.591738 
L 1766.890999 430.444041 
L 1767.449167 437.794571 
L 1768.565504 455.883056 
L 1769.123672 462.927752 
L 1769.681841 467.72851 
L 1770.240009 470.821845 
L 1770.798177 472.853417 
L 1771.356346 474.219902 
L 1771.914514 475.129151 
L 1772.472683 475.575337 
L 1773.030851 475.352517 
L 1773.589019 474.344296 
L 1774.705356 471.048175 
L 1775.821693 467.206707 
L 1776.379861 464.525015 
L 1777.496198 456.983468 
L 1778.612535 446.779134 
L 1779.170703 439.658136 
L 1779.728871 430.317342 
L 1781.961545 384.219881 
L 1782.519713 376.515453 
L 1785.310555 346.55207 
L 1785.868724 344.31181 
L 1786.426892 347.249679 
L 1786.98506 355.753191 
L 1788.659565 391.341209 
L 1789.775902 406.845895 
L 1790.892239 418.739262 
L 1791.450407 423.368849 
L 1792.008576 426.858381 
L 1792.566744 429.372747 
L 1793.124912 431.105006 
L 1793.683081 432.212382 
L 1794.241249 432.8272 
L 1795.357586 433.604445 
L 1795.915754 434.38646 
L 1797.032091 436.15464 
L 1797.59026 436.546831 
L 1798.148428 436.588148 
L 1798.706596 436.314023 
L 1799.264765 435.472095 
L 1799.822933 433.56653 
L 1800.381101 430.076343 
L 1800.93927 424.544474 
L 1801.497438 416.542913 
L 1802.055607 405.864703 
L 1804.846448 343.855421 
L 1805.404617 335.765522 
L 1805.962785 330.206737 
L 1806.520954 327.682777 
L 1807.079122 328.846166 
L 1807.63729 334.238392 
L 1808.195459 343.626086 
L 1809.311795 369.354308 
L 1811.544469 425.492762 
L 1812.102637 434.90569 
L 1812.660806 440.047067 
L 1813.218974 440.97222 
L 1813.777142 438.333873 
L 1814.335311 433.075827 
L 1816.009816 412.439443 
L 1816.567984 407.465272 
L 1817.126153 404.844598 
L 1817.684321 404.937706 
L 1818.242489 407.715216 
L 1818.800658 412.857544 
L 1819.916995 428.107952 
L 1822.149668 462.565141 
L 1822.707836 468.467118 
L 1823.266005 472.348463 
L 1823.824173 474.243577 
L 1824.382342 474.430748 
L 1824.94051 473.466631 
L 1825.498678 472.099773 
L 1826.056847 471.078821 
L 1826.615015 470.979734 
L 1827.173183 472.014883 
L 1827.731352 474.032073 
L 1828.28952 476.799139 
L 1829.405857 484.042182 
L 1830.522194 492.127031 
L 1831.080362 495.470227 
L 1831.63853 497.993863 
L 1832.196699 499.829309 
L 1832.754867 501.170549 
L 1833.313036 502.088794 
L 1833.871204 502.620838 
L 1834.429372 502.866252 
L 1835.545709 503.101193 
L 1837.778383 503.940468 
L 1838.894719 504.046361 
L 1844.476403 504.032475 
L 1845.59274 504.371883 
L 1846.709077 504.854516 
L 1847.267245 504.830092 
L 1847.825413 504.22845 
L 1848.383582 502.621768 
L 1848.94175 499.630563 
L 1849.499919 495.174393 
L 1852.29076 467.767796 
L 1852.848929 466.290984 
L 1853.407097 468.302766 
L 1853.965266 473.277007 
L 1855.639771 493.268969 
L 1856.197939 498.422304 
L 1856.756107 502.028955 
L 1857.314276 503.939757 
L 1857.872444 504.168993 
L 1858.430613 502.836648 
L 1858.988781 500.170605 
L 1860.663286 489.527035 
L 1861.221454 487.089985 
L 1861.779623 486.036989 
L 1862.337791 486.76952 
L 1862.89596 489.306086 
L 1864.570465 500.872194 
L 1865.128633 503.402902 
L 1865.686801 504.921472 
L 1866.24497 505.660759 
L 1866.803138 505.759821 
L 1867.361307 505.121274 
L 1867.919475 503.402409 
L 1868.477643 500.158029 
L 1869.035812 495.182855 
L 1870.152148 482.745201 
L 1870.710317 478.17432 
L 1871.268485 476.414675 
L 1871.826654 477.728229 
L 1872.384822 481.57956 
L 1874.059327 498.011978 
L 1874.617495 501.713013 
L 1875.175664 503.857884 
L 1875.733832 504.781636 
L 1876.292001 504.95206 
L 1877.408337 504.481969 
L 1878.524674 504.069495 
L 1879.641011 503.951283 
L 1897.502399 504.021654 
L 1898.060567 504.23328 
L 1899.176904 505.078074 
L 1899.735072 505.547377 
L 1900.293241 505.672832 
L 1900.851409 504.883324 
L 1901.409578 502.393392 
L 1901.967746 497.411738 
L 1902.525914 489.560271 
L 1903.642251 467.056778 
L 1905.316756 430.407176 
L 1905.874925 423.186065 
L 1906.433093 421.012066 
L 1906.991261 424.082021 
L 1907.54943 431.250693 
L 1908.665766 451.086435 
L 1910.89844 493.482991 
L 1911.456608 500.105044 
L 1912.014777 503.889579 
L 1912.572945 505.481635 
L 1913.131113 505.739062 
L 1913.689282 505.376093 
L 1914.805619 504.409149 
L 1915.363787 504.11472 
L 1916.480124 503.909468 
L 1936.574185 504.070969 
L 1937.690522 504.397992 
L 1938.806859 504.706468 
L 1939.365027 504.494484 
L 1939.923196 503.657748 
L 1940.481364 501.854486 
L 1941.039532 498.848607 
L 1941.597701 494.586056 
L 1942.155869 489.08261 
L 1944.388543 463.285863 
L 1944.946711 462.565081 
L 1945.504879 466.205257 
L 1946.063048 473.311517 
L 1947.179384 490.893519 
L 1947.737553 497.830195 
L 1948.295721 502.338241 
L 1948.85389 504.64755 
L 1949.412058 505.426115 
L 1949.970226 505.362716 
L 1951.644731 504.222801 
L 1952.761068 503.941962 
L 1954.435573 503.957018 
L 1958.342752 504.004178 
L 1962.808099 504.054236 
L 1963.924436 504.47713 
L 1965.040772 505.027771 
L 1965.598941 504.935291 
L 1966.157109 504.099932 
L 1966.715278 501.969385 
L 1967.273446 497.921517 
L 1967.831614 491.611783 
L 1969.506119 469.156045 
L 1970.064288 465.779524 
L 1970.622456 465.784961 
L 1971.180625 469.116414 
L 1971.738793 475.177887 
L 1973.413298 496.361709 
L 1973.971467 500.817781 
L 1974.529635 503.49318 
L 1975.087803 504.738328 
L 1975.645972 505.061745 
L 1976.20414 504.923016 
L 1977.878645 504.15293 
L 1979.55315 503.598374 
L 1980.111319 503.244581 
L 1980.669487 502.494173 
L 1981.227655 500.847765 
L 1981.785824 497.879442 
L 1982.343992 493.62593 
L 1983.460329 482.795643 
L 1984.018497 476.239643 
L 1984.576666 468.19694 
L 1985.134834 458.022638 
L 1987.367508 410.465246 
L 1987.925676 406.638733 
L 1988.483844 408.978487 
L 1989.042013 417.024928 
L 1990.158349 443.641744 
L 1991.274686 470.150355 
L 1991.832855 478.663794 
L 1992.391023 482.708859 
L 1992.949191 482.461283 
L 1993.50736 478.878144 
L 1994.623696 466.739543 
L 1996.85637 440.969284 
L 1998.530875 423.639333 
L 1999.647212 409.742824 
L 2002.438054 369.478601 
L 2002.996222 366.700756 
L 2003.55439 368.203275 
L 2004.112559 373.138371 
L 2005.228896 386.067879 
L 2005.787064 391.262141 
L 2006.345232 394.404677 
L 2006.903401 395.094385 
L 2007.461569 393.806392 
L 2008.577906 389.771062 
L 2009.136074 388.349609 
L 2009.694243 387.353809 
L 2010.252411 386.812961 
L 2010.810579 387.05901 
L 2011.368748 388.489404 
L 2011.926916 391.157148 
L 2013.043253 397.866452 
L 2013.601421 400.443833 
L 2014.15959 402.036001 
L 2014.717758 402.853356 
L 2015.275926 403.46961 
L 2016.392263 405.232607 
L 2016.950432 405.495317 
L 2017.5086 404.240487 
L 2018.066768 400.706671 
L 2018.624937 394.606206 
L 2020.299442 370.436505 
L 2020.85761 365.699336 
L 2021.415779 364.594053 
L 2021.973947 367.207751 
L 2023.090284 379.123501 
L 2023.648452 384.640176 
L 2024.20662 387.955061 
L 2025.322957 390.909187 
L 2025.881126 394.329831 
L 2026.439294 400.54318 
L 2027.555631 416.835832 
L 2028.113799 422.265464 
L 2028.671967 422.84145 
L 2029.230136 417.541857 
L 2029.788304 406.857331 
L 2030.904641 375.956497 
L 2032.020978 344.099774 
L 2032.579146 332.24023 
L 2033.137314 326.075261 
L 2033.695483 327.470774 
L 2034.253651 336.908948 
L 2034.81182 353.395697 
L 2036.486325 418.109267 
L 2037.044493 432.412335 
L 2037.602661 438.778631 
L 2038.16083 438.0789 
L 2039.835335 424.018943 
L 2040.393503 422.625655 
L 2040.951672 422.357848 
L 2041.50984 420.747394 
L 2042.068008 415.283658 
L 2042.626177 405.256532 
L 2043.742514 380.568753 
L 2044.300682 371.624204 
L 2044.85885 366.364501 
L 2045.417019 363.812833 
L 2045.975187 362.47768 
L 2046.533355 361.431747 
L 2047.091524 360.887907 
L 2047.649692 361.987454 
L 2048.207861 365.997181 
L 2048.766029 373.426471 
L 2050.440534 402.422789 
L 2050.998702 407.432916 
L 2051.556871 408.888196 
L 2052.115039 408.123832 
L 2052.673208 406.649135 
L 2053.231376 404.735403 
L 2053.789544 401.16858 
L 2054.347713 394.54 
L 2056.022218 366.389589 
L 2056.580386 362.359653 
L 2057.138555 363.070566 
L 2057.696723 367.825238 
L 2058.254891 375.384439 
L 2059.929396 403.021405 
L 2060.487565 409.698473 
L 2061.045733 413.441511 
L 2061.603902 414.725721 
L 2062.720238 414.806891 
L 2063.278407 415.447777 
L 2063.836575 417.207252 
L 2064.952912 422.380668 
L 2065.51108 423.229517 
L 2066.069249 421.595548 
L 2066.627417 417.396916 
L 2067.185585 410.977765 
L 2067.743754 402.773971 
L 2068.301922 392.926156 
L 2069.418259 367.056319 
L 2070.534596 337.446877 
L 2071.092764 327.022955 
L 2071.650932 322.66577 
L 2072.209101 325.011752 
L 2072.767269 332.881094 
L 2073.883606 354.082091 
L 2074.441774 361.297025 
L 2074.999943 363.795824 
L 2075.558111 361.745702 
L 2077.232616 346.573848 
L 2077.790785 345.975456 
L 2078.348953 349.105386 
L 2078.907121 354.867899 
L 2080.581626 375.439151 
L 2081.139795 379.847703 
L 2081.697963 382.153881 
L 2082.256132 382.712326 
L 2083.372468 381.927915 
L 2083.930637 382.361323 
L 2084.488805 383.650882 
L 2086.16331 388.590033 
L 2086.721479 391.328979 
L 2088.395984 403.603012 
L 2088.954152 405.326819 
L 2089.51232 404.464683 
L 2090.070489 401.400993 
L 2091.186826 393.497108 
L 2091.744994 390.927292 
L 2092.303162 389.989774 
L 2092.861331 390.667696 
L 2093.419499 392.629172 
L 2094.535836 397.420469 
L 2095.094004 397.866623 
L 2095.652173 395.64389 
L 2096.210341 390.802094 
L 2097.884846 371.994681 
L 2098.443014 368.485682 
L 2099.001183 366.704944 
L 2099.559351 365.299559 
L 2101.233856 359.303587 
L 2101.792025 360.233847 
L 2102.350193 363.401543 
L 2103.46653 372.139283 
L 2104.024698 375.544443 
L 2106.257372 384.758931 
L 2106.81554 386.346211 
L 2107.373709 386.907559 
L 2107.931877 386.964447 
L 2108.490045 387.233146 
L 2109.606382 388.566849 
L 2110.16455 388.279209 
L 2110.722719 386.444096 
L 2112.397224 376.204732 
L 2112.955392 375.683059 
L 2113.513561 378.062791 
L 2115.188066 390.522542 
L 2115.746234 391.482059 
L 2116.304403 390.205409 
L 2116.862571 387.277991 
L 2117.420739 383.100384 
L 2119.095244 368.119551 
L 2119.653413 365.132822 
L 2120.211581 363.689813 
L 2120.76975 363.483513 
L 2121.327918 364.390504 
L 2121.886086 366.582972 
L 2122.444255 370.210976 
L 2124.11876 383.878979 
L 2124.676928 386.708517 
L 2125.235097 388.256364 
L 2125.793265 388.761981 
L 2126.351433 388.599484 
L 2126.909602 388.205269 
L 2127.46777 388.00187 
L 2128.025938 388.300454 
L 2128.584107 389.221688 
L 2129.142275 390.532707 
L 2129.700444 391.471943 
L 2130.258612 390.989831 
L 2130.81678 388.463906 
L 2131.933117 379.268491 
L 2133.049454 370.92803 
L 2133.607622 367.908539 
L 2134.165791 365.764889 
L 2134.723959 365.261659 
L 2135.282127 367.271446 
L 2135.840296 371.984718 
L 2138.072969 398.78056 
L 2138.631138 402.411334 
L 2140.305643 410.53385 
L 2141.421979 416.267942 
L 2142.538316 421.346817 
L 2143.096485 423.472599 
L 2143.654653 425.066957 
L 2144.212821 426.208124 
L 2144.77099 426.939611 
L 2145.887326 427.677237 
L 2146.445495 428.473763 
L 2147.003663 429.534052 
L 2147.561832 430.261934 
L 2148.12 430.488514 
L 2148.12 430.488514 
" style="fill:none;stroke:#bfbf00;stroke-linecap:round;stroke-width:1.5;"/>
   </g>
   <g id="line2d_18">
    <path clip-path="url(#pce029987af)" d="M 298.35 445.308947 
L 311.746041 445.308947 
L 312.304209 433.374577 
L 312.862378 429.81233 
L 313.420546 427.887157 
L 313.978715 423.395089 
L 314.536883 423.395089 
L 315.095051 425.294197 
L 315.65322 427.887157 
L 325.70025 427.887157 
L 326.258419 426.171516 
L 326.816587 425.294197 
L 335.189113 425.294197 
L 335.747281 426.171516 
L 336.863618 429.366527 
L 364.213868 429.366527 
L 364.772037 431.113101 
L 365.330205 440.897555 
L 365.888374 447.441217 
L 366.446542 451.022718 
L 378.726246 451.022718 
L 379.284415 451.848422 
L 379.842583 452.34948 
L 380.400751 452.630131 
L 380.95892 458.258424 
L 397.145803 458.258424 
L 397.703971 459.007693 
L 398.262139 459.157018 
L 407.751002 459.157018 
L 408.30917 459.007693 
L 408.867339 457.516624 
L 424.496053 457.516624 
L 425.054221 456.710811 
L 425.61239 454.988707 
L 426.170558 454.897456 
L 426.728727 454.074752 
L 432.31041 454.074752 
L 432.868579 453.828658 
L 433.984916 449.979726 
L 434.543084 447.709682 
L 435.101252 444.759702 
L 435.659421 440.617963 
L 436.775757 430.562737 
L 437.892094 430.562737 
L 438.450263 435.910339 
L 451.846304 435.910339 
L 452.404472 437.720809 
L 452.96264 440.166913 
L 453.520809 441.518457 
L 456.311651 441.518457 
L 456.869819 442.506054 
L 457.427987 443.110975 
L 457.986156 443.152424 
L 458.544324 443.904007 
L 484.778238 443.904007 
L 485.336406 443.307589 
L 485.894575 441.983226 
L 486.452743 440.132507 
L 487.56908 435.733873 
L 488.127248 434.703618 
L 488.685416 434.304182 
L 490.359922 434.203524 
L 490.91809 432.138932 
L 491.476258 428.259789 
L 492.034427 422.518452 
L 493.150763 406.377915 
L 494.2671 391.237078 
L 494.825269 386.000788 
L 495.383437 385.489088 
L 495.941605 384.516804 
L 496.499774 382.237704 
L 497.057942 382.237704 
L 497.61611 384.516804 
L 498.174279 385.489088 
L 498.732447 393.510135 
L 499.290616 406.196176 
L 499.848784 412.41695 
L 500.406952 412.695098 
L 500.965121 413.279938 
L 501.523289 413.559954 
L 502.081457 413.979173 
L 502.639626 415.85124 
L 503.755963 421.328703 
L 504.872299 421.434718 
L 531.664381 421.434718 
L 532.22255 431.796218 
L 532.780718 446.943035 
L 533.338887 455.790079 
L 559.5728 455.790079 
L 560.130969 451.292031 
L 560.689137 448.144001 
L 561.247305 446.138855 
L 561.805474 442.535131 
L 584.690377 442.535131 
L 585.248546 431.193612 
L 585.806714 416.143146 
L 586.364882 409.309965 
L 586.923051 408.82786 
L 587.481219 404.058677 
L 591.388398 404.058677 
L 591.946566 393.230492 
L 592.504734 385.316903 
L 593.621071 381.338568 
L 594.17924 381.338568 
L 594.737408 382.517383 
L 595.295576 383.128599 
L 608.133449 383.128599 
L 608.691617 382.517383 
L 609.249786 381.251338 
L 620.971322 381.251338 
L 621.52949 382.491088 
L 622.087658 382.517383 
L 622.645827 384.73183 
L 623.203995 390.166875 
L 623.762164 392.754885 
L 624.320332 392.967627 
L 624.8785 392.998837 
L 625.436669 393.799125 
L 625.994837 394.255184 
L 633.251026 394.255184 
L 633.809194 394.806601 
L 634.367363 395.09968 
L 634.925531 395.776805 
L 641.623552 395.776805 
L 642.739888 398.483918 
L 643.298057 401.144892 
L 644.414393 429.656334 
L 644.972562 440.66808 
L 645.53073 449.367799 
L 646.088899 455.472213 
L 646.647067 457.118318 
L 653.903256 457.129776 
L 654.461424 458.820282 
L 655.019593 459.419569 
L 655.577761 460.233895 
L 665.066623 460.233895 
L 665.624792 460.489393 
L 682.369843 460.416878 
L 682.928011 460.233895 
L 683.48618 459.167518 
L 692.416874 459.167518 
L 692.975042 457.980604 
L 693.533211 453.656648 
L 694.091379 446.781479 
L 694.649547 436.269277 
L 695.765884 404.406499 
L 696.324053 404.077608 
L 697.440389 402.096252 
L 701.905736 402.096252 
L 702.463905 404.077608 
L 703.022073 404.406499 
L 703.580241 404.864569 
L 704.696578 419.129112 
L 705.254747 424.657221 
L 731.48866 424.657221 
L 732.046829 423.774323 
L 732.604997 421.174104 
L 733.163165 420.468879 
L 742.093859 420.468879 
L 742.652028 421.174104 
L 743.210196 423.774323 
L 743.768365 424.522705 
L 744.326533 441.002096 
L 744.884701 450.108807 
L 771.118615 450.108807 
L 771.676783 445.108519 
L 772.234952 444.407702 
L 772.79312 442.502383 
L 778.374804 442.502383 
L 778.932972 442.161094 
L 780.049309 440.146848 
L 783.956488 440.146848 
L 784.514656 438.193016 
L 785.072824 430.220543 
L 785.630993 429.147619 
L 786.189161 428.3227 
L 786.74733 426.162571 
L 787.863666 426.162571 
L 788.421835 428.3227 
L 788.980003 428.50171 
L 789.538171 429.147619 
L 790.09634 431.335639 
L 790.654508 434.768062 
L 791.770845 445.250559 
L 792.329013 450.366228 
L 792.887182 454.052744 
L 793.44535 456.109278 
L 794.003518 456.294747 
L 796.236192 456.337016 
L 796.79436 456.500967 
L 820.237432 456.500967 
L 821.353769 456.337016 
L 823.586442 456.337016 
L 824.144611 455.530051 
L 824.702779 453.228785 
L 825.260947 453.063932 
L 825.819116 453.042857 
L 826.377284 452.86248 
L 840.889662 452.86248 
L 841.44783 452.216409 
L 842.005999 449.939017 
L 842.564167 444.887848 
L 843.122336 444.647333 
L 844.238672 444.647333 
L 845.355009 453.620852 
L 845.913177 456.270334 
L 846.471346 457.455004 
L 873.821596 457.483203 
L 874.379765 457.321573 
L 883.868627 457.321573 
L 884.426795 457.483203 
L 885.543132 457.559469 
L 886.101301 458.160841 
L 912.335214 458.160841 
L 912.893383 457.603336 
L 913.451551 457.22087 
L 914.567888 457.22087 
L 915.126056 457.831158 
L 915.684225 458.181461 
L 931.871107 458.268223 
L 932.429276 458.883693 
L 942.476307 458.870406 
L 943.034475 458.268223 
L 959.221358 458.268223 
L 959.779526 457.962599 
L 960.895863 457.644199 
L 968.152052 457.644199 
L 969.268389 456.856958 
L 970.384725 456.690936 
L 974.850072 456.677018 
L 979.315419 456.720945 
L 980.431756 458.724192 
L 980.989925 458.980925 
L 1007.223838 458.980925 
L 1007.782007 457.221928 
L 1008.898343 448.923417 
L 1009.456512 448.486375 
L 1010.01468 448.486375 
L 1010.572849 448.923417 
L 1011.131017 449.535035 
L 1011.689185 450.866866 
L 1012.805522 452.435983 
L 1014.480027 454.783293 
L 1040.713941 454.783293 
L 1041.272109 454.434574 
L 1041.830278 453.360587 
L 1042.388446 451.716719 
L 1043.504783 447.723088 
L 1044.062951 446.347497 
L 1044.621119 445.734985 
L 1045.179288 445.603674 
L 1045.737456 445.268164 
L 1046.295625 443.77671 
L 1046.853793 440.314744 
L 1047.411961 434.713688 
L 1047.97013 427.444603 
L 1048.528298 426.757919 
L 1049.086467 426.48167 
L 1049.644635 425.961567 
L 1052.435477 425.961567 
L 1052.993645 426.48167 
L 1053.551814 426.757919 
L 1055.226319 442.266956 
L 1055.784487 444.113235 
L 1056.342655 444.692354 
L 1056.900824 444.799197 
L 1057.458992 445.164691 
L 1058.575329 446.86922 
L 1060.249834 446.955661 
L 1061.366171 447.324983 
L 1061.924339 448.262403 
L 1063.598844 453.694029 
L 1064.157013 454.940925 
L 1064.715181 455.398182 
L 1090.949095 455.398182 
L 1093.739937 453.288273 
L 1094.856273 453.288273 
L 1095.97261 457.172686 
L 1096.530779 457.311258 
L 1113.27583 457.311258 
L 1113.833998 457.645958 
L 1114.950335 457.735515 
L 1141.742417 457.733252 
L 1142.300585 456.896914 
L 1142.858754 456.873541 
L 1143.416922 456.584946 
L 1159.045637 456.517728 
L 1159.603805 456.192941 
L 1160.161973 455.729899 
L 1160.720142 455.556387 
L 1164.069152 455.556387 
L 1164.62732 455.220711 
L 1165.185489 452.52865 
L 1165.743657 452.138444 
L 1167.418162 451.643456 
L 1182.488709 451.643456 
L 1183.605045 452.52865 
L 1184.163214 453.647025 
L 1189.186729 453.647025 
L 1189.744897 453.850834 
L 1190.303066 454.200539 
L 1190.861234 454.411747 
L 1191.419403 455.787774 
L 1191.977571 456.585065 
L 1192.535739 456.942509 
L 1210.397127 457.030278 
L 1211.513464 457.130111 
L 1213.746138 457.130111 
L 1214.862474 457.383543 
L 1215.420643 457.391615 
L 1215.978811 457.700258 
L 1242.212725 457.700258 
L 1242.770893 455.658367 
L 1243.88723 447.603403 
L 1244.445398 446.865122 
L 1245.003567 445.068173 
L 1250.027082 445.073486 
L 1250.58525 445.353458 
L 1256.166934 445.353458 
L 1256.725103 445.613251 
L 1257.841439 445.713082 
L 1259.515944 445.613251 
L 1261.19045 445.5631 
L 1276.819164 445.613251 
L 1277.377333 445.713082 
L 1277.935501 446.071395 
L 1278.493669 450.334868 
L 1279.051838 452.886992 
L 1279.610006 454.242142 
L 1280.168174 454.372111 
L 1284.075353 454.372111 
L 1284.633521 454.776814 
L 1296.355057 454.861157 
L 1298.029562 454.861157 
L 1298.587731 455.472542 
L 1299.145899 455.489822 
L 1299.704068 456.061118 
L 1300.262236 456.840494 
L 1300.820404 457.228297 
L 1327.054318 457.228297 
L 1327.612486 456.784618 
L 1329.286992 456.57608 
L 1354.404568 456.57608 
L 1354.962737 455.884733 
L 1355.520905 454.569888 
L 1356.079074 452.619538 
L 1357.19541 452.485565 
L 1357.753579 451.992653 
L 1366.126104 451.992653 
L 1366.684273 452.485565 
L 1367.242441 452.619538 
L 1372.824125 452.619538 
L 1373.940462 452.457223 
L 1375.056798 452.759772 
L 1376.173135 455.828715 
L 1402.407049 455.828715 
L 1402.965217 453.996976 
L 1404.081554 446.660449 
L 1404.639722 445.66671 
L 1405.197891 445.45154 
L 1406.314228 445.369435 
L 1407.430564 445.45154 
L 1407.988733 446.660449 
L 1408.546901 449.086278 
L 1411.895911 449.086278 
L 1412.45408 449.273536 
L 1413.012248 449.644489 
L 1414.128585 452.518145 
L 1414.686753 454.891571 
L 1438.129825 454.891571 
L 1438.687993 455.228696 
L 1439.246162 455.724851 
L 1441.478835 455.724851 
L 1442.595172 454.849679 
L 1449.293193 454.849679 
L 1449.851361 455.393051 
L 1450.409529 455.724851 
L 1450.967698 456.478327 
L 1452.084034 456.535348 
L 1458.782055 456.535348 
L 1459.340223 456.933664 
L 1460.45656 457.013218 
L 1468.270917 457.013218 
L 1470.503591 457.456806 
L 1496.179336 457.456806 
L 1496.737505 457.034289 
L 1497.853841 449.235398 
L 1498.41201 449.009268 
L 1498.970178 443.497085 
L 1500.644683 443.497085 
L 1501.202852 444.858332 
L 1501.76102 449.009268 
L 1502.319188 449.235398 
L 1502.877357 449.339203 
L 1503.435525 452.75012 
L 1503.993693 455.002762 
L 1504.551862 456.20609 
L 1505.11003 456.686337 
L 1509.017209 456.791067 
L 1509.575377 456.961973 
L 1510.133546 457.340022 
L 1515.715229 457.351166 
L 1536.925628 457.351166 
L 1537.483796 455.479187 
L 1538.041964 451.139282 
L 1541.390975 451.075846 
L 1541.949143 451.86455 
L 1542.507311 452.010512 
L 1543.06548 452.494074 
L 1544.181817 455.409908 
L 1544.739985 456.242973 
L 1545.298153 456.553206 
L 1562.601373 456.629612 
L 1564.834046 456.777988 
L 1586.044445 456.88159 
L 1587.160782 456.968489 
L 1587.71895 457.705262 
L 1588.277118 458.730069 
L 1588.835287 458.861586 
L 1600.556823 458.861586 
L 1601.114991 459.78278 
L 1615.627369 459.702377 
L 1616.185537 458.861586 
L 1616.743705 458.550374 
L 1628.465241 458.550374 
L 1629.581578 455.77336 
L 1630.139747 454.948156 
L 1630.697915 454.419032 
L 1631.256083 453.347286 
L 1632.37242 452.58171 
L 1646.884798 452.58171 
L 1647.442966 453.347286 
L 1648.001135 454.948156 
L 1648.559303 455.07384 
L 1649.117471 457.14577 
L 1649.67564 457.472279 
L 1650.791976 457.555159 
L 1652.466482 458.052992 
L 1665.304354 458.052992 
L 1665.862523 458.300015 
L 1679.816732 458.263703 
L 1680.3749 457.86391 
L 1684.282079 457.86391 
L 1684.840247 458.263703 
L 1712.190498 458.246512 
L 1713.306835 457.399139 
L 1719.446687 457.399139 
L 1720.004855 458.246512 
L 1720.563024 458.378022 
L 1721.121192 458.378022 
L 1721.67936 458.246512 
L 1722.237529 457.399139 
L 1722.795697 456.280778 
L 1723.353865 455.918098 
L 1737.866243 455.918098 
L 1738.424412 456.229061 
L 1747.355106 456.229061 
L 1747.913274 455.570835 
L 1757.960305 455.564404 
L 1765.216494 455.564404 
L 1765.774662 453.32095 
L 1766.33283 450.253154 
L 1768.007336 449.183358 
L 1773.589019 449.183358 
L 1774.147188 447.468809 
L 1774.705356 442.514631 
L 1775.821693 428.11786 
L 1776.93803 427.671674 
L 1785.868724 427.671674 
L 1786.426892 426.886819 
L 1787.543229 423.590698 
L 1788.659565 419.74923 
L 1789.217734 417.067538 
L 1790.334071 409.525991 
L 1791.450407 399.321657 
L 1792.008576 392.200659 
L 1792.566744 389.130672 
L 1793.124912 389.089354 
L 1793.683081 388.856546 
L 1798.706596 388.856546 
L 1799.264765 389.089354 
L 1799.822933 389.130672 
L 1800.381101 390.876396 
L 1807.079122 390.876396 
L 1807.63729 392.58959 
L 1808.195459 393.514743 
L 1808.753627 398.67728 
L 1809.869964 415.107664 
L 1810.428132 421.009642 
L 1810.986301 424.890986 
L 1811.544469 426.009154 
L 1813.777142 426.009154 
L 1814.335311 426.574596 
L 1815.451648 426.973271 
L 1816.009816 429.341662 
L 1817.126153 436.584705 
L 1818.242489 444.669554 
L 1818.800658 448.01275 
L 1819.358826 450.536386 
L 1819.916995 452.371832 
L 1820.475163 453.713072 
L 1821.033331 454.631317 
L 1821.5915 455.163361 
L 1822.149668 455.408775 
L 1823.266005 455.643716 
L 1825.498678 456.482991 
L 1826.615015 456.576256 
L 1832.196699 456.588884 
L 1833.313036 456.914406 
L 1833.871204 457.176565 
L 1851.732592 457.176565 
L 1852.29076 457.372616 
L 1853.407097 457.463995 
L 1853.965266 457.663797 
L 1880.199179 457.663797 
L 1881.315516 457.324159 
L 1885.222695 457.308049 
L 1885.780863 457.324159 
L 1886.8972 457.620597 
L 1898.618736 457.620597 
L 1899.176904 458.024158 
L 1900.293241 458.0899 
L 1914.24745 458.024158 
L 1915.363787 457.918616 
L 1926.527154 457.918616 
L 1927.085323 457.397483 
L 1928.759828 457.037008 
L 1935.457849 457.145878 
L 1936.574185 457.248991 
L 1937.132354 457.51138 
L 1979.55315 457.465539 
L 1980.111319 457.280851 
L 1989.600181 457.177749 
L 1990.716518 456.695453 
L 1992.391023 456.140897 
L 1992.949191 455.787105 
L 1993.50736 455.036696 
L 1994.065528 453.390288 
L 1994.623696 450.421966 
L 1995.181865 446.168453 
L 1996.298202 435.338166 
L 1996.85637 435.251382 
L 1997.414538 435.003806 
L 1997.972707 431.420667 
L 2006.345232 431.420667 
L 2007.461569 419.282066 
L 2009.694243 393.511807 
L 2011.368748 376.181856 
L 2012.485084 362.285347 
L 2013.043253 358.03784 
L 2014.15959 358.03784 
L 2014.717758 361.282733 
L 2015.275926 369.378355 
L 2015.834095 370.08438 
L 2022.532115 370.08438 
L 2023.090284 370.65179 
L 2023.648452 374.807987 
L 2024.20662 375.383973 
L 2024.764789 384.954858 
L 2025.322957 385.799923 
L 2051.556871 385.799923 
L 2052.115039 380.303053 
L 2052.673208 376.561466 
L 2053.789544 375.168178 
L 2054.347713 374.923192 
L 2054.905881 374.900371 
L 2055.464049 374.138071 
L 2078.907121 374.138071 
L 2079.46529 369.939439 
L 2080.581626 357.869342 
L 2081.697963 356.145535 
L 2102.350193 356.145535 
L 2102.908361 353.943516 
L 2103.46653 350.409146 
L 2104.024698 349.962992 
L 2104.582867 349.840991 
L 2105.141035 348.186413 
L 2108.490045 348.186413 
L 2109.048214 344.024582 
L 2109.606382 343.344617 
L 2110.722719 342.747932 
L 2115.188066 342.747932 
L 2115.746234 343.065065 
L 2116.304403 343.07523 
L 2116.862571 343.532355 
L 2123.560591 343.532355 
L 2124.11876 344.014467 
L 2124.676928 344.024582 
L 2125.235097 345.870714 
L 2125.793265 351.323083 
L 2126.351433 354.953857 
L 2128.025938 363.076373 
L 2129.142275 368.810466 
L 2130.258612 373.88934 
L 2130.81678 376.015122 
L 2131.374949 377.60948 
L 2131.933117 378.750647 
L 2132.491285 379.482135 
L 2133.607622 380.21976 
L 2134.165791 381.016286 
L 2134.723959 382.076575 
L 2135.282127 382.804457 
L 2148.12 382.804457 
L 2148.12 382.804457 
" style="fill:none;stroke:#0000ff;stroke-linecap:round;stroke-width:1.5;"/>
   </g>
   <g id="line2d_19">
    <defs>
     <path d="M 0 3 
C 0.795609 3 1.55874 2.683901 2.12132 2.12132 
C 2.683901 1.55874 3 0.795609 3 0 
C 3 -0.795609 2.683901 -1.55874 2.12132 -2.12132 
C 1.55874 -2.683901 0.795609 -3 0 -3 
C -0.795609 -3 -1.55874 -2.683901 -2.12132 -2.12132 
C -2.683901 -1.55874 -3 -0.795609 -3 0 
C -3 0.795609 -2.683901 1.55874 -2.12132 2.12132 
C -1.55874 2.683901 -0.795609 3 0 3 
z
" id="m8fcc40b45e" style="stroke:#008000;"/>
    </defs>
    <g clip-path="url(#pce029987af)">
     <use style="fill:#008000;stroke:#008000;" x="308.397031" xlink:href="#m8fcc40b45e" y="419.261264"/>
     <use style="fill:#008000;stroke:#008000;" x="316.211388" xlink:href="#m8fcc40b45e" y="393.463063"/>
     <use style="fill:#008000;stroke:#008000;" x="324.583914" xlink:href="#m8fcc40b45e" y="367.200547"/>
     <use style="fill:#008000;stroke:#008000;" x="339.096291" xlink:href="#m8fcc40b45e" y="413.164192"/>
     <use style="fill:#008000;stroke:#008000;" x="346.35248" xlink:href="#m8fcc40b45e" y="414.124184"/>
     <use style="fill:#008000;stroke:#008000;" x="354.166838" xlink:href="#m8fcc40b45e" y="395.140209"/>
     <use style="fill:#008000;stroke:#008000;" x="363.6557" xlink:href="#m8fcc40b45e" y="424.735582"/>
     <use style="fill:#008000;stroke:#008000;" x="374.260899" xlink:href="#m8fcc40b45e" y="432.228831"/>
     <use style="fill:#008000;stroke:#008000;" x="388.773277" xlink:href="#m8fcc40b45e" y="393.320172"/>
     <use style="fill:#008000;stroke:#008000;" x="404.401992" xlink:href="#m8fcc40b45e" y="354.073627"/>
     <use style="fill:#008000;stroke:#008000;" x="431.752242" xlink:href="#m8fcc40b45e" y="394.150839"/>
     <use style="fill:#008000;stroke:#008000;" x="441.241104" xlink:href="#m8fcc40b45e" y="302.716799"/>
     <use style="fill:#008000;stroke:#008000;" x="457.427987" xlink:href="#m8fcc40b45e" y="351.279073"/>
     <use style="fill:#008000;stroke:#008000;" x="484.220069" xlink:href="#m8fcc40b45e" y="418.797667"/>
     <use style="fill:#008000;stroke:#008000;" x="491.476258" xlink:href="#m8fcc40b45e" y="393.5013"/>
     <use style="fill:#008000;stroke:#008000;" x="495.941605" xlink:href="#m8fcc40b45e" y="352.044527"/>
     <use style="fill:#008000;stroke:#008000;" x="503.755963" xlink:href="#m8fcc40b45e" y="255.631002"/>
     <use style="fill:#008000;stroke:#008000;" x="526.640866" xlink:href="#m8fcc40b45e" y="369.306678"/>
     <use style="fill:#008000;stroke:#008000;" x="541.153244" xlink:href="#m8fcc40b45e" y="361.058419"/>
     <use style="fill:#008000;stroke:#008000;" x="557.340127" xlink:href="#m8fcc40b45e" y="305.914826"/>
     <use style="fill:#008000;stroke:#008000;" x="565.154484" xlink:href="#m8fcc40b45e" y="342.160492"/>
     <use style="fill:#008000;stroke:#008000;" x="574.643346" xlink:href="#m8fcc40b45e" y="425.977482"/>
     <use style="fill:#008000;stroke:#008000;" x="583.015872" xlink:href="#m8fcc40b45e" y="321.743398"/>
     <use style="fill:#008000;stroke:#008000;" x="590.272061" xlink:href="#m8fcc40b45e" y="330.652072"/>
     <use style="fill:#008000;stroke:#008000;" x="598.086418" xlink:href="#m8fcc40b45e" y="366.750354"/>
     <use style="fill:#008000;stroke:#008000;" x="604.784439" xlink:href="#m8fcc40b45e" y="371.765906"/>
     <use style="fill:#008000;stroke:#008000;" x="612.598796" xlink:href="#m8fcc40b45e" y="330.423137"/>
     <use style="fill:#008000;stroke:#008000;" x="629.343847" xlink:href="#m8fcc40b45e" y="251.8998"/>
     <use style="fill:#008000;stroke:#008000;" x="644.414393" xlink:href="#m8fcc40b45e" y="379.792011"/>
     <use style="fill:#008000;stroke:#008000;" x="652.228751" xlink:href="#m8fcc40b45e" y="395.686308"/>
     <use style="fill:#008000;stroke:#008000;" x="663.950287" xlink:href="#m8fcc40b45e" y="443.377357"/>
     <use style="fill:#008000;stroke:#008000;" x="673.997317" xlink:href="#m8fcc40b45e" y="396.64841"/>
     <use style="fill:#008000;stroke:#008000;" x="690.1842" xlink:href="#m8fcc40b45e" y="344.742581"/>
     <use style="fill:#008000;stroke:#008000;" x="698.556726" xlink:href="#m8fcc40b45e" y="339.845164"/>
     <use style="fill:#008000;stroke:#008000;" x="721.441629" xlink:href="#m8fcc40b45e" y="420.614555"/>
     <use style="fill:#008000;stroke:#008000;" x="727.023313" xlink:href="#m8fcc40b45e" y="389.275432"/>
     <use style="fill:#008000;stroke:#008000;" x="735.395839" xlink:href="#m8fcc40b45e" y="398.672646"/>
     <use style="fill:#008000;stroke:#008000;" x="744.884701" xlink:href="#m8fcc40b45e" y="391.297292"/>
     <use style="fill:#008000;stroke:#008000;" x="752.699059" xlink:href="#m8fcc40b45e" y="380.639658"/>
     <use style="fill:#008000;stroke:#008000;" x="778.932972" xlink:href="#m8fcc40b45e" y="329.038136"/>
     <use style="fill:#008000;stroke:#008000;" x="791.770845" xlink:href="#m8fcc40b45e" y="383.592605"/>
     <use style="fill:#008000;stroke:#008000;" x="797.352529" xlink:href="#m8fcc40b45e" y="372.561038"/>
     <use style="fill:#008000;stroke:#008000;" x="815.772085" xlink:href="#m8fcc40b45e" y="440.450998"/>
     <use style="fill:#008000;stroke:#008000;" x="834.74981" xlink:href="#m8fcc40b45e" y="381.372838"/>
     <use style="fill:#008000;stroke:#008000;" x="847.587683" xlink:href="#m8fcc40b45e" y="392.749991"/>
     <use style="fill:#008000;stroke:#008000;" x="877.170607" xlink:href="#m8fcc40b45e" y="380.920893"/>
     <use style="fill:#008000;stroke:#008000;" x="891.682984" xlink:href="#m8fcc40b45e" y="395.283581"/>
     <use style="fill:#008000;stroke:#008000;" x="909.544372" xlink:href="#m8fcc40b45e" y="428.949059"/>
     <use style="fill:#008000;stroke:#008000;" x="920.149572" xlink:href="#m8fcc40b45e" y="368.90875"/>
     <use style="fill:#008000;stroke:#008000;" x="984.338935" xlink:href="#m8fcc40b45e" y="420.208346"/>
     <use style="fill:#008000;stroke:#008000;" x="1000.525818" xlink:href="#m8fcc40b45e" y="390.339554"/>
     <use style="fill:#008000;stroke:#008000;" x="1040.713941" xlink:href="#m8fcc40b45e" y="388.788184"/>
     <use style="fill:#008000;stroke:#008000;" x="1059.133497" xlink:href="#m8fcc40b45e" y="400.506994"/>
     <use style="fill:#008000;stroke:#008000;" x="1099.32162" xlink:href="#m8fcc40b45e" y="404.819605"/>
     <use style="fill:#008000;stroke:#008000;" x="1135.602565" xlink:href="#m8fcc40b45e" y="386.565804"/>
     <use style="fill:#008000;stroke:#008000;" x="1159.045637" xlink:href="#m8fcc40b45e" y="418.912676"/>
     <use style="fill:#008000;stroke:#008000;" x="1190.861234" xlink:href="#m8fcc40b45e" y="391.320735"/>
     <use style="fill:#008000;stroke:#008000;" x="1236.072873" xlink:href="#m8fcc40b45e" y="409.033869"/>
     <use style="fill:#008000;stroke:#008000;" x="1251.143419" xlink:href="#m8fcc40b45e" y="355.389184"/>
     <use style="fill:#008000;stroke:#008000;" x="1285.19169" xlink:href="#m8fcc40b45e" y="386.776605"/>
     <use style="fill:#008000;stroke:#008000;" x="1304.727583" xlink:href="#m8fcc40b45e" y="377.527017"/>
     <use style="fill:#008000;stroke:#008000;" x="1372.265957" xlink:href="#m8fcc40b45e" y="372.663852"/>
     <use style="fill:#008000;stroke:#008000;" x="1415.244922" xlink:href="#m8fcc40b45e" y="354.026427"/>
     <use style="fill:#008000;stroke:#008000;" x="1447.618687" xlink:href="#m8fcc40b45e" y="410.24293"/>
     <use style="fill:#008000;stroke:#008000;" x="1488.923147" xlink:href="#m8fcc40b45e" y="324.303474"/>
     <use style="fill:#008000;stroke:#008000;" x="1528.553102" xlink:href="#m8fcc40b45e" y="407.126337"/>
     <use style="fill:#008000;stroke:#008000;" x="1538.041964" xlink:href="#m8fcc40b45e" y="327.239474"/>
     <use style="fill:#008000;stroke:#008000;" x="1565.950383" xlink:href="#m8fcc40b45e" y="451.83753"/>
     <use style="fill:#008000;stroke:#008000;" x="1607.813011" xlink:href="#m8fcc40b45e" y="377.482264"/>
     <use style="fill:#008000;stroke:#008000;" x="1628.465241" xlink:href="#m8fcc40b45e" y="396.79299"/>
     <use style="fill:#008000;stroke:#008000;" x="1645.768461" xlink:href="#m8fcc40b45e" y="364.191505"/>
     <use style="fill:#008000;stroke:#008000;" x="1654.699155" xlink:href="#m8fcc40b45e" y="448.966199"/>
     <use style="fill:#008000;stroke:#008000;" x="1672.002375" xlink:href="#m8fcc40b45e" y="382.321255"/>
     <use style="fill:#008000;stroke:#008000;" x="1693.770941" xlink:href="#m8fcc40b45e" y="402.720285"/>
     <use style="fill:#008000;stroke:#008000;" x="1702.701635" xlink:href="#m8fcc40b45e" y="450.820202"/>
     <use style="fill:#008000;stroke:#008000;" x="1722.237529" xlink:href="#m8fcc40b45e" y="318.247805"/>
     <use style="fill:#008000;stroke:#008000;" x="1729.493718" xlink:href="#m8fcc40b45e" y="422.850361"/>
     <use style="fill:#008000;stroke:#008000;" x="1737.866243" xlink:href="#m8fcc40b45e" y="405.232128"/>
     <use style="fill:#008000;stroke:#008000;" x="1743.447927" xlink:href="#m8fcc40b45e" y="403.811156"/>
     <use style="fill:#008000;stroke:#008000;" x="1765.774662" xlink:href="#m8fcc40b45e" y="427.028279"/>
     <use style="fill:#008000;stroke:#008000;" x="1785.868724" xlink:href="#m8fcc40b45e" y="344.31181"/>
     <use style="fill:#008000;stroke:#008000;" x="1806.520954" xlink:href="#m8fcc40b45e" y="327.682777"/>
     <use style="fill:#008000;stroke:#008000;" x="1818.242489" xlink:href="#m8fcc40b45e" y="407.715216"/>
     <use style="fill:#008000;stroke:#008000;" x="1906.433093" xlink:href="#m8fcc40b45e" y="421.012066"/>
     <use style="fill:#008000;stroke:#008000;" x="1987.925676" xlink:href="#m8fcc40b45e" y="406.638733"/>
     <use style="fill:#008000;stroke:#008000;" x="2002.996222" xlink:href="#m8fcc40b45e" y="366.700756"/>
     <use style="fill:#008000;stroke:#008000;" x="2033.137314" xlink:href="#m8fcc40b45e" y="326.075261"/>
     <use style="fill:#008000;stroke:#008000;" x="2047.091524" xlink:href="#m8fcc40b45e" y="360.887907"/>
     <use style="fill:#008000;stroke:#008000;" x="2056.580386" xlink:href="#m8fcc40b45e" y="362.359653"/>
     <use style="fill:#008000;stroke:#008000;" x="2071.650932" xlink:href="#m8fcc40b45e" y="322.66577"/>
     <use style="fill:#008000;stroke:#008000;" x="2077.790785" xlink:href="#m8fcc40b45e" y="345.975456"/>
     <use style="fill:#008000;stroke:#008000;" x="2134.723959" xlink:href="#m8fcc40b45e" y="365.261659"/>
    </g>
   </g>
   <g id="patch_3">
    <path d="M 293.35 504 
L 293.35 69.12 
" style="fill:none;stroke:#262626;stroke-linecap:square;stroke-linejoin:miter;stroke-width:0.8;"/>
   </g>
   <g id="patch_4">
    <path d="M 298.35 509 
L 2148.12 509 
" style="fill:none;stroke:#262626;stroke-linecap:square;stroke-linejoin:miter;stroke-width:0.8;"/>
   </g>
   <g id="text_19">
    <text style="fill:#262626;font-family:Arial;font-size:36px;font-stretch:normal;font-style:normal;font-weight:normal;text-anchor:middle;" transform="rotate(-0, 1223.235, 61.965)" x="1223.235" y="61.965">20201123_GN902_60x_002-1.tif LAM-1::wSc</text>
   </g>
  </g>
 </g>
 <defs>
  <clipPath id="pce029987af">
   <rect height="434.88" width="1849.77" x="298.35" y="69.12"/>
  </clipPath>
 </defs>
</svg>
